<svg version="1.1" viewBox="0.0 0.0 540.0 334.0" fill="none" stroke="none" stroke-linecap="square" stroke-miterlimit="10" width="540" height="334" xmlns:xlink="http://www.w3.org/1999/xlink" xmlns="http://www.w3.org/2000/svg"><path fill="#ffffff" d="M0 0L540.0 0L540.0 334.0L0 334.0L0 0Z" fill-rule="nonzero"/><path fill="#ffffff" d="M0 0L540.0 0L540.0 334.0L0 334.0L0 0Z" fill-rule="nonzero"/><path stroke="#333333" stroke-width="1.0" stroke-linecap="butt" d="M43.5 296.5L523.5 296.5" fill-rule="nonzero"/><path stroke="#cccccc" stroke-width="1.0" stroke-linecap="butt" d="M43.5 226.5L523.5 226.5" fill-rule="nonzero"/><path stroke="#cccccc" stroke-width="1.0" stroke-linecap="butt" d="M43.5 155.5L523.5 155.5" fill-rule="nonzero"/><path stroke="#cccccc" stroke-width="1.0" stroke-linecap="butt" d="M43.5 85.5L523.5 85.5" fill-rule="nonzero"/><clipPath id="id_0"><path d="M43.7 85.46667L523.3 85.46667L523.3 296.3L43.7 296.3L43.7 85.46667Z" clip-rule="nonzero"/></clipPath><path stroke="#000000" stroke-width="0.0" stroke-linecap="butt" stroke-opacity="0.0" clip-path="url(#id_0)" d="M180.0 296.0L115.0 296.0L115.0 136.0C115.0 134.89543 115.89543 134.0 117.0 134.0L178.0 134.0C179.10457 134.0 180.0 134.89543 180.0 136.0Z" fill-rule="nonzero"/><path fill="#4285f4" clip-path="url(#id_0)" d="M180.0 296.0L115.0 296.0L115.0 136.0C115.0 134.89543 115.89543 134.0 117.0 134.0L178.0 134.0C179.10457 134.0 180.0 134.89543 180.0 136.0Z" fill-rule="nonzero"/><path stroke="#000000" stroke-width="0.0" stroke-linecap="butt" stroke-opacity="0.0" clip-path="url(#id_0)" d="M385.0 296.0L320.0 296.0L320.0 195.0C320.0 193.89543 320.89542 193.0 322.0 193.0L383.0 193.0C384.10458 193.0 385.0 193.89543 385.0 195.0Z" fill-rule="nonzero"/><path fill="#4285f4" clip-path="url(#id_0)" d="M385.0 296.0L320.0 296.0L320.0 195.0C320.0 193.89543 320.89542 193.0 322.0 193.0L383.0 193.0C384.10458 193.0 385.0 193.89543 385.0 195.0Z" fill-rule="nonzero"/><path stroke="#000000" stroke-width="0.0" stroke-linecap="butt" stroke-opacity="0.0" clip-path="url(#id_0)" d="M246.0 296.0L181.0 296.0L181.0 113.0C181.0 111.89543 181.89543 111.0 183.0 111.0L244.0 111.0C245.10457 111.0 246.0 111.89543 246.0 113.0Z" fill-rule="nonzero"/><path fill="#db4437" clip-path="url(#id_0)" d="M246.0 296.0L181.0 296.0L181.0 113.0C181.0 111.89543 181.89543 111.0 183.0 111.0L244.0 111.0C245.10457 111.0 246.0 111.89543 246.0 113.0Z" fill-rule="nonzero"/><path stroke="#000000" stroke-width="0.0" stroke-linecap="butt" stroke-opacity="0.0" clip-path="url(#id_0)" d="M451.0 296.0L386.0 296.0L386.0 296.0L451.0 296.0Z" fill-rule="nonzero"/><path fill="#db4437" clip-path="url(#id_0)" d="M451.0 296.0L386.0 296.0L386.0 296.0L451.0 296.0Z" fill-rule="nonzero"/><path fill="#757575" d="M36.7625 297.15936Q36.7625 299.0656 36.10625 300.0031Q35.465626 300.925 34.075 300.925Q32.715626 300.925 32.059376 300.01874Q31.403126 299.1125 31.371876 297.3L31.371876 295.8625Q31.371876 293.97186 32.0125 293.0656Q32.66875 292.14374 34.059376 292.14374Q35.434376 292.14374 36.090626 293.03436Q36.746876 293.90936 36.7625 295.7531L36.7625 297.15936ZM35.66875 295.675Q35.66875 294.3 35.278126 293.675Q34.903126 293.03436 34.059376 293.03436Q33.23125 293.03436 32.840626 293.675Q32.465626 294.3 32.465626 295.59686L32.465626 297.33124Q32.465626 298.70624 32.85625 299.3781Q33.2625 300.03436 34.075 300.03436Q34.871876 300.03436 35.2625 299.40936Q35.653126 298.78436 35.66875 297.45624L35.66875 295.675Z" fill-rule="nonzero"/><path fill="#757575" d="M31.903126 226.24097L32.340626 221.99097L36.715626 221.99097L36.715626 222.99097L33.2625 222.99097L32.996876 225.31909Q33.6375 224.94409 34.434376 224.94409Q35.590626 224.94409 36.278126 225.72534Q36.965626 226.49097 36.965626 227.80347Q36.965626 229.11597 36.246876 229.88159Q35.54375 230.64722 34.2625 230.64722Q33.1375 230.64722 32.41875 230.02222Q31.7 229.38159 31.60625 228.27222L32.621876 228.27222Q32.73125 229.00659 33.153126 229.38159Q33.575 229.75659 34.2625 229.75659Q35.0125 229.75659 35.45 229.24097Q35.8875 228.72534 35.8875 227.81909Q35.8875 226.95972 35.41875 226.44409Q34.95 225.92847 34.16875 225.92847Q33.465626 225.92847 33.059376 226.22534L32.778126 226.45972L31.903126 226.24097Z" fill-rule="nonzero"/><path fill="#757575" d="M27.965626 160.24445L26.8875 160.24445L26.8875 153.0257L24.7 153.82257L24.7 152.8382L27.809376 151.66632L27.965626 151.66632L27.965626 160.24445ZM36.7625 156.60382Q36.7625 158.51007 36.10625 159.44757Q35.465626 160.36945 34.075 160.36945Q32.715626 160.36945 32.059376 159.4632Q31.403126 158.55695 31.371876 156.74445L31.371876 155.30695Q31.371876 153.41632 32.0125 152.51007Q32.66875 151.5882 34.059376 151.5882Q35.434376 151.5882 36.090626 152.47882Q36.746876 153.35382 36.7625 155.19757L36.7625 156.60382ZM35.66875 155.11945Q35.66875 153.74445 35.278126 153.11945Q34.903126 152.47882 34.059376 152.47882Q33.23125 152.47882 32.840626 153.11945Q32.465626 153.74445 32.465626 155.04132L32.465626 156.7757Q32.465626 158.1507 32.85625 158.82257Q33.2625 159.47882 34.075 159.47882Q34.871876 159.47882 35.2625 158.85382Q35.653126 158.22882 35.66875 156.9007L35.66875 155.11945Z" fill-rule="nonzero"/><path fill="#757575" d="M27.965626 89.96667L26.8875 89.96667L26.8875 82.74792L24.7 83.54479L24.7 82.56042L27.809376 81.38854L27.965626 81.38854L27.965626 89.96667ZM31.903126 85.68542L32.340626 81.43542L36.715626 81.43542L36.715626 82.43542L33.2625 82.43542L32.996876 84.76354Q33.6375 84.38854 34.434376 84.38854Q35.590626 84.38854 36.278126 85.16979Q36.965626 85.93542 36.965626 87.24792Q36.965626 88.56042 36.246876 89.32604Q35.54375 90.09167 34.2625 90.09167Q33.1375 90.09167 32.41875 89.46667Q31.7 88.82604 31.60625 87.71667L32.621876 87.71667Q32.73125 88.45104 33.153126 88.82604Q33.575 89.20104 34.2625 89.20104Q35.0125 89.20104 35.45 88.68542Q35.8875 88.16979 35.8875 87.26354Q35.8875 86.40417 35.41875 85.88854Q34.95 85.37292 34.16875 85.37292Q33.465626 85.37292 33.059376 85.66979L32.778126 85.90417L31.903126 85.68542Z" fill-rule="nonzero"/><path fill="#757575" d="M134.44182 314.3L134.44182 305.76874L136.8637 305.76874Q137.97307 305.76874 138.81682 306.26874Q139.6762 306.7531 140.14494 307.65936Q140.6137 308.5656 140.6137 309.7531L140.6137 310.28436Q140.6137 311.5031 140.14494 312.40936Q139.69182 313.3156 138.81682 313.8Q137.95744 314.28436 136.81682 314.3L134.44182 314.3ZM135.56682 306.6906L135.56682 313.3781L136.75432 313.3781Q138.0512 313.3781 138.76994 312.58124Q139.50432 311.76874 139.50432 310.26874L139.50432 309.76874Q139.50432 308.3156 138.81682 307.51874Q138.14494 306.70624 136.87932 306.6906L135.56682 306.6906ZM143.45744 314.3L142.37932 314.3L142.37932 307.95624L143.45744 307.95624L143.45744 314.3ZM142.28557 306.28436Q142.28557 306.01874 142.44182 305.83124Q142.6137 305.64374 142.9262 305.64374Q143.2387 305.64374 143.39494 305.83124Q143.56682 306.01874 143.56682 306.28436Q143.56682 306.53436 143.39494 306.72186Q143.2387 306.89374 142.9262 306.89374Q142.6137 306.89374 142.44182 306.72186Q142.28557 306.53436 142.28557 306.28436ZM147.81682 313.53436Q148.39494 313.53436 148.83244 313.1906Q149.26994 312.83124 149.31682 312.3L150.34807 312.3Q150.31682 312.84686 149.95744 313.34686Q149.6137 313.83124 149.03557 314.1281Q148.47307 314.425 147.81682 314.425Q146.51994 314.425 145.75432 313.5656Q145.00432 312.6906 145.00432 311.1906L145.00432 311.0031Q145.00432 310.08124 145.33244 309.3625Q145.6762 308.64374 146.3012 308.2531Q146.94182 307.84686 147.81682 307.84686Q148.87932 307.84686 149.58244 308.4875Q150.3012 309.1125 150.34807 310.14374L149.31682 310.14374Q149.26994 309.51874 148.84807 309.1281Q148.4262 308.7375 147.81682 308.7375Q146.9887 308.7375 146.53557 309.33124Q146.08244 309.925 146.08244 311.05L146.08244 311.2531Q146.08244 312.34686 146.53557 312.9406Q146.9887 313.53436 147.81682 313.53436ZM152.75432 306.425L152.75432 307.95624L153.9262 307.95624L153.9262 308.8L152.75432 308.8L152.75432 312.72186Q152.75432 313.1125 152.91057 313.3Q153.06682 313.4875 153.44182 313.4875Q153.62932 313.4875 153.95744 313.425L153.95744 314.3Q153.53557 314.425 153.12932 314.425Q152.41057 314.425 152.03557 313.9875Q151.66057 313.53436 151.66057 312.72186L151.66057 308.8L150.50432 308.8L150.50432 307.95624L151.66057 307.95624L151.66057 306.425L152.75432 306.425ZM160.16057 312.0656L156.58244 312.0656L155.78557 314.3L154.62932 314.3L157.87932 305.76874L158.8637 305.76874L162.12932 314.3L160.97307 314.3L160.16057 312.0656ZM156.9262 311.14374L159.83244 311.14374L158.37932 307.15936L156.9262 311.14374ZM163.01994 311.08124Q163.01994 309.6125 163.70744 308.7375Q164.39494 307.84686 165.51994 307.84686Q166.62932 307.84686 167.28557 308.59686L167.28557 305.3L168.3637 305.3L168.3637 314.3L167.3637 314.3L167.31682 313.6125Q166.66057 314.425 165.50432 314.425Q164.41057 314.425 163.70744 313.51874Q163.01994 312.6125 163.01994 311.15936L163.01994 311.08124ZM164.09807 311.20624Q164.09807 312.28436 164.53557 312.89374Q164.9887 313.5031 165.76994 313.5031Q166.8012 313.5031 167.28557 312.5656L167.28557 309.65936Q166.8012 308.76874 165.78557 308.76874Q164.9887 308.76874 164.53557 309.3781Q164.09807 309.9875 164.09807 311.20624ZM170.01994 311.08124Q170.01994 309.6125 170.70744 308.7375Q171.39494 307.84686 172.51994 307.84686Q173.62932 307.84686 174.28557 308.59686L174.28557 305.3L175.3637 305.3L175.3637 314.3L174.3637 314.3L174.31682 313.6125Q173.66057 314.425 172.50432 314.425Q171.41057 314.425 170.70744 313.51874Q170.01994 312.6125 170.01994 311.15936L170.01994 311.08124ZM171.09807 311.20624Q171.09807 312.28436 171.53557 312.89374Q171.9887 313.5031 172.76994 313.5031Q173.8012 313.5031 174.28557 312.5656L174.28557 309.65936Q173.8012 308.76874 172.78557 308.76874Q171.9887 308.76874 171.53557 309.3781Q171.09807 309.9875 171.09807 311.20624ZM180.2387 310.83124Q180.2387 309.51874 180.58244 308.3Q180.94182 307.08124 181.64494 306.08124Q182.34807 305.08124 183.1137 304.675L183.33244 305.39374Q182.47307 306.05 181.9262 307.39374Q181.37932 308.7375 181.33244 310.40936L181.31682 310.90936Q181.31682 313.175 182.14494 314.83124Q182.64494 315.83124 183.33244 316.39374L183.1137 317.05Q182.33244 316.6281 181.6137 315.59686Q180.2387 313.6125 180.2387 310.83124ZM187.72307 314.3L186.64494 314.3L186.64494 307.08124L184.45744 307.8781L184.45744 306.89374L187.56682 305.72186L187.72307 305.72186L187.72307 314.3ZM196.51994 310.65936Q196.51994 312.5656 195.8637 313.5031Q195.22307 314.425 193.83244 314.425Q192.47307 314.425 191.81682 313.51874Q191.16057 312.6125 191.12932 310.8L191.12932 309.3625Q191.12932 307.47186 191.76994 306.5656Q192.4262 305.64374 193.81682 305.64374Q195.19182 305.64374 195.84807 306.53436Q196.50432 307.40936 196.51994 309.2531L196.51994 310.65936ZM195.4262 309.175Q195.4262 307.8 195.03557 307.175Q194.66057 306.53436 193.81682 306.53436Q192.9887 306.53436 192.59807 307.175Q192.22307 307.8 192.22307 309.09686L192.22307 310.83124Q192.22307 312.20624 192.6137 312.8781Q193.01994 313.53436 193.83244 313.53436Q194.62932 313.53436 195.01994 312.90936Q195.41057 312.28436 195.4262 310.95624L195.4262 309.175ZM203.51994 310.65936Q203.51994 312.5656 202.8637 313.5031Q202.22307 314.425 200.83244 314.425Q199.47307 314.425 198.81682 313.51874Q198.16057 312.6125 198.12932 310.8L198.12932 309.3625Q198.12932 307.47186 198.76994 306.5656Q199.4262 305.64374 200.81682 305.64374Q202.19182 305.64374 202.84807 306.53436Q203.50432 307.40936 203.51994 309.2531L203.51994 310.65936ZM202.4262 309.175Q202.4262 307.8 202.03557 307.175Q201.66057 306.53436 200.81682 306.53436Q199.9887 306.53436 199.59807 307.175Q199.22307 307.8 199.22307 309.09686L199.22307 310.83124Q199.22307 312.20624 199.6137 312.8781Q200.01994 313.53436 200.83244 313.53436Q201.62932 313.53436 202.01994 312.90936Q202.41057 312.28436 202.4262 310.95624L202.4262 309.175ZM210.51994 310.65936Q210.51994 312.5656 209.8637 313.5031Q209.22307 314.425 207.83244 314.425Q206.47307 314.425 205.81682 313.51874Q205.16057 312.6125 205.12932 310.8L205.12932 309.3625Q205.12932 307.47186 205.76994 306.5656Q206.4262 305.64374 207.81682 305.64374Q209.19182 305.64374 209.84807 306.53436Q210.50432 307.40936 210.51994 309.2531L210.51994 310.65936ZM209.4262 309.175Q209.4262 307.8 209.03557 307.175Q208.66057 306.53436 207.81682 306.53436Q206.9887 306.53436 206.59807 307.175Q206.22307 307.8 206.22307 309.09686L206.22307 310.83124Q206.22307 312.20624 206.6137 312.8781Q207.01994 313.53436 207.83244 313.53436Q208.62932 313.53436 209.01994 312.90936Q209.41057 312.28436 209.4262 310.95624L209.4262 309.175ZM217.51994 310.65936Q217.51994 312.5656 216.8637 313.5031Q216.22307 314.425 214.83244 314.425Q213.47307 314.425 212.81682 313.51874Q212.16057 312.6125 212.12932 310.8L212.12932 309.3625Q212.12932 307.47186 212.76994 306.5656Q213.4262 305.64374 214.81682 305.64374Q216.19182 305.64374 216.84807 306.53436Q217.50432 307.40936 217.51994 309.2531L217.51994 310.65936ZM216.4262 309.175Q216.4262 307.8 216.03557 307.175Q215.66057 306.53436 214.81682 306.53436Q213.9887 306.53436 213.59807 307.175Q213.22307 307.8 213.22307 309.09686L213.22307 310.83124Q213.22307 312.20624 213.6137 312.8781Q214.01994 313.53436 214.83244 313.53436Q215.62932 313.53436 216.01994 312.90936Q216.41057 312.28436 216.4262 310.95624L216.4262 309.175ZM224.51994 310.65936Q224.51994 312.5656 223.8637 313.5031Q223.22307 314.425 221.83244 314.425Q220.47307 314.425 219.81682 313.51874Q219.16057 312.6125 219.12932 310.8L219.12932 309.3625Q219.12932 307.47186 219.76994 306.5656Q220.4262 305.64374 221.81682 305.64374Q223.19182 305.64374 223.84807 306.53436Q224.50432 307.40936 224.51994 309.2531L224.51994 310.65936ZM223.4262 309.175Q223.4262 307.8 223.03557 307.175Q222.66057 306.53436 221.81682 306.53436Q220.9887 306.53436 220.59807 307.175Q220.22307 307.8 220.22307 309.09686L220.22307 310.83124Q220.22307 312.20624 220.6137 312.8781Q221.01994 313.53436 221.83244 313.53436Q222.62932 313.53436 223.01994 312.90936Q223.41057 312.28436 223.4262 310.95624L223.4262 309.175ZM228.78557 310.89374Q228.78557 312.20624 228.44182 313.40936Q228.09807 314.59686 227.37932 315.6125Q226.6762 316.6281 225.91057 317.05L225.6762 316.39374Q226.58244 315.70624 227.12932 314.2531Q227.6762 312.78436 227.69182 311.01874L227.69182 310.83124Q227.69182 309.59686 227.4262 308.53436Q227.1762 307.47186 226.70744 306.64374Q226.25432 305.8 225.6762 305.33124L225.91057 304.675Q226.6762 305.09686 227.37932 306.09686Q228.08244 307.09686 228.4262 308.3156Q228.78557 309.51874 228.78557 310.89374Z" fill-rule="nonzero"/><path fill="#757575" d="M331.15192 310.95624L331.15192 314.3L330.02692 314.3L330.02692 305.76874L333.18317 305.76874Q334.5738 305.76874 335.37067 306.4875Q336.16754 307.1906 336.16754 308.3781Q336.16754 309.6125 335.3863 310.28436Q334.62067 310.95624 333.16754 310.95624L331.15192 310.95624ZM331.15192 310.03436L333.18317 310.03436Q334.08942 310.03436 334.55817 309.6125Q335.04254 309.1906 335.04254 308.39374Q335.04254 307.6281 334.55817 307.175Q334.08942 306.70624 333.24567 306.6906L331.15192 306.6906L331.15192 310.03436ZM337.5738 311.0656Q337.5738 310.14374 337.93317 309.39374Q338.30817 308.64374 338.96442 308.2531Q339.62067 307.84686 340.4488 307.84686Q341.74567 307.84686 342.54254 308.7375Q343.35504 309.6281 343.35504 311.1281L343.35504 311.20624Q343.35504 312.1281 342.99567 312.8625Q342.6363 313.59686 341.98004 314.01874Q341.3238 314.425 340.46442 314.425Q339.18317 314.425 338.37067 313.53436Q337.5738 312.6281 337.5738 311.14374L337.5738 311.0656ZM338.66754 311.20624Q338.66754 312.2531 339.15192 312.89374Q339.65192 313.53436 340.46442 313.53436Q341.29254 313.53436 341.77692 312.89374Q342.2613 312.2375 342.2613 311.0656Q342.2613 310.03436 341.7613 309.39374Q341.27692 308.7375 340.4488 308.7375Q339.65192 308.7375 339.15192 309.3781Q338.66754 310.0031 338.66754 311.20624ZM344.5738 311.0656Q344.5738 310.14374 344.93317 309.39374Q345.30817 308.64374 345.96442 308.2531Q346.62067 307.84686 347.4488 307.84686Q348.74567 307.84686 349.54254 308.7375Q350.35504 309.6281 350.35504 311.1281L350.35504 311.20624Q350.35504 312.1281 349.99567 312.8625Q349.6363 313.59686 348.98004 314.01874Q348.3238 314.425 347.46442 314.425Q346.18317 314.425 345.37067 313.53436Q344.5738 312.6281 344.5738 311.14374L344.5738 311.0656ZM345.66754 311.20624Q345.66754 312.2531 346.15192 312.89374Q346.65192 313.53436 347.46442 313.53436Q348.29254 313.53436 348.77692 312.89374Q349.2613 312.2375 349.2613 311.0656Q349.2613 310.03436 348.7613 309.39374Q348.27692 308.7375 347.4488 308.7375Q346.65192 308.7375 346.15192 309.3781Q345.66754 310.0031 345.66754 311.20624ZM353.04254 314.3L351.96442 314.3L351.96442 305.3L353.04254 305.3L353.04254 314.3ZM357.49567 314.425Q356.1988 314.425 355.3863 313.58124Q354.58942 312.72186 354.58942 311.3L354.58942 311.1125Q354.58942 310.15936 354.9488 309.425Q355.30817 308.675 355.9488 308.26874Q356.60504 307.84686 357.35504 307.84686Q358.58942 307.84686 359.27692 308.65936Q359.96442 309.47186 359.96442 310.9875L359.96442 311.4406L355.66754 311.4406Q355.6988 312.3781 356.21442 312.95624Q356.74567 313.53436 357.55817 313.53436Q358.12067 313.53436 358.5113 313.3Q358.91754 313.0656 359.23004 312.675L359.8863 313.1906Q359.08942 314.425 357.49567 314.425ZM357.35504 308.7375Q356.6988 308.7375 356.24567 309.22186Q355.80817 309.6906 355.71442 310.55L358.8863 310.55L358.8863 310.47186Q358.83942 309.64374 358.43317 309.1906Q358.04254 308.7375 357.35504 308.7375ZM360.60504 311.08124Q360.60504 309.6125 361.29254 308.7375Q361.98004 307.84686 363.10504 307.84686Q364.21442 307.84686 364.87067 308.59686L364.87067 305.3L365.9488 305.3L365.9488 314.3L364.9488 314.3L364.90192 313.6125Q364.24567 314.425 363.08942 314.425Q361.99567 314.425 361.29254 313.51874Q360.60504 312.6125 360.60504 311.15936L360.60504 311.08124ZM361.68317 311.20624Q361.68317 312.28436 362.12067 312.89374Q362.5738 313.5031 363.35504 313.5031Q364.3863 313.5031 364.87067 312.5656L364.87067 309.65936Q364.3863 308.76874 363.37067 308.76874Q362.5738 308.76874 362.12067 309.3781Q361.68317 309.9875 361.68317 311.20624ZM372.74567 312.0656L369.16754 312.0656L368.37067 314.3L367.21442 314.3L370.46442 305.76874L371.4488 305.76874L374.71442 314.3L373.55817 314.3L372.74567 312.0656ZM369.5113 311.14374L372.41754 311.14374L370.96442 307.15936L369.5113 311.14374ZM375.60504 311.08124Q375.60504 309.6125 376.29254 308.7375Q376.98004 307.84686 378.10504 307.84686Q379.21442 307.84686 379.87067 308.59686L379.87067 305.3L380.9488 305.3L380.9488 314.3L379.9488 314.3L379.90192 313.6125Q379.24567 314.425 378.08942 314.425Q376.99567 314.425 376.29254 313.51874Q375.60504 312.6125 375.60504 311.15936L375.60504 311.08124ZM376.68317 311.20624Q376.68317 312.28436 377.12067 312.89374Q377.5738 313.5031 378.35504 313.5031Q379.3863 313.5031 379.87067 312.5656L379.87067 309.65936Q379.3863 308.76874 378.37067 308.76874Q377.5738 308.76874 377.12067 309.3781Q376.68317 309.9875 376.68317 311.20624ZM382.60504 311.08124Q382.60504 309.6125 383.29254 308.7375Q383.98004 307.84686 385.10504 307.84686Q386.21442 307.84686 386.87067 308.59686L386.87067 305.3L387.9488 305.3L387.9488 314.3L386.9488 314.3L386.90192 313.6125Q386.24567 314.425 385.08942 314.425Q383.99567 314.425 383.29254 313.51874Q382.60504 312.6125 382.60504 311.15936L382.60504 311.08124ZM383.68317 311.20624Q383.68317 312.28436 384.12067 312.89374Q384.5738 313.5031 385.35504 313.5031Q386.3863 313.5031 386.87067 312.5656L386.87067 309.65936Q386.3863 308.76874 385.37067 308.76874Q384.5738 308.76874 384.12067 309.3781Q383.68317 309.9875 383.68317 311.20624ZM392.8238 310.83124Q392.8238 309.51874 393.16754 308.3Q393.52692 307.08124 394.23004 306.08124Q394.93317 305.08124 395.6988 304.675L395.91754 305.39374Q395.05817 306.05 394.5113 307.39374Q393.96442 308.7375 393.91754 310.40936L393.90192 310.90936Q393.90192 313.175 394.73004 314.83124Q395.23004 315.83124 395.91754 316.39374L395.6988 317.05Q394.91754 316.6281 394.1988 315.59686Q392.8238 313.6125 392.8238 310.83124ZM400.30817 314.3L399.23004 314.3L399.23004 307.08124L397.04254 307.8781L397.04254 306.89374L400.15192 305.72186L400.30817 305.72186L400.30817 314.3ZM409.10504 310.65936Q409.10504 312.5656 408.4488 313.5031Q407.80817 314.425 406.41754 314.425Q405.05817 314.425 404.40192 313.51874Q403.74567 312.6125 403.71442 310.8L403.71442 309.3625Q403.71442 307.47186 404.35504 306.5656Q405.0113 305.64374 406.40192 305.64374Q407.77692 305.64374 408.43317 306.53436Q409.08942 307.40936 409.10504 309.2531L409.10504 310.65936ZM408.0113 309.175Q408.0113 307.8 407.62067 307.175Q407.24567 306.53436 406.40192 306.53436Q405.5738 306.53436 405.18317 307.175Q404.80817 307.8 404.80817 309.09686L404.80817 310.83124Q404.80817 312.20624 405.1988 312.8781Q405.60504 313.53436 406.41754 313.53436Q407.21442 313.53436 407.60504 312.90936Q407.99567 312.28436 408.0113 310.95624L408.0113 309.175ZM416.10504 310.65936Q416.10504 312.5656 415.4488 313.5031Q414.80817 314.425 413.41754 314.425Q412.05817 314.425 411.40192 313.51874Q410.74567 312.6125 410.71442 310.8L410.71442 309.3625Q410.71442 307.47186 411.35504 306.5656Q412.0113 305.64374 413.40192 305.64374Q414.77692 305.64374 415.43317 306.53436Q416.08942 307.40936 416.10504 309.2531L416.10504 310.65936ZM415.0113 309.175Q415.0113 307.8 414.62067 307.175Q414.24567 306.53436 413.40192 306.53436Q412.5738 306.53436 412.18317 307.175Q411.80817 307.8 411.80817 309.09686L411.80817 310.83124Q411.80817 312.20624 412.1988 312.8781Q412.60504 313.53436 413.41754 313.53436Q414.21442 313.53436 414.60504 312.90936Q414.99567 312.28436 415.0113 310.95624L415.0113 309.175ZM423.10504 310.65936Q423.10504 312.5656 422.4488 313.5031Q421.80817 314.425 420.41754 314.425Q419.05817 314.425 418.40192 313.51874Q417.74567 312.6125 417.71442 310.8L417.71442 309.3625Q417.71442 307.47186 418.35504 306.5656Q419.0113 305.64374 420.40192 305.64374Q421.77692 305.64374 422.43317 306.53436Q423.08942 307.40936 423.10504 309.2531L423.10504 310.65936ZM422.0113 309.175Q422.0113 307.8 421.62067 307.175Q421.24567 306.53436 420.40192 306.53436Q419.5738 306.53436 419.18317 307.175Q418.80817 307.8 418.80817 309.09686L418.80817 310.83124Q418.80817 312.20624 419.1988 312.8781Q419.60504 313.53436 420.41754 313.53436Q421.21442 313.53436 421.60504 312.90936Q421.99567 312.28436 422.0113 310.95624L422.0113 309.175ZM430.10504 310.65936Q430.10504 312.5656 429.4488 313.5031Q428.80817 314.425 427.41754 314.425Q426.05817 314.425 425.40192 313.51874Q424.74567 312.6125 424.71442 310.8L424.71442 309.3625Q424.71442 307.47186 425.35504 306.5656Q426.0113 305.64374 427.40192 305.64374Q428.77692 305.64374 429.43317 306.53436Q430.08942 307.40936 430.10504 309.2531L430.10504 310.65936ZM429.0113 309.175Q429.0113 307.8 428.62067 307.175Q428.24567 306.53436 427.40192 306.53436Q426.5738 306.53436 426.18317 307.175Q425.80817 307.8 425.80817 309.09686L425.80817 310.83124Q425.80817 312.20624 426.1988 312.8781Q426.60504 313.53436 427.41754 313.53436Q428.21442 313.53436 428.60504 312.90936Q428.99567 312.28436 429.0113 310.95624L429.0113 309.175ZM437.10504 310.65936Q437.10504 312.5656 436.4488 313.5031Q435.80817 314.425 434.41754 314.425Q433.05817 314.425 432.40192 313.51874Q431.74567 312.6125 431.71442 310.8L431.71442 309.3625Q431.71442 307.47186 432.35504 306.5656Q433.0113 305.64374 434.40192 305.64374Q435.77692 305.64374 436.43317 306.53436Q437.08942 307.40936 437.10504 309.2531L437.10504 310.65936ZM436.0113 309.175Q436.0113 307.8 435.62067 307.175Q435.24567 306.53436 434.40192 306.53436Q433.5738 306.53436 433.18317 307.175Q432.80817 307.8 432.80817 309.09686L432.80817 310.83124Q432.80817 312.20624 433.1988 312.8781Q433.60504 313.53436 434.41754 313.53436Q435.21442 313.53436 435.60504 312.90936Q435.99567 312.28436 436.0113 310.95624L436.0113 309.175ZM441.37067 310.89374Q441.37067 312.20624 441.02692 313.40936Q440.68317 314.59686 439.96442 315.6125Q439.2613 316.6281 438.49567 317.05L438.2613 316.39374Q439.16754 315.70624 439.71442 314.2531Q440.2613 312.78436 440.27692 311.01874L440.27692 310.83124Q440.27692 309.59686 440.0113 308.53436Q439.7613 307.47186 439.29254 306.64374Q438.83942 305.8 438.2613 305.33124L438.49567 304.675Q439.2613 305.09686 439.96442 306.09686Q440.66754 307.09686 441.0113 308.3156Q441.37067 309.51874 441.37067 310.89374Z" fill-rule="nonzero"/><path fill="#4285f4" d="M152.0 54.333332C152.0 53.781048 152.44771 53.333332 153.0 53.333332L163.0 53.333332C163.55229 53.333332 164.0 53.781048 164.0 54.333332L164.0 64.333336C164.0 64.88562 163.55229 65.333336 163.0 65.333336L153.0 65.333336C152.44771 65.333336 152.0 64.88562 152.0 64.333336Z" fill-rule="nonzero"/><path fill="#757575" d="M174.4375 55.302082L177.23438 62.255207L180.01562 55.302082L181.48438 55.302082L181.48438 63.833332L180.35938 63.833332L180.35938 60.505207L180.46875 56.927082L177.65625 63.833332L176.79688 63.833332L174.0 56.942707L174.10938 60.505207L174.10938 63.833332L172.98438 63.833332L172.98438 55.302082L174.4375 55.302082ZM184.0 63.833332L182.92188 63.833332L182.92188 57.489582L184.0 57.489582L184.0 63.833332ZM182.82812 55.817707Q182.82812 55.552082 182.98438 55.364582Q183.15625 55.177082 183.46875 55.177082Q183.78125 55.177082 183.9375 55.364582Q184.10938 55.552082 184.10938 55.817707Q184.10938 56.067707 183.9375 56.255207Q183.78125 56.427082 183.46875 56.427082Q183.15625 56.427082 182.98438 56.255207Q182.82812 56.067707 182.82812 55.817707ZM187.0 63.833332L185.92188 63.833332L185.92188 54.833332L187.0 54.833332L187.0 63.833332ZM190.0 63.833332L188.92188 63.833332L188.92188 54.833332L190.0 54.833332L190.0 63.833332ZM193.0 63.833332L191.92188 63.833332L191.92188 57.489582L193.0 57.489582L193.0 63.833332ZM191.82812 55.817707Q191.82812 55.552082 191.98438 55.364582Q192.15625 55.177082 192.46875 55.177082Q192.78125 55.177082 192.9375 55.364582Q193.10938 55.552082 193.10938 55.817707Q193.10938 56.067707 192.9375 56.255207Q192.78125 56.427082 192.46875 56.427082Q192.15625 56.427082 191.98438 56.255207Q191.82812 56.067707 191.82812 55.817707ZM198.51562 62.145832Q198.51562 61.708332 198.17188 61.473957Q197.84375 61.223957 197.01562 61.052082Q196.20312 60.880207 195.71875 60.630207Q195.23438 60.380207 195.0 60.052082Q194.78125 59.708332 194.78125 59.239582Q194.78125 58.458332 195.4375 57.927082Q196.09375 57.380207 197.125 57.380207Q198.20312 57.380207 198.85938 57.942707Q199.53125 58.489582 199.53125 59.348957L198.45312 59.348957Q198.45312 58.911457 198.0625 58.598957Q197.6875 58.270832 197.125 58.270832Q196.53125 58.270832 196.1875 58.536457Q195.85938 58.786457 195.85938 59.192707Q195.85938 59.583332 196.17188 59.786457Q196.48438 59.989582 197.29688 60.177082Q198.10938 60.348957 198.60938 60.598957Q199.10938 60.848957 199.34375 61.208332Q199.59375 61.567707 199.59375 62.067707Q199.59375 62.927082 198.90625 63.442707Q198.23438 63.958332 197.15625 63.958332Q196.39062 63.958332 195.79688 63.692707Q195.21875 63.411457 194.89062 62.927082Q194.5625 62.442707 194.5625 61.880207L195.64062 61.880207Q195.67188 62.427082 196.07812 62.755207Q196.48438 63.067707 197.15625 63.067707Q197.76562 63.067707 198.14062 62.817707Q198.51562 62.567707 198.51562 62.145832ZM203.45312 63.958332Q202.15625 63.958332 201.34375 63.114582Q200.54688 62.255207 200.54688 60.833332L200.54688 60.645832Q200.54688 59.692707 200.90625 58.958332Q201.26562 58.208332 201.90625 57.802082Q202.5625 57.380207 203.3125 57.380207Q204.54688 57.380207 205.23438 58.192707Q205.92188 59.005207 205.92188 60.520832L205.92188 60.973957L201.625 60.973957Q201.65625 61.911457 202.17188 62.489582Q202.70312 63.067707 203.51562 63.067707Q204.07812 63.067707 204.46875 62.833332Q204.875 62.598957 205.1875 62.208332L205.84375 62.723957Q205.04688 63.958332 203.45312 63.958332ZM203.3125 58.270832Q202.65625 58.270832 202.20312 58.755207Q201.76562 59.223957 201.67188 60.083332L204.84375 60.083332L204.84375 60.005207Q204.79688 59.177082 204.39062 58.723957Q204.0 58.270832 203.3125 58.270832ZM209.35938 63.067707Q209.9375 63.067707 210.375 62.723957Q210.8125 62.364582 210.85938 61.833332L211.89062 61.833332Q211.85938 62.380207 211.5 62.880207Q211.15625 63.364582 210.57812 63.661457Q210.01562 63.958332 209.35938 63.958332Q208.0625 63.958332 207.29688 63.098957Q206.54688 62.223957 206.54688 60.723957L206.54688 60.536457Q206.54688 59.614582 206.875 58.895832Q207.21875 58.177082 207.84375 57.786457Q208.48438 57.380207 209.35938 57.380207Q210.42188 57.380207 211.125 58.020832Q211.84375 58.645832 211.89062 59.677082L210.85938 59.677082Q210.8125 59.052082 210.39062 58.661457Q209.96875 58.270832 209.35938 58.270832Q208.53125 58.270832 208.07812 58.864582Q207.625 59.458332 207.625 60.583332L207.625 60.786457Q207.625 61.880207 208.07812 62.473957Q208.53125 63.067707 209.35938 63.067707ZM212.53125 60.598957Q212.53125 59.677082 212.89062 58.927082Q213.26562 58.177082 213.92188 57.786457Q214.57812 57.380207 215.40625 57.380207Q216.70312 57.380207 217.5 58.270832Q218.3125 59.161457 218.3125 60.661457L218.3125 60.739582Q218.3125 61.661457 217.95312 62.395832Q217.59375 63.130207 216.9375 63.552082Q216.28125 63.958332 215.42188 63.958332Q214.14062 63.958332 213.32812 63.067707Q212.53125 62.161457 212.53125 60.677082L212.53125 60.598957ZM213.625 60.739582Q213.625 61.786457 214.10938 62.427082Q214.60938 63.067707 215.42188 63.067707Q216.25 63.067707 216.73438 62.427082Q217.21875 61.770832 217.21875 60.598957Q217.21875 59.567707 216.71875 58.927082Q216.23438 58.270832 215.40625 58.270832Q214.60938 58.270832 214.10938 58.911457Q213.625 59.536457 213.625 60.739582ZM220.84375 57.489582L220.875 58.286457Q221.60938 57.380207 222.78125 57.380207Q224.79688 57.380207 224.8125 59.645832L224.8125 63.833332L223.71875 63.833332L223.71875 59.630207Q223.71875 58.958332 223.40625 58.630207Q223.10938 58.302082 222.45312 58.302082Q221.92188 58.302082 221.51562 58.583332Q221.125 58.864582 220.90625 59.317707L220.90625 63.833332L219.82812 63.833332L219.82812 57.489582L220.84375 57.489582ZM226.5625 60.614582Q226.5625 59.145832 227.25 58.270832Q227.9375 57.380207 229.0625 57.380207Q230.17188 57.380207 230.82812 58.130207L230.82812 54.833332L231.90625 54.833332L231.90625 63.833332L230.90625 63.833332L230.85938 63.145832Q230.20312 63.958332 229.04688 63.958332Q227.95312 63.958332 227.25 63.052082Q226.5625 62.145832 226.5625 60.692707L226.5625 60.614582ZM227.64062 60.739582Q227.64062 61.817707 228.07812 62.427082Q228.53125 63.036457 229.3125 63.036457Q230.34375 63.036457 230.82812 62.098957L230.82812 59.192707Q230.34375 58.302082 229.32812 58.302082Q228.53125 58.302082 228.07812 58.911457Q227.64062 59.520832 227.64062 60.739582ZM237.51562 62.145832Q237.51562 61.708332 237.17188 61.473957Q236.84375 61.223957 236.01562 61.052082Q235.20312 60.880207 234.71875 60.630207Q234.23438 60.380207 234.0 60.052082Q233.78125 59.708332 233.78125 59.239582Q233.78125 58.458332 234.4375 57.927082Q235.09375 57.380207 236.125 57.380207Q237.20312 57.380207 237.85938 57.942707Q238.53125 58.489582 238.53125 59.348957L237.45312 59.348957Q237.45312 58.911457 237.0625 58.598957Q236.6875 58.270832 236.125 58.270832Q235.53125 58.270832 235.1875 58.536457Q234.85938 58.786457 234.85938 59.192707Q234.85938 59.583332 235.17188 59.786457Q235.48438 59.989582 236.29688 60.177082Q237.10938 60.348957 237.60938 60.598957Q238.10938 60.848957 238.34375 61.208332Q238.59375 61.567707 238.59375 62.067707Q238.59375 62.927082 237.90625 63.442707Q237.23438 63.958332 236.15625 63.958332Q235.39062 63.958332 234.79688 63.692707Q234.21875 63.411457 233.89062 62.927082Q233.5625 62.442707 233.5625 61.880207L234.64062 61.880207Q234.67188 62.427082 235.07812 62.755207Q235.48438 63.067707 236.15625 63.067707Q236.76562 63.067707 237.14062 62.817707Q237.51562 62.567707 237.51562 62.145832Z" fill-rule="nonzero"/><path fill="#db4437" d="M255.0 54.333332C255.0 53.781048 255.44771 53.333332 256.0 53.333332L266.0 53.333332C266.55228 53.333332 267.0 53.781048 267.0 54.333332L267.0 64.333336C267.0 64.88562 266.55228 65.333336 266.0 65.333336L256.0 65.333336C255.44771 65.333336 255.0 64.88562 255.0 64.333336Z" fill-rule="nonzero"/><path fill="#757575" d="M277.4375 55.302082L280.23438 62.255207L283.01562 55.302082L284.48438 55.302082L284.48438 63.833332L283.35938 63.833332L283.35938 60.505207L283.46875 56.927082L280.65625 63.833332L279.79688 63.833332L277.0 56.942707L277.10938 60.505207L277.10938 63.833332L275.98438 63.833332L275.98438 55.302082L277.4375 55.302082ZM288.45312 63.958332Q287.15625 63.958332 286.34375 63.114582Q285.54688 62.255207 285.54688 60.833332L285.54688 60.645832Q285.54688 59.692707 285.90625 58.958332Q286.26562 58.208332 286.90625 57.802082Q287.5625 57.380207 288.3125 57.380207Q289.54688 57.380207 290.23438 58.192707Q290.92188 59.005207 290.92188 60.520832L290.92188 60.973957L286.625 60.973957Q286.65625 61.911457 287.17188 62.489582Q287.70312 63.067707 288.51562 63.067707Q289.07812 63.067707 289.46875 62.833332Q289.875 62.598957 290.1875 62.208332L290.84375 62.723957Q290.04688 63.958332 288.45312 63.958332ZM288.3125 58.270832Q287.65625 58.270832 287.20312 58.755207Q286.76562 59.223957 286.67188 60.083332L289.84375 60.083332L289.84375 60.005207Q289.79688 59.177082 289.39062 58.723957Q289.0 58.270832 288.3125 58.270832ZM291.5625 60.614582Q291.5625 59.130207 292.25 58.255207Q292.9375 57.380207 294.0625 57.380207Q295.21875 57.380207 295.875 58.192707L295.92188 57.489582L296.92188 57.489582L296.92188 63.677082Q296.92188 64.91145 296.1875 65.61458Q295.45312 66.33333 294.23438 66.33333Q293.54688 66.33333 292.89062 66.03645Q292.23438 65.73958 291.89062 65.23958L292.45312 64.58333Q293.14062 65.4427 294.15625 65.4427Q294.9375 65.4427 295.375 64.98958Q295.82812 64.55208 295.82812 63.739582L295.82812 63.192707Q295.17188 63.958332 294.04688 63.958332Q292.9375 63.958332 292.25 63.067707Q291.5625 62.161457 291.5625 60.614582ZM292.65625 60.739582Q292.65625 61.802082 293.09375 62.427082Q293.53125 63.036457 294.32812 63.036457Q295.34375 63.036457 295.82812 62.098957L295.82812 59.208332Q295.32812 58.302082 294.32812 58.302082Q293.54688 58.302082 293.09375 58.911457Q292.65625 59.520832 292.65625 60.739582ZM302.73438 63.833332Q302.64062 63.645832 302.57812 63.161457Q301.82812 63.958332 300.78125 63.958332Q299.84375 63.958332 299.23438 63.427082Q298.64062 62.895832 298.64062 62.067707Q298.64062 61.083332 299.39062 60.536457Q300.14062 59.989582 301.51562 59.989582L302.5625 59.989582L302.5625 59.489582Q302.5625 58.927082 302.21875 58.598957Q301.89062 58.255207 301.21875 58.255207Q300.64062 58.255207 300.25 58.552082Q299.85938 58.833332 299.85938 59.255207L298.76562 59.255207Q298.76562 58.770832 299.09375 58.333332Q299.4375 57.895832 300.01562 57.645832Q300.59375 57.380207 301.28125 57.380207Q302.39062 57.380207 303.0 57.927082Q303.625 58.473957 303.65625 59.427082L303.65625 62.348957Q303.65625 63.223957 303.875 63.739582L303.875 63.833332L302.73438 63.833332ZM300.9375 63.005207Q301.45312 63.005207 301.90625 62.739582Q302.35938 62.473957 302.5625 62.052082L302.5625 60.755207L301.71875 60.755207Q299.71875 60.755207 299.71875 61.927082Q299.71875 62.427082 300.0625 62.723957Q300.40625 63.005207 300.9375 63.005207ZM311.1875 60.739582Q311.1875 62.192707 310.51562 63.083332Q309.85938 63.958332 308.73438 63.958332Q307.53125 63.958332 306.875 63.098957L306.8125 63.833332L305.82812 63.833332L305.82812 54.833332L306.90625 54.833332L306.90625 58.192707Q307.5625 57.380207 308.71875 57.380207Q309.875 57.380207 310.53125 58.255207Q311.1875 59.114582 311.1875 60.645832L311.1875 60.739582ZM310.10938 60.614582Q310.10938 59.505207 309.67188 58.911457Q309.25 58.302082 308.45312 58.302082Q307.375 58.302082 306.90625 59.286457L306.90625 62.036457Q307.40625 63.036457 308.45312 63.036457Q309.23438 63.036457 309.67188 62.427082Q310.10938 61.817707 310.10938 60.614582ZM314.89062 62.239582L316.375 57.489582L317.53125 57.489582L314.98438 64.8177Q314.39062 66.39583 313.10938 66.39583L312.89062 66.3802L312.5 66.30208L312.5 65.42708L312.78125 65.4427Q313.34375 65.4427 313.64062 65.22395Q313.95312 65.0052 314.15625 64.41145L314.39062 63.755207L312.125 57.489582L313.3125 57.489582L314.89062 62.239582ZM320.29688 55.958332L320.29688 57.489582L321.46875 57.489582L321.46875 58.333332L320.29688 58.333332L320.29688 62.255207Q320.29688 62.645832 320.45312 62.833332Q320.60938 63.020832 320.98438 63.020832Q321.17188 63.020832 321.5 62.958332L321.5 63.833332Q321.07812 63.958332 320.67188 63.958332Q319.95312 63.958332 319.57812 63.520832Q319.20312 63.067707 319.20312 62.255207L319.20312 58.333332L318.04688 58.333332L318.04688 57.489582L319.20312 57.489582L319.20312 55.958332L320.29688 55.958332ZM325.45312 63.958332Q324.15625 63.958332 323.34375 63.114582Q322.54688 62.255207 322.54688 60.833332L322.54688 60.645832Q322.54688 59.692707 322.90625 58.958332Q323.26562 58.208332 323.90625 57.802082Q324.5625 57.380207 325.3125 57.380207Q326.54688 57.380207 327.23438 58.192707Q327.92188 59.005207 327.92188 60.520832L327.92188 60.973957L323.625 60.973957Q323.65625 61.911457 324.17188 62.489582Q324.70312 63.067707 325.51562 63.067707Q326.07812 63.067707 326.46875 62.833332Q326.875 62.598957 327.1875 62.208332L327.84375 62.723957Q327.04688 63.958332 325.45312 63.958332ZM325.3125 58.270832Q324.65625 58.270832 324.20312 58.755207Q323.76562 59.223957 323.67188 60.083332L326.84375 60.083332L326.84375 60.005207Q326.79688 59.177082 326.39062 58.723957Q326.0 58.270832 325.3125 58.270832ZM332.51562 62.145832Q332.51562 61.708332 332.17188 61.473957Q331.84375 61.223957 331.01562 61.052082Q330.20312 60.880207 329.71875 60.630207Q329.23438 60.380207 329.0 60.052082Q328.78125 59.708332 328.78125 59.239582Q328.78125 58.458332 329.4375 57.927082Q330.09375 57.380207 331.125 57.380207Q332.20312 57.380207 332.85938 57.942707Q333.53125 58.489582 333.53125 59.348957L332.45312 59.348957Q332.45312 58.911457 332.0625 58.598957Q331.6875 58.270832 331.125 58.270832Q330.53125 58.270832 330.1875 58.536457Q329.85938 58.786457 329.85938 59.192707Q329.85938 59.583332 330.17188 59.786457Q330.48438 59.989582 331.29688 60.177082Q332.10938 60.348957 332.60938 60.598957Q333.10938 60.848957 333.34375 61.208332Q333.59375 61.567707 333.59375 62.067707Q333.59375 62.927082 332.90625 63.442707Q332.23438 63.958332 331.15625 63.958332Q330.39062 63.958332 329.79688 63.692707Q329.21875 63.411457 328.89062 62.927082Q328.5625 62.442707 328.5625 61.880207L329.64062 61.880207Q329.67188 62.427082 330.07812 62.755207Q330.48438 63.067707 331.15625 63.067707Q331.76562 63.067707 332.14062 62.817707Q332.51562 62.567707 332.51562 62.145832ZM342.70312 61.598957L339.125 61.598957L338.32812 63.833332L337.17188 63.833332L340.42188 55.302082L341.40625 55.302082L344.67188 63.833332L343.51562 63.833332L342.70312 61.598957ZM339.46875 60.677082L342.375 60.677082L340.92188 56.692707L339.46875 60.677082ZM347.0 63.833332L345.92188 63.833332L345.92188 54.833332L347.0 54.833332L347.0 63.833332ZM350.0 63.833332L348.92188 63.833332L348.92188 54.833332L350.0 54.833332L350.0 63.833332ZM351.53125 60.598957Q351.53125 59.677082 351.89062 58.927082Q352.26562 58.177082 352.92188 57.786457Q353.57812 57.380207 354.40625 57.380207Q355.70312 57.380207 356.5 58.270832Q357.3125 59.161457 357.3125 60.661457L357.3125 60.739582Q357.3125 61.661457 356.95312 62.395832Q356.59375 63.130207 355.9375 63.552082Q355.28125 63.958332 354.42188 63.958332Q353.14062 63.958332 352.32812 63.067707Q351.53125 62.161457 351.53125 60.677082L351.53125 60.598957ZM352.625 60.739582Q352.625 61.786457 353.10938 62.427082Q353.60938 63.067707 354.42188 63.067707Q355.25 63.067707 355.73438 62.427082Q356.21875 61.770832 356.21875 60.598957Q356.21875 59.567707 355.71875 58.927082Q355.23438 58.270832 354.40625 58.270832Q353.60938 58.270832 353.10938 58.911457Q352.625 59.536457 352.625 60.739582ZM361.35938 63.067707Q361.9375 63.067707 362.375 62.723957Q362.8125 62.364582 362.85938 61.833332L363.89062 61.833332Q363.85938 62.380207 363.5 62.880207Q363.15625 63.364582 362.57812 63.661457Q362.01562 63.958332 361.35938 63.958332Q360.0625 63.958332 359.29688 63.098957Q358.54688 62.223957 358.54688 60.723957L358.54688 60.536457Q358.54688 59.614582 358.875 58.895832Q359.21875 58.177082 359.84375 57.786457Q360.48438 57.380207 361.35938 57.380207Q362.42188 57.380207 363.125 58.020832Q363.84375 58.645832 363.89062 59.677082L362.85938 59.677082Q362.8125 59.052082 362.39062 58.661457Q361.96875 58.270832 361.35938 58.270832Q360.53125 58.270832 360.07812 58.864582Q359.625 59.458332 359.625 60.583332L359.625 60.786457Q359.625 61.880207 360.07812 62.473957Q360.53125 63.067707 361.35938 63.067707ZM368.73438 63.833332Q368.64062 63.645832 368.57812 63.161457Q367.82812 63.958332 366.78125 63.958332Q365.84375 63.958332 365.23438 63.427082Q364.64062 62.895832 364.64062 62.067707Q364.64062 61.083332 365.39062 60.536457Q366.14062 59.989582 367.51562 59.989582L368.5625 59.989582L368.5625 59.489582Q368.5625 58.927082 368.21875 58.598957Q367.89062 58.255207 367.21875 58.255207Q366.64062 58.255207 366.25 58.552082Q365.85938 58.833332 365.85938 59.255207L364.76562 59.255207Q364.76562 58.770832 365.09375 58.333332Q365.4375 57.895832 366.01562 57.645832Q366.59375 57.380207 367.28125 57.380207Q368.39062 57.380207 369.0 57.927082Q369.625 58.473957 369.65625 59.427082L369.65625 62.348957Q369.65625 63.223957 369.875 63.739582L369.875 63.833332L368.73438 63.833332ZM366.9375 63.005207Q367.45312 63.005207 367.90625 62.739582Q368.35938 62.473957 368.5625 62.052082L368.5625 60.755207L367.71875 60.755207Q365.71875 60.755207 365.71875 61.927082Q365.71875 62.427082 366.0625 62.723957Q366.40625 63.005207 366.9375 63.005207ZM373.29688 55.958332L373.29688 57.489582L374.46875 57.489582L374.46875 58.333332L373.29688 58.333332L373.29688 62.255207Q373.29688 62.645832 373.45312 62.833332Q373.60938 63.020832 373.98438 63.020832Q374.17188 63.020832 374.5 62.958332L374.5 63.833332Q374.07812 63.958332 373.67188 63.958332Q372.95312 63.958332 372.57812 63.520832Q372.20312 63.067707 372.20312 62.255207L372.20312 58.333332L371.04688 58.333332L371.04688 57.489582L372.20312 57.489582L372.20312 55.958332L373.29688 55.958332ZM378.45312 63.958332Q377.15625 63.958332 376.34375 63.114582Q375.54688 62.255207 375.54688 60.833332L375.54688 60.645832Q375.54688 59.692707 375.90625 58.958332Q376.26562 58.208332 376.90625 57.802082Q377.5625 57.380207 378.3125 57.380207Q379.54688 57.380207 380.23438 58.192707Q380.92188 59.005207 380.92188 60.520832L380.92188 60.973957L376.625 60.973957Q376.65625 61.911457 377.17188 62.489582Q377.70312 63.067707 378.51562 63.067707Q379.07812 63.067707 379.46875 62.833332Q379.875 62.598957 380.1875 62.208332L380.84375 62.723957Q380.04688 63.958332 378.45312 63.958332ZM378.3125 58.270832Q377.65625 58.270832 377.20312 58.755207Q376.76562 59.223957 376.67188 60.083332L379.84375 60.083332L379.84375 60.005207Q379.79688 59.177082 379.39062 58.723957Q379.0 58.270832 378.3125 58.270832ZM381.5625 60.614582Q381.5625 59.145832 382.25 58.270832Q382.9375 57.380207 384.0625 57.380207Q385.17188 57.380207 385.82812 58.130207L385.82812 54.833332L386.90625 54.833332L386.90625 63.833332L385.90625 63.833332L385.85938 63.145832Q385.20312 63.958332 384.04688 63.958332Q382.95312 63.958332 382.25 63.052082Q381.5625 62.145832 381.5625 60.692707L381.5625 60.614582ZM382.64062 60.739582Q382.64062 61.817707 383.07812 62.427082Q383.53125 63.036457 384.3125 63.036457Q385.34375 63.036457 385.82812 62.098957L385.82812 59.192707Q385.34375 58.302082 384.32812 58.302082Q383.53125 58.302082 383.07812 58.911457Q382.64062 59.520832 382.64062 60.739582Z" fill-rule="nonzero"/><path fill="#757575" d="M18.35625 35.7L18.35625 21.48125L22.371876 21.48125Q24.215626 21.48125 25.6375 22.309376Q27.075 23.121876 27.840626 24.6375Q28.621876 26.153126 28.6375 28.10625L28.6375 29.0125Q28.6375 31.028126 27.85625 32.54375Q27.075 34.059376 25.6375 34.871876Q24.2 35.684376 22.29375 35.7L18.35625 35.7ZM20.23125 23.028126L20.23125 34.16875L22.2 34.16875Q24.371876 34.16875 25.575 32.825Q26.778126 31.465626 26.778126 28.98125L26.778126 28.153126Q26.778126 25.73125 25.6375 24.3875Q24.496876 23.04375 22.41875 23.028126L20.23125 23.028126ZM33.028126 35.7L31.23125 35.7L31.23125 25.1375L33.028126 25.1375L33.028126 35.7ZM31.075 22.325Q31.075 21.8875 31.340626 21.590626Q31.621876 21.278126 32.1375 21.278126Q32.66875 21.278126 32.934376 21.590626Q33.215626 21.8875 33.215626 22.325Q33.215626 22.7625 32.934376 23.059376Q32.66875 23.35625 32.1375 23.35625Q31.621876 23.35625 31.340626 23.059376Q31.075 22.7625 31.075 22.325ZM40.309376 34.41875Q41.278126 34.41875 41.996876 33.840626Q42.715626 33.246876 42.79375 32.371876L44.5125 32.371876Q44.45 33.278126 43.871876 34.10625Q43.309376 34.91875 42.340626 35.41875Q41.3875 35.903126 40.309376 35.903126Q38.153126 35.903126 36.871876 34.465626Q35.60625 33.0125 35.60625 30.5125L35.60625 30.215626Q35.60625 28.66875 36.16875 27.465626Q36.73125 26.2625 37.79375 25.60625Q38.85625 24.934376 40.29375 24.934376Q42.075 24.934376 43.246876 25.996876Q44.434376 27.059376 44.5125 28.7625L42.79375 28.7625Q42.715626 27.746876 42.0125 27.090626Q41.325 26.41875 40.29375 26.41875Q38.91875 26.41875 38.153126 27.41875Q37.403126 28.403126 37.403126 30.278126L37.403126 30.621876Q37.403126 32.45 38.153126 33.434376Q38.903126 34.41875 40.309376 34.41875ZM48.5125 22.575L48.5125 25.1375L50.496876 25.1375L50.496876 26.528126L48.5125 26.528126L48.5125 33.075Q48.5125 33.715626 48.778126 34.04375Q49.04375 34.35625 49.684376 34.35625Q49.996876 34.35625 50.54375 34.23125L50.54375 35.7Q49.825 35.903126 49.153126 35.903126Q47.95 35.903126 47.325 35.16875Q46.715626 34.434376 46.715626 33.075L46.715626 26.528126L44.79375 26.528126L44.79375 25.1375L46.715626 25.1375L46.715626 22.575L48.5125 22.575ZM55.028126 35.7L53.23125 35.7L53.23125 25.1375L55.028126 25.1375L55.028126 35.7ZM53.075 22.325Q53.075 21.8875 53.340626 21.590626Q53.621876 21.278126 54.1375 21.278126Q54.66875 21.278126 54.934376 21.590626Q55.215626 21.8875 55.215626 22.325Q55.215626 22.7625 54.934376 23.059376Q54.66875 23.35625 54.1375 23.35625Q53.621876 23.35625 53.340626 23.059376Q53.075 22.7625 53.075 22.325ZM57.590626 30.325Q57.590626 28.7625 58.2 27.528126Q58.809376 26.278126 59.8875 25.60625Q60.98125 24.934376 62.3875 24.934376Q64.54375 24.934376 65.87187 26.434376Q67.21562 27.91875 67.21562 30.403126L67.21562 30.528126Q67.21562 32.075 66.62187 33.309376Q66.02812 34.528126 64.91875 35.215626Q63.825 35.903126 62.403126 35.903126Q60.2625 35.903126 58.91875 34.403126Q57.590626 32.903126 57.590626 30.45L57.590626 30.325ZM59.403126 30.528126Q59.403126 32.29375 60.215626 33.35625Q61.04375 34.41875 62.403126 34.41875Q63.778126 34.41875 64.59062 33.340626Q65.40312 32.2625 65.40312 30.325Q65.40312 28.575 64.575 27.496876Q63.746876 26.41875 62.3875 26.41875Q61.04375 26.41875 60.215626 27.48125Q59.403126 28.54375 59.403126 30.528126ZM70.77812 25.1375L70.84062 26.465626Q72.04375 24.934376 73.99687 24.934376Q77.35625 24.934376 77.37187 28.715626L77.37187 35.7L75.575 35.7L75.575 28.7Q75.55937 27.559376 75.04375 27.0125Q74.54375 26.465626 73.45 26.465626Q72.575 26.465626 71.90312 26.934376Q71.24687 27.403126 70.87187 28.16875L70.87187 35.7L69.075 35.7L69.075 25.1375L70.77812 25.1375ZM86.59062 35.7Q86.43437 35.3875 86.34062 34.590626Q85.075 35.903126 83.325 35.903126Q81.7625 35.903126 80.7625 35.0125Q79.7625 34.121876 79.7625 32.7625Q79.7625 31.121876 81.0125 30.215626Q82.27812 29.29375 84.54375 29.29375L86.30937 29.29375L86.30937 28.465626Q86.30937 27.5125 85.73125 26.95Q85.16875 26.3875 84.075 26.3875Q83.10625 26.3875 82.45 26.8875Q81.79375 27.371876 81.79375 28.059376L79.98125 28.059376Q79.98125 27.278126 80.54375 26.54375Q81.10625 25.79375 82.05937 25.371876Q83.02812 24.934376 84.18437 24.934376Q86.0125 24.934376 87.04375 25.85625Q88.075 26.7625 88.12187 28.371876L88.12187 33.23125Q88.12187 34.684376 88.48125 35.54375L88.48125 35.7L86.59062 35.7ZM83.59062 34.325Q84.45 34.325 85.2 33.8875Q85.96562 33.45 86.30937 32.746876L86.30937 30.575L84.8875 30.575Q81.575 30.575 81.575 32.5125Q81.575 33.371876 82.1375 33.85625Q82.7 34.325 83.59062 34.325ZM96.16875 26.746876Q95.7625 26.684376 95.29375 26.684376Q93.5125 26.684376 92.87187 28.2L92.87187 35.7L91.075 35.7L91.075 25.1375L92.825 25.1375L92.85625 26.35625Q93.74687 24.934376 95.37187 24.934376Q95.90312 24.934376 96.16875 25.075L96.16875 26.746876ZM101.52812 33.059376L103.98125 25.1375L105.91875 25.1375L101.66875 37.325Q100.68437 39.965626 98.54375 39.965626L98.2 39.934376L97.52812 39.809376L97.52812 38.340626L98.0125 38.3875Q98.93437 38.3875 99.43437 38.0125Q99.95 37.6375 100.27812 36.653126L100.68437 35.575L96.91875 25.1375L98.8875 25.1375L101.52812 33.059376ZM115.55937 33.246876L118.16875 25.1375L120.0125 25.1375L116.23125 35.7L114.85625 35.7L111.02812 25.1375L112.87187 25.1375L115.55937 33.246876ZM128.21562 32.903126Q128.21562 32.16875 127.66875 31.7625Q127.12187 31.35625 125.74687 31.059376Q124.37187 30.7625 123.55937 30.35625Q122.7625 29.95 122.37187 29.3875Q121.99687 28.809376 121.99687 28.028126Q121.99687 26.73125 123.09062 25.840626Q124.18437 24.934376 125.90312 24.934376Q127.7 24.934376 128.80937 25.871876Q129.93437 26.79375 129.93437 28.23125L128.10625 28.23125Q128.10625 27.496876 127.48125 26.965626Q126.85625 26.41875 125.90312 26.41875Q124.90312 26.41875 124.34062 26.85625Q123.79375 27.278126 123.79375 27.98125Q123.79375 28.621876 124.30937 28.965626Q124.825 29.29375 126.18437 29.60625Q127.54375 29.903126 128.37187 30.325Q129.21562 30.73125 129.62187 31.325Q130.02812 31.91875 130.02812 32.7625Q130.02812 34.184376 128.8875 35.04375Q127.7625 35.903126 125.95 35.903126Q124.68437 35.903126 123.7 35.45Q122.73125 34.996876 122.16875 34.2Q121.62187 33.3875 121.62187 32.45L123.43437 32.45Q123.48125 33.35625 124.15312 33.8875Q124.84062 34.41875 125.95 34.41875Q126.98125 34.41875 127.59062 34.0125Q128.21562 33.590626 128.21562 32.903126ZM139.23125 30.1375L139.23125 35.7L137.35625 35.7L137.35625 21.48125L142.59062 21.48125Q144.93437 21.48125 146.24687 22.66875Q147.575 23.85625 147.575 25.825Q147.575 27.903126 146.27812 29.028126Q144.98125 30.1375 142.575 30.1375L139.23125 30.1375ZM139.23125 28.60625L142.59062 28.60625Q144.10625 28.60625 144.90312 27.903126Q145.7 27.184376 145.7 25.840626Q145.7 24.575 144.90312 23.825Q144.10625 23.059376 142.7 23.028126L139.23125 23.028126L139.23125 28.60625ZM149.59062 30.325Q149.59062 28.7625 150.2 27.528126Q150.80937 26.278126 151.8875 25.60625Q152.98125 24.934376 154.3875 24.934376Q156.54375 24.934376 157.87187 26.434376Q159.21562 27.91875 159.21562 30.403126L159.21562 30.528126Q159.21562 32.075 158.62187 33.309376Q158.02812 34.528126 156.91875 35.215626Q155.825 35.903126 154.40312 35.903126Q152.2625 35.903126 150.91875 34.403126Q149.59062 32.903126 149.59062 30.45L149.59062 30.325ZM151.40312 30.528126Q151.40312 32.29375 152.21562 33.35625Q153.04375 34.41875 154.40312 34.41875Q155.77812 34.41875 156.59062 33.340626Q157.40312 32.2625 157.40312 30.325Q157.40312 28.575 156.575 27.496876Q155.74687 26.41875 154.3875 26.41875Q153.04375 26.41875 152.21562 27.48125Q151.40312 28.54375 151.40312 30.528126ZM160.59062 30.325Q160.59062 28.7625 161.2 27.528126Q161.80937 26.278126 162.8875 25.60625Q163.98125 24.934376 165.3875 24.934376Q167.54375 24.934376 168.87187 26.434376Q170.21562 27.91875 170.21562 30.403126L170.21562 30.528126Q170.21562 32.075 169.62187 33.309376Q169.02812 34.528126 167.91875 35.215626Q166.825 35.903126 165.40312 35.903126Q163.2625 35.903126 161.91875 34.403126Q160.59062 32.903126 160.59062 30.45L160.59062 30.325ZM162.40312 30.528126Q162.40312 32.29375 163.21562 33.35625Q164.04375 34.41875 165.40312 34.41875Q166.77812 34.41875 167.59062 33.340626Q168.40312 32.2625 168.40312 30.325Q168.40312 28.575 167.575 27.496876Q166.74687 26.41875 165.3875 26.41875Q164.04375 26.41875 163.21562 27.48125Q162.40312 28.54375 162.40312 30.528126ZM174.02812 35.7L172.23125 35.7L172.23125 20.7L174.02812 20.7L174.02812 35.7ZM181.45 35.903126Q179.30937 35.903126 177.95 34.496876Q176.60625 33.075 176.60625 30.715626L176.60625 30.371876Q176.60625 28.809376 177.2 27.575Q177.80937 26.340626 178.8875 25.6375Q179.96562 24.934376 181.23125 24.934376Q183.29375 24.934376 184.43437 26.29375Q185.575 27.653126 185.575 30.184376L185.575 30.934376L178.41875 30.934376Q178.45 32.496876 179.325 33.465626Q180.2 34.41875 181.54375 34.41875Q182.5125 34.41875 183.16875 34.028126Q183.84062 33.6375 184.34062 32.996876L185.43437 33.85625Q184.10625 35.903126 181.45 35.903126ZM181.23125 26.41875Q180.1375 26.41875 179.3875 27.215626Q178.65312 28.0125 178.48125 29.45L183.7625 29.45L183.7625 29.309376Q183.68437 27.934376 183.0125 27.184376Q182.35625 26.41875 181.23125 26.41875ZM187.62187 30.325Q187.62187 27.903126 188.77812 26.41875Q189.93437 24.934376 191.79375 24.934376Q193.65312 24.934376 194.73125 26.2L194.73125 20.7L196.54375 20.7L196.54375 35.7L194.8875 35.7L194.79375 34.559376Q193.71562 35.903126 191.77812 35.903126Q189.95 35.903126 188.77812 34.403126Q187.62187 32.8875 187.62187 30.465626L187.62187 30.325ZM189.43437 30.528126Q189.43437 32.325 190.16875 33.340626Q190.91875 34.35625 192.23125 34.35625Q193.95 34.35625 194.73125 32.825L194.73125 27.965626Q193.93437 26.465626 192.24687 26.465626Q190.91875 26.465626 190.16875 27.496876Q189.43437 28.528126 189.43437 30.528126ZM199.35625 35.7L199.35625 21.48125L203.37187 21.48125Q205.21562 21.48125 206.6375 22.309376Q208.075 23.121876 208.84062 24.6375Q209.62187 26.153126 209.6375 28.10625L209.6375 29.0125Q209.6375 31.028126 208.85625 32.54375Q208.075 34.059376 206.6375 34.871876Q205.2 35.684376 203.29375 35.7L199.35625 35.7ZM201.23125 23.028126L201.23125 34.16875L203.2 34.16875Q205.37187 34.16875 206.575 32.825Q207.77812 31.465626 207.77812 28.98125L207.77812 28.153126Q207.77812 25.73125 206.6375 24.3875Q205.49687 23.04375 203.41875 23.028126L201.23125 23.028126ZM214.02812 35.7L212.23125 35.7L212.23125 25.1375L214.02812 25.1375L214.02812 35.7ZM212.075 22.325Q212.075 21.8875 212.34062 21.590626Q212.62187 21.278126 213.1375 21.278126Q213.66875 21.278126 213.93437 21.590626Q214.21562 21.8875 214.21562 22.325Q214.21562 22.7625 213.93437 23.059376Q213.66875 23.35625 213.1375 23.35625Q212.62187 23.35625 212.34062 23.059376Q212.075 22.7625 212.075 22.325ZM221.30937 34.41875Q222.27812 34.41875 222.99687 33.840626Q223.71562 33.246876 223.79375 32.371876L225.5125 32.371876Q225.45 33.278126 224.87187 34.10625Q224.30937 34.91875 223.34062 35.41875Q222.3875 35.903126 221.30937 35.903126Q219.15312 35.903126 217.87187 34.465626Q216.60625 33.0125 216.60625 30.5125L216.60625 30.215626Q216.60625 28.66875 217.16875 27.465626Q217.73125 26.2625 218.79375 25.60625Q219.85625 24.934376 221.29375 24.934376Q223.075 24.934376 224.24687 25.996876Q225.43437 27.059376 225.5125 28.7625L223.79375 28.7625Q223.71562 27.746876 223.0125 27.090626Q222.325 26.41875 221.29375 26.41875Q219.91875 26.41875 219.15312 27.41875Q218.40312 28.403126 218.40312 30.278126L218.40312 30.621876Q218.40312 32.45 219.15312 33.434376Q219.90312 34.41875 221.30937 34.41875ZM229.5125 22.575L229.5125 25.1375L231.49687 25.1375L231.49687 26.528126L229.5125 26.528126L229.5125 33.075Q229.5125 33.715626 229.77812 34.04375Q230.04375 34.35625 230.68437 34.35625Q230.99687 34.35625 231.54375 34.23125L231.54375 35.7Q230.825 35.903126 230.15312 35.903126Q228.95 35.903126 228.325 35.16875Q227.71562 34.434376 227.71562 33.075L227.71562 26.528126L225.79375 26.528126L225.79375 25.1375L227.71562 25.1375L227.71562 22.575L229.5125 22.575ZM236.02812 35.7L234.23125 35.7L234.23125 25.1375L236.02812 25.1375L236.02812 35.7ZM234.075 22.325Q234.075 21.8875 234.34062 21.590626Q234.62187 21.278126 235.1375 21.278126Q235.66875 21.278126 235.93437 21.590626Q236.21562 21.8875 236.21562 22.325Q236.21562 22.7625 235.93437 23.059376Q235.66875 23.35625 235.1375 23.35625Q234.62187 23.35625 234.34062 23.059376Q234.075 22.7625 234.075 22.325ZM238.59062 30.325Q238.59062 28.7625 239.2 27.528126Q239.80937 26.278126 240.8875 25.60625Q241.98125 24.934376 243.3875 24.934376Q245.54375 24.934376 246.87187 26.434376Q248.21562 27.91875 248.21562 30.403126L248.21562 30.528126Q248.21562 32.075 247.62187 33.309376Q247.02812 34.528126 245.91875 35.215626Q244.825 35.903126 243.40312 35.903126Q241.2625 35.903126 239.91875 34.403126Q238.59062 32.903126 238.59062 30.45L238.59062 30.325ZM240.40312 30.528126Q240.40312 32.29375 241.21562 33.35625Q242.04375 34.41875 243.40312 34.41875Q244.77812 34.41875 245.59062 33.340626Q246.40312 32.2625 246.40312 30.325Q246.40312 28.575 245.575 27.496876Q244.74687 26.41875 243.3875 26.41875Q242.04375 26.41875 241.21562 27.48125Q240.40312 28.54375 240.40312 30.528126ZM251.77812 25.1375L251.84062 26.465626Q253.04375 24.934376 254.99687 24.934376Q258.35626 24.934376 258.3719 28.715626L258.3719 35.7L256.575 35.7L256.575 28.7Q256.5594 27.559376 256.04376 27.0125Q255.54375 26.465626 254.45 26.465626Q253.575 26.465626 252.90312 26.934376Q252.24687 27.403126 251.87187 28.16875L251.87187 35.7L250.075 35.7L250.075 25.1375L251.77812 25.1375ZM267.59064 35.7Q267.4344 35.3875 267.34064 34.590626Q266.075 35.903126 264.325 35.903126Q262.7625 35.903126 261.7625 35.0125Q260.7625 34.121876 260.7625 32.7625Q260.7625 31.121876 262.0125 30.215626Q263.27814 29.29375 265.54376 29.29375L267.3094 29.29375L267.3094 28.465626Q267.3094 27.5125 266.73126 26.95Q266.16876 26.3875 265.075 26.3875Q264.10626 26.3875 263.45 26.8875Q262.79376 27.371876 262.79376 28.059376L260.98126 28.059376Q260.98126 27.278126 261.54376 26.54375Q262.10626 25.79375 263.0594 25.371876Q264.02814 24.934376 265.1844 24.934376Q267.0125 24.934376 268.04376 25.85625Q269.075 26.7625 269.1219 28.371876L269.1219 33.23125Q269.1219 34.684376 269.48126 35.54375L269.48126 35.7L267.59064 35.7ZM264.59064 34.325Q265.45 34.325 266.2 33.8875Q266.96564 33.45 267.3094 32.746876L267.3094 30.575L265.8875 30.575Q262.575 30.575 262.575 32.5125Q262.575 33.371876 263.1375 33.85625Q263.7 34.325 264.59064 34.325ZM277.16876 26.746876Q276.7625 26.684376 276.29376 26.684376Q274.5125 26.684376 273.8719 28.2L273.8719 35.7L272.075 35.7L272.075 25.1375L273.825 25.1375L273.85626 26.35625Q274.7469 24.934376 276.3719 24.934376Q276.90314 24.934376 277.16876 25.075L277.16876 26.746876ZM282.52814 33.059376L284.98126 25.1375L286.91876 25.1375L282.66876 37.325Q281.6844 39.965626 279.54376 39.965626L279.2 39.934376L278.52814 39.809376L278.52814 38.340626L279.0125 38.3875Q279.9344 38.3875 280.4344 38.0125Q280.95 37.6375 281.27814 36.653126L281.6844 35.575L277.91876 25.1375L279.8875 25.1375L282.52814 33.059376ZM288.10626 34.746876Q288.10626 34.278126 288.3875 33.965626Q288.66876 33.653126 289.21564 33.653126Q289.77814 33.653126 290.0594 33.965626Q290.35626 34.278126 290.35626 34.746876Q290.35626 35.2 290.0594 35.5125Q289.77814 35.809376 289.21564 35.809376Q288.66876 35.809376 288.3875 35.5125Q288.10626 35.2 288.10626 34.746876ZM288.10626 25.746876Q288.10626 25.278126 288.3875 24.965626Q288.66876 24.653126 289.21564 24.653126Q289.77814 24.653126 290.0594 24.965626Q290.35626 25.278126 290.35626 25.746876Q290.35626 26.2 290.0594 26.5125Q289.77814 26.809376 289.21564 26.809376Q288.66876 26.809376 288.3875 26.5125Q288.10626 26.2 288.10626 25.746876ZM306.2 31.98125L300.2469 31.98125L298.90314 35.7L296.98126 35.7L302.40314 21.48125L304.04376 21.48125L309.48126 35.7L307.5594 35.7L306.2 31.98125ZM300.8094 30.45L305.65314 30.45L303.23126 23.79375L300.8094 30.45ZM310.6219 30.325Q310.6219 27.903126 311.77814 26.41875Q312.9344 24.934376 314.79376 24.934376Q316.65314 24.934376 317.73126 26.2L317.73126 20.7L319.54376 20.7L319.54376 35.7L317.8875 35.7L317.79376 34.559376Q316.71564 35.903126 314.77814 35.903126Q312.95 35.903126 311.77814 34.403126Q310.6219 32.8875 310.6219 30.465626L310.6219 30.325ZM312.4344 30.528126Q312.4344 32.325 313.16876 33.340626Q313.91876 34.35625 315.23126 34.35625Q316.95 34.35625 317.73126 32.825L317.73126 27.965626Q316.9344 26.465626 315.2469 26.465626Q313.91876 26.465626 313.16876 27.496876Q312.4344 28.528126 312.4344 30.528126ZM321.6219 30.325Q321.6219 27.903126 322.77814 26.41875Q323.9344 24.934376 325.79376 24.934376Q327.65314 24.934376 328.73126 26.2L328.73126 20.7L330.54376 20.7L330.54376 35.7L328.8875 35.7L328.79376 34.559376Q327.71564 35.903126 325.77814 35.903126Q323.95 35.903126 322.77814 34.403126Q321.6219 32.8875 321.6219 30.465626L321.6219 30.325ZM323.4344 30.528126Q323.4344 32.325 324.16876 33.340626Q324.91876 34.35625 326.23126 34.35625Q327.95 34.35625 328.73126 32.825L328.73126 27.965626Q327.9344 26.465626 326.2469 26.465626Q324.91876 26.465626 324.16876 27.496876Q323.4344 28.528126 323.4344 30.528126Z" fill-rule="nonzero"/></svg>