<svg version="1.1" viewBox="0.0 0.0 600.0 371.0" fill="none" stroke="none" stroke-linecap="square" stroke-miterlimit="10" width="600" height="371" xmlns:xlink="http://www.w3.org/1999/xlink" xmlns="http://www.w3.org/2000/svg"><path fill="#ffffff" d="M0 0L600.0 0L600.0 371.0L0 371.0L0 0Z" fill-rule="nonzero"/><path fill="#ffffff" d="M0 0L600.0 0L600.0 371.0L0 371.0L0 0Z" fill-rule="nonzero"/><path stroke="#333333" stroke-width="1.0" stroke-linecap="butt" d="M163.5 54.5L163.5 298.5" fill-rule="nonzero"/><path stroke="#cccccc" stroke-width="1.0" stroke-linecap="butt" d="M302.5 54.5L302.5 298.5" fill-rule="nonzero"/><path stroke="#cccccc" stroke-width="1.0" stroke-linecap="butt" d="M442.5 54.5L442.5 298.5" fill-rule="nonzero"/><path stroke="#cccccc" stroke-width="1.0" stroke-linecap="butt" d="M581.5 54.5L581.5 298.5" fill-rule="nonzero"/><clipPath id="id_0"><path d="M163.53 54.916668L581.45 54.916668L581.45 298.45L163.53 298.45L163.53 54.916668Z" clip-rule="nonzero"/></clipPath><path stroke="#000000" stroke-width="0.0" stroke-linecap="butt" stroke-opacity="0.0" clip-path="url(#id_0)" d="M164.0 94.0L164.0 69.0L353.0 69.0C354.10458 69.0 355.0 69.89543 355.0 71.0L355.0 92.0C355.0 93.10457 354.10458 94.0 353.0 94.0Z" fill-rule="nonzero"/><path fill="#4285f4" clip-path="url(#id_0)" d="M164.0 94.0L164.0 69.0L353.0 69.0C354.10458 69.0 355.0 69.89543 355.0 71.0L355.0 92.0C355.0 93.10457 354.10458 94.0 353.0 94.0Z" fill-rule="nonzero"/><path stroke="#000000" stroke-width="0.0" stroke-linecap="butt" stroke-opacity="0.0" clip-path="url(#id_0)" d="M164.0 132.0L164.0 107.0L164.0 107.0L164.0 132.0Z" fill-rule="nonzero"/><path fill="#4285f4" clip-path="url(#id_0)" d="M164.0 132.0L164.0 107.0L164.0 107.0L164.0 132.0Z" fill-rule="nonzero"/><path stroke="#000000" stroke-width="0.0" stroke-linecap="butt" stroke-opacity="0.0" clip-path="url(#id_0)" d="M164.0 171.0L164.0 146.0L551.0 146.0C552.10455 146.0 553.0 146.89543 553.0 148.0L553.0 169.0C553.0 170.10457 552.10455 171.0 551.0 171.0Z" fill-rule="nonzero"/><path fill="#4285f4" clip-path="url(#id_0)" d="M164.0 171.0L164.0 146.0L551.0 146.0C552.10455 146.0 553.0 146.89543 553.0 148.0L553.0 169.0C553.0 170.10457 552.10455 171.0 551.0 171.0Z" fill-rule="nonzero"/><path stroke="#000000" stroke-width="0.0" stroke-linecap="butt" stroke-opacity="0.0" clip-path="url(#id_0)" d="M164.0 209.0L164.0 184.0L164.0 184.0L164.0 209.0Z" fill-rule="nonzero"/><path fill="#4285f4" clip-path="url(#id_0)" d="M164.0 209.0L164.0 184.0L164.0 184.0L164.0 209.0Z" fill-rule="nonzero"/><path stroke="#000000" stroke-width="0.0" stroke-linecap="butt" stroke-opacity="0.0" clip-path="url(#id_0)" d="M164.0 247.0L164.0 222.0L530.0 222.0C531.10455 222.0 532.0 222.89543 532.0 224.0L532.0 245.0C532.0 246.10457 531.10455 247.0 530.0 247.0Z" fill-rule="nonzero"/><path fill="#4285f4" clip-path="url(#id_0)" d="M164.0 247.0L164.0 222.0L530.0 222.0C531.10455 222.0 532.0 222.89543 532.0 224.0L532.0 245.0C532.0 246.10457 531.10455 247.0 530.0 247.0Z" fill-rule="nonzero"/><path stroke="#000000" stroke-width="0.0" stroke-linecap="butt" stroke-opacity="0.0" clip-path="url(#id_0)" d="M164.0 286.0L164.0 261.0L164.0 261.0L164.0 286.0Z" fill-rule="nonzero"/><path fill="#4285f4" clip-path="url(#id_0)" d="M164.0 286.0L164.0 261.0L164.0 261.0L164.0 286.0Z" fill-rule="nonzero"/><path fill="#424242" d="M284.1931 347.21564L280.615 347.21564L279.8181 349.45L278.66187 349.45L281.91187 340.91876L282.89624 340.91876L286.16187 349.45L285.0056 349.45L284.1931 347.21564ZM280.95874 346.29376L283.865 346.29376L282.41187 342.3094L280.95874 346.29376ZM288.49 349.45L287.41187 349.45L287.41187 340.45L288.49 340.45L288.49 349.45ZM291.49 349.45L290.41187 349.45L290.41187 340.45L291.49 340.45L291.49 349.45ZM293.02124 346.21564Q293.02124 345.29376 293.3806 344.54376Q293.7556 343.79376 294.41187 343.40314Q295.0681 342.9969 295.89624 342.9969Q297.1931 342.9969 297.99 343.8875Q298.8025 344.77814 298.8025 346.27814L298.8025 346.35626Q298.8025 347.27814 298.4431 348.0125Q298.08374 348.7469 297.4275 349.16876Q296.77124 349.575 295.91187 349.575Q294.6306 349.575 293.8181 348.6844Q293.02124 347.77814 293.02124 346.29376L293.02124 346.21564ZM294.115 346.35626Q294.115 347.40314 294.59937 348.04376Q295.09937 348.6844 295.91187 348.6844Q296.74 348.6844 297.22437 348.04376Q297.70874 347.3875 297.70874 346.21564Q297.70874 345.1844 297.20874 344.54376Q296.72437 343.8875 295.89624 343.8875Q295.09937 343.8875 294.59937 344.52814Q294.115 345.15314 294.115 346.35626ZM302.84937 348.6844Q303.4275 348.6844 303.865 348.34064Q304.3025 347.98126 304.34937 347.45L305.3806 347.45Q305.34937 347.9969 304.99 348.4969Q304.64624 348.98126 304.0681 349.27814Q303.5056 349.575 302.84937 349.575Q301.5525 349.575 300.78687 348.71564Q300.03687 347.84064 300.03687 346.34064L300.03687 346.15314Q300.03687 345.23126 300.365 344.5125Q300.70874 343.79376 301.33374 343.40314Q301.97437 342.9969 302.84937 342.9969Q303.91187 342.9969 304.615 343.6375Q305.33374 344.2625 305.3806 345.29376L304.34937 345.29376Q304.3025 344.66876 303.8806 344.27814Q303.45874 343.8875 302.84937 343.8875Q302.02124 343.8875 301.5681 344.48126Q301.115 345.075 301.115 346.2L301.115 346.40314Q301.115 347.4969 301.5681 348.09064Q302.02124 348.6844 302.84937 348.6844ZM310.22437 349.45Q310.1306 349.2625 310.0681 348.77814Q309.3181 349.575 308.27124 349.575Q307.33374 349.575 306.72437 349.04376Q306.1306 348.5125 306.1306 347.6844Q306.1306 346.7 306.8806 346.15314Q307.6306 345.60626 309.0056 345.60626L310.0525 345.60626L310.0525 345.10626Q310.0525 344.54376 309.70874 344.21564Q309.3806 343.8719 308.70874 343.8719Q308.1306 343.8719 307.74 344.16876Q307.34937 344.45 307.34937 344.8719L306.2556 344.8719Q306.2556 344.3875 306.58374 343.95Q306.9275 343.5125 307.5056 343.2625Q308.08374 342.9969 308.77124 342.9969Q309.8806 342.9969 310.49 343.54376Q311.115 344.09064 311.14624 345.04376L311.14624 347.96564Q311.14624 348.84064 311.365 349.35626L311.365 349.45L310.22437 349.45ZM308.4275 348.6219Q308.9431 348.6219 309.39624 348.35626Q309.84937 348.09064 310.0525 347.66876L310.0525 346.3719L309.20874 346.3719Q307.20874 346.3719 307.20874 347.54376Q307.20874 348.04376 307.5525 348.34064Q307.89624 348.6219 308.4275 348.6219ZM314.78687 341.575L314.78687 343.10626L315.95874 343.10626L315.95874 343.95L314.78687 343.95L314.78687 347.8719Q314.78687 348.2625 314.9431 348.45Q315.09937 348.6375 315.47437 348.6375Q315.66187 348.6375 315.99 348.575L315.99 349.45Q315.5681 349.575 315.16187 349.575Q314.4431 349.575 314.0681 349.1375Q313.6931 348.6844 313.6931 347.8719L313.6931 343.95L312.53687 343.95L312.53687 343.10626L313.6931 343.10626L313.6931 341.575L314.78687 341.575ZM319.9431 349.575Q318.64624 349.575 317.83374 348.73126Q317.03687 347.8719 317.03687 346.45L317.03687 346.2625Q317.03687 345.3094 317.39624 344.575Q317.7556 343.825 318.39624 343.41876Q319.0525 342.9969 319.8025 342.9969Q321.03687 342.9969 321.72437 343.8094Q322.41187 344.6219 322.41187 346.1375L322.41187 346.59064L318.115 346.59064Q318.14624 347.52814 318.66187 348.10626Q319.1931 348.6844 320.0056 348.6844Q320.5681 348.6844 320.95874 348.45Q321.365 348.21564 321.6775 347.825L322.33374 348.34064Q321.53687 349.575 319.9431 349.575ZM319.8025 343.8875Q319.14624 343.8875 318.6931 344.3719Q318.2556 344.84064 318.16187 345.7L321.33374 345.7L321.33374 345.6219Q321.28687 344.79376 320.8806 344.34064Q320.49 343.8875 319.8025 343.8875ZM323.0525 346.23126Q323.0525 344.7625 323.74 343.8875Q324.4275 342.9969 325.5525 342.9969Q326.66187 342.9969 327.3181 343.7469L327.3181 340.45L328.39624 340.45L328.39624 349.45L327.39624 349.45L327.34937 348.7625Q326.6931 349.575 325.53687 349.575Q324.4431 349.575 323.74 348.66876Q323.0525 347.7625 323.0525 346.3094L323.0525 346.23126ZM324.1306 346.35626Q324.1306 347.4344 324.5681 348.04376Q325.02124 348.65314 325.8025 348.65314Q326.83374 348.65314 327.3181 347.71564L327.3181 344.8094Q326.83374 343.91876 325.8181 343.91876Q325.02124 343.91876 324.5681 344.52814Q324.1306 345.1375 324.1306 346.35626ZM334.9275 340.91876L337.72437 347.8719L340.5056 340.91876L341.97437 340.91876L341.97437 349.45L340.84937 349.45L340.84937 346.1219L340.95874 342.54376L338.14624 349.45L337.28687 349.45L334.49 342.5594L334.59937 346.1219L334.59937 349.45L333.47437 349.45L333.47437 340.91876L334.9275 340.91876ZM345.9431 349.575Q344.64624 349.575 343.83374 348.73126Q343.03687 347.8719 343.03687 346.45L343.03687 346.2625Q343.03687 345.3094 343.39624 344.575Q343.7556 343.825 344.39624 343.41876Q345.0525 342.9969 345.8025 342.9969Q347.03687 342.9969 347.72437 343.8094Q348.41187 344.6219 348.41187 346.1375L348.41187 346.59064L344.115 346.59064Q344.14624 347.52814 344.66187 348.10626Q345.1931 348.6844 346.0056 348.6844Q346.5681 348.6844 346.95874 348.45Q347.365 348.21564 347.6775 347.825L348.33374 348.34064Q347.53687 349.575 345.9431 349.575ZM345.8025 343.8875Q345.14624 343.8875 344.6931 344.3719Q344.2556 344.84064 344.16187 345.7L347.33374 345.7L347.33374 345.6219Q347.28687 344.79376 346.8806 344.34064Q346.49 343.8875 345.8025 343.8875ZM350.33374 343.10626L350.365 343.8094Q351.0525 342.9969 352.24 342.9969Q353.5681 342.9969 354.0525 344.0125Q354.365 343.5594 354.865 343.27814Q355.3806 342.9969 356.0681 342.9969Q358.16187 342.9969 358.1931 345.2L358.1931 349.45L357.115 349.45L357.115 345.2625Q357.115 344.59064 356.8025 344.2625Q356.49 343.91876 355.7556 343.91876Q355.14624 343.91876 354.74 344.27814Q354.34937 344.6375 354.28687 345.2469L354.28687 349.45L353.20874 349.45L353.20874 345.29376Q353.20874 343.91876 351.84937 343.91876Q350.78687 343.91876 350.39624 344.825L350.39624 349.45L349.3025 349.45L349.3025 343.10626L350.33374 343.10626ZM360.02124 346.21564Q360.02124 345.29376 360.3806 344.54376Q360.7556 343.79376 361.41187 343.40314Q362.0681 342.9969 362.89624 342.9969Q364.1931 342.9969 364.99 343.8875Q365.8025 344.77814 365.8025 346.27814L365.8025 346.35626Q365.8025 347.27814 365.4431 348.0125Q365.08374 348.7469 364.4275 349.16876Q363.77124 349.575 362.91187 349.575Q361.6306 349.575 360.8181 348.6844Q360.02124 347.77814 360.02124 346.29376L360.02124 346.21564ZM361.115 346.35626Q361.115 347.40314 361.59937 348.04376Q362.09937 348.6844 362.91187 348.6844Q363.74 348.6844 364.22437 348.04376Q364.70874 347.3875 364.70874 346.21564Q364.70874 345.1844 364.20874 344.54376Q363.72437 343.8875 362.89624 343.8875Q362.09937 343.8875 361.59937 344.52814Q361.115 345.15314 361.115 346.35626ZM370.3806 344.075Q370.1306 344.04376 369.84937 344.04376Q368.77124 344.04376 368.39624 344.95L368.39624 349.45L367.3181 349.45L367.3181 343.10626L368.365 343.10626L368.3806 343.84064Q368.91187 342.9969 369.89624 342.9969Q370.20874 342.9969 370.3806 343.075L370.3806 344.075ZM373.3806 347.85626L374.865 343.10626L376.02124 343.10626L373.47437 350.4344Q372.8806 352.0125 371.59937 352.0125L371.3806 351.9969L370.99 351.91876L370.99 351.04376L371.27124 351.0594Q371.83374 351.0594 372.1306 350.84064Q372.4431 350.6219 372.64624 350.02814L372.8806 349.3719L370.615 343.10626L371.8025 343.10626L373.3806 347.85626ZM377.52124 350.1844L376.59937 350.1844L380.16187 340.91876L381.08374 340.91876L377.52124 350.1844ZM389.03687 345.46564Q389.03687 346.71564 388.615 347.65314Q388.1931 348.575 387.41187 349.075Q386.64624 349.575 385.615 349.575Q384.615 349.575 383.83374 349.075Q383.0525 348.575 382.615 347.66876Q382.1931 346.7469 382.1775 345.52814L382.1775 344.91876Q382.1775 343.6844 382.59937 342.7469Q383.03687 341.8094 383.8181 341.3094Q384.59937 340.79376 385.615 340.79376Q386.6306 340.79376 387.41187 341.29376Q388.1931 341.79376 388.615 342.73126Q389.03687 343.66876 389.03687 344.91876L389.03687 345.46564ZM387.9275 344.90314Q387.9275 343.3875 387.3181 342.575Q386.70874 341.7625 385.615 341.7625Q384.53687 341.7625 383.9275 342.575Q383.3181 343.3875 383.3025 344.825L383.3025 345.46564Q383.3025 346.9344 383.91187 347.77814Q384.53687 348.60626 385.615 348.60626Q386.70874 348.60626 387.3025 347.825Q387.91187 347.02814 387.9275 345.54376L387.9275 344.90314ZM395.66187 346.35626Q395.66187 347.79376 395.0056 348.6844Q394.34937 349.575 393.20874 349.575Q392.0525 349.575 391.39624 348.84064L391.39624 351.8875L390.3181 351.8875L390.3181 343.10626L391.3025 343.10626L391.34937 343.8094Q392.02124 342.9969 393.1931 342.9969Q394.33374 342.9969 394.99 343.85626Q395.66187 344.71564 395.66187 346.2469L395.66187 346.35626ZM394.58374 346.23126Q394.58374 345.15314 394.115 344.54376Q393.66187 343.91876 392.865 343.91876Q391.8806 343.91876 391.39624 344.77814L391.39624 347.8094Q391.8806 348.6844 392.8806 348.6844Q393.66187 348.6844 394.115 348.075Q394.58374 347.45 394.58374 346.23126ZM400.27124 345.98126Q400.27124 344.66876 400.615 343.45Q400.97437 342.23126 401.6775 341.23126Q402.3806 340.23126 403.14624 339.825L403.365 340.54376Q402.5056 341.2 401.95874 342.54376Q401.41187 343.8875 401.365 345.5594L401.34937 346.0594Q401.34937 348.325 402.1775 349.98126Q402.6775 350.98126 403.365 351.54376L403.14624 352.2Q402.365 351.77814 401.64624 350.7469Q400.27124 348.7625 400.27124 345.98126ZM405.9275 340.91876L408.72437 347.8719L411.5056 340.91876L412.97437 340.91876L412.97437 349.45L411.84937 349.45L411.84937 346.1219L411.95874 342.54376L409.14624 349.45L408.28687 349.45L405.49 342.5594L405.59937 346.1219L405.59937 349.45L404.47437 349.45L404.47437 340.91876L405.9275 340.91876ZM416.9431 349.575Q415.64624 349.575 414.83374 348.73126Q414.03687 347.8719 414.03687 346.45L414.03687 346.2625Q414.03687 345.3094 414.39624 344.575Q414.7556 343.825 415.39624 343.41876Q416.0525 342.9969 416.8025 342.9969Q418.03687 342.9969 418.72437 343.8094Q419.41187 344.6219 419.41187 346.1375L419.41187 346.59064L415.115 346.59064Q415.14624 347.52814 415.66187 348.10626Q416.1931 348.6844 417.0056 348.6844Q417.5681 348.6844 417.95874 348.45Q418.365 348.21564 418.6775 347.825L419.33374 348.34064Q418.53687 349.575 416.9431 349.575ZM416.8025 343.8875Q416.14624 343.8875 415.6931 344.3719Q415.2556 344.84064 415.16187 345.7L418.33374 345.7L418.33374 345.6219Q418.28687 344.79376 417.8806 344.34064Q417.49 343.8875 416.8025 343.8875ZM420.0525 346.23126Q420.0525 344.7469 420.74 343.8719Q421.4275 342.9969 422.5525 342.9969Q423.70874 342.9969 424.365 343.8094L424.41187 343.10626L425.41187 343.10626L425.41187 349.29376Q425.41187 350.52814 424.6775 351.23126Q423.9431 351.95 422.72437 351.95Q422.03687 351.95 421.3806 351.65314Q420.72437 351.35626 420.3806 350.85626L420.9431 350.2Q421.6306 351.0594 422.64624 351.0594Q423.4275 351.0594 423.865 350.60626Q424.3181 350.16876 424.3181 349.35626L424.3181 348.8094Q423.66187 349.575 422.53687 349.575Q421.4275 349.575 420.74 348.6844Q420.0525 347.77814 420.0525 346.23126ZM421.14624 346.35626Q421.14624 347.41876 421.58374 348.04376Q422.02124 348.65314 422.8181 348.65314Q423.83374 348.65314 424.3181 347.71564L424.3181 344.825Q423.8181 343.91876 422.8181 343.91876Q422.03687 343.91876 421.58374 344.52814Q421.14624 345.1375 421.14624 346.35626ZM431.22437 349.45Q431.1306 349.2625 431.0681 348.77814Q430.3181 349.575 429.27124 349.575Q428.33374 349.575 427.72437 349.04376Q427.1306 348.5125 427.1306 347.6844Q427.1306 346.7 427.8806 346.15314Q428.6306 345.60626 430.0056 345.60626L431.0525 345.60626L431.0525 345.10626Q431.0525 344.54376 430.70874 344.21564Q430.3806 343.8719 429.70874 343.8719Q429.1306 343.8719 428.74 344.16876Q428.34937 344.45 428.34937 344.8719L427.2556 344.8719Q427.2556 344.3875 427.58374 343.95Q427.9275 343.5125 428.5056 343.2625Q429.08374 342.9969 429.77124 342.9969Q430.8806 342.9969 431.49 343.54376Q432.115 344.09064 432.14624 345.04376L432.14624 347.96564Q432.14624 348.84064 432.365 349.35626L432.365 349.45L431.22437 349.45ZM429.4275 348.6219Q429.9431 348.6219 430.39624 348.35626Q430.84937 348.09064 431.0525 347.66876L431.0525 346.3719L430.20874 346.3719Q428.20874 346.3719 428.20874 347.54376Q428.20874 348.04376 428.5525 348.34064Q428.89624 348.6219 429.4275 348.6219ZM439.6775 346.35626Q439.6775 347.8094 439.0056 348.7Q438.34937 349.575 437.22437 349.575Q436.02124 349.575 435.365 348.71564L435.3025 349.45L434.3181 349.45L434.3181 340.45L435.39624 340.45L435.39624 343.8094Q436.0525 342.9969 437.20874 342.9969Q438.365 342.9969 439.02124 343.8719Q439.6775 344.73126 439.6775 346.2625L439.6775 346.35626ZM438.59937 346.23126Q438.59937 345.1219 438.16187 344.52814Q437.74 343.91876 436.9431 343.91876Q435.865 343.91876 435.39624 344.90314L435.39624 347.65314Q435.89624 348.65314 436.9431 348.65314Q437.72437 348.65314 438.16187 348.04376Q438.59937 347.4344 438.59937 346.23126ZM443.3806 347.85626L444.865 343.10626L446.02124 343.10626L443.47437 350.4344Q442.8806 352.0125 441.59937 352.0125L441.3806 351.9969L440.99 351.91876L440.99 351.04376L441.27124 351.0594Q441.83374 351.0594 442.1306 350.84064Q442.4431 350.6219 442.64624 350.02814L442.8806 349.3719L440.615 343.10626L441.8025 343.10626L443.3806 347.85626ZM448.78687 341.575L448.78687 343.10626L449.95874 343.10626L449.95874 343.95L448.78687 343.95L448.78687 347.8719Q448.78687 348.2625 448.9431 348.45Q449.09937 348.6375 449.47437 348.6375Q449.66187 348.6375 449.99 348.575L449.99 349.45Q449.5681 349.575 449.16187 349.575Q448.4431 349.575 448.0681 349.1375Q447.6931 348.6844 447.6931 347.8719L447.6931 343.95L446.53687 343.95L446.53687 343.10626L447.6931 343.10626L447.6931 341.575L448.78687 341.575ZM453.9431 349.575Q452.64624 349.575 451.83374 348.73126Q451.03687 347.8719 451.03687 346.45L451.03687 346.2625Q451.03687 345.3094 451.39624 344.575Q451.7556 343.825 452.39624 343.41876Q453.0525 342.9969 453.8025 342.9969Q455.03687 342.9969 455.72437 343.8094Q456.41187 344.6219 456.41187 346.1375L456.41187 346.59064L452.115 346.59064Q452.14624 347.52814 452.66187 348.10626Q453.1931 348.6844 454.0056 348.6844Q454.5681 348.6844 454.95874 348.45Q455.365 348.21564 455.6775 347.825L456.33374 348.34064Q455.53687 349.575 453.9431 349.575ZM453.8025 343.8875Q453.14624 343.8875 452.6931 344.3719Q452.2556 344.84064 452.16187 345.7L455.33374 345.7L455.33374 345.6219Q455.28687 344.79376 454.8806 344.34064Q454.49 343.8875 453.8025 343.8875ZM461.0056 347.7625Q461.0056 347.325 460.66187 347.09064Q460.33374 346.84064 459.5056 346.66876Q458.6931 346.4969 458.20874 346.2469Q457.72437 345.9969 457.49 345.66876Q457.27124 345.325 457.27124 344.85626Q457.27124 344.075 457.9275 343.54376Q458.58374 342.9969 459.615 342.9969Q460.6931 342.9969 461.34937 343.5594Q462.02124 344.10626 462.02124 344.96564L460.9431 344.96564Q460.9431 344.52814 460.5525 344.21564Q460.1775 343.8875 459.615 343.8875Q459.02124 343.8875 458.6775 344.15314Q458.34937 344.40314 458.34937 344.8094Q458.34937 345.2 458.66187 345.40314Q458.97437 345.60626 459.78687 345.79376Q460.59937 345.96564 461.09937 346.21564Q461.59937 346.46564 461.83374 346.825Q462.08374 347.1844 462.08374 347.6844Q462.08374 348.54376 461.39624 349.0594Q460.72437 349.575 459.64624 349.575Q458.8806 349.575 458.28687 349.3094Q457.70874 349.02814 457.3806 348.54376Q457.0525 348.0594 457.0525 347.4969L458.1306 347.4969Q458.16187 348.04376 458.5681 348.3719Q458.97437 348.6844 459.64624 348.6844Q460.2556 348.6844 460.6306 348.4344Q461.0056 348.1844 461.0056 347.7625ZM465.8181 346.04376Q465.8181 347.35626 465.47437 348.5594Q465.1306 349.7469 464.41187 350.7625Q463.70874 351.77814 462.9431 352.2L462.70874 351.54376Q463.615 350.85626 464.16187 349.40314Q464.70874 347.9344 464.72437 346.16876L464.72437 345.98126Q464.72437 344.7469 464.45874 343.6844Q464.20874 342.6219 463.74 341.79376Q463.28687 340.95 462.70874 340.48126L462.9431 339.825Q463.70874 340.2469 464.41187 341.2469Q465.115 342.2469 465.45874 343.46564Q465.8181 344.66876 465.8181 346.04376Z" fill-rule="nonzero"/><path fill="#424242" d="M30.550013 216.69896L22.018763 216.69896L22.018763 213.90208Q22.018763 212.51146 22.596888 211.82396Q23.159388 211.12083 24.284388 211.12083Q24.893763 211.12083 25.362513 211.46458Q25.815638 211.79271 26.065638 212.38646Q26.253138 211.68333 26.800013 211.29271Q27.331263 210.88646 28.081263 210.88646Q29.237513 210.88646 29.893763 211.63646Q30.550013 212.37083 30.550013 213.73021L30.550013 216.69896ZM26.565638 215.57396L29.628138 215.57396L29.628138 213.71458Q29.628138 212.91771 29.221888 212.46458Q28.815638 212.01146 28.096888 212.01146Q26.565638 212.01146 26.565638 213.69896L26.565638 215.57396ZM25.659388 215.57396L25.659388 213.87083Q25.659388 213.13646 25.300013 212.69896Q24.925013 212.24583 24.284388 212.24583Q23.581263 212.24583 23.268763 212.65208Q22.940638 213.05833 22.940638 213.90208L22.940638 215.57396L25.659388 215.57396ZM30.675013 207.23021Q30.675013 208.52708 29.831263 209.33958Q28.971888 210.13646 27.550013 210.13646L27.362513 210.13646Q26.409388 210.13646 25.675013 209.77708Q24.925013 209.41771 24.518763 208.77708Q24.096888 208.12083 24.096888 207.37083Q24.096888 206.13646 24.909388 205.44896Q25.721888 204.76146 27.237513 204.76146L27.690638 204.76146L27.690638 209.05833Q28.628138 209.02708 29.206263 208.51146Q29.784388 207.98021 29.784388 207.16771Q29.784388 206.60521 29.550013 206.21458Q29.315638 205.80833 28.925013 205.49583L29.440638 204.83958Q30.675013 205.63646 30.675013 207.23021ZM24.987513 207.37083Q24.987513 208.02708 25.471888 208.48021Q25.940638 208.91771 26.800013 209.01146L26.800013 205.83958L26.721888 205.83958Q25.893763 205.88646 25.440638 206.29271Q24.987513 206.68333 24.987513 207.37083ZM24.206263 202.83958L25.003138 202.80833Q24.096888 202.07396 24.096888 200.90208Q24.096888 198.88646 26.362513 198.87083L30.550013 198.87083L30.550013 199.96458L26.346888 199.96458Q25.675013 199.96458 25.346888 200.27708Q25.018763 200.57396 25.018763 201.23021Q25.018763 201.76146 25.300013 202.16771Q25.581263 202.55833 26.034388 202.77708L30.550013 202.77708L30.550013 203.85521L24.206263 203.85521L24.206263 202.83958ZM29.784388 194.32396Q29.784388 193.74583 29.440638 193.30833Q29.081263 192.87083 28.550013 192.82396L28.550013 191.79271Q29.096888 191.82396 29.596888 192.18333Q30.081263 192.52708 30.378138 193.10521Q30.675013 193.66771 30.675013 194.32396Q30.675013 195.62083 29.815638 196.38646Q28.940638 197.13646 27.440638 197.13646L27.253138 197.13646Q26.331263 197.13646 25.612513 196.80833Q24.893763 196.46458 24.503138 195.83958Q24.096888 195.19896 24.096888 194.32396Q24.096888 193.26146 24.737513 192.55833Q25.362513 191.83958 26.393763 191.79271L26.393763 192.82396Q25.768763 192.87083 25.378138 193.29271Q24.987513 193.71458 24.987513 194.32396Q24.987513 195.15208 25.581263 195.60521Q26.175013 196.05833 27.300013 196.05833L27.503138 196.05833Q28.596888 196.05833 29.190638 195.60521Q29.784388 195.15208 29.784388 194.32396ZM24.971888 189.77708Q24.096888 189.05833 24.096888 187.90208Q24.096888 185.88646 26.362513 185.87083L30.550013 185.87083L30.550013 186.96458L26.346888 186.96458Q25.675013 186.96458 25.346888 187.27708Q25.018763 187.57396 25.018763 188.23021Q25.018763 188.76146 25.300013 189.16771Q25.581263 189.55833 26.034388 189.77708L30.550013 189.77708L30.550013 190.85521L21.550013 190.85521L21.550013 189.77708L24.971888 189.77708ZM24.206263 182.83958L24.909388 182.80833Q24.096888 182.12083 24.096888 180.93333Q24.096888 179.60521 25.112513 179.12083Q24.659388 178.80833 24.378138 178.30833Q24.096888 177.79271 24.096888 177.10521Q24.096888 175.01146 26.300013 174.98021L30.550013 174.98021L30.550013 176.05833L26.362513 176.05833Q25.690638 176.05833 25.362513 176.37083Q25.018763 176.68333 25.018763 177.41771Q25.018763 178.02708 25.378138 178.43333Q25.737513 178.82396 26.346888 178.88646L30.550013 178.88646L30.550013 179.96458L26.393763 179.96458Q25.018763 179.96458 25.018763 181.32396Q25.018763 182.38646 25.925013 182.77708L30.550013 182.77708L30.550013 183.87083L24.206263 183.87083L24.206263 182.83958ZM30.550013 168.94896Q30.362513 169.04271 29.878138 169.10521Q30.675013 169.85521 30.675013 170.90208Q30.675013 171.83958 30.143763 172.44896Q29.612513 173.04271 28.784388 173.04271Q27.800013 173.04271 27.253138 172.29271Q26.706263 171.54271 26.706263 170.16771L26.706263 169.12083L26.206263 169.12083Q25.643763 169.12083 25.315638 169.46458Q24.971888 169.79271 24.971888 170.46458Q24.971888 171.04271 25.268763 171.43333Q25.550013 171.82396 25.971888 171.82396L25.971888 172.91771Q25.487513 172.91771 25.050013 172.58958Q24.612513 172.24583 24.362513 171.66771Q24.096888 171.08958 24.096888 170.40208Q24.096888 169.29271 24.643763 168.68333Q25.190638 168.05833 26.143763 168.02708L29.065638 168.02708Q29.940638 168.02708 30.456263 167.80833L30.550013 167.80833L30.550013 168.94896ZM29.721888 170.74583Q29.721888 170.23021 29.456263 169.77708Q29.190638 169.32396 28.768763 169.12083L27.471888 169.12083L27.471888 169.96458Q27.471888 171.96458 28.643763 171.96458Q29.143763 171.96458 29.440638 171.62083Q29.721888 171.27708 29.721888 170.74583ZM25.175013 162.79271Q25.143763 163.04271 25.143763 163.32396Q25.143763 164.40208 26.050013 164.77708L30.550013 164.77708L30.550013 165.85521L24.206263 165.85521L24.206263 164.80833L24.940638 164.79271Q24.096888 164.26146 24.096888 163.27708Q24.096888 162.96458 24.175013 162.79271L25.175013 162.79271ZM27.612513 160.08958L28.315638 160.77708L30.550013 160.77708L30.550013 161.85521L21.550013 161.85521L21.550013 160.77708L26.987513 160.77708L26.300013 160.19896L24.206263 158.21458L24.206263 156.90208L26.862513 159.37083L30.550013 156.60521L30.550013 157.88646L27.612513 160.08958Z" fill-rule="nonzero"/><path fill="#757575" d="M76.51437 85.30407L76.51437 76.77282L78.93625 76.77282Q80.04562 76.77282 80.88937 77.27282Q81.74875 77.757195 82.2175 78.663445Q82.68625 79.569695 82.68625 80.757195L82.68625 81.288445Q82.68625 82.507195 82.2175 83.413445Q81.76437 84.319695 80.88937 84.80407Q80.03 85.288445 78.88937 85.30407L76.51437 85.30407ZM77.63937 77.694695L77.63937 84.382195L78.82687 84.382195Q80.12375 84.382195 80.8425 83.58532Q81.57687 82.77282 81.57687 81.27282L81.57687 80.77282Q81.57687 79.319695 80.88937 78.52282Q80.2175 77.71032 78.95187 77.694695L77.63937 77.694695ZM85.53 85.30407L84.45187 85.30407L84.45187 78.96032L85.53 78.96032L85.53 85.30407ZM84.35812 77.288445Q84.35812 77.02282 84.51437 76.83532Q84.68625 76.64782 84.99875 76.64782Q85.31125 76.64782 85.4675 76.83532Q85.63937 77.02282 85.63937 77.288445Q85.63937 77.538445 85.4675 77.725945Q85.31125 77.89782 84.99875 77.89782Q84.68625 77.89782 84.51437 77.725945Q84.35812 77.538445 84.35812 77.288445ZM89.88937 84.538445Q90.4675 84.538445 90.905 84.194695Q91.3425 83.83532 91.38937 83.30407L92.42062 83.30407Q92.38937 83.850945 92.03 84.350945Q91.68625 84.83532 91.10812 85.132195Q90.54562 85.42907 89.88937 85.42907Q88.5925 85.42907 87.82687 84.569695Q87.07687 83.694695 87.07687 82.194695L87.07687 82.007195Q87.07687 81.08532 87.405 80.36657Q87.74875 79.64782 88.37375 79.257195Q89.01437 78.850945 89.88937 78.850945Q90.95187 78.850945 91.655 79.49157Q92.37375 80.11657 92.42062 81.14782L91.38937 81.14782Q91.3425 80.52282 90.92062 80.132195Q90.49875 79.74157 89.88937 79.74157Q89.06125 79.74157 88.60812 80.33532Q88.155 80.92907 88.155 82.05407L88.155 82.257195Q88.155 83.350945 88.60812 83.944695Q89.06125 84.538445 89.88937 84.538445ZM94.82687 77.42907L94.82687 78.96032L95.99875 78.96032L95.99875 79.80407L94.82687 79.80407L94.82687 83.725945Q94.82687 84.11657 94.98312 84.30407Q95.13937 84.49157 95.51437 84.49157Q95.70187 84.49157 96.03 84.42907L96.03 85.30407Q95.60812 85.42907 95.20187 85.42907Q94.48312 85.42907 94.10812 84.99157Q93.73312 84.538445 93.73312 83.725945L93.73312 79.80407L92.57687 79.80407L92.57687 78.96032L93.73312 78.96032L93.73312 77.42907L94.82687 77.42907ZM102.23312 83.069695L98.655 83.069695L97.85812 85.30407L96.70187 85.30407L99.95187 76.77282L100.93625 76.77282L104.20187 85.30407L103.04562 85.30407L102.23312 83.069695ZM98.99875 82.14782L101.905 82.14782L100.45187 78.163445L98.99875 82.14782ZM105.0925 82.08532Q105.0925 80.61657 105.78 79.74157Q106.4675 78.850945 107.5925 78.850945Q108.70187 78.850945 109.35812 79.600945L109.35812 76.30407L110.43625 76.30407L110.43625 85.30407L109.43625 85.30407L109.38937 84.61657Q108.73312 85.42907 107.57687 85.42907Q106.48312 85.42907 105.78 84.52282Q105.0925 83.61657 105.0925 82.163445L105.0925 82.08532ZM106.17062 82.21032Q106.17062 83.288445 106.60812 83.89782Q107.06125 84.507195 107.8425 84.507195Q108.87375 84.507195 109.35812 83.569695L109.35812 80.663445Q108.87375 79.77282 107.85812 79.77282Q107.06125 79.77282 106.60812 80.382195Q106.17062 80.99157 106.17062 82.21032ZM112.0925 82.08532Q112.0925 80.61657 112.78 79.74157Q113.4675 78.850945 114.5925 78.850945Q115.70187 78.850945 116.35812 79.600945L116.35812 76.30407L117.43625 76.30407L117.43625 85.30407L116.43625 85.30407L116.38937 84.61657Q115.73312 85.42907 114.57687 85.42907Q113.48312 85.42907 112.78 84.52282Q112.0925 83.61657 112.0925 82.163445L112.0925 82.08532ZM113.17062 82.21032Q113.17062 83.288445 113.60812 83.89782Q114.06125 84.507195 114.8425 84.507195Q115.87375 84.507195 116.35812 83.569695L116.35812 80.663445Q115.87375 79.77282 114.85812 79.77282Q114.06125 79.77282 113.60812 80.382195Q113.17062 80.99157 113.17062 82.21032ZM122.31125 81.83532Q122.31125 80.52282 122.655 79.30407Q123.01437 78.08532 123.7175 77.08532Q124.42062 76.08532 125.18625 75.67907L125.405 76.39782Q124.54562 77.05407 123.99875 78.39782Q123.45187 79.74157 123.405 81.413445L123.38937 81.913445Q123.38937 84.17907 124.2175 85.83532Q124.7175 86.83532 125.405 87.39782L125.18625 88.05407Q124.405 87.632195 123.68625 86.600945Q122.31125 84.61657 122.31125 81.83532ZM129.79562 85.30407L128.7175 85.30407L128.7175 78.08532L126.53 78.882195L126.53 77.89782L129.63937 76.725945L129.79562 76.725945L129.79562 85.30407ZM138.5925 81.663445Q138.5925 83.569695 137.93625 84.507195Q137.29562 85.42907 135.905 85.42907Q134.54562 85.42907 133.88937 84.52282Q133.23312 83.61657 133.20187 81.80407L133.20187 80.36657Q133.20187 78.475945 133.8425 77.569695Q134.49875 76.64782 135.88937 76.64782Q137.26437 76.64782 137.92062 77.538445Q138.57687 78.413445 138.5925 80.257195L138.5925 81.663445ZM137.49875 80.17907Q137.49875 78.80407 137.10812 78.17907Q136.73312 77.538445 135.88937 77.538445Q135.06125 77.538445 134.67062 78.17907Q134.29562 78.80407 134.29562 80.100945L134.29562 81.83532Q134.29562 83.21032 134.68625 83.882195Q135.0925 84.538445 135.905 84.538445Q136.70187 84.538445 137.0925 83.913445Q137.48312 83.288445 137.49875 81.96032L137.49875 80.17907ZM145.5925 81.663445Q145.5925 83.569695 144.93625 84.507195Q144.29562 85.42907 142.905 85.42907Q141.54562 85.42907 140.88937 84.52282Q140.23312 83.61657 140.20187 81.80407L140.20187 80.36657Q140.20187 78.475945 140.8425 77.569695Q141.49875 76.64782 142.88937 76.64782Q144.26437 76.64782 144.92062 77.538445Q145.57687 78.413445 145.5925 80.257195L145.5925 81.663445ZM144.49875 80.17907Q144.49875 78.80407 144.10812 78.17907Q143.73312 77.538445 142.88937 77.538445Q142.06125 77.538445 141.67062 78.17907Q141.29562 78.80407 141.29562 80.100945L141.29562 81.83532Q141.29562 83.21032 141.68625 83.882195Q142.0925 84.538445 142.905 84.538445Q143.70187 84.538445 144.0925 83.913445Q144.48312 83.288445 144.49875 81.96032L144.49875 80.17907ZM152.5925 81.663445Q152.5925 83.569695 151.93625 84.507195Q151.29562 85.42907 149.905 85.42907Q148.54562 85.42907 147.88937 84.52282Q147.23312 83.61657 147.20187 81.80407L147.20187 80.36657Q147.20187 78.475945 147.8425 77.569695Q148.49875 76.64782 149.88937 76.64782Q151.26437 76.64782 151.92062 77.538445Q152.57687 78.413445 152.5925 80.257195L152.5925 81.663445ZM151.49875 80.17907Q151.49875 78.80407 151.10812 78.17907Q150.73312 77.538445 149.88937 77.538445Q149.06125 77.538445 148.67062 78.17907Q148.29562 78.80407 148.29562 80.100945L148.29562 81.83532Q148.29562 83.21032 148.68625 83.882195Q149.0925 84.538445 149.905 84.538445Q150.70187 84.538445 151.0925 83.913445Q151.48312 83.288445 151.49875 81.96032L151.49875 80.17907ZM156.85812 81.89782Q156.85812 83.21032 156.51437 84.413445Q156.17062 85.600945 155.45187 86.61657Q154.74875 87.632195 153.98312 88.05407L153.74875 87.39782Q154.655 86.71032 155.20187 85.257195Q155.74875 83.788445 155.76437 82.02282L155.76437 81.83532Q155.76437 80.600945 155.49875 79.538445Q155.24875 78.475945 154.78 77.64782Q154.32687 76.80407 153.74875 76.33532L153.98312 75.67907Q154.74875 76.100945 155.45187 77.100945Q156.155 78.100945 156.49875 79.319695Q156.85812 80.52282 156.85812 81.89782Z" fill-rule="nonzero"/><path fill="#757575" d="M60.639374 120.31203L60.639374 123.65578L59.514374 123.65578L59.514374 115.12453L62.670624 115.12453Q64.06125 115.12453 64.85812 115.84328Q65.655 116.5464 65.655 117.7339Q65.655 118.96828 64.87375 119.64015Q64.10812 120.31203 62.655 120.31203L60.639374 120.31203ZM60.639374 119.39015L62.670624 119.39015Q63.576874 119.39015 64.04562 118.96828Q64.53 118.5464 64.53 117.74953Q64.53 116.9839 64.04562 116.53078Q63.576874 116.06203 62.733124 116.0464L60.639374 116.0464L60.639374 119.39015ZM67.06125 120.4214Q67.06125 119.49953 67.42062 118.74953Q67.79562 117.99953 68.45187 117.6089Q69.10812 117.20265 69.93625 117.20265Q71.23312 117.20265 72.03 118.09328Q72.8425 118.9839 72.8425 120.4839L72.8425 120.56203Q72.8425 121.4839 72.48312 122.21828Q72.12375 122.95265 71.4675 123.37453Q70.81125 123.78078 69.95187 123.78078Q68.67062 123.78078 67.85812 122.89015Q67.06125 121.9839 67.06125 120.49953L67.06125 120.4214ZM68.155 120.56203Q68.155 121.6089 68.63937 122.24953Q69.13937 122.89015 69.95187 122.89015Q70.78 122.89015 71.26437 122.24953Q71.74875 121.59328 71.74875 120.4214Q71.74875 119.39015 71.24875 118.74953Q70.76437 118.09328 69.93625 118.09328Q69.13937 118.09328 68.63937 118.7339Q68.155 119.3589 68.155 120.56203ZM74.06125 120.4214Q74.06125 119.49953 74.42062 118.74953Q74.79562 117.99953 75.45187 117.6089Q76.10812 117.20265 76.93625 117.20265Q78.23312 117.20265 79.03 118.09328Q79.8425 118.9839 79.8425 120.4839L79.8425 120.56203Q79.8425 121.4839 79.48312 122.21828Q79.12375 122.95265 78.4675 123.37453Q77.81125 123.78078 76.95187 123.78078Q75.67062 123.78078 74.85812 122.89015Q74.06125 121.9839 74.06125 120.49953L74.06125 120.4214ZM75.155 120.56203Q75.155 121.6089 75.63937 122.24953Q76.13937 122.89015 76.95187 122.89015Q77.78 122.89015 78.26437 122.24953Q78.74875 121.59328 78.74875 120.4214Q78.74875 119.39015 78.24875 118.74953Q77.76437 118.09328 76.93625 118.09328Q76.13937 118.09328 75.63937 118.7339Q75.155 119.3589 75.155 120.56203ZM82.53 123.65578L81.45187 123.65578L81.45187 114.65578L82.53 114.65578L82.53 123.65578ZM86.98312 123.78078Q85.68625 123.78078 84.87375 122.93703Q84.07687 122.07765 84.07687 120.65578L84.07687 120.46828Q84.07687 119.51515 84.43625 118.78078Q84.79562 118.03078 85.43625 117.62453Q86.0925 117.20265 86.8425 117.20265Q88.07687 117.20265 88.76437 118.01515Q89.45187 118.82765 89.45187 120.34328L89.45187 120.7964L85.155 120.7964Q85.18625 121.7339 85.70187 122.31203Q86.23312 122.89015 87.04562 122.89015Q87.60812 122.89015 87.99875 122.65578Q88.405 122.4214 88.7175 122.03078L89.37375 122.5464Q88.57687 123.78078 86.98312 123.78078ZM86.8425 118.09328Q86.18625 118.09328 85.73312 118.57765Q85.29562 119.0464 85.20187 119.90578L88.37375 119.90578L88.37375 119.82765Q88.32687 118.99953 87.92062 118.5464Q87.53 118.09328 86.8425 118.09328ZM90.0925 120.43703Q90.0925 118.96828 90.78 118.09328Q91.4675 117.20265 92.5925 117.20265Q93.70187 117.20265 94.35812 117.95265L94.35812 114.65578L95.43625 114.65578L95.43625 123.65578L94.43625 123.65578L94.38937 122.96828Q93.73312 123.78078 92.57687 123.78078Q91.48312 123.78078 90.78 122.87453Q90.0925 121.96828 90.0925 120.51515L90.0925 120.43703ZM91.17062 120.56203Q91.17062 121.64015 91.60812 122.24953Q92.06125 122.8589 92.8425 122.8589Q93.87375 122.8589 94.35812 121.9214L94.35812 119.01515Q93.87375 118.12453 92.85812 118.12453Q92.06125 118.12453 91.60812 118.7339Q91.17062 119.34328 91.17062 120.56203ZM102.23312 121.4214L98.655 121.4214L97.85812 123.65578L96.70187 123.65578L99.95187 115.12453L100.93625 115.12453L104.20187 123.65578L103.04562 123.65578L102.23312 121.4214ZM98.99875 120.49953L101.905 120.49953L100.45187 116.51515L98.99875 120.49953ZM105.0925 120.43703Q105.0925 118.96828 105.78 118.09328Q106.4675 117.20265 107.5925 117.20265Q108.70187 117.20265 109.35812 117.95265L109.35812 114.65578L110.43625 114.65578L110.43625 123.65578L109.43625 123.65578L109.38937 122.96828Q108.73312 123.78078 107.57687 123.78078Q106.48312 123.78078 105.78 122.87453Q105.0925 121.96828 105.0925 120.51515L105.0925 120.43703ZM106.17062 120.56203Q106.17062 121.64015 106.60812 122.24953Q107.06125 122.8589 107.8425 122.8589Q108.87375 122.8589 109.35812 121.9214L109.35812 119.01515Q108.87375 118.12453 107.85812 118.12453Q107.06125 118.12453 106.60812 118.7339Q106.17062 119.34328 106.17062 120.56203ZM112.0925 120.43703Q112.0925 118.96828 112.78 118.09328Q113.4675 117.20265 114.5925 117.20265Q115.70187 117.20265 116.35812 117.95265L116.35812 114.65578L117.43625 114.65578L117.43625 123.65578L116.43625 123.65578L116.38937 122.96828Q115.73312 123.78078 114.57687 123.78078Q113.48312 123.78078 112.78 122.87453Q112.0925 121.96828 112.0925 120.51515L112.0925 120.43703ZM113.17062 120.56203Q113.17062 121.64015 113.60812 122.24953Q114.06125 122.8589 114.8425 122.8589Q115.87375 122.8589 116.35812 121.9214L116.35812 119.01515Q115.87375 118.12453 114.85812 118.12453Q114.06125 118.12453 113.60812 118.7339Q113.17062 119.34328 113.17062 120.56203ZM122.31125 120.18703Q122.31125 118.87453 122.655 117.65578Q123.01437 116.43703 123.7175 115.43703Q124.42062 114.43703 125.18625 114.03078L125.405 114.74953Q124.54562 115.40578 123.99875 116.74953Q123.45187 118.09328 123.405 119.76515L123.38937 120.26515Q123.38937 122.53078 124.2175 124.18703Q124.7175 125.18703 125.405 125.74953L125.18625 126.40578Q124.405 125.9839 123.68625 124.95265Q122.31125 122.96828 122.31125 120.18703ZM129.79562 123.65578L128.7175 123.65578L128.7175 116.43703L126.53 117.2339L126.53 116.24953L129.63937 115.07765L129.79562 115.07765L129.79562 123.65578ZM138.5925 120.01515Q138.5925 121.9214 137.93625 122.8589Q137.29562 123.78078 135.905 123.78078Q134.54562 123.78078 133.88937 122.87453Q133.23312 121.96828 133.20187 120.15578L133.20187 118.71828Q133.20187 116.82765 133.8425 115.9214Q134.49875 114.99953 135.88937 114.99953Q137.26437 114.99953 137.92062 115.89015Q138.57687 116.76515 138.5925 118.6089L138.5925 120.01515ZM137.49875 118.53078Q137.49875 117.15578 137.10812 116.53078Q136.73312 115.89015 135.88937 115.89015Q135.06125 115.89015 134.67062 116.53078Q134.29562 117.15578 134.29562 118.45265L134.29562 120.18703Q134.29562 121.56203 134.68625 122.2339Q135.0925 122.89015 135.905 122.89015Q136.70187 122.89015 137.0925 122.26515Q137.48312 121.64015 137.49875 120.31203L137.49875 118.53078ZM145.5925 120.01515Q145.5925 121.9214 144.93625 122.8589Q144.29562 123.78078 142.905 123.78078Q141.54562 123.78078 140.88937 122.87453Q140.23312 121.96828 140.20187 120.15578L140.20187 118.71828Q140.20187 116.82765 140.8425 115.9214Q141.49875 114.99953 142.88937 114.99953Q144.26437 114.99953 144.92062 115.89015Q145.57687 116.76515 145.5925 118.6089L145.5925 120.01515ZM144.49875 118.53078Q144.49875 117.15578 144.10812 116.53078Q143.73312 115.89015 142.88937 115.89015Q142.06125 115.89015 141.67062 116.53078Q141.29562 117.15578 141.29562 118.45265L141.29562 120.18703Q141.29562 121.56203 141.68625 122.2339Q142.0925 122.89015 142.905 122.89015Q143.70187 122.89015 144.0925 122.26515Q144.48312 121.64015 144.49875 120.31203L144.49875 118.53078ZM152.5925 120.01515Q152.5925 121.9214 151.93625 122.8589Q151.29562 123.78078 149.905 123.78078Q148.54562 123.78078 147.88937 122.87453Q147.23312 121.96828 147.20187 120.15578L147.20187 118.71828Q147.20187 116.82765 147.8425 115.9214Q148.49875 114.99953 149.88937 114.99953Q151.26437 114.99953 151.92062 115.89015Q152.57687 116.76515 152.5925 118.6089L152.5925 120.01515ZM151.49875 118.53078Q151.49875 117.15578 151.10812 116.53078Q150.73312 115.89015 149.88937 115.89015Q149.06125 115.89015 148.67062 116.53078Q148.29562 117.15578 148.29562 118.45265L148.29562 120.18703Q148.29562 121.56203 148.68625 122.2339Q149.0925 122.89015 149.905 122.89015Q150.70187 122.89015 151.0925 122.26515Q151.48312 121.64015 151.49875 120.31203L151.49875 118.53078ZM156.85812 120.24953Q156.85812 121.56203 156.51437 122.76515Q156.17062 123.95265 155.45187 124.96828Q154.74875 125.9839 153.98312 126.40578L153.74875 125.74953Q154.655 125.06203 155.20187 123.6089Q155.74875 122.14015 155.76437 120.37453L155.76437 120.18703Q155.76437 118.95265 155.49875 117.89015Q155.24875 116.82765 154.78 115.99953Q154.32687 115.15578 153.74875 114.68703L153.98312 114.03078Q154.74875 114.45265 155.45187 115.45265Q156.155 116.45265 156.49875 117.6714Q156.85812 118.87453 156.85812 120.24953Z" fill-rule="nonzero"/><path fill="#757575" d="M69.51437 162.00748L69.51437 153.47623L71.93625 153.47623Q73.04562 153.47623 73.88937 153.97623Q74.74875 154.4606 75.2175 155.36685Q75.68625 156.2731 75.68625 157.4606L75.68625 157.99185Q75.68625 159.2106 75.2175 160.11685Q74.76437 161.0231 73.88937 161.50748Q73.03 161.99185 71.88937 162.00748L69.51437 162.00748ZM70.63937 154.3981L70.63937 161.0856L71.82687 161.0856Q73.12375 161.0856 73.8425 160.28873Q74.57687 159.47623 74.57687 157.97623L74.57687 157.47623Q74.57687 156.0231 73.88937 155.22623Q73.2175 154.41373 71.95187 154.3981L70.63937 154.3981ZM78.53 162.00748L77.45187 162.00748L77.45187 155.66373L78.53 155.66373L78.53 162.00748ZM77.35812 153.99185Q77.35812 153.72623 77.51437 153.53873Q77.68625 153.35123 77.99875 153.35123Q78.31125 153.35123 78.4675 153.53873Q78.63937 153.72623 78.63937 153.99185Q78.63937 154.24185 78.4675 154.42935Q78.31125 154.60123 77.99875 154.60123Q77.68625 154.60123 77.51437 154.42935Q77.35812 154.24185 77.35812 153.99185ZM82.88937 161.24185Q83.4675 161.24185 83.905 160.8981Q84.3425 160.53873 84.38937 160.00748L85.42062 160.00748Q85.38937 160.55435 85.03 161.05435Q84.68625 161.53873 84.10812 161.8356Q83.54562 162.13248 82.88937 162.13248Q81.5925 162.13248 80.82687 161.2731Q80.07687 160.3981 80.07687 158.8981L80.07687 158.7106Q80.07687 157.78873 80.405 157.06998Q80.74875 156.35123 81.37375 155.9606Q82.01437 155.55435 82.88937 155.55435Q83.95187 155.55435 84.655 156.19498Q85.37375 156.81998 85.42062 157.85123L84.38937 157.85123Q84.3425 157.22623 83.92062 156.8356Q83.49875 156.44498 82.88937 156.44498Q82.06125 156.44498 81.60812 157.03873Q81.155 157.63248 81.155 158.75748L81.155 158.9606Q81.155 160.05435 81.60812 160.6481Q82.06125 161.24185 82.88937 161.24185ZM87.82687 154.13248L87.82687 155.66373L88.99875 155.66373L88.99875 156.50748L87.82687 156.50748L87.82687 160.42935Q87.82687 160.81998 87.98312 161.00748Q88.13937 161.19498 88.51437 161.19498Q88.70187 161.19498 89.03 161.13248L89.03 162.00748Q88.60812 162.13248 88.20187 162.13248Q87.48312 162.13248 87.10812 161.69498Q86.73312 161.24185 86.73312 160.42935L86.73312 156.50748L85.57687 156.50748L85.57687 155.66373L86.73312 155.66373L86.73312 154.13248L87.82687 154.13248ZM95.23312 159.7731L91.655 159.7731L90.85812 162.00748L89.70187 162.00748L92.95187 153.47623L93.93625 153.47623L97.20187 162.00748L96.04562 162.00748L95.23312 159.7731ZM91.99875 158.85123L94.905 158.85123L93.45187 154.86685L91.99875 158.85123ZM98.0925 158.78873Q98.0925 157.31998 98.78 156.44498Q99.4675 155.55435 100.5925 155.55435Q101.70187 155.55435 102.35812 156.30435L102.35812 153.00748L103.43625 153.00748L103.43625 162.00748L102.43625 162.00748L102.38937 161.31998Q101.73312 162.13248 100.57687 162.13248Q99.48312 162.13248 98.78 161.22623Q98.0925 160.31998 98.0925 158.86685L98.0925 158.78873ZM99.17062 158.91373Q99.17062 159.99185 99.60812 160.60123Q100.06125 161.2106 100.8425 161.2106Q101.87375 161.2106 102.35812 160.2731L102.35812 157.36685Q101.87375 156.47623 100.85812 156.47623Q100.06125 156.47623 99.60812 157.0856Q99.17062 157.69498 99.17062 158.91373ZM105.0925 158.78873Q105.0925 157.31998 105.78 156.44498Q106.4675 155.55435 107.5925 155.55435Q108.70187 155.55435 109.35812 156.30435L109.35812 153.00748L110.43625 153.00748L110.43625 162.00748L109.43625 162.00748L109.38937 161.31998Q108.73312 162.13248 107.57687 162.13248Q106.48312 162.13248 105.78 161.22623Q105.0925 160.31998 105.0925 158.86685L105.0925 158.78873ZM106.17062 158.91373Q106.17062 159.99185 106.60812 160.60123Q107.06125 161.2106 107.8425 161.2106Q108.87375 161.2106 109.35812 160.2731L109.35812 157.36685Q108.87375 156.47623 107.85812 156.47623Q107.06125 156.47623 106.60812 157.0856Q106.17062 157.69498 106.17062 158.91373ZM115.31125 158.53873Q115.31125 157.22623 115.655 156.00748Q116.01437 154.78873 116.7175 153.78873Q117.42062 152.78873 118.18625 152.38248L118.405 153.10123Q117.54562 153.75748 116.99875 155.10123Q116.45187 156.44498 116.405 158.11685L116.38937 158.61685Q116.38937 160.88248 117.2175 162.53873Q117.7175 163.53873 118.405 164.10123L118.18625 164.75748Q117.405 164.3356 116.68625 163.30435Q115.31125 161.31998 115.31125 158.53873ZM122.79562 162.00748L121.7175 162.00748L121.7175 154.78873L119.53 155.5856L119.53 154.60123L122.63937 153.42935L122.79562 153.42935L122.79562 162.00748ZM131.5925 158.36685Q131.5925 160.2731 130.93625 161.2106Q130.29562 162.13248 128.905 162.13248Q127.54562 162.13248 126.88937 161.22623Q126.23312 160.31998 126.20187 158.50748L126.20187 157.06998Q126.20187 155.17935 126.8425 154.2731Q127.49875 153.35123 128.88937 153.35123Q130.26437 153.35123 130.92062 154.24185Q131.57687 155.11685 131.5925 156.9606L131.5925 158.36685ZM130.49875 156.88248Q130.49875 155.50748 130.10812 154.88248Q129.73312 154.24185 128.88937 154.24185Q128.06125 154.24185 127.67062 154.88248Q127.29562 155.50748 127.29562 156.80435L127.29562 158.53873Q127.29562 159.91373 127.68625 160.5856Q128.0925 161.24185 128.905 161.24185Q129.70187 161.24185 130.0925 160.61685Q130.48312 159.99185 130.49875 158.66373L130.49875 156.88248ZM138.5925 158.36685Q138.5925 160.2731 137.93625 161.2106Q137.29562 162.13248 135.905 162.13248Q134.54562 162.13248 133.88937 161.22623Q133.23312 160.31998 133.20187 158.50748L133.20187 157.06998Q133.20187 155.17935 133.8425 154.2731Q134.49875 153.35123 135.88937 153.35123Q137.26437 153.35123 137.92062 154.24185Q138.57687 155.11685 138.5925 156.9606L138.5925 158.36685ZM137.49875 156.88248Q137.49875 155.50748 137.10812 154.88248Q136.73312 154.24185 135.88937 154.24185Q135.06125 154.24185 134.67062 154.88248Q134.29562 155.50748 134.29562 156.80435L134.29562 158.53873Q134.29562 159.91373 134.68625 160.5856Q135.0925 161.24185 135.905 161.24185Q136.70187 161.24185 137.0925 160.61685Q137.48312 159.99185 137.49875 158.66373L137.49875 156.88248ZM145.5925 158.36685Q145.5925 160.2731 144.93625 161.2106Q144.29562 162.13248 142.905 162.13248Q141.54562 162.13248 140.88937 161.22623Q140.23312 160.31998 140.20187 158.50748L140.20187 157.06998Q140.20187 155.17935 140.8425 154.2731Q141.49875 153.35123 142.88937 153.35123Q144.26437 153.35123 144.92062 154.24185Q145.57687 155.11685 145.5925 156.9606L145.5925 158.36685ZM144.49875 156.88248Q144.49875 155.50748 144.10812 154.88248Q143.73312 154.24185 142.88937 154.24185Q142.06125 154.24185 141.67062 154.88248Q141.29562 155.50748 141.29562 156.80435L141.29562 158.53873Q141.29562 159.91373 141.68625 160.5856Q142.0925 161.24185 142.905 161.24185Q143.70187 161.24185 144.0925 160.61685Q144.48312 159.99185 144.49875 158.66373L144.49875 156.88248ZM152.5925 158.36685Q152.5925 160.2731 151.93625 161.2106Q151.29562 162.13248 149.905 162.13248Q148.54562 162.13248 147.88937 161.22623Q147.23312 160.31998 147.20187 158.50748L147.20187 157.06998Q147.20187 155.17935 147.8425 154.2731Q148.49875 153.35123 149.88937 153.35123Q151.26437 153.35123 151.92062 154.24185Q152.57687 155.11685 152.5925 156.9606L152.5925 158.36685ZM151.49875 156.88248Q151.49875 155.50748 151.10812 154.88248Q150.73312 154.24185 149.88937 154.24185Q149.06125 154.24185 148.67062 154.88248Q148.29562 155.50748 148.29562 156.80435L148.29562 158.53873Q148.29562 159.91373 148.68625 160.5856Q149.0925 161.24185 149.905 161.24185Q150.70187 161.24185 151.0925 160.61685Q151.48312 159.99185 151.49875 158.66373L151.49875 156.88248ZM156.85812 158.60123Q156.85812 159.91373 156.51437 161.11685Q156.17062 162.30435 155.45187 163.31998Q154.74875 164.3356 153.98312 164.75748L153.74875 164.10123Q154.655 163.41373 155.20187 161.9606Q155.74875 160.49185 155.76437 158.72623L155.76437 158.53873Q155.76437 157.30435 155.49875 156.24185Q155.24875 155.17935 154.78 154.35123Q154.32687 153.50748 153.74875 153.03873L153.98312 152.38248Q154.74875 152.80435 155.45187 153.80435Q156.155 154.80435 156.49875 156.0231Q156.85812 157.22623 156.85812 158.60123Z" fill-rule="nonzero"/><path fill="#757575" d="M99.63937 189.51544L99.63937 192.85919L98.51437 192.85919L98.51437 184.32794L101.67062 184.32794Q103.06125 184.32794 103.85812 185.04669Q104.655 185.74982 104.655 186.93732Q104.655 188.17169 103.87375 188.84357Q103.10812 189.51544 101.655 189.51544L99.63937 189.51544ZM99.63937 188.59357L101.67062 188.59357Q102.57687 188.59357 103.04562 188.17169Q103.53 187.74982 103.53 186.95294Q103.53 186.18732 103.04562 185.73419Q102.57687 185.26544 101.73312 185.24982L99.63937 185.24982L99.63937 188.59357ZM106.06125 189.62482Q106.06125 188.70294 106.42062 187.95294Q106.79562 187.20294 107.45187 186.81232Q108.10812 186.40607 108.93625 186.40607Q110.23312 186.40607 111.03 187.29669Q111.8425 188.18732 111.8425 189.68732L111.8425 189.76544Q111.8425 190.68732 111.48312 191.42169Q111.12375 192.15607 110.4675 192.57794Q109.81125 192.98419 108.95187 192.98419Q107.67062 192.98419 106.85812 192.09357Q106.06125 191.18732 106.06125 189.70294L106.06125 189.62482ZM107.155 189.76544Q107.155 190.81232 107.63937 191.45294Q108.13937 192.09357 108.95187 192.09357Q109.78 192.09357 110.26437 191.45294Q110.74875 190.79669 110.74875 189.62482Q110.74875 188.59357 110.24875 187.95294Q109.76437 187.29669 108.93625 187.29669Q108.13937 187.29669 107.63937 187.93732Q107.155 188.56232 107.155 189.76544ZM113.06125 189.62482Q113.06125 188.70294 113.42062 187.95294Q113.79562 187.20294 114.45187 186.81232Q115.10812 186.40607 115.93625 186.40607Q117.23312 186.40607 118.03 187.29669Q118.8425 188.18732 118.8425 189.68732L118.8425 189.76544Q118.8425 190.68732 118.48312 191.42169Q118.12375 192.15607 117.4675 192.57794Q116.81125 192.98419 115.95187 192.98419Q114.67062 192.98419 113.85812 192.09357Q113.06125 191.18732 113.06125 189.70294L113.06125 189.62482ZM114.155 189.76544Q114.155 190.81232 114.63937 191.45294Q115.13937 192.09357 115.95187 192.09357Q116.78 192.09357 117.26437 191.45294Q117.74875 190.79669 117.74875 189.62482Q117.74875 188.59357 117.24875 187.95294Q116.76437 187.29669 115.93625 187.29669Q115.13937 187.29669 114.63937 187.93732Q114.155 188.56232 114.155 189.76544ZM121.53 192.85919L120.45187 192.85919L120.45187 183.85919L121.53 183.85919L121.53 192.85919ZM125.98312 192.98419Q124.68625 192.98419 123.87375 192.14044Q123.07687 191.28107 123.07687 189.85919L123.07687 189.67169Q123.07687 188.71857 123.43625 187.98419Q123.79562 187.23419 124.43625 186.82794Q125.0925 186.40607 125.8425 186.40607Q127.07687 186.40607 127.76437 187.21857Q128.45187 188.03107 128.45187 189.54669L128.45187 189.99982L124.155 189.99982Q124.18625 190.93732 124.70187 191.51544Q125.23312 192.09357 126.04562 192.09357Q126.60812 192.09357 126.99875 191.85919Q127.405 191.62482 127.7175 191.23419L128.37375 191.74982Q127.57687 192.98419 125.98312 192.98419ZM125.8425 187.29669Q125.18625 187.29669 124.73312 187.78107Q124.29562 188.24982 124.20187 189.10919L127.37375 189.10919L127.37375 189.03107Q127.32687 188.20294 126.92062 187.74982Q126.53 187.29669 125.8425 187.29669ZM129.0925 189.64044Q129.0925 188.17169 129.78 187.29669Q130.4675 186.40607 131.5925 186.40607Q132.70187 186.40607 133.35812 187.15607L133.35812 183.85919L134.43625 183.85919L134.43625 192.85919L133.43625 192.85919L133.38937 192.17169Q132.73312 192.98419 131.57687 192.98419Q130.48312 192.98419 129.78 192.07794Q129.0925 191.17169 129.0925 189.71857L129.0925 189.64044ZM130.17062 189.76544Q130.17062 190.84357 130.60812 191.45294Q131.06125 192.06232 131.8425 192.06232Q132.87375 192.06232 133.35812 191.12482L133.35812 188.21857Q132.87375 187.32794 131.85812 187.32794Q131.06125 187.32794 130.60812 187.93732Q130.17062 188.54669 130.17062 189.76544ZM141.23312 190.62482L137.655 190.62482L136.85812 192.85919L135.70187 192.85919L138.95187 184.32794L139.93625 184.32794L143.20187 192.85919L142.04562 192.85919L141.23312 190.62482ZM137.99875 189.70294L140.905 189.70294L139.45187 185.71857L137.99875 189.70294ZM144.0925 189.64044Q144.0925 188.17169 144.78 187.29669Q145.4675 186.40607 146.5925 186.40607Q147.70187 186.40607 148.35812 187.15607L148.35812 183.85919L149.43625 183.85919L149.43625 192.85919L148.43625 192.85919L148.38937 192.17169Q147.73312 192.98419 146.57687 192.98419Q145.48312 192.98419 144.78 192.07794Q144.0925 191.17169 144.0925 189.71857L144.0925 189.64044ZM145.17062 189.76544Q145.17062 190.84357 145.60812 191.45294Q146.06125 192.06232 146.8425 192.06232Q147.87375 192.06232 148.35812 191.12482L148.35812 188.21857Q147.87375 187.32794 146.85812 187.32794Q146.06125 187.32794 145.60812 187.93732Q145.17062 188.54669 145.17062 189.76544ZM151.0925 189.64044Q151.0925 188.17169 151.78 187.29669Q152.4675 186.40607 153.5925 186.40607Q154.70187 186.40607 155.35812 187.15607L155.35812 183.85919L156.43625 183.85919L156.43625 192.85919L155.43625 192.85919L155.38937 192.17169Q154.73312 192.98419 153.57687 192.98419Q152.48312 192.98419 151.78 192.07794Q151.0925 191.17169 151.0925 189.71857L151.0925 189.64044ZM152.17062 189.76544Q152.17062 190.84357 152.60812 191.45294Q153.06125 192.06232 153.8425 192.06232Q154.87375 192.06232 155.35812 191.12482L155.35812 188.21857Q154.87375 187.32794 153.85812 187.32794Q153.06125 187.32794 152.60812 187.93732Q152.17062 188.54669 152.17062 189.76544Z" fill-rule="nonzero"/><path fill="#757575" d="M115.31125 204.39044Q115.31125 203.07794 115.655 201.85919Q116.01437 200.64044 116.7175 199.64044Q117.42062 198.64044 118.18625 198.23419L118.405 198.95294Q117.54562 199.60919 116.99875 200.95294Q116.45187 202.29669 116.405 203.96857L116.38937 204.46857Q116.38937 206.73419 117.2175 208.39044Q117.7175 209.39044 118.405 209.95294L118.18625 210.60919Q117.405 210.18732 116.68625 209.15607Q115.31125 207.17169 115.31125 204.39044ZM122.79562 207.85919L121.7175 207.85919L121.7175 200.64044L119.53 201.43732L119.53 200.45294L122.63937 199.28107L122.79562 199.28107L122.79562 207.85919ZM131.5925 204.21857Q131.5925 206.12482 130.93625 207.06232Q130.29562 207.98419 128.905 207.98419Q127.54562 207.98419 126.88937 207.07794Q126.23312 206.17169 126.20187 204.35919L126.20187 202.92169Q126.20187 201.03107 126.8425 200.12482Q127.49875 199.20294 128.88937 199.20294Q130.26437 199.20294 130.92062 200.09357Q131.57687 200.96857 131.5925 202.81232L131.5925 204.21857ZM130.49875 202.73419Q130.49875 201.35919 130.10812 200.73419Q129.73312 200.09357 128.88937 200.09357Q128.06125 200.09357 127.67062 200.73419Q127.29562 201.35919 127.29562 202.65607L127.29562 204.39044Q127.29562 205.76544 127.68625 206.43732Q128.0925 207.09357 128.905 207.09357Q129.70187 207.09357 130.0925 206.46857Q130.48312 205.84357 130.49875 204.51544L130.49875 202.73419ZM138.5925 204.21857Q138.5925 206.12482 137.93625 207.06232Q137.29562 207.98419 135.905 207.98419Q134.54562 207.98419 133.88937 207.07794Q133.23312 206.17169 133.20187 204.35919L133.20187 202.92169Q133.20187 201.03107 133.8425 200.12482Q134.49875 199.20294 135.88937 199.20294Q137.26437 199.20294 137.92062 200.09357Q138.57687 200.96857 138.5925 202.81232L138.5925 204.21857ZM137.49875 202.73419Q137.49875 201.35919 137.10812 200.73419Q136.73312 200.09357 135.88937 200.09357Q135.06125 200.09357 134.67062 200.73419Q134.29562 201.35919 134.29562 202.65607L134.29562 204.39044Q134.29562 205.76544 134.68625 206.43732Q135.0925 207.09357 135.905 207.09357Q136.70187 207.09357 137.0925 206.46857Q137.48312 205.84357 137.49875 204.51544L137.49875 202.73419ZM145.5925 204.21857Q145.5925 206.12482 144.93625 207.06232Q144.29562 207.98419 142.905 207.98419Q141.54562 207.98419 140.88937 207.07794Q140.23312 206.17169 140.20187 204.35919L140.20187 202.92169Q140.20187 201.03107 140.8425 200.12482Q141.49875 199.20294 142.88937 199.20294Q144.26437 199.20294 144.92062 200.09357Q145.57687 200.96857 145.5925 202.81232L145.5925 204.21857ZM144.49875 202.73419Q144.49875 201.35919 144.10812 200.73419Q143.73312 200.09357 142.88937 200.09357Q142.06125 200.09357 141.67062 200.73419Q141.29562 201.35919 141.29562 202.65607L141.29562 204.39044Q141.29562 205.76544 141.68625 206.43732Q142.0925 207.09357 142.905 207.09357Q143.70187 207.09357 144.0925 206.46857Q144.48312 205.84357 144.49875 204.51544L144.49875 202.73419ZM152.5925 204.21857Q152.5925 206.12482 151.93625 207.06232Q151.29562 207.98419 149.905 207.98419Q148.54562 207.98419 147.88937 207.07794Q147.23312 206.17169 147.20187 204.35919L147.20187 202.92169Q147.20187 201.03107 147.8425 200.12482Q148.49875 199.20294 149.88937 199.20294Q151.26437 199.20294 151.92062 200.09357Q152.57687 200.96857 152.5925 202.81232L152.5925 204.21857ZM151.49875 202.73419Q151.49875 201.35919 151.10812 200.73419Q150.73312 200.09357 149.88937 200.09357Q149.06125 200.09357 148.67062 200.73419Q148.29562 201.35919 148.29562 202.65607L148.29562 204.39044Q148.29562 205.76544 148.68625 206.43732Q149.0925 207.09357 149.905 207.09357Q150.70187 207.09357 151.0925 206.46857Q151.48312 205.84357 151.49875 204.51544L151.49875 202.73419ZM156.85812 204.45294Q156.85812 205.76544 156.51437 206.96857Q156.17062 208.15607 155.45187 209.17169Q154.74875 210.18732 153.98312 210.60919L153.74875 209.95294Q154.655 209.26544 155.20187 207.81232Q155.74875 206.34357 155.76437 204.57794L155.76437 204.39044Q155.76437 203.15607 155.49875 202.09357Q155.24875 201.03107 154.78 200.20294Q154.32687 199.35919 153.74875 198.89044L153.98312 198.23419Q154.74875 198.65607 155.45187 199.65607Q156.155 200.65607 156.49875 201.87482Q156.85812 203.07794 156.85812 204.45294Z" fill-rule="nonzero"/><path fill="#757575" d="M62.514374 238.71089L62.514374 230.17964L64.93625 230.17964Q66.04562 230.17964 66.88937 230.67964Q67.74875 231.16402 68.2175 232.07027Q68.68625 232.97652 68.68625 234.16402L68.68625 234.69527Q68.68625 235.91402 68.2175 236.82027Q67.76437 237.72652 66.88937 238.21089Q66.03 238.69527 64.88937 238.71089L62.514374 238.71089ZM63.639374 231.10152L63.639374 237.78902L64.82687 237.78902Q66.12375 237.78902 66.8425 236.99214Q67.57687 236.17964 67.57687 234.67964L67.57687 234.17964Q67.57687 232.72652 66.88937 231.92964Q66.2175 231.11714 64.95187 231.10152L63.639374 231.10152ZM71.53 238.71089L70.45187 238.71089L70.45187 232.36714L71.53 232.36714L71.53 238.71089ZM70.35812 230.69527Q70.35812 230.42964 70.51437 230.24214Q70.68625 230.05464 70.99875 230.05464Q71.31125 230.05464 71.4675 230.24214Q71.63937 230.42964 71.63937 230.69527Q71.63937 230.94527 71.4675 231.13277Q71.31125 231.30464 70.99875 231.30464Q70.68625 231.30464 70.51437 231.13277Q70.35812 230.94527 70.35812 230.69527ZM75.88937 237.94527Q76.4675 237.94527 76.905 237.60152Q77.3425 237.24214 77.38937 236.71089L78.42062 236.71089Q78.38937 237.25777 78.03 237.75777Q77.68625 238.24214 77.10812 238.53902Q76.54562 238.83589 75.88937 238.83589Q74.5925 238.83589 73.82687 237.97652Q73.07687 237.10152 73.07687 235.60152L73.07687 235.41402Q73.07687 234.49214 73.405 233.77339Q73.74875 233.05464 74.37375 232.66402Q75.01437 232.25777 75.88937 232.25777Q76.95187 232.25777 77.655 232.89839Q78.37375 233.52339 78.42062 234.55464L77.38937 234.55464Q77.3425 233.92964 76.92062 233.53902Q76.49875 233.14839 75.88937 233.14839Q75.06125 233.14839 74.60812 233.74214Q74.155 234.33589 74.155 235.46089L74.155 235.66402Q74.155 236.75777 74.60812 237.35152Q75.06125 237.94527 75.88937 237.94527ZM80.82687 230.83589L80.82687 232.36714L81.99875 232.36714L81.99875 233.21089L80.82687 233.21089L80.82687 237.13277Q80.82687 237.52339 80.98312 237.71089Q81.13937 237.89839 81.51437 237.89839Q81.70187 237.89839 82.03 237.83589L82.03 238.71089Q81.60812 238.83589 81.20187 238.83589Q80.48312 238.83589 80.10812 238.39839Q79.73312 237.94527 79.73312 237.13277L79.73312 233.21089L78.57687 233.21089L78.57687 232.36714L79.73312 232.36714L79.73312 230.83589L80.82687 230.83589ZM88.23312 236.47652L84.655 236.47652L83.85812 238.71089L82.70187 238.71089L85.95187 230.17964L86.93625 230.17964L90.20187 238.71089L89.04562 238.71089L88.23312 236.47652ZM84.99875 235.55464L87.905 235.55464L86.45187 231.57027L84.99875 235.55464ZM91.0925 235.49214Q91.0925 234.02339 91.78 233.14839Q92.4675 232.25777 93.5925 232.25777Q94.70187 232.25777 95.35812 233.00777L95.35812 229.71089L96.43625 229.71089L96.43625 238.71089L95.43625 238.71089L95.38937 238.02339Q94.73312 238.83589 93.57687 238.83589Q92.48312 238.83589 91.78 237.92964Q91.0925 237.02339 91.0925 235.57027L91.0925 235.49214ZM92.17062 235.61714Q92.17062 236.69527 92.60812 237.30464Q93.06125 237.91402 93.8425 237.91402Q94.87375 237.91402 95.35812 236.97652L95.35812 234.07027Q94.87375 233.17964 93.85812 233.17964Q93.06125 233.17964 92.60812 233.78902Q92.17062 234.39839 92.17062 235.61714ZM98.0925 235.49214Q98.0925 234.02339 98.78 233.14839Q99.4675 232.25777 100.5925 232.25777Q101.70187 232.25777 102.35812 233.00777L102.35812 229.71089L103.43625 229.71089L103.43625 238.71089L102.43625 238.71089L102.38937 238.02339Q101.73312 238.83589 100.57687 238.83589Q99.48312 238.83589 98.78 237.92964Q98.0925 237.02339 98.0925 235.57027L98.0925 235.49214ZM99.17062 235.61714Q99.17062 236.69527 99.60812 237.30464Q100.06125 237.91402 100.8425 237.91402Q101.87375 237.91402 102.35812 236.97652L102.35812 234.07027Q101.87375 233.17964 100.85812 233.17964Q100.06125 233.17964 99.60812 233.78902Q99.17062 234.39839 99.17062 235.61714ZM108.31125 235.24214Q108.31125 233.92964 108.655 232.71089Q109.01437 231.49214 109.7175 230.49214Q110.42062 229.49214 111.18625 229.08589L111.405 229.80464Q110.54562 230.46089 109.99875 231.80464Q109.45187 233.14839 109.405 234.82027L109.38937 235.32027Q109.38937 237.58589 110.2175 239.24214Q110.7175 240.24214 111.405 240.80464L111.18625 241.46089Q110.405 241.03902 109.68625 240.00777Q108.31125 238.02339 108.31125 235.24214ZM115.79562 238.71089L114.7175 238.71089L114.7175 231.49214L112.53 232.28902L112.53 231.30464L115.63937 230.13277L115.79562 230.13277L115.79562 238.71089ZM124.5925 235.07027Q124.5925 236.97652 123.93625 237.91402Q123.29562 238.83589 121.905 238.83589Q120.54562 238.83589 119.88937 237.92964Q119.23312 237.02339 119.20187 235.21089L119.20187 233.77339Q119.20187 231.88277 119.8425 230.97652Q120.49875 230.05464 121.88937 230.05464Q123.26437 230.05464 123.92062 230.94527Q124.57687 231.82027 124.5925 233.66402L124.5925 235.07027ZM123.49875 233.58589Q123.49875 232.21089 123.10812 231.58589Q122.73312 230.94527 121.88937 230.94527Q121.06125 230.94527 120.67062 231.58589Q120.29562 232.21089 120.29562 233.50777L120.29562 235.24214Q120.29562 236.61714 120.68625 237.28902Q121.0925 237.94527 121.905 237.94527Q122.70187 237.94527 123.0925 237.32027Q123.48312 236.69527 123.49875 235.36714L123.49875 233.58589ZM131.5925 235.07027Q131.5925 236.97652 130.93625 237.91402Q130.29562 238.83589 128.905 238.83589Q127.54562 238.83589 126.88937 237.92964Q126.23312 237.02339 126.20187 235.21089L126.20187 233.77339Q126.20187 231.88277 126.8425 230.97652Q127.49875 230.05464 128.88937 230.05464Q130.26437 230.05464 130.92062 230.94527Q131.57687 231.82027 131.5925 233.66402L131.5925 235.07027ZM130.49875 233.58589Q130.49875 232.21089 130.10812 231.58589Q129.73312 230.94527 128.88937 230.94527Q128.06125 230.94527 127.67062 231.58589Q127.29562 232.21089 127.29562 233.50777L127.29562 235.24214Q127.29562 236.61714 127.68625 237.28902Q128.0925 237.94527 128.905 237.94527Q129.70187 237.94527 130.0925 237.32027Q130.48312 236.69527 130.49875 235.36714L130.49875 233.58589ZM138.5925 235.07027Q138.5925 236.97652 137.93625 237.91402Q137.29562 238.83589 135.905 238.83589Q134.54562 238.83589 133.88937 237.92964Q133.23312 237.02339 133.20187 235.21089L133.20187 233.77339Q133.20187 231.88277 133.8425 230.97652Q134.49875 230.05464 135.88937 230.05464Q137.26437 230.05464 137.92062 230.94527Q138.57687 231.82027 138.5925 233.66402L138.5925 235.07027ZM137.49875 233.58589Q137.49875 232.21089 137.10812 231.58589Q136.73312 230.94527 135.88937 230.94527Q135.06125 230.94527 134.67062 231.58589Q134.29562 232.21089 134.29562 233.50777L134.29562 235.24214Q134.29562 236.61714 134.68625 237.28902Q135.0925 237.94527 135.905 237.94527Q136.70187 237.94527 137.0925 237.32027Q137.48312 236.69527 137.49875 235.36714L137.49875 233.58589ZM145.5925 235.07027Q145.5925 236.97652 144.93625 237.91402Q144.29562 238.83589 142.905 238.83589Q141.54562 238.83589 140.88937 237.92964Q140.23312 237.02339 140.20187 235.21089L140.20187 233.77339Q140.20187 231.88277 140.8425 230.97652Q141.49875 230.05464 142.88937 230.05464Q144.26437 230.05464 144.92062 230.94527Q145.57687 231.82027 145.5925 233.66402L145.5925 235.07027ZM144.49875 233.58589Q144.49875 232.21089 144.10812 231.58589Q143.73312 230.94527 142.88937 230.94527Q142.06125 230.94527 141.67062 231.58589Q141.29562 232.21089 141.29562 233.50777L141.29562 235.24214Q141.29562 236.61714 141.68625 237.28902Q142.0925 237.94527 142.905 237.94527Q143.70187 237.94527 144.0925 237.32027Q144.48312 236.69527 144.49875 235.36714L144.49875 233.58589ZM152.5925 235.07027Q152.5925 236.97652 151.93625 237.91402Q151.29562 238.83589 149.905 238.83589Q148.54562 238.83589 147.88937 237.92964Q147.23312 237.02339 147.20187 235.21089L147.20187 233.77339Q147.20187 231.88277 147.8425 230.97652Q148.49875 230.05464 149.88937 230.05464Q151.26437 230.05464 151.92062 230.94527Q152.57687 231.82027 152.5925 233.66402L152.5925 235.07027ZM151.49875 233.58589Q151.49875 232.21089 151.10812 231.58589Q150.73312 230.94527 149.88937 230.94527Q149.06125 230.94527 148.67062 231.58589Q148.29562 232.21089 148.29562 233.50777L148.29562 235.24214Q148.29562 236.61714 148.68625 237.28902Q149.0925 237.94527 149.905 237.94527Q150.70187 237.94527 151.0925 237.32027Q151.48312 236.69527 151.49875 235.36714L151.49875 233.58589ZM156.85812 235.30464Q156.85812 236.61714 156.51437 237.82027Q156.17062 239.00777 155.45187 240.02339Q154.74875 241.03902 153.98312 241.46089L153.74875 240.80464Q154.655 240.11714 155.20187 238.66402Q155.74875 237.19527 155.76437 235.42964L155.76437 235.24214Q155.76437 234.00777 155.49875 232.94527Q155.24875 231.88277 154.78 231.05464Q154.32687 230.21089 153.74875 229.74214L153.98312 229.08589Q154.74875 229.50777 155.45187 230.50777Q156.155 231.50777 156.49875 232.72652Q156.85812 233.92964 156.85812 235.30464Z" fill-rule="nonzero"/><path fill="#757575" d="M99.63937 266.21884L99.63937 269.5626L98.51437 269.5626L98.51437 261.03134L101.67062 261.03134Q103.06125 261.03134 103.85812 261.7501Q104.655 262.45322 104.655 263.64072Q104.655 264.8751 103.87375 265.54697Q103.10812 266.21884 101.655 266.21884L99.63937 266.21884ZM99.63937 265.29697L101.67062 265.29697Q102.57687 265.29697 103.04562 264.8751Q103.53 264.45322 103.53 263.65634Q103.53 262.89072 103.04562 262.4376Q102.57687 261.96884 101.73312 261.95322L99.63937 261.95322L99.63937 265.29697ZM106.06125 266.32822Q106.06125 265.40634 106.42062 264.65634Q106.79562 263.90634 107.45187 263.51572Q108.10812 263.10947 108.93625 263.10947Q110.23312 263.10947 111.03 264.0001Q111.8425 264.89072 111.8425 266.39072L111.8425 266.46884Q111.8425 267.39072 111.48312 268.1251Q111.12375 268.85947 110.4675 269.28134Q109.81125 269.6876 108.95187 269.6876Q107.67062 269.6876 106.85812 268.79697Q106.06125 267.89072 106.06125 266.40634L106.06125 266.32822ZM107.155 266.46884Q107.155 267.51572 107.63937 268.15634Q108.13937 268.79697 108.95187 268.79697Q109.78 268.79697 110.26437 268.15634Q110.74875 267.5001 110.74875 266.32822Q110.74875 265.29697 110.24875 264.65634Q109.76437 264.0001 108.93625 264.0001Q108.13937 264.0001 107.63937 264.64072Q107.155 265.26572 107.155 266.46884ZM113.06125 266.32822Q113.06125 265.40634 113.42062 264.65634Q113.79562 263.90634 114.45187 263.51572Q115.10812 263.10947 115.93625 263.10947Q117.23312 263.10947 118.03 264.0001Q118.8425 264.89072 118.8425 266.39072L118.8425 266.46884Q118.8425 267.39072 118.48312 268.1251Q118.12375 268.85947 117.4675 269.28134Q116.81125 269.6876 115.95187 269.6876Q114.67062 269.6876 113.85812 268.79697Q113.06125 267.89072 113.06125 266.40634L113.06125 266.32822ZM114.155 266.46884Q114.155 267.51572 114.63937 268.15634Q115.13937 268.79697 115.95187 268.79697Q116.78 268.79697 117.26437 268.15634Q117.74875 267.5001 117.74875 266.32822Q117.74875 265.29697 117.24875 264.65634Q116.76437 264.0001 115.93625 264.0001Q115.13937 264.0001 114.63937 264.64072Q114.155 265.26572 114.155 266.46884ZM121.53 269.5626L120.45187 269.5626L120.45187 260.5626L121.53 260.5626L121.53 269.5626ZM125.98312 269.6876Q124.68625 269.6876 123.87375 268.84384Q123.07687 267.98447 123.07687 266.5626L123.07687 266.3751Q123.07687 265.42197 123.43625 264.6876Q123.79562 263.9376 124.43625 263.53134Q125.0925 263.10947 125.8425 263.10947Q127.07687 263.10947 127.76437 263.92197Q128.45187 264.73447 128.45187 266.2501L128.45187 266.70322L124.155 266.70322Q124.18625 267.64072 124.70187 268.21884Q125.23312 268.79697 126.04562 268.79697Q126.60812 268.79697 126.99875 268.5626Q127.405 268.32822 127.7175 267.9376L128.37375 268.45322Q127.57687 269.6876 125.98312 269.6876ZM125.8425 264.0001Q125.18625 264.0001 124.73312 264.48447Q124.29562 264.95322 124.20187 265.8126L127.37375 265.8126L127.37375 265.73447Q127.32687 264.90634 126.92062 264.45322Q126.53 264.0001 125.8425 264.0001ZM129.0925 266.34384Q129.0925 264.8751 129.78 264.0001Q130.4675 263.10947 131.5925 263.10947Q132.70187 263.10947 133.35812 263.85947L133.35812 260.5626L134.43625 260.5626L134.43625 269.5626L133.43625 269.5626L133.38937 268.8751Q132.73312 269.6876 131.57687 269.6876Q130.48312 269.6876 129.78 268.78134Q129.0925 267.8751 129.0925 266.42197L129.0925 266.34384ZM130.17062 266.46884Q130.17062 267.54697 130.60812 268.15634Q131.06125 268.76572 131.8425 268.76572Q132.87375 268.76572 133.35812 267.82822L133.35812 264.92197Q132.87375 264.03134 131.85812 264.03134Q131.06125 264.03134 130.60812 264.64072Q130.17062 265.2501 130.17062 266.46884ZM141.23312 267.32822L137.655 267.32822L136.85812 269.5626L135.70187 269.5626L138.95187 261.03134L139.93625 261.03134L143.20187 269.5626L142.04562 269.5626L141.23312 267.32822ZM137.99875 266.40634L140.905 266.40634L139.45187 262.42197L137.99875 266.40634ZM144.0925 266.34384Q144.0925 264.8751 144.78 264.0001Q145.4675 263.10947 146.5925 263.10947Q147.70187 263.10947 148.35812 263.85947L148.35812 260.5626L149.43625 260.5626L149.43625 269.5626L148.43625 269.5626L148.38937 268.8751Q147.73312 269.6876 146.57687 269.6876Q145.48312 269.6876 144.78 268.78134Q144.0925 267.8751 144.0925 266.42197L144.0925 266.34384ZM145.17062 266.46884Q145.17062 267.54697 145.60812 268.15634Q146.06125 268.76572 146.8425 268.76572Q147.87375 268.76572 148.35812 267.82822L148.35812 264.92197Q147.87375 264.03134 146.85812 264.03134Q146.06125 264.03134 145.60812 264.64072Q145.17062 265.2501 145.17062 266.46884ZM151.0925 266.34384Q151.0925 264.8751 151.78 264.0001Q152.4675 263.10947 153.5925 263.10947Q154.70187 263.10947 155.35812 263.85947L155.35812 260.5626L156.43625 260.5626L156.43625 269.5626L155.43625 269.5626L155.38937 268.8751Q154.73312 269.6876 153.57687 269.6876Q152.48312 269.6876 151.78 268.78134Q151.0925 267.8751 151.0925 266.42197L151.0925 266.34384ZM152.17062 266.46884Q152.17062 267.54697 152.60812 268.15634Q153.06125 268.76572 153.8425 268.76572Q154.87375 268.76572 155.35812 267.82822L155.35812 264.92197Q154.87375 264.03134 153.85812 264.03134Q153.06125 264.03134 152.60812 264.64072Q152.17062 265.2501 152.17062 266.46884Z" fill-rule="nonzero"/><path fill="#757575" d="M108.31125 281.09384Q108.31125 279.78134 108.655 278.5626Q109.01437 277.34384 109.7175 276.34384Q110.42062 275.34384 111.18625 274.9376L111.405 275.65634Q110.54562 276.3126 109.99875 277.65634Q109.45187 279.0001 109.405 280.67197L109.38937 281.17197Q109.38937 283.4376 110.2175 285.09384Q110.7175 286.09384 111.405 286.65634L111.18625 287.3126Q110.405 286.89072 109.68625 285.85947Q108.31125 283.8751 108.31125 281.09384ZM115.79562 284.5626L114.7175 284.5626L114.7175 277.34384L112.53 278.14072L112.53 277.15634L115.63937 275.98447L115.79562 275.98447L115.79562 284.5626ZM124.5925 280.92197Q124.5925 282.82822 123.93625 283.76572Q123.29562 284.6876 121.905 284.6876Q120.54562 284.6876 119.88937 283.78134Q119.23312 282.8751 119.20187 281.0626L119.20187 279.6251Q119.20187 277.73447 119.8425 276.82822Q120.49875 275.90634 121.88937 275.90634Q123.26437 275.90634 123.92062 276.79697Q124.57687 277.67197 124.5925 279.51572L124.5925 280.92197ZM123.49875 279.4376Q123.49875 278.0626 123.10812 277.4376Q122.73312 276.79697 121.88937 276.79697Q121.06125 276.79697 120.67062 277.4376Q120.29562 278.0626 120.29562 279.35947L120.29562 281.09384Q120.29562 282.46884 120.68625 283.14072Q121.0925 283.79697 121.905 283.79697Q122.70187 283.79697 123.0925 283.17197Q123.48312 282.54697 123.49875 281.21884L123.49875 279.4376ZM131.5925 280.92197Q131.5925 282.82822 130.93625 283.76572Q130.29562 284.6876 128.905 284.6876Q127.54562 284.6876 126.88937 283.78134Q126.23312 282.8751 126.20187 281.0626L126.20187 279.6251Q126.20187 277.73447 126.8425 276.82822Q127.49875 275.90634 128.88937 275.90634Q130.26437 275.90634 130.92062 276.79697Q131.57687 277.67197 131.5925 279.51572L131.5925 280.92197ZM130.49875 279.4376Q130.49875 278.0626 130.10812 277.4376Q129.73312 276.79697 128.88937 276.79697Q128.06125 276.79697 127.67062 277.4376Q127.29562 278.0626 127.29562 279.35947L127.29562 281.09384Q127.29562 282.46884 127.68625 283.14072Q128.0925 283.79697 128.905 283.79697Q129.70187 283.79697 130.0925 283.17197Q130.48312 282.54697 130.49875 281.21884L130.49875 279.4376ZM138.5925 280.92197Q138.5925 282.82822 137.93625 283.76572Q137.29562 284.6876 135.905 284.6876Q134.54562 284.6876 133.88937 283.78134Q133.23312 282.8751 133.20187 281.0626L133.20187 279.6251Q133.20187 277.73447 133.8425 276.82822Q134.49875 275.90634 135.88937 275.90634Q137.26437 275.90634 137.92062 276.79697Q138.57687 277.67197 138.5925 279.51572L138.5925 280.92197ZM137.49875 279.4376Q137.49875 278.0626 137.10812 277.4376Q136.73312 276.79697 135.88937 276.79697Q135.06125 276.79697 134.67062 277.4376Q134.29562 278.0626 134.29562 279.35947L134.29562 281.09384Q134.29562 282.46884 134.68625 283.14072Q135.0925 283.79697 135.905 283.79697Q136.70187 283.79697 137.0925 283.17197Q137.48312 282.54697 137.49875 281.21884L137.49875 279.4376ZM145.5925 280.92197Q145.5925 282.82822 144.93625 283.76572Q144.29562 284.6876 142.905 284.6876Q141.54562 284.6876 140.88937 283.78134Q140.23312 282.8751 140.20187 281.0626L140.20187 279.6251Q140.20187 277.73447 140.8425 276.82822Q141.49875 275.90634 142.88937 275.90634Q144.26437 275.90634 144.92062 276.79697Q145.57687 277.67197 145.5925 279.51572L145.5925 280.92197ZM144.49875 279.4376Q144.49875 278.0626 144.10812 277.4376Q143.73312 276.79697 142.88937 276.79697Q142.06125 276.79697 141.67062 277.4376Q141.29562 278.0626 141.29562 279.35947L141.29562 281.09384Q141.29562 282.46884 141.68625 283.14072Q142.0925 283.79697 142.905 283.79697Q143.70187 283.79697 144.0925 283.17197Q144.48312 282.54697 144.49875 281.21884L144.49875 279.4376ZM152.5925 280.92197Q152.5925 282.82822 151.93625 283.76572Q151.29562 284.6876 149.905 284.6876Q148.54562 284.6876 147.88937 283.78134Q147.23312 282.8751 147.20187 281.0626L147.20187 279.6251Q147.20187 277.73447 147.8425 276.82822Q148.49875 275.90634 149.88937 275.90634Q151.26437 275.90634 151.92062 276.79697Q152.57687 277.67197 152.5925 279.51572L152.5925 280.92197ZM151.49875 279.4376Q151.49875 278.0626 151.10812 277.4376Q150.73312 276.79697 149.88937 276.79697Q149.06125 276.79697 148.67062 277.4376Q148.29562 278.0626 148.29562 279.35947L148.29562 281.09384Q148.29562 282.46884 148.68625 283.14072Q149.0925 283.79697 149.905 283.79697Q150.70187 283.79697 151.0925 283.17197Q151.48312 282.54697 151.49875 281.21884L151.49875 279.4376ZM156.85812 281.15634Q156.85812 282.46884 156.51437 283.67197Q156.17062 284.85947 155.45187 285.8751Q154.74875 286.89072 153.98312 287.3126L153.74875 286.65634Q154.655 285.96884 155.20187 284.51572Q155.74875 283.04697 155.76437 281.28134L155.76437 281.09384Q155.76437 279.85947 155.49875 278.79697Q155.24875 277.73447 154.78 276.90634Q154.32687 276.0626 153.74875 275.59384L153.98312 274.9376Q154.74875 275.35947 155.45187 276.35947Q156.155 277.35947 156.49875 278.57822Q156.85812 279.78134 156.85812 281.15634Z" fill-rule="nonzero"/><path fill="#757575" d="M166.0925 312.8094Q166.0925 314.71564 165.43625 315.65314Q164.79562 316.575 163.405 316.575Q162.04562 316.575 161.38937 315.66876Q160.73312 314.7625 160.70187 312.95L160.70187 311.5125Q160.70187 309.6219 161.3425 308.71564Q161.99875 307.79376 163.38937 307.79376Q164.76437 307.79376 165.42062 308.6844Q166.07687 309.5594 166.0925 311.40314L166.0925 312.8094ZM164.99875 311.325Q164.99875 309.95 164.60812 309.325Q164.23312 308.6844 163.38937 308.6844Q162.56125 308.6844 162.17062 309.325Q161.79562 309.95 161.79562 311.2469L161.79562 312.98126Q161.79562 314.35626 162.18625 315.02814Q162.5925 315.6844 163.405 315.6844Q164.20187 315.6844 164.5925 315.0594Q164.98312 314.4344 164.99875 313.10626L164.99875 311.325Z" fill-rule="nonzero"/><path fill="#757575" d="M300.5398 312.16876L300.9773 307.91876L305.3523 307.91876L305.3523 308.91876L301.89917 308.91876L301.63354 311.2469Q302.27417 310.8719 303.07104 310.8719Q304.2273 310.8719 304.9148 311.65314Q305.6023 312.41876 305.6023 313.73126Q305.6023 315.04376 304.88354 315.8094Q304.18042 316.575 302.89917 316.575Q301.77417 316.575 301.05542 315.95Q300.33667 315.3094 300.24292 314.2L301.25854 314.2Q301.36792 314.9344 301.7898 315.3094Q302.21167 315.6844 302.89917 315.6844Q303.64917 315.6844 304.08667 315.16876Q304.52417 314.65314 304.52417 313.7469Q304.52417 312.8875 304.05542 312.3719Q303.58667 311.85626 302.80542 311.85626Q302.1023 311.85626 301.69604 312.15314L301.4148 312.3875L300.5398 312.16876Z" fill-rule="nonzero"/><path fill="#757575" d="M439.40897 316.45L438.33084 316.45L438.33084 309.23126L436.14334 310.02814L436.14334 309.04376L439.25272 307.8719L439.40897 307.8719L439.40897 316.45ZM448.20584 312.8094Q448.20584 314.71564 447.5496 315.65314Q446.90897 316.575 445.51834 316.575Q444.15897 316.575 443.50272 315.66876Q442.84647 314.7625 442.81522 312.95L442.81522 311.5125Q442.81522 309.6219 443.45584 308.71564Q444.1121 307.79376 445.50272 307.79376Q446.87772 307.79376 447.53397 308.6844Q448.19022 309.5594 448.20584 311.40314L448.20584 312.8094ZM447.1121 311.325Q447.1121 309.95 446.72147 309.325Q446.34647 308.6844 445.50272 308.6844Q444.6746 308.6844 444.28397 309.325Q443.90897 309.95 443.90897 311.2469L443.90897 312.98126Q443.90897 314.35626 444.2996 315.02814Q444.70584 315.6844 445.51834 315.6844Q446.31522 315.6844 446.70584 315.0594Q447.09647 314.4344 447.1121 313.10626L447.1121 311.325Z" fill-rule="nonzero"/><path fill="#757575" d="M578.71564 316.45L577.6375 316.45L577.6375 309.23126L575.45 310.02814L575.45 309.04376L578.5594 307.8719L578.71564 307.8719L578.71564 316.45ZM582.65314 312.16876L583.09064 307.91876L587.46564 307.91876L587.46564 308.91876L584.0125 308.91876L583.7469 311.2469Q584.3875 310.8719 585.1844 310.8719Q586.34064 310.8719 587.02814 311.65314Q587.71564 312.41876 587.71564 313.73126Q587.71564 315.04376 586.9969 315.8094Q586.29376 316.575 585.0125 316.575Q583.8875 316.575 583.16876 315.95Q582.45 315.3094 582.35626 314.2L583.3719 314.2Q583.48126 314.9344 583.90314 315.3094Q584.325 315.6844 585.0125 315.6844Q585.7625 315.6844 586.2 315.16876Q586.6375 314.65314 586.6375 313.7469Q586.6375 312.8875 586.16876 312.3719Q585.7 311.85626 584.91876 311.85626Q584.21564 311.85626 583.8094 312.15314L583.52814 312.3875L582.65314 312.16876Z" fill-rule="nonzero"/><path fill="#757575" d="M28.05 33.83125L22.096874 33.83125L20.753124 37.55L18.83125 37.55L24.253124 23.33125L25.89375 23.33125L31.33125 37.55L29.409374 37.55L28.05 33.83125ZM22.659374 32.3L27.503124 32.3L25.08125 25.64375L22.659374 32.3ZM34.878124 37.55L33.08125 37.55L33.08125 22.55L34.878124 22.55L34.878124 37.55ZM39.878124 37.55L38.08125 37.55L38.08125 22.55L39.878124 22.55L39.878124 37.55ZM42.440624 32.175Q42.440624 30.6125 43.05 29.378124Q43.659374 28.128124 44.7375 27.45625Q45.83125 26.784374 47.2375 26.784374Q49.39375 26.784374 50.721874 28.284374Q52.065624 29.76875 52.065624 32.253124L52.065624 32.378124Q52.065624 33.925 51.471874 35.159374Q50.878124 36.378124 49.76875 37.065624Q48.675 37.753124 47.253124 37.753124Q45.1125 37.753124 43.76875 36.253124Q42.440624 34.753124 42.440624 32.3L42.440624 32.175ZM44.253124 32.378124Q44.253124 34.14375 45.065624 35.20625Q45.89375 36.26875 47.253124 36.26875Q48.628124 36.26875 49.440624 35.190624Q50.253124 34.1125 50.253124 32.175Q50.253124 30.425 49.425 29.346874Q48.596874 28.26875 47.2375 28.26875Q45.89375 28.26875 45.065624 29.33125Q44.253124 30.39375 44.253124 32.378124ZM58.159374 36.26875Q59.128124 36.26875 59.846874 35.690624Q60.565624 35.096874 60.64375 34.221874L62.3625 34.221874Q62.3 35.128124 61.721874 35.95625Q61.159374 36.76875 60.190624 37.26875Q59.2375 37.753124 58.159374 37.753124Q56.003124 37.753124 54.721874 36.315624Q53.45625 34.8625 53.45625 32.3625L53.45625 32.065624Q53.45625 30.51875 54.01875 29.315624Q54.58125 28.1125 55.64375 27.45625Q56.70625 26.784374 58.14375 26.784374Q59.925 26.784374 61.096874 27.846874Q62.284374 28.909374 62.3625 30.6125L60.64375 30.6125Q60.565624 29.596874 59.8625 28.940624Q59.175 28.26875 58.14375 28.26875Q56.76875 28.26875 56.003124 29.26875Q55.253124 30.253124 55.253124 32.128124L55.253124 32.471874Q55.253124 34.3 56.003124 35.284374Q56.753124 36.26875 58.159374 36.26875ZM70.44063 37.55Q70.28438 37.2375 70.19063 36.440624Q68.925 37.753124 67.175 37.753124Q65.6125 37.753124 64.6125 36.8625Q63.6125 35.971874 63.6125 34.6125Q63.6125 32.971874 64.8625 32.065624Q66.12813 31.14375 68.39375 31.14375L70.15938 31.14375L70.15938 30.315624Q70.15938 29.3625 69.58125 28.8Q69.01875 28.2375 67.925 28.2375Q66.95625 28.2375 66.3 28.7375Q65.64375 29.221874 65.64375 29.909374L63.83125 29.909374Q63.83125 29.128124 64.39375 28.39375Q64.95625 27.64375 65.90938 27.221874Q66.87813 26.784374 68.03438 26.784374Q69.8625 26.784374 70.89375 27.70625Q71.925 28.6125 71.97188 30.221874L71.97188 35.08125Q71.97188 36.534374 72.33125 37.39375L72.33125 37.55L70.44063 37.55ZM67.44063 36.175Q68.3 36.175 69.05 35.7375Q69.81563 35.3 70.15938 34.596874L70.15938 32.425L68.7375 32.425Q65.425 32.425 65.425 34.3625Q65.425 35.221874 65.9875 35.70625Q66.55 36.175 67.44063 36.175ZM77.3625 24.425L77.3625 26.9875L79.34688 26.9875L79.34688 28.378124L77.3625 28.378124L77.3625 34.925Q77.3625 35.565624 77.62813 35.89375Q77.89375 36.20625 78.53438 36.20625Q78.84688 36.20625 79.39375 36.08125L79.39375 37.55Q78.675 37.753124 78.00313 37.753124Q76.8 37.753124 76.175 37.01875Q75.56563 36.284374 75.56563 34.925L75.56563 28.378124L73.64375 28.378124L73.64375 26.9875L75.56563 26.9875L75.56563 24.425L77.3625 24.425ZM86.3 37.753124Q84.15938 37.753124 82.8 36.346874Q81.45625 34.925 81.45625 32.565624L81.45625 32.221874Q81.45625 30.659374 82.05 29.425Q82.65938 28.190624 83.7375 27.4875Q84.81563 26.784374 86.08125 26.784374Q88.14375 26.784374 89.28438 28.14375Q90.425 29.503124 90.425 32.034374L90.425 32.784374L83.26875 32.784374Q83.3 34.346874 84.175 35.315624Q85.05 36.26875 86.39375 36.26875Q87.3625 36.26875 88.01875 35.878124Q88.69063 35.4875 89.19063 34.846874L90.28438 35.70625Q88.95625 37.753124 86.3 37.753124ZM86.08125 28.26875Q84.9875 28.26875 84.2375 29.065624Q83.50313 29.8625 83.33125 31.3L88.6125 31.3L88.6125 31.159374Q88.53438 29.784374 87.8625 29.034374Q87.20625 28.26875 86.08125 28.26875ZM92.47188 32.175Q92.47188 29.753124 93.62813 28.26875Q94.78438 26.784374 96.64375 26.784374Q98.50313 26.784374 99.58125 28.05L99.58125 22.55L101.39375 22.55L101.39375 37.55L99.7375 37.55L99.64375 36.409374Q98.56563 37.753124 96.62813 37.753124Q94.8 37.753124 93.62813 36.253124Q92.47188 34.7375 92.47188 32.315624L92.47188 32.175ZM94.28438 32.378124Q94.28438 34.175 95.01875 35.190624Q95.76875 36.20625 97.08125 36.20625Q98.8 36.20625 99.58125 34.675L99.58125 29.815624Q98.78438 28.315624 97.09688 28.315624Q95.76875 28.315624 95.01875 29.346874Q94.28438 30.378124 94.28438 32.378124ZM111.62813 23.33125L116.26875 34.925L120.925 23.33125L123.34688 23.33125L123.34688 37.55L121.47188 37.55L121.47188 32.01875L121.65938 26.034374L116.9875 37.55L115.55 37.55L110.89375 26.065624L111.08125 32.01875L111.08125 37.55L109.20625 37.55L109.20625 23.33125L111.62813 23.33125ZM130.3 37.753124Q128.15938 37.753124 126.8 36.346874Q125.45625 34.925 125.45625 32.565624L125.45625 32.221874Q125.45625 30.659374 126.05 29.425Q126.65938 28.190624 127.7375 27.4875Q128.81563 26.784374 130.08125 26.784374Q132.14375 26.784374 133.28438 28.14375Q134.425 29.503124 134.425 32.034374L134.425 32.784374L127.26875 32.784374Q127.3 34.346874 128.175 35.315624Q129.05 36.26875 130.39375 36.26875Q131.3625 36.26875 132.01875 35.878124Q132.69063 35.4875 133.19063 34.846874L134.28438 35.70625Q132.95625 37.753124 130.3 37.753124ZM130.08125 28.26875Q128.9875 28.26875 128.2375 29.065624Q127.50313 29.8625 127.33125 31.3L132.6125 31.3L132.6125 31.159374Q132.53438 29.784374 131.8625 29.034374Q131.20625 28.26875 130.08125 28.26875ZM138.6125 26.9875L138.65938 28.159374Q139.83125 26.784374 141.8 26.784374Q144.01875 26.784374 144.81563 28.4875Q145.34688 27.721874 146.19063 27.253124Q147.03438 26.784374 148.19063 26.784374Q151.65938 26.784374 151.72188 30.471874L151.72188 37.55L149.90938 37.55L149.90938 30.58125Q149.90938 29.440624 149.39375 28.878124Q148.87813 28.315624 147.65938 28.315624Q146.65938 28.315624 145.9875 28.925Q145.33125 29.51875 145.22188 30.534374L145.22188 37.55L143.40938 37.55L143.40938 30.628124Q143.40938 28.315624 141.14375 28.315624Q139.3625 28.315624 138.72188 29.83125L138.72188 37.55L136.90938 37.55L136.90938 26.9875L138.6125 26.9875ZM154.44063 32.175Q154.44063 30.6125 155.05 29.378124Q155.65938 28.128124 156.7375 27.45625Q157.83125 26.784374 159.2375 26.784374Q161.39375 26.784374 162.72188 28.284374Q164.06563 29.76875 164.06563 32.253124L164.06563 32.378124Q164.06563 33.925 163.47188 35.159374Q162.87813 36.378124 161.76875 37.065624Q160.675 37.753124 159.25313 37.753124Q157.1125 37.753124 155.76875 36.253124Q154.44063 34.753124 154.44063 32.3L154.44063 32.175ZM156.25313 32.378124Q156.25313 34.14375 157.06563 35.20625Q157.89375 36.26875 159.25313 36.26875Q160.62813 36.26875 161.44063 35.190624Q162.25313 34.1125 162.25313 32.175Q162.25313 30.425 161.425 29.346874Q160.59688 28.26875 159.2375 28.26875Q157.89375 28.26875 157.06563 29.33125Q156.25313 30.39375 156.25313 32.378124ZM171.01875 28.596874Q170.6125 28.534374 170.14375 28.534374Q168.3625 28.534374 167.72188 30.05L167.72188 37.55L165.925 37.55L165.925 26.9875L167.675 26.9875L167.70625 28.20625Q168.59688 26.784374 170.22188 26.784374Q170.75313 26.784374 171.01875 26.925L171.01875 28.596874ZM176.37813 34.909374L178.83125 26.9875L180.76875 26.9875L176.51875 39.175Q175.53438 41.815624 173.39375 41.815624L173.05 41.784374L172.37813 41.659374L172.37813 40.190624L172.8625 40.2375Q173.78438 40.2375 174.28438 39.8625Q174.8 39.4875 175.12813 38.503124L175.53438 37.425L171.76875 26.9875L173.7375 26.9875L176.37813 34.909374ZM182.28438 38.76875L180.72188 38.76875L186.65938 23.33125L188.20625 23.33125L182.28438 38.76875ZM201.14375 30.89375Q201.14375 32.9875 200.44063 34.55Q199.7375 36.096874 198.44063 36.925Q197.15938 37.753124 195.44063 37.753124Q193.75313 37.753124 192.45625 36.925Q191.15938 36.096874 190.44063 34.565624Q189.72188 33.034374 189.70625 31.01875L189.70625 30.003124Q189.70625 27.95625 190.40938 26.378124Q191.12813 24.8 192.425 23.971874Q193.7375 23.128124 195.40938 23.128124Q197.12813 23.128124 198.425 23.95625Q199.7375 24.784374 200.44063 26.3625Q201.14375 27.925 201.14375 30.003124L201.14375 30.89375ZM199.26875 29.9875Q199.26875 27.45625 198.25313 26.1125Q197.2375 24.753124 195.40938 24.753124Q193.64375 24.753124 192.6125 26.1125Q191.59688 27.45625 191.56563 29.846874L191.56563 30.89375Q191.56563 33.346874 192.59688 34.753124Q193.62813 36.159374 195.44063 36.159374Q197.25313 36.159374 198.2375 34.83125Q199.2375 33.503124 199.26875 31.034374L199.26875 29.9875ZM212.84688 32.378124Q212.84688 34.8 211.7375 36.284374Q210.64375 37.753124 208.75313 37.753124Q206.83125 37.753124 205.72188 36.51875L205.72188 41.6125L203.925 41.6125L203.925 26.9875L205.56563 26.9875L205.65938 28.159374Q206.75313 26.784374 208.72188 26.784374Q210.62813 26.784374 211.7375 28.221874Q212.84688 29.659374 212.84688 32.221874L212.84688 32.378124ZM211.03438 32.175Q211.03438 30.39375 210.26875 29.3625Q209.51875 28.315624 208.19063 28.315624Q206.55 28.315624 205.72188 29.76875L205.72188 34.83125Q206.53438 36.26875 208.20625 36.26875Q209.50313 36.26875 210.26875 35.2375Q211.03438 34.20625 211.03438 32.175ZM219.84688 31.784374Q219.84688 29.565624 220.44063 27.534374Q221.03438 25.503124 222.20625 23.846874Q223.37813 22.190624 224.62813 21.503124L225.00313 22.690624Q223.58125 23.784374 222.65938 26.034374Q221.75313 28.284374 221.65938 31.065624L221.65938 31.89375Q221.65938 35.659374 223.03438 38.440624Q223.8625 40.096874 225.00313 41.034374L224.62813 42.14375Q223.33125 41.425 222.15938 39.721874Q219.84688 36.39375 219.84688 31.784374ZM229.62813 23.33125L234.26875 34.925L238.925 23.33125L241.34688 23.33125L241.34688 37.55L239.47188 37.55L239.47188 32.01875L239.65938 26.034374L234.9875 37.55L233.55 37.55L228.89375 26.065624L229.08125 32.01875L229.08125 37.55L227.20625 37.55L227.20625 23.33125L229.62813 23.33125ZM244.20625 37.55L244.20625 23.33125L248.84688 23.33125Q251.15938 23.33125 252.33125 24.284374Q253.50313 25.2375 253.50313 27.1125Q253.50313 28.1125 252.925 28.878124Q252.3625 29.64375 251.39375 30.065624Q252.53438 30.39375 253.20625 31.3Q253.87813 32.190624 253.87813 33.440624Q253.87813 35.3625 252.62813 36.45625Q251.39375 37.55 249.12813 37.55L244.20625 37.55ZM246.08125 30.89375L246.08125 36.01875L249.175 36.01875Q250.4875 36.01875 251.2375 35.346874Q251.9875 34.659374 251.9875 33.471874Q251.9875 30.89375 249.20625 30.89375L246.08125 30.89375ZM246.08125 29.39375L248.90938 29.39375Q250.14375 29.39375 250.87813 28.784374Q251.6125 28.159374 251.6125 27.1125Q251.6125 25.940624 250.925 25.409374Q250.25313 24.878124 248.84688 24.878124L246.08125 24.878124L246.08125 29.39375ZM260.08124 31.878124Q260.08124 34.05 259.5031 36.05Q258.9406 38.05 257.76874 39.7375Q256.59686 41.425 255.3 42.14375L254.925 41.034374Q256.425 39.878124 257.33124 37.45625Q258.2531 35.034374 258.26874 32.065624L258.26874 31.753124Q258.26874 29.70625 257.83124 27.940624Q257.40936 26.175 256.64374 24.784374Q255.87813 23.39375 254.925 22.6125L255.3 21.503124Q256.59686 22.221874 257.7531 23.89375Q258.925 25.55 259.5031 27.565624Q260.08124 29.58125 260.08124 31.878124ZM271.40936 35.096874L274.01874 26.9875L275.8625 26.9875L272.08124 37.55L270.70624 37.55L266.8781 26.9875L268.72186 26.9875L271.40936 35.096874ZM284.0656 34.753124Q284.0656 34.01875 283.51874 33.6125Q282.97186 33.20625 281.59686 32.909374Q280.22186 32.6125 279.40936 32.20625Q278.6125 31.8 278.22186 31.2375Q277.84686 30.659374 277.84686 29.878124Q277.84686 28.58125 278.9406 27.690624Q280.03436 26.784374 281.7531 26.784374Q283.55 26.784374 284.65936 27.721874Q285.78436 28.64375 285.78436 30.08125L283.95624 30.08125Q283.95624 29.346874 283.33124 28.815624Q282.70624 28.26875 281.7531 28.26875Q280.7531 28.26875 280.1906 28.70625Q279.64374 29.128124 279.64374 29.83125Q279.64374 30.471874 280.15936 30.815624Q280.675 31.14375 282.03436 31.45625Q283.39374 31.753124 284.22186 32.175Q285.0656 32.58125 285.47186 33.175Q285.8781 33.76875 285.8781 34.6125Q285.8781 36.034374 284.7375 36.89375Q283.6125 37.753124 281.8 37.753124Q280.53436 37.753124 279.55 37.3Q278.58124 36.846874 278.01874 36.05Q277.47186 35.2375 277.47186 34.3L279.28436 34.3Q279.33124 35.20625 280.0031 35.7375Q280.6906 36.26875 281.8 36.26875Q282.83124 36.26875 283.4406 35.8625Q284.0656 35.440624 284.0656 34.753124ZM287.95624 36.596874Q287.95624 36.128124 288.2375 35.815624Q288.51874 35.503124 289.0656 35.503124Q289.6281 35.503124 289.90936 35.815624Q290.20624 36.128124 290.20624 36.596874Q290.20624 37.05 289.90936 37.3625Q289.6281 37.659374 289.0656 37.659374Q288.51874 37.659374 288.2375 37.3625Q287.95624 37.05 287.95624 36.596874ZM298.20624 37.55L298.20624 23.33125L302.84686 23.33125Q305.15936 23.33125 306.33124 24.284374Q307.5031 25.2375 307.5031 27.1125Q307.5031 28.1125 306.925 28.878124Q306.3625 29.64375 305.39374 30.065624Q306.53436 30.39375 307.20624 31.3Q307.8781 32.190624 307.8781 33.440624Q307.8781 35.3625 306.6281 36.45625Q305.39374 37.55 303.1281 37.55L298.20624 37.55ZM300.08124 30.89375L300.08124 36.01875L303.175 36.01875Q304.4875 36.01875 305.2375 35.346874Q305.9875 34.659374 305.9875 33.471874Q305.9875 30.89375 303.20624 30.89375L300.08124 30.89375ZM300.08124 29.39375L302.90936 29.39375Q304.14374 29.39375 304.8781 28.784374Q305.6125 28.159374 305.6125 27.1125Q305.6125 25.940624 304.925 25.409374Q304.2531 24.878124 302.84686 24.878124L300.08124 24.878124L300.08124 29.39375ZM314.3 37.753124Q312.15936 37.753124 310.8 36.346874Q309.45624 34.925 309.45624 32.565624L309.45624 32.221874Q309.45624 30.659374 310.05 29.425Q310.65936 28.190624 311.7375 27.4875Q312.8156 26.784374 314.08124 26.784374Q316.14374 26.784374 317.28436 28.14375Q318.425 29.503124 318.425 32.034374L318.425 32.784374L311.26874 32.784374Q311.3 34.346874 312.175 35.315624Q313.05 36.26875 314.39374 36.26875Q315.3625 36.26875 316.01874 35.878124Q316.6906 35.4875 317.1906 34.846874L318.28436 35.70625Q316.95624 37.753124 314.3 37.753124ZM314.08124 28.26875Q312.9875 28.26875 312.2375 29.065624Q311.5031 29.8625 311.33124 31.3L316.6125 31.3L316.6125 31.159374Q316.53436 29.784374 315.8625 29.034374Q315.20624 28.26875 314.08124 28.26875ZM322.6281 26.9875L322.6906 28.315624Q323.89374 26.784374 325.84686 26.784374Q329.20624 26.784374 329.22186 30.565624L329.22186 37.55L327.425 37.55L327.425 30.55Q327.40936 29.409374 326.89374 28.8625Q326.39374 28.315624 325.3 28.315624Q324.425 28.315624 323.7531 28.784374Q323.09686 29.253124 322.72186 30.01875L322.72186 37.55L320.925 37.55L320.925 26.9875L322.6281 26.9875ZM336.15936 36.26875Q337.1281 36.26875 337.84686 35.690624Q338.5656 35.096874 338.64374 34.221874L340.3625 34.221874Q340.3 35.128124 339.72186 35.95625Q339.15936 36.76875 338.1906 37.26875Q337.2375 37.753124 336.15936 37.753124Q334.0031 37.753124 332.72186 36.315624Q331.45624 34.8625 331.45624 32.3625L331.45624 32.065624Q331.45624 30.51875 332.01874 29.315624Q332.58124 28.1125 333.64374 27.45625Q334.70624 26.784374 336.14374 26.784374Q337.925 26.784374 339.09686 27.846874Q340.28436 28.909374 340.3625 30.6125L338.64374 30.6125Q338.5656 29.596874 337.8625 28.940624Q337.175 28.26875 336.14374 28.26875Q334.76874 28.26875 334.0031 29.26875Q333.2531 30.253124 333.2531 32.128124L333.2531 32.471874Q333.2531 34.3 334.0031 35.284374Q334.7531 36.26875 336.15936 36.26875ZM343.72186 28.26875Q344.925 26.784374 346.84686 26.784374Q350.20624 26.784374 350.22186 30.565624L350.22186 37.55L348.425 37.55L348.425 30.55Q348.40936 29.409374 347.89374 28.8625Q347.39374 28.315624 346.3 28.315624Q345.425 28.315624 344.7531 28.784374Q344.09686 29.253124 343.72186 30.01875L343.72186 37.55L341.925 37.55L341.925 22.55L343.72186 22.55L343.72186 28.26875ZM354.6125 26.9875L354.65936 28.159374Q355.83124 26.784374 357.8 26.784374Q360.01874 26.784374 360.8156 28.4875Q361.34686 27.721874 362.1906 27.253124Q363.03436 26.784374 364.1906 26.784374Q367.65936 26.784374 367.72186 30.471874L367.72186 37.55L365.90936 37.55L365.90936 30.58125Q365.90936 29.440624 365.39374 28.878124Q364.8781 28.315624 363.65936 28.315624Q362.65936 28.315624 361.9875 28.925Q361.33124 29.51875 361.22186 30.534374L361.22186 37.55L359.40936 37.55L359.40936 30.628124Q359.40936 28.315624 357.14374 28.315624Q355.3625 28.315624 354.72186 29.83125L354.72186 37.55L352.90936 37.55L352.90936 26.9875L354.6125 26.9875ZM377.4406 37.55Q377.28436 37.2375 377.1906 36.440624Q375.925 37.753124 374.175 37.753124Q372.6125 37.753124 371.6125 36.8625Q370.6125 35.971874 370.6125 34.6125Q370.6125 32.971874 371.8625 32.065624Q373.1281 31.14375 375.39374 31.14375L377.15936 31.14375L377.15936 30.315624Q377.15936 29.3625 376.58124 28.8Q376.01874 28.2375 374.925 28.2375Q373.95624 28.2375 373.3 28.7375Q372.64374 29.221874 372.64374 29.909374L370.83124 29.909374Q370.83124 29.128124 371.39374 28.39375Q371.95624 27.64375 372.90936 27.221874Q373.8781 26.784374 375.03436 26.784374Q376.8625 26.784374 377.89374 27.70625Q378.925 28.6125 378.97186 30.221874L378.97186 35.08125Q378.97186 36.534374 379.33124 37.39375L379.33124 37.55L377.4406 37.55ZM374.4406 36.175Q375.3 36.175 376.05 35.7375Q376.8156 35.3 377.15936 34.596874L377.15936 32.425L375.7375 32.425Q372.425 32.425 372.425 34.3625Q372.425 35.221874 372.9875 35.70625Q373.55 36.175 374.4406 36.175ZM387.01874 28.596874Q386.6125 28.534374 386.14374 28.534374Q384.3625 28.534374 383.72186 30.05L383.72186 37.55L381.925 37.55L381.925 26.9875L383.675 26.9875L383.70624 28.20625Q384.59686 26.784374 386.22186 26.784374Q386.7531 26.784374 387.01874 26.925L387.01874 28.596874ZM391.8625 32.659374L390.7375 33.83125L390.7375 37.55L388.925 37.55L388.925 22.55L390.7375 22.55L390.7375 31.628124L391.70624 30.45625L394.9875 26.9875L397.1906 26.9875L393.08124 31.39375L397.675 37.55L395.55 37.55L391.8625 32.659374Z" fill-rule="nonzero"/></svg>