<svg version="1.1" viewBox="0.0 0.0 600.0 371.0" fill="none" stroke="none" stroke-linecap="square" stroke-miterlimit="10" width="600" height="371" xmlns:xlink="http://www.w3.org/1999/xlink" xmlns="http://www.w3.org/2000/svg"><path fill="#ffffff" d="M0 0L600.0 0L600.0 371.0L0 371.0L0 0Z" fill-rule="nonzero"/><path fill="#ffffff" d="M0 0L600.0 0L600.0 371.0L0 371.0L0 0Z" fill-rule="nonzero"/><path stroke="#333333" stroke-width="1.0" stroke-linecap="butt" d="M163.5 54.5L163.5 298.5" fill-rule="nonzero"/><path stroke="#cccccc" stroke-width="1.0" stroke-linecap="butt" d="M233.5 54.5L233.5 298.5" fill-rule="nonzero"/><path stroke="#cccccc" stroke-width="1.0" stroke-linecap="butt" d="M302.5 54.5L302.5 298.5" fill-rule="nonzero"/><path stroke="#cccccc" stroke-width="1.0" stroke-linecap="butt" d="M372.5 54.5L372.5 298.5" fill-rule="nonzero"/><path stroke="#cccccc" stroke-width="1.0" stroke-linecap="butt" d="M442.5 54.5L442.5 298.5" fill-rule="nonzero"/><path stroke="#cccccc" stroke-width="1.0" stroke-linecap="butt" d="M511.5 54.5L511.5 298.5" fill-rule="nonzero"/><path stroke="#cccccc" stroke-width="1.0" stroke-linecap="butt" d="M581.5 54.5L581.5 298.5" fill-rule="nonzero"/><clipPath id="id_0"><path d="M163.53 54.916668L581.45 54.916668L581.45 298.45L163.53 298.45L163.53 54.916668Z" clip-rule="nonzero"/></clipPath><path stroke="#000000" stroke-width="0.0" stroke-linecap="butt" stroke-opacity="0.0" clip-path="url(#id_0)" d="M164.0 94.0L164.0 69.0L370.0 69.0C371.10458 69.0 372.0 69.89543 372.0 71.0L372.0 92.0C372.0 93.10457 371.10458 94.0 370.0 94.0Z" fill-rule="nonzero"/><path fill="#4285f4" clip-path="url(#id_0)" d="M164.0 94.0L164.0 69.0L370.0 69.0C371.10458 69.0 372.0 69.89543 372.0 71.0L372.0 92.0C372.0 93.10457 371.10458 94.0 370.0 94.0Z" fill-rule="nonzero"/><path stroke="#000000" stroke-width="0.0" stroke-linecap="butt" stroke-opacity="0.0" clip-path="url(#id_0)" d="M164.0 132.0L164.0 107.0L290.0 107.0C291.10458 107.0 292.0 107.89543 292.0 109.0L292.0 130.0C292.0 131.10457 291.10458 132.0 290.0 132.0Z" fill-rule="nonzero"/><path fill="#4285f4" clip-path="url(#id_0)" d="M164.0 132.0L164.0 107.0L290.0 107.0C291.10458 107.0 292.0 107.89543 292.0 109.0L292.0 130.0C292.0 131.10457 291.10458 132.0 290.0 132.0Z" fill-rule="nonzero"/><path stroke="#000000" stroke-width="0.0" stroke-linecap="butt" stroke-opacity="0.0" clip-path="url(#id_0)" d="M164.0 171.0L164.0 146.0L509.0 146.0C510.10458 146.0 511.0 146.89543 511.0 148.0L511.0 169.0C511.0 170.10457 510.10458 171.0 509.0 171.0Z" fill-rule="nonzero"/><path fill="#4285f4" clip-path="url(#id_0)" d="M164.0 171.0L164.0 146.0L509.0 146.0C510.10458 146.0 511.0 146.89543 511.0 148.0L511.0 169.0C511.0 170.10457 510.10458 171.0 509.0 171.0Z" fill-rule="nonzero"/><path stroke="#000000" stroke-width="0.0" stroke-linecap="butt" stroke-opacity="0.0" clip-path="url(#id_0)" d="M164.0 209.0L164.0 184.0L333.0 184.0C334.10458 184.0 335.0 184.89543 335.0 186.0L335.0 207.0C335.0 208.10457 334.10458 209.0 333.0 209.0Z" fill-rule="nonzero"/><path fill="#4285f4" clip-path="url(#id_0)" d="M164.0 209.0L164.0 184.0L333.0 184.0C334.10458 184.0 335.0 184.89543 335.0 186.0L335.0 207.0C335.0 208.10457 334.10458 209.0 333.0 209.0Z" fill-rule="nonzero"/><path stroke="#000000" stroke-width="0.0" stroke-linecap="butt" stroke-opacity="0.0" clip-path="url(#id_0)" d="M164.0 247.0L164.0 222.0L563.0 222.0C564.10455 222.0 565.0 222.89543 565.0 224.0L565.0 245.0C565.0 246.10457 564.10455 247.0 563.0 247.0Z" fill-rule="nonzero"/><path fill="#4285f4" clip-path="url(#id_0)" d="M164.0 247.0L164.0 222.0L563.0 222.0C564.10455 222.0 565.0 222.89543 565.0 224.0L565.0 245.0C565.0 246.10457 564.10455 247.0 563.0 247.0Z" fill-rule="nonzero"/><path stroke="#000000" stroke-width="0.0" stroke-linecap="butt" stroke-opacity="0.0" clip-path="url(#id_0)" d="M164.0 286.0L164.0 261.0L418.0 261.0C419.10458 261.0 420.0 261.89542 420.0 263.0L420.0 284.0C420.0 285.10458 419.10458 286.0 418.0 286.0Z" fill-rule="nonzero"/><path fill="#4285f4" clip-path="url(#id_0)" d="M164.0 286.0L164.0 261.0L418.0 261.0C419.10458 261.0 420.0 261.89542 420.0 263.0L420.0 284.0C420.0 285.10458 419.10458 286.0 418.0 286.0Z" fill-rule="nonzero"/><path fill="#424242" d="M331.4275 340.91876L334.22437 347.8719L337.0056 340.91876L338.47437 340.91876L338.47437 349.45L337.34937 349.45L337.34937 346.1219L337.45874 342.54376L334.64624 349.45L333.78687 349.45L330.99 342.5594L331.09937 346.1219L331.09937 349.45L329.97437 349.45L329.97437 340.91876L331.4275 340.91876ZM340.99 349.45L339.91187 349.45L339.91187 343.10626L340.99 343.10626L340.99 349.45ZM339.8181 341.4344Q339.8181 341.16876 339.97437 340.98126Q340.14624 340.79376 340.45874 340.79376Q340.77124 340.79376 340.9275 340.98126Q341.09937 341.16876 341.09937 341.4344Q341.09937 341.6844 340.9275 341.8719Q340.77124 342.04376 340.45874 342.04376Q340.14624 342.04376 339.97437 341.8719Q339.8181 341.6844 339.8181 341.4344ZM343.99 349.45L342.91187 349.45L342.91187 340.45L343.99 340.45L343.99 349.45ZM346.99 349.45L345.91187 349.45L345.91187 340.45L346.99 340.45L346.99 349.45ZM349.99 349.45L348.91187 349.45L348.91187 343.10626L349.99 343.10626L349.99 349.45ZM348.8181 341.4344Q348.8181 341.16876 348.97437 340.98126Q349.14624 340.79376 349.45874 340.79376Q349.77124 340.79376 349.9275 340.98126Q350.09937 341.16876 350.09937 341.4344Q350.09937 341.6844 349.9275 341.8719Q349.77124 342.04376 349.45874 342.04376Q349.14624 342.04376 348.97437 341.8719Q348.8181 341.6844 348.8181 341.4344ZM355.5056 347.7625Q355.5056 347.325 355.16187 347.09064Q354.83374 346.84064 354.0056 346.66876Q353.1931 346.4969 352.70874 346.2469Q352.22437 345.9969 351.99 345.66876Q351.77124 345.325 351.77124 344.85626Q351.77124 344.075 352.4275 343.54376Q353.08374 342.9969 354.115 342.9969Q355.1931 342.9969 355.84937 343.5594Q356.52124 344.10626 356.52124 344.96564L355.4431 344.96564Q355.4431 344.52814 355.0525 344.21564Q354.6775 343.8875 354.115 343.8875Q353.52124 343.8875 353.1775 344.15314Q352.84937 344.40314 352.84937 344.8094Q352.84937 345.2 353.16187 345.40314Q353.47437 345.60626 354.28687 345.79376Q355.09937 345.96564 355.59937 346.21564Q356.09937 346.46564 356.33374 346.825Q356.58374 347.1844 356.58374 347.6844Q356.58374 348.54376 355.89624 349.0594Q355.22437 349.575 354.14624 349.575Q353.3806 349.575 352.78687 349.3094Q352.20874 349.02814 351.8806 348.54376Q351.5525 348.0594 351.5525 347.4969L352.6306 347.4969Q352.66187 348.04376 353.0681 348.3719Q353.47437 348.6844 354.14624 348.6844Q354.7556 348.6844 355.1306 348.4344Q355.5056 348.1844 355.5056 347.7625ZM360.4431 349.575Q359.14624 349.575 358.33374 348.73126Q357.53687 347.8719 357.53687 346.45L357.53687 346.2625Q357.53687 345.3094 357.89624 344.575Q358.2556 343.825 358.89624 343.41876Q359.5525 342.9969 360.3025 342.9969Q361.53687 342.9969 362.22437 343.8094Q362.91187 344.6219 362.91187 346.1375L362.91187 346.59064L358.615 346.59064Q358.64624 347.52814 359.16187 348.10626Q359.6931 348.6844 360.5056 348.6844Q361.0681 348.6844 361.45874 348.45Q361.865 348.21564 362.1775 347.825L362.83374 348.34064Q362.03687 349.575 360.4431 349.575ZM360.3025 343.8875Q359.64624 343.8875 359.1931 344.3719Q358.7556 344.84064 358.66187 345.7L361.83374 345.7L361.83374 345.6219Q361.78687 344.79376 361.3806 344.34064Q360.99 343.8875 360.3025 343.8875ZM366.34937 348.6844Q366.9275 348.6844 367.365 348.34064Q367.8025 347.98126 367.84937 347.45L368.8806 347.45Q368.84937 347.9969 368.49 348.4969Q368.14624 348.98126 367.5681 349.27814Q367.0056 349.575 366.34937 349.575Q365.0525 349.575 364.28687 348.71564Q363.53687 347.84064 363.53687 346.34064L363.53687 346.15314Q363.53687 345.23126 363.865 344.5125Q364.20874 343.79376 364.83374 343.40314Q365.47437 342.9969 366.34937 342.9969Q367.41187 342.9969 368.115 343.6375Q368.83374 344.2625 368.8806 345.29376L367.84937 345.29376Q367.8025 344.66876 367.3806 344.27814Q366.95874 343.8875 366.34937 343.8875Q365.52124 343.8875 365.0681 344.48126Q364.615 345.075 364.615 346.2L364.615 346.40314Q364.615 347.4969 365.0681 348.09064Q365.52124 348.6844 366.34937 348.6844ZM369.52124 346.21564Q369.52124 345.29376 369.8806 344.54376Q370.2556 343.79376 370.91187 343.40314Q371.5681 342.9969 372.39624 342.9969Q373.6931 342.9969 374.49 343.8875Q375.3025 344.77814 375.3025 346.27814L375.3025 346.35626Q375.3025 347.27814 374.9431 348.0125Q374.58374 348.7469 373.9275 349.16876Q373.27124 349.575 372.41187 349.575Q371.1306 349.575 370.3181 348.6844Q369.52124 347.77814 369.52124 346.29376L369.52124 346.21564ZM370.615 346.35626Q370.615 347.40314 371.09937 348.04376Q371.59937 348.6844 372.41187 348.6844Q373.24 348.6844 373.72437 348.04376Q374.20874 347.3875 374.20874 346.21564Q374.20874 345.1844 373.70874 344.54376Q373.22437 343.8875 372.39624 343.8875Q371.59937 343.8875 371.09937 344.52814Q370.615 345.15314 370.615 346.35626ZM377.83374 343.10626L377.865 343.90314Q378.59937 342.9969 379.77124 342.9969Q381.78687 342.9969 381.8025 345.2625L381.8025 349.45L380.70874 349.45L380.70874 345.2469Q380.70874 344.575 380.39624 344.2469Q380.09937 343.91876 379.4431 343.91876Q378.91187 343.91876 378.5056 344.2Q378.115 344.48126 377.89624 344.9344L377.89624 349.45L376.8181 349.45L376.8181 343.10626L377.83374 343.10626ZM383.5525 346.23126Q383.5525 344.7625 384.24 343.8875Q384.9275 342.9969 386.0525 342.9969Q387.16187 342.9969 387.8181 343.7469L387.8181 340.45L388.89624 340.45L388.89624 349.45L387.89624 349.45L387.84937 348.7625Q387.1931 349.575 386.03687 349.575Q384.9431 349.575 384.24 348.66876Q383.5525 347.7625 383.5525 346.3094L383.5525 346.23126ZM384.6306 346.35626Q384.6306 347.4344 385.0681 348.04376Q385.52124 348.65314 386.3025 348.65314Q387.33374 348.65314 387.8181 347.71564L387.8181 344.8094Q387.33374 343.91876 386.3181 343.91876Q385.52124 343.91876 385.0681 344.52814Q384.6306 345.1375 384.6306 346.35626ZM394.5056 347.7625Q394.5056 347.325 394.16187 347.09064Q393.83374 346.84064 393.0056 346.66876Q392.1931 346.4969 391.70874 346.2469Q391.22437 345.9969 390.99 345.66876Q390.77124 345.325 390.77124 344.85626Q390.77124 344.075 391.4275 343.54376Q392.08374 342.9969 393.115 342.9969Q394.1931 342.9969 394.84937 343.5594Q395.52124 344.10626 395.52124 344.96564L394.4431 344.96564Q394.4431 344.52814 394.0525 344.21564Q393.6775 343.8875 393.115 343.8875Q392.52124 343.8875 392.1775 344.15314Q391.84937 344.40314 391.84937 344.8094Q391.84937 345.2 392.16187 345.40314Q392.47437 345.60626 393.28687 345.79376Q394.09937 345.96564 394.59937 346.21564Q395.09937 346.46564 395.33374 346.825Q395.58374 347.1844 395.58374 347.6844Q395.58374 348.54376 394.89624 349.0594Q394.22437 349.575 393.14624 349.575Q392.3806 349.575 391.78687 349.3094Q391.20874 349.02814 390.8806 348.54376Q390.5525 348.0594 390.5525 347.4969L391.6306 347.4969Q391.66187 348.04376 392.0681 348.3719Q392.47437 348.6844 393.14624 348.6844Q393.7556 348.6844 394.1306 348.4344Q394.5056 348.1844 394.5056 347.7625ZM397.02124 350.1844L396.09937 350.1844L399.66187 340.91876L400.58374 340.91876L397.02124 350.1844ZM408.53687 345.46564Q408.53687 346.71564 408.115 347.65314Q407.6931 348.575 406.91187 349.075Q406.14624 349.575 405.115 349.575Q404.115 349.575 403.33374 349.075Q402.5525 348.575 402.115 347.66876Q401.6931 346.7469 401.6775 345.52814L401.6775 344.91876Q401.6775 343.6844 402.09937 342.7469Q402.53687 341.8094 403.3181 341.3094Q404.09937 340.79376 405.115 340.79376Q406.1306 340.79376 406.91187 341.29376Q407.6931 341.79376 408.115 342.73126Q408.53687 343.66876 408.53687 344.91876L408.53687 345.46564ZM407.4275 344.90314Q407.4275 343.3875 406.8181 342.575Q406.20874 341.7625 405.115 341.7625Q404.03687 341.7625 403.4275 342.575Q402.8181 343.3875 402.8025 344.825L402.8025 345.46564Q402.8025 346.9344 403.41187 347.77814Q404.03687 348.60626 405.115 348.60626Q406.20874 348.60626 406.8025 347.825Q407.41187 347.02814 407.4275 345.54376L407.4275 344.90314ZM415.16187 346.35626Q415.16187 347.79376 414.5056 348.6844Q413.84937 349.575 412.70874 349.575Q411.5525 349.575 410.89624 348.84064L410.89624 351.8875L409.8181 351.8875L409.8181 343.10626L410.8025 343.10626L410.84937 343.8094Q411.52124 342.9969 412.6931 342.9969Q413.83374 342.9969 414.49 343.85626Q415.16187 344.71564 415.16187 346.2469L415.16187 346.35626ZM414.08374 346.23126Q414.08374 345.15314 413.615 344.54376Q413.16187 343.91876 412.365 343.91876Q411.3806 343.91876 410.89624 344.77814L410.89624 347.8094Q411.3806 348.6844 412.3806 348.6844Q413.16187 348.6844 413.615 348.075Q414.08374 347.45 414.08374 346.23126Z" fill-rule="nonzero"/><path fill="#424242" d="M30.550013 216.69896L22.018763 216.69896L22.018763 213.90208Q22.018763 212.51146 22.596888 211.82396Q23.159388 211.12083 24.284388 211.12083Q24.893763 211.12083 25.362513 211.46458Q25.815638 211.79271 26.065638 212.38646Q26.253138 211.68333 26.800013 211.29271Q27.331263 210.88646 28.081263 210.88646Q29.237513 210.88646 29.893763 211.63646Q30.550013 212.37083 30.550013 213.73021L30.550013 216.69896ZM26.565638 215.57396L29.628138 215.57396L29.628138 213.71458Q29.628138 212.91771 29.221888 212.46458Q28.815638 212.01146 28.096888 212.01146Q26.565638 212.01146 26.565638 213.69896L26.565638 215.57396ZM25.659388 215.57396L25.659388 213.87083Q25.659388 213.13646 25.300013 212.69896Q24.925013 212.24583 24.284388 212.24583Q23.581263 212.24583 23.268763 212.65208Q22.940638 213.05833 22.940638 213.90208L22.940638 215.57396L25.659388 215.57396ZM30.675013 207.23021Q30.675013 208.52708 29.831263 209.33958Q28.971888 210.13646 27.550013 210.13646L27.362513 210.13646Q26.409388 210.13646 25.675013 209.77708Q24.925013 209.41771 24.518763 208.77708Q24.096888 208.12083 24.096888 207.37083Q24.096888 206.13646 24.909388 205.44896Q25.721888 204.76146 27.237513 204.76146L27.690638 204.76146L27.690638 209.05833Q28.628138 209.02708 29.206263 208.51146Q29.784388 207.98021 29.784388 207.16771Q29.784388 206.60521 29.550013 206.21458Q29.315638 205.80833 28.925013 205.49583L29.440638 204.83958Q30.675013 205.63646 30.675013 207.23021ZM24.987513 207.37083Q24.987513 208.02708 25.471888 208.48021Q25.940638 208.91771 26.800013 209.01146L26.800013 205.83958L26.721888 205.83958Q25.893763 205.88646 25.440638 206.29271Q24.987513 206.68333 24.987513 207.37083ZM24.206263 202.83958L25.003138 202.80833Q24.096888 202.07396 24.096888 200.90208Q24.096888 198.88646 26.362513 198.87083L30.550013 198.87083L30.550013 199.96458L26.346888 199.96458Q25.675013 199.96458 25.346888 200.27708Q25.018763 200.57396 25.018763 201.23021Q25.018763 201.76146 25.300013 202.16771Q25.581263 202.55833 26.034388 202.77708L30.550013 202.77708L30.550013 203.85521L24.206263 203.85521L24.206263 202.83958ZM29.784388 194.32396Q29.784388 193.74583 29.440638 193.30833Q29.081263 192.87083 28.550013 192.82396L28.550013 191.79271Q29.096888 191.82396 29.596888 192.18333Q30.081263 192.52708 30.378138 193.10521Q30.675013 193.66771 30.675013 194.32396Q30.675013 195.62083 29.815638 196.38646Q28.940638 197.13646 27.440638 197.13646L27.253138 197.13646Q26.331263 197.13646 25.612513 196.80833Q24.893763 196.46458 24.503138 195.83958Q24.096888 195.19896 24.096888 194.32396Q24.096888 193.26146 24.737513 192.55833Q25.362513 191.83958 26.393763 191.79271L26.393763 192.82396Q25.768763 192.87083 25.378138 193.29271Q24.987513 193.71458 24.987513 194.32396Q24.987513 195.15208 25.581263 195.60521Q26.175013 196.05833 27.300013 196.05833L27.503138 196.05833Q28.596888 196.05833 29.190638 195.60521Q29.784388 195.15208 29.784388 194.32396ZM24.971888 189.77708Q24.096888 189.05833 24.096888 187.90208Q24.096888 185.88646 26.362513 185.87083L30.550013 185.87083L30.550013 186.96458L26.346888 186.96458Q25.675013 186.96458 25.346888 187.27708Q25.018763 187.57396 25.018763 188.23021Q25.018763 188.76146 25.300013 189.16771Q25.581263 189.55833 26.034388 189.77708L30.550013 189.77708L30.550013 190.85521L21.550013 190.85521L21.550013 189.77708L24.971888 189.77708ZM24.206263 182.83958L24.909388 182.80833Q24.096888 182.12083 24.096888 180.93333Q24.096888 179.60521 25.112513 179.12083Q24.659388 178.80833 24.378138 178.30833Q24.096888 177.79271 24.096888 177.10521Q24.096888 175.01146 26.300013 174.98021L30.550013 174.98021L30.550013 176.05833L26.362513 176.05833Q25.690638 176.05833 25.362513 176.37083Q25.018763 176.68333 25.018763 177.41771Q25.018763 178.02708 25.378138 178.43333Q25.737513 178.82396 26.346888 178.88646L30.550013 178.88646L30.550013 179.96458L26.393763 179.96458Q25.018763 179.96458 25.018763 181.32396Q25.018763 182.38646 25.925013 182.77708L30.550013 182.77708L30.550013 183.87083L24.206263 183.87083L24.206263 182.83958ZM30.550013 168.94896Q30.362513 169.04271 29.878138 169.10521Q30.675013 169.85521 30.675013 170.90208Q30.675013 171.83958 30.143763 172.44896Q29.612513 173.04271 28.784388 173.04271Q27.800013 173.04271 27.253138 172.29271Q26.706263 171.54271 26.706263 170.16771L26.706263 169.12083L26.206263 169.12083Q25.643763 169.12083 25.315638 169.46458Q24.971888 169.79271 24.971888 170.46458Q24.971888 171.04271 25.268763 171.43333Q25.550013 171.82396 25.971888 171.82396L25.971888 172.91771Q25.487513 172.91771 25.050013 172.58958Q24.612513 172.24583 24.362513 171.66771Q24.096888 171.08958 24.096888 170.40208Q24.096888 169.29271 24.643763 168.68333Q25.190638 168.05833 26.143763 168.02708L29.065638 168.02708Q29.940638 168.02708 30.456263 167.80833L30.550013 167.80833L30.550013 168.94896ZM29.721888 170.74583Q29.721888 170.23021 29.456263 169.77708Q29.190638 169.32396 28.768763 169.12083L27.471888 169.12083L27.471888 169.96458Q27.471888 171.96458 28.643763 171.96458Q29.143763 171.96458 29.440638 171.62083Q29.721888 171.27708 29.721888 170.74583ZM25.175013 162.79271Q25.143763 163.04271 25.143763 163.32396Q25.143763 164.40208 26.050013 164.77708L30.550013 164.77708L30.550013 165.85521L24.206263 165.85521L24.206263 164.80833L24.940638 164.79271Q24.096888 164.26146 24.096888 163.27708Q24.096888 162.96458 24.175013 162.79271L25.175013 162.79271ZM27.612513 160.08958L28.315638 160.77708L30.550013 160.77708L30.550013 161.85521L21.550013 161.85521L21.550013 160.77708L26.987513 160.77708L26.300013 160.19896L24.206263 158.21458L24.206263 156.90208L26.862513 159.37083L30.550013 156.60521L30.550013 157.88646L27.612513 160.08958Z" fill-rule="nonzero"/><path fill="#757575" d="M76.51437 85.30407L76.51437 76.77282L78.93625 76.77282Q80.04562 76.77282 80.88937 77.27282Q81.74875 77.757195 82.2175 78.663445Q82.68625 79.569695 82.68625 80.757195L82.68625 81.288445Q82.68625 82.507195 82.2175 83.413445Q81.76437 84.319695 80.88937 84.80407Q80.03 85.288445 78.88937 85.30407L76.51437 85.30407ZM77.63937 77.694695L77.63937 84.382195L78.82687 84.382195Q80.12375 84.382195 80.8425 83.58532Q81.57687 82.77282 81.57687 81.27282L81.57687 80.77282Q81.57687 79.319695 80.88937 78.52282Q80.2175 77.71032 78.95187 77.694695L77.63937 77.694695ZM85.53 85.30407L84.45187 85.30407L84.45187 78.96032L85.53 78.96032L85.53 85.30407ZM84.35812 77.288445Q84.35812 77.02282 84.51437 76.83532Q84.68625 76.64782 84.99875 76.64782Q85.31125 76.64782 85.4675 76.83532Q85.63937 77.02282 85.63937 77.288445Q85.63937 77.538445 85.4675 77.725945Q85.31125 77.89782 84.99875 77.89782Q84.68625 77.89782 84.51437 77.725945Q84.35812 77.538445 84.35812 77.288445ZM89.88937 84.538445Q90.4675 84.538445 90.905 84.194695Q91.3425 83.83532 91.38937 83.30407L92.42062 83.30407Q92.38937 83.850945 92.03 84.350945Q91.68625 84.83532 91.10812 85.132195Q90.54562 85.42907 89.88937 85.42907Q88.5925 85.42907 87.82687 84.569695Q87.07687 83.694695 87.07687 82.194695L87.07687 82.007195Q87.07687 81.08532 87.405 80.36657Q87.74875 79.64782 88.37375 79.257195Q89.01437 78.850945 89.88937 78.850945Q90.95187 78.850945 91.655 79.49157Q92.37375 80.11657 92.42062 81.14782L91.38937 81.14782Q91.3425 80.52282 90.92062 80.132195Q90.49875 79.74157 89.88937 79.74157Q89.06125 79.74157 88.60812 80.33532Q88.155 80.92907 88.155 82.05407L88.155 82.257195Q88.155 83.350945 88.60812 83.944695Q89.06125 84.538445 89.88937 84.538445ZM94.82687 77.42907L94.82687 78.96032L95.99875 78.96032L95.99875 79.80407L94.82687 79.80407L94.82687 83.725945Q94.82687 84.11657 94.98312 84.30407Q95.13937 84.49157 95.51437 84.49157Q95.70187 84.49157 96.03 84.42907L96.03 85.30407Q95.60812 85.42907 95.20187 85.42907Q94.48312 85.42907 94.10812 84.99157Q93.73312 84.538445 93.73312 83.725945L93.73312 79.80407L92.57687 79.80407L92.57687 78.96032L93.73312 78.96032L93.73312 77.42907L94.82687 77.42907ZM102.23312 83.069695L98.655 83.069695L97.85812 85.30407L96.70187 85.30407L99.95187 76.77282L100.93625 76.77282L104.20187 85.30407L103.04562 85.30407L102.23312 83.069695ZM98.99875 82.14782L101.905 82.14782L100.45187 78.163445L98.99875 82.14782ZM105.0925 82.08532Q105.0925 80.61657 105.78 79.74157Q106.4675 78.850945 107.5925 78.850945Q108.70187 78.850945 109.35812 79.600945L109.35812 76.30407L110.43625 76.30407L110.43625 85.30407L109.43625 85.30407L109.38937 84.61657Q108.73312 85.42907 107.57687 85.42907Q106.48312 85.42907 105.78 84.52282Q105.0925 83.61657 105.0925 82.163445L105.0925 82.08532ZM106.17062 82.21032Q106.17062 83.288445 106.60812 83.89782Q107.06125 84.507195 107.8425 84.507195Q108.87375 84.507195 109.35812 83.569695L109.35812 80.663445Q108.87375 79.77282 107.85812 79.77282Q107.06125 79.77282 106.60812 80.382195Q106.17062 80.99157 106.17062 82.21032ZM112.0925 82.08532Q112.0925 80.61657 112.78 79.74157Q113.4675 78.850945 114.5925 78.850945Q115.70187 78.850945 116.35812 79.600945L116.35812 76.30407L117.43625 76.30407L117.43625 85.30407L116.43625 85.30407L116.38937 84.61657Q115.73312 85.42907 114.57687 85.42907Q113.48312 85.42907 112.78 84.52282Q112.0925 83.61657 112.0925 82.163445L112.0925 82.08532ZM113.17062 82.21032Q113.17062 83.288445 113.60812 83.89782Q114.06125 84.507195 114.8425 84.507195Q115.87375 84.507195 116.35812 83.569695L116.35812 80.663445Q115.87375 79.77282 114.85812 79.77282Q114.06125 79.77282 113.60812 80.382195Q113.17062 80.99157 113.17062 82.21032ZM122.31125 81.83532Q122.31125 80.52282 122.655 79.30407Q123.01437 78.08532 123.7175 77.08532Q124.42062 76.08532 125.18625 75.67907L125.405 76.39782Q124.54562 77.05407 123.99875 78.39782Q123.45187 79.74157 123.405 81.413445L123.38937 81.913445Q123.38937 84.17907 124.2175 85.83532Q124.7175 86.83532 125.405 87.39782L125.18625 88.05407Q124.405 87.632195 123.68625 86.600945Q122.31125 84.61657 122.31125 81.83532ZM129.79562 85.30407L128.7175 85.30407L128.7175 78.08532L126.53 78.882195L126.53 77.89782L129.63937 76.725945L129.79562 76.725945L129.79562 85.30407ZM138.5925 81.663445Q138.5925 83.569695 137.93625 84.507195Q137.29562 85.42907 135.905 85.42907Q134.54562 85.42907 133.88937 84.52282Q133.23312 83.61657 133.20187 81.80407L133.20187 80.36657Q133.20187 78.475945 133.8425 77.569695Q134.49875 76.64782 135.88937 76.64782Q137.26437 76.64782 137.92062 77.538445Q138.57687 78.413445 138.5925 80.257195L138.5925 81.663445ZM137.49875 80.17907Q137.49875 78.80407 137.10812 78.17907Q136.73312 77.538445 135.88937 77.538445Q135.06125 77.538445 134.67062 78.17907Q134.29562 78.80407 134.29562 80.100945L134.29562 81.83532Q134.29562 83.21032 134.68625 83.882195Q135.0925 84.538445 135.905 84.538445Q136.70187 84.538445 137.0925 83.913445Q137.48312 83.288445 137.49875 81.96032L137.49875 80.17907ZM145.5925 81.663445Q145.5925 83.569695 144.93625 84.507195Q144.29562 85.42907 142.905 85.42907Q141.54562 85.42907 140.88937 84.52282Q140.23312 83.61657 140.20187 81.80407L140.20187 80.36657Q140.20187 78.475945 140.8425 77.569695Q141.49875 76.64782 142.88937 76.64782Q144.26437 76.64782 144.92062 77.538445Q145.57687 78.413445 145.5925 80.257195L145.5925 81.663445ZM144.49875 80.17907Q144.49875 78.80407 144.10812 78.17907Q143.73312 77.538445 142.88937 77.538445Q142.06125 77.538445 141.67062 78.17907Q141.29562 78.80407 141.29562 80.100945L141.29562 81.83532Q141.29562 83.21032 141.68625 83.882195Q142.0925 84.538445 142.905 84.538445Q143.70187 84.538445 144.0925 83.913445Q144.48312 83.288445 144.49875 81.96032L144.49875 80.17907ZM152.5925 81.663445Q152.5925 83.569695 151.93625 84.507195Q151.29562 85.42907 149.905 85.42907Q148.54562 85.42907 147.88937 84.52282Q147.23312 83.61657 147.20187 81.80407L147.20187 80.36657Q147.20187 78.475945 147.8425 77.569695Q148.49875 76.64782 149.88937 76.64782Q151.26437 76.64782 151.92062 77.538445Q152.57687 78.413445 152.5925 80.257195L152.5925 81.663445ZM151.49875 80.17907Q151.49875 78.80407 151.10812 78.17907Q150.73312 77.538445 149.88937 77.538445Q149.06125 77.538445 148.67062 78.17907Q148.29562 78.80407 148.29562 80.100945L148.29562 81.83532Q148.29562 83.21032 148.68625 83.882195Q149.0925 84.538445 149.905 84.538445Q150.70187 84.538445 151.0925 83.913445Q151.48312 83.288445 151.49875 81.96032L151.49875 80.17907ZM156.85812 81.89782Q156.85812 83.21032 156.51437 84.413445Q156.17062 85.600945 155.45187 86.61657Q154.74875 87.632195 153.98312 88.05407L153.74875 87.39782Q154.655 86.71032 155.20187 85.257195Q155.74875 83.788445 155.76437 82.02282L155.76437 81.83532Q155.76437 80.600945 155.49875 79.538445Q155.24875 78.475945 154.78 77.64782Q154.32687 76.80407 153.74875 76.33532L153.98312 75.67907Q154.74875 76.100945 155.45187 77.100945Q156.155 78.100945 156.49875 79.319695Q156.85812 80.52282 156.85812 81.89782Z" fill-rule="nonzero"/><path fill="#757575" d="M60.639374 120.31203L60.639374 123.65578L59.514374 123.65578L59.514374 115.12453L62.670624 115.12453Q64.06125 115.12453 64.85812 115.84328Q65.655 116.5464 65.655 117.7339Q65.655 118.96828 64.87375 119.64015Q64.10812 120.31203 62.655 120.31203L60.639374 120.31203ZM60.639374 119.39015L62.670624 119.39015Q63.576874 119.39015 64.04562 118.96828Q64.53 118.5464 64.53 117.74953Q64.53 116.9839 64.04562 116.53078Q63.576874 116.06203 62.733124 116.0464L60.639374 116.0464L60.639374 119.39015ZM67.06125 120.4214Q67.06125 119.49953 67.42062 118.74953Q67.79562 117.99953 68.45187 117.6089Q69.10812 117.20265 69.93625 117.20265Q71.23312 117.20265 72.03 118.09328Q72.8425 118.9839 72.8425 120.4839L72.8425 120.56203Q72.8425 121.4839 72.48312 122.21828Q72.12375 122.95265 71.4675 123.37453Q70.81125 123.78078 69.95187 123.78078Q68.67062 123.78078 67.85812 122.89015Q67.06125 121.9839 67.06125 120.49953L67.06125 120.4214ZM68.155 120.56203Q68.155 121.6089 68.63937 122.24953Q69.13937 122.89015 69.95187 122.89015Q70.78 122.89015 71.26437 122.24953Q71.74875 121.59328 71.74875 120.4214Q71.74875 119.39015 71.24875 118.74953Q70.76437 118.09328 69.93625 118.09328Q69.13937 118.09328 68.63937 118.7339Q68.155 119.3589 68.155 120.56203ZM74.06125 120.4214Q74.06125 119.49953 74.42062 118.74953Q74.79562 117.99953 75.45187 117.6089Q76.10812 117.20265 76.93625 117.20265Q78.23312 117.20265 79.03 118.09328Q79.8425 118.9839 79.8425 120.4839L79.8425 120.56203Q79.8425 121.4839 79.48312 122.21828Q79.12375 122.95265 78.4675 123.37453Q77.81125 123.78078 76.95187 123.78078Q75.67062 123.78078 74.85812 122.89015Q74.06125 121.9839 74.06125 120.49953L74.06125 120.4214ZM75.155 120.56203Q75.155 121.6089 75.63937 122.24953Q76.13937 122.89015 76.95187 122.89015Q77.78 122.89015 78.26437 122.24953Q78.74875 121.59328 78.74875 120.4214Q78.74875 119.39015 78.24875 118.74953Q77.76437 118.09328 76.93625 118.09328Q76.13937 118.09328 75.63937 118.7339Q75.155 119.3589 75.155 120.56203ZM82.53 123.65578L81.45187 123.65578L81.45187 114.65578L82.53 114.65578L82.53 123.65578ZM86.98312 123.78078Q85.68625 123.78078 84.87375 122.93703Q84.07687 122.07765 84.07687 120.65578L84.07687 120.46828Q84.07687 119.51515 84.43625 118.78078Q84.79562 118.03078 85.43625 117.62453Q86.0925 117.20265 86.8425 117.20265Q88.07687 117.20265 88.76437 118.01515Q89.45187 118.82765 89.45187 120.34328L89.45187 120.7964L85.155 120.7964Q85.18625 121.7339 85.70187 122.31203Q86.23312 122.89015 87.04562 122.89015Q87.60812 122.89015 87.99875 122.65578Q88.405 122.4214 88.7175 122.03078L89.37375 122.5464Q88.57687 123.78078 86.98312 123.78078ZM86.8425 118.09328Q86.18625 118.09328 85.73312 118.57765Q85.29562 119.0464 85.20187 119.90578L88.37375 119.90578L88.37375 119.82765Q88.32687 118.99953 87.92062 118.5464Q87.53 118.09328 86.8425 118.09328ZM90.0925 120.43703Q90.0925 118.96828 90.78 118.09328Q91.4675 117.20265 92.5925 117.20265Q93.70187 117.20265 94.35812 117.95265L94.35812 114.65578L95.43625 114.65578L95.43625 123.65578L94.43625 123.65578L94.38937 122.96828Q93.73312 123.78078 92.57687 123.78078Q91.48312 123.78078 90.78 122.87453Q90.0925 121.96828 90.0925 120.51515L90.0925 120.43703ZM91.17062 120.56203Q91.17062 121.64015 91.60812 122.24953Q92.06125 122.8589 92.8425 122.8589Q93.87375 122.8589 94.35812 121.9214L94.35812 119.01515Q93.87375 118.12453 92.85812 118.12453Q92.06125 118.12453 91.60812 118.7339Q91.17062 119.34328 91.17062 120.56203ZM102.23312 121.4214L98.655 121.4214L97.85812 123.65578L96.70187 123.65578L99.95187 115.12453L100.93625 115.12453L104.20187 123.65578L103.04562 123.65578L102.23312 121.4214ZM98.99875 120.49953L101.905 120.49953L100.45187 116.51515L98.99875 120.49953ZM105.0925 120.43703Q105.0925 118.96828 105.78 118.09328Q106.4675 117.20265 107.5925 117.20265Q108.70187 117.20265 109.35812 117.95265L109.35812 114.65578L110.43625 114.65578L110.43625 123.65578L109.43625 123.65578L109.38937 122.96828Q108.73312 123.78078 107.57687 123.78078Q106.48312 123.78078 105.78 122.87453Q105.0925 121.96828 105.0925 120.51515L105.0925 120.43703ZM106.17062 120.56203Q106.17062 121.64015 106.60812 122.24953Q107.06125 122.8589 107.8425 122.8589Q108.87375 122.8589 109.35812 121.9214L109.35812 119.01515Q108.87375 118.12453 107.85812 118.12453Q107.06125 118.12453 106.60812 118.7339Q106.17062 119.34328 106.17062 120.56203ZM112.0925 120.43703Q112.0925 118.96828 112.78 118.09328Q113.4675 117.20265 114.5925 117.20265Q115.70187 117.20265 116.35812 117.95265L116.35812 114.65578L117.43625 114.65578L117.43625 123.65578L116.43625 123.65578L116.38937 122.96828Q115.73312 123.78078 114.57687 123.78078Q113.48312 123.78078 112.78 122.87453Q112.0925 121.96828 112.0925 120.51515L112.0925 120.43703ZM113.17062 120.56203Q113.17062 121.64015 113.60812 122.24953Q114.06125 122.8589 114.8425 122.8589Q115.87375 122.8589 116.35812 121.9214L116.35812 119.01515Q115.87375 118.12453 114.85812 118.12453Q114.06125 118.12453 113.60812 118.7339Q113.17062 119.34328 113.17062 120.56203ZM122.31125 120.18703Q122.31125 118.87453 122.655 117.65578Q123.01437 116.43703 123.7175 115.43703Q124.42062 114.43703 125.18625 114.03078L125.405 114.74953Q124.54562 115.40578 123.99875 116.74953Q123.45187 118.09328 123.405 119.76515L123.38937 120.26515Q123.38937 122.53078 124.2175 124.18703Q124.7175 125.18703 125.405 125.74953L125.18625 126.40578Q124.405 125.9839 123.68625 124.95265Q122.31125 122.96828 122.31125 120.18703ZM129.79562 123.65578L128.7175 123.65578L128.7175 116.43703L126.53 117.2339L126.53 116.24953L129.63937 115.07765L129.79562 115.07765L129.79562 123.65578ZM138.5925 120.01515Q138.5925 121.9214 137.93625 122.8589Q137.29562 123.78078 135.905 123.78078Q134.54562 123.78078 133.88937 122.87453Q133.23312 121.96828 133.20187 120.15578L133.20187 118.71828Q133.20187 116.82765 133.8425 115.9214Q134.49875 114.99953 135.88937 114.99953Q137.26437 114.99953 137.92062 115.89015Q138.57687 116.76515 138.5925 118.6089L138.5925 120.01515ZM137.49875 118.53078Q137.49875 117.15578 137.10812 116.53078Q136.73312 115.89015 135.88937 115.89015Q135.06125 115.89015 134.67062 116.53078Q134.29562 117.15578 134.29562 118.45265L134.29562 120.18703Q134.29562 121.56203 134.68625 122.2339Q135.0925 122.89015 135.905 122.89015Q136.70187 122.89015 137.0925 122.26515Q137.48312 121.64015 137.49875 120.31203L137.49875 118.53078ZM145.5925 120.01515Q145.5925 121.9214 144.93625 122.8589Q144.29562 123.78078 142.905 123.78078Q141.54562 123.78078 140.88937 122.87453Q140.23312 121.96828 140.20187 120.15578L140.20187 118.71828Q140.20187 116.82765 140.8425 115.9214Q141.49875 114.99953 142.88937 114.99953Q144.26437 114.99953 144.92062 115.89015Q145.57687 116.76515 145.5925 118.6089L145.5925 120.01515ZM144.49875 118.53078Q144.49875 117.15578 144.10812 116.53078Q143.73312 115.89015 142.88937 115.89015Q142.06125 115.89015 141.67062 116.53078Q141.29562 117.15578 141.29562 118.45265L141.29562 120.18703Q141.29562 121.56203 141.68625 122.2339Q142.0925 122.89015 142.905 122.89015Q143.70187 122.89015 144.0925 122.26515Q144.48312 121.64015 144.49875 120.31203L144.49875 118.53078ZM152.5925 120.01515Q152.5925 121.9214 151.93625 122.8589Q151.29562 123.78078 149.905 123.78078Q148.54562 123.78078 147.88937 122.87453Q147.23312 121.96828 147.20187 120.15578L147.20187 118.71828Q147.20187 116.82765 147.8425 115.9214Q148.49875 114.99953 149.88937 114.99953Q151.26437 114.99953 151.92062 115.89015Q152.57687 116.76515 152.5925 118.6089L152.5925 120.01515ZM151.49875 118.53078Q151.49875 117.15578 151.10812 116.53078Q150.73312 115.89015 149.88937 115.89015Q149.06125 115.89015 148.67062 116.53078Q148.29562 117.15578 148.29562 118.45265L148.29562 120.18703Q148.29562 121.56203 148.68625 122.2339Q149.0925 122.89015 149.905 122.89015Q150.70187 122.89015 151.0925 122.26515Q151.48312 121.64015 151.49875 120.31203L151.49875 118.53078ZM156.85812 120.24953Q156.85812 121.56203 156.51437 122.76515Q156.17062 123.95265 155.45187 124.96828Q154.74875 125.9839 153.98312 126.40578L153.74875 125.74953Q154.655 125.06203 155.20187 123.6089Q155.74875 122.14015 155.76437 120.37453L155.76437 120.18703Q155.76437 118.95265 155.49875 117.89015Q155.24875 116.82765 154.78 115.99953Q154.32687 115.15578 153.74875 114.68703L153.98312 114.03078Q154.74875 114.45265 155.45187 115.45265Q156.155 116.45265 156.49875 117.6714Q156.85812 118.87453 156.85812 120.24953Z" fill-rule="nonzero"/><path fill="#757575" d="M69.51437 162.00748L69.51437 153.47623L71.93625 153.47623Q73.04562 153.47623 73.88937 153.97623Q74.74875 154.4606 75.2175 155.36685Q75.68625 156.2731 75.68625 157.4606L75.68625 157.99185Q75.68625 159.2106 75.2175 160.11685Q74.76437 161.0231 73.88937 161.50748Q73.03 161.99185 71.88937 162.00748L69.51437 162.00748ZM70.63937 154.3981L70.63937 161.0856L71.82687 161.0856Q73.12375 161.0856 73.8425 160.28873Q74.57687 159.47623 74.57687 157.97623L74.57687 157.47623Q74.57687 156.0231 73.88937 155.22623Q73.2175 154.41373 71.95187 154.3981L70.63937 154.3981ZM78.53 162.00748L77.45187 162.00748L77.45187 155.66373L78.53 155.66373L78.53 162.00748ZM77.35812 153.99185Q77.35812 153.72623 77.51437 153.53873Q77.68625 153.35123 77.99875 153.35123Q78.31125 153.35123 78.4675 153.53873Q78.63937 153.72623 78.63937 153.99185Q78.63937 154.24185 78.4675 154.42935Q78.31125 154.60123 77.99875 154.60123Q77.68625 154.60123 77.51437 154.42935Q77.35812 154.24185 77.35812 153.99185ZM82.88937 161.24185Q83.4675 161.24185 83.905 160.8981Q84.3425 160.53873 84.38937 160.00748L85.42062 160.00748Q85.38937 160.55435 85.03 161.05435Q84.68625 161.53873 84.10812 161.8356Q83.54562 162.13248 82.88937 162.13248Q81.5925 162.13248 80.82687 161.2731Q80.07687 160.3981 80.07687 158.8981L80.07687 158.7106Q80.07687 157.78873 80.405 157.06998Q80.74875 156.35123 81.37375 155.9606Q82.01437 155.55435 82.88937 155.55435Q83.95187 155.55435 84.655 156.19498Q85.37375 156.81998 85.42062 157.85123L84.38937 157.85123Q84.3425 157.22623 83.92062 156.8356Q83.49875 156.44498 82.88937 156.44498Q82.06125 156.44498 81.60812 157.03873Q81.155 157.63248 81.155 158.75748L81.155 158.9606Q81.155 160.05435 81.60812 160.6481Q82.06125 161.24185 82.88937 161.24185ZM87.82687 154.13248L87.82687 155.66373L88.99875 155.66373L88.99875 156.50748L87.82687 156.50748L87.82687 160.42935Q87.82687 160.81998 87.98312 161.00748Q88.13937 161.19498 88.51437 161.19498Q88.70187 161.19498 89.03 161.13248L89.03 162.00748Q88.60812 162.13248 88.20187 162.13248Q87.48312 162.13248 87.10812 161.69498Q86.73312 161.24185 86.73312 160.42935L86.73312 156.50748L85.57687 156.50748L85.57687 155.66373L86.73312 155.66373L86.73312 154.13248L87.82687 154.13248ZM95.23312 159.7731L91.655 159.7731L90.85812 162.00748L89.70187 162.00748L92.95187 153.47623L93.93625 153.47623L97.20187 162.00748L96.04562 162.00748L95.23312 159.7731ZM91.99875 158.85123L94.905 158.85123L93.45187 154.86685L91.99875 158.85123ZM98.0925 158.78873Q98.0925 157.31998 98.78 156.44498Q99.4675 155.55435 100.5925 155.55435Q101.70187 155.55435 102.35812 156.30435L102.35812 153.00748L103.43625 153.00748L103.43625 162.00748L102.43625 162.00748L102.38937 161.31998Q101.73312 162.13248 100.57687 162.13248Q99.48312 162.13248 98.78 161.22623Q98.0925 160.31998 98.0925 158.86685L98.0925 158.78873ZM99.17062 158.91373Q99.17062 159.99185 99.60812 160.60123Q100.06125 161.2106 100.8425 161.2106Q101.87375 161.2106 102.35812 160.2731L102.35812 157.36685Q101.87375 156.47623 100.85812 156.47623Q100.06125 156.47623 99.60812 157.0856Q99.17062 157.69498 99.17062 158.91373ZM105.0925 158.78873Q105.0925 157.31998 105.78 156.44498Q106.4675 155.55435 107.5925 155.55435Q108.70187 155.55435 109.35812 156.30435L109.35812 153.00748L110.43625 153.00748L110.43625 162.00748L109.43625 162.00748L109.38937 161.31998Q108.73312 162.13248 107.57687 162.13248Q106.48312 162.13248 105.78 161.22623Q105.0925 160.31998 105.0925 158.86685L105.0925 158.78873ZM106.17062 158.91373Q106.17062 159.99185 106.60812 160.60123Q107.06125 161.2106 107.8425 161.2106Q108.87375 161.2106 109.35812 160.2731L109.35812 157.36685Q108.87375 156.47623 107.85812 156.47623Q107.06125 156.47623 106.60812 157.0856Q106.17062 157.69498 106.17062 158.91373ZM115.31125 158.53873Q115.31125 157.22623 115.655 156.00748Q116.01437 154.78873 116.7175 153.78873Q117.42062 152.78873 118.18625 152.38248L118.405 153.10123Q117.54562 153.75748 116.99875 155.10123Q116.45187 156.44498 116.405 158.11685L116.38937 158.61685Q116.38937 160.88248 117.2175 162.53873Q117.7175 163.53873 118.405 164.10123L118.18625 164.75748Q117.405 164.3356 116.68625 163.30435Q115.31125 161.31998 115.31125 158.53873ZM122.79562 162.00748L121.7175 162.00748L121.7175 154.78873L119.53 155.5856L119.53 154.60123L122.63937 153.42935L122.79562 153.42935L122.79562 162.00748ZM131.5925 158.36685Q131.5925 160.2731 130.93625 161.2106Q130.29562 162.13248 128.905 162.13248Q127.54562 162.13248 126.88937 161.22623Q126.23312 160.31998 126.20187 158.50748L126.20187 157.06998Q126.20187 155.17935 126.8425 154.2731Q127.49875 153.35123 128.88937 153.35123Q130.26437 153.35123 130.92062 154.24185Q131.57687 155.11685 131.5925 156.9606L131.5925 158.36685ZM130.49875 156.88248Q130.49875 155.50748 130.10812 154.88248Q129.73312 154.24185 128.88937 154.24185Q128.06125 154.24185 127.67062 154.88248Q127.29562 155.50748 127.29562 156.80435L127.29562 158.53873Q127.29562 159.91373 127.68625 160.5856Q128.0925 161.24185 128.905 161.24185Q129.70187 161.24185 130.0925 160.61685Q130.48312 159.99185 130.49875 158.66373L130.49875 156.88248ZM138.5925 158.36685Q138.5925 160.2731 137.93625 161.2106Q137.29562 162.13248 135.905 162.13248Q134.54562 162.13248 133.88937 161.22623Q133.23312 160.31998 133.20187 158.50748L133.20187 157.06998Q133.20187 155.17935 133.8425 154.2731Q134.49875 153.35123 135.88937 153.35123Q137.26437 153.35123 137.92062 154.24185Q138.57687 155.11685 138.5925 156.9606L138.5925 158.36685ZM137.49875 156.88248Q137.49875 155.50748 137.10812 154.88248Q136.73312 154.24185 135.88937 154.24185Q135.06125 154.24185 134.67062 154.88248Q134.29562 155.50748 134.29562 156.80435L134.29562 158.53873Q134.29562 159.91373 134.68625 160.5856Q135.0925 161.24185 135.905 161.24185Q136.70187 161.24185 137.0925 160.61685Q137.48312 159.99185 137.49875 158.66373L137.49875 156.88248ZM145.5925 158.36685Q145.5925 160.2731 144.93625 161.2106Q144.29562 162.13248 142.905 162.13248Q141.54562 162.13248 140.88937 161.22623Q140.23312 160.31998 140.20187 158.50748L140.20187 157.06998Q140.20187 155.17935 140.8425 154.2731Q141.49875 153.35123 142.88937 153.35123Q144.26437 153.35123 144.92062 154.24185Q145.57687 155.11685 145.5925 156.9606L145.5925 158.36685ZM144.49875 156.88248Q144.49875 155.50748 144.10812 154.88248Q143.73312 154.24185 142.88937 154.24185Q142.06125 154.24185 141.67062 154.88248Q141.29562 155.50748 141.29562 156.80435L141.29562 158.53873Q141.29562 159.91373 141.68625 160.5856Q142.0925 161.24185 142.905 161.24185Q143.70187 161.24185 144.0925 160.61685Q144.48312 159.99185 144.49875 158.66373L144.49875 156.88248ZM152.5925 158.36685Q152.5925 160.2731 151.93625 161.2106Q151.29562 162.13248 149.905 162.13248Q148.54562 162.13248 147.88937 161.22623Q147.23312 160.31998 147.20187 158.50748L147.20187 157.06998Q147.20187 155.17935 147.8425 154.2731Q148.49875 153.35123 149.88937 153.35123Q151.26437 153.35123 151.92062 154.24185Q152.57687 155.11685 152.5925 156.9606L152.5925 158.36685ZM151.49875 156.88248Q151.49875 155.50748 151.10812 154.88248Q150.73312 154.24185 149.88937 154.24185Q149.06125 154.24185 148.67062 154.88248Q148.29562 155.50748 148.29562 156.80435L148.29562 158.53873Q148.29562 159.91373 148.68625 160.5856Q149.0925 161.24185 149.905 161.24185Q150.70187 161.24185 151.0925 160.61685Q151.48312 159.99185 151.49875 158.66373L151.49875 156.88248ZM156.85812 158.60123Q156.85812 159.91373 156.51437 161.11685Q156.17062 162.30435 155.45187 163.31998Q154.74875 164.3356 153.98312 164.75748L153.74875 164.10123Q154.655 163.41373 155.20187 161.9606Q155.74875 160.49185 155.76437 158.72623L155.76437 158.53873Q155.76437 157.30435 155.49875 156.24185Q155.24875 155.17935 154.78 154.35123Q154.32687 153.50748 153.74875 153.03873L153.98312 152.38248Q154.74875 152.80435 155.45187 153.80435Q156.155 154.80435 156.49875 156.0231Q156.85812 157.22623 156.85812 158.60123Z" fill-rule="nonzero"/><path fill="#757575" d="M99.63937 189.51544L99.63937 192.85919L98.51437 192.85919L98.51437 184.32794L101.67062 184.32794Q103.06125 184.32794 103.85812 185.04669Q104.655 185.74982 104.655 186.93732Q104.655 188.17169 103.87375 188.84357Q103.10812 189.51544 101.655 189.51544L99.63937 189.51544ZM99.63937 188.59357L101.67062 188.59357Q102.57687 188.59357 103.04562 188.17169Q103.53 187.74982 103.53 186.95294Q103.53 186.18732 103.04562 185.73419Q102.57687 185.26544 101.73312 185.24982L99.63937 185.24982L99.63937 188.59357ZM106.06125 189.62482Q106.06125 188.70294 106.42062 187.95294Q106.79562 187.20294 107.45187 186.81232Q108.10812 186.40607 108.93625 186.40607Q110.23312 186.40607 111.03 187.29669Q111.8425 188.18732 111.8425 189.68732L111.8425 189.76544Q111.8425 190.68732 111.48312 191.42169Q111.12375 192.15607 110.4675 192.57794Q109.81125 192.98419 108.95187 192.98419Q107.67062 192.98419 106.85812 192.09357Q106.06125 191.18732 106.06125 189.70294L106.06125 189.62482ZM107.155 189.76544Q107.155 190.81232 107.63937 191.45294Q108.13937 192.09357 108.95187 192.09357Q109.78 192.09357 110.26437 191.45294Q110.74875 190.79669 110.74875 189.62482Q110.74875 188.59357 110.24875 187.95294Q109.76437 187.29669 108.93625 187.29669Q108.13937 187.29669 107.63937 187.93732Q107.155 188.56232 107.155 189.76544ZM113.06125 189.62482Q113.06125 188.70294 113.42062 187.95294Q113.79562 187.20294 114.45187 186.81232Q115.10812 186.40607 115.93625 186.40607Q117.23312 186.40607 118.03 187.29669Q118.8425 188.18732 118.8425 189.68732L118.8425 189.76544Q118.8425 190.68732 118.48312 191.42169Q118.12375 192.15607 117.4675 192.57794Q116.81125 192.98419 115.95187 192.98419Q114.67062 192.98419 113.85812 192.09357Q113.06125 191.18732 113.06125 189.70294L113.06125 189.62482ZM114.155 189.76544Q114.155 190.81232 114.63937 191.45294Q115.13937 192.09357 115.95187 192.09357Q116.78 192.09357 117.26437 191.45294Q117.74875 190.79669 117.74875 189.62482Q117.74875 188.59357 117.24875 187.95294Q116.76437 187.29669 115.93625 187.29669Q115.13937 187.29669 114.63937 187.93732Q114.155 188.56232 114.155 189.76544ZM121.53 192.85919L120.45187 192.85919L120.45187 183.85919L121.53 183.85919L121.53 192.85919ZM125.98312 192.98419Q124.68625 192.98419 123.87375 192.14044Q123.07687 191.28107 123.07687 189.85919L123.07687 189.67169Q123.07687 188.71857 123.43625 187.98419Q123.79562 187.23419 124.43625 186.82794Q125.0925 186.40607 125.8425 186.40607Q127.07687 186.40607 127.76437 187.21857Q128.45187 188.03107 128.45187 189.54669L128.45187 189.99982L124.155 189.99982Q124.18625 190.93732 124.70187 191.51544Q125.23312 192.09357 126.04562 192.09357Q126.60812 192.09357 126.99875 191.85919Q127.405 191.62482 127.7175 191.23419L128.37375 191.74982Q127.57687 192.98419 125.98312 192.98419ZM125.8425 187.29669Q125.18625 187.29669 124.73312 187.78107Q124.29562 188.24982 124.20187 189.10919L127.37375 189.10919L127.37375 189.03107Q127.32687 188.20294 126.92062 187.74982Q126.53 187.29669 125.8425 187.29669ZM129.0925 189.64044Q129.0925 188.17169 129.78 187.29669Q130.4675 186.40607 131.5925 186.40607Q132.70187 186.40607 133.35812 187.15607L133.35812 183.85919L134.43625 183.85919L134.43625 192.85919L133.43625 192.85919L133.38937 192.17169Q132.73312 192.98419 131.57687 192.98419Q130.48312 192.98419 129.78 192.07794Q129.0925 191.17169 129.0925 189.71857L129.0925 189.64044ZM130.17062 189.76544Q130.17062 190.84357 130.60812 191.45294Q131.06125 192.06232 131.8425 192.06232Q132.87375 192.06232 133.35812 191.12482L133.35812 188.21857Q132.87375 187.32794 131.85812 187.32794Q131.06125 187.32794 130.60812 187.93732Q130.17062 188.54669 130.17062 189.76544ZM141.23312 190.62482L137.655 190.62482L136.85812 192.85919L135.70187 192.85919L138.95187 184.32794L139.93625 184.32794L143.20187 192.85919L142.04562 192.85919L141.23312 190.62482ZM137.99875 189.70294L140.905 189.70294L139.45187 185.71857L137.99875 189.70294ZM144.0925 189.64044Q144.0925 188.17169 144.78 187.29669Q145.4675 186.40607 146.5925 186.40607Q147.70187 186.40607 148.35812 187.15607L148.35812 183.85919L149.43625 183.85919L149.43625 192.85919L148.43625 192.85919L148.38937 192.17169Q147.73312 192.98419 146.57687 192.98419Q145.48312 192.98419 144.78 192.07794Q144.0925 191.17169 144.0925 189.71857L144.0925 189.64044ZM145.17062 189.76544Q145.17062 190.84357 145.60812 191.45294Q146.06125 192.06232 146.8425 192.06232Q147.87375 192.06232 148.35812 191.12482L148.35812 188.21857Q147.87375 187.32794 146.85812 187.32794Q146.06125 187.32794 145.60812 187.93732Q145.17062 188.54669 145.17062 189.76544ZM151.0925 189.64044Q151.0925 188.17169 151.78 187.29669Q152.4675 186.40607 153.5925 186.40607Q154.70187 186.40607 155.35812 187.15607L155.35812 183.85919L156.43625 183.85919L156.43625 192.85919L155.43625 192.85919L155.38937 192.17169Q154.73312 192.98419 153.57687 192.98419Q152.48312 192.98419 151.78 192.07794Q151.0925 191.17169 151.0925 189.71857L151.0925 189.64044ZM152.17062 189.76544Q152.17062 190.84357 152.60812 191.45294Q153.06125 192.06232 153.8425 192.06232Q154.87375 192.06232 155.35812 191.12482L155.35812 188.21857Q154.87375 187.32794 153.85812 187.32794Q153.06125 187.32794 152.60812 187.93732Q152.17062 188.54669 152.17062 189.76544Z" fill-rule="nonzero"/><path fill="#757575" d="M115.31125 204.39044Q115.31125 203.07794 115.655 201.85919Q116.01437 200.64044 116.7175 199.64044Q117.42062 198.64044 118.18625 198.23419L118.405 198.95294Q117.54562 199.60919 116.99875 200.95294Q116.45187 202.29669 116.405 203.96857L116.38937 204.46857Q116.38937 206.73419 117.2175 208.39044Q117.7175 209.39044 118.405 209.95294L118.18625 210.60919Q117.405 210.18732 116.68625 209.15607Q115.31125 207.17169 115.31125 204.39044ZM122.79562 207.85919L121.7175 207.85919L121.7175 200.64044L119.53 201.43732L119.53 200.45294L122.63937 199.28107L122.79562 199.28107L122.79562 207.85919ZM131.5925 204.21857Q131.5925 206.12482 130.93625 207.06232Q130.29562 207.98419 128.905 207.98419Q127.54562 207.98419 126.88937 207.07794Q126.23312 206.17169 126.20187 204.35919L126.20187 202.92169Q126.20187 201.03107 126.8425 200.12482Q127.49875 199.20294 128.88937 199.20294Q130.26437 199.20294 130.92062 200.09357Q131.57687 200.96857 131.5925 202.81232L131.5925 204.21857ZM130.49875 202.73419Q130.49875 201.35919 130.10812 200.73419Q129.73312 200.09357 128.88937 200.09357Q128.06125 200.09357 127.67062 200.73419Q127.29562 201.35919 127.29562 202.65607L127.29562 204.39044Q127.29562 205.76544 127.68625 206.43732Q128.0925 207.09357 128.905 207.09357Q129.70187 207.09357 130.0925 206.46857Q130.48312 205.84357 130.49875 204.51544L130.49875 202.73419ZM138.5925 204.21857Q138.5925 206.12482 137.93625 207.06232Q137.29562 207.98419 135.905 207.98419Q134.54562 207.98419 133.88937 207.07794Q133.23312 206.17169 133.20187 204.35919L133.20187 202.92169Q133.20187 201.03107 133.8425 200.12482Q134.49875 199.20294 135.88937 199.20294Q137.26437 199.20294 137.92062 200.09357Q138.57687 200.96857 138.5925 202.81232L138.5925 204.21857ZM137.49875 202.73419Q137.49875 201.35919 137.10812 200.73419Q136.73312 200.09357 135.88937 200.09357Q135.06125 200.09357 134.67062 200.73419Q134.29562 201.35919 134.29562 202.65607L134.29562 204.39044Q134.29562 205.76544 134.68625 206.43732Q135.0925 207.09357 135.905 207.09357Q136.70187 207.09357 137.0925 206.46857Q137.48312 205.84357 137.49875 204.51544L137.49875 202.73419ZM145.5925 204.21857Q145.5925 206.12482 144.93625 207.06232Q144.29562 207.98419 142.905 207.98419Q141.54562 207.98419 140.88937 207.07794Q140.23312 206.17169 140.20187 204.35919L140.20187 202.92169Q140.20187 201.03107 140.8425 200.12482Q141.49875 199.20294 142.88937 199.20294Q144.26437 199.20294 144.92062 200.09357Q145.57687 200.96857 145.5925 202.81232L145.5925 204.21857ZM144.49875 202.73419Q144.49875 201.35919 144.10812 200.73419Q143.73312 200.09357 142.88937 200.09357Q142.06125 200.09357 141.67062 200.73419Q141.29562 201.35919 141.29562 202.65607L141.29562 204.39044Q141.29562 205.76544 141.68625 206.43732Q142.0925 207.09357 142.905 207.09357Q143.70187 207.09357 144.0925 206.46857Q144.48312 205.84357 144.49875 204.51544L144.49875 202.73419ZM152.5925 204.21857Q152.5925 206.12482 151.93625 207.06232Q151.29562 207.98419 149.905 207.98419Q148.54562 207.98419 147.88937 207.07794Q147.23312 206.17169 147.20187 204.35919L147.20187 202.92169Q147.20187 201.03107 147.8425 200.12482Q148.49875 199.20294 149.88937 199.20294Q151.26437 199.20294 151.92062 200.09357Q152.57687 200.96857 152.5925 202.81232L152.5925 204.21857ZM151.49875 202.73419Q151.49875 201.35919 151.10812 200.73419Q150.73312 200.09357 149.88937 200.09357Q149.06125 200.09357 148.67062 200.73419Q148.29562 201.35919 148.29562 202.65607L148.29562 204.39044Q148.29562 205.76544 148.68625 206.43732Q149.0925 207.09357 149.905 207.09357Q150.70187 207.09357 151.0925 206.46857Q151.48312 205.84357 151.49875 204.51544L151.49875 202.73419ZM156.85812 204.45294Q156.85812 205.76544 156.51437 206.96857Q156.17062 208.15607 155.45187 209.17169Q154.74875 210.18732 153.98312 210.60919L153.74875 209.95294Q154.655 209.26544 155.20187 207.81232Q155.74875 206.34357 155.76437 204.57794L155.76437 204.39044Q155.76437 203.15607 155.49875 202.09357Q155.24875 201.03107 154.78 200.20294Q154.32687 199.35919 153.74875 198.89044L153.98312 198.23419Q154.74875 198.65607 155.45187 199.65607Q156.155 200.65607 156.49875 201.87482Q156.85812 203.07794 156.85812 204.45294Z" fill-rule="nonzero"/><path fill="#757575" d="M62.514374 238.71089L62.514374 230.17964L64.93625 230.17964Q66.04562 230.17964 66.88937 230.67964Q67.74875 231.16402 68.2175 232.07027Q68.68625 232.97652 68.68625 234.16402L68.68625 234.69527Q68.68625 235.91402 68.2175 236.82027Q67.76437 237.72652 66.88937 238.21089Q66.03 238.69527 64.88937 238.71089L62.514374 238.71089ZM63.639374 231.10152L63.639374 237.78902L64.82687 237.78902Q66.12375 237.78902 66.8425 236.99214Q67.57687 236.17964 67.57687 234.67964L67.57687 234.17964Q67.57687 232.72652 66.88937 231.92964Q66.2175 231.11714 64.95187 231.10152L63.639374 231.10152ZM71.53 238.71089L70.45187 238.71089L70.45187 232.36714L71.53 232.36714L71.53 238.71089ZM70.35812 230.69527Q70.35812 230.42964 70.51437 230.24214Q70.68625 230.05464 70.99875 230.05464Q71.31125 230.05464 71.4675 230.24214Q71.63937 230.42964 71.63937 230.69527Q71.63937 230.94527 71.4675 231.13277Q71.31125 231.30464 70.99875 231.30464Q70.68625 231.30464 70.51437 231.13277Q70.35812 230.94527 70.35812 230.69527ZM75.88937 237.94527Q76.4675 237.94527 76.905 237.60152Q77.3425 237.24214 77.38937 236.71089L78.42062 236.71089Q78.38937 237.25777 78.03 237.75777Q77.68625 238.24214 77.10812 238.53902Q76.54562 238.83589 75.88937 238.83589Q74.5925 238.83589 73.82687 237.97652Q73.07687 237.10152 73.07687 235.60152L73.07687 235.41402Q73.07687 234.49214 73.405 233.77339Q73.74875 233.05464 74.37375 232.66402Q75.01437 232.25777 75.88937 232.25777Q76.95187 232.25777 77.655 232.89839Q78.37375 233.52339 78.42062 234.55464L77.38937 234.55464Q77.3425 233.92964 76.92062 233.53902Q76.49875 233.14839 75.88937 233.14839Q75.06125 233.14839 74.60812 233.74214Q74.155 234.33589 74.155 235.46089L74.155 235.66402Q74.155 236.75777 74.60812 237.35152Q75.06125 237.94527 75.88937 237.94527ZM80.82687 230.83589L80.82687 232.36714L81.99875 232.36714L81.99875 233.21089L80.82687 233.21089L80.82687 237.13277Q80.82687 237.52339 80.98312 237.71089Q81.13937 237.89839 81.51437 237.89839Q81.70187 237.89839 82.03 237.83589L82.03 238.71089Q81.60812 238.83589 81.20187 238.83589Q80.48312 238.83589 80.10812 238.39839Q79.73312 237.94527 79.73312 237.13277L79.73312 233.21089L78.57687 233.21089L78.57687 232.36714L79.73312 232.36714L79.73312 230.83589L80.82687 230.83589ZM88.23312 236.47652L84.655 236.47652L83.85812 238.71089L82.70187 238.71089L85.95187 230.17964L86.93625 230.17964L90.20187 238.71089L89.04562 238.71089L88.23312 236.47652ZM84.99875 235.55464L87.905 235.55464L86.45187 231.57027L84.99875 235.55464ZM91.0925 235.49214Q91.0925 234.02339 91.78 233.14839Q92.4675 232.25777 93.5925 232.25777Q94.70187 232.25777 95.35812 233.00777L95.35812 229.71089L96.43625 229.71089L96.43625 238.71089L95.43625 238.71089L95.38937 238.02339Q94.73312 238.83589 93.57687 238.83589Q92.48312 238.83589 91.78 237.92964Q91.0925 237.02339 91.0925 235.57027L91.0925 235.49214ZM92.17062 235.61714Q92.17062 236.69527 92.60812 237.30464Q93.06125 237.91402 93.8425 237.91402Q94.87375 237.91402 95.35812 236.97652L95.35812 234.07027Q94.87375 233.17964 93.85812 233.17964Q93.06125 233.17964 92.60812 233.78902Q92.17062 234.39839 92.17062 235.61714ZM98.0925 235.49214Q98.0925 234.02339 98.78 233.14839Q99.4675 232.25777 100.5925 232.25777Q101.70187 232.25777 102.35812 233.00777L102.35812 229.71089L103.43625 229.71089L103.43625 238.71089L102.43625 238.71089L102.38937 238.02339Q101.73312 238.83589 100.57687 238.83589Q99.48312 238.83589 98.78 237.92964Q98.0925 237.02339 98.0925 235.57027L98.0925 235.49214ZM99.17062 235.61714Q99.17062 236.69527 99.60812 237.30464Q100.06125 237.91402 100.8425 237.91402Q101.87375 237.91402 102.35812 236.97652L102.35812 234.07027Q101.87375 233.17964 100.85812 233.17964Q100.06125 233.17964 99.60812 233.78902Q99.17062 234.39839 99.17062 235.61714ZM108.31125 235.24214Q108.31125 233.92964 108.655 232.71089Q109.01437 231.49214 109.7175 230.49214Q110.42062 229.49214 111.18625 229.08589L111.405 229.80464Q110.54562 230.46089 109.99875 231.80464Q109.45187 233.14839 109.405 234.82027L109.38937 235.32027Q109.38937 237.58589 110.2175 239.24214Q110.7175 240.24214 111.405 240.80464L111.18625 241.46089Q110.405 241.03902 109.68625 240.00777Q108.31125 238.02339 108.31125 235.24214ZM115.79562 238.71089L114.7175 238.71089L114.7175 231.49214L112.53 232.28902L112.53 231.30464L115.63937 230.13277L115.79562 230.13277L115.79562 238.71089ZM124.5925 235.07027Q124.5925 236.97652 123.93625 237.91402Q123.29562 238.83589 121.905 238.83589Q120.54562 238.83589 119.88937 237.92964Q119.23312 237.02339 119.20187 235.21089L119.20187 233.77339Q119.20187 231.88277 119.8425 230.97652Q120.49875 230.05464 121.88937 230.05464Q123.26437 230.05464 123.92062 230.94527Q124.57687 231.82027 124.5925 233.66402L124.5925 235.07027ZM123.49875 233.58589Q123.49875 232.21089 123.10812 231.58589Q122.73312 230.94527 121.88937 230.94527Q121.06125 230.94527 120.67062 231.58589Q120.29562 232.21089 120.29562 233.50777L120.29562 235.24214Q120.29562 236.61714 120.68625 237.28902Q121.0925 237.94527 121.905 237.94527Q122.70187 237.94527 123.0925 237.32027Q123.48312 236.69527 123.49875 235.36714L123.49875 233.58589ZM131.5925 235.07027Q131.5925 236.97652 130.93625 237.91402Q130.29562 238.83589 128.905 238.83589Q127.54562 238.83589 126.88937 237.92964Q126.23312 237.02339 126.20187 235.21089L126.20187 233.77339Q126.20187 231.88277 126.8425 230.97652Q127.49875 230.05464 128.88937 230.05464Q130.26437 230.05464 130.92062 230.94527Q131.57687 231.82027 131.5925 233.66402L131.5925 235.07027ZM130.49875 233.58589Q130.49875 232.21089 130.10812 231.58589Q129.73312 230.94527 128.88937 230.94527Q128.06125 230.94527 127.67062 231.58589Q127.29562 232.21089 127.29562 233.50777L127.29562 235.24214Q127.29562 236.61714 127.68625 237.28902Q128.0925 237.94527 128.905 237.94527Q129.70187 237.94527 130.0925 237.32027Q130.48312 236.69527 130.49875 235.36714L130.49875 233.58589ZM138.5925 235.07027Q138.5925 236.97652 137.93625 237.91402Q137.29562 238.83589 135.905 238.83589Q134.54562 238.83589 133.88937 237.92964Q133.23312 237.02339 133.20187 235.21089L133.20187 233.77339Q133.20187 231.88277 133.8425 230.97652Q134.49875 230.05464 135.88937 230.05464Q137.26437 230.05464 137.92062 230.94527Q138.57687 231.82027 138.5925 233.66402L138.5925 235.07027ZM137.49875 233.58589Q137.49875 232.21089 137.10812 231.58589Q136.73312 230.94527 135.88937 230.94527Q135.06125 230.94527 134.67062 231.58589Q134.29562 232.21089 134.29562 233.50777L134.29562 235.24214Q134.29562 236.61714 134.68625 237.28902Q135.0925 237.94527 135.905 237.94527Q136.70187 237.94527 137.0925 237.32027Q137.48312 236.69527 137.49875 235.36714L137.49875 233.58589ZM145.5925 235.07027Q145.5925 236.97652 144.93625 237.91402Q144.29562 238.83589 142.905 238.83589Q141.54562 238.83589 140.88937 237.92964Q140.23312 237.02339 140.20187 235.21089L140.20187 233.77339Q140.20187 231.88277 140.8425 230.97652Q141.49875 230.05464 142.88937 230.05464Q144.26437 230.05464 144.92062 230.94527Q145.57687 231.82027 145.5925 233.66402L145.5925 235.07027ZM144.49875 233.58589Q144.49875 232.21089 144.10812 231.58589Q143.73312 230.94527 142.88937 230.94527Q142.06125 230.94527 141.67062 231.58589Q141.29562 232.21089 141.29562 233.50777L141.29562 235.24214Q141.29562 236.61714 141.68625 237.28902Q142.0925 237.94527 142.905 237.94527Q143.70187 237.94527 144.0925 237.32027Q144.48312 236.69527 144.49875 235.36714L144.49875 233.58589ZM152.5925 235.07027Q152.5925 236.97652 151.93625 237.91402Q151.29562 238.83589 149.905 238.83589Q148.54562 238.83589 147.88937 237.92964Q147.23312 237.02339 147.20187 235.21089L147.20187 233.77339Q147.20187 231.88277 147.8425 230.97652Q148.49875 230.05464 149.88937 230.05464Q151.26437 230.05464 151.92062 230.94527Q152.57687 231.82027 152.5925 233.66402L152.5925 235.07027ZM151.49875 233.58589Q151.49875 232.21089 151.10812 231.58589Q150.73312 230.94527 149.88937 230.94527Q149.06125 230.94527 148.67062 231.58589Q148.29562 232.21089 148.29562 233.50777L148.29562 235.24214Q148.29562 236.61714 148.68625 237.28902Q149.0925 237.94527 149.905 237.94527Q150.70187 237.94527 151.0925 237.32027Q151.48312 236.69527 151.49875 235.36714L151.49875 233.58589ZM156.85812 235.30464Q156.85812 236.61714 156.51437 237.82027Q156.17062 239.00777 155.45187 240.02339Q154.74875 241.03902 153.98312 241.46089L153.74875 240.80464Q154.655 240.11714 155.20187 238.66402Q155.74875 237.19527 155.76437 235.42964L155.76437 235.24214Q155.76437 234.00777 155.49875 232.94527Q155.24875 231.88277 154.78 231.05464Q154.32687 230.21089 153.74875 229.74214L153.98312 229.08589Q154.74875 229.50777 155.45187 230.50777Q156.155 231.50777 156.49875 232.72652Q156.85812 233.92964 156.85812 235.30464Z" fill-rule="nonzero"/><path fill="#757575" d="M99.63937 266.21884L99.63937 269.5626L98.51437 269.5626L98.51437 261.03134L101.67062 261.03134Q103.06125 261.03134 103.85812 261.7501Q104.655 262.45322 104.655 263.64072Q104.655 264.8751 103.87375 265.54697Q103.10812 266.21884 101.655 266.21884L99.63937 266.21884ZM99.63937 265.29697L101.67062 265.29697Q102.57687 265.29697 103.04562 264.8751Q103.53 264.45322 103.53 263.65634Q103.53 262.89072 103.04562 262.4376Q102.57687 261.96884 101.73312 261.95322L99.63937 261.95322L99.63937 265.29697ZM106.06125 266.32822Q106.06125 265.40634 106.42062 264.65634Q106.79562 263.90634 107.45187 263.51572Q108.10812 263.10947 108.93625 263.10947Q110.23312 263.10947 111.03 264.0001Q111.8425 264.89072 111.8425 266.39072L111.8425 266.46884Q111.8425 267.39072 111.48312 268.1251Q111.12375 268.85947 110.4675 269.28134Q109.81125 269.6876 108.95187 269.6876Q107.67062 269.6876 106.85812 268.79697Q106.06125 267.89072 106.06125 266.40634L106.06125 266.32822ZM107.155 266.46884Q107.155 267.51572 107.63937 268.15634Q108.13937 268.79697 108.95187 268.79697Q109.78 268.79697 110.26437 268.15634Q110.74875 267.5001 110.74875 266.32822Q110.74875 265.29697 110.24875 264.65634Q109.76437 264.0001 108.93625 264.0001Q108.13937 264.0001 107.63937 264.64072Q107.155 265.26572 107.155 266.46884ZM113.06125 266.32822Q113.06125 265.40634 113.42062 264.65634Q113.79562 263.90634 114.45187 263.51572Q115.10812 263.10947 115.93625 263.10947Q117.23312 263.10947 118.03 264.0001Q118.8425 264.89072 118.8425 266.39072L118.8425 266.46884Q118.8425 267.39072 118.48312 268.1251Q118.12375 268.85947 117.4675 269.28134Q116.81125 269.6876 115.95187 269.6876Q114.67062 269.6876 113.85812 268.79697Q113.06125 267.89072 113.06125 266.40634L113.06125 266.32822ZM114.155 266.46884Q114.155 267.51572 114.63937 268.15634Q115.13937 268.79697 115.95187 268.79697Q116.78 268.79697 117.26437 268.15634Q117.74875 267.5001 117.74875 266.32822Q117.74875 265.29697 117.24875 264.65634Q116.76437 264.0001 115.93625 264.0001Q115.13937 264.0001 114.63937 264.64072Q114.155 265.26572 114.155 266.46884ZM121.53 269.5626L120.45187 269.5626L120.45187 260.5626L121.53 260.5626L121.53 269.5626ZM125.98312 269.6876Q124.68625 269.6876 123.87375 268.84384Q123.07687 267.98447 123.07687 266.5626L123.07687 266.3751Q123.07687 265.42197 123.43625 264.6876Q123.79562 263.9376 124.43625 263.53134Q125.0925 263.10947 125.8425 263.10947Q127.07687 263.10947 127.76437 263.92197Q128.45187 264.73447 128.45187 266.2501L128.45187 266.70322L124.155 266.70322Q124.18625 267.64072 124.70187 268.21884Q125.23312 268.79697 126.04562 268.79697Q126.60812 268.79697 126.99875 268.5626Q127.405 268.32822 127.7175 267.9376L128.37375 268.45322Q127.57687 269.6876 125.98312 269.6876ZM125.8425 264.0001Q125.18625 264.0001 124.73312 264.48447Q124.29562 264.95322 124.20187 265.8126L127.37375 265.8126L127.37375 265.73447Q127.32687 264.90634 126.92062 264.45322Q126.53 264.0001 125.8425 264.0001ZM129.0925 266.34384Q129.0925 264.8751 129.78 264.0001Q130.4675 263.10947 131.5925 263.10947Q132.70187 263.10947 133.35812 263.85947L133.35812 260.5626L134.43625 260.5626L134.43625 269.5626L133.43625 269.5626L133.38937 268.8751Q132.73312 269.6876 131.57687 269.6876Q130.48312 269.6876 129.78 268.78134Q129.0925 267.8751 129.0925 266.42197L129.0925 266.34384ZM130.17062 266.46884Q130.17062 267.54697 130.60812 268.15634Q131.06125 268.76572 131.8425 268.76572Q132.87375 268.76572 133.35812 267.82822L133.35812 264.92197Q132.87375 264.03134 131.85812 264.03134Q131.06125 264.03134 130.60812 264.64072Q130.17062 265.2501 130.17062 266.46884ZM141.23312 267.32822L137.655 267.32822L136.85812 269.5626L135.70187 269.5626L138.95187 261.03134L139.93625 261.03134L143.20187 269.5626L142.04562 269.5626L141.23312 267.32822ZM137.99875 266.40634L140.905 266.40634L139.45187 262.42197L137.99875 266.40634ZM144.0925 266.34384Q144.0925 264.8751 144.78 264.0001Q145.4675 263.10947 146.5925 263.10947Q147.70187 263.10947 148.35812 263.85947L148.35812 260.5626L149.43625 260.5626L149.43625 269.5626L148.43625 269.5626L148.38937 268.8751Q147.73312 269.6876 146.57687 269.6876Q145.48312 269.6876 144.78 268.78134Q144.0925 267.8751 144.0925 266.42197L144.0925 266.34384ZM145.17062 266.46884Q145.17062 267.54697 145.60812 268.15634Q146.06125 268.76572 146.8425 268.76572Q147.87375 268.76572 148.35812 267.82822L148.35812 264.92197Q147.87375 264.03134 146.85812 264.03134Q146.06125 264.03134 145.60812 264.64072Q145.17062 265.2501 145.17062 266.46884ZM151.0925 266.34384Q151.0925 264.8751 151.78 264.0001Q152.4675 263.10947 153.5925 263.10947Q154.70187 263.10947 155.35812 263.85947L155.35812 260.5626L156.43625 260.5626L156.43625 269.5626L155.43625 269.5626L155.38937 268.8751Q154.73312 269.6876 153.57687 269.6876Q152.48312 269.6876 151.78 268.78134Q151.0925 267.8751 151.0925 266.42197L151.0925 266.34384ZM152.17062 266.46884Q152.17062 267.54697 152.60812 268.15634Q153.06125 268.76572 153.8425 268.76572Q154.87375 268.76572 155.35812 267.82822L155.35812 264.92197Q154.87375 264.03134 153.85812 264.03134Q153.06125 264.03134 152.60812 264.64072Q152.17062 265.2501 152.17062 266.46884Z" fill-rule="nonzero"/><path fill="#757575" d="M108.31125 281.09384Q108.31125 279.78134 108.655 278.5626Q109.01437 277.34384 109.7175 276.34384Q110.42062 275.34384 111.18625 274.9376L111.405 275.65634Q110.54562 276.3126 109.99875 277.65634Q109.45187 279.0001 109.405 280.67197L109.38937 281.17197Q109.38937 283.4376 110.2175 285.09384Q110.7175 286.09384 111.405 286.65634L111.18625 287.3126Q110.405 286.89072 109.68625 285.85947Q108.31125 283.8751 108.31125 281.09384ZM115.79562 284.5626L114.7175 284.5626L114.7175 277.34384L112.53 278.14072L112.53 277.15634L115.63937 275.98447L115.79562 275.98447L115.79562 284.5626ZM124.5925 280.92197Q124.5925 282.82822 123.93625 283.76572Q123.29562 284.6876 121.905 284.6876Q120.54562 284.6876 119.88937 283.78134Q119.23312 282.8751 119.20187 281.0626L119.20187 279.6251Q119.20187 277.73447 119.8425 276.82822Q120.49875 275.90634 121.88937 275.90634Q123.26437 275.90634 123.92062 276.79697Q124.57687 277.67197 124.5925 279.51572L124.5925 280.92197ZM123.49875 279.4376Q123.49875 278.0626 123.10812 277.4376Q122.73312 276.79697 121.88937 276.79697Q121.06125 276.79697 120.67062 277.4376Q120.29562 278.0626 120.29562 279.35947L120.29562 281.09384Q120.29562 282.46884 120.68625 283.14072Q121.0925 283.79697 121.905 283.79697Q122.70187 283.79697 123.0925 283.17197Q123.48312 282.54697 123.49875 281.21884L123.49875 279.4376ZM131.5925 280.92197Q131.5925 282.82822 130.93625 283.76572Q130.29562 284.6876 128.905 284.6876Q127.54562 284.6876 126.88937 283.78134Q126.23312 282.8751 126.20187 281.0626L126.20187 279.6251Q126.20187 277.73447 126.8425 276.82822Q127.49875 275.90634 128.88937 275.90634Q130.26437 275.90634 130.92062 276.79697Q131.57687 277.67197 131.5925 279.51572L131.5925 280.92197ZM130.49875 279.4376Q130.49875 278.0626 130.10812 277.4376Q129.73312 276.79697 128.88937 276.79697Q128.06125 276.79697 127.67062 277.4376Q127.29562 278.0626 127.29562 279.35947L127.29562 281.09384Q127.29562 282.46884 127.68625 283.14072Q128.0925 283.79697 128.905 283.79697Q129.70187 283.79697 130.0925 283.17197Q130.48312 282.54697 130.49875 281.21884L130.49875 279.4376ZM138.5925 280.92197Q138.5925 282.82822 137.93625 283.76572Q137.29562 284.6876 135.905 284.6876Q134.54562 284.6876 133.88937 283.78134Q133.23312 282.8751 133.20187 281.0626L133.20187 279.6251Q133.20187 277.73447 133.8425 276.82822Q134.49875 275.90634 135.88937 275.90634Q137.26437 275.90634 137.92062 276.79697Q138.57687 277.67197 138.5925 279.51572L138.5925 280.92197ZM137.49875 279.4376Q137.49875 278.0626 137.10812 277.4376Q136.73312 276.79697 135.88937 276.79697Q135.06125 276.79697 134.67062 277.4376Q134.29562 278.0626 134.29562 279.35947L134.29562 281.09384Q134.29562 282.46884 134.68625 283.14072Q135.0925 283.79697 135.905 283.79697Q136.70187 283.79697 137.0925 283.17197Q137.48312 282.54697 137.49875 281.21884L137.49875 279.4376ZM145.5925 280.92197Q145.5925 282.82822 144.93625 283.76572Q144.29562 284.6876 142.905 284.6876Q141.54562 284.6876 140.88937 283.78134Q140.23312 282.8751 140.20187 281.0626L140.20187 279.6251Q140.20187 277.73447 140.8425 276.82822Q141.49875 275.90634 142.88937 275.90634Q144.26437 275.90634 144.92062 276.79697Q145.57687 277.67197 145.5925 279.51572L145.5925 280.92197ZM144.49875 279.4376Q144.49875 278.0626 144.10812 277.4376Q143.73312 276.79697 142.88937 276.79697Q142.06125 276.79697 141.67062 277.4376Q141.29562 278.0626 141.29562 279.35947L141.29562 281.09384Q141.29562 282.46884 141.68625 283.14072Q142.0925 283.79697 142.905 283.79697Q143.70187 283.79697 144.0925 283.17197Q144.48312 282.54697 144.49875 281.21884L144.49875 279.4376ZM152.5925 280.92197Q152.5925 282.82822 151.93625 283.76572Q151.29562 284.6876 149.905 284.6876Q148.54562 284.6876 147.88937 283.78134Q147.23312 282.8751 147.20187 281.0626L147.20187 279.6251Q147.20187 277.73447 147.8425 276.82822Q148.49875 275.90634 149.88937 275.90634Q151.26437 275.90634 151.92062 276.79697Q152.57687 277.67197 152.5925 279.51572L152.5925 280.92197ZM151.49875 279.4376Q151.49875 278.0626 151.10812 277.4376Q150.73312 276.79697 149.88937 276.79697Q149.06125 276.79697 148.67062 277.4376Q148.29562 278.0626 148.29562 279.35947L148.29562 281.09384Q148.29562 282.46884 148.68625 283.14072Q149.0925 283.79697 149.905 283.79697Q150.70187 283.79697 151.0925 283.17197Q151.48312 282.54697 151.49875 281.21884L151.49875 279.4376ZM156.85812 281.15634Q156.85812 282.46884 156.51437 283.67197Q156.17062 284.85947 155.45187 285.8751Q154.74875 286.89072 153.98312 287.3126L153.74875 286.65634Q154.655 285.96884 155.20187 284.51572Q155.74875 283.04697 155.76437 281.28134L155.76437 281.09384Q155.76437 279.85947 155.49875 278.79697Q155.24875 277.73447 154.78 276.90634Q154.32687 276.0626 153.74875 275.59384L153.98312 274.9376Q154.74875 275.35947 155.45187 276.35947Q156.155 277.35947 156.49875 278.57822Q156.85812 279.78134 156.85812 281.15634Z" fill-rule="nonzero"/><path fill="#757575" d="M166.0925 312.8094Q166.0925 314.71564 165.43625 315.65314Q164.79562 316.575 163.405 316.575Q162.04562 316.575 161.38937 315.66876Q160.73312 314.7625 160.70187 312.95L160.70187 311.5125Q160.70187 309.6219 161.3425 308.71564Q161.99875 307.79376 163.38937 307.79376Q164.76437 307.79376 165.42062 308.6844Q166.07687 309.5594 166.0925 311.40314L166.0925 312.8094ZM164.99875 311.325Q164.99875 309.95 164.60812 309.325Q164.23312 308.6844 163.38937 308.6844Q162.56125 308.6844 162.17062 309.325Q161.79562 309.95 161.79562 311.2469L161.79562 312.98126Q161.79562 314.35626 162.18625 315.02814Q162.5925 315.6844 163.405 315.6844Q164.20187 315.6844 164.5925 315.0594Q164.98312 314.4344 164.99875 313.10626L164.99875 311.325Z" fill-rule="nonzero"/><path fill="#757575" d="M235.98021 316.45L230.38646 316.45L230.38646 315.66876L233.33958 312.3875Q233.99583 311.6375 234.24583 311.1844Q234.49583 310.71564 234.49583 310.21564Q234.49583 309.54376 234.08958 309.1219Q233.69896 308.6844 233.01146 308.6844Q232.21458 308.6844 231.76146 309.15314Q231.30833 309.60626 231.30833 310.4344L230.23021 310.4344Q230.23021 309.2469 230.98021 308.52814Q231.74583 307.79376 233.01146 307.79376Q234.21458 307.79376 234.90208 308.41876Q235.58958 309.04376 235.58958 310.09064Q235.58958 311.34064 233.98021 313.09064L231.69896 315.5594L235.98021 315.5594L235.98021 316.45Z" fill-rule="nonzero"/><path fill="#757575" d="M304.61792 313.59064L305.80542 313.59064L305.80542 314.46564L304.61792 314.46564L304.61792 316.45L303.5398 316.45L303.5398 314.46564L299.64917 314.46564L299.64917 313.825L303.46167 307.91876L304.61792 307.91876L304.61792 313.59064ZM300.88354 313.59064L303.5398 313.59064L303.5398 309.40314L303.39917 309.6375L300.88354 313.59064Z" fill-rule="nonzero"/><path fill="#757575" d="M373.95874 307.91876L373.95874 308.825L373.7556 308.825Q372.49 308.85626 371.74 309.59064Q370.99 310.3094 370.865 311.6219Q371.5525 310.85626 372.70874 310.85626Q373.8181 310.85626 374.49 311.6375Q375.16187 312.41876 375.16187 313.66876Q375.16187 314.98126 374.4431 315.77814Q373.72437 316.575 372.5056 316.575Q371.28687 316.575 370.52124 315.6375Q369.77124 314.6844 369.77124 313.2L369.77124 312.79376Q369.77124 310.4344 370.77124 309.1844Q371.77124 307.9344 373.7556 307.91876L373.95874 307.91876ZM372.53687 311.7625Q371.97437 311.7625 371.5056 312.09064Q371.03687 312.41876 370.84937 312.9344L370.84937 313.325Q370.84937 314.3875 371.3181 315.02814Q371.8025 315.66876 372.5056 315.66876Q373.24 315.66876 373.66187 315.1375Q374.08374 314.59064 374.08374 313.71564Q374.08374 312.84064 373.66187 312.3094Q373.24 311.7625 372.53687 311.7625Z" fill-rule="nonzero"/><path fill="#757575" d="M444.53397 310.1375Q444.53397 310.77814 444.19022 311.27814Q443.84647 311.77814 443.28397 312.0594Q443.94022 312.34064 444.33084 312.90314Q444.72147 313.45 444.72147 314.15314Q444.72147 315.2469 443.97147 315.91876Q443.2371 316.575 442.01834 316.575Q440.78397 316.575 440.03397 315.91876Q439.2996 315.2469 439.2996 314.15314Q439.2996 313.45 439.6746 312.90314Q440.0496 312.34064 440.72147 312.0594Q440.15897 311.77814 439.83084 311.27814Q439.50272 310.77814 439.50272 310.1375Q439.50272 309.0594 440.19022 308.4344Q440.87772 307.79376 442.01834 307.79376Q443.14334 307.79376 443.83084 308.4344Q444.53397 309.0594 444.53397 310.1375ZM443.64334 314.1219Q443.64334 313.40314 443.19022 312.96564Q442.7371 312.5125 442.00272 312.5125Q441.26834 312.5125 440.81522 312.96564Q440.37772 313.40314 440.37772 314.1375Q440.37772 314.85626 440.81522 315.27814Q441.25272 315.6844 442.01834 315.6844Q442.76834 315.6844 443.20584 315.2625Q443.64334 314.84064 443.64334 314.1219ZM442.01834 308.6844Q441.37772 308.6844 440.97147 309.09064Q440.58084 309.48126 440.58084 310.16876Q440.58084 310.8094 440.97147 311.21564Q441.3621 311.6219 442.00272 311.6219Q442.65897 311.6219 443.0496 311.21564Q443.44022 310.8094 443.44022 310.16876Q443.44022 309.5125 443.03397 309.10626Q442.62772 308.6844 442.01834 308.6844Z" fill-rule="nonzero"/><path fill="#757575" d="M509.0623 316.45L507.98416 316.45L507.98416 309.23126L505.79666 310.02814L505.79666 309.04376L508.90604 307.8719L509.0623 307.8719L509.0623 316.45ZM517.85913 312.8094Q517.85913 314.71564 517.2029 315.65314Q516.56226 316.575 515.17163 316.575Q513.81226 316.575 513.156 315.66876Q512.49976 314.7625 512.4685 312.95L512.4685 311.5125Q512.4685 309.6219 513.10913 308.71564Q513.7654 307.79376 515.156 307.79376Q516.531 307.79376 517.18726 308.6844Q517.8435 309.5594 517.85913 311.40314L517.85913 312.8094ZM516.7654 311.325Q516.7654 309.95 516.37476 309.325Q515.99976 308.6844 515.156 308.6844Q514.3279 308.6844 513.93726 309.325Q513.56226 309.95 513.56226 311.2469L513.56226 312.98126Q513.56226 314.35626 513.9529 315.02814Q514.35913 315.6844 515.17163 315.6844Q515.9685 315.6844 516.35913 315.0594Q516.74976 314.4344 516.7654 313.10626L516.7654 311.325Z" fill-rule="nonzero"/><path fill="#757575" d="M578.71564 316.45L577.6375 316.45L577.6375 309.23126L575.45 310.02814L575.45 309.04376L578.5594 307.8719L578.71564 307.8719L578.71564 316.45ZM587.7469 316.45L582.15314 316.45L582.15314 315.66876L585.10626 312.3875Q585.7625 311.6375 586.0125 311.1844Q586.2625 310.71564 586.2625 310.21564Q586.2625 309.54376 585.85626 309.1219Q585.46564 308.6844 584.77814 308.6844Q583.98126 308.6844 583.52814 309.15314Q583.075 309.60626 583.075 310.4344L581.9969 310.4344Q581.9969 309.2469 582.7469 308.52814Q583.5125 307.79376 584.77814 307.79376Q585.98126 307.79376 586.66876 308.41876Q587.35626 309.04376 587.35626 310.09064Q587.35626 311.34064 585.7469 313.09064L583.46564 315.5594L587.7469 315.5594L587.7469 316.45Z" fill-rule="nonzero"/><path fill="#757575" d="M22.628124 23.33125L27.26875 34.925L31.925 23.33125L34.346874 23.33125L34.346874 37.55L32.471874 37.55L32.471874 32.01875L32.659374 26.034374L27.9875 37.55L26.55 37.55L21.89375 26.065624L22.08125 32.01875L22.08125 37.55L20.20625 37.55L20.20625 23.33125L22.628124 23.33125ZM38.878124 37.55L37.08125 37.55L37.08125 26.9875L38.878124 26.9875L38.878124 37.55ZM36.925 24.175Q36.925 23.7375 37.190624 23.440624Q37.471874 23.128124 37.9875 23.128124Q38.51875 23.128124 38.784374 23.440624Q39.065624 23.7375 39.065624 24.175Q39.065624 24.6125 38.784374 24.909374Q38.51875 25.20625 37.9875 25.20625Q37.471874 25.20625 37.190624 24.909374Q36.925 24.6125 36.925 24.175ZM43.878124 37.55L42.08125 37.55L42.08125 22.55L43.878124 22.55L43.878124 37.55ZM48.878124 37.55L47.08125 37.55L47.08125 22.55L48.878124 22.55L48.878124 37.55ZM53.878124 37.55L52.08125 37.55L52.08125 26.9875L53.878124 26.9875L53.878124 37.55ZM51.925 24.175Q51.925 23.7375 52.190624 23.440624Q52.471874 23.128124 52.9875 23.128124Q53.51875 23.128124 53.784374 23.440624Q54.065624 23.7375 54.065624 24.175Q54.065624 24.6125 53.784374 24.909374Q53.51875 25.20625 52.9875 25.20625Q52.471874 25.20625 52.190624 24.909374Q51.925 24.6125 51.925 24.175ZM63.065624 34.753124Q63.065624 34.01875 62.51875 33.6125Q61.971874 33.20625 60.596874 32.909374Q59.221874 32.6125 58.409374 32.20625Q57.6125 31.8 57.221874 31.2375Q56.846874 30.659374 56.846874 29.878124Q56.846874 28.58125 57.940624 27.690624Q59.034374 26.784374 60.753124 26.784374Q62.55 26.784374 63.659374 27.721874Q64.78438 28.64375 64.78438 30.08125L62.95625 30.08125Q62.95625 29.346874 62.33125 28.815624Q61.70625 28.26875 60.753124 28.26875Q59.753124 28.26875 59.190624 28.70625Q58.64375 29.128124 58.64375 29.83125Q58.64375 30.471874 59.159374 30.815624Q59.675 31.14375 61.034374 31.45625Q62.39375 31.753124 63.221874 32.175Q64.06563 32.58125 64.47188 33.175Q64.87813 33.76875 64.87813 34.6125Q64.87813 36.034374 63.7375 36.89375Q62.6125 37.753124 60.8 37.753124Q59.534374 37.753124 58.55 37.3Q57.58125 36.846874 57.01875 36.05Q56.471874 35.2375 56.471874 34.3L58.284374 34.3Q58.33125 35.20625 59.003124 35.7375Q59.690624 36.26875 60.8 36.26875Q61.83125 36.26875 62.440624 35.8625Q63.065624 35.440624 63.065624 34.753124ZM71.3 37.753124Q69.15938 37.753124 67.8 36.346874Q66.45625 34.925 66.45625 32.565624L66.45625 32.221874Q66.45625 30.659374 67.05 29.425Q67.65938 28.190624 68.7375 27.4875Q69.81563 26.784374 71.08125 26.784374Q73.14375 26.784374 74.28438 28.14375Q75.425 29.503124 75.425 32.034374L75.425 32.784374L68.26875 32.784374Q68.3 34.346874 69.175 35.315624Q70.05 36.26875 71.39375 36.26875Q72.3625 36.26875 73.01875 35.878124Q73.69063 35.4875 74.19063 34.846874L75.28438 35.70625Q73.95625 37.753124 71.3 37.753124ZM71.08125 28.26875Q69.9875 28.26875 69.2375 29.065624Q68.50313 29.8625 68.33125 31.3L73.6125 31.3L73.6125 31.159374Q73.53438 29.784374 72.8625 29.034374Q72.20625 28.26875 71.08125 28.26875ZM82.15938 36.26875Q83.12813 36.26875 83.84688 35.690624Q84.56563 35.096874 84.64375 34.221874L86.3625 34.221874Q86.3 35.128124 85.72188 35.95625Q85.15938 36.76875 84.19063 37.26875Q83.2375 37.753124 82.15938 37.753124Q80.00313 37.753124 78.72188 36.315624Q77.45625 34.8625 77.45625 32.3625L77.45625 32.065624Q77.45625 30.51875 78.01875 29.315624Q78.58125 28.1125 79.64375 27.45625Q80.70625 26.784374 82.14375 26.784374Q83.925 26.784374 85.09688 27.846874Q86.28438 28.909374 86.3625 30.6125L84.64375 30.6125Q84.56563 29.596874 83.8625 28.940624Q83.175 28.26875 82.14375 28.26875Q80.76875 28.26875 80.00313 29.26875Q79.25313 30.253124 79.25313 32.128124L79.25313 32.471874Q79.25313 34.3 80.00313 35.284374Q80.75313 36.26875 82.15938 36.26875ZM87.44063 32.175Q87.44063 30.6125 88.05 29.378124Q88.65938 28.128124 89.7375 27.45625Q90.83125 26.784374 92.2375 26.784374Q94.39375 26.784374 95.72188 28.284374Q97.06563 29.76875 97.06563 32.253124L97.06563 32.378124Q97.06563 33.925 96.47188 35.159374Q95.87813 36.378124 94.76875 37.065624Q93.675 37.753124 92.25313 37.753124Q90.1125 37.753124 88.76875 36.253124Q87.44063 34.753124 87.44063 32.3L87.44063 32.175ZM89.25313 32.378124Q89.25313 34.14375 90.06563 35.20625Q90.89375 36.26875 92.25313 36.26875Q93.62813 36.26875 94.44063 35.190624Q95.25313 34.1125 95.25313 32.175Q95.25313 30.425 94.425 29.346874Q93.59688 28.26875 92.2375 28.26875Q90.89375 28.26875 90.06563 29.33125Q89.25313 30.39375 89.25313 32.378124ZM100.62813 26.9875L100.69063 28.315624Q101.89375 26.784374 103.84688 26.784374Q107.20625 26.784374 107.22188 30.565624L107.22188 37.55L105.425 37.55L105.425 30.55Q105.40938 29.409374 104.89375 28.8625Q104.39375 28.315624 103.3 28.315624Q102.425 28.315624 101.75313 28.784374Q101.09688 29.253124 100.72188 30.01875L100.72188 37.55L98.925 37.55L98.925 26.9875L100.62813 26.9875ZM109.47188 32.175Q109.47188 29.753124 110.62813 28.26875Q111.78438 26.784374 113.64375 26.784374Q115.50313 26.784374 116.58125 28.05L116.58125 22.55L118.39375 22.55L118.39375 37.55L116.7375 37.55L116.64375 36.409374Q115.56563 37.753124 113.62813 37.753124Q111.8 37.753124 110.62813 36.253124Q109.47188 34.7375 109.47188 32.315624L109.47188 32.175ZM111.28438 32.378124Q111.28438 34.175 112.01875 35.190624Q112.76875 36.20625 114.08125 36.20625Q115.8 36.20625 116.58125 34.675L116.58125 29.815624Q115.78438 28.315624 114.09688 28.315624Q112.76875 28.315624 112.01875 29.346874Q111.28438 30.378124 111.28438 32.378124ZM127.06563 34.753124Q127.06563 34.01875 126.51875 33.6125Q125.97188 33.20625 124.59688 32.909374Q123.22188 32.6125 122.40938 32.20625Q121.6125 31.8 121.22188 31.2375Q120.84688 30.659374 120.84688 29.878124Q120.84688 28.58125 121.94063 27.690624Q123.03438 26.784374 124.75313 26.784374Q126.55 26.784374 127.65938 27.721874Q128.78438 28.64375 128.78438 30.08125L126.95625 30.08125Q126.95625 29.346874 126.33125 28.815624Q125.70625 28.26875 124.75313 28.26875Q123.75313 28.26875 123.19063 28.70625Q122.64375 29.128124 122.64375 29.83125Q122.64375 30.471874 123.15938 30.815624Q123.675 31.14375 125.03438 31.45625Q126.39375 31.753124 127.22188 32.175Q128.06563 32.58125 128.47188 33.175Q128.87813 33.76875 128.87813 34.6125Q128.87813 36.034374 127.7375 36.89375Q126.6125 37.753124 124.8 37.753124Q123.53438 37.753124 122.55 37.3Q121.58125 36.846874 121.01875 36.05Q120.47188 35.2375 120.47188 34.3L122.28438 34.3Q122.33125 35.20625 123.00313 35.7375Q123.69063 36.26875 124.8 36.26875Q125.83125 36.26875 126.44063 35.8625Q127.06563 35.440624 127.06563 34.753124ZM131.28438 38.76875L129.72188 38.76875L135.65938 23.33125L137.20625 23.33125L131.28438 38.76875ZM150.14375 30.89375Q150.14375 32.9875 149.44063 34.55Q148.7375 36.096874 147.44063 36.925Q146.15938 37.753124 144.44063 37.753124Q142.75313 37.753124 141.45625 36.925Q140.15938 36.096874 139.44063 34.565624Q138.72188 33.034374 138.70625 31.01875L138.70625 30.003124Q138.70625 27.95625 139.40938 26.378124Q140.12813 24.8 141.425 23.971874Q142.7375 23.128124 144.40938 23.128124Q146.12813 23.128124 147.425 23.95625Q148.7375 24.784374 149.44063 26.3625Q150.14375 27.925 150.14375 30.003124L150.14375 30.89375ZM148.26875 29.9875Q148.26875 27.45625 147.25313 26.1125Q146.2375 24.753124 144.40938 24.753124Q142.64375 24.753124 141.6125 26.1125Q140.59688 27.45625 140.56563 29.846874L140.56563 30.89375Q140.56563 33.346874 141.59688 34.753124Q142.62813 36.159374 144.44063 36.159374Q146.25313 36.159374 147.2375 34.83125Q148.2375 33.503124 148.26875 31.034374L148.26875 29.9875ZM161.84688 32.378124Q161.84688 34.8 160.7375 36.284374Q159.64375 37.753124 157.75313 37.753124Q155.83125 37.753124 154.72188 36.51875L154.72188 41.6125L152.925 41.6125L152.925 26.9875L154.56563 26.9875L154.65938 28.159374Q155.75313 26.784374 157.72188 26.784374Q159.62813 26.784374 160.7375 28.221874Q161.84688 29.659374 161.84688 32.221874L161.84688 32.378124ZM160.03438 32.175Q160.03438 30.39375 159.26875 29.3625Q158.51875 28.315624 157.19063 28.315624Q155.55 28.315624 154.72188 29.76875L154.72188 34.83125Q155.53438 36.26875 157.20625 36.26875Q158.50313 36.26875 159.26875 35.2375Q160.03438 34.20625 160.03438 32.175ZM172.40938 35.096874L175.01875 26.9875L176.8625 26.9875L173.08125 37.55L171.70625 37.55L167.87813 26.9875L169.72188 26.9875L172.40938 35.096874ZM185.06563 34.753124Q185.06563 34.01875 184.51875 33.6125Q183.97188 33.20625 182.59688 32.909374Q181.22188 32.6125 180.40938 32.20625Q179.6125 31.8 179.22188 31.2375Q178.84688 30.659374 178.84688 29.878124Q178.84688 28.58125 179.94063 27.690624Q181.03438 26.784374 182.75313 26.784374Q184.55 26.784374 185.65938 27.721874Q186.78438 28.64375 186.78438 30.08125L184.95625 30.08125Q184.95625 29.346874 184.33125 28.815624Q183.70625 28.26875 182.75313 28.26875Q181.75313 28.26875 181.19063 28.70625Q180.64375 29.128124 180.64375 29.83125Q180.64375 30.471874 181.15938 30.815624Q181.675 31.14375 183.03438 31.45625Q184.39375 31.753124 185.22188 32.175Q186.06563 32.58125 186.47188 33.175Q186.87813 33.76875 186.87813 34.6125Q186.87813 36.034374 185.7375 36.89375Q184.6125 37.753124 182.8 37.753124Q181.53438 37.753124 180.55 37.3Q179.58125 36.846874 179.01875 36.05Q178.47188 35.2375 178.47188 34.3L180.28438 34.3Q180.33125 35.20625 181.00313 35.7375Q181.69063 36.26875 182.8 36.26875Q183.83125 36.26875 184.44063 35.8625Q185.06563 35.440624 185.06563 34.753124ZM188.95625 36.596874Q188.95625 36.128124 189.2375 35.815624Q189.51875 35.503124 190.06563 35.503124Q190.62813 35.503124 190.90938 35.815624Q191.20625 36.128124 191.20625 36.596874Q191.20625 37.05 190.90938 37.3625Q190.62813 37.659374 190.06563 37.659374Q189.51875 37.659374 189.2375 37.3625Q188.95625 37.05 188.95625 36.596874ZM199.20625 37.55L199.20625 23.33125L203.84688 23.33125Q206.15938 23.33125 207.33125 24.284374Q208.50313 25.2375 208.50313 27.1125Q208.50313 28.1125 207.925 28.878124Q207.3625 29.64375 206.39375 30.065624Q207.53438 30.39375 208.20625 31.3Q208.87813 32.190624 208.87813 33.440624Q208.87813 35.3625 207.62813 36.45625Q206.39375 37.55 204.12813 37.55L199.20625 37.55ZM201.08125 30.89375L201.08125 36.01875L204.175 36.01875Q205.4875 36.01875 206.2375 35.346874Q206.9875 34.659374 206.9875 33.471874Q206.9875 30.89375 204.20625 30.89375L201.08125 30.89375ZM201.08125 29.39375L203.90938 29.39375Q205.14375 29.39375 205.87813 28.784374Q206.6125 28.159374 206.6125 27.1125Q206.6125 25.940624 205.925 25.409374Q205.25313 24.878124 203.84688 24.878124L201.08125 24.878124L201.08125 29.39375ZM215.3 37.753124Q213.15938 37.753124 211.8 36.346874Q210.45625 34.925 210.45625 32.565624L210.45625 32.221874Q210.45625 30.659374 211.05 29.425Q211.65938 28.190624 212.7375 27.4875Q213.81563 26.784374 215.08125 26.784374Q217.14375 26.784374 218.28438 28.14375Q219.425 29.503124 219.425 32.034374L219.425 32.784374L212.26875 32.784374Q212.3 34.346874 213.175 35.315624Q214.05 36.26875 215.39375 36.26875Q216.3625 36.26875 217.01875 35.878124Q217.69063 35.4875 218.19063 34.846874L219.28438 35.70625Q217.95625 37.753124 215.3 37.753124ZM215.08125 28.26875Q213.9875 28.26875 213.2375 29.065624Q212.50313 29.8625 212.33125 31.3L217.6125 31.3L217.6125 31.159374Q217.53438 29.784374 216.8625 29.034374Q216.20625 28.26875 215.08125 28.26875ZM223.62813 26.9875L223.69063 28.315624Q224.89375 26.784374 226.84688 26.784374Q230.20625 26.784374 230.22188 30.565624L230.22188 37.55L228.425 37.55L228.425 30.55Q228.40938 29.409374 227.89375 28.8625Q227.39375 28.315624 226.3 28.315624Q225.425 28.315624 224.75313 28.784374Q224.09688 29.253124 223.72188 30.01875L223.72188 37.55L221.925 37.55L221.925 26.9875L223.62813 26.9875ZM237.15938 36.26875Q238.12813 36.26875 238.84688 35.690624Q239.56563 35.096874 239.64375 34.221874L241.3625 34.221874Q241.3 35.128124 240.72188 35.95625Q240.15938 36.76875 239.19063 37.26875Q238.2375 37.753124 237.15938 37.753124Q235.00313 37.753124 233.72188 36.315624Q232.45625 34.8625 232.45625 32.3625L232.45625 32.065624Q232.45625 30.51875 233.01875 29.315624Q233.58125 28.1125 234.64375 27.45625Q235.70625 26.784374 237.14375 26.784374Q238.925 26.784374 240.09688 27.846874Q241.28438 28.909374 241.3625 30.6125L239.64375 30.6125Q239.56563 29.596874 238.8625 28.940624Q238.175 28.26875 237.14375 28.26875Q235.76875 28.26875 235.00313 29.26875Q234.25313 30.253124 234.25313 32.128124L234.25313 32.471874Q234.25313 34.3 235.00313 35.284374Q235.75313 36.26875 237.15938 36.26875ZM244.72188 28.26875Q245.925 26.784374 247.84688 26.784374Q251.20625 26.784374 251.22188 30.565624L251.22188 37.55L249.425 37.55L249.425 30.55Q249.40938 29.409374 248.89375 28.8625Q248.39375 28.315624 247.3 28.315624Q246.425 28.315624 245.75313 28.784374Q245.09688 29.253124 244.72188 30.01875L244.72188 37.55L242.925 37.55L242.925 22.55L244.72188 22.55L244.72188 28.26875ZM255.6125 26.9875L255.65938 28.159374Q256.83124 26.784374 258.8 26.784374Q261.01874 26.784374 261.8156 28.4875Q262.34686 27.721874 263.1906 27.253124Q264.03436 26.784374 265.1906 26.784374Q268.65936 26.784374 268.72186 30.471874L268.72186 37.55L266.90936 37.55L266.90936 30.58125Q266.90936 29.440624 266.39374 28.878124Q265.8781 28.315624 264.65936 28.315624Q263.65936 28.315624 262.9875 28.925Q262.33124 29.51875 262.22186 30.534374L262.22186 37.55L260.40936 37.55L260.40936 30.628124Q260.40936 28.315624 258.14374 28.315624Q256.3625 28.315624 255.72188 29.83125L255.72188 37.55L253.90938 37.55L253.90938 26.9875L255.6125 26.9875ZM278.4406 37.55Q278.28436 37.2375 278.1906 36.440624Q276.925 37.753124 275.175 37.753124Q273.6125 37.753124 272.6125 36.8625Q271.6125 35.971874 271.6125 34.6125Q271.6125 32.971874 272.8625 32.065624Q274.1281 31.14375 276.39374 31.14375L278.15936 31.14375L278.15936 30.315624Q278.15936 29.3625 277.58124 28.8Q277.01874 28.2375 275.925 28.2375Q274.95624 28.2375 274.3 28.7375Q273.64374 29.221874 273.64374 29.909374L271.83124 29.909374Q271.83124 29.128124 272.39374 28.39375Q272.95624 27.64375 273.90936 27.221874Q274.8781 26.784374 276.03436 26.784374Q277.8625 26.784374 278.89374 27.70625Q279.925 28.6125 279.97186 30.221874L279.97186 35.08125Q279.97186 36.534374 280.33124 37.39375L280.33124 37.55L278.4406 37.55ZM275.4406 36.175Q276.3 36.175 277.05 35.7375Q277.8156 35.3 278.15936 34.596874L278.15936 32.425L276.7375 32.425Q273.425 32.425 273.425 34.3625Q273.425 35.221874 273.9875 35.70625Q274.55 36.175 275.4406 36.175ZM288.01874 28.596874Q287.6125 28.534374 287.14374 28.534374Q285.3625 28.534374 284.72186 30.05L284.72186 37.55L282.925 37.55L282.925 26.9875L284.675 26.9875L284.70624 28.20625Q285.59686 26.784374 287.22186 26.784374Q287.7531 26.784374 288.01874 26.925L288.01874 28.596874ZM292.8625 32.659374L291.7375 33.83125L291.7375 37.55L289.925 37.55L289.925 22.55L291.7375 22.55L291.7375 31.628124L292.70624 30.45625L295.9875 26.9875L298.1906 26.9875L294.08124 31.39375L298.675 37.55L296.55 37.55L292.8625 32.659374Z" fill-rule="nonzero"/></svg>