<svg version="1.1" viewBox="0.0 0.0 540.0 334.0" fill="none" stroke="none" stroke-linecap="square" stroke-miterlimit="10" width="540" height="334" xmlns:xlink="http://www.w3.org/1999/xlink" xmlns="http://www.w3.org/2000/svg"><path fill="#ffffff" d="M0 0L540.0 0L540.0 334.0L0 334.0L0 0Z" fill-rule="nonzero"/><path fill="#ffffff" d="M0 0L540.0 0L540.0 334.0L0 334.0L0 0Z" fill-rule="nonzero"/><path stroke="#333333" stroke-width="1.0" stroke-linecap="butt" d="M60.5 296.5L523.5 296.5" fill-rule="nonzero"/><path stroke="#cccccc" stroke-width="1.0" stroke-linecap="butt" d="M60.5 226.5L523.5 226.5" fill-rule="nonzero"/><path stroke="#cccccc" stroke-width="1.0" stroke-linecap="butt" d="M60.5 155.5L523.5 155.5" fill-rule="nonzero"/><path stroke="#cccccc" stroke-width="1.0" stroke-linecap="butt" d="M60.5 85.5L523.5 85.5" fill-rule="nonzero"/><clipPath id="id_0"><path d="M60.7 85.46667L523.3 85.46667L523.3 296.3L60.7 296.3L60.7 85.46667Z" clip-rule="nonzero"/></clipPath><path stroke="#000000" stroke-width="0.0" stroke-linecap="butt" stroke-opacity="0.0" clip-path="url(#id_0)" d="M193.0 296.0L130.0 296.0L130.0 136.0C130.0 134.89543 130.89543 134.0 132.0 134.0L191.0 134.0C192.10457 134.0 193.0 134.89543 193.0 136.0Z" fill-rule="nonzero"/><path fill="#4285f4" clip-path="url(#id_0)" d="M193.0 296.0L130.0 296.0L130.0 136.0C130.0 134.89543 130.89543 134.0 132.0 134.0L191.0 134.0C192.10457 134.0 193.0 134.89543 193.0 136.0Z" fill-rule="nonzero"/><path stroke="#000000" stroke-width="0.0" stroke-linecap="butt" stroke-opacity="0.0" clip-path="url(#id_0)" d="M389.0 296.0L326.0 296.0L326.0 195.0C326.0 193.89543 326.89542 193.0 328.0 193.0L387.0 193.0C388.10458 193.0 389.0 193.89543 389.0 195.0Z" fill-rule="nonzero"/><path fill="#4285f4" clip-path="url(#id_0)" d="M389.0 296.0L326.0 296.0L326.0 195.0C326.0 193.89543 326.89542 193.0 328.0 193.0L387.0 193.0C388.10458 193.0 389.0 193.89543 389.0 195.0Z" fill-rule="nonzero"/><path stroke="#000000" stroke-width="0.0" stroke-linecap="butt" stroke-opacity="0.0" clip-path="url(#id_0)" d="M257.0 296.0L194.0 296.0L194.0 113.0C194.0 111.89543 194.89543 111.0 196.0 111.0L255.0 111.0C256.10458 111.0 257.0 111.89543 257.0 113.0Z" fill-rule="nonzero"/><path fill="#db4437" clip-path="url(#id_0)" d="M257.0 296.0L194.0 296.0L194.0 113.0C194.0 111.89543 194.89543 111.0 196.0 111.0L255.0 111.0C256.10458 111.0 257.0 111.89543 257.0 113.0Z" fill-rule="nonzero"/><path stroke="#000000" stroke-width="0.0" stroke-linecap="butt" stroke-opacity="0.0" clip-path="url(#id_0)" d="M453.0 296.0L390.0 296.0L390.0 296.0L453.0 296.0Z" fill-rule="nonzero"/><path fill="#db4437" clip-path="url(#id_0)" d="M453.0 296.0L390.0 296.0L390.0 296.0L453.0 296.0Z" fill-rule="nonzero"/><path stroke="#4285f4" stroke-width="3.0" stroke-linejoin="round" stroke-linecap="round" d="M147.26562 151.02539L146.1875 151.02539L146.1875 143.80664L144.0 144.60352L144.0 143.61914L147.10938 142.44727L147.26562 142.44727L147.26562 151.02539ZM154.26562 151.02539L153.1875 151.02539L153.1875 143.80664L151.0 144.60352L151.0 143.61914L154.10938 142.44727L154.26562 142.44727L154.26562 151.02539ZM157.84375 150.46289Q157.84375 150.18164 158.0 149.99414Q158.17188 149.80664 158.5 149.80664Q158.84375 149.80664 159.01562 149.99414Q159.1875 150.18164 159.1875 150.46289Q159.1875 150.72852 159.01562 150.91602Q158.84375 151.08789 158.5 151.08789Q158.17188 151.08789 158.0 150.91602Q157.84375 150.72852 157.84375 150.46289ZM161.20312 146.74414L161.64062 142.49414L166.01562 142.49414L166.01562 143.49414L162.5625 143.49414L162.29688 145.82227Q162.9375 145.44727 163.73438 145.44727Q164.89062 145.44727 165.57812 146.22852Q166.26562 146.99414 166.26562 148.30664Q166.26562 149.61914 165.54688 150.38477Q164.84375 151.15039 163.5625 151.15039Q162.4375 151.15039 161.71875 150.52539Q161.0 149.88477 160.90625 148.77539L161.92188 148.77539Q162.03125 149.50977 162.45312 149.88477Q162.875 150.25977 163.5625 150.25977Q164.3125 150.25977 164.75 149.74414Q165.1875 149.22852 165.1875 148.32227Q165.1875 147.46289 164.71875 146.94727Q164.25 146.43164 163.46875 146.43164Q162.76562 146.43164 162.35938 146.72852L162.07812 146.96289L161.20312 146.74414ZM169.28125 146.22852L170.09375 146.22852Q170.875 146.21289 171.3125 145.82227Q171.75 145.43164 171.75 144.75977Q171.75 143.25977 170.25 143.25977Q169.54688 143.25977 169.125 143.66602Q168.71875 144.07227 168.71875 144.72852L167.625 144.72852Q167.625 143.71289 168.35938 143.04102Q169.10938 142.36914 170.25 142.36914Q171.45312 142.36914 172.14062 143.00977Q172.82812 143.65039 172.82812 144.79102Q172.82812 145.35352 172.46875 145.86914Q172.10938 146.38477 171.48438 146.65039Q172.1875 146.86914 172.5625 147.38477Q172.95312 147.90039 172.95312 148.65039Q172.95312 149.79102 172.20312 150.47852Q171.45312 151.15039 170.25 151.15039Q169.0625 151.15039 168.29688 150.49414Q167.54688 149.83789 167.54688 148.77539L168.64062 148.77539Q168.64062 149.44727 169.07812 149.85352Q169.51562 150.25977 170.26562 150.25977Q171.04688 150.25977 171.45312 149.85352Q171.875 149.43164 171.875 148.66602Q171.875 147.93164 171.42188 147.54102Q170.96875 147.13477 170.09375 147.11914L169.28125 147.11914L169.28125 146.22852ZM178.26562 151.02539L177.1875 151.02539L177.1875 143.80664L175.0 144.60352L175.0 143.61914L178.10938 142.44727L178.26562 142.44727L178.26562 151.02539Z" fill-rule="nonzero"/><path fill="#ffffff" d="M147.26562 151.02539L146.1875 151.02539L146.1875 143.80664L144.0 144.60352L144.0 143.61914L147.10938 142.44727L147.26562 142.44727L147.26562 151.02539ZM154.26562 151.02539L153.1875 151.02539L153.1875 143.80664L151.0 144.60352L151.0 143.61914L154.10938 142.44727L154.26562 142.44727L154.26562 151.02539ZM157.84375 150.46289Q157.84375 150.18164 158.0 149.99414Q158.17188 149.80664 158.5 149.80664Q158.84375 149.80664 159.01562 149.99414Q159.1875 150.18164 159.1875 150.46289Q159.1875 150.72852 159.01562 150.91602Q158.84375 151.08789 158.5 151.08789Q158.17188 151.08789 158.0 150.91602Q157.84375 150.72852 157.84375 150.46289ZM161.20312 146.74414L161.64062 142.49414L166.01562 142.49414L166.01562 143.49414L162.5625 143.49414L162.29688 145.82227Q162.9375 145.44727 163.73438 145.44727Q164.89062 145.44727 165.57812 146.22852Q166.26562 146.99414 166.26562 148.30664Q166.26562 149.61914 165.54688 150.38477Q164.84375 151.15039 163.5625 151.15039Q162.4375 151.15039 161.71875 150.52539Q161.0 149.88477 160.90625 148.77539L161.92188 148.77539Q162.03125 149.50977 162.45312 149.88477Q162.875 150.25977 163.5625 150.25977Q164.3125 150.25977 164.75 149.74414Q165.1875 149.22852 165.1875 148.32227Q165.1875 147.46289 164.71875 146.94727Q164.25 146.43164 163.46875 146.43164Q162.76562 146.43164 162.35938 146.72852L162.07812 146.96289L161.20312 146.74414ZM169.28125 146.22852L170.09375 146.22852Q170.875 146.21289 171.3125 145.82227Q171.75 145.43164 171.75 144.75977Q171.75 143.25977 170.25 143.25977Q169.54688 143.25977 169.125 143.66602Q168.71875 144.07227 168.71875 144.72852L167.625 144.72852Q167.625 143.71289 168.35938 143.04102Q169.10938 142.36914 170.25 142.36914Q171.45312 142.36914 172.14062 143.00977Q172.82812 143.65039 172.82812 144.79102Q172.82812 145.35352 172.46875 145.86914Q172.10938 146.38477 171.48438 146.65039Q172.1875 146.86914 172.5625 147.38477Q172.95312 147.90039 172.95312 148.65039Q172.95312 149.79102 172.20312 150.47852Q171.45312 151.15039 170.25 151.15039Q169.0625 151.15039 168.29688 150.49414Q167.54688 149.83789 167.54688 148.77539L168.64062 148.77539Q168.64062 149.44727 169.07812 149.85352Q169.51562 150.25977 170.26562 150.25977Q171.04688 150.25977 171.45312 149.85352Q171.875 149.43164 171.875 148.66602Q171.875 147.93164 171.42188 147.54102Q170.96875 147.13477 170.09375 147.11914L169.28125 147.11914L169.28125 146.22852ZM178.26562 151.02539L177.1875 151.02539L177.1875 143.80664L175.0 144.60352L175.0 143.61914L178.10938 142.44727L178.26562 142.44727L178.26562 151.02539Z" fill-rule="nonzero"/><path stroke="#4285f4" stroke-width="3.0" stroke-linejoin="round" stroke-linecap="round" d="M348.71875 201.47624L345.1875 209.39812L344.04688 209.39812L347.5625 201.75749L342.95312 201.75749L342.95312 200.86687L348.71875 200.86687L348.71875 201.47624ZM350.34375 208.83562Q350.34375 208.55437 350.5 208.36687Q350.67188 208.17937 351.0 208.17937Q351.34375 208.17937 351.51562 208.36687Q351.6875 208.55437 351.6875 208.83562Q351.6875 209.10124 351.51562 209.28874Q351.34375 209.46062 351.0 209.46062Q350.67188 209.46062 350.5 209.28874Q350.34375 209.10124 350.34375 208.83562ZM354.78125 204.60124L355.59375 204.60124Q356.375 204.58562 356.8125 204.19499Q357.25 203.80437 357.25 203.13249Q357.25 201.63249 355.75 201.63249Q355.04688 201.63249 354.625 202.03874Q354.21875 202.44499 354.21875 203.10124L353.125 203.10124Q353.125 202.08562 353.85938 201.41374Q354.60938 200.74187 355.75 200.74187Q356.95312 200.74187 357.64062 201.38249Q358.32812 202.02312 358.32812 203.16374Q358.32812 203.72624 357.96875 204.24187Q357.60938 204.75749 356.98438 205.02312Q357.6875 205.24187 358.0625 205.75749Q358.45312 206.27312 358.45312 207.02312Q358.45312 208.16374 357.70312 208.85124Q356.95312 209.52312 355.75 209.52312Q354.5625 209.52312 353.79688 208.86687Q353.04688 208.21062 353.04688 207.14812L354.14062 207.14812Q354.14062 207.81999 354.57812 208.22624Q355.01562 208.63249 355.76562 208.63249Q356.54688 208.63249 356.95312 208.22624Q357.375 207.80437 357.375 207.03874Q357.375 206.30437 356.92188 205.91374Q356.46875 205.50749 355.59375 205.49187L354.78125 205.49187L354.78125 204.60124ZM365.71875 201.47624L362.1875 209.39812L361.04688 209.39812L364.5625 201.75749L359.95312 201.75749L359.95312 200.86687L365.71875 200.86687L365.71875 201.47624ZM372.39062 203.08562Q372.39062 203.72624 372.04688 204.22624Q371.70312 204.72624 371.14062 205.00749Q371.79688 205.28874 372.1875 205.85124Q372.57812 206.39812 372.57812 207.10124Q372.57812 208.19499 371.82812 208.86687Q371.09375 209.52312 369.875 209.52312Q368.64062 209.52312 367.89062 208.86687Q367.15625 208.19499 367.15625 207.10124Q367.15625 206.39812 367.53125 205.85124Q367.90625 205.28874 368.57812 205.00749Q368.01562 204.72624 367.6875 204.22624Q367.35938 203.72624 367.35938 203.08562Q367.35938 202.00749 368.04688 201.38249Q368.73438 200.74187 369.875 200.74187Q371.0 200.74187 371.6875 201.38249Q372.39062 202.00749 372.39062 203.08562ZM371.5 207.06999Q371.5 206.35124 371.04688 205.91374Q370.59375 205.46062 369.85938 205.46062Q369.125 205.46062 368.67188 205.91374Q368.23438 206.35124 368.23438 207.08562Q368.23438 207.80437 368.67188 208.22624Q369.10938 208.63249 369.875 208.63249Q370.625 208.63249 371.0625 208.21062Q371.5 207.78874 371.5 207.06999ZM369.875 201.63249Q369.23438 201.63249 368.82812 202.03874Q368.4375 202.42937 368.4375 203.11687Q368.4375 203.75749 368.82812 204.16374Q369.21875 204.56999 369.85938 204.56999Q370.51562 204.56999 370.90625 204.16374Q371.29688 203.75749 371.29688 203.11687Q371.29688 202.46062 370.89062 202.05437Q370.48438 201.63249 369.875 201.63249Z" fill-rule="nonzero"/><path fill="#ffffff" d="M348.71875 201.47624L345.1875 209.39812L344.04688 209.39812L347.5625 201.75749L342.95312 201.75749L342.95312 200.86687L348.71875 200.86687L348.71875 201.47624ZM350.34375 208.83562Q350.34375 208.55437 350.5 208.36687Q350.67188 208.17937 351.0 208.17937Q351.34375 208.17937 351.51562 208.36687Q351.6875 208.55437 351.6875 208.83562Q351.6875 209.10124 351.51562 209.28874Q351.34375 209.46062 351.0 209.46062Q350.67188 209.46062 350.5 209.28874Q350.34375 209.10124 350.34375 208.83562ZM354.78125 204.60124L355.59375 204.60124Q356.375 204.58562 356.8125 204.19499Q357.25 203.80437 357.25 203.13249Q357.25 201.63249 355.75 201.63249Q355.04688 201.63249 354.625 202.03874Q354.21875 202.44499 354.21875 203.10124L353.125 203.10124Q353.125 202.08562 353.85938 201.41374Q354.60938 200.74187 355.75 200.74187Q356.95312 200.74187 357.64062 201.38249Q358.32812 202.02312 358.32812 203.16374Q358.32812 203.72624 357.96875 204.24187Q357.60938 204.75749 356.98438 205.02312Q357.6875 205.24187 358.0625 205.75749Q358.45312 206.27312 358.45312 207.02312Q358.45312 208.16374 357.70312 208.85124Q356.95312 209.52312 355.75 209.52312Q354.5625 209.52312 353.79688 208.86687Q353.04688 208.21062 353.04688 207.14812L354.14062 207.14812Q354.14062 207.81999 354.57812 208.22624Q355.01562 208.63249 355.76562 208.63249Q356.54688 208.63249 356.95312 208.22624Q357.375 207.80437 357.375 207.03874Q357.375 206.30437 356.92188 205.91374Q356.46875 205.50749 355.59375 205.49187L354.78125 205.49187L354.78125 204.60124ZM365.71875 201.47624L362.1875 209.39812L361.04688 209.39812L364.5625 201.75749L359.95312 201.75749L359.95312 200.86687L365.71875 200.86687L365.71875 201.47624ZM372.39062 203.08562Q372.39062 203.72624 372.04688 204.22624Q371.70312 204.72624 371.14062 205.00749Q371.79688 205.28874 372.1875 205.85124Q372.57812 206.39812 372.57812 207.10124Q372.57812 208.19499 371.82812 208.86687Q371.09375 209.52312 369.875 209.52312Q368.64062 209.52312 367.89062 208.86687Q367.15625 208.19499 367.15625 207.10124Q367.15625 206.39812 367.53125 205.85124Q367.90625 205.28874 368.57812 205.00749Q368.01562 204.72624 367.6875 204.22624Q367.35938 203.72624 367.35938 203.08562Q367.35938 202.00749 368.04688 201.38249Q368.73438 200.74187 369.875 200.74187Q371.0 200.74187 371.6875 201.38249Q372.39062 202.00749 372.39062 203.08562ZM371.5 207.06999Q371.5 206.35124 371.04688 205.91374Q370.59375 205.46062 369.85938 205.46062Q369.125 205.46062 368.67188 205.91374Q368.23438 206.35124 368.23438 207.08562Q368.23438 207.80437 368.67188 208.22624Q369.10938 208.63249 369.875 208.63249Q370.625 208.63249 371.0625 208.21062Q371.5 207.78874 371.5 207.06999ZM369.875 201.63249Q369.23438 201.63249 368.82812 202.03874Q368.4375 202.42937 368.4375 203.11687Q368.4375 203.75749 368.82812 204.16374Q369.21875 204.56999 369.85938 204.56999Q370.51562 204.56999 370.90625 204.16374Q371.29688 203.75749 371.29688 203.11687Q371.29688 202.46062 370.89062 202.05437Q370.48438 201.63249 369.875 201.63249Z" fill-rule="nonzero"/><path stroke="#db4437" stroke-width="3.0" stroke-linejoin="round" stroke-linecap="round" d="M211.26562 127.43556L210.1875 127.43556L210.1875 120.21681L208.0 121.01369L208.0 120.02931L211.10938 118.85744L211.26562 118.85744L211.26562 127.43556ZM216.28125 122.63869L217.09375 122.63869Q217.875 122.62306 218.3125 122.23244Q218.75 121.84181 218.75 121.16994Q218.75 119.66994 217.25 119.66994Q216.54688 119.66994 216.125 120.07619Q215.71875 120.48244 215.71875 121.13869L214.625 121.13869Q214.625 120.12306 215.35938 119.45119Q216.10938 118.77931 217.25 118.77931Q218.45312 118.77931 219.14062 119.41994Q219.82812 120.06056 219.82812 121.20119Q219.82812 121.76369 219.46875 122.27931Q219.10938 122.79494 218.48438 123.06056Q219.1875 123.27931 219.5625 123.79494Q219.95312 124.31056 219.95312 125.06056Q219.95312 126.20119 219.20312 126.88869Q218.45312 127.56056 217.25 127.56056Q216.0625 127.56056 215.29688 126.90431Q214.54688 126.24806 214.54688 125.18556L215.64062 125.18556Q215.64062 125.85744 216.07812 126.26369Q216.51562 126.66994 217.26562 126.66994Q218.04688 126.66994 218.45312 126.26369Q218.875 125.84181 218.875 125.07619Q218.875 124.34181 218.42188 123.95119Q217.96875 123.54494 217.09375 123.52931L216.28125 123.52931L216.28125 122.63869ZM221.84375 126.87306Q221.84375 126.59181 222.0 126.40431Q222.17188 126.21681 222.5 126.21681Q222.84375 126.21681 223.01562 126.40431Q223.1875 126.59181 223.1875 126.87306Q223.1875 127.13869 223.01562 127.32619Q222.84375 127.49806 222.5 127.49806Q222.17188 127.49806 222.0 127.32619Q221.84375 127.13869 221.84375 126.87306ZM230.29688 127.43556L224.70312 127.43556L224.70312 126.65431L227.65625 123.37306Q228.3125 122.62306 228.5625 122.16994Q228.8125 121.70119 228.8125 121.20119Q228.8125 120.52931 228.40625 120.10744Q228.01562 119.66994 227.32812 119.66994Q226.53125 119.66994 226.07812 120.13869Q225.625 120.59181 225.625 121.41994L224.54688 121.41994Q224.54688 120.23244 225.29688 119.51369Q226.0625 118.77931 227.32812 118.77931Q228.53125 118.77931 229.21875 119.40431Q229.90625 120.02931 229.90625 121.07619Q229.90625 122.32619 228.29688 124.07619L226.01562 126.54494L230.29688 126.54494L230.29688 127.43556ZM237.0625 123.79494Q237.0625 125.70119 236.40625 126.63869Q235.76562 127.56056 234.375 127.56056Q233.01562 127.56056 232.35938 126.65431Q231.70312 125.74806 231.67188 123.93556L231.67188 122.49806Q231.67188 120.60744 232.3125 119.70119Q232.96875 118.77931 234.35938 118.77931Q235.73438 118.77931 236.39062 119.66994Q237.04688 120.54494 237.0625 122.38869L237.0625 123.79494ZM235.96875 122.31056Q235.96875 120.93556 235.57812 120.31056Q235.20312 119.66994 234.35938 119.66994Q233.53125 119.66994 233.14062 120.31056Q232.76562 120.93556 232.76562 122.23244L232.76562 123.96681Q232.76562 125.34181 233.15625 126.01369Q233.5625 126.66994 234.375 126.66994Q235.17188 126.66994 235.5625 126.04494Q235.95312 125.41994 235.96875 124.09181L235.96875 122.31056ZM242.85938 123.68556Q242.53125 124.09181 242.04688 124.34181Q241.57812 124.57619 241.01562 124.57619Q240.28125 124.57619 239.73438 124.21681Q239.1875 123.85744 238.89062 123.20119Q238.59375 122.52931 238.59375 121.73244Q238.59375 120.88869 238.90625 120.20119Q239.23438 119.51369 239.82812 119.15431Q240.4375 118.77931 241.23438 118.77931Q242.5 118.77931 243.21875 119.73244Q243.95312 120.68556 243.95312 122.31056L243.95312 122.62306Q243.95312 125.12306 242.96875 126.26369Q241.98438 127.40431 240.0 127.43556L239.78125 127.43556L239.78125 126.52931L240.01562 126.52931Q241.35938 126.49806 242.07812 125.82619Q242.79688 125.15431 242.85938 123.68556ZM241.1875 123.68556Q241.73438 123.68556 242.1875 123.35744Q242.65625 123.01369 242.875 122.52931L242.875 122.09181Q242.875 121.02931 242.40625 120.35744Q241.9375 119.68556 241.23438 119.68556Q240.51562 119.68556 240.07812 120.23244Q239.65625 120.77931 239.65625 121.68556Q239.65625 122.56056 240.0625 123.12306Q240.48438 123.68556 241.1875 123.68556Z" fill-rule="nonzero"/><path fill="#ffffff" d="M211.26562 127.43556L210.1875 127.43556L210.1875 120.21681L208.0 121.01369L208.0 120.02931L211.10938 118.85744L211.26562 118.85744L211.26562 127.43556ZM216.28125 122.63869L217.09375 122.63869Q217.875 122.62306 218.3125 122.23244Q218.75 121.84181 218.75 121.16994Q218.75 119.66994 217.25 119.66994Q216.54688 119.66994 216.125 120.07619Q215.71875 120.48244 215.71875 121.13869L214.625 121.13869Q214.625 120.12306 215.35938 119.45119Q216.10938 118.77931 217.25 118.77931Q218.45312 118.77931 219.14062 119.41994Q219.82812 120.06056 219.82812 121.20119Q219.82812 121.76369 219.46875 122.27931Q219.10938 122.79494 218.48438 123.06056Q219.1875 123.27931 219.5625 123.79494Q219.95312 124.31056 219.95312 125.06056Q219.95312 126.20119 219.20312 126.88869Q218.45312 127.56056 217.25 127.56056Q216.0625 127.56056 215.29688 126.90431Q214.54688 126.24806 214.54688 125.18556L215.64062 125.18556Q215.64062 125.85744 216.07812 126.26369Q216.51562 126.66994 217.26562 126.66994Q218.04688 126.66994 218.45312 126.26369Q218.875 125.84181 218.875 125.07619Q218.875 124.34181 218.42188 123.95119Q217.96875 123.54494 217.09375 123.52931L216.28125 123.52931L216.28125 122.63869ZM221.84375 126.87306Q221.84375 126.59181 222.0 126.40431Q222.17188 126.21681 222.5 126.21681Q222.84375 126.21681 223.01562 126.40431Q223.1875 126.59181 223.1875 126.87306Q223.1875 127.13869 223.01562 127.32619Q222.84375 127.49806 222.5 127.49806Q222.17188 127.49806 222.0 127.32619Q221.84375 127.13869 221.84375 126.87306ZM230.29688 127.43556L224.70312 127.43556L224.70312 126.65431L227.65625 123.37306Q228.3125 122.62306 228.5625 122.16994Q228.8125 121.70119 228.8125 121.20119Q228.8125 120.52931 228.40625 120.10744Q228.01562 119.66994 227.32812 119.66994Q226.53125 119.66994 226.07812 120.13869Q225.625 120.59181 225.625 121.41994L224.54688 121.41994Q224.54688 120.23244 225.29688 119.51369Q226.0625 118.77931 227.32812 118.77931Q228.53125 118.77931 229.21875 119.40431Q229.90625 120.02931 229.90625 121.07619Q229.90625 122.32619 228.29688 124.07619L226.01562 126.54494L230.29688 126.54494L230.29688 127.43556ZM237.0625 123.79494Q237.0625 125.70119 236.40625 126.63869Q235.76562 127.56056 234.375 127.56056Q233.01562 127.56056 232.35938 126.65431Q231.70312 125.74806 231.67188 123.93556L231.67188 122.49806Q231.67188 120.60744 232.3125 119.70119Q232.96875 118.77931 234.35938 118.77931Q235.73438 118.77931 236.39062 119.66994Q237.04688 120.54494 237.0625 122.38869L237.0625 123.79494ZM235.96875 122.31056Q235.96875 120.93556 235.57812 120.31056Q235.20312 119.66994 234.35938 119.66994Q233.53125 119.66994 233.14062 120.31056Q232.76562 120.93556 232.76562 122.23244L232.76562 123.96681Q232.76562 125.34181 233.15625 126.01369Q233.5625 126.66994 234.375 126.66994Q235.17188 126.66994 235.5625 126.04494Q235.95312 125.41994 235.96875 124.09181L235.96875 122.31056ZM242.85938 123.68556Q242.53125 124.09181 242.04688 124.34181Q241.57812 124.57619 241.01562 124.57619Q240.28125 124.57619 239.73438 124.21681Q239.1875 123.85744 238.89062 123.20119Q238.59375 122.52931 238.59375 121.73244Q238.59375 120.88869 238.90625 120.20119Q239.23438 119.51369 239.82812 119.15431Q240.4375 118.77931 241.23438 118.77931Q242.5 118.77931 243.21875 119.73244Q243.95312 120.68556 243.95312 122.31056L243.95312 122.62306Q243.95312 125.12306 242.96875 126.26369Q241.98438 127.40431 240.0 127.43556L239.78125 127.43556L239.78125 126.52931L240.01562 126.52931Q241.35938 126.49806 242.07812 125.82619Q242.79688 125.15431 242.85938 123.68556ZM241.1875 123.68556Q241.73438 123.68556 242.1875 123.35744Q242.65625 123.01369 242.875 122.52931L242.875 122.09181Q242.875 121.02931 242.40625 120.35744Q241.9375 119.68556 241.23438 119.68556Q240.51562 119.68556 240.07812 120.23244Q239.65625 120.77931 239.65625 121.68556Q239.65625 122.56056 240.0625 123.12306Q240.48438 123.68556 241.1875 123.68556Z" fill-rule="nonzero"/><path stroke="#ffffff" stroke-width="3.0" stroke-linejoin="round" stroke-linecap="round" d="M412.5625 277.65936Q412.5625 279.5656 411.90625 280.5031Q411.26562 281.425 409.875 281.425Q408.51562 281.425 407.85938 280.51874Q407.20312 279.6125 407.17188 277.8L407.17188 276.3625Q407.17188 274.47186 407.8125 273.5656Q408.46875 272.64374 409.85938 272.64374Q411.23438 272.64374 411.89062 273.53436Q412.54688 274.40936 412.5625 276.2531L412.5625 277.65936ZM411.46875 276.175Q411.46875 274.8 411.07812 274.175Q410.70312 273.53436 409.85938 273.53436Q409.03125 273.53436 408.64062 274.175Q408.26562 274.8 408.26562 276.09686L408.26562 277.83124Q408.26562 279.20624 408.65625 279.8781Q409.0625 280.53436 409.875 280.53436Q410.67188 280.53436 411.0625 279.90936Q411.45312 279.28436 411.46875 277.95624L411.46875 276.175ZM414.34375 280.7375Q414.34375 280.45624 414.5 280.26874Q414.67188 280.08124 415.0 280.08124Q415.34375 280.08124 415.51562 280.26874Q415.6875 280.45624 415.6875 280.7375Q415.6875 281.0031 415.51562 281.1906Q415.34375 281.3625 415.0 281.3625Q414.67188 281.3625 414.5 281.1906Q414.34375 281.0031 414.34375 280.7375ZM422.5625 277.65936Q422.5625 279.5656 421.90625 280.5031Q421.26562 281.425 419.875 281.425Q418.51562 281.425 417.85938 280.51874Q417.20312 279.6125 417.17188 277.8L417.17188 276.3625Q417.17188 274.47186 417.8125 273.5656Q418.46875 272.64374 419.85938 272.64374Q421.23438 272.64374 421.89062 273.53436Q422.54688 274.40936 422.5625 276.2531L422.5625 277.65936ZM421.46875 276.175Q421.46875 274.8 421.07812 274.175Q420.70312 273.53436 419.85938 273.53436Q419.03125 273.53436 418.64062 274.175Q418.26562 274.8 418.26562 276.09686L418.26562 277.83124Q418.26562 279.20624 418.65625 279.8781Q419.0625 280.53436 419.875 280.53436Q420.67188 280.53436 421.0625 279.90936Q421.45312 279.28436 421.46875 277.95624L421.46875 276.175ZM429.5625 277.65936Q429.5625 279.5656 428.90625 280.5031Q428.26562 281.425 426.875 281.425Q425.51562 281.425 424.85938 280.51874Q424.20312 279.6125 424.17188 277.8L424.17188 276.3625Q424.17188 274.47186 424.8125 273.5656Q425.46875 272.64374 426.85938 272.64374Q428.23438 272.64374 428.89062 273.53436Q429.54688 274.40936 429.5625 276.2531L429.5625 277.65936ZM428.46875 276.175Q428.46875 274.8 428.07812 274.175Q427.70312 273.53436 426.85938 273.53436Q426.03125 273.53436 425.64062 274.175Q425.26562 274.8 425.26562 276.09686L425.26562 277.83124Q425.26562 279.20624 425.65625 279.8781Q426.0625 280.53436 426.875 280.53436Q427.67188 280.53436 428.0625 279.90936Q428.45312 279.28436 428.46875 277.95624L428.46875 276.175ZM436.5625 277.65936Q436.5625 279.5656 435.90625 280.5031Q435.26562 281.425 433.875 281.425Q432.51562 281.425 431.85938 280.51874Q431.20312 279.6125 431.17188 277.8L431.17188 276.3625Q431.17188 274.47186 431.8125 273.5656Q432.46875 272.64374 433.85938 272.64374Q435.23438 272.64374 435.89062 273.53436Q436.54688 274.40936 436.5625 276.2531L436.5625 277.65936ZM435.46875 276.175Q435.46875 274.8 435.07812 274.175Q434.70312 273.53436 433.85938 273.53436Q433.03125 273.53436 432.64062 274.175Q432.26562 274.8 432.26562 276.09686L432.26562 277.83124Q432.26562 279.20624 432.65625 279.8781Q433.0625 280.53436 433.875 280.53436Q434.67188 280.53436 435.0625 279.90936Q435.45312 279.28436 435.46875 277.95624L435.46875 276.175Z" fill-rule="nonzero"/><path fill="#db4437" d="M412.5625 277.65936Q412.5625 279.5656 411.90625 280.5031Q411.26562 281.425 409.875 281.425Q408.51562 281.425 407.85938 280.51874Q407.20312 279.6125 407.17188 277.8L407.17188 276.3625Q407.17188 274.47186 407.8125 273.5656Q408.46875 272.64374 409.85938 272.64374Q411.23438 272.64374 411.89062 273.53436Q412.54688 274.40936 412.5625 276.2531L412.5625 277.65936ZM411.46875 276.175Q411.46875 274.8 411.07812 274.175Q410.70312 273.53436 409.85938 273.53436Q409.03125 273.53436 408.64062 274.175Q408.26562 274.8 408.26562 276.09686L408.26562 277.83124Q408.26562 279.20624 408.65625 279.8781Q409.0625 280.53436 409.875 280.53436Q410.67188 280.53436 411.0625 279.90936Q411.45312 279.28436 411.46875 277.95624L411.46875 276.175ZM414.34375 280.7375Q414.34375 280.45624 414.5 280.26874Q414.67188 280.08124 415.0 280.08124Q415.34375 280.08124 415.51562 280.26874Q415.6875 280.45624 415.6875 280.7375Q415.6875 281.0031 415.51562 281.1906Q415.34375 281.3625 415.0 281.3625Q414.67188 281.3625 414.5 281.1906Q414.34375 281.0031 414.34375 280.7375ZM422.5625 277.65936Q422.5625 279.5656 421.90625 280.5031Q421.26562 281.425 419.875 281.425Q418.51562 281.425 417.85938 280.51874Q417.20312 279.6125 417.17188 277.8L417.17188 276.3625Q417.17188 274.47186 417.8125 273.5656Q418.46875 272.64374 419.85938 272.64374Q421.23438 272.64374 421.89062 273.53436Q422.54688 274.40936 422.5625 276.2531L422.5625 277.65936ZM421.46875 276.175Q421.46875 274.8 421.07812 274.175Q420.70312 273.53436 419.85938 273.53436Q419.03125 273.53436 418.64062 274.175Q418.26562 274.8 418.26562 276.09686L418.26562 277.83124Q418.26562 279.20624 418.65625 279.8781Q419.0625 280.53436 419.875 280.53436Q420.67188 280.53436 421.0625 279.90936Q421.45312 279.28436 421.46875 277.95624L421.46875 276.175ZM429.5625 277.65936Q429.5625 279.5656 428.90625 280.5031Q428.26562 281.425 426.875 281.425Q425.51562 281.425 424.85938 280.51874Q424.20312 279.6125 424.17188 277.8L424.17188 276.3625Q424.17188 274.47186 424.8125 273.5656Q425.46875 272.64374 426.85938 272.64374Q428.23438 272.64374 428.89062 273.53436Q429.54688 274.40936 429.5625 276.2531L429.5625 277.65936ZM428.46875 276.175Q428.46875 274.8 428.07812 274.175Q427.70312 273.53436 426.85938 273.53436Q426.03125 273.53436 425.64062 274.175Q425.26562 274.8 425.26562 276.09686L425.26562 277.83124Q425.26562 279.20624 425.65625 279.8781Q426.0625 280.53436 426.875 280.53436Q427.67188 280.53436 428.0625 279.90936Q428.45312 279.28436 428.46875 277.95624L428.46875 276.175ZM436.5625 277.65936Q436.5625 279.5656 435.90625 280.5031Q435.26562 281.425 433.875 281.425Q432.51562 281.425 431.85938 280.51874Q431.20312 279.6125 431.17188 277.8L431.17188 276.3625Q431.17188 274.47186 431.8125 273.5656Q432.46875 272.64374 433.85938 272.64374Q435.23438 272.64374 435.89062 273.53436Q436.54688 274.40936 436.5625 276.2531L436.5625 277.65936ZM435.46875 276.175Q435.46875 274.8 435.07812 274.175Q434.70312 273.53436 433.85938 273.53436Q433.03125 273.53436 432.64062 274.175Q432.26562 274.8 432.26562 276.09686L432.26562 277.83124Q432.26562 279.20624 432.65625 279.8781Q433.0625 280.53436 433.875 280.53436Q434.67188 280.53436 435.0625 279.90936Q435.45312 279.28436 435.46875 277.95624L435.46875 276.175Z" fill-rule="nonzero"/><path fill="#757575" d="M29.7625 297.15936Q29.7625 299.0656 29.10625 300.0031Q28.465626 300.925 27.075 300.925Q25.715626 300.925 25.059376 300.01874Q24.403126 299.1125 24.371876 297.3L24.371876 295.8625Q24.371876 293.97186 25.0125 293.0656Q25.66875 292.14374 27.059376 292.14374Q28.434376 292.14374 29.090626 293.03436Q29.746876 293.90936 29.7625 295.7531L29.7625 297.15936ZM28.66875 295.675Q28.66875 294.3 28.278126 293.675Q27.903126 293.03436 27.059376 293.03436Q26.23125 293.03436 25.840626 293.675Q25.465626 294.3 25.465626 295.59686L25.465626 297.33124Q25.465626 298.70624 25.85625 299.3781Q26.2625 300.03436 27.075 300.03436Q27.871876 300.03436 28.2625 299.40936Q28.653126 298.78436 28.66875 297.45624L28.66875 295.675ZM31.54375 300.2375Q31.54375 299.95624 31.7 299.76874Q31.871876 299.58124 32.2 299.58124Q32.54375 299.58124 32.715626 299.76874Q32.8875 299.95624 32.8875 300.2375Q32.8875 300.5031 32.715626 300.6906Q32.54375 300.8625 32.2 300.8625Q31.871876 300.8625 31.7 300.6906Q31.54375 300.5031 31.54375 300.2375ZM39.7625 297.15936Q39.7625 299.0656 39.10625 300.0031Q38.465626 300.925 37.075 300.925Q35.715626 300.925 35.059376 300.01874Q34.403126 299.1125 34.371876 297.3L34.371876 295.8625Q34.371876 293.97186 35.0125 293.0656Q35.66875 292.14374 37.059376 292.14374Q38.434376 292.14374 39.090626 293.03436Q39.746876 293.90936 39.7625 295.7531L39.7625 297.15936ZM38.66875 295.675Q38.66875 294.3 38.278126 293.675Q37.903126 293.03436 37.059376 293.03436Q36.23125 293.03436 35.840626 293.675Q35.465626 294.3 35.465626 295.59686L35.465626 297.33124Q35.465626 298.70624 35.85625 299.3781Q36.2625 300.03436 37.075 300.03436Q37.871876 300.03436 38.2625 299.40936Q38.653126 298.78436 38.66875 297.45624L38.66875 295.675ZM46.7625 297.15936Q46.7625 299.0656 46.10625 300.0031Q45.465626 300.925 44.075 300.925Q42.715626 300.925 42.059376 300.01874Q41.403126 299.1125 41.371876 297.3L41.371876 295.8625Q41.371876 293.97186 42.0125 293.0656Q42.66875 292.14374 44.059376 292.14374Q45.434376 292.14374 46.090626 293.03436Q46.746876 293.90936 46.7625 295.7531L46.7625 297.15936ZM45.66875 295.675Q45.66875 294.3 45.278126 293.675Q44.903126 293.03436 44.059376 293.03436Q43.23125 293.03436 42.840626 293.675Q42.465626 294.3 42.465626 295.59686L42.465626 297.33124Q42.465626 298.70624 42.85625 299.3781Q43.2625 300.03436 44.075 300.03436Q44.871876 300.03436 45.2625 299.40936Q45.653126 298.78436 45.66875 297.45624L45.66875 295.675ZM53.7625 297.15936Q53.7625 299.0656 53.10625 300.0031Q52.465626 300.925 51.075 300.925Q49.715626 300.925 49.059376 300.01874Q48.403126 299.1125 48.371876 297.3L48.371876 295.8625Q48.371876 293.97186 49.0125 293.0656Q49.66875 292.14374 51.059376 292.14374Q52.434376 292.14374 53.090626 293.03436Q53.746876 293.90936 53.7625 295.7531L53.7625 297.15936ZM52.66875 295.675Q52.66875 294.3 52.278126 293.675Q51.903126 293.03436 51.059376 293.03436Q50.23125 293.03436 49.840626 293.675Q49.465626 294.3 49.465626 295.59686L49.465626 297.33124Q49.465626 298.70624 49.85625 299.3781Q50.2625 300.03436 51.075 300.03436Q51.871876 300.03436 52.2625 299.40936Q52.653126 298.78436 52.66875 297.45624L52.66875 295.675Z" fill-rule="nonzero"/><path fill="#757575" d="M24.903126 226.24097L25.340626 221.99097L29.715626 221.99097L29.715626 222.99097L26.2625 222.99097L25.996876 225.31909Q26.6375 224.94409 27.434376 224.94409Q28.590626 224.94409 29.278126 225.72534Q29.965626 226.49097 29.965626 227.80347Q29.965626 229.11597 29.246876 229.88159Q28.54375 230.64722 27.2625 230.64722Q26.1375 230.64722 25.41875 230.02222Q24.7 229.38159 24.60625 228.27222L25.621876 228.27222Q25.73125 229.00659 26.153126 229.38159Q26.575 229.75659 27.2625 229.75659Q28.0125 229.75659 28.45 229.24097Q28.8875 228.72534 28.8875 227.81909Q28.8875 226.95972 28.41875 226.44409Q27.95 225.92847 27.16875 225.92847Q26.465626 225.92847 26.059376 226.22534L25.778126 226.45972L24.903126 226.24097ZM31.54375 229.95972Q31.54375 229.67847 31.7 229.49097Q31.871876 229.30347 32.2 229.30347Q32.54375 229.30347 32.715626 229.49097Q32.8875 229.67847 32.8875 229.95972Q32.8875 230.22534 32.715626 230.41284Q32.54375 230.58472 32.2 230.58472Q31.871876 230.58472 31.7 230.41284Q31.54375 230.22534 31.54375 229.95972ZM39.7625 226.88159Q39.7625 228.78784 39.10625 229.72534Q38.465626 230.64722 37.075 230.64722Q35.715626 230.64722 35.059376 229.74097Q34.403126 228.83472 34.371876 227.02222L34.371876 225.58472Q34.371876 223.69409 35.0125 222.78784Q35.66875 221.86597 37.059376 221.86597Q38.434376 221.86597 39.090626 222.75659Q39.746876 223.63159 39.7625 225.47534L39.7625 226.88159ZM38.66875 225.39722Q38.66875 224.02222 38.278126 223.39722Q37.903126 222.75659 37.059376 222.75659Q36.23125 222.75659 35.840626 223.39722Q35.465626 224.02222 35.465626 225.31909L35.465626 227.05347Q35.465626 228.42847 35.85625 229.10034Q36.2625 229.75659 37.075 229.75659Q37.871876 229.75659 38.2625 229.13159Q38.653126 228.50659 38.66875 227.17847L38.66875 225.39722ZM46.7625 226.88159Q46.7625 228.78784 46.10625 229.72534Q45.465626 230.64722 44.075 230.64722Q42.715626 230.64722 42.059376 229.74097Q41.403126 228.83472 41.371876 227.02222L41.371876 225.58472Q41.371876 223.69409 42.0125 222.78784Q42.66875 221.86597 44.059376 221.86597Q45.434376 221.86597 46.090626 222.75659Q46.746876 223.63159 46.7625 225.47534L46.7625 226.88159ZM45.66875 225.39722Q45.66875 224.02222 45.278126 223.39722Q44.903126 222.75659 44.059376 222.75659Q43.23125 222.75659 42.840626 223.39722Q42.465626 224.02222 42.465626 225.31909L42.465626 227.05347Q42.465626 228.42847 42.85625 229.10034Q43.2625 229.75659 44.075 229.75659Q44.871876 229.75659 45.2625 229.13159Q45.653126 228.50659 45.66875 227.17847L45.66875 225.39722ZM53.7625 226.88159Q53.7625 228.78784 53.10625 229.72534Q52.465626 230.64722 51.075 230.64722Q49.715626 230.64722 49.059376 229.74097Q48.403126 228.83472 48.371876 227.02222L48.371876 225.58472Q48.371876 223.69409 49.0125 222.78784Q49.66875 221.86597 51.059376 221.86597Q52.434376 221.86597 53.090626 222.75659Q53.746876 223.63159 53.7625 225.47534L53.7625 226.88159ZM52.66875 225.39722Q52.66875 224.02222 52.278126 223.39722Q51.903126 222.75659 51.059376 222.75659Q50.23125 222.75659 49.840626 223.39722Q49.465626 224.02222 49.465626 225.31909L49.465626 227.05347Q49.465626 228.42847 49.85625 229.10034Q50.2625 229.75659 51.075 229.75659Q51.871876 229.75659 52.2625 229.13159Q52.653126 228.50659 52.66875 227.17847L52.66875 225.39722Z" fill-rule="nonzero"/><path fill="#757575" d="M20.965626 160.24445L19.8875 160.24445L19.8875 153.0257L17.7 153.82257L17.7 152.8382L20.809376 151.66632L20.965626 151.66632L20.965626 160.24445ZM29.7625 156.60382Q29.7625 158.51007 29.10625 159.44757Q28.465626 160.36945 27.075 160.36945Q25.715626 160.36945 25.059376 159.4632Q24.403126 158.55695 24.371876 156.74445L24.371876 155.30695Q24.371876 153.41632 25.0125 152.51007Q25.66875 151.5882 27.059376 151.5882Q28.434376 151.5882 29.090626 152.47882Q29.746876 153.35382 29.7625 155.19757L29.7625 156.60382ZM28.66875 155.11945Q28.66875 153.74445 28.278126 153.11945Q27.903126 152.47882 27.059376 152.47882Q26.23125 152.47882 25.840626 153.11945Q25.465626 153.74445 25.465626 155.04132L25.465626 156.7757Q25.465626 158.1507 25.85625 158.82257Q26.2625 159.47882 27.075 159.47882Q27.871876 159.47882 28.2625 158.85382Q28.653126 158.22882 28.66875 156.9007L28.66875 155.11945ZM31.54375 159.68195Q31.54375 159.4007 31.7 159.2132Q31.871876 159.0257 32.2 159.0257Q32.54375 159.0257 32.715626 159.2132Q32.8875 159.4007 32.8875 159.68195Q32.8875 159.94757 32.715626 160.13507Q32.54375 160.30695 32.2 160.30695Q31.871876 160.30695 31.7 160.13507Q31.54375 159.94757 31.54375 159.68195ZM39.7625 156.60382Q39.7625 158.51007 39.10625 159.44757Q38.465626 160.36945 37.075 160.36945Q35.715626 160.36945 35.059376 159.4632Q34.403126 158.55695 34.371876 156.74445L34.371876 155.30695Q34.371876 153.41632 35.0125 152.51007Q35.66875 151.5882 37.059376 151.5882Q38.434376 151.5882 39.090626 152.47882Q39.746876 153.35382 39.7625 155.19757L39.7625 156.60382ZM38.66875 155.11945Q38.66875 153.74445 38.278126 153.11945Q37.903126 152.47882 37.059376 152.47882Q36.23125 152.47882 35.840626 153.11945Q35.465626 153.74445 35.465626 155.04132L35.465626 156.7757Q35.465626 158.1507 35.85625 158.82257Q36.2625 159.47882 37.075 159.47882Q37.871876 159.47882 38.2625 158.85382Q38.653126 158.22882 38.66875 156.9007L38.66875 155.11945ZM46.7625 156.60382Q46.7625 158.51007 46.10625 159.44757Q45.465626 160.36945 44.075 160.36945Q42.715626 160.36945 42.059376 159.4632Q41.403126 158.55695 41.371876 156.74445L41.371876 155.30695Q41.371876 153.41632 42.0125 152.51007Q42.66875 151.5882 44.059376 151.5882Q45.434376 151.5882 46.090626 152.47882Q46.746876 153.35382 46.7625 155.19757L46.7625 156.60382ZM45.66875 155.11945Q45.66875 153.74445 45.278126 153.11945Q44.903126 152.47882 44.059376 152.47882Q43.23125 152.47882 42.840626 153.11945Q42.465626 153.74445 42.465626 155.04132L42.465626 156.7757Q42.465626 158.1507 42.85625 158.82257Q43.2625 159.47882 44.075 159.47882Q44.871876 159.47882 45.2625 158.85382Q45.653126 158.22882 45.66875 156.9007L45.66875 155.11945ZM53.7625 156.60382Q53.7625 158.51007 53.10625 159.44757Q52.465626 160.36945 51.075 160.36945Q49.715626 160.36945 49.059376 159.4632Q48.403126 158.55695 48.371876 156.74445L48.371876 155.30695Q48.371876 153.41632 49.0125 152.51007Q49.66875 151.5882 51.059376 151.5882Q52.434376 151.5882 53.090626 152.47882Q53.746876 153.35382 53.7625 155.19757L53.7625 156.60382ZM52.66875 155.11945Q52.66875 153.74445 52.278126 153.11945Q51.903126 152.47882 51.059376 152.47882Q50.23125 152.47882 49.840626 153.11945Q49.465626 153.74445 49.465626 155.04132L49.465626 156.7757Q49.465626 158.1507 49.85625 158.82257Q50.2625 159.47882 51.075 159.47882Q51.871876 159.47882 52.2625 158.85382Q52.653126 158.22882 52.66875 156.9007L52.66875 155.11945Z" fill-rule="nonzero"/><path fill="#757575" d="M20.965626 89.96667L19.8875 89.96667L19.8875 82.74792L17.7 83.54479L17.7 82.56042L20.809376 81.38854L20.965626 81.38854L20.965626 89.96667ZM24.903126 85.68542L25.340626 81.43542L29.715626 81.43542L29.715626 82.43542L26.2625 82.43542L25.996876 84.76354Q26.6375 84.38854 27.434376 84.38854Q28.590626 84.38854 29.278126 85.16979Q29.965626 85.93542 29.965626 87.24792Q29.965626 88.56042 29.246876 89.32604Q28.54375 90.09167 27.2625 90.09167Q26.1375 90.09167 25.41875 89.46667Q24.7 88.82604 24.60625 87.71667L25.621876 87.71667Q25.73125 88.45104 26.153126 88.82604Q26.575 89.20104 27.2625 89.20104Q28.0125 89.20104 28.45 88.68542Q28.8875 88.16979 28.8875 87.26354Q28.8875 86.40417 28.41875 85.88854Q27.95 85.37292 27.16875 85.37292Q26.465626 85.37292 26.059376 85.66979L25.778126 85.90417L24.903126 85.68542ZM31.54375 89.40417Q31.54375 89.12292 31.7 88.93542Q31.871876 88.74792 32.2 88.74792Q32.54375 88.74792 32.715626 88.93542Q32.8875 89.12292 32.8875 89.40417Q32.8875 89.66979 32.715626 89.85729Q32.54375 90.02917 32.2 90.02917Q31.871876 90.02917 31.7 89.85729Q31.54375 89.66979 31.54375 89.40417ZM39.7625 86.32604Q39.7625 88.23229 39.10625 89.16979Q38.465626 90.09167 37.075 90.09167Q35.715626 90.09167 35.059376 89.18542Q34.403126 88.27917 34.371876 86.46667L34.371876 85.02917Q34.371876 83.13854 35.0125 82.23229Q35.66875 81.31042 37.059376 81.31042Q38.434376 81.31042 39.090626 82.20104Q39.746876 83.07604 39.7625 84.91979L39.7625 86.32604ZM38.66875 84.84167Q38.66875 83.46667 38.278126 82.84167Q37.903126 82.20104 37.059376 82.20104Q36.23125 82.20104 35.840626 82.84167Q35.465626 83.46667 35.465626 84.76354L35.465626 86.49792Q35.465626 87.87292 35.85625 88.54479Q36.2625 89.20104 37.075 89.20104Q37.871876 89.20104 38.2625 88.57604Q38.653126 87.95104 38.66875 86.62292L38.66875 84.84167ZM46.7625 86.32604Q46.7625 88.23229 46.10625 89.16979Q45.465626 90.09167 44.075 90.09167Q42.715626 90.09167 42.059376 89.18542Q41.403126 88.27917 41.371876 86.46667L41.371876 85.02917Q41.371876 83.13854 42.0125 82.23229Q42.66875 81.31042 44.059376 81.31042Q45.434376 81.31042 46.090626 82.20104Q46.746876 83.07604 46.7625 84.91979L46.7625 86.32604ZM45.66875 84.84167Q45.66875 83.46667 45.278126 82.84167Q44.903126 82.20104 44.059376 82.20104Q43.23125 82.20104 42.840626 82.84167Q42.465626 83.46667 42.465626 84.76354L42.465626 86.49792Q42.465626 87.87292 42.85625 88.54479Q43.2625 89.20104 44.075 89.20104Q44.871876 89.20104 45.2625 88.57604Q45.653126 87.95104 45.66875 86.62292L45.66875 84.84167ZM53.7625 86.32604Q53.7625 88.23229 53.10625 89.16979Q52.465626 90.09167 51.075 90.09167Q49.715626 90.09167 49.059376 89.18542Q48.403126 88.27917 48.371876 86.46667L48.371876 85.02917Q48.371876 83.13854 49.0125 82.23229Q49.66875 81.31042 51.059376 81.31042Q52.434376 81.31042 53.090626 82.20104Q53.746876 83.07604 53.7625 84.91979L53.7625 86.32604ZM52.66875 84.84167Q52.66875 83.46667 52.278126 82.84167Q51.903126 82.20104 51.059376 82.20104Q50.23125 82.20104 49.840626 82.84167Q49.465626 83.46667 49.465626 84.76354L49.465626 86.49792Q49.465626 87.87292 49.85625 88.54479Q50.2625 89.20104 51.075 89.20104Q51.871876 89.20104 52.2625 88.57604Q52.653126 87.95104 52.66875 86.62292L52.66875 84.84167Z" fill-rule="nonzero"/><path fill="#757575" d="M146.55884 314.3L146.55884 305.76874L148.98071 305.76874Q150.09009 305.76874 150.93384 306.26874Q151.79321 306.7531 152.26196 307.65936Q152.73071 308.5656 152.73071 309.7531L152.73071 310.28436Q152.73071 311.5031 152.26196 312.40936Q151.80884 313.3156 150.93384 313.8Q150.07446 314.28436 148.93384 314.3L146.55884 314.3ZM147.68384 306.6906L147.68384 313.3781L148.87134 313.3781Q150.16821 313.3781 150.88696 312.58124Q151.62134 311.76874 151.62134 310.26874L151.62134 309.76874Q151.62134 308.3156 150.93384 307.51874Q150.26196 306.70624 148.99634 306.6906L147.68384 306.6906ZM155.57446 314.3L154.49634 314.3L154.49634 307.95624L155.57446 307.95624L155.57446 314.3ZM154.40259 306.28436Q154.40259 306.01874 154.55884 305.83124Q154.73071 305.64374 155.04321 305.64374Q155.35571 305.64374 155.51196 305.83124Q155.68384 306.01874 155.68384 306.28436Q155.68384 306.53436 155.51196 306.72186Q155.35571 306.89374 155.04321 306.89374Q154.73071 306.89374 154.55884 306.72186Q154.40259 306.53436 154.40259 306.28436ZM159.93384 313.53436Q160.51196 313.53436 160.94946 313.1906Q161.38696 312.83124 161.43384 312.3L162.46509 312.3Q162.43384 312.84686 162.07446 313.34686Q161.73071 313.83124 161.15259 314.1281Q160.59009 314.425 159.93384 314.425Q158.63696 314.425 157.87134 313.5656Q157.12134 312.6906 157.12134 311.1906L157.12134 311.0031Q157.12134 310.08124 157.44946 309.3625Q157.79321 308.64374 158.41821 308.2531Q159.05884 307.84686 159.93384 307.84686Q160.99634 307.84686 161.69946 308.4875Q162.41821 309.1125 162.46509 310.14374L161.43384 310.14374Q161.38696 309.51874 160.96509 309.1281Q160.54321 308.7375 159.93384 308.7375Q159.10571 308.7375 158.65259 309.33124Q158.19946 309.925 158.19946 311.05L158.19946 311.2531Q158.19946 312.34686 158.65259 312.9406Q159.10571 313.53436 159.93384 313.53436ZM164.87134 306.425L164.87134 307.95624L166.04321 307.95624L166.04321 308.8L164.87134 308.8L164.87134 312.72186Q164.87134 313.1125 165.02759 313.3Q165.18384 313.4875 165.55884 313.4875Q165.74634 313.4875 166.07446 313.425L166.07446 314.3Q165.65259 314.425 165.24634 314.425Q164.52759 314.425 164.15259 313.9875Q163.77759 313.53436 163.77759 312.72186L163.77759 308.8L162.62134 308.8L162.62134 307.95624L163.77759 307.95624L163.77759 306.425L164.87134 306.425ZM172.27759 312.0656L168.69946 312.0656L167.90259 314.3L166.74634 314.3L169.99634 305.76874L170.98071 305.76874L174.24634 314.3L173.09009 314.3L172.27759 312.0656ZM169.04321 311.14374L171.94946 311.14374L170.49634 307.15936L169.04321 311.14374ZM175.13696 311.08124Q175.13696 309.6125 175.82446 308.7375Q176.51196 307.84686 177.63696 307.84686Q178.74634 307.84686 179.40259 308.59686L179.40259 305.3L180.48071 305.3L180.48071 314.3L179.48071 314.3L179.43384 313.6125Q178.77759 314.425 177.62134 314.425Q176.52759 314.425 175.82446 313.51874Q175.13696 312.6125 175.13696 311.15936L175.13696 311.08124ZM176.21509 311.20624Q176.21509 312.28436 176.65259 312.89374Q177.10571 313.5031 177.88696 313.5031Q178.91821 313.5031 179.40259 312.5656L179.40259 309.65936Q178.91821 308.76874 177.90259 308.76874Q177.10571 308.76874 176.65259 309.3781Q176.21509 309.9875 176.21509 311.20624ZM182.13696 311.08124Q182.13696 309.6125 182.82446 308.7375Q183.51196 307.84686 184.63696 307.84686Q185.74634 307.84686 186.40259 308.59686L186.40259 305.3L187.48071 305.3L187.48071 314.3L186.48071 314.3L186.43384 313.6125Q185.77759 314.425 184.62134 314.425Q183.52759 314.425 182.82446 313.51874Q182.13696 312.6125 182.13696 311.15936L182.13696 311.08124ZM183.21509 311.20624Q183.21509 312.28436 183.65259 312.89374Q184.10571 313.5031 184.88696 313.5031Q185.91821 313.5031 186.40259 312.5656L186.40259 309.65936Q185.91821 308.76874 184.90259 308.76874Q184.10571 308.76874 183.65259 309.3781Q183.21509 309.9875 183.21509 311.20624ZM192.35571 310.83124Q192.35571 309.51874 192.69946 308.3Q193.05884 307.08124 193.76196 306.08124Q194.46509 305.08124 195.23071 304.675L195.44946 305.39374Q194.59009 306.05 194.04321 307.39374Q193.49634 308.7375 193.44946 310.40936L193.43384 310.90936Q193.43384 313.175 194.26196 314.83124Q194.76196 315.83124 195.44946 316.39374L195.23071 317.05Q194.44946 316.6281 193.73071 315.59686Q192.35571 313.6125 192.35571 310.83124ZM199.84009 314.3L198.76196 314.3L198.76196 307.08124L196.57446 307.8781L196.57446 306.89374L199.68384 305.72186L199.84009 305.72186L199.84009 314.3ZM208.63696 310.65936Q208.63696 312.5656 207.98071 313.5031Q207.34009 314.425 205.94946 314.425Q204.59009 314.425 203.93384 313.51874Q203.27759 312.6125 203.24634 310.8L203.24634 309.3625Q203.24634 307.47186 203.88696 306.5656Q204.54321 305.64374 205.93384 305.64374Q207.30884 305.64374 207.96509 306.53436Q208.62134 307.40936 208.63696 309.2531L208.63696 310.65936ZM207.54321 309.175Q207.54321 307.8 207.15259 307.175Q206.77759 306.53436 205.93384 306.53436Q205.10571 306.53436 204.71509 307.175Q204.34009 307.8 204.34009 309.09686L204.34009 310.83124Q204.34009 312.20624 204.73071 312.8781Q205.13696 313.53436 205.94946 313.53436Q206.74634 313.53436 207.13696 312.90936Q207.52759 312.28436 207.54321 310.95624L207.54321 309.175ZM215.63696 310.65936Q215.63696 312.5656 214.98071 313.5031Q214.34009 314.425 212.94946 314.425Q211.59009 314.425 210.93384 313.51874Q210.27759 312.6125 210.24634 310.8L210.24634 309.3625Q210.24634 307.47186 210.88696 306.5656Q211.54321 305.64374 212.93384 305.64374Q214.30884 305.64374 214.96509 306.53436Q215.62134 307.40936 215.63696 309.2531L215.63696 310.65936ZM214.54321 309.175Q214.54321 307.8 214.15259 307.175Q213.77759 306.53436 212.93384 306.53436Q212.10571 306.53436 211.71509 307.175Q211.34009 307.8 211.34009 309.09686L211.34009 310.83124Q211.34009 312.20624 211.73071 312.8781Q212.13696 313.53436 212.94946 313.53436Q213.74634 313.53436 214.13696 312.90936Q214.52759 312.28436 214.54321 310.95624L214.54321 309.175ZM222.63696 310.65936Q222.63696 312.5656 221.98071 313.5031Q221.34009 314.425 219.94946 314.425Q218.59009 314.425 217.93384 313.51874Q217.27759 312.6125 217.24634 310.8L217.24634 309.3625Q217.24634 307.47186 217.88696 306.5656Q218.54321 305.64374 219.93384 305.64374Q221.30884 305.64374 221.96509 306.53436Q222.62134 307.40936 222.63696 309.2531L222.63696 310.65936ZM221.54321 309.175Q221.54321 307.8 221.15259 307.175Q220.77759 306.53436 219.93384 306.53436Q219.10571 306.53436 218.71509 307.175Q218.34009 307.8 218.34009 309.09686L218.34009 310.83124Q218.34009 312.20624 218.73071 312.8781Q219.13696 313.53436 219.94946 313.53436Q220.74634 313.53436 221.13696 312.90936Q221.52759 312.28436 221.54321 310.95624L221.54321 309.175ZM229.63696 310.65936Q229.63696 312.5656 228.98071 313.5031Q228.34009 314.425 226.94946 314.425Q225.59009 314.425 224.93384 313.51874Q224.27759 312.6125 224.24634 310.8L224.24634 309.3625Q224.24634 307.47186 224.88696 306.5656Q225.54321 305.64374 226.93384 305.64374Q228.30884 305.64374 228.96509 306.53436Q229.62134 307.40936 229.63696 309.2531L229.63696 310.65936ZM228.54321 309.175Q228.54321 307.8 228.15259 307.175Q227.77759 306.53436 226.93384 306.53436Q226.10571 306.53436 225.71509 307.175Q225.34009 307.8 225.34009 309.09686L225.34009 310.83124Q225.34009 312.20624 225.73071 312.8781Q226.13696 313.53436 226.94946 313.53436Q227.74634 313.53436 228.13696 312.90936Q228.52759 312.28436 228.54321 310.95624L228.54321 309.175ZM236.63696 310.65936Q236.63696 312.5656 235.98071 313.5031Q235.34009 314.425 233.94946 314.425Q232.59009 314.425 231.93384 313.51874Q231.27759 312.6125 231.24634 310.8L231.24634 309.3625Q231.24634 307.47186 231.88696 306.5656Q232.54321 305.64374 233.93384 305.64374Q235.30884 305.64374 235.96509 306.53436Q236.62134 307.40936 236.63696 309.2531L236.63696 310.65936ZM235.54321 309.175Q235.54321 307.8 235.15259 307.175Q234.77759 306.53436 233.93384 306.53436Q233.10571 306.53436 232.71509 307.175Q232.34009 307.8 232.34009 309.09686L232.34009 310.83124Q232.34009 312.20624 232.73071 312.8781Q233.13696 313.53436 233.94946 313.53436Q234.74634 313.53436 235.13696 312.90936Q235.52759 312.28436 235.54321 310.95624L235.54321 309.175ZM240.90259 310.89374Q240.90259 312.20624 240.55884 313.40936Q240.21509 314.59686 239.49634 315.6125Q238.79321 316.6281 238.02759 317.05L237.79321 316.39374Q238.69946 315.70624 239.24634 314.2531Q239.79321 312.78436 239.80884 311.01874L239.80884 310.83124Q239.80884 309.59686 239.54321 308.53436Q239.29321 307.47186 238.82446 306.64374Q238.37134 305.8 237.79321 305.33124L238.02759 304.675Q238.79321 305.09686 239.49634 306.09686Q240.19946 307.09686 240.54321 308.3156Q240.90259 309.51874 240.90259 310.89374Z" fill-rule="nonzero"/><path fill="#757575" d="M336.0349 310.95624L336.0349 314.3L334.9099 314.3L334.9099 305.76874L338.06616 305.76874Q339.4568 305.76874 340.25366 306.4875Q341.05054 307.1906 341.05054 308.3781Q341.05054 309.6125 340.2693 310.28436Q339.50366 310.95624 338.05054 310.95624L336.0349 310.95624ZM336.0349 310.03436L338.06616 310.03436Q338.9724 310.03436 339.44116 309.6125Q339.92554 309.1906 339.92554 308.39374Q339.92554 307.6281 339.44116 307.175Q338.9724 306.70624 338.12866 306.6906L336.0349 306.6906L336.0349 310.03436ZM342.4568 311.0656Q342.4568 310.14374 342.81616 309.39374Q343.19116 308.64374 343.8474 308.2531Q344.50366 307.84686 345.3318 307.84686Q346.62866 307.84686 347.42554 308.7375Q348.23804 309.6281 348.23804 311.1281L348.23804 311.20624Q348.23804 312.1281 347.87866 312.8625Q347.5193 313.59686 346.86304 314.01874Q346.2068 314.425 345.3474 314.425Q344.06616 314.425 343.25366 313.53436Q342.4568 312.6281 342.4568 311.14374L342.4568 311.0656ZM343.55054 311.20624Q343.55054 312.2531 344.0349 312.89374Q344.5349 313.53436 345.3474 313.53436Q346.17554 313.53436 346.6599 312.89374Q347.1443 312.2375 347.1443 311.0656Q347.1443 310.03436 346.6443 309.39374Q346.1599 308.7375 345.3318 308.7375Q344.5349 308.7375 344.0349 309.3781Q343.55054 310.0031 343.55054 311.20624ZM349.4568 311.0656Q349.4568 310.14374 349.81616 309.39374Q350.19116 308.64374 350.8474 308.2531Q351.50366 307.84686 352.3318 307.84686Q353.62866 307.84686 354.42554 308.7375Q355.23804 309.6281 355.23804 311.1281L355.23804 311.20624Q355.23804 312.1281 354.87866 312.8625Q354.5193 313.59686 353.86304 314.01874Q353.2068 314.425 352.3474 314.425Q351.06616 314.425 350.25366 313.53436Q349.4568 312.6281 349.4568 311.14374L349.4568 311.0656ZM350.55054 311.20624Q350.55054 312.2531 351.0349 312.89374Q351.5349 313.53436 352.3474 313.53436Q353.17554 313.53436 353.6599 312.89374Q354.1443 312.2375 354.1443 311.0656Q354.1443 310.03436 353.6443 309.39374Q353.1599 308.7375 352.3318 308.7375Q351.5349 308.7375 351.0349 309.3781Q350.55054 310.0031 350.55054 311.20624ZM357.92554 314.3L356.8474 314.3L356.8474 305.3L357.92554 305.3L357.92554 314.3ZM362.37866 314.425Q361.0818 314.425 360.2693 313.58124Q359.4724 312.72186 359.4724 311.3L359.4724 311.1125Q359.4724 310.15936 359.8318 309.425Q360.19116 308.675 360.8318 308.26874Q361.48804 307.84686 362.23804 307.84686Q363.4724 307.84686 364.1599 308.65936Q364.8474 309.47186 364.8474 310.9875L364.8474 311.4406L360.55054 311.4406Q360.5818 312.3781 361.0974 312.95624Q361.62866 313.53436 362.44116 313.53436Q363.00366 313.53436 363.3943 313.3Q363.80054 313.0656 364.11304 312.675L364.7693 313.1906Q363.9724 314.425 362.37866 314.425ZM362.23804 308.7375Q361.5818 308.7375 361.12866 309.22186Q360.69116 309.6906 360.5974 310.55L363.7693 310.55L363.7693 310.47186Q363.7224 309.64374 363.31616 309.1906Q362.92554 308.7375 362.23804 308.7375ZM365.48804 311.08124Q365.48804 309.6125 366.17554 308.7375Q366.86304 307.84686 367.98804 307.84686Q369.0974 307.84686 369.75366 308.59686L369.75366 305.3L370.8318 305.3L370.8318 314.3L369.8318 314.3L369.7849 313.6125Q369.12866 314.425 367.9724 314.425Q366.87866 314.425 366.17554 313.51874Q365.48804 312.6125 365.48804 311.15936L365.48804 311.08124ZM366.56616 311.20624Q366.56616 312.28436 367.00366 312.89374Q367.4568 313.5031 368.23804 313.5031Q369.2693 313.5031 369.75366 312.5656L369.75366 309.65936Q369.2693 308.76874 368.25366 308.76874Q367.4568 308.76874 367.00366 309.3781Q366.56616 309.9875 366.56616 311.20624ZM377.62866 312.0656L374.05054 312.0656L373.25366 314.3L372.0974 314.3L375.3474 305.76874L376.3318 305.76874L379.5974 314.3L378.44116 314.3L377.62866 312.0656ZM374.3943 311.14374L377.30054 311.14374L375.8474 307.15936L374.3943 311.14374ZM380.48804 311.08124Q380.48804 309.6125 381.17554 308.7375Q381.86304 307.84686 382.98804 307.84686Q384.0974 307.84686 384.75366 308.59686L384.75366 305.3L385.8318 305.3L385.8318 314.3L384.8318 314.3L384.7849 313.6125Q384.12866 314.425 382.9724 314.425Q381.87866 314.425 381.17554 313.51874Q380.48804 312.6125 380.48804 311.15936L380.48804 311.08124ZM381.56616 311.20624Q381.56616 312.28436 382.00366 312.89374Q382.4568 313.5031 383.23804 313.5031Q384.2693 313.5031 384.75366 312.5656L384.75366 309.65936Q384.2693 308.76874 383.25366 308.76874Q382.4568 308.76874 382.00366 309.3781Q381.56616 309.9875 381.56616 311.20624ZM387.48804 311.08124Q387.48804 309.6125 388.17554 308.7375Q388.86304 307.84686 389.98804 307.84686Q391.0974 307.84686 391.75366 308.59686L391.75366 305.3L392.8318 305.3L392.8318 314.3L391.8318 314.3L391.7849 313.6125Q391.12866 314.425 389.9724 314.425Q388.87866 314.425 388.17554 313.51874Q387.48804 312.6125 387.48804 311.15936L387.48804 311.08124ZM388.56616 311.20624Q388.56616 312.28436 389.00366 312.89374Q389.4568 313.5031 390.23804 313.5031Q391.2693 313.5031 391.75366 312.5656L391.75366 309.65936Q391.2693 308.76874 390.25366 308.76874Q389.4568 308.76874 389.00366 309.3781Q388.56616 309.9875 388.56616 311.20624ZM397.7068 310.83124Q397.7068 309.51874 398.05054 308.3Q398.4099 307.08124 399.11304 306.08124Q399.81616 305.08124 400.5818 304.675L400.80054 305.39374Q399.94116 306.05 399.3943 307.39374Q398.8474 308.7375 398.80054 310.40936L398.7849 310.90936Q398.7849 313.175 399.61304 314.83124Q400.11304 315.83124 400.80054 316.39374L400.5818 317.05Q399.80054 316.6281 399.0818 315.59686Q397.7068 313.6125 397.7068 310.83124ZM405.19116 314.3L404.11304 314.3L404.11304 307.08124L401.92554 307.8781L401.92554 306.89374L405.0349 305.72186L405.19116 305.72186L405.19116 314.3ZM413.98804 310.65936Q413.98804 312.5656 413.3318 313.5031Q412.69116 314.425 411.30054 314.425Q409.94116 314.425 409.2849 313.51874Q408.62866 312.6125 408.5974 310.8L408.5974 309.3625Q408.5974 307.47186 409.23804 306.5656Q409.8943 305.64374 411.2849 305.64374Q412.6599 305.64374 413.31616 306.53436Q413.9724 307.40936 413.98804 309.2531L413.98804 310.65936ZM412.8943 309.175Q412.8943 307.8 412.50366 307.175Q412.12866 306.53436 411.2849 306.53436Q410.4568 306.53436 410.06616 307.175Q409.69116 307.8 409.69116 309.09686L409.69116 310.83124Q409.69116 312.20624 410.0818 312.8781Q410.48804 313.53436 411.30054 313.53436Q412.0974 313.53436 412.48804 312.90936Q412.87866 312.28436 412.8943 310.95624L412.8943 309.175ZM420.98804 310.65936Q420.98804 312.5656 420.3318 313.5031Q419.69116 314.425 418.30054 314.425Q416.94116 314.425 416.2849 313.51874Q415.62866 312.6125 415.5974 310.8L415.5974 309.3625Q415.5974 307.47186 416.23804 306.5656Q416.8943 305.64374 418.2849 305.64374Q419.6599 305.64374 420.31616 306.53436Q420.9724 307.40936 420.98804 309.2531L420.98804 310.65936ZM419.8943 309.175Q419.8943 307.8 419.50366 307.175Q419.12866 306.53436 418.2849 306.53436Q417.4568 306.53436 417.06616 307.175Q416.69116 307.8 416.69116 309.09686L416.69116 310.83124Q416.69116 312.20624 417.0818 312.8781Q417.48804 313.53436 418.30054 313.53436Q419.0974 313.53436 419.48804 312.90936Q419.87866 312.28436 419.8943 310.95624L419.8943 309.175ZM427.98804 310.65936Q427.98804 312.5656 427.3318 313.5031Q426.69116 314.425 425.30054 314.425Q423.94116 314.425 423.2849 313.51874Q422.62866 312.6125 422.5974 310.8L422.5974 309.3625Q422.5974 307.47186 423.23804 306.5656Q423.8943 305.64374 425.2849 305.64374Q426.6599 305.64374 427.31616 306.53436Q427.9724 307.40936 427.98804 309.2531L427.98804 310.65936ZM426.8943 309.175Q426.8943 307.8 426.50366 307.175Q426.12866 306.53436 425.2849 306.53436Q424.4568 306.53436 424.06616 307.175Q423.69116 307.8 423.69116 309.09686L423.69116 310.83124Q423.69116 312.20624 424.0818 312.8781Q424.48804 313.53436 425.30054 313.53436Q426.0974 313.53436 426.48804 312.90936Q426.87866 312.28436 426.8943 310.95624L426.8943 309.175ZM434.98804 310.65936Q434.98804 312.5656 434.3318 313.5031Q433.69116 314.425 432.30054 314.425Q430.94116 314.425 430.2849 313.51874Q429.62866 312.6125 429.5974 310.8L429.5974 309.3625Q429.5974 307.47186 430.23804 306.5656Q430.8943 305.64374 432.2849 305.64374Q433.6599 305.64374 434.31616 306.53436Q434.9724 307.40936 434.98804 309.2531L434.98804 310.65936ZM433.8943 309.175Q433.8943 307.8 433.50366 307.175Q433.12866 306.53436 432.2849 306.53436Q431.4568 306.53436 431.06616 307.175Q430.69116 307.8 430.69116 309.09686L430.69116 310.83124Q430.69116 312.20624 431.0818 312.8781Q431.48804 313.53436 432.30054 313.53436Q433.0974 313.53436 433.48804 312.90936Q433.87866 312.28436 433.8943 310.95624L433.8943 309.175ZM441.98804 310.65936Q441.98804 312.5656 441.3318 313.5031Q440.69116 314.425 439.30054 314.425Q437.94116 314.425 437.2849 313.51874Q436.62866 312.6125 436.5974 310.8L436.5974 309.3625Q436.5974 307.47186 437.23804 306.5656Q437.8943 305.64374 439.2849 305.64374Q440.6599 305.64374 441.31616 306.53436Q441.9724 307.40936 441.98804 309.2531L441.98804 310.65936ZM440.8943 309.175Q440.8943 307.8 440.50366 307.175Q440.12866 306.53436 439.2849 306.53436Q438.4568 306.53436 438.06616 307.175Q437.69116 307.8 437.69116 309.09686L437.69116 310.83124Q437.69116 312.20624 438.0818 312.8781Q438.48804 313.53436 439.30054 313.53436Q440.0974 313.53436 440.48804 312.90936Q440.87866 312.28436 440.8943 310.95624L440.8943 309.175ZM446.25366 310.89374Q446.25366 312.20624 445.9099 313.40936Q445.56616 314.59686 444.8474 315.6125Q444.1443 316.6281 443.37866 317.05L443.1443 316.39374Q444.05054 315.70624 444.5974 314.2531Q445.1443 312.78436 445.1599 311.01874L445.1599 310.83124Q445.1599 309.59686 444.8943 308.53436Q444.6443 307.47186 444.17554 306.64374Q443.7224 305.8 443.1443 305.33124L443.37866 304.675Q444.1443 305.09686 444.8474 306.09686Q445.55054 307.09686 445.8943 308.3156Q446.25366 309.51874 446.25366 310.89374Z" fill-rule="nonzero"/><path fill="#4285f4" d="M152.0 54.333332C152.0 53.781048 152.44771 53.333332 153.0 53.333332L163.0 53.333332C163.55229 53.333332 164.0 53.781048 164.0 54.333332L164.0 64.333336C164.0 64.88562 163.55229 65.333336 163.0 65.333336L153.0 65.333336C152.44771 65.333336 152.0 64.88562 152.0 64.333336Z" fill-rule="nonzero"/><path fill="#757575" d="M174.4375 55.302082L177.23438 62.255207L180.01562 55.302082L181.48438 55.302082L181.48438 63.833332L180.35938 63.833332L180.35938 60.505207L180.46875 56.927082L177.65625 63.833332L176.79688 63.833332L174.0 56.942707L174.10938 60.505207L174.10938 63.833332L172.98438 63.833332L172.98438 55.302082L174.4375 55.302082ZM184.0 63.833332L182.92188 63.833332L182.92188 57.489582L184.0 57.489582L184.0 63.833332ZM182.82812 55.817707Q182.82812 55.552082 182.98438 55.364582Q183.15625 55.177082 183.46875 55.177082Q183.78125 55.177082 183.9375 55.364582Q184.10938 55.552082 184.10938 55.817707Q184.10938 56.067707 183.9375 56.255207Q183.78125 56.427082 183.46875 56.427082Q183.15625 56.427082 182.98438 56.255207Q182.82812 56.067707 182.82812 55.817707ZM187.0 63.833332L185.92188 63.833332L185.92188 54.833332L187.0 54.833332L187.0 63.833332ZM190.0 63.833332L188.92188 63.833332L188.92188 54.833332L190.0 54.833332L190.0 63.833332ZM193.0 63.833332L191.92188 63.833332L191.92188 57.489582L193.0 57.489582L193.0 63.833332ZM191.82812 55.817707Q191.82812 55.552082 191.98438 55.364582Q192.15625 55.177082 192.46875 55.177082Q192.78125 55.177082 192.9375 55.364582Q193.10938 55.552082 193.10938 55.817707Q193.10938 56.067707 192.9375 56.255207Q192.78125 56.427082 192.46875 56.427082Q192.15625 56.427082 191.98438 56.255207Q191.82812 56.067707 191.82812 55.817707ZM198.51562 62.145832Q198.51562 61.708332 198.17188 61.473957Q197.84375 61.223957 197.01562 61.052082Q196.20312 60.880207 195.71875 60.630207Q195.23438 60.380207 195.0 60.052082Q194.78125 59.708332 194.78125 59.239582Q194.78125 58.458332 195.4375 57.927082Q196.09375 57.380207 197.125 57.380207Q198.20312 57.380207 198.85938 57.942707Q199.53125 58.489582 199.53125 59.348957L198.45312 59.348957Q198.45312 58.911457 198.0625 58.598957Q197.6875 58.270832 197.125 58.270832Q196.53125 58.270832 196.1875 58.536457Q195.85938 58.786457 195.85938 59.192707Q195.85938 59.583332 196.17188 59.786457Q196.48438 59.989582 197.29688 60.177082Q198.10938 60.348957 198.60938 60.598957Q199.10938 60.848957 199.34375 61.208332Q199.59375 61.567707 199.59375 62.067707Q199.59375 62.927082 198.90625 63.442707Q198.23438 63.958332 197.15625 63.958332Q196.39062 63.958332 195.79688 63.692707Q195.21875 63.411457 194.89062 62.927082Q194.5625 62.442707 194.5625 61.880207L195.64062 61.880207Q195.67188 62.427082 196.07812 62.755207Q196.48438 63.067707 197.15625 63.067707Q197.76562 63.067707 198.14062 62.817707Q198.51562 62.567707 198.51562 62.145832ZM203.45312 63.958332Q202.15625 63.958332 201.34375 63.114582Q200.54688 62.255207 200.54688 60.833332L200.54688 60.645832Q200.54688 59.692707 200.90625 58.958332Q201.26562 58.208332 201.90625 57.802082Q202.5625 57.380207 203.3125 57.380207Q204.54688 57.380207 205.23438 58.192707Q205.92188 59.005207 205.92188 60.520832L205.92188 60.973957L201.625 60.973957Q201.65625 61.911457 202.17188 62.489582Q202.70312 63.067707 203.51562 63.067707Q204.07812 63.067707 204.46875 62.833332Q204.875 62.598957 205.1875 62.208332L205.84375 62.723957Q205.04688 63.958332 203.45312 63.958332ZM203.3125 58.270832Q202.65625 58.270832 202.20312 58.755207Q201.76562 59.223957 201.67188 60.083332L204.84375 60.083332L204.84375 60.005207Q204.79688 59.177082 204.39062 58.723957Q204.0 58.270832 203.3125 58.270832ZM209.35938 63.067707Q209.9375 63.067707 210.375 62.723957Q210.8125 62.364582 210.85938 61.833332L211.89062 61.833332Q211.85938 62.380207 211.5 62.880207Q211.15625 63.364582 210.57812 63.661457Q210.01562 63.958332 209.35938 63.958332Q208.0625 63.958332 207.29688 63.098957Q206.54688 62.223957 206.54688 60.723957L206.54688 60.536457Q206.54688 59.614582 206.875 58.895832Q207.21875 58.177082 207.84375 57.786457Q208.48438 57.380207 209.35938 57.380207Q210.42188 57.380207 211.125 58.020832Q211.84375 58.645832 211.89062 59.677082L210.85938 59.677082Q210.8125 59.052082 210.39062 58.661457Q209.96875 58.270832 209.35938 58.270832Q208.53125 58.270832 208.07812 58.864582Q207.625 59.458332 207.625 60.583332L207.625 60.786457Q207.625 61.880207 208.07812 62.473957Q208.53125 63.067707 209.35938 63.067707ZM212.53125 60.598957Q212.53125 59.677082 212.89062 58.927082Q213.26562 58.177082 213.92188 57.786457Q214.57812 57.380207 215.40625 57.380207Q216.70312 57.380207 217.5 58.270832Q218.3125 59.161457 218.3125 60.661457L218.3125 60.739582Q218.3125 61.661457 217.95312 62.395832Q217.59375 63.130207 216.9375 63.552082Q216.28125 63.958332 215.42188 63.958332Q214.14062 63.958332 213.32812 63.067707Q212.53125 62.161457 212.53125 60.677082L212.53125 60.598957ZM213.625 60.739582Q213.625 61.786457 214.10938 62.427082Q214.60938 63.067707 215.42188 63.067707Q216.25 63.067707 216.73438 62.427082Q217.21875 61.770832 217.21875 60.598957Q217.21875 59.567707 216.71875 58.927082Q216.23438 58.270832 215.40625 58.270832Q214.60938 58.270832 214.10938 58.911457Q213.625 59.536457 213.625 60.739582ZM220.84375 57.489582L220.875 58.286457Q221.60938 57.380207 222.78125 57.380207Q224.79688 57.380207 224.8125 59.645832L224.8125 63.833332L223.71875 63.833332L223.71875 59.630207Q223.71875 58.958332 223.40625 58.630207Q223.10938 58.302082 222.45312 58.302082Q221.92188 58.302082 221.51562 58.583332Q221.125 58.864582 220.90625 59.317707L220.90625 63.833332L219.82812 63.833332L219.82812 57.489582L220.84375 57.489582ZM226.5625 60.614582Q226.5625 59.145832 227.25 58.270832Q227.9375 57.380207 229.0625 57.380207Q230.17188 57.380207 230.82812 58.130207L230.82812 54.833332L231.90625 54.833332L231.90625 63.833332L230.90625 63.833332L230.85938 63.145832Q230.20312 63.958332 229.04688 63.958332Q227.95312 63.958332 227.25 63.052082Q226.5625 62.145832 226.5625 60.692707L226.5625 60.614582ZM227.64062 60.739582Q227.64062 61.817707 228.07812 62.427082Q228.53125 63.036457 229.3125 63.036457Q230.34375 63.036457 230.82812 62.098957L230.82812 59.192707Q230.34375 58.302082 229.32812 58.302082Q228.53125 58.302082 228.07812 58.911457Q227.64062 59.520832 227.64062 60.739582ZM237.51562 62.145832Q237.51562 61.708332 237.17188 61.473957Q236.84375 61.223957 236.01562 61.052082Q235.20312 60.880207 234.71875 60.630207Q234.23438 60.380207 234.0 60.052082Q233.78125 59.708332 233.78125 59.239582Q233.78125 58.458332 234.4375 57.927082Q235.09375 57.380207 236.125 57.380207Q237.20312 57.380207 237.85938 57.942707Q238.53125 58.489582 238.53125 59.348957L237.45312 59.348957Q237.45312 58.911457 237.0625 58.598957Q236.6875 58.270832 236.125 58.270832Q235.53125 58.270832 235.1875 58.536457Q234.85938 58.786457 234.85938 59.192707Q234.85938 59.583332 235.17188 59.786457Q235.48438 59.989582 236.29688 60.177082Q237.10938 60.348957 237.60938 60.598957Q238.10938 60.848957 238.34375 61.208332Q238.59375 61.567707 238.59375 62.067707Q238.59375 62.927082 237.90625 63.442707Q237.23438 63.958332 236.15625 63.958332Q235.39062 63.958332 234.79688 63.692707Q234.21875 63.411457 233.89062 62.927082Q233.5625 62.442707 233.5625 61.880207L234.64062 61.880207Q234.67188 62.427082 235.07812 62.755207Q235.48438 63.067707 236.15625 63.067707Q236.76562 63.067707 237.14062 62.817707Q237.51562 62.567707 237.51562 62.145832Z" fill-rule="nonzero"/><path fill="#db4437" d="M255.0 54.333332C255.0 53.781048 255.44771 53.333332 256.0 53.333332L266.0 53.333332C266.55228 53.333332 267.0 53.781048 267.0 54.333332L267.0 64.333336C267.0 64.88562 266.55228 65.333336 266.0 65.333336L256.0 65.333336C255.44771 65.333336 255.0 64.88562 255.0 64.333336Z" fill-rule="nonzero"/><path fill="#757575" d="M277.4375 55.302082L280.23438 62.255207L283.01562 55.302082L284.48438 55.302082L284.48438 63.833332L283.35938 63.833332L283.35938 60.505207L283.46875 56.927082L280.65625 63.833332L279.79688 63.833332L277.0 56.942707L277.10938 60.505207L277.10938 63.833332L275.98438 63.833332L275.98438 55.302082L277.4375 55.302082ZM288.45312 63.958332Q287.15625 63.958332 286.34375 63.114582Q285.54688 62.255207 285.54688 60.833332L285.54688 60.645832Q285.54688 59.692707 285.90625 58.958332Q286.26562 58.208332 286.90625 57.802082Q287.5625 57.380207 288.3125 57.380207Q289.54688 57.380207 290.23438 58.192707Q290.92188 59.005207 290.92188 60.520832L290.92188 60.973957L286.625 60.973957Q286.65625 61.911457 287.17188 62.489582Q287.70312 63.067707 288.51562 63.067707Q289.07812 63.067707 289.46875 62.833332Q289.875 62.598957 290.1875 62.208332L290.84375 62.723957Q290.04688 63.958332 288.45312 63.958332ZM288.3125 58.270832Q287.65625 58.270832 287.20312 58.755207Q286.76562 59.223957 286.67188 60.083332L289.84375 60.083332L289.84375 60.005207Q289.79688 59.177082 289.39062 58.723957Q289.0 58.270832 288.3125 58.270832ZM291.5625 60.614582Q291.5625 59.130207 292.25 58.255207Q292.9375 57.380207 294.0625 57.380207Q295.21875 57.380207 295.875 58.192707L295.92188 57.489582L296.92188 57.489582L296.92188 63.677082Q296.92188 64.91145 296.1875 65.61458Q295.45312 66.33333 294.23438 66.33333Q293.54688 66.33333 292.89062 66.03645Q292.23438 65.73958 291.89062 65.23958L292.45312 64.58333Q293.14062 65.4427 294.15625 65.4427Q294.9375 65.4427 295.375 64.98958Q295.82812 64.55208 295.82812 63.739582L295.82812 63.192707Q295.17188 63.958332 294.04688 63.958332Q292.9375 63.958332 292.25 63.067707Q291.5625 62.161457 291.5625 60.614582ZM292.65625 60.739582Q292.65625 61.802082 293.09375 62.427082Q293.53125 63.036457 294.32812 63.036457Q295.34375 63.036457 295.82812 62.098957L295.82812 59.208332Q295.32812 58.302082 294.32812 58.302082Q293.54688 58.302082 293.09375 58.911457Q292.65625 59.520832 292.65625 60.739582ZM302.73438 63.833332Q302.64062 63.645832 302.57812 63.161457Q301.82812 63.958332 300.78125 63.958332Q299.84375 63.958332 299.23438 63.427082Q298.64062 62.895832 298.64062 62.067707Q298.64062 61.083332 299.39062 60.536457Q300.14062 59.989582 301.51562 59.989582L302.5625 59.989582L302.5625 59.489582Q302.5625 58.927082 302.21875 58.598957Q301.89062 58.255207 301.21875 58.255207Q300.64062 58.255207 300.25 58.552082Q299.85938 58.833332 299.85938 59.255207L298.76562 59.255207Q298.76562 58.770832 299.09375 58.333332Q299.4375 57.895832 300.01562 57.645832Q300.59375 57.380207 301.28125 57.380207Q302.39062 57.380207 303.0 57.927082Q303.625 58.473957 303.65625 59.427082L303.65625 62.348957Q303.65625 63.223957 303.875 63.739582L303.875 63.833332L302.73438 63.833332ZM300.9375 63.005207Q301.45312 63.005207 301.90625 62.739582Q302.35938 62.473957 302.5625 62.052082L302.5625 60.755207L301.71875 60.755207Q299.71875 60.755207 299.71875 61.927082Q299.71875 62.427082 300.0625 62.723957Q300.40625 63.005207 300.9375 63.005207ZM311.1875 60.739582Q311.1875 62.192707 310.51562 63.083332Q309.85938 63.958332 308.73438 63.958332Q307.53125 63.958332 306.875 63.098957L306.8125 63.833332L305.82812 63.833332L305.82812 54.833332L306.90625 54.833332L306.90625 58.192707Q307.5625 57.380207 308.71875 57.380207Q309.875 57.380207 310.53125 58.255207Q311.1875 59.114582 311.1875 60.645832L311.1875 60.739582ZM310.10938 60.614582Q310.10938 59.505207 309.67188 58.911457Q309.25 58.302082 308.45312 58.302082Q307.375 58.302082 306.90625 59.286457L306.90625 62.036457Q307.40625 63.036457 308.45312 63.036457Q309.23438 63.036457 309.67188 62.427082Q310.10938 61.817707 310.10938 60.614582ZM314.89062 62.239582L316.375 57.489582L317.53125 57.489582L314.98438 64.8177Q314.39062 66.39583 313.10938 66.39583L312.89062 66.3802L312.5 66.30208L312.5 65.42708L312.78125 65.4427Q313.34375 65.4427 313.64062 65.22395Q313.95312 65.0052 314.15625 64.41145L314.39062 63.755207L312.125 57.489582L313.3125 57.489582L314.89062 62.239582ZM320.29688 55.958332L320.29688 57.489582L321.46875 57.489582L321.46875 58.333332L320.29688 58.333332L320.29688 62.255207Q320.29688 62.645832 320.45312 62.833332Q320.60938 63.020832 320.98438 63.020832Q321.17188 63.020832 321.5 62.958332L321.5 63.833332Q321.07812 63.958332 320.67188 63.958332Q319.95312 63.958332 319.57812 63.520832Q319.20312 63.067707 319.20312 62.255207L319.20312 58.333332L318.04688 58.333332L318.04688 57.489582L319.20312 57.489582L319.20312 55.958332L320.29688 55.958332ZM325.45312 63.958332Q324.15625 63.958332 323.34375 63.114582Q322.54688 62.255207 322.54688 60.833332L322.54688 60.645832Q322.54688 59.692707 322.90625 58.958332Q323.26562 58.208332 323.90625 57.802082Q324.5625 57.380207 325.3125 57.380207Q326.54688 57.380207 327.23438 58.192707Q327.92188 59.005207 327.92188 60.520832L327.92188 60.973957L323.625 60.973957Q323.65625 61.911457 324.17188 62.489582Q324.70312 63.067707 325.51562 63.067707Q326.07812 63.067707 326.46875 62.833332Q326.875 62.598957 327.1875 62.208332L327.84375 62.723957Q327.04688 63.958332 325.45312 63.958332ZM325.3125 58.270832Q324.65625 58.270832 324.20312 58.755207Q323.76562 59.223957 323.67188 60.083332L326.84375 60.083332L326.84375 60.005207Q326.79688 59.177082 326.39062 58.723957Q326.0 58.270832 325.3125 58.270832ZM332.51562 62.145832Q332.51562 61.708332 332.17188 61.473957Q331.84375 61.223957 331.01562 61.052082Q330.20312 60.880207 329.71875 60.630207Q329.23438 60.380207 329.0 60.052082Q328.78125 59.708332 328.78125 59.239582Q328.78125 58.458332 329.4375 57.927082Q330.09375 57.380207 331.125 57.380207Q332.20312 57.380207 332.85938 57.942707Q333.53125 58.489582 333.53125 59.348957L332.45312 59.348957Q332.45312 58.911457 332.0625 58.598957Q331.6875 58.270832 331.125 58.270832Q330.53125 58.270832 330.1875 58.536457Q329.85938 58.786457 329.85938 59.192707Q329.85938 59.583332 330.17188 59.786457Q330.48438 59.989582 331.29688 60.177082Q332.10938 60.348957 332.60938 60.598957Q333.10938 60.848957 333.34375 61.208332Q333.59375 61.567707 333.59375 62.067707Q333.59375 62.927082 332.90625 63.442707Q332.23438 63.958332 331.15625 63.958332Q330.39062 63.958332 329.79688 63.692707Q329.21875 63.411457 328.89062 62.927082Q328.5625 62.442707 328.5625 61.880207L329.64062 61.880207Q329.67188 62.427082 330.07812 62.755207Q330.48438 63.067707 331.15625 63.067707Q331.76562 63.067707 332.14062 62.817707Q332.51562 62.567707 332.51562 62.145832ZM342.70312 61.598957L339.125 61.598957L338.32812 63.833332L337.17188 63.833332L340.42188 55.302082L341.40625 55.302082L344.67188 63.833332L343.51562 63.833332L342.70312 61.598957ZM339.46875 60.677082L342.375 60.677082L340.92188 56.692707L339.46875 60.677082ZM347.0 63.833332L345.92188 63.833332L345.92188 54.833332L347.0 54.833332L347.0 63.833332ZM350.0 63.833332L348.92188 63.833332L348.92188 54.833332L350.0 54.833332L350.0 63.833332ZM351.53125 60.598957Q351.53125 59.677082 351.89062 58.927082Q352.26562 58.177082 352.92188 57.786457Q353.57812 57.380207 354.40625 57.380207Q355.70312 57.380207 356.5 58.270832Q357.3125 59.161457 357.3125 60.661457L357.3125 60.739582Q357.3125 61.661457 356.95312 62.395832Q356.59375 63.130207 355.9375 63.552082Q355.28125 63.958332 354.42188 63.958332Q353.14062 63.958332 352.32812 63.067707Q351.53125 62.161457 351.53125 60.677082L351.53125 60.598957ZM352.625 60.739582Q352.625 61.786457 353.10938 62.427082Q353.60938 63.067707 354.42188 63.067707Q355.25 63.067707 355.73438 62.427082Q356.21875 61.770832 356.21875 60.598957Q356.21875 59.567707 355.71875 58.927082Q355.23438 58.270832 354.40625 58.270832Q353.60938 58.270832 353.10938 58.911457Q352.625 59.536457 352.625 60.739582ZM361.35938 63.067707Q361.9375 63.067707 362.375 62.723957Q362.8125 62.364582 362.85938 61.833332L363.89062 61.833332Q363.85938 62.380207 363.5 62.880207Q363.15625 63.364582 362.57812 63.661457Q362.01562 63.958332 361.35938 63.958332Q360.0625 63.958332 359.29688 63.098957Q358.54688 62.223957 358.54688 60.723957L358.54688 60.536457Q358.54688 59.614582 358.875 58.895832Q359.21875 58.177082 359.84375 57.786457Q360.48438 57.380207 361.35938 57.380207Q362.42188 57.380207 363.125 58.020832Q363.84375 58.645832 363.89062 59.677082L362.85938 59.677082Q362.8125 59.052082 362.39062 58.661457Q361.96875 58.270832 361.35938 58.270832Q360.53125 58.270832 360.07812 58.864582Q359.625 59.458332 359.625 60.583332L359.625 60.786457Q359.625 61.880207 360.07812 62.473957Q360.53125 63.067707 361.35938 63.067707ZM368.73438 63.833332Q368.64062 63.645832 368.57812 63.161457Q367.82812 63.958332 366.78125 63.958332Q365.84375 63.958332 365.23438 63.427082Q364.64062 62.895832 364.64062 62.067707Q364.64062 61.083332 365.39062 60.536457Q366.14062 59.989582 367.51562 59.989582L368.5625 59.989582L368.5625 59.489582Q368.5625 58.927082 368.21875 58.598957Q367.89062 58.255207 367.21875 58.255207Q366.64062 58.255207 366.25 58.552082Q365.85938 58.833332 365.85938 59.255207L364.76562 59.255207Q364.76562 58.770832 365.09375 58.333332Q365.4375 57.895832 366.01562 57.645832Q366.59375 57.380207 367.28125 57.380207Q368.39062 57.380207 369.0 57.927082Q369.625 58.473957 369.65625 59.427082L369.65625 62.348957Q369.65625 63.223957 369.875 63.739582L369.875 63.833332L368.73438 63.833332ZM366.9375 63.005207Q367.45312 63.005207 367.90625 62.739582Q368.35938 62.473957 368.5625 62.052082L368.5625 60.755207L367.71875 60.755207Q365.71875 60.755207 365.71875 61.927082Q365.71875 62.427082 366.0625 62.723957Q366.40625 63.005207 366.9375 63.005207ZM373.29688 55.958332L373.29688 57.489582L374.46875 57.489582L374.46875 58.333332L373.29688 58.333332L373.29688 62.255207Q373.29688 62.645832 373.45312 62.833332Q373.60938 63.020832 373.98438 63.020832Q374.17188 63.020832 374.5 62.958332L374.5 63.833332Q374.07812 63.958332 373.67188 63.958332Q372.95312 63.958332 372.57812 63.520832Q372.20312 63.067707 372.20312 62.255207L372.20312 58.333332L371.04688 58.333332L371.04688 57.489582L372.20312 57.489582L372.20312 55.958332L373.29688 55.958332ZM378.45312 63.958332Q377.15625 63.958332 376.34375 63.114582Q375.54688 62.255207 375.54688 60.833332L375.54688 60.645832Q375.54688 59.692707 375.90625 58.958332Q376.26562 58.208332 376.90625 57.802082Q377.5625 57.380207 378.3125 57.380207Q379.54688 57.380207 380.23438 58.192707Q380.92188 59.005207 380.92188 60.520832L380.92188 60.973957L376.625 60.973957Q376.65625 61.911457 377.17188 62.489582Q377.70312 63.067707 378.51562 63.067707Q379.07812 63.067707 379.46875 62.833332Q379.875 62.598957 380.1875 62.208332L380.84375 62.723957Q380.04688 63.958332 378.45312 63.958332ZM378.3125 58.270832Q377.65625 58.270832 377.20312 58.755207Q376.76562 59.223957 376.67188 60.083332L379.84375 60.083332L379.84375 60.005207Q379.79688 59.177082 379.39062 58.723957Q379.0 58.270832 378.3125 58.270832ZM381.5625 60.614582Q381.5625 59.145832 382.25 58.270832Q382.9375 57.380207 384.0625 57.380207Q385.17188 57.380207 385.82812 58.130207L385.82812 54.833332L386.90625 54.833332L386.90625 63.833332L385.90625 63.833332L385.85938 63.145832Q385.20312 63.958332 384.04688 63.958332Q382.95312 63.958332 382.25 63.052082Q381.5625 62.145832 381.5625 60.692707L381.5625 60.614582ZM382.64062 60.739582Q382.64062 61.817707 383.07812 62.427082Q383.53125 63.036457 384.3125 63.036457Q385.34375 63.036457 385.82812 62.098957L385.82812 59.192707Q385.34375 58.302082 384.32812 58.302082Q383.53125 58.302082 383.07812 58.911457Q382.64062 59.520832 382.64062 60.739582Z" fill-rule="nonzero"/><path fill="#757575" d="M18.35625 35.7L18.35625 21.48125L22.371876 21.48125Q24.215626 21.48125 25.6375 22.309376Q27.075 23.121876 27.840626 24.6375Q28.621876 26.153126 28.6375 28.10625L28.6375 29.0125Q28.6375 31.028126 27.85625 32.54375Q27.075 34.059376 25.6375 34.871876Q24.2 35.684376 22.29375 35.7L18.35625 35.7ZM20.23125 23.028126L20.23125 34.16875L22.2 34.16875Q24.371876 34.16875 25.575 32.825Q26.778126 31.465626 26.778126 28.98125L26.778126 28.153126Q26.778126 25.73125 25.6375 24.3875Q24.496876 23.04375 22.41875 23.028126L20.23125 23.028126ZM33.028126 35.7L31.23125 35.7L31.23125 25.1375L33.028126 25.1375L33.028126 35.7ZM31.075 22.325Q31.075 21.8875 31.340626 21.590626Q31.621876 21.278126 32.1375 21.278126Q32.66875 21.278126 32.934376 21.590626Q33.215626 21.8875 33.215626 22.325Q33.215626 22.7625 32.934376 23.059376Q32.66875 23.35625 32.1375 23.35625Q31.621876 23.35625 31.340626 23.059376Q31.075 22.7625 31.075 22.325ZM40.309376 34.41875Q41.278126 34.41875 41.996876 33.840626Q42.715626 33.246876 42.79375 32.371876L44.5125 32.371876Q44.45 33.278126 43.871876 34.10625Q43.309376 34.91875 42.340626 35.41875Q41.3875 35.903126 40.309376 35.903126Q38.153126 35.903126 36.871876 34.465626Q35.60625 33.0125 35.60625 30.5125L35.60625 30.215626Q35.60625 28.66875 36.16875 27.465626Q36.73125 26.2625 37.79375 25.60625Q38.85625 24.934376 40.29375 24.934376Q42.075 24.934376 43.246876 25.996876Q44.434376 27.059376 44.5125 28.7625L42.79375 28.7625Q42.715626 27.746876 42.0125 27.090626Q41.325 26.41875 40.29375 26.41875Q38.91875 26.41875 38.153126 27.41875Q37.403126 28.403126 37.403126 30.278126L37.403126 30.621876Q37.403126 32.45 38.153126 33.434376Q38.903126 34.41875 40.309376 34.41875ZM48.5125 22.575L48.5125 25.1375L50.496876 25.1375L50.496876 26.528126L48.5125 26.528126L48.5125 33.075Q48.5125 33.715626 48.778126 34.04375Q49.04375 34.35625 49.684376 34.35625Q49.996876 34.35625 50.54375 34.23125L50.54375 35.7Q49.825 35.903126 49.153126 35.903126Q47.95 35.903126 47.325 35.16875Q46.715626 34.434376 46.715626 33.075L46.715626 26.528126L44.79375 26.528126L44.79375 25.1375L46.715626 25.1375L46.715626 22.575L48.5125 22.575ZM55.028126 35.7L53.23125 35.7L53.23125 25.1375L55.028126 25.1375L55.028126 35.7ZM53.075 22.325Q53.075 21.8875 53.340626 21.590626Q53.621876 21.278126 54.1375 21.278126Q54.66875 21.278126 54.934376 21.590626Q55.215626 21.8875 55.215626 22.325Q55.215626 22.7625 54.934376 23.059376Q54.66875 23.35625 54.1375 23.35625Q53.621876 23.35625 53.340626 23.059376Q53.075 22.7625 53.075 22.325ZM57.590626 30.325Q57.590626 28.7625 58.2 27.528126Q58.809376 26.278126 59.8875 25.60625Q60.98125 24.934376 62.3875 24.934376Q64.54375 24.934376 65.87187 26.434376Q67.21562 27.91875 67.21562 30.403126L67.21562 30.528126Q67.21562 32.075 66.62187 33.309376Q66.02812 34.528126 64.91875 35.215626Q63.825 35.903126 62.403126 35.903126Q60.2625 35.903126 58.91875 34.403126Q57.590626 32.903126 57.590626 30.45L57.590626 30.325ZM59.403126 30.528126Q59.403126 32.29375 60.215626 33.35625Q61.04375 34.41875 62.403126 34.41875Q63.778126 34.41875 64.59062 33.340626Q65.40312 32.2625 65.40312 30.325Q65.40312 28.575 64.575 27.496876Q63.746876 26.41875 62.3875 26.41875Q61.04375 26.41875 60.215626 27.48125Q59.403126 28.54375 59.403126 30.528126ZM70.77812 25.1375L70.84062 26.465626Q72.04375 24.934376 73.99687 24.934376Q77.35625 24.934376 77.37187 28.715626L77.37187 35.7L75.575 35.7L75.575 28.7Q75.55937 27.559376 75.04375 27.0125Q74.54375 26.465626 73.45 26.465626Q72.575 26.465626 71.90312 26.934376Q71.24687 27.403126 70.87187 28.16875L70.87187 35.7L69.075 35.7L69.075 25.1375L70.77812 25.1375ZM86.59062 35.7Q86.43437 35.3875 86.34062 34.590626Q85.075 35.903126 83.325 35.903126Q81.7625 35.903126 80.7625 35.0125Q79.7625 34.121876 79.7625 32.7625Q79.7625 31.121876 81.0125 30.215626Q82.27812 29.29375 84.54375 29.29375L86.30937 29.29375L86.30937 28.465626Q86.30937 27.5125 85.73125 26.95Q85.16875 26.3875 84.075 26.3875Q83.10625 26.3875 82.45 26.8875Q81.79375 27.371876 81.79375 28.059376L79.98125 28.059376Q79.98125 27.278126 80.54375 26.54375Q81.10625 25.79375 82.05937 25.371876Q83.02812 24.934376 84.18437 24.934376Q86.0125 24.934376 87.04375 25.85625Q88.075 26.7625 88.12187 28.371876L88.12187 33.23125Q88.12187 34.684376 88.48125 35.54375L88.48125 35.7L86.59062 35.7ZM83.59062 34.325Q84.45 34.325 85.2 33.8875Q85.96562 33.45 86.30937 32.746876L86.30937 30.575L84.8875 30.575Q81.575 30.575 81.575 32.5125Q81.575 33.371876 82.1375 33.85625Q82.7 34.325 83.59062 34.325ZM96.16875 26.746876Q95.7625 26.684376 95.29375 26.684376Q93.5125 26.684376 92.87187 28.2L92.87187 35.7L91.075 35.7L91.075 25.1375L92.825 25.1375L92.85625 26.35625Q93.74687 24.934376 95.37187 24.934376Q95.90312 24.934376 96.16875 25.075L96.16875 26.746876ZM101.52812 33.059376L103.98125 25.1375L105.91875 25.1375L101.66875 37.325Q100.68437 39.965626 98.54375 39.965626L98.2 39.934376L97.52812 39.809376L97.52812 38.340626L98.0125 38.3875Q98.93437 38.3875 99.43437 38.0125Q99.95 37.6375 100.27812 36.653126L100.68437 35.575L96.91875 25.1375L98.8875 25.1375L101.52812 33.059376ZM115.55937 33.246876L118.16875 25.1375L120.0125 25.1375L116.23125 35.7L114.85625 35.7L111.02812 25.1375L112.87187 25.1375L115.55937 33.246876ZM128.21562 32.903126Q128.21562 32.16875 127.66875 31.7625Q127.12187 31.35625 125.74687 31.059376Q124.37187 30.7625 123.55937 30.35625Q122.7625 29.95 122.37187 29.3875Q121.99687 28.809376 121.99687 28.028126Q121.99687 26.73125 123.09062 25.840626Q124.18437 24.934376 125.90312 24.934376Q127.7 24.934376 128.80937 25.871876Q129.93437 26.79375 129.93437 28.23125L128.10625 28.23125Q128.10625 27.496876 127.48125 26.965626Q126.85625 26.41875 125.90312 26.41875Q124.90312 26.41875 124.34062 26.85625Q123.79375 27.278126 123.79375 27.98125Q123.79375 28.621876 124.30937 28.965626Q124.825 29.29375 126.18437 29.60625Q127.54375 29.903126 128.37187 30.325Q129.21562 30.73125 129.62187 31.325Q130.02812 31.91875 130.02812 32.7625Q130.02812 34.184376 128.8875 35.04375Q127.7625 35.903126 125.95 35.903126Q124.68437 35.903126 123.7 35.45Q122.73125 34.996876 122.16875 34.2Q121.62187 33.3875 121.62187 32.45L123.43437 32.45Q123.48125 33.35625 124.15312 33.8875Q124.84062 34.41875 125.95 34.41875Q126.98125 34.41875 127.59062 34.0125Q128.21562 33.590626 128.21562 32.903126ZM139.23125 30.1375L139.23125 35.7L137.35625 35.7L137.35625 21.48125L142.59062 21.48125Q144.93437 21.48125 146.24687 22.66875Q147.575 23.85625 147.575 25.825Q147.575 27.903126 146.27812 29.028126Q144.98125 30.1375 142.575 30.1375L139.23125 30.1375ZM139.23125 28.60625L142.59062 28.60625Q144.10625 28.60625 144.90312 27.903126Q145.7 27.184376 145.7 25.840626Q145.7 24.575 144.90312 23.825Q144.10625 23.059376 142.7 23.028126L139.23125 23.028126L139.23125 28.60625ZM149.59062 30.325Q149.59062 28.7625 150.2 27.528126Q150.80937 26.278126 151.8875 25.60625Q152.98125 24.934376 154.3875 24.934376Q156.54375 24.934376 157.87187 26.434376Q159.21562 27.91875 159.21562 30.403126L159.21562 30.528126Q159.21562 32.075 158.62187 33.309376Q158.02812 34.528126 156.91875 35.215626Q155.825 35.903126 154.40312 35.903126Q152.2625 35.903126 150.91875 34.403126Q149.59062 32.903126 149.59062 30.45L149.59062 30.325ZM151.40312 30.528126Q151.40312 32.29375 152.21562 33.35625Q153.04375 34.41875 154.40312 34.41875Q155.77812 34.41875 156.59062 33.340626Q157.40312 32.2625 157.40312 30.325Q157.40312 28.575 156.575 27.496876Q155.74687 26.41875 154.3875 26.41875Q153.04375 26.41875 152.21562 27.48125Q151.40312 28.54375 151.40312 30.528126ZM160.59062 30.325Q160.59062 28.7625 161.2 27.528126Q161.80937 26.278126 162.8875 25.60625Q163.98125 24.934376 165.3875 24.934376Q167.54375 24.934376 168.87187 26.434376Q170.21562 27.91875 170.21562 30.403126L170.21562 30.528126Q170.21562 32.075 169.62187 33.309376Q169.02812 34.528126 167.91875 35.215626Q166.825 35.903126 165.40312 35.903126Q163.2625 35.903126 161.91875 34.403126Q160.59062 32.903126 160.59062 30.45L160.59062 30.325ZM162.40312 30.528126Q162.40312 32.29375 163.21562 33.35625Q164.04375 34.41875 165.40312 34.41875Q166.77812 34.41875 167.59062 33.340626Q168.40312 32.2625 168.40312 30.325Q168.40312 28.575 167.575 27.496876Q166.74687 26.41875 165.3875 26.41875Q164.04375 26.41875 163.21562 27.48125Q162.40312 28.54375 162.40312 30.528126ZM174.02812 35.7L172.23125 35.7L172.23125 20.7L174.02812 20.7L174.02812 35.7ZM181.45 35.903126Q179.30937 35.903126 177.95 34.496876Q176.60625 33.075 176.60625 30.715626L176.60625 30.371876Q176.60625 28.809376 177.2 27.575Q177.80937 26.340626 178.8875 25.6375Q179.96562 24.934376 181.23125 24.934376Q183.29375 24.934376 184.43437 26.29375Q185.575 27.653126 185.575 30.184376L185.575 30.934376L178.41875 30.934376Q178.45 32.496876 179.325 33.465626Q180.2 34.41875 181.54375 34.41875Q182.5125 34.41875 183.16875 34.028126Q183.84062 33.6375 184.34062 32.996876L185.43437 33.85625Q184.10625 35.903126 181.45 35.903126ZM181.23125 26.41875Q180.1375 26.41875 179.3875 27.215626Q178.65312 28.0125 178.48125 29.45L183.7625 29.45L183.7625 29.309376Q183.68437 27.934376 183.0125 27.184376Q182.35625 26.41875 181.23125 26.41875ZM187.62187 30.325Q187.62187 27.903126 188.77812 26.41875Q189.93437 24.934376 191.79375 24.934376Q193.65312 24.934376 194.73125 26.2L194.73125 20.7L196.54375 20.7L196.54375 35.7L194.8875 35.7L194.79375 34.559376Q193.71562 35.903126 191.77812 35.903126Q189.95 35.903126 188.77812 34.403126Q187.62187 32.8875 187.62187 30.465626L187.62187 30.325ZM189.43437 30.528126Q189.43437 32.325 190.16875 33.340626Q190.91875 34.35625 192.23125 34.35625Q193.95 34.35625 194.73125 32.825L194.73125 27.965626Q193.93437 26.465626 192.24687 26.465626Q190.91875 26.465626 190.16875 27.496876Q189.43437 28.528126 189.43437 30.528126ZM199.35625 35.7L199.35625 21.48125L203.37187 21.48125Q205.21562 21.48125 206.6375 22.309376Q208.075 23.121876 208.84062 24.6375Q209.62187 26.153126 209.6375 28.10625L209.6375 29.0125Q209.6375 31.028126 208.85625 32.54375Q208.075 34.059376 206.6375 34.871876Q205.2 35.684376 203.29375 35.7L199.35625 35.7ZM201.23125 23.028126L201.23125 34.16875L203.2 34.16875Q205.37187 34.16875 206.575 32.825Q207.77812 31.465626 207.77812 28.98125L207.77812 28.153126Q207.77812 25.73125 206.6375 24.3875Q205.49687 23.04375 203.41875 23.028126L201.23125 23.028126ZM214.02812 35.7L212.23125 35.7L212.23125 25.1375L214.02812 25.1375L214.02812 35.7ZM212.075 22.325Q212.075 21.8875 212.34062 21.590626Q212.62187 21.278126 213.1375 21.278126Q213.66875 21.278126 213.93437 21.590626Q214.21562 21.8875 214.21562 22.325Q214.21562 22.7625 213.93437 23.059376Q213.66875 23.35625 213.1375 23.35625Q212.62187 23.35625 212.34062 23.059376Q212.075 22.7625 212.075 22.325ZM221.30937 34.41875Q222.27812 34.41875 222.99687 33.840626Q223.71562 33.246876 223.79375 32.371876L225.5125 32.371876Q225.45 33.278126 224.87187 34.10625Q224.30937 34.91875 223.34062 35.41875Q222.3875 35.903126 221.30937 35.903126Q219.15312 35.903126 217.87187 34.465626Q216.60625 33.0125 216.60625 30.5125L216.60625 30.215626Q216.60625 28.66875 217.16875 27.465626Q217.73125 26.2625 218.79375 25.60625Q219.85625 24.934376 221.29375 24.934376Q223.075 24.934376 224.24687 25.996876Q225.43437 27.059376 225.5125 28.7625L223.79375 28.7625Q223.71562 27.746876 223.0125 27.090626Q222.325 26.41875 221.29375 26.41875Q219.91875 26.41875 219.15312 27.41875Q218.40312 28.403126 218.40312 30.278126L218.40312 30.621876Q218.40312 32.45 219.15312 33.434376Q219.90312 34.41875 221.30937 34.41875ZM229.5125 22.575L229.5125 25.1375L231.49687 25.1375L231.49687 26.528126L229.5125 26.528126L229.5125 33.075Q229.5125 33.715626 229.77812 34.04375Q230.04375 34.35625 230.68437 34.35625Q230.99687 34.35625 231.54375 34.23125L231.54375 35.7Q230.825 35.903126 230.15312 35.903126Q228.95 35.903126 228.325 35.16875Q227.71562 34.434376 227.71562 33.075L227.71562 26.528126L225.79375 26.528126L225.79375 25.1375L227.71562 25.1375L227.71562 22.575L229.5125 22.575ZM236.02812 35.7L234.23125 35.7L234.23125 25.1375L236.02812 25.1375L236.02812 35.7ZM234.075 22.325Q234.075 21.8875 234.34062 21.590626Q234.62187 21.278126 235.1375 21.278126Q235.66875 21.278126 235.93437 21.590626Q236.21562 21.8875 236.21562 22.325Q236.21562 22.7625 235.93437 23.059376Q235.66875 23.35625 235.1375 23.35625Q234.62187 23.35625 234.34062 23.059376Q234.075 22.7625 234.075 22.325ZM238.59062 30.325Q238.59062 28.7625 239.2 27.528126Q239.80937 26.278126 240.8875 25.60625Q241.98125 24.934376 243.3875 24.934376Q245.54375 24.934376 246.87187 26.434376Q248.21562 27.91875 248.21562 30.403126L248.21562 30.528126Q248.21562 32.075 247.62187 33.309376Q247.02812 34.528126 245.91875 35.215626Q244.825 35.903126 243.40312 35.903126Q241.2625 35.903126 239.91875 34.403126Q238.59062 32.903126 238.59062 30.45L238.59062 30.325ZM240.40312 30.528126Q240.40312 32.29375 241.21562 33.35625Q242.04375 34.41875 243.40312 34.41875Q244.77812 34.41875 245.59062 33.340626Q246.40312 32.2625 246.40312 30.325Q246.40312 28.575 245.575 27.496876Q244.74687 26.41875 243.3875 26.41875Q242.04375 26.41875 241.21562 27.48125Q240.40312 28.54375 240.40312 30.528126ZM251.77812 25.1375L251.84062 26.465626Q253.04375 24.934376 254.99687 24.934376Q258.35626 24.934376 258.3719 28.715626L258.3719 35.7L256.575 35.7L256.575 28.7Q256.5594 27.559376 256.04376 27.0125Q255.54375 26.465626 254.45 26.465626Q253.575 26.465626 252.90312 26.934376Q252.24687 27.403126 251.87187 28.16875L251.87187 35.7L250.075 35.7L250.075 25.1375L251.77812 25.1375ZM267.59064 35.7Q267.4344 35.3875 267.34064 34.590626Q266.075 35.903126 264.325 35.903126Q262.7625 35.903126 261.7625 35.0125Q260.7625 34.121876 260.7625 32.7625Q260.7625 31.121876 262.0125 30.215626Q263.27814 29.29375 265.54376 29.29375L267.3094 29.29375L267.3094 28.465626Q267.3094 27.5125 266.73126 26.95Q266.16876 26.3875 265.075 26.3875Q264.10626 26.3875 263.45 26.8875Q262.79376 27.371876 262.79376 28.059376L260.98126 28.059376Q260.98126 27.278126 261.54376 26.54375Q262.10626 25.79375 263.0594 25.371876Q264.02814 24.934376 265.1844 24.934376Q267.0125 24.934376 268.04376 25.85625Q269.075 26.7625 269.1219 28.371876L269.1219 33.23125Q269.1219 34.684376 269.48126 35.54375L269.48126 35.7L267.59064 35.7ZM264.59064 34.325Q265.45 34.325 266.2 33.8875Q266.96564 33.45 267.3094 32.746876L267.3094 30.575L265.8875 30.575Q262.575 30.575 262.575 32.5125Q262.575 33.371876 263.1375 33.85625Q263.7 34.325 264.59064 34.325ZM277.16876 26.746876Q276.7625 26.684376 276.29376 26.684376Q274.5125 26.684376 273.8719 28.2L273.8719 35.7L272.075 35.7L272.075 25.1375L273.825 25.1375L273.85626 26.35625Q274.7469 24.934376 276.3719 24.934376Q276.90314 24.934376 277.16876 25.075L277.16876 26.746876ZM282.52814 33.059376L284.98126 25.1375L286.91876 25.1375L282.66876 37.325Q281.6844 39.965626 279.54376 39.965626L279.2 39.934376L278.52814 39.809376L278.52814 38.340626L279.0125 38.3875Q279.9344 38.3875 280.4344 38.0125Q280.95 37.6375 281.27814 36.653126L281.6844 35.575L277.91876 25.1375L279.8875 25.1375L282.52814 33.059376ZM288.10626 34.746876Q288.10626 34.278126 288.3875 33.965626Q288.66876 33.653126 289.21564 33.653126Q289.77814 33.653126 290.0594 33.965626Q290.35626 34.278126 290.35626 34.746876Q290.35626 35.2 290.0594 35.5125Q289.77814 35.809376 289.21564 35.809376Q288.66876 35.809376 288.3875 35.5125Q288.10626 35.2 288.10626 34.746876ZM288.10626 25.746876Q288.10626 25.278126 288.3875 24.965626Q288.66876 24.653126 289.21564 24.653126Q289.77814 24.653126 290.0594 24.965626Q290.35626 25.278126 290.35626 25.746876Q290.35626 26.2 290.0594 26.5125Q289.77814 26.809376 289.21564 26.809376Q288.66876 26.809376 288.3875 26.5125Q288.10626 26.2 288.10626 25.746876ZM306.2 31.98125L300.2469 31.98125L298.90314 35.7L296.98126 35.7L302.40314 21.48125L304.04376 21.48125L309.48126 35.7L307.5594 35.7L306.2 31.98125ZM300.8094 30.45L305.65314 30.45L303.23126 23.79375L300.8094 30.45ZM310.6219 30.325Q310.6219 27.903126 311.77814 26.41875Q312.9344 24.934376 314.79376 24.934376Q316.65314 24.934376 317.73126 26.2L317.73126 20.7L319.54376 20.7L319.54376 35.7L317.8875 35.7L317.79376 34.559376Q316.71564 35.903126 314.77814 35.903126Q312.95 35.903126 311.77814 34.403126Q310.6219 32.8875 310.6219 30.465626L310.6219 30.325ZM312.4344 30.528126Q312.4344 32.325 313.16876 33.340626Q313.91876 34.35625 315.23126 34.35625Q316.95 34.35625 317.73126 32.825L317.73126 27.965626Q316.9344 26.465626 315.2469 26.465626Q313.91876 26.465626 313.16876 27.496876Q312.4344 28.528126 312.4344 30.528126ZM321.6219 30.325Q321.6219 27.903126 322.77814 26.41875Q323.9344 24.934376 325.79376 24.934376Q327.65314 24.934376 328.73126 26.2L328.73126 20.7L330.54376 20.7L330.54376 35.7L328.8875 35.7L328.79376 34.559376Q327.71564 35.903126 325.77814 35.903126Q323.95 35.903126 322.77814 34.403126Q321.6219 32.8875 321.6219 30.465626L321.6219 30.325ZM323.4344 30.528126Q323.4344 32.325 324.16876 33.340626Q324.91876 34.35625 326.23126 34.35625Q327.95 34.35625 328.73126 32.825L328.73126 27.965626Q327.9344 26.465626 326.2469 26.465626Q324.91876 26.465626 324.16876 27.496876Q323.4344 28.528126 323.4344 30.528126Z" fill-rule="nonzero"/></svg>