<svg version="1.1" viewBox="0.0 0.0 438.0 271.0" fill="none" stroke="none" stroke-linecap="square" stroke-miterlimit="10" width="438" height="271" xmlns:xlink="http://www.w3.org/1999/xlink" xmlns="http://www.w3.org/2000/svg"><path fill="#ffffff" d="M0 0L438.0 0L438.0 271.0L0 271.0L0 0Z" fill-rule="nonzero"/><path fill="#ffffff" d="M0 0L438.0 0L438.0 271.0L0 271.0L0 0Z" fill-rule="nonzero"/><path stroke="#333333" stroke-width="1.0" stroke-linecap="butt" d="M128.5 46.5L128.5 203.5" fill-rule="nonzero"/><path stroke="#cccccc" stroke-width="1.0" stroke-linecap="butt" d="M177.5 46.5L177.5 203.5" fill-rule="nonzero"/><path stroke="#cccccc" stroke-width="1.0" stroke-linecap="butt" d="M226.5 46.5L226.5 203.5" fill-rule="nonzero"/><path stroke="#cccccc" stroke-width="1.0" stroke-linecap="butt" d="M276.5 46.5L276.5 203.5" fill-rule="nonzero"/><path stroke="#cccccc" stroke-width="1.0" stroke-linecap="butt" d="M325.5 46.5L325.5 203.5" fill-rule="nonzero"/><path stroke="#cccccc" stroke-width="1.0" stroke-linecap="butt" d="M375.5 46.5L375.5 203.5" fill-rule="nonzero"/><path stroke="#cccccc" stroke-width="1.0" stroke-linecap="butt" d="M424.5 46.5L424.5 203.5" fill-rule="nonzero"/><clipPath id="id_0"><path d="M128.13 46.583332L424.45 46.583332L424.45 203.45L128.13 203.45L128.13 46.583332Z" clip-rule="nonzero"/></clipPath><path stroke="#000000" stroke-width="0.0" stroke-linecap="butt" stroke-opacity="0.0" clip-path="url(#id_0)" d="M128.0 71.0L128.0 55.0L274.0 55.0C275.10458 55.0 276.0 55.89543 276.0 57.0L276.0 69.0C276.0 70.10457 275.10458 71.0 274.0 71.0Z" fill-rule="nonzero"/><path fill="#4285f4" clip-path="url(#id_0)" d="M128.0 71.0L128.0 55.0L274.0 55.0C275.10458 55.0 276.0 55.89543 276.0 57.0L276.0 69.0C276.0 70.10457 275.10458 71.0 274.0 71.0Z" fill-rule="nonzero"/><path stroke="#000000" stroke-width="0.0" stroke-linecap="butt" stroke-opacity="0.0" clip-path="url(#id_0)" d="M128.0 96.0L128.0 80.0L217.0 80.0C218.10457 80.0 219.0 80.89543 219.0 82.0L219.0 94.0C219.0 95.10457 218.10457 96.0 217.0 96.0Z" fill-rule="nonzero"/><path fill="#4285f4" clip-path="url(#id_0)" d="M128.0 96.0L128.0 80.0L217.0 80.0C218.10457 80.0 219.0 80.89543 219.0 82.0L219.0 94.0C219.0 95.10457 218.10457 96.0 217.0 96.0Z" fill-rule="nonzero"/><path stroke="#000000" stroke-width="0.0" stroke-linecap="butt" stroke-opacity="0.0" clip-path="url(#id_0)" d="M128.0 121.0L128.0 105.0L372.0 105.0C373.10458 105.0 374.0 105.89543 374.0 107.0L374.0 119.0C374.0 120.10457 373.10458 121.0 372.0 121.0Z" fill-rule="nonzero"/><path fill="#4285f4" clip-path="url(#id_0)" d="M128.0 121.0L128.0 105.0L372.0 105.0C373.10458 105.0 374.0 105.89543 374.0 107.0L374.0 119.0C374.0 120.10457 373.10458 121.0 372.0 121.0Z" fill-rule="nonzero"/><path stroke="#000000" stroke-width="0.0" stroke-linecap="butt" stroke-opacity="0.0" clip-path="url(#id_0)" d="M128.0 145.0L128.0 129.0L247.0 129.0C248.10457 129.0 249.0 129.89543 249.0 131.0L249.0 143.0C249.0 144.10457 248.10457 145.0 247.0 145.0Z" fill-rule="nonzero"/><path fill="#4285f4" clip-path="url(#id_0)" d="M128.0 145.0L128.0 129.0L247.0 129.0C248.10457 129.0 249.0 129.89543 249.0 131.0L249.0 143.0C249.0 144.10457 248.10457 145.0 247.0 145.0Z" fill-rule="nonzero"/><path stroke="#000000" stroke-width="0.0" stroke-linecap="butt" stroke-opacity="0.0" clip-path="url(#id_0)" d="M128.0 170.0L128.0 154.0L411.0 154.0C412.10458 154.0 413.0 154.89543 413.0 156.0L413.0 168.0C413.0 169.10457 412.10458 170.0 411.0 170.0Z" fill-rule="nonzero"/><path fill="#4285f4" clip-path="url(#id_0)" d="M128.0 170.0L128.0 154.0L411.0 154.0C412.10458 154.0 413.0 154.89543 413.0 156.0L413.0 168.0C413.0 169.10457 412.10458 170.0 411.0 170.0Z" fill-rule="nonzero"/><path stroke="#000000" stroke-width="0.0" stroke-linecap="butt" stroke-opacity="0.0" clip-path="url(#id_0)" d="M128.0 195.0L128.0 179.0L308.0 179.0C309.10458 179.0 310.0 179.89543 310.0 181.0L310.0 193.0C310.0 194.10457 309.10458 195.0 308.0 195.0Z" fill-rule="nonzero"/><path fill="#4285f4" clip-path="url(#id_0)" d="M128.0 195.0L128.0 179.0L308.0 179.0C309.10458 179.0 310.0 179.89543 310.0 181.0L310.0 193.0C310.0 194.10457 309.10458 195.0 308.0 195.0Z" fill-rule="nonzero"/><path fill="#424242" d="M235.2275 245.91875L238.02437 252.87187L240.80562 245.91875L242.27437 245.91875L242.27437 254.45L241.14937 254.45L241.14937 251.12187L241.25874 247.54375L238.44624 254.45L237.58687 254.45L234.79 247.55937L234.89937 251.12187L234.89937 254.45L233.77437 254.45L233.77437 245.91875L235.2275 245.91875ZM244.79 254.45L243.71187 254.45L243.71187 248.10625L244.79 248.10625L244.79 254.45ZM243.61812 246.43437Q243.61812 246.16875 243.77437 245.98125Q243.94624 245.79375 244.25874 245.79375Q244.57124 245.79375 244.7275 245.98125Q244.89937 246.16875 244.89937 246.43437Q244.89937 246.68437 244.7275 246.87187Q244.57124 247.04375 244.25874 247.04375Q243.94624 247.04375 243.77437 246.87187Q243.61812 246.68437 243.61812 246.43437ZM247.79 254.45L246.71187 254.45L246.71187 245.45L247.79 245.45L247.79 254.45ZM250.79 254.45L249.71187 254.45L249.71187 245.45L250.79 245.45L250.79 254.45ZM253.79 254.45L252.71187 254.45L252.71187 248.10625L253.79 248.10625L253.79 254.45ZM252.61812 246.43437Q252.61812 246.16875 252.77437 245.98125Q252.94624 245.79375 253.25874 245.79375Q253.57124 245.79375 253.7275 245.98125Q253.89937 246.16875 253.89937 246.43437Q253.89937 246.68437 253.7275 246.87187Q253.57124 247.04375 253.25874 247.04375Q252.94624 247.04375 252.77437 246.87187Q252.61812 246.68437 252.61812 246.43437ZM259.3056 252.7625Q259.3056 252.325 258.96185 252.09062Q258.63373 251.84062 257.8056 251.66875Q256.9931 251.49687 256.50873 251.24687Q256.02435 250.99687 255.79 250.66875Q255.57124 250.325 255.57124 249.85625Q255.57124 249.075 256.22748 248.54375Q256.88373 247.99687 257.91498 247.99687Q258.9931 247.99687 259.64935 248.55937Q260.32123 249.10625 260.32123 249.96562L259.2431 249.96562Q259.2431 249.52812 258.85248 249.21562Q258.47748 248.8875 257.91498 248.8875Q257.32123 248.8875 256.97748 249.15312Q256.64935 249.40312 256.64935 249.80937Q256.64935 250.2 256.96185 250.40312Q257.27435 250.60625 258.08685 250.79375Q258.89935 250.96562 259.39935 251.21562Q259.89935 251.46562 260.13373 251.825Q260.38373 252.18437 260.38373 252.68437Q260.38373 253.54375 259.69623 254.05937Q259.02435 254.575 257.94623 254.575Q257.1806 254.575 256.58685 254.30937Q256.00873 254.02812 255.68062 253.54375Q255.3525 253.05937 255.3525 252.49687L256.4306 252.49687Q256.46185 253.04375 256.8681 253.37187Q257.27435 253.68437 257.94623 253.68437Q258.5556 253.68437 258.9306 253.43437Q259.3056 253.18437 259.3056 252.7625ZM264.2431 254.575Q262.94623 254.575 262.13373 253.73125Q261.33685 252.87187 261.33685 251.45L261.33685 251.2625Q261.33685 250.30937 261.69623 249.575Q262.0556 248.825 262.69623 248.41875Q263.35248 247.99687 264.10248 247.99687Q265.33685 247.99687 266.02435 248.80937Q266.71185 249.62187 266.71185 251.1375L266.71185 251.59062L262.41498 251.59062Q262.44623 252.52812 262.96185 253.10625Q263.4931 253.68437 264.3056 253.68437Q264.8681 253.68437 265.25873 253.45Q265.66498 253.21562 265.97748 252.825L266.63373 253.34062Q265.83685 254.575 264.2431 254.575ZM264.10248 248.8875Q263.44623 248.8875 262.9931 249.37187Q262.5556 249.84062 262.46185 250.7L265.63373 250.7L265.63373 250.62187Q265.58685 249.79375 265.1806 249.34062Q264.78998 248.8875 264.10248 248.8875ZM270.14935 253.68437Q270.72748 253.68437 271.16498 253.34062Q271.60248 252.98125 271.64935 252.45L272.6806 252.45Q272.64935 252.99687 272.28998 253.49687Q271.94623 253.98125 271.3681 254.27812Q270.8056 254.575 270.14935 254.575Q268.85248 254.575 268.08685 253.71562Q267.33685 252.84062 267.33685 251.34062L267.33685 251.15312Q267.33685 250.23125 267.66498 249.5125Q268.00873 248.79375 268.63373 248.40312Q269.27435 247.99687 270.14935 247.99687Q271.21185 247.99687 271.91498 248.6375Q272.63373 249.2625 272.6806 250.29375L271.64935 250.29375Q271.60248 249.66875 271.1806 249.27812Q270.75873 248.8875 270.14935 248.8875Q269.32123 248.8875 268.8681 249.48125Q268.41498 250.075 268.41498 251.2L268.41498 251.40312Q268.41498 252.49687 268.8681 253.09062Q269.32123 253.68437 270.14935 253.68437ZM273.32123 251.21562Q273.32123 250.29375 273.6806 249.54375Q274.0556 248.79375 274.71185 248.40312Q275.3681 247.99687 276.19623 247.99687Q277.4931 247.99687 278.28998 248.8875Q279.10248 249.77812 279.10248 251.27812L279.10248 251.35625Q279.10248 252.27812 278.7431 253.0125Q278.38373 253.74687 277.72748 254.16875Q277.07123 254.575 276.21185 254.575Q274.9306 254.575 274.1181 253.68437Q273.32123 252.77812 273.32123 251.29375L273.32123 251.21562ZM274.41498 251.35625Q274.41498 252.40312 274.89935 253.04375Q275.39935 253.68437 276.21185 253.68437Q277.03998 253.68437 277.52435 253.04375Q278.00873 252.3875 278.00873 251.21562Q278.00873 250.18437 277.50873 249.54375Q277.02435 248.8875 276.19623 248.8875Q275.39935 248.8875 274.89935 249.52812Q274.41498 250.15312 274.41498 251.35625ZM281.63373 248.10625L281.66498 248.90312Q282.39935 247.99687 283.57123 247.99687Q285.58685 247.99687 285.60248 250.2625L285.60248 254.45L284.50873 254.45L284.50873 250.24687Q284.50873 249.575 284.19623 249.24687Q283.89935 248.91875 283.2431 248.91875Q282.71185 248.91875 282.3056 249.2Q281.91498 249.48125 281.69623 249.93437L281.69623 254.45L280.6181 254.45L280.6181 248.10625L281.63373 248.10625ZM287.35248 251.23125Q287.35248 249.7625 288.03998 248.8875Q288.72748 247.99687 289.85248 247.99687Q290.96185 247.99687 291.6181 248.74687L291.6181 245.45L292.69623 245.45L292.69623 254.45L291.69623 254.45L291.64935 253.7625Q290.9931 254.575 289.83685 254.575Q288.7431 254.575 288.03998 253.66875Q287.35248 252.7625 287.35248 251.30937L287.35248 251.23125ZM288.4306 251.35625Q288.4306 252.43437 288.8681 253.04375Q289.32123 253.65312 290.10248 253.65312Q291.13373 253.65312 291.6181 252.71562L291.6181 249.80937Q291.13373 248.91875 290.1181 248.91875Q289.32123 248.91875 288.8681 249.52812Q288.4306 250.1375 288.4306 251.35625ZM298.3056 252.7625Q298.3056 252.325 297.96185 252.09062Q297.63373 251.84062 296.8056 251.66875Q295.9931 251.49687 295.50873 251.24687Q295.02435 250.99687 294.78998 250.66875Q294.57123 250.325 294.57123 249.85625Q294.57123 249.075 295.22748 248.54375Q295.88373 247.99687 296.91498 247.99687Q297.9931 247.99687 298.64935 248.55937Q299.32123 249.10625 299.32123 249.96562L298.2431 249.96562Q298.2431 249.52812 297.85248 249.21562Q297.47748 248.8875 296.91498 248.8875Q296.32123 248.8875 295.97748 249.15312Q295.64935 249.40312 295.64935 249.80937Q295.64935 250.2 295.96185 250.40312Q296.27435 250.60625 297.08685 250.79375Q297.89935 250.96562 298.39935 251.21562Q298.89935 251.46562 299.13373 251.825Q299.38373 252.18437 299.38373 252.68437Q299.38373 253.54375 298.69623 254.05937Q298.02435 254.575 296.94623 254.575Q296.1806 254.575 295.58685 254.30937Q295.00873 254.02812 294.6806 253.54375Q294.35248 253.05937 294.35248 252.49687L295.4306 252.49687Q295.46185 253.04375 295.8681 253.37187Q296.27435 253.68437 296.94623 253.68437Q297.5556 253.68437 297.9306 253.43437Q298.3056 253.18437 298.3056 252.7625ZM300.82123 255.18437L299.89935 255.18437L303.46185 245.91875L304.38373 245.91875L300.82123 255.18437ZM312.33685 250.46562Q312.33685 251.71562 311.91498 252.65312Q311.4931 253.575 310.71185 254.075Q309.94623 254.575 308.91498 254.575Q307.91498 254.575 307.13373 254.075Q306.35248 253.575 305.91498 252.66875Q305.4931 251.74687 305.47748 250.52812L305.47748 249.91875Q305.47748 248.68437 305.89935 247.74687Q306.33685 246.80937 307.1181 246.30937Q307.89935 245.79375 308.91498 245.79375Q309.9306 245.79375 310.71185 246.29375Q311.4931 246.79375 311.91498 247.73125Q312.33685 248.66875 312.33685 249.91875L312.33685 250.46562ZM311.22748 249.90312Q311.22748 248.3875 310.6181 247.575Q310.00873 246.7625 308.91498 246.7625Q307.83685 246.7625 307.22748 247.575Q306.6181 248.3875 306.60248 249.825L306.60248 250.46562Q306.60248 251.93437 307.21185 252.77812Q307.83685 253.60625 308.91498 253.60625Q310.00873 253.60625 310.60248 252.825Q311.21185 252.02812 311.22748 250.54375L311.22748 249.90312ZM318.96185 251.35625Q318.96185 252.79375 318.3056 253.68437Q317.64935 254.575 316.50873 254.575Q315.35248 254.575 314.69623 253.84062L314.69623 256.8875L313.6181 256.8875L313.6181 248.10625L314.60248 248.10625L314.64935 248.80937Q315.32123 247.99687 316.4931 247.99687Q317.63373 247.99687 318.28998 248.85625Q318.96185 249.71562 318.96185 251.24687L318.96185 251.35625ZM317.88373 251.23125Q317.88373 250.15312 317.41498 249.54375Q316.96185 248.91875 316.16498 248.91875Q315.1806 248.91875 314.69623 249.77812L314.69623 252.80937Q315.1806 253.68437 316.1806 253.68437Q316.96185 253.68437 317.41498 253.075Q317.88373 252.45 317.88373 251.23125Z" fill-rule="nonzero"/><path fill="#424242" d="M25.549997 165.03229L17.018747 165.03229L17.018747 162.23541Q17.018747 160.84479 17.596872 160.15729Q18.159372 159.45416 19.284372 159.45416Q19.893747 159.45416 20.362497 159.79791Q20.815622 160.12604 21.065622 160.71979Q21.253122 160.01666 21.799997 159.62604Q22.331247 159.21979 23.081247 159.21979Q24.237497 159.21979 24.893747 159.96979Q25.549997 160.70416 25.549997 162.06354L25.549997 165.03229ZM21.565622 163.90729L24.628122 163.90729L24.628122 162.04791Q24.628122 161.25104 24.221872 160.79791Q23.815622 160.34479 23.096872 160.34479Q21.565622 160.34479 21.565622 162.03229L21.565622 163.90729ZM20.659372 163.90729L20.659372 162.20416Q20.659372 161.46979 20.299997 161.03229Q19.924997 160.57916 19.284372 160.57916Q18.581247 160.57916 18.268747 160.98541Q17.940622 161.39166 17.940622 162.23541L17.940622 163.90729L20.659372 163.90729ZM25.674997 155.56354Q25.674997 156.86041 24.831247 157.67291Q23.971872 158.46979 22.549997 158.46979L22.362497 158.46979Q21.409372 158.46979 20.674997 158.11041Q19.924997 157.75104 19.518747 157.11041Q19.096872 156.45416 19.096872 155.70416Q19.096872 154.46979 19.909372 153.78229Q20.721872 153.09479 22.237497 153.09479L22.690622 153.09479L22.690622 157.39166Q23.628122 157.36041 24.206247 156.84479Q24.784372 156.31354 24.784372 155.50104Q24.784372 154.93854 24.549997 154.54791Q24.315622 154.14166 23.924997 153.82916L24.440622 153.17291Q25.674997 153.96979 25.674997 155.56354ZM19.987497 155.70416Q19.987497 156.36041 20.471872 156.81354Q20.940622 157.25104 21.799997 157.34479L21.799997 154.17291L21.721872 154.17291Q20.893747 154.21979 20.440622 154.62604Q19.987497 155.01666 19.987497 155.70416ZM19.206247 151.17291L20.003122 151.14166Q19.096872 150.40729 19.096872 149.23541Q19.096872 147.21979 21.362497 147.20416L25.549997 147.20416L25.549997 148.29791L21.346872 148.29791Q20.674997 148.29791 20.346872 148.61041Q20.018747 148.90729 20.018747 149.56354Q20.018747 150.09479 20.299997 150.50104Q20.581247 150.89166 21.034372 151.11041L25.549997 151.11041L25.549997 152.18854L19.206247 152.18854L19.206247 151.17291ZM24.784372 142.65729Q24.784372 142.07916 24.440622 141.64166Q24.081247 141.20416 23.549997 141.15729L23.549997 140.12604Q24.096872 140.15729 24.596872 140.51666Q25.081247 140.86041 25.378122 141.43854Q25.674997 142.00104 25.674997 142.65729Q25.674997 143.95416 24.815622 144.71979Q23.940622 145.46979 22.440622 145.46979L22.253122 145.46979Q21.331247 145.46979 20.612497 145.14166Q19.893747 144.79791 19.503122 144.17291Q19.096872 143.53229 19.096872 142.65729Q19.096872 141.59479 19.737497 140.89166Q20.362497 140.17291 21.393747 140.12604L21.393747 141.15729Q20.768747 141.20416 20.378122 141.62604Q19.987497 142.04791 19.987497 142.65729Q19.987497 143.48541 20.581247 143.93854Q21.174997 144.39166 22.299997 144.39166L22.503122 144.39166Q23.596872 144.39166 24.190622 143.93854Q24.784372 143.48541 24.784372 142.65729ZM19.971872 138.11041Q19.096872 137.39166 19.096872 136.23541Q19.096872 134.21979 21.362497 134.20416L25.549997 134.20416L25.549997 135.29791L21.346872 135.29791Q20.674997 135.29791 20.346872 135.61041Q20.018747 135.90729 20.018747 136.56354Q20.018747 137.09479 20.299997 137.50104Q20.581247 137.89166 21.034372 138.11041L25.549997 138.11041L25.549997 139.18854L16.549997 139.18854L16.549997 138.11041L19.971872 138.11041ZM19.206247 131.17291L19.909372 131.14166Q19.096872 130.45416 19.096872 129.26666Q19.096872 127.938545 20.112497 127.45417Q19.659372 127.14167 19.378122 126.64167Q19.096872 126.126045 19.096872 125.438545Q19.096872 123.344795 21.299997 123.313545L25.549997 123.313545L25.549997 124.39167L21.362497 124.39167Q20.690622 124.39167 20.362497 124.70417Q20.018747 125.01667 20.018747 125.751045Q20.018747 126.36042 20.378122 126.76667Q20.737497 127.157295 21.346872 127.219795L25.549997 127.219795L25.549997 128.29791L21.393747 128.29791Q20.018747 128.29791 20.018747 129.65729Q20.018747 130.71979 20.924997 131.11041L25.549997 131.11041L25.549997 132.20416L19.206247 132.20416L19.206247 131.17291ZM25.549997 117.282295Q25.362497 117.376045 24.878122 117.438545Q25.674997 118.188545 25.674997 119.23542Q25.674997 120.17292 25.143747 120.782295Q24.612497 121.376045 23.784372 121.376045Q22.799997 121.376045 22.253122 120.626045Q21.706247 119.876045 21.706247 118.501045L21.706247 117.45417L21.206247 117.45417Q20.643747 117.45417 20.315622 117.79792Q19.971872 118.126045 19.971872 118.79792Q19.971872 119.376045 20.268747 119.76667Q20.549997 120.157295 20.971872 120.157295L20.971872 121.251045Q20.487497 121.251045 20.049997 120.92292Q19.612497 120.57917 19.362497 120.001045Q19.096872 119.42292 19.096872 118.73542Q19.096872 117.626045 19.643747 117.01667Q20.190622 116.39167 21.143747 116.36042L24.065622 116.36042Q24.940622 116.36042 25.456247 116.14167L25.549997 116.14167L25.549997 117.282295ZM24.721872 119.07917Q24.721872 118.563545 24.456247 118.11042Q24.190622 117.657295 23.768747 117.45417L22.471872 117.45417L22.471872 118.29792Q22.471872 120.29792 23.643747 120.29792Q24.143747 120.29792 24.440622 119.95417Q24.721872 119.61042 24.721872 119.07917ZM20.174997 111.126045Q20.143747 111.376045 20.143747 111.657295Q20.143747 112.73542 21.049997 113.11042L25.549997 113.11042L25.549997 114.188545L19.206247 114.188545L19.206247 113.14167L19.940622 113.126045Q19.096872 112.594795 19.096872 111.61042Q19.096872 111.29792 19.174997 111.126045L20.174997 111.126045ZM22.612497 108.42291L23.315622 109.11041L25.549997 109.11041L25.549997 110.188545L16.549997 110.188545L16.549997 109.11041L21.987497 109.11041L21.299997 108.53229L19.206247 106.54791L19.206247 105.23541L21.862497 107.70416L25.549997 104.93854L25.549997 106.21979L22.612497 108.42291Z" fill-rule="nonzero"/><path fill="#757575" d="M80.11437 67.75813L80.11437 59.226883L82.53625 59.226883Q83.64562 59.226883 84.48937 59.726883Q85.34875 60.211258 85.8175 61.117508Q86.28625 62.023758 86.28625 63.211258L86.28625 63.742508Q86.28625 64.96126 85.8175 65.86751Q85.36437 66.77376 84.48937 67.25813Q83.63 67.74251 82.48937 67.75813L80.11437 67.75813ZM81.23937 60.148758L81.23937 66.83626L82.42687 66.83626Q83.72375 66.83626 84.4425 66.03938Q85.17687 65.22688 85.17687 63.726883L85.17687 63.226883Q85.17687 61.773758 84.48937 60.976883Q83.8175 60.164383 82.55187 60.148758L81.23937 60.148758ZM89.13 67.75813L88.05187 67.75813L88.05187 61.414383L89.13 61.414383L89.13 67.75813ZM87.95812 59.742508Q87.95812 59.476883 88.11437 59.289383Q88.28625 59.101883 88.59875 59.101883Q88.91125 59.101883 89.0675 59.289383Q89.23937 59.476883 89.23937 59.742508Q89.23937 59.992508 89.0675 60.180008Q88.91125 60.351883 88.59875 60.351883Q88.28625 60.351883 88.11437 60.180008Q87.95812 59.992508 87.95812 59.742508ZM93.48937 66.99251Q94.0675 66.99251 94.505 66.64876Q94.9425 66.28938 94.98937 65.75813L96.02062 65.75813Q95.98937 66.30501 95.63 66.80501Q95.28625 67.28938 94.70812 67.58626Q94.14562 67.88313 93.48937 67.88313Q92.1925 67.88313 91.42687 67.02376Q90.67687 66.14876 90.67687 64.64876L90.67687 64.46126Q90.67687 63.539383 91.005 62.820633Q91.34875 62.101883 91.97375 61.711258Q92.61437 61.305008 93.48937 61.305008Q94.55187 61.305008 95.255 61.945633Q95.97375 62.570633 96.02062 63.601883L94.98937 63.601883Q94.9425 62.976883 94.52062 62.586258Q94.09875 62.195633 93.48937 62.195633Q92.66125 62.195633 92.20812 62.789383Q91.755 63.383133 91.755 64.50813L91.755 64.71126Q91.755 65.80501 92.20812 66.39876Q92.66125 66.99251 93.48937 66.99251ZM98.42687 59.883133L98.42687 61.414383L99.59875 61.414383L99.59875 62.258133L98.42687 62.258133L98.42687 66.18001Q98.42687 66.57063 98.58312 66.75813Q98.73937 66.94563 99.11437 66.94563Q99.30187 66.94563 99.63 66.88313L99.63 67.75813Q99.20812 67.88313 98.80187 67.88313Q98.08312 67.88313 97.70812 67.44563Q97.33312 66.99251 97.33312 66.18001L97.33312 62.258133L96.17687 62.258133L96.17687 61.414383L97.33312 61.414383L97.33312 59.883133L98.42687 59.883133ZM105.83312 65.52376L102.255 65.52376L101.45812 67.75813L100.30187 67.75813L103.55187 59.226883L104.53625 59.226883L107.80187 67.75813L106.64562 67.75813L105.83312 65.52376ZM102.59875 64.60188L105.505 64.60188L104.05187 60.617508L102.59875 64.60188ZM108.6925 64.53938Q108.6925 63.070633 109.38 62.195633Q110.0675 61.305008 111.1925 61.305008Q112.30187 61.305008 112.95812 62.055008L112.95812 58.758133L114.03625 58.758133L114.03625 67.75813L113.03625 67.75813L112.98937 67.07063Q112.33312 67.88313 111.17687 67.88313Q110.08312 67.88313 109.38 66.97688Q108.6925 66.07063 108.6925 64.61751L108.6925 64.53938ZM109.77062 64.66438Q109.77062 65.74251 110.20812 66.35188Q110.66125 66.96126 111.4425 66.96126Q112.47375 66.96126 112.95812 66.02376L112.95812 63.117508Q112.47375 62.226883 111.45812 62.226883Q110.66125 62.226883 110.20812 62.836258Q109.77062 63.445633 109.77062 64.66438ZM115.6925 64.53938Q115.6925 63.070633 116.38 62.195633Q117.0675 61.305008 118.1925 61.305008Q119.30187 61.305008 119.95812 62.055008L119.95812 58.758133L121.03625 58.758133L121.03625 67.75813L120.03625 67.75813L119.98937 67.07063Q119.33312 67.88313 118.17687 67.88313Q117.08312 67.88313 116.38 66.97688Q115.6925 66.07063 115.6925 64.61751L115.6925 64.53938ZM116.77062 64.66438Q116.77062 65.74251 117.20812 66.35188Q117.66125 66.96126 118.4425 66.96126Q119.47375 66.96126 119.95812 66.02376L119.95812 63.117508Q119.47375 62.226883 118.45812 62.226883Q117.66125 62.226883 117.20812 62.836258Q116.77062 63.445633 116.77062 64.66438Z" fill-rule="nonzero"/><path fill="#757575" d="M64.23938 89.1178L64.23938 92.46155L63.114376 92.46155L63.114376 83.9303L66.27063 83.9303Q67.661255 83.9303 68.45813 84.64905Q69.255005 85.35217 69.255005 86.53967Q69.255005 87.77405 68.473755 88.44592Q67.70813 89.1178 66.255005 89.1178L64.23938 89.1178ZM64.23938 88.19592L66.27063 88.19592Q67.17688 88.19592 67.64563 87.77405Q68.130005 87.35217 68.130005 86.5553Q68.130005 85.78967 67.64563 85.33655Q67.17688 84.8678 66.33313 84.85217L64.23938 84.85217L64.23938 88.19592ZM70.661255 89.22717Q70.661255 88.3053 71.02063 87.5553Q71.39563 86.8053 72.05188 86.41467Q72.70813 86.00842 73.536255 86.00842Q74.83313 86.00842 75.630005 86.89905Q76.442505 87.78967 76.442505 89.28967L76.442505 89.3678Q76.442505 90.28967 76.08313 91.02405Q75.723755 91.75842 75.067505 92.1803Q74.411255 92.58655 73.55188 92.58655Q72.27063 92.58655 71.45813 91.69592Q70.661255 90.78967 70.661255 89.3053L70.661255 89.22717ZM71.755005 89.3678Q71.755005 90.41467 72.23938 91.0553Q72.73938 91.69592 73.55188 91.69592Q74.380005 91.69592 74.86438 91.0553Q75.348755 90.39905 75.348755 89.22717Q75.348755 88.19592 74.848755 87.5553Q74.36438 86.89905 73.536255 86.89905Q72.73938 86.89905 72.23938 87.53967Q71.755005 88.16467 71.755005 89.3678ZM77.661255 89.22717Q77.661255 88.3053 78.02063 87.5553Q78.39563 86.8053 79.05188 86.41467Q79.70813 86.00842 80.536255 86.00842Q81.83313 86.00842 82.630005 86.89905Q83.442505 87.78967 83.442505 89.28967L83.442505 89.3678Q83.442505 90.28967 83.08313 91.02405Q82.723755 91.75842 82.067505 92.1803Q81.411255 92.58655 80.55188 92.58655Q79.27063 92.58655 78.45813 91.69592Q77.661255 90.78967 77.661255 89.3053L77.661255 89.22717ZM78.755005 89.3678Q78.755005 90.41467 79.23938 91.0553Q79.73938 91.69592 80.55188 91.69592Q81.380005 91.69592 81.86438 91.0553Q82.348755 90.39905 82.348755 89.22717Q82.348755 88.19592 81.848755 87.5553Q81.36438 86.89905 80.536255 86.89905Q79.73938 86.89905 79.23938 87.53967Q78.755005 88.16467 78.755005 89.3678ZM86.130005 92.46155L85.05188 92.46155L85.05188 83.46155L86.130005 83.46155L86.130005 92.46155ZM90.58313 92.58655Q89.286255 92.58655 88.473755 91.7428Q87.67688 90.88342 87.67688 89.46155L87.67688 89.27405Q87.67688 88.32092 88.036255 87.58655Q88.39563 86.83655 89.036255 86.4303Q89.692505 86.00842 90.442505 86.00842Q91.67688 86.00842 92.36438 86.82092Q93.05188 87.63342 93.05188 89.14905L93.05188 89.60217L88.755005 89.60217Q88.786255 90.53967 89.30188 91.1178Q89.83313 91.69592 90.64563 91.69592Q91.20813 91.69592 91.598755 91.46155Q92.005005 91.22717 92.317505 90.83655L92.973755 91.35217Q92.17688 92.58655 90.58313 92.58655ZM90.442505 86.89905Q89.786255 86.89905 89.33313 87.38342Q88.89563 87.85217 88.80188 88.71155L91.973755 88.71155L91.973755 88.63342Q91.92688 87.8053 91.52063 87.35217Q91.130005 86.89905 90.442505 86.89905ZM93.692505 89.2428Q93.692505 87.77405 94.380005 86.89905Q95.067505 86.00842 96.192505 86.00842Q97.30188 86.00842 97.95813 86.75842L97.95813 83.46155L99.036255 83.46155L99.036255 92.46155L98.036255 92.46155L97.98938 91.77405Q97.33313 92.58655 96.17688 92.58655Q95.08313 92.58655 94.380005 91.6803Q93.692505 90.77405 93.692505 89.32092L93.692505 89.2428ZM94.77063 89.3678Q94.77063 90.44592 95.20813 91.0553Q95.661255 91.66467 96.442505 91.66467Q97.473755 91.66467 97.95813 90.72717L97.95813 87.82092Q97.473755 86.9303 96.45813 86.9303Q95.661255 86.9303 95.20813 87.53967Q94.77063 88.14905 94.77063 89.3678ZM105.83313 90.22717L102.255005 90.22717L101.45813 92.46155L100.30188 92.46155L103.55188 83.9303L104.536255 83.9303L107.80188 92.46155L106.64563 92.46155L105.83313 90.22717ZM102.598755 89.3053L105.505005 89.3053L104.05188 85.32092L102.598755 89.3053ZM108.692505 89.2428Q108.692505 87.77405 109.380005 86.89905Q110.067505 86.00842 111.192505 86.00842Q112.30188 86.00842 112.95813 86.75842L112.95813 83.46155L114.036255 83.46155L114.036255 92.46155L113.036255 92.46155L112.98938 91.77405Q112.33313 92.58655 111.17688 92.58655Q110.08313 92.58655 109.380005 91.6803Q108.692505 90.77405 108.692505 89.32092L108.692505 89.2428ZM109.77063 89.3678Q109.77063 90.44592 110.20813 91.0553Q110.661255 91.66467 111.442505 91.66467Q112.473755 91.66467 112.95813 90.72717L112.95813 87.82092Q112.473755 86.9303 111.45813 86.9303Q110.661255 86.9303 110.20813 87.53967Q109.77063 88.14905 109.77063 89.3678ZM115.692505 89.2428Q115.692505 87.77405 116.380005 86.89905Q117.067505 86.00842 118.192505 86.00842Q119.30188 86.00842 119.95813 86.75842L119.95813 83.46155L121.036255 83.46155L121.036255 92.46155L120.036255 92.46155L119.98938 91.77405Q119.33313 92.58655 118.17688 92.58655Q117.08313 92.58655 116.380005 91.6803Q115.692505 90.77405 115.692505 89.32092L115.692505 89.2428ZM116.77063 89.3678Q116.77063 90.44592 117.20813 91.0553Q117.661255 91.66467 118.442505 91.66467Q119.473755 91.66467 119.95813 90.72717L119.95813 87.82092Q119.473755 86.9303 118.45813 86.9303Q117.661255 86.9303 117.20813 87.53967Q116.77063 88.14905 116.77063 89.3678Z" fill-rule="nonzero"/><path fill="#757575" d="M80.11437 117.16496L80.11437 108.63371L82.53625 108.63371Q83.64562 108.63371 84.48937 109.13371Q85.34875 109.61809 85.8175 110.52434Q86.28625 111.43059 86.28625 112.61809L86.28625 113.14934Q86.28625 114.36809 85.8175 115.27434Q85.36437 116.18059 84.48937 116.66496Q83.63 117.14934 82.48937 117.16496L80.11437 117.16496ZM81.23937 109.55559L81.23937 116.24309L82.42687 116.24309Q83.72375 116.24309 84.4425 115.44621Q85.17687 114.63371 85.17687 113.13371L85.17687 112.63371Q85.17687 111.18059 84.48937 110.38371Q83.8175 109.57121 82.55187 109.55559L81.23937 109.55559ZM89.13 117.16496L88.05187 117.16496L88.05187 110.82121L89.13 110.82121L89.13 117.16496ZM87.95812 109.14934Q87.95812 108.88371 88.11437 108.69621Q88.28625 108.50871 88.59875 108.50871Q88.91125 108.50871 89.0675 108.69621Q89.23937 108.88371 89.23937 109.14934Q89.23937 109.39934 89.0675 109.58684Q88.91125 109.75871 88.59875 109.75871Q88.28625 109.75871 88.11437 109.58684Q87.95812 109.39934 87.95812 109.14934ZM93.48937 116.39934Q94.0675 116.39934 94.505 116.05559Q94.9425 115.69621 94.98937 115.16496L96.02062 115.16496Q95.98937 115.71184 95.63 116.21184Q95.28625 116.69621 94.70812 116.99309Q94.14562 117.28996 93.48937 117.28996Q92.1925 117.28996 91.42687 116.43059Q90.67687 115.55559 90.67687 114.05559L90.67687 113.86809Q90.67687 112.94621 91.005 112.22746Q91.34875 111.50871 91.97375 111.11809Q92.61437 110.71184 93.48937 110.71184Q94.55187 110.71184 95.255 111.35246Q95.97375 111.97746 96.02062 113.00871L94.98937 113.00871Q94.9425 112.38371 94.52062 111.99309Q94.09875 111.60246 93.48937 111.60246Q92.66125 111.60246 92.20812 112.19621Q91.755 112.78996 91.755 113.91496L91.755 114.11809Q91.755 115.21184 92.20812 115.80559Q92.66125 116.39934 93.48937 116.39934ZM98.42687 109.28996L98.42687 110.82121L99.59875 110.82121L99.59875 111.66496L98.42687 111.66496L98.42687 115.58684Q98.42687 115.97746 98.58312 116.16496Q98.73937 116.35246 99.11437 116.35246Q99.30187 116.35246 99.63 116.28996L99.63 117.16496Q99.20812 117.28996 98.80187 117.28996Q98.08312 117.28996 97.70812 116.85246Q97.33312 116.39934 97.33312 115.58684L97.33312 111.66496L96.17687 111.66496L96.17687 110.82121L97.33312 110.82121L97.33312 109.28996L98.42687 109.28996ZM105.83312 114.93059L102.255 114.93059L101.45812 117.16496L100.30187 117.16496L103.55187 108.63371L104.53625 108.63371L107.80187 117.16496L106.64562 117.16496L105.83312 114.93059ZM102.59875 114.00871L105.505 114.00871L104.05187 110.02434L102.59875 114.00871ZM108.6925 113.94621Q108.6925 112.47746 109.38 111.60246Q110.0675 110.71184 111.1925 110.71184Q112.30187 110.71184 112.95812 111.46184L112.95812 108.16496L114.03625 108.16496L114.03625 117.16496L113.03625 117.16496L112.98937 116.47746Q112.33312 117.28996 111.17687 117.28996Q110.08312 117.28996 109.38 116.38371Q108.6925 115.47746 108.6925 114.02434L108.6925 113.94621ZM109.77062 114.07121Q109.77062 115.14934 110.20812 115.75871Q110.66125 116.36809 111.4425 116.36809Q112.47375 116.36809 112.95812 115.43059L112.95812 112.52434Q112.47375 111.63371 111.45812 111.63371Q110.66125 111.63371 110.20812 112.24309Q109.77062 112.85246 109.77062 114.07121ZM115.6925 113.94621Q115.6925 112.47746 116.38 111.60246Q117.0675 110.71184 118.1925 110.71184Q119.30187 110.71184 119.95812 111.46184L119.95812 108.16496L121.03625 108.16496L121.03625 117.16496L120.03625 117.16496L119.98937 116.47746Q119.33312 117.28996 118.17687 117.28996Q117.08312 117.28996 116.38 116.38371Q115.6925 115.47746 115.6925 114.02434L115.6925 113.94621ZM116.77062 114.07121Q116.77062 115.14934 117.20812 115.75871Q117.66125 116.36809 118.4425 116.36809Q119.47375 116.36809 119.95812 115.43059L119.95812 112.52434Q119.47375 111.63371 118.45812 111.63371Q117.66125 111.63371 117.20812 112.24309Q116.77062 112.85246 116.77062 114.07121Z" fill-rule="nonzero"/><path fill="#757575" d="M64.23938 138.52463L64.23938 141.86838L63.114376 141.86838L63.114376 133.33713L66.27063 133.33713Q67.661255 133.33713 68.45813 134.05588Q69.255005 134.759 69.255005 135.9465Q69.255005 137.18088 68.473755 137.85275Q67.70813 138.52463 66.255005 138.52463L64.23938 138.52463ZM64.23938 137.60275L66.27063 137.60275Q67.17688 137.60275 67.64563 137.18088Q68.130005 136.759 68.130005 135.96213Q68.130005 135.1965 67.64563 134.74338Q67.17688 134.27463 66.33313 134.259L64.23938 134.259L64.23938 137.60275ZM70.661255 138.634Q70.661255 137.71213 71.02063 136.96213Q71.39563 136.21213 72.05188 135.8215Q72.70813 135.41525 73.536255 135.41525Q74.83313 135.41525 75.630005 136.30588Q76.442505 137.1965 76.442505 138.6965L76.442505 138.77463Q76.442505 139.6965 76.08313 140.43088Q75.723755 141.16525 75.067505 141.58713Q74.411255 141.99338 73.55188 141.99338Q72.27063 141.99338 71.45813 141.10275Q70.661255 140.1965 70.661255 138.71213L70.661255 138.634ZM71.755005 138.77463Q71.755005 139.8215 72.23938 140.46213Q72.73938 141.10275 73.55188 141.10275Q74.380005 141.10275 74.86438 140.46213Q75.348755 139.80588 75.348755 138.634Q75.348755 137.60275 74.848755 136.96213Q74.36438 136.30588 73.536255 136.30588Q72.73938 136.30588 72.23938 136.9465Q71.755005 137.5715 71.755005 138.77463ZM77.661255 138.634Q77.661255 137.71213 78.02063 136.96213Q78.39563 136.21213 79.05188 135.8215Q79.70813 135.41525 80.536255 135.41525Q81.83313 135.41525 82.630005 136.30588Q83.442505 137.1965 83.442505 138.6965L83.442505 138.77463Q83.442505 139.6965 83.08313 140.43088Q82.723755 141.16525 82.067505 141.58713Q81.411255 141.99338 80.55188 141.99338Q79.27063 141.99338 78.45813 141.10275Q77.661255 140.1965 77.661255 138.71213L77.661255 138.634ZM78.755005 138.77463Q78.755005 139.8215 79.23938 140.46213Q79.73938 141.10275 80.55188 141.10275Q81.380005 141.10275 81.86438 140.46213Q82.348755 139.80588 82.348755 138.634Q82.348755 137.60275 81.848755 136.96213Q81.36438 136.30588 80.536255 136.30588Q79.73938 136.30588 79.23938 136.9465Q78.755005 137.5715 78.755005 138.77463ZM86.130005 141.86838L85.05188 141.86838L85.05188 132.86838L86.130005 132.86838L86.130005 141.86838ZM90.58313 141.99338Q89.286255 141.99338 88.473755 141.14963Q87.67688 140.29025 87.67688 138.86838L87.67688 138.68088Q87.67688 137.72775 88.036255 136.99338Q88.39563 136.24338 89.036255 135.83713Q89.692505 135.41525 90.442505 135.41525Q91.67688 135.41525 92.36438 136.22775Q93.05188 137.04025 93.05188 138.55588L93.05188 139.009L88.755005 139.009Q88.786255 139.9465 89.30188 140.52463Q89.83313 141.10275 90.64563 141.10275Q91.20813 141.10275 91.598755 140.86838Q92.005005 140.634 92.317505 140.24338L92.973755 140.759Q92.17688 141.99338 90.58313 141.99338ZM90.442505 136.30588Q89.786255 136.30588 89.33313 136.79025Q88.89563 137.259 88.80188 138.11838L91.973755 138.11838L91.973755 138.04025Q91.92688 137.21213 91.52063 136.759Q91.130005 136.30588 90.442505 136.30588ZM93.692505 138.64963Q93.692505 137.18088 94.380005 136.30588Q95.067505 135.41525 96.192505 135.41525Q97.30188 135.41525 97.95813 136.16525L97.95813 132.86838L99.036255 132.86838L99.036255 141.86838L98.036255 141.86838L97.98938 141.18088Q97.33313 141.99338 96.17688 141.99338Q95.08313 141.99338 94.380005 141.08713Q93.692505 140.18088 93.692505 138.72775L93.692505 138.64963ZM94.77063 138.77463Q94.77063 139.85275 95.20813 140.46213Q95.661255 141.0715 96.442505 141.0715Q97.473755 141.0715 97.95813 140.134L97.95813 137.22775Q97.473755 136.33713 96.45813 136.33713Q95.661255 136.33713 95.20813 136.9465Q94.77063 137.55588 94.77063 138.77463ZM105.83313 139.634L102.255005 139.634L101.45813 141.86838L100.30188 141.86838L103.55188 133.33713L104.536255 133.33713L107.80188 141.86838L106.64563 141.86838L105.83313 139.634ZM102.598755 138.71213L105.505005 138.71213L104.05188 134.72775L102.598755 138.71213ZM108.692505 138.64963Q108.692505 137.18088 109.380005 136.30588Q110.067505 135.41525 111.192505 135.41525Q112.30188 135.41525 112.95813 136.16525L112.95813 132.86838L114.036255 132.86838L114.036255 141.86838L113.036255 141.86838L112.98938 141.18088Q112.33313 141.99338 111.17688 141.99338Q110.08313 141.99338 109.380005 141.08713Q108.692505 140.18088 108.692505 138.72775L108.692505 138.64963ZM109.77063 138.77463Q109.77063 139.85275 110.20813 140.46213Q110.661255 141.0715 111.442505 141.0715Q112.473755 141.0715 112.95813 140.134L112.95813 137.22775Q112.473755 136.33713 111.45813 136.33713Q110.661255 136.33713 110.20813 136.9465Q109.77063 137.55588 109.77063 138.77463ZM115.692505 138.64963Q115.692505 137.18088 116.380005 136.30588Q117.067505 135.41525 118.192505 135.41525Q119.30188 135.41525 119.95813 136.16525L119.95813 132.86838L121.036255 132.86838L121.036255 141.86838L120.036255 141.86838L119.98938 141.18088Q119.33313 141.99338 118.17688 141.99338Q117.08313 141.99338 116.380005 141.08713Q115.692505 140.18088 115.692505 138.72775L115.692505 138.64963ZM116.77063 138.77463Q116.77063 139.85275 117.20813 140.46213Q117.661255 141.0715 118.442505 141.0715Q119.473755 141.0715 119.95813 140.134L119.95813 137.22775Q119.473755 136.33713 118.45813 136.33713Q117.661255 136.33713 117.20813 136.9465Q116.77063 137.55588 116.77063 138.77463Z" fill-rule="nonzero"/><path fill="#757575" d="M80.11437 166.57178L80.11437 158.04053L82.53625 158.04053Q83.64562 158.04053 84.48937 158.54053Q85.34875 159.0249 85.8175 159.93115Q86.28625 160.8374 86.28625 162.0249L86.28625 162.55615Q86.28625 163.7749 85.8175 164.68115Q85.36437 165.5874 84.48937 166.07178Q83.63 166.55615 82.48937 166.57178L80.11437 166.57178ZM81.23937 158.9624L81.23937 165.6499L82.42687 165.6499Q83.72375 165.6499 84.4425 164.85303Q85.17687 164.04053 85.17687 162.54053L85.17687 162.04053Q85.17687 160.5874 84.48937 159.79053Q83.8175 158.97803 82.55187 158.9624L81.23937 158.9624ZM89.13 166.57178L88.05187 166.57178L88.05187 160.22803L89.13 160.22803L89.13 166.57178ZM87.95812 158.55615Q87.95812 158.29053 88.11437 158.10303Q88.28625 157.91553 88.59875 157.91553Q88.91125 157.91553 89.0675 158.10303Q89.23937 158.29053 89.23937 158.55615Q89.23937 158.80615 89.0675 158.99365Q88.91125 159.16553 88.59875 159.16553Q88.28625 159.16553 88.11437 158.99365Q87.95812 158.80615 87.95812 158.55615ZM93.48937 165.80615Q94.0675 165.80615 94.505 165.4624Q94.9425 165.10303 94.98937 164.57178L96.02062 164.57178Q95.98937 165.11865 95.63 165.61865Q95.28625 166.10303 94.70812 166.3999Q94.14562 166.69678 93.48937 166.69678Q92.1925 166.69678 91.42687 165.8374Q90.67687 164.9624 90.67687 163.4624L90.67687 163.2749Q90.67687 162.35303 91.005 161.63428Q91.34875 160.91553 91.97375 160.5249Q92.61437 160.11865 93.48937 160.11865Q94.55187 160.11865 95.255 160.75928Q95.97375 161.38428 96.02062 162.41553L94.98937 162.41553Q94.9425 161.79053 94.52062 161.3999Q94.09875 161.00928 93.48937 161.00928Q92.66125 161.00928 92.20812 161.60303Q91.755 162.19678 91.755 163.32178L91.755 163.5249Q91.755 164.61865 92.20812 165.2124Q92.66125 165.80615 93.48937 165.80615ZM98.42687 158.69678L98.42687 160.22803L99.59875 160.22803L99.59875 161.07178L98.42687 161.07178L98.42687 164.99365Q98.42687 165.38428 98.58312 165.57178Q98.73937 165.75928 99.11437 165.75928Q99.30187 165.75928 99.63 165.69678L99.63 166.57178Q99.20812 166.69678 98.80187 166.69678Q98.08312 166.69678 97.70812 166.25928Q97.33312 165.80615 97.33312 164.99365L97.33312 161.07178L96.17687 161.07178L96.17687 160.22803L97.33312 160.22803L97.33312 158.69678L98.42687 158.69678ZM105.83312 164.3374L102.255 164.3374L101.45812 166.57178L100.30187 166.57178L103.55187 158.04053L104.53625 158.04053L107.80187 166.57178L106.64562 166.57178L105.83312 164.3374ZM102.59875 163.41553L105.505 163.41553L104.05187 159.43115L102.59875 163.41553ZM108.6925 163.35303Q108.6925 161.88428 109.38 161.00928Q110.0675 160.11865 111.1925 160.11865Q112.30187 160.11865 112.95812 160.86865L112.95812 157.57178L114.03625 157.57178L114.03625 166.57178L113.03625 166.57178L112.98937 165.88428Q112.33312 166.69678 111.17687 166.69678Q110.08312 166.69678 109.38 165.79053Q108.6925 164.88428 108.6925 163.43115L108.6925 163.35303ZM109.77062 163.47803Q109.77062 164.55615 110.20812 165.16553Q110.66125 165.7749 111.4425 165.7749Q112.47375 165.7749 112.95812 164.8374L112.95812 161.93115Q112.47375 161.04053 111.45812 161.04053Q110.66125 161.04053 110.20812 161.6499Q109.77062 162.25928 109.77062 163.47803ZM115.6925 163.35303Q115.6925 161.88428 116.38 161.00928Q117.0675 160.11865 118.1925 160.11865Q119.30187 160.11865 119.95812 160.86865L119.95812 157.57178L121.03625 157.57178L121.03625 166.57178L120.03625 166.57178L119.98937 165.88428Q119.33312 166.69678 118.17687 166.69678Q117.08312 166.69678 116.38 165.79053Q115.6925 164.88428 115.6925 163.43115L115.6925 163.35303ZM116.77062 163.47803Q116.77062 164.55615 117.20812 165.16553Q117.66125 165.7749 118.4425 165.7749Q119.47375 165.7749 119.95812 164.8374L119.95812 161.93115Q119.47375 161.04053 118.45812 161.04053Q117.66125 161.04053 117.20812 161.6499Q116.77062 162.25928 116.77062 163.47803Z" fill-rule="nonzero"/><path fill="#757575" d="M64.23938 187.93144L64.23938 191.27519L63.114376 191.27519L63.114376 182.74394L66.27063 182.74394Q67.661255 182.74394 68.45813 183.46269Q69.255005 184.16582 69.255005 185.35332Q69.255005 186.58769 68.473755 187.25957Q67.70813 187.93144 66.255005 187.93144L64.23938 187.93144ZM64.23938 187.00957L66.27063 187.00957Q67.17688 187.00957 67.64563 186.58769Q68.130005 186.16582 68.130005 185.36894Q68.130005 184.60332 67.64563 184.15019Q67.17688 183.68144 66.33313 183.66582L64.23938 183.66582L64.23938 187.00957ZM70.661255 188.04082Q70.661255 187.11894 71.02063 186.36894Q71.39563 185.61894 72.05188 185.22832Q72.70813 184.82207 73.536255 184.82207Q74.83313 184.82207 75.630005 185.71269Q76.442505 186.60332 76.442505 188.10332L76.442505 188.18144Q76.442505 189.10332 76.08313 189.83769Q75.723755 190.57207 75.067505 190.99394Q74.411255 191.40019 73.55188 191.40019Q72.27063 191.40019 71.45813 190.50957Q70.661255 189.60332 70.661255 188.11894L70.661255 188.04082ZM71.755005 188.18144Q71.755005 189.22832 72.23938 189.86894Q72.73938 190.50957 73.55188 190.50957Q74.380005 190.50957 74.86438 189.86894Q75.348755 189.21269 75.348755 188.04082Q75.348755 187.00957 74.848755 186.36894Q74.36438 185.71269 73.536255 185.71269Q72.73938 185.71269 72.23938 186.35332Q71.755005 186.97832 71.755005 188.18144ZM77.661255 188.04082Q77.661255 187.11894 78.02063 186.36894Q78.39563 185.61894 79.05188 185.22832Q79.70813 184.82207 80.536255 184.82207Q81.83313 184.82207 82.630005 185.71269Q83.442505 186.60332 83.442505 188.10332L83.442505 188.18144Q83.442505 189.10332 83.08313 189.83769Q82.723755 190.57207 82.067505 190.99394Q81.411255 191.40019 80.55188 191.40019Q79.27063 191.40019 78.45813 190.50957Q77.661255 189.60332 77.661255 188.11894L77.661255 188.04082ZM78.755005 188.18144Q78.755005 189.22832 79.23938 189.86894Q79.73938 190.50957 80.55188 190.50957Q81.380005 190.50957 81.86438 189.86894Q82.348755 189.21269 82.348755 188.04082Q82.348755 187.00957 81.848755 186.36894Q81.36438 185.71269 80.536255 185.71269Q79.73938 185.71269 79.23938 186.35332Q78.755005 186.97832 78.755005 188.18144ZM86.130005 191.27519L85.05188 191.27519L85.05188 182.27519L86.130005 182.27519L86.130005 191.27519ZM90.58313 191.40019Q89.286255 191.40019 88.473755 190.55644Q87.67688 189.69707 87.67688 188.27519L87.67688 188.08769Q87.67688 187.13457 88.036255 186.40019Q88.39563 185.65019 89.036255 185.24394Q89.692505 184.82207 90.442505 184.82207Q91.67688 184.82207 92.36438 185.63457Q93.05188 186.44707 93.05188 187.96269L93.05188 188.41582L88.755005 188.41582Q88.786255 189.35332 89.30188 189.93144Q89.83313 190.50957 90.64563 190.50957Q91.20813 190.50957 91.598755 190.27519Q92.005005 190.04082 92.317505 189.65019L92.973755 190.16582Q92.17688 191.40019 90.58313 191.40019ZM90.442505 185.71269Q89.786255 185.71269 89.33313 186.19707Q88.89563 186.66582 88.80188 187.52519L91.973755 187.52519L91.973755 187.44707Q91.92688 186.61894 91.52063 186.16582Q91.130005 185.71269 90.442505 185.71269ZM93.692505 188.05644Q93.692505 186.58769 94.380005 185.71269Q95.067505 184.82207 96.192505 184.82207Q97.30188 184.82207 97.95813 185.57207L97.95813 182.27519L99.036255 182.27519L99.036255 191.27519L98.036255 191.27519L97.98938 190.58769Q97.33313 191.40019 96.17688 191.40019Q95.08313 191.40019 94.380005 190.49394Q93.692505 189.58769 93.692505 188.13457L93.692505 188.05644ZM94.77063 188.18144Q94.77063 189.25957 95.20813 189.86894Q95.661255 190.47832 96.442505 190.47832Q97.473755 190.47832 97.95813 189.54082L97.95813 186.63457Q97.473755 185.74394 96.45813 185.74394Q95.661255 185.74394 95.20813 186.35332Q94.77063 186.96269 94.77063 188.18144ZM105.83313 189.04082L102.255005 189.04082L101.45813 191.27519L100.30188 191.27519L103.55188 182.74394L104.536255 182.74394L107.80188 191.27519L106.64563 191.27519L105.83313 189.04082ZM102.598755 188.11894L105.505005 188.11894L104.05188 184.13457L102.598755 188.11894ZM108.692505 188.05644Q108.692505 186.58769 109.380005 185.71269Q110.067505 184.82207 111.192505 184.82207Q112.30188 184.82207 112.95813 185.57207L112.95813 182.27519L114.036255 182.27519L114.036255 191.27519L113.036255 191.27519L112.98938 190.58769Q112.33313 191.40019 111.17688 191.40019Q110.08313 191.40019 109.380005 190.49394Q108.692505 189.58769 108.692505 188.13457L108.692505 188.05644ZM109.77063 188.18144Q109.77063 189.25957 110.20813 189.86894Q110.661255 190.47832 111.442505 190.47832Q112.473755 190.47832 112.95813 189.54082L112.95813 186.63457Q112.473755 185.74394 111.45813 185.74394Q110.661255 185.74394 110.20813 186.35332Q109.77063 186.96269 109.77063 188.18144ZM115.692505 188.05644Q115.692505 186.58769 116.380005 185.71269Q117.067505 184.82207 118.192505 184.82207Q119.30188 184.82207 119.95813 185.57207L119.95813 182.27519L121.036255 182.27519L121.036255 191.27519L120.036255 191.27519L119.98938 190.58769Q119.33313 191.40019 118.17688 191.40019Q117.08313 191.40019 116.380005 190.49394Q115.692505 189.58769 115.692505 188.13457L115.692505 188.05644ZM116.77063 188.18144Q116.77063 189.25957 117.20813 189.86894Q117.661255 190.47832 118.442505 190.47832Q119.473755 190.47832 119.95813 189.54082L119.95813 186.63457Q119.473755 185.74394 118.45813 185.74394Q117.661255 185.74394 117.20813 186.35332Q116.77063 186.96269 116.77063 188.18144Z" fill-rule="nonzero"/><path fill="#757575" d="M130.6925 217.80937Q130.6925 219.71562 130.03625 220.65312Q129.39563 221.575 128.005 221.575Q126.64562 221.575 125.98937 220.66875Q125.33312 219.7625 125.30187 217.95L125.30187 216.5125Q125.30187 214.62187 125.9425 213.71562Q126.59875 212.79375 127.98937 212.79375Q129.36438 212.79375 130.02063 213.68437Q130.67688 214.55937 130.6925 216.40312L130.6925 217.80937ZM129.59875 216.325Q129.59875 214.95 129.20813 214.325Q128.83313 213.68437 127.98937 213.68437Q127.16125 213.68437 126.77062 214.325Q126.39562 214.95 126.39562 216.24687L126.39562 217.98125Q126.39562 219.35625 126.78625 220.02812Q127.1925 220.68437 128.005 220.68437Q128.80188 220.68437 129.1925 220.05937Q129.58313 219.43437 129.59875 218.10625L129.59875 216.325Z" fill-rule="nonzero"/><path fill="#757575" d="M180.31354 221.45L174.71979 221.45L174.71979 220.66875L177.67291 217.3875Q178.32916 216.6375 178.57916 216.18437Q178.82916 215.71562 178.82916 215.21562Q178.82916 214.54375 178.42291 214.12187Q178.03229 213.68437 177.34479 213.68437Q176.54791 213.68437 176.09479 214.15312Q175.64166 214.60625 175.64166 215.43437L174.56354 215.43437Q174.56354 214.24687 175.31354 213.52812Q176.07916 212.79375 177.34479 212.79375Q178.54791 212.79375 179.23541 213.41875Q179.92291 214.04375 179.92291 215.09062Q179.92291 216.34062 178.31354 218.09062L176.03229 220.55937L180.31354 220.55937L180.31354 221.45Z" fill-rule="nonzero"/><path fill="#757575" d="M228.68459 218.59062L229.87209 218.59062L229.87209 219.46562L228.68459 219.46562L228.68459 221.45L227.60646 221.45L227.60646 219.46562L223.71584 219.46562L223.71584 218.825L227.52834 212.91875L228.68459 212.91875L228.68459 218.59062ZM224.95021 218.59062L227.60646 218.59062L227.60646 214.40312L227.46584 214.6375L224.95021 218.59062Z" fill-rule="nonzero"/><path fill="#757575" d="M277.75876 212.91875L277.75876 213.825L277.55563 213.825Q276.29 213.85625 275.54 214.59062Q274.79 215.30937 274.665 216.62187Q275.3525 215.85625 276.50876 215.85625Q277.61813 215.85625 278.29 216.6375Q278.96188 217.41875 278.96188 218.66875Q278.96188 219.98125 278.24313 220.77812Q277.52438 221.575 276.30563 221.575Q275.08688 221.575 274.32126 220.6375Q273.57126 219.68437 273.57126 218.2L273.57126 217.79375Q273.57126 215.43437 274.57126 214.18437Q275.57126 212.93437 277.55563 212.91875L277.75876 212.91875ZM276.33688 216.7625Q275.77438 216.7625 275.30563 217.09062Q274.83688 217.41875 274.64938 217.93437L274.64938 218.325Q274.64938 219.3875 275.11813 220.02812Q275.6025 220.66875 276.30563 220.66875Q277.04 220.66875 277.46188 220.1375Q277.88376 219.59062 277.88376 218.71562Q277.88376 217.84062 277.46188 217.30937Q277.04 216.7625 276.33688 216.7625Z" fill-rule="nonzero"/><path fill="#757575" d="M328.0673 215.1375Q328.0673 215.77812 327.72354 216.27812Q327.3798 216.77812 326.8173 217.05937Q327.47354 217.34062 327.86417 217.90312Q328.2548 218.45 328.2548 219.15312Q328.2548 220.24687 327.5048 220.91875Q326.77042 221.575 325.55167 221.575Q324.3173 221.575 323.5673 220.91875Q322.83292 220.24687 322.83292 219.15312Q322.83292 218.45 323.20792 217.90312Q323.58292 217.34062 324.2548 217.05937Q323.6923 216.77812 323.36417 216.27812Q323.03604 215.77812 323.03604 215.1375Q323.03604 214.05937 323.72354 213.43437Q324.41104 212.79375 325.55167 212.79375Q326.67667 212.79375 327.36417 213.43437Q328.0673 214.05937 328.0673 215.1375ZM327.17667 219.12187Q327.17667 218.40312 326.72354 217.96562Q326.27042 217.5125 325.53604 217.5125Q324.80167 217.5125 324.34854 217.96562Q323.91104 218.40312 323.91104 219.1375Q323.91104 219.85625 324.34854 220.27812Q324.78604 220.68437 325.55167 220.68437Q326.30167 220.68437 326.73917 220.2625Q327.17667 219.84062 327.17667 219.12187ZM325.55167 213.68437Q324.91104 213.68437 324.5048 214.09062Q324.11417 214.48125 324.11417 215.16875Q324.11417 215.80937 324.5048 216.21562Q324.89542 216.62187 325.53604 216.62187Q326.1923 216.62187 326.58292 216.21562Q326.97354 215.80937 326.97354 215.16875Q326.97354 214.5125 326.5673 214.10625Q326.16104 213.68437 325.55167 213.68437Z" fill-rule="nonzero"/><path fill="#757575" d="M372.32895 221.45L371.25082 221.45L371.25082 214.23125L369.06332 215.02812L369.06332 214.04375L372.1727 212.87187L372.32895 212.87187L372.32895 221.45ZM381.12582 217.80937Q381.12582 219.71562 380.46957 220.65312Q379.82895 221.575 378.43832 221.575Q377.07895 221.575 376.4227 220.66875Q375.76645 219.7625 375.7352 217.95L375.7352 216.5125Q375.7352 214.62187 376.37582 213.71562Q377.03207 212.79375 378.4227 212.79375Q379.7977 212.79375 380.45395 213.68437Q381.1102 214.55937 381.12582 216.40312L381.12582 217.80937ZM380.03207 216.325Q380.03207 214.95 379.64145 214.325Q379.26645 213.68437 378.4227 213.68437Q377.59457 213.68437 377.20395 214.325Q376.82895 214.95 376.82895 216.24687L376.82895 217.98125Q376.82895 219.35625 377.21957 220.02812Q377.62582 220.68437 378.43832 220.68437Q379.2352 220.68437 379.62582 220.05937Q380.01645 219.43437 380.03207 218.10625L380.03207 216.325Z" fill-rule="nonzero"/><path fill="#757575" d="M421.71564 221.45L420.6375 221.45L420.6375 214.23125L418.45 215.02812L418.45 214.04375L421.5594 212.87187L421.71564 212.87187L421.71564 221.45ZM430.7469 221.45L425.15314 221.45L425.15314 220.66875L428.10626 217.3875Q428.7625 216.6375 429.0125 216.18437Q429.2625 215.71562 429.2625 215.21562Q429.2625 214.54375 428.85626 214.12187Q428.46564 213.68437 427.77814 213.68437Q426.98126 213.68437 426.52814 214.15312Q426.075 214.60625 426.075 215.43437L424.9969 215.43437Q424.9969 214.24687 425.7469 213.52812Q426.5125 212.79375 427.77814 212.79375Q428.98126 212.79375 429.66876 213.41875Q430.35626 214.04375 430.35626 215.09062Q430.35626 216.34062 428.7469 218.09062L426.46564 220.55937L430.7469 220.55937L430.7469 221.45Z" fill-rule="nonzero"/><path fill="#757575" d="M17.628124 18.33125L22.26875 29.925L26.925 18.33125L29.346874 18.33125L29.346874 32.55L27.471874 32.55L27.471874 27.01875L27.659374 21.034374L22.9875 32.55L21.55 32.55L16.89375 21.065624L17.08125 27.01875L17.08125 32.55L15.20625 32.55L15.20625 18.33125L17.628124 18.33125ZM33.878124 32.55L32.08125 32.55L32.08125 21.9875L33.878124 21.9875L33.878124 32.55ZM31.925 19.175Q31.925 18.7375 32.190624 18.440624Q32.471874 18.128124 32.9875 18.128124Q33.51875 18.128124 33.784374 18.440624Q34.065624 18.7375 34.065624 19.175Q34.065624 19.6125 33.784374 19.909374Q33.51875 20.20625 32.9875 20.20625Q32.471874 20.20625 32.190624 19.909374Q31.925 19.6125 31.925 19.175ZM38.878124 32.55L37.08125 32.55L37.08125 17.55L38.878124 17.55L38.878124 32.55ZM43.878124 32.55L42.08125 32.55L42.08125 17.55L43.878124 17.55L43.878124 32.55ZM48.878124 32.55L47.08125 32.55L47.08125 21.9875L48.878124 21.9875L48.878124 32.55ZM46.925 19.175Q46.925 18.7375 47.190624 18.440624Q47.471874 18.128124 47.9875 18.128124Q48.51875 18.128124 48.784374 18.440624Q49.065624 18.7375 49.065624 19.175Q49.065624 19.6125 48.784374 19.909374Q48.51875 20.20625 47.9875 20.20625Q47.471874 20.20625 47.190624 19.909374Q46.925 19.6125 46.925 19.175ZM58.065624 29.753124Q58.065624 29.01875 57.51875 28.6125Q56.971874 28.20625 55.596874 27.909374Q54.221874 27.6125 53.409374 27.20625Q52.6125 26.8 52.221874 26.2375Q51.846874 25.659374 51.846874 24.878124Q51.846874 23.58125 52.940624 22.690624Q54.034374 21.784374 55.753124 21.784374Q57.55 21.784374 58.659374 22.721874Q59.784374 23.64375 59.784374 25.08125L57.95625 25.08125Q57.95625 24.346874 57.33125 23.815624Q56.70625 23.26875 55.753124 23.26875Q54.753124 23.26875 54.190624 23.70625Q53.64375 24.128124 53.64375 24.83125Q53.64375 25.471874 54.159374 25.815624Q54.675 26.14375 56.034374 26.45625Q57.39375 26.753124 58.221874 27.175Q59.065624 27.58125 59.471874 28.175Q59.878124 28.76875 59.878124 29.6125Q59.878124 31.034374 58.7375 31.89375Q57.6125 32.753124 55.8 32.753124Q54.534374 32.753124 53.55 32.3Q52.58125 31.846874 52.01875 31.05Q51.471874 30.2375 51.471874 29.3L53.284374 29.3Q53.33125 30.20625 54.003124 30.7375Q54.690624 31.26875 55.8 31.26875Q56.83125 31.26875 57.440624 30.8625Q58.065624 30.440624 58.065624 29.753124ZM66.3 32.753124Q64.15938 32.753124 62.8 31.346874Q61.45625 29.925 61.45625 27.565624L61.45625 27.221874Q61.45625 25.659374 62.05 24.425Q62.659374 23.190624 63.7375 22.4875Q64.81563 21.784374 66.08125 21.784374Q68.14375 21.784374 69.28438 23.14375Q70.425 24.503124 70.425 27.034374L70.425 27.784374L63.26875 27.784374Q63.3 29.346874 64.175 30.315624Q65.05 31.26875 66.39375 31.26875Q67.3625 31.26875 68.01875 30.878124Q68.69063 30.4875 69.19063 29.846874L70.28438 30.70625Q68.95625 32.753124 66.3 32.753124ZM66.08125 23.26875Q64.9875 23.26875 64.2375 24.065624Q63.503124 24.8625 63.33125 26.3L68.6125 26.3L68.6125 26.159374Q68.53438 24.784374 67.8625 24.034374Q67.20625 23.26875 66.08125 23.26875ZM77.15938 31.26875Q78.12813 31.26875 78.84688 30.690624Q79.56563 30.096874 79.64375 29.221874L81.3625 29.221874Q81.3 30.128124 80.72188 30.95625Q80.15938 31.76875 79.19063 32.26875Q78.2375 32.753124 77.15938 32.753124Q75.00313 32.753124 73.72188 31.315624Q72.45625 29.8625 72.45625 27.3625L72.45625 27.065624Q72.45625 25.51875 73.01875 24.315624Q73.58125 23.1125 74.64375 22.45625Q75.70625 21.784374 77.14375 21.784374Q78.925 21.784374 80.09688 22.846874Q81.28438 23.909374 81.3625 25.6125L79.64375 25.6125Q79.56563 24.596874 78.8625 23.940624Q78.175 23.26875 77.14375 23.26875Q75.76875 23.26875 75.00313 24.26875Q74.25313 25.253124 74.25313 27.128124L74.25313 27.471874Q74.25313 29.3 75.00313 30.284374Q75.75313 31.26875 77.15938 31.26875ZM82.44063 27.175Q82.44063 25.6125 83.05 24.378124Q83.65938 23.128124 84.7375 22.45625Q85.83125 21.784374 87.2375 21.784374Q89.39375 21.784374 90.72188 23.284374Q92.06563 24.76875 92.06563 27.253124L92.06563 27.378124Q92.06563 28.925 91.47188 30.159374Q90.87813 31.378124 89.76875 32.065624Q88.675 32.753124 87.25313 32.753124Q85.1125 32.753124 83.76875 31.253124Q82.44063 29.753124 82.44063 27.3L82.44063 27.175ZM84.25313 27.378124Q84.25313 29.14375 85.06563 30.20625Q85.89375 31.26875 87.25313 31.26875Q88.62813 31.26875 89.44063 30.190624Q90.25313 29.1125 90.25313 27.175Q90.25313 25.425 89.425 24.346874Q88.59688 23.26875 87.2375 23.26875Q85.89375 23.26875 85.06563 24.33125Q84.25313 25.39375 84.25313 27.378124ZM95.62813 21.9875L95.69063 23.315624Q96.89375 21.784374 98.84688 21.784374Q102.20625 21.784374 102.22188 25.565624L102.22188 32.55L100.425 32.55L100.425 25.55Q100.40938 24.409374 99.89375 23.8625Q99.39375 23.315624 98.3 23.315624Q97.425 23.315624 96.75313 23.784374Q96.09688 24.253124 95.72188 25.01875L95.72188 32.55L93.925 32.55L93.925 21.9875L95.62813 21.9875ZM104.47188 27.175Q104.47188 24.753124 105.62813 23.26875Q106.78438 21.784374 108.64375 21.784374Q110.50313 21.784374 111.58125 23.05L111.58125 17.55L113.39375 17.55L113.39375 32.55L111.7375 32.55L111.64375 31.409374Q110.56563 32.753124 108.62813 32.753124Q106.8 32.753124 105.62813 31.253124Q104.47188 29.7375 104.47188 27.315624L104.47188 27.175ZM106.28438 27.378124Q106.28438 29.175 107.01875 30.190624Q107.76875 31.20625 109.08125 31.20625Q110.8 31.20625 111.58125 29.675L111.58125 24.815624Q110.78438 23.315624 109.09688 23.315624Q107.76875 23.315624 107.01875 24.346874Q106.28438 25.378124 106.28438 27.378124ZM122.06563 29.753124Q122.06563 29.01875 121.51875 28.6125Q120.97188 28.20625 119.59688 27.909374Q118.22188 27.6125 117.40938 27.20625Q116.6125 26.8 116.22188 26.2375Q115.84688 25.659374 115.84688 24.878124Q115.84688 23.58125 116.94063 22.690624Q118.03438 21.784374 119.75313 21.784374Q121.55 21.784374 122.65938 22.721874Q123.78438 23.64375 123.78438 25.08125L121.95625 25.08125Q121.95625 24.346874 121.33125 23.815624Q120.70625 23.26875 119.75313 23.26875Q118.75313 23.26875 118.19063 23.70625Q117.64375 24.128124 117.64375 24.83125Q117.64375 25.471874 118.15938 25.815624Q118.675 26.14375 120.03438 26.45625Q121.39375 26.753124 122.22188 27.175Q123.06563 27.58125 123.47188 28.175Q123.87813 28.76875 123.87813 29.6125Q123.87813 31.034374 122.7375 31.89375Q121.6125 32.753124 119.8 32.753124Q118.53438 32.753124 117.55 32.3Q116.58125 31.846874 116.01875 31.05Q115.47188 30.2375 115.47188 29.3L117.28438 29.3Q117.33125 30.20625 118.00313 30.7375Q118.69063 31.26875 119.8 31.26875Q120.83125 31.26875 121.44063 30.8625Q122.06563 30.440624 122.06563 29.753124ZM126.28438 33.76875L124.72188 33.76875L130.65938 18.33125L132.20625 18.33125L126.28438 33.76875ZM145.14375 25.89375Q145.14375 27.9875 144.44063 29.55Q143.7375 31.096874 142.44063 31.925Q141.15938 32.753124 139.44063 32.753124Q137.75313 32.753124 136.45625 31.925Q135.15938 31.096874 134.44063 29.565624Q133.72188 28.034374 133.70625 26.01875L133.70625 25.003124Q133.70625 22.95625 134.40938 21.378124Q135.12813 19.8 136.425 18.971874Q137.7375 18.128124 139.40938 18.128124Q141.12813 18.128124 142.425 18.95625Q143.7375 19.784374 144.44063 21.3625Q145.14375 22.925 145.14375 25.003124L145.14375 25.89375ZM143.26875 24.9875Q143.26875 22.45625 142.25313 21.1125Q141.2375 19.753124 139.40938 19.753124Q137.64375 19.753124 136.6125 21.1125Q135.59688 22.45625 135.56563 24.846874L135.56563 25.89375Q135.56563 28.346874 136.59688 29.753124Q137.62813 31.159374 139.44063 31.159374Q141.25313 31.159374 142.2375 29.83125Q143.2375 28.503124 143.26875 26.034374L143.26875 24.9875ZM156.84688 27.378124Q156.84688 29.8 155.7375 31.284374Q154.64375 32.753124 152.75313 32.753124Q150.83125 32.753124 149.72188 31.51875L149.72188 36.6125L147.925 36.6125L147.925 21.9875L149.56563 21.9875L149.65938 23.159374Q150.75313 21.784374 152.72188 21.784374Q154.62813 21.784374 155.7375 23.221874Q156.84688 24.659374 156.84688 27.221874L156.84688 27.378124ZM155.03438 27.175Q155.03438 25.39375 154.26875 24.3625Q153.51875 23.315624 152.19063 23.315624Q150.55 23.315624 149.72188 24.76875L149.72188 29.83125Q150.53438 31.26875 152.20625 31.26875Q153.50313 31.26875 154.26875 30.2375Q155.03438 29.20625 155.03438 27.175Z" fill-rule="nonzero"/></svg>