<svg version="1.1" viewBox="0.0 0.0 434.0 271.0" fill="none" stroke="none" stroke-linecap="square" stroke-miterlimit="10" width="434" height="271" xmlns:xlink="http://www.w3.org/1999/xlink" xmlns="http://www.w3.org/2000/svg"><path fill="#ffffff" d="M0 0L434.0 0L434.0 271.0L0 271.0L0 0Z" fill-rule="nonzero"/><path fill="#ffffff" d="M0 0L434.0 0L434.0 271.0L0 271.0L0 0Z" fill-rule="nonzero"/><path stroke="#333333" stroke-width="1.0" stroke-linecap="butt" d="M127.5 46.5L127.5 203.5" fill-rule="nonzero"/><path stroke="#cccccc" stroke-width="1.0" stroke-linecap="butt" d="M225.5 46.5L225.5 203.5" fill-rule="nonzero"/><path stroke="#cccccc" stroke-width="1.0" stroke-linecap="butt" d="M322.5 46.5L322.5 203.5" fill-rule="nonzero"/><path stroke="#cccccc" stroke-width="1.0" stroke-linecap="butt" d="M420.5 46.5L420.5 203.5" fill-rule="nonzero"/><clipPath id="id_0"><path d="M127.33 46.583332L420.45 46.583332L420.45 203.45L127.33 203.45L127.33 46.583332Z" clip-rule="nonzero"/></clipPath><path stroke="#000000" stroke-width="0.0" stroke-linecap="butt" stroke-opacity="0.0" clip-path="url(#id_0)" d="M127.0 71.0L127.0 55.0L260.0 55.0C261.10458 55.0 262.0 55.89543 262.0 57.0L262.0 69.0C262.0 70.10457 261.10458 71.0 260.0 71.0Z" fill-rule="nonzero"/><path fill="#4285f4" clip-path="url(#id_0)" d="M127.0 71.0L127.0 55.0L260.0 55.0C261.10458 55.0 262.0 55.89543 262.0 57.0L262.0 69.0C262.0 70.10457 261.10458 71.0 260.0 71.0Z" fill-rule="nonzero"/><path stroke="#000000" stroke-width="0.0" stroke-linecap="butt" stroke-opacity="0.0" clip-path="url(#id_0)" d="M127.0 96.0L127.0 80.0L127.0 80.0L127.0 96.0Z" fill-rule="nonzero"/><path fill="#4285f4" clip-path="url(#id_0)" d="M127.0 96.0L127.0 80.0L127.0 80.0L127.0 96.0Z" fill-rule="nonzero"/><path stroke="#000000" stroke-width="0.0" stroke-linecap="butt" stroke-opacity="0.0" clip-path="url(#id_0)" d="M127.0 121.0L127.0 105.0L398.0 105.0C399.10458 105.0 400.0 105.89543 400.0 107.0L400.0 119.0C400.0 120.10457 399.10458 121.0 398.0 121.0Z" fill-rule="nonzero"/><path fill="#4285f4" clip-path="url(#id_0)" d="M127.0 121.0L127.0 105.0L398.0 105.0C399.10458 105.0 400.0 105.89543 400.0 107.0L400.0 119.0C400.0 120.10457 399.10458 121.0 398.0 121.0Z" fill-rule="nonzero"/><path stroke="#000000" stroke-width="0.0" stroke-linecap="butt" stroke-opacity="0.0" clip-path="url(#id_0)" d="M127.0 145.0L127.0 129.0L127.0 129.0L127.0 145.0Z" fill-rule="nonzero"/><path fill="#4285f4" clip-path="url(#id_0)" d="M127.0 145.0L127.0 129.0L127.0 129.0L127.0 145.0Z" fill-rule="nonzero"/><path stroke="#000000" stroke-width="0.0" stroke-linecap="butt" stroke-opacity="0.0" clip-path="url(#id_0)" d="M127.0 170.0L127.0 154.0L383.0 154.0C384.10458 154.0 385.0 154.89543 385.0 156.0L385.0 168.0C385.0 169.10457 384.10458 170.0 383.0 170.0Z" fill-rule="nonzero"/><path fill="#4285f4" clip-path="url(#id_0)" d="M127.0 170.0L127.0 154.0L383.0 154.0C384.10458 154.0 385.0 154.89543 385.0 156.0L385.0 168.0C385.0 169.10457 384.10458 170.0 383.0 170.0Z" fill-rule="nonzero"/><path stroke="#000000" stroke-width="0.0" stroke-linecap="butt" stroke-opacity="0.0" clip-path="url(#id_0)" d="M127.0 195.0L127.0 179.0L127.0 179.0L127.0 195.0Z" fill-rule="nonzero"/><path fill="#4285f4" clip-path="url(#id_0)" d="M127.0 195.0L127.0 179.0L127.0 179.0L127.0 195.0Z" fill-rule="nonzero"/><path fill="#424242" d="M185.59312 252.21562L182.015 252.21562L181.21812 254.45L180.06187 254.45L183.31187 245.91875L184.29625 245.91875L187.56187 254.45L186.40562 254.45L185.59312 252.21562ZM182.35875 251.29375L185.265 251.29375L183.81187 247.30937L182.35875 251.29375ZM189.89 254.45L188.81187 254.45L188.81187 245.45L189.89 245.45L189.89 254.45ZM192.89 254.45L191.81187 254.45L191.81187 245.45L192.89 245.45L192.89 254.45ZM194.42125 251.21562Q194.42125 250.29375 194.78062 249.54375Q195.15562 248.79375 195.81187 248.40312Q196.46812 247.99687 197.29625 247.99687Q198.59312 247.99687 199.39 248.8875Q200.2025 249.77812 200.2025 251.27812L200.2025 251.35625Q200.2025 252.27812 199.84312 253.0125Q199.48375 253.74687 198.8275 254.16875Q198.17125 254.575 197.31187 254.575Q196.03062 254.575 195.21812 253.68437Q194.42125 252.77812 194.42125 251.29375L194.42125 251.21562ZM195.515 251.35625Q195.515 252.40312 195.99937 253.04375Q196.49937 253.68437 197.31187 253.68437Q198.14 253.68437 198.62437 253.04375Q199.10875 252.3875 199.10875 251.21562Q199.10875 250.18437 198.60875 249.54375Q198.12437 248.8875 197.29625 248.8875Q196.49937 248.8875 195.99937 249.52812Q195.515 250.15312 195.515 251.35625ZM204.24937 253.68437Q204.8275 253.68437 205.265 253.34062Q205.7025 252.98125 205.74937 252.45L206.78062 252.45Q206.74937 252.99687 206.39 253.49687Q206.04625 253.98125 205.46812 254.27812Q204.90562 254.575 204.24937 254.575Q202.9525 254.575 202.18687 253.71562Q201.43687 252.84062 201.43687 251.34062L201.43687 251.15312Q201.43687 250.23125 201.765 249.5125Q202.10875 248.79375 202.73375 248.40312Q203.37437 247.99687 204.24937 247.99687Q205.31187 247.99687 206.015 248.6375Q206.73375 249.2625 206.78062 250.29375L205.74937 250.29375Q205.7025 249.66875 205.28062 249.27812Q204.85875 248.8875 204.24937 248.8875Q203.42125 248.8875 202.96812 249.48125Q202.515 250.075 202.515 251.2L202.515 251.40312Q202.515 252.49687 202.96812 253.09062Q203.42125 253.68437 204.24937 253.68437ZM211.62437 254.45Q211.53062 254.2625 211.46812 253.77812Q210.71812 254.575 209.67125 254.575Q208.73375 254.575 208.12437 254.04375Q207.53062 253.5125 207.53062 252.68437Q207.53062 251.7 208.28062 251.15312Q209.03062 250.60625 210.40562 250.60625L211.4525 250.60625L211.4525 250.10625Q211.4525 249.54375 211.10875 249.21562Q210.78062 248.87187 210.10875 248.87187Q209.53062 248.87187 209.14 249.16875Q208.74937 249.45 208.74937 249.87187L207.65562 249.87187Q207.65562 249.3875 207.98375 248.95Q208.3275 248.5125 208.90562 248.2625Q209.48375 247.99687 210.17125 247.99687Q211.28062 247.99687 211.89 248.54375Q212.515 249.09062 212.54625 250.04375L212.54625 252.96562Q212.54625 253.84062 212.765 254.35625L212.765 254.45L211.62437 254.45ZM209.8275 253.62187Q210.34312 253.62187 210.79625 253.35625Q211.24937 253.09062 211.4525 252.66875L211.4525 251.37187L210.60875 251.37187Q208.60875 251.37187 208.60875 252.54375Q208.60875 253.04375 208.9525 253.34062Q209.29625 253.62187 209.8275 253.62187ZM216.18687 246.575L216.18687 248.10625L217.35875 248.10625L217.35875 248.95L216.18687 248.95L216.18687 252.87187Q216.18687 253.2625 216.34312 253.45Q216.49937 253.6375 216.87437 253.6375Q217.06187 253.6375 217.39 253.575L217.39 254.45Q216.96812 254.575 216.56187 254.575Q215.84312 254.575 215.46812 254.1375Q215.09312 253.68437 215.09312 252.87187L215.09312 248.95L213.93687 248.95L213.93687 248.10625L215.09312 248.10625L215.09312 246.575L216.18687 246.575ZM221.34312 254.575Q220.04625 254.575 219.23375 253.73125Q218.43687 252.87187 218.43687 251.45L218.43687 251.2625Q218.43687 250.30937 218.79625 249.575Q219.15562 248.825 219.79625 248.41875Q220.4525 247.99687 221.2025 247.99687Q222.43687 247.99687 223.12437 248.80937Q223.81187 249.62187 223.81187 251.1375L223.81187 251.59062L219.515 251.59062Q219.54625 252.52812 220.06187 253.10625Q220.59312 253.68437 221.40562 253.68437Q221.96812 253.68437 222.35875 253.45Q222.765 253.21562 223.0775 252.825L223.73375 253.34062Q222.93687 254.575 221.34312 254.575ZM221.2025 248.8875Q220.54625 248.8875 220.09312 249.37187Q219.65562 249.84062 219.56187 250.7L222.73375 250.7L222.73375 250.62187Q222.68687 249.79375 222.28062 249.34062Q221.89 248.8875 221.2025 248.8875ZM224.4525 251.23125Q224.4525 249.7625 225.14 248.8875Q225.8275 247.99687 226.9525 247.99687Q228.06187 247.99687 228.71812 248.74687L228.71812 245.45L229.79625 245.45L229.79625 254.45L228.79625 254.45L228.74937 253.7625Q228.09312 254.575 226.93687 254.575Q225.84312 254.575 225.14 253.66875Q224.4525 252.7625 224.4525 251.30937L224.4525 251.23125ZM225.53062 251.35625Q225.53062 252.43437 225.96812 253.04375Q226.42125 253.65312 227.2025 253.65312Q228.23375 253.65312 228.71812 252.71562L228.71812 249.80937Q228.23375 248.91875 227.21812 248.91875Q226.42125 248.91875 225.96812 249.52812Q225.53062 250.1375 225.53062 251.35625ZM236.3275 245.91875L239.12437 252.87187L241.90562 245.91875L243.37437 245.91875L243.37437 254.45L242.24937 254.45L242.24937 251.12187L242.35875 247.54375L239.54625 254.45L238.68687 254.45L235.89 247.55937L235.99937 251.12187L235.99937 254.45L234.87437 254.45L234.87437 245.91875L236.3275 245.91875ZM247.34312 254.575Q246.04625 254.575 245.23375 253.73125Q244.43687 252.87187 244.43687 251.45L244.43687 251.2625Q244.43687 250.30937 244.79625 249.575Q245.15562 248.825 245.79625 248.41875Q246.4525 247.99687 247.2025 247.99687Q248.43687 247.99687 249.12437 248.80937Q249.81187 249.62187 249.81187 251.1375L249.81187 251.59062L245.515 251.59062Q245.54625 252.52812 246.06187 253.10625Q246.59312 253.68437 247.40562 253.68437Q247.96812 253.68437 248.35875 253.45Q248.765 253.21562 249.0775 252.825L249.73375 253.34062Q248.93687 254.575 247.34312 254.575ZM247.2025 248.8875Q246.54625 248.8875 246.09312 249.37187Q245.65562 249.84062 245.56187 250.7L248.73375 250.7L248.73375 250.62187Q248.68687 249.79375 248.28062 249.34062Q247.89 248.8875 247.2025 248.8875ZM251.73375 248.10625L251.765 248.80937Q252.4525 247.99687 253.64 247.99687Q254.96812 247.99687 255.4525 249.0125Q255.765 248.55937 256.265 248.27812Q256.78064 247.99687 257.46814 247.99687Q259.5619 247.99687 259.59314 250.2L259.59314 254.45L258.515 254.45L258.515 250.2625Q258.515 249.59062 258.2025 249.2625Q257.89 248.91875 257.15564 248.91875Q256.54626 248.91875 256.14 249.27812Q255.74937 249.6375 255.68687 250.24687L255.68687 254.45L254.60875 254.45L254.60875 250.29375Q254.60875 248.91875 253.24937 248.91875Q252.18687 248.91875 251.79625 249.825L251.79625 254.45L250.7025 254.45L250.7025 248.10625L251.73375 248.10625ZM261.42126 251.21562Q261.42126 250.29375 261.78064 249.54375Q262.15564 248.79375 262.8119 248.40312Q263.46814 247.99687 264.29626 247.99687Q265.59314 247.99687 266.39 248.8875Q267.2025 249.77812 267.2025 251.27812L267.2025 251.35625Q267.2025 252.27812 266.84314 253.0125Q266.48376 253.74687 265.8275 254.16875Q265.17126 254.575 264.3119 254.575Q263.03064 254.575 262.21814 253.68437Q261.42126 252.77812 261.42126 251.29375L261.42126 251.21562ZM262.515 251.35625Q262.515 252.40312 262.9994 253.04375Q263.4994 253.68437 264.3119 253.68437Q265.14 253.68437 265.6244 253.04375Q266.10876 252.3875 266.10876 251.21562Q266.10876 250.18437 265.60876 249.54375Q265.1244 248.8875 264.29626 248.8875Q263.4994 248.8875 262.9994 249.52812Q262.515 250.15312 262.515 251.35625ZM271.78064 249.075Q271.53064 249.04375 271.2494 249.04375Q270.17126 249.04375 269.79626 249.95L269.79626 254.45L268.71814 254.45L268.71814 248.10625L269.765 248.10625L269.78064 248.84062Q270.3119 247.99687 271.29626 247.99687Q271.60876 247.99687 271.78064 248.075L271.78064 249.075ZM274.78064 252.85625L276.265 248.10625L277.42126 248.10625L274.8744 255.43437Q274.28064 257.0125 272.9994 257.0125L272.78064 256.9969L272.39 256.91876L272.39 256.04376L272.67126 256.0594Q273.23376 256.0594 273.53064 255.84062Q273.84314 255.62187 274.04626 255.02812L274.28064 254.37187L272.015 248.10625L273.2025 248.10625L274.78064 252.85625ZM278.92126 255.18437L277.9994 255.18437L281.5619 245.91875L282.48376 245.91875L278.92126 255.18437ZM290.4369 250.46562Q290.4369 251.71562 290.015 252.65312Q289.59314 253.575 288.8119 254.075Q288.04626 254.575 287.015 254.575Q286.015 254.575 285.23376 254.075Q284.4525 253.575 284.015 252.66875Q283.59314 251.74687 283.5775 250.52812L283.5775 249.91875Q283.5775 248.68437 283.9994 247.74687Q284.4369 246.80937 285.21814 246.30937Q285.9994 245.79375 287.015 245.79375Q288.03064 245.79375 288.8119 246.29375Q289.59314 246.79375 290.015 247.73125Q290.4369 248.66875 290.4369 249.91875L290.4369 250.46562ZM289.3275 249.90312Q289.3275 248.3875 288.71814 247.575Q288.10876 246.7625 287.015 246.7625Q285.9369 246.7625 285.3275 247.575Q284.71814 248.3875 284.7025 249.825L284.7025 250.46562Q284.7025 251.93437 285.3119 252.77812Q285.9369 253.60625 287.015 253.60625Q288.10876 253.60625 288.7025 252.825Q289.3119 252.02812 289.3275 250.54375L289.3275 249.90312ZM297.0619 251.35625Q297.0619 252.79375 296.40564 253.68437Q295.7494 254.575 294.60876 254.575Q293.4525 254.575 292.79626 253.84062L292.79626 256.8875L291.71814 256.8875L291.71814 248.10625L292.7025 248.10625L292.7494 248.80937Q293.42126 247.99687 294.59314 247.99687Q295.73376 247.99687 296.39 248.85625Q297.0619 249.71562 297.0619 251.24687L297.0619 251.35625ZM295.98376 251.23125Q295.98376 250.15312 295.515 249.54375Q295.0619 248.91875 294.265 248.91875Q293.28064 248.91875 292.79626 249.77812L292.79626 252.80937Q293.28064 253.68437 294.28064 253.68437Q295.0619 253.68437 295.515 253.075Q295.98376 252.45 295.98376 251.23125ZM301.67126 250.98125Q301.67126 249.66875 302.015 248.45Q302.3744 247.23125 303.0775 246.23125Q303.78064 245.23125 304.54626 244.825L304.765 245.54375Q303.90564 246.2 303.35876 247.54375Q302.8119 248.8875 302.765 250.55937L302.7494 251.05937Q302.7494 253.325 303.5775 254.98125Q304.0775 255.98125 304.765 256.54376L304.54626 257.2Q303.765 256.77814 303.04626 255.74687Q301.67126 253.7625 301.67126 250.98125ZM307.3275 245.91875L310.1244 252.87187L312.90564 245.91875L314.3744 245.91875L314.3744 254.45L313.2494 254.45L313.2494 251.12187L313.35876 247.54375L310.54626 254.45L309.6869 254.45L306.89 247.55937L306.9994 251.12187L306.9994 254.45L305.8744 254.45L305.8744 245.91875L307.3275 245.91875ZM318.34314 254.575Q317.04626 254.575 316.23376 253.73125Q315.4369 252.87187 315.4369 251.45L315.4369 251.2625Q315.4369 250.30937 315.79626 249.575Q316.15564 248.825 316.79626 248.41875Q317.4525 247.99687 318.2025 247.99687Q319.4369 247.99687 320.1244 248.80937Q320.8119 249.62187 320.8119 251.1375L320.8119 251.59062L316.515 251.59062Q316.54626 252.52812 317.0619 253.10625Q317.59314 253.68437 318.40564 253.68437Q318.96814 253.68437 319.35876 253.45Q319.765 253.21562 320.0775 252.825L320.73376 253.34062Q319.9369 254.575 318.34314 254.575ZM318.2025 248.8875Q317.54626 248.8875 317.09314 249.37187Q316.65564 249.84062 316.5619 250.7L319.73376 250.7L319.73376 250.62187Q319.6869 249.79375 319.28064 249.34062Q318.89 248.8875 318.2025 248.8875ZM321.4525 251.23125Q321.4525 249.74687 322.14 248.87187Q322.8275 247.99687 323.9525 247.99687Q325.10876 247.99687 325.765 248.80937L325.8119 248.10625L326.8119 248.10625L326.8119 254.29375Q326.8119 255.52812 326.0775 256.23126Q325.34314 256.95 324.1244 256.95Q323.4369 256.95 322.78064 256.65314Q322.1244 256.35626 321.78064 255.85625L322.34314 255.2Q323.03064 256.0594 324.04626 256.0594Q324.8275 256.0594 325.265 255.60625Q325.71814 255.16875 325.71814 254.35625L325.71814 253.80937Q325.0619 254.575 323.9369 254.575Q322.8275 254.575 322.14 253.68437Q321.4525 252.77812 321.4525 251.23125ZM322.54626 251.35625Q322.54626 252.41875 322.98376 253.04375Q323.42126 253.65312 324.21814 253.65312Q325.23376 253.65312 325.71814 252.71562L325.71814 249.825Q325.21814 248.91875 324.21814 248.91875Q323.4369 248.91875 322.98376 249.52812Q322.54626 250.1375 322.54626 251.35625ZM332.6244 254.45Q332.53064 254.2625 332.46814 253.77812Q331.71814 254.575 330.67126 254.575Q329.73376 254.575 329.1244 254.04375Q328.53064 253.5125 328.53064 252.68437Q328.53064 251.7 329.28064 251.15312Q330.03064 250.60625 331.40564 250.60625L332.4525 250.60625L332.4525 250.10625Q332.4525 249.54375 332.10876 249.21562Q331.78064 248.87187 331.10876 248.87187Q330.53064 248.87187 330.14 249.16875Q329.7494 249.45 329.7494 249.87187L328.65564 249.87187Q328.65564 249.3875 328.98376 248.95Q329.3275 248.5125 329.90564 248.2625Q330.48376 247.99687 331.17126 247.99687Q332.28064 247.99687 332.89 248.54375Q333.515 249.09062 333.54626 250.04375L333.54626 252.96562Q333.54626 253.84062 333.765 254.35625L333.765 254.45L332.6244 254.45ZM330.8275 253.62187Q331.34314 253.62187 331.79626 253.35625Q332.2494 253.09062 332.4525 252.66875L332.4525 251.37187L331.60876 251.37187Q329.60876 251.37187 329.60876 252.54375Q329.60876 253.04375 329.9525 253.34062Q330.29626 253.62187 330.8275 253.62187ZM341.0775 251.35625Q341.0775 252.80937 340.40564 253.7Q339.7494 254.575 338.6244 254.575Q337.42126 254.575 336.765 253.71562L336.7025 254.45L335.71814 254.45L335.71814 245.45L336.79626 245.45L336.79626 248.80937Q337.4525 247.99687 338.60876 247.99687Q339.765 247.99687 340.42126 248.87187Q341.0775 249.73125 341.0775 251.2625L341.0775 251.35625ZM339.9994 251.23125Q339.9994 250.12187 339.5619 249.52812Q339.14 248.91875 338.34314 248.91875Q337.265 248.91875 336.79626 249.90312L336.79626 252.65312Q337.29626 253.65312 338.34314 253.65312Q339.1244 253.65312 339.5619 253.04375Q339.9994 252.43437 339.9994 251.23125ZM344.78064 252.85625L346.265 248.10625L347.42126 248.10625L344.8744 255.43437Q344.28064 257.0125 342.9994 257.0125L342.78064 256.9969L342.39 256.91876L342.39 256.04376L342.67126 256.0594Q343.23376 256.0594 343.53064 255.84062Q343.84314 255.62187 344.04626 255.02812L344.28064 254.37187L342.015 248.10625L343.2025 248.10625L344.78064 252.85625ZM350.1869 246.575L350.1869 248.10625L351.35876 248.10625L351.35876 248.95L350.1869 248.95L350.1869 252.87187Q350.1869 253.2625 350.34314 253.45Q350.4994 253.6375 350.8744 253.6375Q351.0619 253.6375 351.39 253.575L351.39 254.45Q350.96814 254.575 350.5619 254.575Q349.84314 254.575 349.46814 254.1375Q349.09314 253.68437 349.09314 252.87187L349.09314 248.95L347.9369 248.95L347.9369 248.10625L349.09314 248.10625L349.09314 246.575L350.1869 246.575ZM355.34314 254.575Q354.04626 254.575 353.23376 253.73125Q352.4369 252.87187 352.4369 251.45L352.4369 251.2625Q352.4369 250.30937 352.79626 249.575Q353.15564 248.825 353.79626 248.41875Q354.4525 247.99687 355.2025 247.99687Q356.4369 247.99687 357.1244 248.80937Q357.8119 249.62187 357.8119 251.1375L357.8119 251.59062L353.515 251.59062Q353.54626 252.52812 354.0619 253.10625Q354.59314 253.68437 355.40564 253.68437Q355.96814 253.68437 356.35876 253.45Q356.765 253.21562 357.0775 252.825L357.73376 253.34062Q356.9369 254.575 355.34314 254.575ZM355.2025 248.8875Q354.54626 248.8875 354.09314 249.37187Q353.65564 249.84062 353.5619 250.7L356.73376 250.7L356.73376 250.62187Q356.6869 249.79375 356.28064 249.34062Q355.89 248.8875 355.2025 248.8875ZM362.40564 252.7625Q362.40564 252.325 362.0619 252.09062Q361.73376 251.84062 360.90564 251.66875Q360.09314 251.49687 359.60876 251.24687Q359.1244 250.99687 358.89 250.66875Q358.67126 250.325 358.67126 249.85625Q358.67126 249.075 359.3275 248.54375Q359.98376 247.99687 361.015 247.99687Q362.09314 247.99687 362.7494 248.55937Q363.42126 249.10625 363.42126 249.96562L362.34314 249.96562Q362.34314 249.52812 361.9525 249.21562Q361.5775 248.8875 361.015 248.8875Q360.42126 248.8875 360.0775 249.15312Q359.7494 249.40312 359.7494 249.80937Q359.7494 250.2 360.0619 250.40312Q360.3744 250.60625 361.1869 250.79375Q361.9994 250.96562 362.4994 251.21562Q362.9994 251.46562 363.23376 251.825Q363.48376 252.18437 363.48376 252.68437Q363.48376 253.54375 362.79626 254.05937Q362.1244 254.575 361.04626 254.575Q360.28064 254.575 359.6869 254.30937Q359.10876 254.02812 358.78064 253.54375Q358.4525 253.05937 358.4525 252.49687L359.53064 252.49687Q359.5619 253.04375 359.96814 253.37187Q360.3744 253.68437 361.04626 253.68437Q361.65564 253.68437 362.03064 253.43437Q362.40564 253.18437 362.40564 252.7625ZM367.21814 251.04375Q367.21814 252.35625 366.8744 253.55937Q366.53064 254.74687 365.8119 255.7625Q365.10876 256.77814 364.34314 257.2L364.10876 256.54376Q365.015 255.85625 365.5619 254.40312Q366.10876 252.93437 366.1244 251.16875L366.1244 250.98125Q366.1244 249.74687 365.85876 248.68437Q365.60876 247.62187 365.14 246.79375Q364.6869 245.95 364.10876 245.48125L364.34314 244.825Q365.10876 245.24687 365.8119 246.24687Q366.515 247.24687 366.85876 248.46562Q367.21814 249.66875 367.21814 251.04375Z" fill-rule="nonzero"/><path fill="#424242" d="M25.549997 165.03229L17.018747 165.03229L17.018747 162.23541Q17.018747 160.84479 17.596872 160.15729Q18.159372 159.45416 19.284372 159.45416Q19.893747 159.45416 20.362497 159.79791Q20.815622 160.12604 21.065622 160.71979Q21.253122 160.01666 21.799997 159.62604Q22.331247 159.21979 23.081247 159.21979Q24.237497 159.21979 24.893747 159.96979Q25.549997 160.70416 25.549997 162.06354L25.549997 165.03229ZM21.565622 163.90729L24.628122 163.90729L24.628122 162.04791Q24.628122 161.25104 24.221872 160.79791Q23.815622 160.34479 23.096872 160.34479Q21.565622 160.34479 21.565622 162.03229L21.565622 163.90729ZM20.659372 163.90729L20.659372 162.20416Q20.659372 161.46979 20.299997 161.03229Q19.924997 160.57916 19.284372 160.57916Q18.581247 160.57916 18.268747 160.98541Q17.940622 161.39166 17.940622 162.23541L17.940622 163.90729L20.659372 163.90729ZM25.674997 155.56354Q25.674997 156.86041 24.831247 157.67291Q23.971872 158.46979 22.549997 158.46979L22.362497 158.46979Q21.409372 158.46979 20.674997 158.11041Q19.924997 157.75104 19.518747 157.11041Q19.096872 156.45416 19.096872 155.70416Q19.096872 154.46979 19.909372 153.78229Q20.721872 153.09479 22.237497 153.09479L22.690622 153.09479L22.690622 157.39166Q23.628122 157.36041 24.206247 156.84479Q24.784372 156.31354 24.784372 155.50104Q24.784372 154.93854 24.549997 154.54791Q24.315622 154.14166 23.924997 153.82916L24.440622 153.17291Q25.674997 153.96979 25.674997 155.56354ZM19.987497 155.70416Q19.987497 156.36041 20.471872 156.81354Q20.940622 157.25104 21.799997 157.34479L21.799997 154.17291L21.721872 154.17291Q20.893747 154.21979 20.440622 154.62604Q19.987497 155.01666 19.987497 155.70416ZM19.206247 151.17291L20.003122 151.14166Q19.096872 150.40729 19.096872 149.23541Q19.096872 147.21979 21.362497 147.20416L25.549997 147.20416L25.549997 148.29791L21.346872 148.29791Q20.674997 148.29791 20.346872 148.61041Q20.018747 148.90729 20.018747 149.56354Q20.018747 150.09479 20.299997 150.50104Q20.581247 150.89166 21.034372 151.11041L25.549997 151.11041L25.549997 152.18854L19.206247 152.18854L19.206247 151.17291ZM24.784372 142.65729Q24.784372 142.07916 24.440622 141.64166Q24.081247 141.20416 23.549997 141.15729L23.549997 140.12604Q24.096872 140.15729 24.596872 140.51666Q25.081247 140.86041 25.378122 141.43854Q25.674997 142.00104 25.674997 142.65729Q25.674997 143.95416 24.815622 144.71979Q23.940622 145.46979 22.440622 145.46979L22.253122 145.46979Q21.331247 145.46979 20.612497 145.14166Q19.893747 144.79791 19.503122 144.17291Q19.096872 143.53229 19.096872 142.65729Q19.096872 141.59479 19.737497 140.89166Q20.362497 140.17291 21.393747 140.12604L21.393747 141.15729Q20.768747 141.20416 20.378122 141.62604Q19.987497 142.04791 19.987497 142.65729Q19.987497 143.48541 20.581247 143.93854Q21.174997 144.39166 22.299997 144.39166L22.503122 144.39166Q23.596872 144.39166 24.190622 143.93854Q24.784372 143.48541 24.784372 142.65729ZM19.971872 138.11041Q19.096872 137.39166 19.096872 136.23541Q19.096872 134.21979 21.362497 134.20416L25.549997 134.20416L25.549997 135.29791L21.346872 135.29791Q20.674997 135.29791 20.346872 135.61041Q20.018747 135.90729 20.018747 136.56354Q20.018747 137.09479 20.299997 137.50104Q20.581247 137.89166 21.034372 138.11041L25.549997 138.11041L25.549997 139.18854L16.549997 139.18854L16.549997 138.11041L19.971872 138.11041ZM19.206247 131.17291L19.909372 131.14166Q19.096872 130.45416 19.096872 129.26666Q19.096872 127.938545 20.112497 127.45417Q19.659372 127.14167 19.378122 126.64167Q19.096872 126.126045 19.096872 125.438545Q19.096872 123.344795 21.299997 123.313545L25.549997 123.313545L25.549997 124.39167L21.362497 124.39167Q20.690622 124.39167 20.362497 124.70417Q20.018747 125.01667 20.018747 125.751045Q20.018747 126.36042 20.378122 126.76667Q20.737497 127.157295 21.346872 127.219795L25.549997 127.219795L25.549997 128.29791L21.393747 128.29791Q20.018747 128.29791 20.018747 129.65729Q20.018747 130.71979 20.924997 131.11041L25.549997 131.11041L25.549997 132.20416L19.206247 132.20416L19.206247 131.17291ZM25.549997 117.282295Q25.362497 117.376045 24.878122 117.438545Q25.674997 118.188545 25.674997 119.23542Q25.674997 120.17292 25.143747 120.782295Q24.612497 121.376045 23.784372 121.376045Q22.799997 121.376045 22.253122 120.626045Q21.706247 119.876045 21.706247 118.501045L21.706247 117.45417L21.206247 117.45417Q20.643747 117.45417 20.315622 117.79792Q19.971872 118.126045 19.971872 118.79792Q19.971872 119.376045 20.268747 119.76667Q20.549997 120.157295 20.971872 120.157295L20.971872 121.251045Q20.487497 121.251045 20.049997 120.92292Q19.612497 120.57917 19.362497 120.001045Q19.096872 119.42292 19.096872 118.73542Q19.096872 117.626045 19.643747 117.01667Q20.190622 116.39167 21.143747 116.36042L24.065622 116.36042Q24.940622 116.36042 25.456247 116.14167L25.549997 116.14167L25.549997 117.282295ZM24.721872 119.07917Q24.721872 118.563545 24.456247 118.11042Q24.190622 117.657295 23.768747 117.45417L22.471872 117.45417L22.471872 118.29792Q22.471872 120.29792 23.643747 120.29792Q24.143747 120.29792 24.440622 119.95417Q24.721872 119.61042 24.721872 119.07917ZM20.174997 111.126045Q20.143747 111.376045 20.143747 111.657295Q20.143747 112.73542 21.049997 113.11042L25.549997 113.11042L25.549997 114.188545L19.206247 114.188545L19.206247 113.14167L19.940622 113.126045Q19.096872 112.594795 19.096872 111.61042Q19.096872 111.29792 19.174997 111.126045L20.174997 111.126045ZM22.612497 108.42291L23.315622 109.11041L25.549997 109.11041L25.549997 110.188545L16.549997 110.188545L16.549997 109.11041L21.987497 109.11041L21.299997 108.53229L19.206247 106.54791L19.206247 105.23541L21.862497 107.70416L25.549997 104.93854L25.549997 106.21979L22.612497 108.42291Z" fill-rule="nonzero"/><path fill="#757575" d="M79.31438 67.75813L79.31438 59.226883L81.73625 59.226883Q82.84563 59.226883 83.68938 59.726883Q84.54875 60.211258 85.0175 61.117508Q85.48625 62.023758 85.48625 63.211258L85.48625 63.742508Q85.48625 64.96126 85.0175 65.86751Q84.56438 66.77376 83.68938 67.25813Q82.83 67.74251 81.68938 67.75813L79.31438 67.75813ZM80.43938 60.148758L80.43938 66.83626L81.62688 66.83626Q82.92375 66.83626 83.6425 66.03938Q84.37688 65.22688 84.37688 63.726883L84.37688 63.226883Q84.37688 61.773758 83.68938 60.976883Q83.0175 60.164383 81.75188 60.148758L80.43938 60.148758ZM88.33 67.75813L87.25188 67.75813L87.25188 61.414383L88.33 61.414383L88.33 67.75813ZM87.15813 59.742508Q87.15813 59.476883 87.31438 59.289383Q87.48625 59.101883 87.79875 59.101883Q88.11125 59.101883 88.2675 59.289383Q88.43938 59.476883 88.43938 59.742508Q88.43938 59.992508 88.2675 60.180008Q88.11125 60.351883 87.79875 60.351883Q87.48625 60.351883 87.31438 60.180008Q87.15813 59.992508 87.15813 59.742508ZM92.68938 66.99251Q93.2675 66.99251 93.705 66.64876Q94.1425 66.28938 94.18938 65.75813L95.22063 65.75813Q95.18938 66.30501 94.83 66.80501Q94.48625 67.28938 93.90813 67.58626Q93.34563 67.88313 92.68938 67.88313Q91.3925 67.88313 90.62688 67.02376Q89.87688 66.14876 89.87688 64.64876L89.87688 64.46126Q89.87688 63.539383 90.205 62.820633Q90.54875 62.101883 91.17375 61.711258Q91.81438 61.305008 92.68938 61.305008Q93.75188 61.305008 94.455 61.945633Q95.17375 62.570633 95.22063 63.601883L94.18938 63.601883Q94.1425 62.976883 93.72063 62.586258Q93.29875 62.195633 92.68938 62.195633Q91.86125 62.195633 91.40813 62.789383Q90.955 63.383133 90.955 64.50813L90.955 64.71126Q90.955 65.80501 91.40813 66.39876Q91.86125 66.99251 92.68938 66.99251ZM97.62688 59.883133L97.62688 61.414383L98.79875 61.414383L98.79875 62.258133L97.62688 62.258133L97.62688 66.18001Q97.62688 66.57063 97.78313 66.75813Q97.93938 66.94563 98.31438 66.94563Q98.50188 66.94563 98.83 66.88313L98.83 67.75813Q98.40813 67.88313 98.00188 67.88313Q97.28313 67.88313 96.90813 67.44563Q96.53313 66.99251 96.53313 66.18001L96.53313 62.258133L95.37688 62.258133L95.37688 61.414383L96.53313 61.414383L96.53313 59.883133L97.62688 59.883133ZM105.03313 65.52376L101.455 65.52376L100.65813 67.75813L99.50188 67.75813L102.75188 59.226883L103.73625 59.226883L107.00188 67.75813L105.84563 67.75813L105.03313 65.52376ZM101.79875 64.60188L104.705 64.60188L103.25188 60.617508L101.79875 64.60188ZM107.8925 64.53938Q107.8925 63.070633 108.58 62.195633Q109.2675 61.305008 110.3925 61.305008Q111.50188 61.305008 112.15813 62.055008L112.15813 58.758133L113.23625 58.758133L113.23625 67.75813L112.23625 67.75813L112.18938 67.07063Q111.53313 67.88313 110.37688 67.88313Q109.28313 67.88313 108.58 66.97688Q107.8925 66.07063 107.8925 64.61751L107.8925 64.53938ZM108.97063 64.66438Q108.97063 65.74251 109.40813 66.35188Q109.86125 66.96126 110.6425 66.96126Q111.67375 66.96126 112.15813 66.02376L112.15813 63.117508Q111.67375 62.226883 110.65813 62.226883Q109.86125 62.226883 109.40813 62.836258Q108.97063 63.445633 108.97063 64.66438ZM114.8925 64.53938Q114.8925 63.070633 115.58 62.195633Q116.2675 61.305008 117.3925 61.305008Q118.50188 61.305008 119.15813 62.055008L119.15813 58.758133L120.23625 58.758133L120.23625 67.75813L119.23625 67.75813L119.18938 67.07063Q118.53313 67.88313 117.37688 67.88313Q116.28313 67.88313 115.58 66.97688Q114.8925 66.07063 114.8925 64.61751L114.8925 64.53938ZM115.97063 64.66438Q115.97063 65.74251 116.40813 66.35188Q116.86125 66.96126 117.6425 66.96126Q118.67375 66.96126 119.15813 66.02376L119.15813 63.117508Q118.67375 62.226883 117.65813 62.226883Q116.86125 62.226883 116.40813 62.836258Q115.97063 63.445633 115.97063 64.66438Z" fill-rule="nonzero"/><path fill="#757575" d="M63.439377 89.1178L63.439377 92.46155L62.314377 92.46155L62.314377 83.9303L65.47063 83.9303Q66.86125 83.9303 67.65813 84.64905Q68.455 85.35217 68.455 86.53967Q68.455 87.77405 67.67375 88.44592Q66.90813 89.1178 65.455 89.1178L63.439377 89.1178ZM63.439377 88.19592L65.47063 88.19592Q66.37688 88.19592 66.84563 87.77405Q67.33 87.35217 67.33 86.5553Q67.33 85.78967 66.84563 85.33655Q66.37688 84.8678 65.53313 84.85217L63.439377 84.85217L63.439377 88.19592ZM69.86125 89.22717Q69.86125 88.3053 70.22063 87.5553Q70.59563 86.8053 71.25188 86.41467Q71.90813 86.00842 72.73625 86.00842Q74.03313 86.00842 74.83 86.89905Q75.6425 87.78967 75.6425 89.28967L75.6425 89.3678Q75.6425 90.28967 75.28313 91.02405Q74.92375 91.75842 74.2675 92.1803Q73.61125 92.58655 72.75188 92.58655Q71.47063 92.58655 70.65813 91.69592Q69.86125 90.78967 69.86125 89.3053L69.86125 89.22717ZM70.955 89.3678Q70.955 90.41467 71.43938 91.0553Q71.93938 91.69592 72.75188 91.69592Q73.58 91.69592 74.06438 91.0553Q74.54875 90.39905 74.54875 89.22717Q74.54875 88.19592 74.04875 87.5553Q73.56438 86.89905 72.73625 86.89905Q71.93938 86.89905 71.43938 87.53967Q70.955 88.16467 70.955 89.3678ZM76.86125 89.22717Q76.86125 88.3053 77.22063 87.5553Q77.59563 86.8053 78.25188 86.41467Q78.90813 86.00842 79.73625 86.00842Q81.03313 86.00842 81.83 86.89905Q82.6425 87.78967 82.6425 89.28967L82.6425 89.3678Q82.6425 90.28967 82.28313 91.02405Q81.92375 91.75842 81.2675 92.1803Q80.61125 92.58655 79.75188 92.58655Q78.47063 92.58655 77.65813 91.69592Q76.86125 90.78967 76.86125 89.3053L76.86125 89.22717ZM77.955 89.3678Q77.955 90.41467 78.43938 91.0553Q78.93938 91.69592 79.75188 91.69592Q80.58 91.69592 81.06438 91.0553Q81.54875 90.39905 81.54875 89.22717Q81.54875 88.19592 81.04875 87.5553Q80.56438 86.89905 79.73625 86.89905Q78.93938 86.89905 78.43938 87.53967Q77.955 88.16467 77.955 89.3678ZM85.33 92.46155L84.25188 92.46155L84.25188 83.46155L85.33 83.46155L85.33 92.46155ZM89.78313 92.58655Q88.48625 92.58655 87.67375 91.7428Q86.87688 90.88342 86.87688 89.46155L86.87688 89.27405Q86.87688 88.32092 87.23625 87.58655Q87.59563 86.83655 88.23625 86.4303Q88.8925 86.00842 89.6425 86.00842Q90.87688 86.00842 91.56438 86.82092Q92.25188 87.63342 92.25188 89.14905L92.25188 89.60217L87.955 89.60217Q87.98625 90.53967 88.50188 91.1178Q89.03313 91.69592 89.84563 91.69592Q90.40813 91.69592 90.79875 91.46155Q91.205 91.22717 91.5175 90.83655L92.17375 91.35217Q91.37688 92.58655 89.78313 92.58655ZM89.6425 86.89905Q88.98625 86.89905 88.53313 87.38342Q88.09563 87.85217 88.00188 88.71155L91.17375 88.71155L91.17375 88.63342Q91.12688 87.8053 90.72063 87.35217Q90.33 86.89905 89.6425 86.89905ZM92.8925 89.2428Q92.8925 87.77405 93.58 86.89905Q94.2675 86.00842 95.3925 86.00842Q96.50188 86.00842 97.15813 86.75842L97.15813 83.46155L98.23625 83.46155L98.23625 92.46155L97.23625 92.46155L97.18938 91.77405Q96.53313 92.58655 95.37688 92.58655Q94.28313 92.58655 93.58 91.6803Q92.8925 90.77405 92.8925 89.32092L92.8925 89.2428ZM93.97063 89.3678Q93.97063 90.44592 94.40813 91.0553Q94.86125 91.66467 95.6425 91.66467Q96.67375 91.66467 97.15813 90.72717L97.15813 87.82092Q96.67375 86.9303 95.65813 86.9303Q94.86125 86.9303 94.40813 87.53967Q93.97063 88.14905 93.97063 89.3678ZM105.03313 90.22717L101.455 90.22717L100.65813 92.46155L99.50188 92.46155L102.75188 83.9303L103.73625 83.9303L107.00188 92.46155L105.84563 92.46155L105.03313 90.22717ZM101.79875 89.3053L104.705 89.3053L103.25188 85.32092L101.79875 89.3053ZM107.8925 89.2428Q107.8925 87.77405 108.58 86.89905Q109.2675 86.00842 110.3925 86.00842Q111.50188 86.00842 112.15813 86.75842L112.15813 83.46155L113.23625 83.46155L113.23625 92.46155L112.23625 92.46155L112.18938 91.77405Q111.53313 92.58655 110.37688 92.58655Q109.28313 92.58655 108.58 91.6803Q107.8925 90.77405 107.8925 89.32092L107.8925 89.2428ZM108.97063 89.3678Q108.97063 90.44592 109.40813 91.0553Q109.86125 91.66467 110.6425 91.66467Q111.67375 91.66467 112.15813 90.72717L112.15813 87.82092Q111.67375 86.9303 110.65813 86.9303Q109.86125 86.9303 109.40813 87.53967Q108.97063 88.14905 108.97063 89.3678ZM114.8925 89.2428Q114.8925 87.77405 115.58 86.89905Q116.2675 86.00842 117.3925 86.00842Q118.50188 86.00842 119.15813 86.75842L119.15813 83.46155L120.23625 83.46155L120.23625 92.46155L119.23625 92.46155L119.18938 91.77405Q118.53313 92.58655 117.37688 92.58655Q116.28313 92.58655 115.58 91.6803Q114.8925 90.77405 114.8925 89.32092L114.8925 89.2428ZM115.97063 89.3678Q115.97063 90.44592 116.40813 91.0553Q116.86125 91.66467 117.6425 91.66467Q118.67375 91.66467 119.15813 90.72717L119.15813 87.82092Q118.67375 86.9303 117.65813 86.9303Q116.86125 86.9303 116.40813 87.53967Q115.97063 88.14905 115.97063 89.3678Z" fill-rule="nonzero"/><path fill="#757575" d="M79.31438 117.16496L79.31438 108.63371L81.73625 108.63371Q82.84563 108.63371 83.68938 109.13371Q84.54875 109.61809 85.0175 110.52434Q85.48625 111.43059 85.48625 112.61809L85.48625 113.14934Q85.48625 114.36809 85.0175 115.27434Q84.56438 116.18059 83.68938 116.66496Q82.83 117.14934 81.68938 117.16496L79.31438 117.16496ZM80.43938 109.55559L80.43938 116.24309L81.62688 116.24309Q82.92375 116.24309 83.6425 115.44621Q84.37688 114.63371 84.37688 113.13371L84.37688 112.63371Q84.37688 111.18059 83.68938 110.38371Q83.0175 109.57121 81.75188 109.55559L80.43938 109.55559ZM88.33 117.16496L87.25188 117.16496L87.25188 110.82121L88.33 110.82121L88.33 117.16496ZM87.15813 109.14934Q87.15813 108.88371 87.31438 108.69621Q87.48625 108.50871 87.79875 108.50871Q88.11125 108.50871 88.2675 108.69621Q88.43938 108.88371 88.43938 109.14934Q88.43938 109.39934 88.2675 109.58684Q88.11125 109.75871 87.79875 109.75871Q87.48625 109.75871 87.31438 109.58684Q87.15813 109.39934 87.15813 109.14934ZM92.68938 116.39934Q93.2675 116.39934 93.705 116.05559Q94.1425 115.69621 94.18938 115.16496L95.22063 115.16496Q95.18938 115.71184 94.83 116.21184Q94.48625 116.69621 93.90813 116.99309Q93.34563 117.28996 92.68938 117.28996Q91.3925 117.28996 90.62688 116.43059Q89.87688 115.55559 89.87688 114.05559L89.87688 113.86809Q89.87688 112.94621 90.205 112.22746Q90.54875 111.50871 91.17375 111.11809Q91.81438 110.71184 92.68938 110.71184Q93.75188 110.71184 94.455 111.35246Q95.17375 111.97746 95.22063 113.00871L94.18938 113.00871Q94.1425 112.38371 93.72063 111.99309Q93.29875 111.60246 92.68938 111.60246Q91.86125 111.60246 91.40813 112.19621Q90.955 112.78996 90.955 113.91496L90.955 114.11809Q90.955 115.21184 91.40813 115.80559Q91.86125 116.39934 92.68938 116.39934ZM97.62688 109.28996L97.62688 110.82121L98.79875 110.82121L98.79875 111.66496L97.62688 111.66496L97.62688 115.58684Q97.62688 115.97746 97.78313 116.16496Q97.93938 116.35246 98.31438 116.35246Q98.50188 116.35246 98.83 116.28996L98.83 117.16496Q98.40813 117.28996 98.00188 117.28996Q97.28313 117.28996 96.90813 116.85246Q96.53313 116.39934 96.53313 115.58684L96.53313 111.66496L95.37688 111.66496L95.37688 110.82121L96.53313 110.82121L96.53313 109.28996L97.62688 109.28996ZM105.03313 114.93059L101.455 114.93059L100.65813 117.16496L99.50188 117.16496L102.75188 108.63371L103.73625 108.63371L107.00188 117.16496L105.84563 117.16496L105.03313 114.93059ZM101.79875 114.00871L104.705 114.00871L103.25188 110.02434L101.79875 114.00871ZM107.8925 113.94621Q107.8925 112.47746 108.58 111.60246Q109.2675 110.71184 110.3925 110.71184Q111.50188 110.71184 112.15813 111.46184L112.15813 108.16496L113.23625 108.16496L113.23625 117.16496L112.23625 117.16496L112.18938 116.47746Q111.53313 117.28996 110.37688 117.28996Q109.28313 117.28996 108.58 116.38371Q107.8925 115.47746 107.8925 114.02434L107.8925 113.94621ZM108.97063 114.07121Q108.97063 115.14934 109.40813 115.75871Q109.86125 116.36809 110.6425 116.36809Q111.67375 116.36809 112.15813 115.43059L112.15813 112.52434Q111.67375 111.63371 110.65813 111.63371Q109.86125 111.63371 109.40813 112.24309Q108.97063 112.85246 108.97063 114.07121ZM114.8925 113.94621Q114.8925 112.47746 115.58 111.60246Q116.2675 110.71184 117.3925 110.71184Q118.50188 110.71184 119.15813 111.46184L119.15813 108.16496L120.23625 108.16496L120.23625 117.16496L119.23625 117.16496L119.18938 116.47746Q118.53313 117.28996 117.37688 117.28996Q116.28313 117.28996 115.58 116.38371Q114.8925 115.47746 114.8925 114.02434L114.8925 113.94621ZM115.97063 114.07121Q115.97063 115.14934 116.40813 115.75871Q116.86125 116.36809 117.6425 116.36809Q118.67375 116.36809 119.15813 115.43059L119.15813 112.52434Q118.67375 111.63371 117.65813 111.63371Q116.86125 111.63371 116.40813 112.24309Q115.97063 112.85246 115.97063 114.07121Z" fill-rule="nonzero"/><path fill="#757575" d="M63.439377 138.52463L63.439377 141.86838L62.314377 141.86838L62.314377 133.33713L65.47063 133.33713Q66.86125 133.33713 67.65813 134.05588Q68.455 134.759 68.455 135.9465Q68.455 137.18088 67.67375 137.85275Q66.90813 138.52463 65.455 138.52463L63.439377 138.52463ZM63.439377 137.60275L65.47063 137.60275Q66.37688 137.60275 66.84563 137.18088Q67.33 136.759 67.33 135.96213Q67.33 135.1965 66.84563 134.74338Q66.37688 134.27463 65.53313 134.259L63.439377 134.259L63.439377 137.60275ZM69.86125 138.634Q69.86125 137.71213 70.22063 136.96213Q70.59563 136.21213 71.25188 135.8215Q71.90813 135.41525 72.73625 135.41525Q74.03313 135.41525 74.83 136.30588Q75.6425 137.1965 75.6425 138.6965L75.6425 138.77463Q75.6425 139.6965 75.28313 140.43088Q74.92375 141.16525 74.2675 141.58713Q73.61125 141.99338 72.75188 141.99338Q71.47063 141.99338 70.65813 141.10275Q69.86125 140.1965 69.86125 138.71213L69.86125 138.634ZM70.955 138.77463Q70.955 139.8215 71.43938 140.46213Q71.93938 141.10275 72.75188 141.10275Q73.58 141.10275 74.06438 140.46213Q74.54875 139.80588 74.54875 138.634Q74.54875 137.60275 74.04875 136.96213Q73.56438 136.30588 72.73625 136.30588Q71.93938 136.30588 71.43938 136.9465Q70.955 137.5715 70.955 138.77463ZM76.86125 138.634Q76.86125 137.71213 77.22063 136.96213Q77.59563 136.21213 78.25188 135.8215Q78.90813 135.41525 79.73625 135.41525Q81.03313 135.41525 81.83 136.30588Q82.6425 137.1965 82.6425 138.6965L82.6425 138.77463Q82.6425 139.6965 82.28313 140.43088Q81.92375 141.16525 81.2675 141.58713Q80.61125 141.99338 79.75188 141.99338Q78.47063 141.99338 77.65813 141.10275Q76.86125 140.1965 76.86125 138.71213L76.86125 138.634ZM77.955 138.77463Q77.955 139.8215 78.43938 140.46213Q78.93938 141.10275 79.75188 141.10275Q80.58 141.10275 81.06438 140.46213Q81.54875 139.80588 81.54875 138.634Q81.54875 137.60275 81.04875 136.96213Q80.56438 136.30588 79.73625 136.30588Q78.93938 136.30588 78.43938 136.9465Q77.955 137.5715 77.955 138.77463ZM85.33 141.86838L84.25188 141.86838L84.25188 132.86838L85.33 132.86838L85.33 141.86838ZM89.78313 141.99338Q88.48625 141.99338 87.67375 141.14963Q86.87688 140.29025 86.87688 138.86838L86.87688 138.68088Q86.87688 137.72775 87.23625 136.99338Q87.59563 136.24338 88.23625 135.83713Q88.8925 135.41525 89.6425 135.41525Q90.87688 135.41525 91.56438 136.22775Q92.25188 137.04025 92.25188 138.55588L92.25188 139.009L87.955 139.009Q87.98625 139.9465 88.50188 140.52463Q89.03313 141.10275 89.84563 141.10275Q90.40813 141.10275 90.79875 140.86838Q91.205 140.634 91.5175 140.24338L92.17375 140.759Q91.37688 141.99338 89.78313 141.99338ZM89.6425 136.30588Q88.98625 136.30588 88.53313 136.79025Q88.09563 137.259 88.00188 138.11838L91.17375 138.11838L91.17375 138.04025Q91.12688 137.21213 90.72063 136.759Q90.33 136.30588 89.6425 136.30588ZM92.8925 138.64963Q92.8925 137.18088 93.58 136.30588Q94.2675 135.41525 95.3925 135.41525Q96.50188 135.41525 97.15813 136.16525L97.15813 132.86838L98.23625 132.86838L98.23625 141.86838L97.23625 141.86838L97.18938 141.18088Q96.53313 141.99338 95.37688 141.99338Q94.28313 141.99338 93.58 141.08713Q92.8925 140.18088 92.8925 138.72775L92.8925 138.64963ZM93.97063 138.77463Q93.97063 139.85275 94.40813 140.46213Q94.86125 141.0715 95.6425 141.0715Q96.67375 141.0715 97.15813 140.134L97.15813 137.22775Q96.67375 136.33713 95.65813 136.33713Q94.86125 136.33713 94.40813 136.9465Q93.97063 137.55588 93.97063 138.77463ZM105.03313 139.634L101.455 139.634L100.65813 141.86838L99.50188 141.86838L102.75188 133.33713L103.73625 133.33713L107.00188 141.86838L105.84563 141.86838L105.03313 139.634ZM101.79875 138.71213L104.705 138.71213L103.25188 134.72775L101.79875 138.71213ZM107.8925 138.64963Q107.8925 137.18088 108.58 136.30588Q109.2675 135.41525 110.3925 135.41525Q111.50188 135.41525 112.15813 136.16525L112.15813 132.86838L113.23625 132.86838L113.23625 141.86838L112.23625 141.86838L112.18938 141.18088Q111.53313 141.99338 110.37688 141.99338Q109.28313 141.99338 108.58 141.08713Q107.8925 140.18088 107.8925 138.72775L107.8925 138.64963ZM108.97063 138.77463Q108.97063 139.85275 109.40813 140.46213Q109.86125 141.0715 110.6425 141.0715Q111.67375 141.0715 112.15813 140.134L112.15813 137.22775Q111.67375 136.33713 110.65813 136.33713Q109.86125 136.33713 109.40813 136.9465Q108.97063 137.55588 108.97063 138.77463ZM114.8925 138.64963Q114.8925 137.18088 115.58 136.30588Q116.2675 135.41525 117.3925 135.41525Q118.50188 135.41525 119.15813 136.16525L119.15813 132.86838L120.23625 132.86838L120.23625 141.86838L119.23625 141.86838L119.18938 141.18088Q118.53313 141.99338 117.37688 141.99338Q116.28313 141.99338 115.58 141.08713Q114.8925 140.18088 114.8925 138.72775L114.8925 138.64963ZM115.97063 138.77463Q115.97063 139.85275 116.40813 140.46213Q116.86125 141.0715 117.6425 141.0715Q118.67375 141.0715 119.15813 140.134L119.15813 137.22775Q118.67375 136.33713 117.65813 136.33713Q116.86125 136.33713 116.40813 136.9465Q115.97063 137.55588 115.97063 138.77463Z" fill-rule="nonzero"/><path fill="#757575" d="M79.31438 166.57178L79.31438 158.04053L81.73625 158.04053Q82.84563 158.04053 83.68938 158.54053Q84.54875 159.0249 85.0175 159.93115Q85.48625 160.8374 85.48625 162.0249L85.48625 162.55615Q85.48625 163.7749 85.0175 164.68115Q84.56438 165.5874 83.68938 166.07178Q82.83 166.55615 81.68938 166.57178L79.31438 166.57178ZM80.43938 158.9624L80.43938 165.6499L81.62688 165.6499Q82.92375 165.6499 83.6425 164.85303Q84.37688 164.04053 84.37688 162.54053L84.37688 162.04053Q84.37688 160.5874 83.68938 159.79053Q83.0175 158.97803 81.75188 158.9624L80.43938 158.9624ZM88.33 166.57178L87.25188 166.57178L87.25188 160.22803L88.33 160.22803L88.33 166.57178ZM87.15813 158.55615Q87.15813 158.29053 87.31438 158.10303Q87.48625 157.91553 87.79875 157.91553Q88.11125 157.91553 88.2675 158.10303Q88.43938 158.29053 88.43938 158.55615Q88.43938 158.80615 88.2675 158.99365Q88.11125 159.16553 87.79875 159.16553Q87.48625 159.16553 87.31438 158.99365Q87.15813 158.80615 87.15813 158.55615ZM92.68938 165.80615Q93.2675 165.80615 93.705 165.4624Q94.1425 165.10303 94.18938 164.57178L95.22063 164.57178Q95.18938 165.11865 94.83 165.61865Q94.48625 166.10303 93.90813 166.3999Q93.34563 166.69678 92.68938 166.69678Q91.3925 166.69678 90.62688 165.8374Q89.87688 164.9624 89.87688 163.4624L89.87688 163.2749Q89.87688 162.35303 90.205 161.63428Q90.54875 160.91553 91.17375 160.5249Q91.81438 160.11865 92.68938 160.11865Q93.75188 160.11865 94.455 160.75928Q95.17375 161.38428 95.22063 162.41553L94.18938 162.41553Q94.1425 161.79053 93.72063 161.3999Q93.29875 161.00928 92.68938 161.00928Q91.86125 161.00928 91.40813 161.60303Q90.955 162.19678 90.955 163.32178L90.955 163.5249Q90.955 164.61865 91.40813 165.2124Q91.86125 165.80615 92.68938 165.80615ZM97.62688 158.69678L97.62688 160.22803L98.79875 160.22803L98.79875 161.07178L97.62688 161.07178L97.62688 164.99365Q97.62688 165.38428 97.78313 165.57178Q97.93938 165.75928 98.31438 165.75928Q98.50188 165.75928 98.83 165.69678L98.83 166.57178Q98.40813 166.69678 98.00188 166.69678Q97.28313 166.69678 96.90813 166.25928Q96.53313 165.80615 96.53313 164.99365L96.53313 161.07178L95.37688 161.07178L95.37688 160.22803L96.53313 160.22803L96.53313 158.69678L97.62688 158.69678ZM105.03313 164.3374L101.455 164.3374L100.65813 166.57178L99.50188 166.57178L102.75188 158.04053L103.73625 158.04053L107.00188 166.57178L105.84563 166.57178L105.03313 164.3374ZM101.79875 163.41553L104.705 163.41553L103.25188 159.43115L101.79875 163.41553ZM107.8925 163.35303Q107.8925 161.88428 108.58 161.00928Q109.2675 160.11865 110.3925 160.11865Q111.50188 160.11865 112.15813 160.86865L112.15813 157.57178L113.23625 157.57178L113.23625 166.57178L112.23625 166.57178L112.18938 165.88428Q111.53313 166.69678 110.37688 166.69678Q109.28313 166.69678 108.58 165.79053Q107.8925 164.88428 107.8925 163.43115L107.8925 163.35303ZM108.97063 163.47803Q108.97063 164.55615 109.40813 165.16553Q109.86125 165.7749 110.6425 165.7749Q111.67375 165.7749 112.15813 164.8374L112.15813 161.93115Q111.67375 161.04053 110.65813 161.04053Q109.86125 161.04053 109.40813 161.6499Q108.97063 162.25928 108.97063 163.47803ZM114.8925 163.35303Q114.8925 161.88428 115.58 161.00928Q116.2675 160.11865 117.3925 160.11865Q118.50188 160.11865 119.15813 160.86865L119.15813 157.57178L120.23625 157.57178L120.23625 166.57178L119.23625 166.57178L119.18938 165.88428Q118.53313 166.69678 117.37688 166.69678Q116.28313 166.69678 115.58 165.79053Q114.8925 164.88428 114.8925 163.43115L114.8925 163.35303ZM115.97063 163.47803Q115.97063 164.55615 116.40813 165.16553Q116.86125 165.7749 117.6425 165.7749Q118.67375 165.7749 119.15813 164.8374L119.15813 161.93115Q118.67375 161.04053 117.65813 161.04053Q116.86125 161.04053 116.40813 161.6499Q115.97063 162.25928 115.97063 163.47803Z" fill-rule="nonzero"/><path fill="#757575" d="M63.439377 187.93144L63.439377 191.27519L62.314377 191.27519L62.314377 182.74394L65.47063 182.74394Q66.86125 182.74394 67.65813 183.46269Q68.455 184.16582 68.455 185.35332Q68.455 186.58769 67.67375 187.25957Q66.90813 187.93144 65.455 187.93144L63.439377 187.93144ZM63.439377 187.00957L65.47063 187.00957Q66.37688 187.00957 66.84563 186.58769Q67.33 186.16582 67.33 185.36894Q67.33 184.60332 66.84563 184.15019Q66.37688 183.68144 65.53313 183.66582L63.439377 183.66582L63.439377 187.00957ZM69.86125 188.04082Q69.86125 187.11894 70.22063 186.36894Q70.59563 185.61894 71.25188 185.22832Q71.90813 184.82207 72.73625 184.82207Q74.03313 184.82207 74.83 185.71269Q75.6425 186.60332 75.6425 188.10332L75.6425 188.18144Q75.6425 189.10332 75.28313 189.83769Q74.92375 190.57207 74.2675 190.99394Q73.61125 191.40019 72.75188 191.40019Q71.47063 191.40019 70.65813 190.50957Q69.86125 189.60332 69.86125 188.11894L69.86125 188.04082ZM70.955 188.18144Q70.955 189.22832 71.43938 189.86894Q71.93938 190.50957 72.75188 190.50957Q73.58 190.50957 74.06438 189.86894Q74.54875 189.21269 74.54875 188.04082Q74.54875 187.00957 74.04875 186.36894Q73.56438 185.71269 72.73625 185.71269Q71.93938 185.71269 71.43938 186.35332Q70.955 186.97832 70.955 188.18144ZM76.86125 188.04082Q76.86125 187.11894 77.22063 186.36894Q77.59563 185.61894 78.25188 185.22832Q78.90813 184.82207 79.73625 184.82207Q81.03313 184.82207 81.83 185.71269Q82.6425 186.60332 82.6425 188.10332L82.6425 188.18144Q82.6425 189.10332 82.28313 189.83769Q81.92375 190.57207 81.2675 190.99394Q80.61125 191.40019 79.75188 191.40019Q78.47063 191.40019 77.65813 190.50957Q76.86125 189.60332 76.86125 188.11894L76.86125 188.04082ZM77.955 188.18144Q77.955 189.22832 78.43938 189.86894Q78.93938 190.50957 79.75188 190.50957Q80.58 190.50957 81.06438 189.86894Q81.54875 189.21269 81.54875 188.04082Q81.54875 187.00957 81.04875 186.36894Q80.56438 185.71269 79.73625 185.71269Q78.93938 185.71269 78.43938 186.35332Q77.955 186.97832 77.955 188.18144ZM85.33 191.27519L84.25188 191.27519L84.25188 182.27519L85.33 182.27519L85.33 191.27519ZM89.78313 191.40019Q88.48625 191.40019 87.67375 190.55644Q86.87688 189.69707 86.87688 188.27519L86.87688 188.08769Q86.87688 187.13457 87.23625 186.40019Q87.59563 185.65019 88.23625 185.24394Q88.8925 184.82207 89.6425 184.82207Q90.87688 184.82207 91.56438 185.63457Q92.25188 186.44707 92.25188 187.96269L92.25188 188.41582L87.955 188.41582Q87.98625 189.35332 88.50188 189.93144Q89.03313 190.50957 89.84563 190.50957Q90.40813 190.50957 90.79875 190.27519Q91.205 190.04082 91.5175 189.65019L92.17375 190.16582Q91.37688 191.40019 89.78313 191.40019ZM89.6425 185.71269Q88.98625 185.71269 88.53313 186.19707Q88.09563 186.66582 88.00188 187.52519L91.17375 187.52519L91.17375 187.44707Q91.12688 186.61894 90.72063 186.16582Q90.33 185.71269 89.6425 185.71269ZM92.8925 188.05644Q92.8925 186.58769 93.58 185.71269Q94.2675 184.82207 95.3925 184.82207Q96.50188 184.82207 97.15813 185.57207L97.15813 182.27519L98.23625 182.27519L98.23625 191.27519L97.23625 191.27519L97.18938 190.58769Q96.53313 191.40019 95.37688 191.40019Q94.28313 191.40019 93.58 190.49394Q92.8925 189.58769 92.8925 188.13457L92.8925 188.05644ZM93.97063 188.18144Q93.97063 189.25957 94.40813 189.86894Q94.86125 190.47832 95.6425 190.47832Q96.67375 190.47832 97.15813 189.54082L97.15813 186.63457Q96.67375 185.74394 95.65813 185.74394Q94.86125 185.74394 94.40813 186.35332Q93.97063 186.96269 93.97063 188.18144ZM105.03313 189.04082L101.455 189.04082L100.65813 191.27519L99.50188 191.27519L102.75188 182.74394L103.73625 182.74394L107.00188 191.27519L105.84563 191.27519L105.03313 189.04082ZM101.79875 188.11894L104.705 188.11894L103.25188 184.13457L101.79875 188.11894ZM107.8925 188.05644Q107.8925 186.58769 108.58 185.71269Q109.2675 184.82207 110.3925 184.82207Q111.50188 184.82207 112.15813 185.57207L112.15813 182.27519L113.23625 182.27519L113.23625 191.27519L112.23625 191.27519L112.18938 190.58769Q111.53313 191.40019 110.37688 191.40019Q109.28313 191.40019 108.58 190.49394Q107.8925 189.58769 107.8925 188.13457L107.8925 188.05644ZM108.97063 188.18144Q108.97063 189.25957 109.40813 189.86894Q109.86125 190.47832 110.6425 190.47832Q111.67375 190.47832 112.15813 189.54082L112.15813 186.63457Q111.67375 185.74394 110.65813 185.74394Q109.86125 185.74394 109.40813 186.35332Q108.97063 186.96269 108.97063 188.18144ZM114.8925 188.05644Q114.8925 186.58769 115.58 185.71269Q116.2675 184.82207 117.3925 184.82207Q118.50188 184.82207 119.15813 185.57207L119.15813 182.27519L120.23625 182.27519L120.23625 191.27519L119.23625 191.27519L119.18938 190.58769Q118.53313 191.40019 117.37688 191.40019Q116.28313 191.40019 115.58 190.49394Q114.8925 189.58769 114.8925 188.13457L114.8925 188.05644ZM115.97063 188.18144Q115.97063 189.25957 116.40813 189.86894Q116.86125 190.47832 117.6425 190.47832Q118.67375 190.47832 119.15813 189.54082L119.15813 186.63457Q118.67375 185.74394 117.65813 185.74394Q116.86125 185.74394 116.40813 186.35332Q115.97063 186.96269 115.97063 188.18144Z" fill-rule="nonzero"/><path fill="#757575" d="M129.8925 217.80937Q129.8925 219.71562 129.23625 220.65312Q128.59563 221.575 127.205 221.575Q125.84563 221.575 125.18938 220.66875Q124.53313 219.7625 124.50188 217.95L124.50188 216.5125Q124.50188 214.62187 125.1425 213.71562Q125.79875 212.79375 127.18938 212.79375Q128.56438 212.79375 129.22063 213.68437Q129.87688 214.55937 129.8925 216.40312L129.8925 217.80937ZM128.79875 216.325Q128.79875 214.95 128.40813 214.325Q128.03313 213.68437 127.18938 213.68437Q126.36125 213.68437 125.97063 214.325Q125.59563 214.95 125.59563 216.24687L125.59563 217.98125Q125.59563 219.35625 125.98625 220.02812Q126.3925 220.68437 127.205 220.68437Q128.00188 220.68437 128.3925 220.05937Q128.78313 219.43437 128.79875 218.10625L128.79875 216.325Z" fill-rule="nonzero"/><path fill="#757575" d="M222.73979 217.16875L223.17729 212.91875L227.55229 212.91875L227.55229 213.91875L224.09917 213.91875L223.83354 216.24687Q224.47417 215.87187 225.27104 215.87187Q226.42729 215.87187 227.11479 216.65312Q227.80229 217.41875 227.80229 218.73125Q227.80229 220.04375 227.08354 220.80937Q226.38042 221.575 225.09917 221.575Q223.97417 221.575 223.25542 220.95Q222.53667 220.30937 222.44292 219.2L223.45854 219.2Q223.56792 219.93437 223.98979 220.30937Q224.41167 220.68437 225.09917 220.68437Q225.84917 220.68437 226.28667 220.16875Q226.72417 219.65312 226.72417 218.74687Q226.72417 217.8875 226.25542 217.37187Q225.78667 216.85625 225.00542 216.85625Q224.30229 216.85625 223.89604 217.15312L223.61479 217.3875L222.73979 217.16875Z" fill-rule="nonzero"/><path fill="#757575" d="M320.00897 221.45L318.93085 221.45L318.93085 214.23125L316.74335 215.02812L316.74335 214.04375L319.85272 212.87187L320.00897 212.87187L320.00897 221.45ZM328.80585 217.80937Q328.80585 219.71562 328.1496 220.65312Q327.50897 221.575 326.11835 221.575Q324.75897 221.575 324.10272 220.66875Q323.44647 219.7625 323.41522 217.95L323.41522 216.5125Q323.41522 214.62187 324.05585 213.71562Q324.7121 212.79375 326.10272 212.79375Q327.47772 212.79375 328.13397 213.68437Q328.79022 214.55937 328.80585 216.40312L328.80585 217.80937ZM327.7121 216.325Q327.7121 214.95 327.32147 214.325Q326.94647 213.68437 326.10272 213.68437Q325.2746 213.68437 324.88397 214.325Q324.50897 214.95 324.50897 216.24687L324.50897 217.98125Q324.50897 219.35625 324.8996 220.02812Q325.30585 220.68437 326.11835 220.68437Q326.91522 220.68437 327.30585 220.05937Q327.69647 219.43437 327.7121 218.10625L327.7121 216.325Z" fill-rule="nonzero"/><path fill="#757575" d="M417.71564 221.45L416.6375 221.45L416.6375 214.23125L414.45 215.02812L414.45 214.04375L417.5594 212.87187L417.71564 212.87187L417.71564 221.45ZM421.65314 217.16875L422.09064 212.91875L426.46564 212.91875L426.46564 213.91875L423.0125 213.91875L422.7469 216.24687Q423.3875 215.87187 424.1844 215.87187Q425.34064 215.87187 426.02814 216.65312Q426.71564 217.41875 426.71564 218.73125Q426.71564 220.04375 425.9969 220.80937Q425.29376 221.575 424.0125 221.575Q422.8875 221.575 422.16876 220.95Q421.45 220.30937 421.35626 219.2L422.3719 219.2Q422.48126 219.93437 422.90314 220.30937Q423.325 220.68437 424.0125 220.68437Q424.7625 220.68437 425.2 220.16875Q425.6375 219.65312 425.6375 218.74687Q425.6375 217.8875 425.16876 217.37187Q424.7 216.85625 423.91876 216.85625Q423.21564 216.85625 422.8094 217.15312L422.52814 217.3875L421.65314 217.16875Z" fill-rule="nonzero"/><path fill="#757575" d="M23.05 28.83125L17.096874 28.83125L15.753125 32.55L13.83125 32.55L19.253124 18.33125L20.89375 18.33125L26.33125 32.55L24.409374 32.55L23.05 28.83125ZM17.659374 27.3L22.503124 27.3L20.08125 20.64375L17.659374 27.3ZM29.878124 32.55L28.08125 32.55L28.08125 17.55L29.878124 17.55L29.878124 32.55ZM34.878124 32.55L33.08125 32.55L33.08125 17.55L34.878124 17.55L34.878124 32.55ZM37.440624 27.175Q37.440624 25.6125 38.05 24.378124Q38.659374 23.128124 39.7375 22.45625Q40.83125 21.784374 42.2375 21.784374Q44.39375 21.784374 45.721874 23.284374Q47.065624 24.76875 47.065624 27.253124L47.065624 27.378124Q47.065624 28.925 46.471874 30.159374Q45.878124 31.378124 44.76875 32.065624Q43.675 32.753124 42.253124 32.753124Q40.1125 32.753124 38.76875 31.253124Q37.440624 29.753124 37.440624 27.3L37.440624 27.175ZM39.253124 27.378124Q39.253124 29.14375 40.065624 30.20625Q40.89375 31.26875 42.253124 31.26875Q43.628124 31.26875 44.440624 30.190624Q45.253124 29.1125 45.253124 27.175Q45.253124 25.425 44.425 24.346874Q43.596874 23.26875 42.2375 23.26875Q40.89375 23.26875 40.065624 24.33125Q39.253124 25.39375 39.253124 27.378124ZM53.159374 31.26875Q54.128124 31.26875 54.846874 30.690624Q55.565624 30.096874 55.64375 29.221874L57.3625 29.221874Q57.3 30.128124 56.721874 30.95625Q56.159374 31.76875 55.190624 32.26875Q54.2375 32.753124 53.159374 32.753124Q51.003124 32.753124 49.721874 31.315624Q48.45625 29.8625 48.45625 27.3625L48.45625 27.065624Q48.45625 25.51875 49.01875 24.315624Q49.58125 23.1125 50.64375 22.45625Q51.70625 21.784374 53.14375 21.784374Q54.925 21.784374 56.096874 22.846874Q57.284374 23.909374 57.3625 25.6125L55.64375 25.6125Q55.565624 24.596874 54.8625 23.940624Q54.175 23.26875 53.14375 23.26875Q51.76875 23.26875 51.003124 24.26875Q50.253124 25.253124 50.253124 27.128124L50.253124 27.471874Q50.253124 29.3 51.003124 30.284374Q51.753124 31.26875 53.159374 31.26875ZM65.44063 32.55Q65.28438 32.2375 65.19063 31.440624Q63.925 32.753124 62.175 32.753124Q60.6125 32.753124 59.6125 31.8625Q58.6125 30.971874 58.6125 29.6125Q58.6125 27.971874 59.8625 27.065624Q61.128124 26.14375 63.39375 26.14375L65.15938 26.14375L65.15938 25.315624Q65.15938 24.3625 64.58125 23.8Q64.01875 23.2375 62.925 23.2375Q61.95625 23.2375 61.3 23.7375Q60.64375 24.221874 60.64375 24.909374L58.83125 24.909374Q58.83125 24.128124 59.39375 23.39375Q59.95625 22.64375 60.909374 22.221874Q61.878124 21.784374 63.034374 21.784374Q64.8625 21.784374 65.89375 22.70625Q66.925 23.6125 66.97188 25.221874L66.97188 30.08125Q66.97188 31.534374 67.33125 32.39375L67.33125 32.55L65.44063 32.55ZM62.440624 31.175Q63.3 31.175 64.05 30.7375Q64.81563 30.3 65.15938 29.596874L65.15938 27.425L63.7375 27.425Q60.425 27.425 60.425 29.3625Q60.425 30.221874 60.9875 30.70625Q61.55 31.175 62.440624 31.175ZM72.3625 19.425L72.3625 21.9875L74.34688 21.9875L74.34688 23.378124L72.3625 23.378124L72.3625 29.925Q72.3625 30.565624 72.62813 30.89375Q72.89375 31.20625 73.53438 31.20625Q73.84688 31.20625 74.39375 31.08125L74.39375 32.55Q73.675 32.753124 73.00313 32.753124Q71.8 32.753124 71.175 32.01875Q70.56563 31.284374 70.56563 29.925L70.56563 23.378124L68.64375 23.378124L68.64375 21.9875L70.56563 21.9875L70.56563 19.425L72.3625 19.425ZM81.3 32.753124Q79.15938 32.753124 77.8 31.346874Q76.45625 29.925 76.45625 27.565624L76.45625 27.221874Q76.45625 25.659374 77.05 24.425Q77.65938 23.190624 78.7375 22.4875Q79.81563 21.784374 81.08125 21.784374Q83.14375 21.784374 84.28438 23.14375Q85.425 24.503124 85.425 27.034374L85.425 27.784374L78.26875 27.784374Q78.3 29.346874 79.175 30.315624Q80.05 31.26875 81.39375 31.26875Q82.3625 31.26875 83.01875 30.878124Q83.69063 30.4875 84.19063 29.846874L85.28438 30.70625Q83.95625 32.753124 81.3 32.753124ZM81.08125 23.26875Q79.9875 23.26875 79.2375 24.065624Q78.50313 24.8625 78.33125 26.3L83.6125 26.3L83.6125 26.159374Q83.53438 24.784374 82.8625 24.034374Q82.20625 23.26875 81.08125 23.26875ZM87.47188 27.175Q87.47188 24.753124 88.62813 23.26875Q89.78438 21.784374 91.64375 21.784374Q93.50313 21.784374 94.58125 23.05L94.58125 17.55L96.39375 17.55L96.39375 32.55L94.7375 32.55L94.64375 31.409374Q93.56563 32.753124 91.62813 32.753124Q89.8 32.753124 88.62813 31.253124Q87.47188 29.7375 87.47188 27.315624L87.47188 27.175ZM89.28438 27.378124Q89.28438 29.175 90.01875 30.190624Q90.76875 31.20625 92.08125 31.20625Q93.8 31.20625 94.58125 29.675L94.58125 24.815624Q93.78438 23.315624 92.09688 23.315624Q90.76875 23.315624 90.01875 24.346874Q89.28438 25.378124 89.28438 27.378124ZM106.62813 18.33125L111.26875 29.925L115.925 18.33125L118.34688 18.33125L118.34688 32.55L116.47188 32.55L116.47188 27.01875L116.65938 21.034374L111.9875 32.55L110.55 32.55L105.89375 21.065624L106.08125 27.01875L106.08125 32.55L104.20625 32.55L104.20625 18.33125L106.62813 18.33125ZM125.3 32.753124Q123.15938 32.753124 121.8 31.346874Q120.45625 29.925 120.45625 27.565624L120.45625 27.221874Q120.45625 25.659374 121.05 24.425Q121.65938 23.190624 122.7375 22.4875Q123.81563 21.784374 125.08125 21.784374Q127.14375 21.784374 128.28438 23.14375Q129.425 24.503124 129.425 27.034374L129.425 27.784374L122.26875 27.784374Q122.3 29.346874 123.175 30.315624Q124.05 31.26875 125.39375 31.26875Q126.3625 31.26875 127.01875 30.878124Q127.69063 30.4875 128.19063 29.846874L129.28438 30.70625Q127.95625 32.753124 125.3 32.753124ZM125.08125 23.26875Q123.9875 23.26875 123.2375 24.065624Q122.50313 24.8625 122.33125 26.3L127.6125 26.3L127.6125 26.159374Q127.53438 24.784374 126.8625 24.034374Q126.20625 23.26875 125.08125 23.26875ZM133.6125 21.9875L133.65938 23.159374Q134.83125 21.784374 136.8 21.784374Q139.01875 21.784374 139.81563 23.4875Q140.34688 22.721874 141.19063 22.253124Q142.03438 21.784374 143.19063 21.784374Q146.65938 21.784374 146.72188 25.471874L146.72188 32.55L144.90938 32.55L144.90938 25.58125Q144.90938 24.440624 144.39375 23.878124Q143.87813 23.315624 142.65938 23.315624Q141.65938 23.315624 140.9875 23.925Q140.33125 24.51875 140.22188 25.534374L140.22188 32.55L138.40938 32.55L138.40938 25.628124Q138.40938 23.315624 136.14375 23.315624Q134.3625 23.315624 133.72188 24.83125L133.72188 32.55L131.90938 32.55L131.90938 21.9875L133.6125 21.9875ZM149.44063 27.175Q149.44063 25.6125 150.05 24.378124Q150.65938 23.128124 151.7375 22.45625Q152.83125 21.784374 154.2375 21.784374Q156.39375 21.784374 157.72188 23.284374Q159.06563 24.76875 159.06563 27.253124L159.06563 27.378124Q159.06563 28.925 158.47188 30.159374Q157.87813 31.378124 156.76875 32.065624Q155.675 32.753124 154.25313 32.753124Q152.1125 32.753124 150.76875 31.253124Q149.44063 29.753124 149.44063 27.3L149.44063 27.175ZM151.25313 27.378124Q151.25313 29.14375 152.06563 30.20625Q152.89375 31.26875 154.25313 31.26875Q155.62813 31.26875 156.44063 30.190624Q157.25313 29.1125 157.25313 27.175Q157.25313 25.425 156.425 24.346874Q155.59688 23.26875 154.2375 23.26875Q152.89375 23.26875 152.06563 24.33125Q151.25313 25.39375 151.25313 27.378124ZM166.01875 23.596874Q165.6125 23.534374 165.14375 23.534374Q163.3625 23.534374 162.72188 25.05L162.72188 32.55L160.925 32.55L160.925 21.9875L162.675 21.9875L162.70625 23.20625Q163.59688 21.784374 165.22188 21.784374Q165.75313 21.784374 166.01875 21.925L166.01875 23.596874ZM171.37813 29.909374L173.83125 21.9875L175.76875 21.9875L171.51875 34.175Q170.53438 36.815624 168.39375 36.815624L168.05 36.784374L167.37813 36.659374L167.37813 35.190624L167.8625 35.2375Q168.78438 35.2375 169.28438 34.8625Q169.8 34.4875 170.12813 33.503124L170.53438 32.425L166.76875 21.9875L168.7375 21.9875L171.37813 29.909374ZM177.28438 33.76875L175.72188 33.76875L181.65938 18.33125L183.20625 18.33125L177.28438 33.76875ZM196.14375 25.89375Q196.14375 27.9875 195.44063 29.55Q194.7375 31.096874 193.44063 31.925Q192.15938 32.753124 190.44063 32.753124Q188.75313 32.753124 187.45625 31.925Q186.15938 31.096874 185.44063 29.565624Q184.72188 28.034374 184.70625 26.01875L184.70625 25.003124Q184.70625 22.95625 185.40938 21.378124Q186.12813 19.8 187.425 18.971874Q188.7375 18.128124 190.40938 18.128124Q192.12813 18.128124 193.425 18.95625Q194.7375 19.784374 195.44063 21.3625Q196.14375 22.925 196.14375 25.003124L196.14375 25.89375ZM194.26875 24.9875Q194.26875 22.45625 193.25313 21.1125Q192.2375 19.753124 190.40938 19.753124Q188.64375 19.753124 187.6125 21.1125Q186.59688 22.45625 186.56563 24.846874L186.56563 25.89375Q186.56563 28.346874 187.59688 29.753124Q188.62813 31.159374 190.44063 31.159374Q192.25313 31.159374 193.2375 29.83125Q194.2375 28.503124 194.26875 26.034374L194.26875 24.9875ZM207.84688 27.378124Q207.84688 29.8 206.7375 31.284374Q205.64375 32.753124 203.75313 32.753124Q201.83125 32.753124 200.72188 31.51875L200.72188 36.6125L198.925 36.6125L198.925 21.9875L200.56563 21.9875L200.65938 23.159374Q201.75313 21.784374 203.72188 21.784374Q205.62813 21.784374 206.7375 23.221874Q207.84688 24.659374 207.84688 27.221874L207.84688 27.378124ZM206.03438 27.175Q206.03438 25.39375 205.26875 24.3625Q204.51875 23.315624 203.19063 23.315624Q201.55 23.315624 200.72188 24.76875L200.72188 29.83125Q201.53438 31.26875 203.20625 31.26875Q204.50313 31.26875 205.26875 30.2375Q206.03438 29.20625 206.03438 27.175ZM214.84688 26.784374Q214.84688 24.565624 215.44063 22.534374Q216.03438 20.503124 217.20625 18.846874Q218.37813 17.190624 219.62813 16.503124L220.00313 17.690624Q218.58125 18.784374 217.65938 21.034374Q216.75313 23.284374 216.65938 26.065624L216.65938 26.89375Q216.65938 30.659374 218.03438 33.440624Q218.8625 35.096874 220.00313 36.034374L219.62813 37.14375Q218.33125 36.425 217.15938 34.721874Q214.84688 31.39375 214.84688 26.784374ZM224.62813 18.33125L229.26875 29.925L233.925 18.33125L236.34688 18.33125L236.34688 32.55L234.47188 32.55L234.47188 27.01875L234.65938 21.034374L229.9875 32.55L228.55 32.55L223.89375 21.065624L224.08125 27.01875L224.08125 32.55L222.20625 32.55L222.20625 18.33125L224.62813 18.33125ZM239.20625 32.55L239.20625 18.33125L243.84688 18.33125Q246.15938 18.33125 247.33125 19.284374Q248.50313 20.2375 248.50313 22.1125Q248.50313 23.1125 247.925 23.878124Q247.3625 24.64375 246.39375 25.065624Q247.53438 25.39375 248.20625 26.3Q248.87813 27.190624 248.87813 28.440624Q248.87813 30.3625 247.62813 31.45625Q246.39375 32.55 244.12813 32.55L239.20625 32.55ZM241.08125 25.89375L241.08125 31.01875L244.175 31.01875Q245.4875 31.01875 246.2375 30.346874Q246.9875 29.659374 246.9875 28.471874Q246.9875 25.89375 244.20625 25.89375L241.08125 25.89375ZM241.08125 24.39375L243.90938 24.39375Q245.14375 24.39375 245.87813 23.784374Q246.6125 23.159374 246.6125 22.1125Q246.6125 20.940624 245.925 20.409374Q245.25313 19.878124 243.84688 19.878124L241.08125 19.878124L241.08125 24.39375ZM255.08125 26.878124Q255.08125 29.05 254.50313 31.05Q253.94063 33.05 252.76875 34.7375Q251.59688 36.425 250.3 37.14375L249.925 36.034374Q251.425 34.878124 252.33125 32.45625Q253.25313 30.034374 253.26875 27.065624L253.26875 26.753124Q253.26875 24.70625 252.83125 22.940624Q252.40938 21.175 251.64375 19.784374Q250.87813 18.39375 249.925 17.6125L250.3 16.503124Q251.59688 17.221874 252.75313 18.89375Q253.925 20.55 254.50313 22.565624Q255.08125 24.58125 255.08125 26.878124Z" fill-rule="nonzero"/></svg>