<svg version="1.1" viewBox="0.0 0.0 539.0 333.0" fill="none" stroke="none" stroke-linecap="square" stroke-miterlimit="10" width="539" height="333" xmlns:xlink="http://www.w3.org/1999/xlink" xmlns="http://www.w3.org/2000/svg"><path fill="#ffffff" d="M0 0L539.0 0L539.0 333.0L0 333.0L0 0Z" fill-rule="nonzero"/><path fill="#ffffff" d="M0 0L539.0 0L539.0 333.0L0 333.0L0 0Z" fill-rule="nonzero"/><path stroke="#333333" stroke-width="1.0" stroke-linecap="butt" d="M43.5 295.5L522.5 295.5" fill-rule="nonzero"/><path stroke="#cccccc" stroke-width="1.0" stroke-linecap="butt" d="M43.5 225.5L522.5 225.5" fill-rule="nonzero"/><path stroke="#cccccc" stroke-width="1.0" stroke-linecap="butt" d="M43.5 155.5L522.5 155.5" fill-rule="nonzero"/><path stroke="#cccccc" stroke-width="1.0" stroke-linecap="butt" d="M43.5 85.5L522.5 85.5" fill-rule="nonzero"/><clipPath id="id_0"><path d="M43.65 85.35L522.35 85.35L522.35 295.35L43.65 295.35L43.65 85.35Z" clip-rule="nonzero"/></clipPath><path stroke="#000000" stroke-width="0.0" stroke-linecap="butt" stroke-opacity="0.0" clip-path="url(#id_0)" d="M180.0 295.0L115.0 295.0L115.0 220.0C115.0 218.89543 115.89543 218.0 117.0 218.0L178.0 218.0C179.10457 218.0 180.0 218.89543 180.0 220.0Z" fill-rule="nonzero"/><path fill="#4285f4" clip-path="url(#id_0)" d="M180.0 295.0L115.0 295.0L115.0 220.0C115.0 218.89543 115.89543 218.0 117.0 218.0L178.0 218.0C179.10457 218.0 180.0 218.89543 180.0 220.0Z" fill-rule="nonzero"/><path stroke="#000000" stroke-width="0.0" stroke-linecap="butt" stroke-opacity="0.0" clip-path="url(#id_0)" d="M384.0 295.0L319.0 295.0L319.0 272.0C319.0 270.89542 319.89542 270.0 321.0 270.0L382.0 270.0C383.10458 270.0 384.0 270.89542 384.0 272.0Z" fill-rule="nonzero"/><path fill="#4285f4" clip-path="url(#id_0)" d="M384.0 295.0L319.0 295.0L319.0 272.0C319.0 270.89542 319.89542 270.0 321.0 270.0L382.0 270.0C383.10458 270.0 384.0 270.89542 384.0 272.0Z" fill-rule="nonzero"/><path stroke="#000000" stroke-width="0.0" stroke-linecap="butt" stroke-opacity="0.0" clip-path="url(#id_0)" d="M246.0 295.0L181.0 295.0L181.0 114.0C181.0 112.89543 181.89543 112.0 183.0 112.0L244.0 112.0C245.10457 112.0 246.0 112.89543 246.0 114.0Z" fill-rule="nonzero"/><path fill="#db4437" clip-path="url(#id_0)" d="M246.0 295.0L181.0 295.0L181.0 114.0C181.0 112.89543 181.89543 112.0 183.0 112.0L244.0 112.0C245.10457 112.0 246.0 112.89543 246.0 114.0Z" fill-rule="nonzero"/><path stroke="#000000" stroke-width="0.0" stroke-linecap="butt" stroke-opacity="0.0" clip-path="url(#id_0)" d="M450.0 295.0L385.0 295.0L385.0 295.0C385.0 295.0 385.0 295.0 385.0 295.0L450.0 295.0C450.0 295.0 450.0 295.0 450.0 295.0Z" fill-rule="nonzero"/><path fill="#db4437" clip-path="url(#id_0)" d="M450.0 295.0L385.0 295.0L385.0 295.0C385.0 295.0 385.0 295.0 385.0 295.0L450.0 295.0C450.0 295.0 450.0 295.0 450.0 295.0Z" fill-rule="nonzero"/><path stroke="#4285f4" stroke-width="3.0" stroke-linejoin="round" stroke-linecap="round" d="M129.76562 234.7076L128.6875 234.7076L128.6875 227.48885L126.5 228.28572L126.5 227.30135L129.60938 226.12947L129.76562 226.12947L129.76562 234.7076ZM136.76562 234.7076L135.6875 234.7076L135.6875 227.48885L133.5 228.28572L133.5 227.30135L136.60938 226.12947L136.76562 226.12947L136.76562 234.7076ZM145.5625 231.06697Q145.5625 232.97322 144.90625 233.91072Q144.26562 234.8326 142.875 234.8326Q141.51562 234.8326 140.85938 233.92635Q140.20312 233.0201 140.17188 231.2076L140.17188 229.7701Q140.17188 227.87947 140.8125 226.97322Q141.46875 226.05135 142.85938 226.05135Q144.23438 226.05135 144.89062 226.94197Q145.54688 227.81697 145.5625 229.66072L145.5625 231.06697ZM144.46875 229.5826Q144.46875 228.2076 144.07812 227.5826Q143.70312 226.94197 142.85938 226.94197Q142.03125 226.94197 141.64062 227.5826Q141.26562 228.2076 141.26562 229.50447L141.26562 231.23885Q141.26562 232.61385 141.65625 233.28572Q142.0625 233.94197 142.875 233.94197Q143.67188 233.94197 144.0625 233.31697Q144.45312 232.69197 144.46875 231.36385L144.46875 229.5826ZM147.34375 234.1451Q147.34375 233.86385 147.5 233.67635Q147.67188 233.48885 148.0 233.48885Q148.34375 233.48885 148.51562 233.67635Q148.6875 233.86385 148.6875 234.1451Q148.6875 234.41072 148.51562 234.59822Q148.34375 234.7701 148.0 234.7701Q147.67188 234.7701 147.5 234.59822Q147.34375 234.41072 147.34375 234.1451ZM154.46875 226.17635L154.46875 227.0826L154.26562 227.0826Q153.0 227.11385 152.25 227.84822Q151.5 228.56697 151.375 229.87947Q152.0625 229.11385 153.21875 229.11385Q154.32812 229.11385 155.0 229.8951Q155.67188 230.67635 155.67188 231.92635Q155.67188 233.23885 154.95312 234.03572Q154.23438 234.8326 153.01562 234.8326Q151.79688 234.8326 151.03125 233.8951Q150.28125 232.94197 150.28125 231.4576L150.28125 231.05135Q150.28125 228.69197 151.28125 227.44197Q152.28125 226.19197 154.26562 226.17635L154.46875 226.17635ZM153.04688 230.0201Q152.48438 230.0201 152.01562 230.34822Q151.54688 230.67635 151.35938 231.19197L151.35938 231.5826Q151.35938 232.6451 151.82812 233.28572Q152.3125 233.92635 153.01562 233.92635Q153.75 233.92635 154.17188 233.3951Q154.59375 232.84822 154.59375 231.97322Q154.59375 231.09822 154.17188 230.56697Q153.75 230.0201 153.04688 230.0201ZM158.78125 229.91072L159.59375 229.91072Q160.375 229.8951 160.8125 229.50447Q161.25 229.11385 161.25 228.44197Q161.25 226.94197 159.75 226.94197Q159.04688 226.94197 158.625 227.34822Q158.21875 227.75447 158.21875 228.41072L157.125 228.41072Q157.125 227.3951 157.85938 226.72322Q158.60938 226.05135 159.75 226.05135Q160.95312 226.05135 161.64062 226.69197Q162.32812 227.3326 162.32812 228.47322Q162.32812 229.03572 161.96875 229.55135Q161.60938 230.06697 160.98438 230.3326Q161.6875 230.55135 162.0625 231.06697Q162.45312 231.5826 162.45312 232.3326Q162.45312 233.47322 161.70312 234.16072Q160.95312 234.8326 159.75 234.8326Q158.5625 234.8326 157.79688 234.17635Q157.04688 233.5201 157.04688 232.4576L158.14062 232.4576Q158.14062 233.12947 158.57812 233.53572Q159.01562 233.94197 159.76562 233.94197Q160.54688 233.94197 160.95312 233.53572Q161.375 233.11385 161.375 232.34822Q161.375 231.61385 160.92188 231.22322Q160.46875 230.81697 159.59375 230.80135L158.78125 230.80135L158.78125 229.91072ZM169.79688 234.7076L164.20312 234.7076L164.20312 233.92635L167.15625 230.6451Q167.8125 229.8951 168.0625 229.44197Q168.3125 228.97322 168.3125 228.47322Q168.3125 227.80135 167.90625 227.37947Q167.51562 226.94197 166.82812 226.94197Q166.03125 226.94197 165.57812 227.41072Q165.125 227.86385 165.125 228.69197L164.04688 228.69197Q164.04688 227.50447 164.79688 226.78572Q165.5625 226.05135 166.82812 226.05135Q168.03125 226.05135 168.71875 226.67635Q169.40625 227.30135 169.40625 228.34822Q169.40625 229.59822 167.79688 231.34822L165.51562 233.81697L169.79688 233.81697L169.79688 234.7076Z" fill-rule="nonzero"/><path fill="#ffffff" d="M129.76562 234.7076L128.6875 234.7076L128.6875 227.48885L126.5 228.28572L126.5 227.30135L129.60938 226.12947L129.76562 226.12947L129.76562 234.7076ZM136.76562 234.7076L135.6875 234.7076L135.6875 227.48885L133.5 228.28572L133.5 227.30135L136.60938 226.12947L136.76562 226.12947L136.76562 234.7076ZM145.5625 231.06697Q145.5625 232.97322 144.90625 233.91072Q144.26562 234.8326 142.875 234.8326Q141.51562 234.8326 140.85938 233.92635Q140.20312 233.0201 140.17188 231.2076L140.17188 229.7701Q140.17188 227.87947 140.8125 226.97322Q141.46875 226.05135 142.85938 226.05135Q144.23438 226.05135 144.89062 226.94197Q145.54688 227.81697 145.5625 229.66072L145.5625 231.06697ZM144.46875 229.5826Q144.46875 228.2076 144.07812 227.5826Q143.70312 226.94197 142.85938 226.94197Q142.03125 226.94197 141.64062 227.5826Q141.26562 228.2076 141.26562 229.50447L141.26562 231.23885Q141.26562 232.61385 141.65625 233.28572Q142.0625 233.94197 142.875 233.94197Q143.67188 233.94197 144.0625 233.31697Q144.45312 232.69197 144.46875 231.36385L144.46875 229.5826ZM147.34375 234.1451Q147.34375 233.86385 147.5 233.67635Q147.67188 233.48885 148.0 233.48885Q148.34375 233.48885 148.51562 233.67635Q148.6875 233.86385 148.6875 234.1451Q148.6875 234.41072 148.51562 234.59822Q148.34375 234.7701 148.0 234.7701Q147.67188 234.7701 147.5 234.59822Q147.34375 234.41072 147.34375 234.1451ZM154.46875 226.17635L154.46875 227.0826L154.26562 227.0826Q153.0 227.11385 152.25 227.84822Q151.5 228.56697 151.375 229.87947Q152.0625 229.11385 153.21875 229.11385Q154.32812 229.11385 155.0 229.8951Q155.67188 230.67635 155.67188 231.92635Q155.67188 233.23885 154.95312 234.03572Q154.23438 234.8326 153.01562 234.8326Q151.79688 234.8326 151.03125 233.8951Q150.28125 232.94197 150.28125 231.4576L150.28125 231.05135Q150.28125 228.69197 151.28125 227.44197Q152.28125 226.19197 154.26562 226.17635L154.46875 226.17635ZM153.04688 230.0201Q152.48438 230.0201 152.01562 230.34822Q151.54688 230.67635 151.35938 231.19197L151.35938 231.5826Q151.35938 232.6451 151.82812 233.28572Q152.3125 233.92635 153.01562 233.92635Q153.75 233.92635 154.17188 233.3951Q154.59375 232.84822 154.59375 231.97322Q154.59375 231.09822 154.17188 230.56697Q153.75 230.0201 153.04688 230.0201ZM158.78125 229.91072L159.59375 229.91072Q160.375 229.8951 160.8125 229.50447Q161.25 229.11385 161.25 228.44197Q161.25 226.94197 159.75 226.94197Q159.04688 226.94197 158.625 227.34822Q158.21875 227.75447 158.21875 228.41072L157.125 228.41072Q157.125 227.3951 157.85938 226.72322Q158.60938 226.05135 159.75 226.05135Q160.95312 226.05135 161.64062 226.69197Q162.32812 227.3326 162.32812 228.47322Q162.32812 229.03572 161.96875 229.55135Q161.60938 230.06697 160.98438 230.3326Q161.6875 230.55135 162.0625 231.06697Q162.45312 231.5826 162.45312 232.3326Q162.45312 233.47322 161.70312 234.16072Q160.95312 234.8326 159.75 234.8326Q158.5625 234.8326 157.79688 234.17635Q157.04688 233.5201 157.04688 232.4576L158.14062 232.4576Q158.14062 233.12947 158.57812 233.53572Q159.01562 233.94197 159.76562 233.94197Q160.54688 233.94197 160.95312 233.53572Q161.375 233.11385 161.375 232.34822Q161.375 231.61385 160.92188 231.22322Q160.46875 230.81697 159.59375 230.80135L158.78125 230.80135L158.78125 229.91072ZM169.79688 234.7076L164.20312 234.7076L164.20312 233.92635L167.15625 230.6451Q167.8125 229.8951 168.0625 229.44197Q168.3125 228.97322 168.3125 228.47322Q168.3125 227.80135 167.90625 227.37947Q167.51562 226.94197 166.82812 226.94197Q166.03125 226.94197 165.57812 227.41072Q165.125 227.86385 165.125 228.69197L164.04688 228.69197Q164.04688 227.50447 164.79688 226.78572Q165.5625 226.05135 166.82812 226.05135Q168.03125 226.05135 168.71875 226.67635Q169.40625 227.30135 169.40625 228.34822Q169.40625 229.59822 167.79688 231.34822L165.51562 233.81697L169.79688 233.81697L169.79688 234.7076Z" fill-rule="nonzero"/><path stroke="#4285f4" stroke-width="3.0" stroke-linejoin="round" stroke-linecap="round" d="M335.28125 281.58472L336.09375 281.58472Q336.875 281.5691 337.3125 281.17847Q337.75 280.78784 337.75 280.11597Q337.75 278.61597 336.25 278.61597Q335.54688 278.61597 335.125 279.02222Q334.71875 279.42847 334.71875 280.08472L333.625 280.08472Q333.625 279.0691 334.35938 278.39722Q335.10938 277.72534 336.25 277.72534Q337.45312 277.72534 338.14062 278.36597Q338.82812 279.0066 338.82812 280.14722Q338.82812 280.70972 338.46875 281.22534Q338.10938 281.74097 337.48438 282.0066Q338.1875 282.22534 338.5625 282.74097Q338.95312 283.2566 338.95312 284.0066Q338.95312 285.14722 338.20312 285.83472Q337.45312 286.5066 336.25 286.5066Q335.0625 286.5066 334.29688 285.85034Q333.54688 285.1941 333.54688 284.1316L334.64062 284.1316Q334.64062 284.80347 335.07812 285.20972Q335.51562 285.61597 336.26562 285.61597Q337.04688 285.61597 337.45312 285.20972Q337.875 284.78784 337.875 284.02222Q337.875 283.28784 337.42188 282.89722Q336.96875 282.49097 336.09375 282.47534L335.28125 282.47534L335.28125 281.58472ZM344.96875 277.85034L344.96875 278.7566L344.76562 278.7566Q343.5 278.78784 342.75 279.52222Q342.0 280.24097 341.875 281.55347Q342.5625 280.78784 343.71875 280.78784Q344.82812 280.78784 345.5 281.5691Q346.17188 282.35034 346.17188 283.60034Q346.17188 284.91284 345.45312 285.70972Q344.73438 286.5066 343.51562 286.5066Q342.29688 286.5066 341.53125 285.5691Q340.78125 284.61597 340.78125 283.1316L340.78125 282.72534Q340.78125 280.36597 341.78125 279.11597Q342.78125 277.86597 344.76562 277.85034L344.96875 277.85034ZM343.54688 281.6941Q342.98438 281.6941 342.51562 282.02222Q342.04688 282.35034 341.85938 282.86597L341.85938 283.2566Q341.85938 284.3191 342.32812 284.95972Q342.8125 285.60034 343.51562 285.60034Q344.25 285.60034 344.67188 285.0691Q345.09375 284.52222 345.09375 283.64722Q345.09375 282.77222 344.67188 282.24097Q344.25 281.6941 343.54688 281.6941ZM347.84375 285.8191Q347.84375 285.53784 348.0 285.35034Q348.17188 285.16284 348.5 285.16284Q348.84375 285.16284 349.01562 285.35034Q349.1875 285.53784 349.1875 285.8191Q349.1875 286.08472 349.01562 286.27222Q348.84375 286.4441 348.5 286.4441Q348.17188 286.4441 348.0 286.27222Q347.84375 286.08472 347.84375 285.8191ZM355.89062 280.0691Q355.89062 280.70972 355.54688 281.20972Q355.20312 281.70972 354.64062 281.99097Q355.29688 282.27222 355.6875 282.83472Q356.07812 283.3816 356.07812 284.08472Q356.07812 285.17847 355.32812 285.85034Q354.59375 286.5066 353.375 286.5066Q352.14062 286.5066 351.39062 285.85034Q350.65625 285.17847 350.65625 284.08472Q350.65625 283.3816 351.03125 282.83472Q351.40625 282.27222 352.07812 281.99097Q351.51562 281.70972 351.1875 281.20972Q350.85938 280.70972 350.85938 280.0691Q350.85938 278.99097 351.54688 278.36597Q352.23438 277.72534 353.375 277.72534Q354.5 277.72534 355.1875 278.36597Q355.89062 278.99097 355.89062 280.0691ZM355.0 284.05347Q355.0 283.33472 354.54688 282.89722Q354.09375 282.4441 353.35938 282.4441Q352.625 282.4441 352.17188 282.89722Q351.73438 283.33472 351.73438 284.0691Q351.73438 284.78784 352.17188 285.20972Q352.60938 285.61597 353.375 285.61597Q354.125 285.61597 354.5625 285.1941Q355.0 284.77222 355.0 284.05347ZM353.375 278.61597Q352.73438 278.61597 352.32812 279.02222Q351.9375 279.41284 351.9375 280.10034Q351.9375 280.74097 352.32812 281.14722Q352.71875 281.55347 353.35938 281.55347Q354.01562 281.55347 354.40625 281.14722Q354.79688 280.74097 354.79688 280.10034Q354.79688 279.4441 354.39062 279.03784Q353.98438 278.61597 353.375 278.61597ZM361.26562 286.3816L360.1875 286.3816L360.1875 279.16284L358.0 279.95972L358.0 278.97534L361.10938 277.80347L361.26562 277.80347L361.26562 286.3816ZM370.29688 286.3816L364.70312 286.3816L364.70312 285.60034L367.65625 282.3191Q368.3125 281.5691 368.5625 281.11597Q368.8125 280.64722 368.8125 280.14722Q368.8125 279.47534 368.40625 279.05347Q368.01562 278.61597 367.32812 278.61597Q366.53125 278.61597 366.07812 279.08472Q365.625 279.53784 365.625 280.36597L364.54688 280.36597Q364.54688 279.17847 365.29688 278.45972Q366.0625 277.72534 367.32812 277.72534Q368.53125 277.72534 369.21875 278.35034Q369.90625 278.97534 369.90625 280.02222Q369.90625 281.27222 368.29688 283.02222L366.01562 285.49097L370.29688 285.49097L370.29688 286.3816Z" fill-rule="nonzero"/><path fill="#ffffff" d="M335.28125 281.58472L336.09375 281.58472Q336.875 281.5691 337.3125 281.17847Q337.75 280.78784 337.75 280.11597Q337.75 278.61597 336.25 278.61597Q335.54688 278.61597 335.125 279.02222Q334.71875 279.42847 334.71875 280.08472L333.625 280.08472Q333.625 279.0691 334.35938 278.39722Q335.10938 277.72534 336.25 277.72534Q337.45312 277.72534 338.14062 278.36597Q338.82812 279.0066 338.82812 280.14722Q338.82812 280.70972 338.46875 281.22534Q338.10938 281.74097 337.48438 282.0066Q338.1875 282.22534 338.5625 282.74097Q338.95312 283.2566 338.95312 284.0066Q338.95312 285.14722 338.20312 285.83472Q337.45312 286.5066 336.25 286.5066Q335.0625 286.5066 334.29688 285.85034Q333.54688 285.1941 333.54688 284.1316L334.64062 284.1316Q334.64062 284.80347 335.07812 285.20972Q335.51562 285.61597 336.26562 285.61597Q337.04688 285.61597 337.45312 285.20972Q337.875 284.78784 337.875 284.02222Q337.875 283.28784 337.42188 282.89722Q336.96875 282.49097 336.09375 282.47534L335.28125 282.47534L335.28125 281.58472ZM344.96875 277.85034L344.96875 278.7566L344.76562 278.7566Q343.5 278.78784 342.75 279.52222Q342.0 280.24097 341.875 281.55347Q342.5625 280.78784 343.71875 280.78784Q344.82812 280.78784 345.5 281.5691Q346.17188 282.35034 346.17188 283.60034Q346.17188 284.91284 345.45312 285.70972Q344.73438 286.5066 343.51562 286.5066Q342.29688 286.5066 341.53125 285.5691Q340.78125 284.61597 340.78125 283.1316L340.78125 282.72534Q340.78125 280.36597 341.78125 279.11597Q342.78125 277.86597 344.76562 277.85034L344.96875 277.85034ZM343.54688 281.6941Q342.98438 281.6941 342.51562 282.02222Q342.04688 282.35034 341.85938 282.86597L341.85938 283.2566Q341.85938 284.3191 342.32812 284.95972Q342.8125 285.60034 343.51562 285.60034Q344.25 285.60034 344.67188 285.0691Q345.09375 284.52222 345.09375 283.64722Q345.09375 282.77222 344.67188 282.24097Q344.25 281.6941 343.54688 281.6941ZM347.84375 285.8191Q347.84375 285.53784 348.0 285.35034Q348.17188 285.16284 348.5 285.16284Q348.84375 285.16284 349.01562 285.35034Q349.1875 285.53784 349.1875 285.8191Q349.1875 286.08472 349.01562 286.27222Q348.84375 286.4441 348.5 286.4441Q348.17188 286.4441 348.0 286.27222Q347.84375 286.08472 347.84375 285.8191ZM355.89062 280.0691Q355.89062 280.70972 355.54688 281.20972Q355.20312 281.70972 354.64062 281.99097Q355.29688 282.27222 355.6875 282.83472Q356.07812 283.3816 356.07812 284.08472Q356.07812 285.17847 355.32812 285.85034Q354.59375 286.5066 353.375 286.5066Q352.14062 286.5066 351.39062 285.85034Q350.65625 285.17847 350.65625 284.08472Q350.65625 283.3816 351.03125 282.83472Q351.40625 282.27222 352.07812 281.99097Q351.51562 281.70972 351.1875 281.20972Q350.85938 280.70972 350.85938 280.0691Q350.85938 278.99097 351.54688 278.36597Q352.23438 277.72534 353.375 277.72534Q354.5 277.72534 355.1875 278.36597Q355.89062 278.99097 355.89062 280.0691ZM355.0 284.05347Q355.0 283.33472 354.54688 282.89722Q354.09375 282.4441 353.35938 282.4441Q352.625 282.4441 352.17188 282.89722Q351.73438 283.33472 351.73438 284.0691Q351.73438 284.78784 352.17188 285.20972Q352.60938 285.61597 353.375 285.61597Q354.125 285.61597 354.5625 285.1941Q355.0 284.77222 355.0 284.05347ZM353.375 278.61597Q352.73438 278.61597 352.32812 279.02222Q351.9375 279.41284 351.9375 280.10034Q351.9375 280.74097 352.32812 281.14722Q352.71875 281.55347 353.35938 281.55347Q354.01562 281.55347 354.40625 281.14722Q354.79688 280.74097 354.79688 280.10034Q354.79688 279.4441 354.39062 279.03784Q353.98438 278.61597 353.375 278.61597ZM361.26562 286.3816L360.1875 286.3816L360.1875 279.16284L358.0 279.95972L358.0 278.97534L361.10938 277.80347L361.26562 277.80347L361.26562 286.3816ZM370.29688 286.3816L364.70312 286.3816L364.70312 285.60034L367.65625 282.3191Q368.3125 281.5691 368.5625 281.11597Q368.8125 280.64722 368.8125 280.14722Q368.8125 279.47534 368.40625 279.05347Q368.01562 278.61597 367.32812 278.61597Q366.53125 278.61597 366.07812 279.08472Q365.625 279.53784 365.625 280.36597L364.54688 280.36597Q364.54688 279.17847 365.29688 278.45972Q366.0625 277.72534 367.32812 277.72534Q368.53125 277.72534 369.21875 278.35034Q369.90625 278.97534 369.90625 280.02222Q369.90625 281.27222 368.29688 283.02222L366.01562 285.49097L370.29688 285.49097L370.29688 286.3816Z" fill-rule="nonzero"/><path stroke="#db4437" stroke-width="3.0" stroke-linejoin="round" stroke-linecap="round" d="M209.79688 128.3972L204.20312 128.3972L204.20312 127.61595L207.15625 124.3347Q207.8125 123.5847 208.0625 123.13158Q208.3125 122.66283 208.3125 122.16283Q208.3125 121.49095 207.90625 121.06908Q207.51562 120.63158 206.82812 120.63158Q206.03125 120.63158 205.57812 121.10033Q205.125 121.55345 205.125 122.38158L204.04688 122.38158Q204.04688 121.19408 204.79688 120.47533Q205.5625 119.74095 206.82812 119.74095Q208.03125 119.74095 208.71875 120.36595Q209.40625 120.99095 209.40625 122.03783Q209.40625 123.28783 207.79688 125.03783L205.51562 127.50658L209.79688 127.50658L209.79688 128.3972ZM215.46875 119.86595L215.46875 120.7722L215.26562 120.7722Q214.0 120.80345 213.25 121.53783Q212.5 122.25658 212.375 123.56908Q213.0625 122.80345 214.21875 122.80345Q215.32812 122.80345 216.0 123.5847Q216.67188 124.36595 216.67188 125.61595Q216.67188 126.92845 215.95312 127.72533Q215.23438 128.5222 214.01562 128.5222Q212.79688 128.5222 212.03125 127.5847Q211.28125 126.63158 211.28125 125.1472L211.28125 124.74095Q211.28125 122.38158 212.28125 121.13158Q213.28125 119.88158 215.26562 119.86595L215.46875 119.86595ZM214.04688 123.7097Q213.48438 123.7097 213.01562 124.03783Q212.54688 124.36595 212.35938 124.88158L212.35938 125.2722Q212.35938 126.3347 212.82812 126.97533Q213.3125 127.61595 214.01562 127.61595Q214.75 127.61595 215.17188 127.0847Q215.59375 126.53783 215.59375 125.66283Q215.59375 124.78783 215.17188 124.25658Q214.75 123.7097 214.04688 123.7097ZM219.78125 123.60033L220.59375 123.60033Q221.375 123.5847 221.8125 123.19408Q222.25 122.80345 222.25 122.13158Q222.25 120.63158 220.75 120.63158Q220.04688 120.63158 219.625 121.03783Q219.21875 121.44408 219.21875 122.10033L218.125 122.10033Q218.125 121.0847 218.85938 120.41283Q219.60938 119.74095 220.75 119.74095Q221.95312 119.74095 222.64062 120.38158Q223.32812 121.0222 223.32812 122.16283Q223.32812 122.72533 222.96875 123.24095Q222.60938 123.75658 221.98438 124.0222Q222.6875 124.24095 223.0625 124.75658Q223.45312 125.2722 223.45312 126.0222Q223.45312 127.16283 222.70312 127.85033Q221.95312 128.5222 220.75 128.5222Q219.5625 128.5222 218.79688 127.86595Q218.04688 127.2097 218.04688 126.1472L219.14062 126.1472Q219.14062 126.81908 219.57812 127.22533Q220.01562 127.63158 220.76562 127.63158Q221.54688 127.63158 221.95312 127.22533Q222.375 126.80345 222.375 126.03783Q222.375 125.30345 221.92188 124.91283Q221.46875 124.50658 220.59375 124.49095L219.78125 124.49095L219.78125 123.60033Z" fill-rule="nonzero"/><path fill="#ffffff" d="M209.79688 128.3972L204.20312 128.3972L204.20312 127.61595L207.15625 124.3347Q207.8125 123.5847 208.0625 123.13158Q208.3125 122.66283 208.3125 122.16283Q208.3125 121.49095 207.90625 121.06908Q207.51562 120.63158 206.82812 120.63158Q206.03125 120.63158 205.57812 121.10033Q205.125 121.55345 205.125 122.38158L204.04688 122.38158Q204.04688 121.19408 204.79688 120.47533Q205.5625 119.74095 206.82812 119.74095Q208.03125 119.74095 208.71875 120.36595Q209.40625 120.99095 209.40625 122.03783Q209.40625 123.28783 207.79688 125.03783L205.51562 127.50658L209.79688 127.50658L209.79688 128.3972ZM215.46875 119.86595L215.46875 120.7722L215.26562 120.7722Q214.0 120.80345 213.25 121.53783Q212.5 122.25658 212.375 123.56908Q213.0625 122.80345 214.21875 122.80345Q215.32812 122.80345 216.0 123.5847Q216.67188 124.36595 216.67188 125.61595Q216.67188 126.92845 215.95312 127.72533Q215.23438 128.5222 214.01562 128.5222Q212.79688 128.5222 212.03125 127.5847Q211.28125 126.63158 211.28125 125.1472L211.28125 124.74095Q211.28125 122.38158 212.28125 121.13158Q213.28125 119.88158 215.26562 119.86595L215.46875 119.86595ZM214.04688 123.7097Q213.48438 123.7097 213.01562 124.03783Q212.54688 124.36595 212.35938 124.88158L212.35938 125.2722Q212.35938 126.3347 212.82812 126.97533Q213.3125 127.61595 214.01562 127.61595Q214.75 127.61595 215.17188 127.0847Q215.59375 126.53783 215.59375 125.66283Q215.59375 124.78783 215.17188 124.25658Q214.75 123.7097 214.04688 123.7097ZM219.78125 123.60033L220.59375 123.60033Q221.375 123.5847 221.8125 123.19408Q222.25 122.80345 222.25 122.13158Q222.25 120.63158 220.75 120.63158Q220.04688 120.63158 219.625 121.03783Q219.21875 121.44408 219.21875 122.10033L218.125 122.10033Q218.125 121.0847 218.85938 120.41283Q219.60938 119.74095 220.75 119.74095Q221.95312 119.74095 222.64062 120.38158Q223.32812 121.0222 223.32812 122.16283Q223.32812 122.72533 222.96875 123.24095Q222.60938 123.75658 221.98438 124.0222Q222.6875 124.24095 223.0625 124.75658Q223.45312 125.2722 223.45312 126.0222Q223.45312 127.16283 222.70312 127.85033Q221.95312 128.5222 220.75 128.5222Q219.5625 128.5222 218.79688 127.86595Q218.04688 127.2097 218.04688 126.1472L219.14062 126.1472Q219.14062 126.81908 219.57812 127.22533Q220.01562 127.63158 220.76562 127.63158Q221.54688 127.63158 221.95312 127.22533Q222.375 126.80345 222.375 126.03783Q222.375 125.30345 221.92188 124.91283Q221.46875 124.50658 220.59375 124.49095L219.78125 124.49095L219.78125 123.60033Z" fill-rule="nonzero"/><path stroke="#ffffff" stroke-width="3.0" stroke-linejoin="round" stroke-linecap="round" d="M420.5625 276.68137Q420.5625 278.58762 419.90625 279.52512Q419.26562 280.447 417.875 280.447Q416.51562 280.447 415.85938 279.54074Q415.20312 278.6345 415.17188 276.822L415.17188 275.3845Q415.17188 273.49387 415.8125 272.58762Q416.46875 271.66574 417.85938 271.66574Q419.23438 271.66574 419.89062 272.55637Q420.54688 273.43137 420.5625 275.27512L420.5625 276.68137ZM419.46875 275.197Q419.46875 273.822 419.07812 273.197Q418.70312 272.55637 417.85938 272.55637Q417.03125 272.55637 416.64062 273.197Q416.26562 273.822 416.26562 275.11887L416.26562 276.85324Q416.26562 278.22824 416.65625 278.90012Q417.0625 279.55637 417.875 279.55637Q418.67188 279.55637 419.0625 278.93137Q419.45312 278.30637 419.46875 276.97824L419.46875 275.197Z" fill-rule="nonzero"/><path fill="#db4437" d="M420.5625 276.68137Q420.5625 278.58762 419.90625 279.52512Q419.26562 280.447 417.875 280.447Q416.51562 280.447 415.85938 279.54074Q415.20312 278.6345 415.17188 276.822L415.17188 275.3845Q415.17188 273.49387 415.8125 272.58762Q416.46875 271.66574 417.85938 271.66574Q419.23438 271.66574 419.89062 272.55637Q420.54688 273.43137 420.5625 275.27512L420.5625 276.68137ZM419.46875 275.197Q419.46875 273.822 419.07812 273.197Q418.70312 272.55637 417.85938 272.55637Q417.03125 272.55637 416.64062 273.197Q416.26562 273.822 416.26562 275.11887L416.26562 276.85324Q416.26562 278.22824 416.65625 278.90012Q417.0625 279.55637 417.875 279.55637Q418.67188 279.55637 419.0625 278.93137Q419.45312 278.30637 419.46875 276.97824L419.46875 275.197Z" fill-rule="nonzero"/><path fill="#757575" d="M36.7125 296.20938Q36.7125 298.11563 36.05625 299.05313Q35.415627 299.975 34.025 299.975Q32.665627 299.975 32.009377 299.06876Q31.353125 298.1625 31.321875 296.35L31.321875 294.9125Q31.321875 293.02188 31.9625 292.11563Q32.61875 291.19376 34.009377 291.19376Q35.384377 291.19376 36.040627 292.08438Q36.696877 292.95938 36.7125 294.80313L36.7125 296.20938ZM35.61875 294.725Q35.61875 293.35 35.228127 292.725Q34.853127 292.08438 34.009377 292.08438Q33.18125 292.08438 32.790627 292.725Q32.415627 293.35 32.415627 294.64688L32.415627 296.38126Q32.415627 297.75626 32.80625 298.42813Q33.2125 299.08438 34.025 299.08438Q34.821877 299.08438 35.2125 298.45938Q35.603127 297.83438 35.61875 296.50626L35.61875 294.725Z" fill-rule="nonzero"/><path fill="#757575" d="M20.915625 229.85L19.8375 229.85L19.8375 222.63126L17.65 223.42813L17.65 222.44376L20.759375 221.27188L20.915625 221.27188L20.915625 229.85ZM29.7125 226.20938Q29.7125 228.11563 29.05625 229.05313Q28.415625 229.975 27.025 229.975Q25.665625 229.975 25.009375 229.06876Q24.353125 228.1625 24.321875 226.35L24.321875 224.9125Q24.321875 223.02188 24.9625 222.11563Q25.61875 221.19376 27.009375 221.19376Q28.384375 221.19376 29.040625 222.08438Q29.696875 222.95938 29.7125 224.80313L29.7125 226.20938ZM28.61875 224.725Q28.61875 223.35 28.228125 222.725Q27.853125 222.08438 27.009375 222.08438Q26.18125 222.08438 25.790625 222.725Q25.415625 223.35 25.415625 224.64688L25.415625 226.38126Q25.415625 227.75626 25.80625 228.42813Q26.2125 229.08438 27.025 229.08438Q27.821875 229.08438 28.2125 228.45938Q28.603125 227.83438 28.61875 226.50626L28.61875 224.725ZM36.7125 226.20938Q36.7125 228.11563 36.05625 229.05313Q35.415627 229.975 34.025 229.975Q32.665627 229.975 32.009377 229.06876Q31.353125 228.1625 31.321875 226.35L31.321875 224.9125Q31.321875 223.02188 31.9625 222.11563Q32.61875 221.19376 34.009377 221.19376Q35.384377 221.19376 36.040627 222.08438Q36.696877 222.95938 36.7125 224.80313L36.7125 226.20938ZM35.61875 224.725Q35.61875 223.35 35.228127 222.725Q34.853127 222.08438 34.009377 222.08438Q33.18125 222.08438 32.790627 222.725Q32.415627 223.35 32.415627 224.64688L32.415627 226.38126Q32.415627 227.75626 32.80625 228.42813Q33.2125 229.08438 34.025 229.08438Q34.821877 229.08438 35.2125 228.45938Q35.603127 227.83438 35.61875 226.50626L35.61875 224.725Z" fill-rule="nonzero"/><path fill="#757575" d="M22.946875 159.85L17.353125 159.85L17.353125 159.06876L20.30625 155.7875Q20.9625 155.0375 21.2125 154.58438Q21.4625 154.11563 21.4625 153.61563Q21.4625 152.94376 21.05625 152.52188Q20.665625 152.08438 19.978125 152.08438Q19.18125 152.08438 18.728125 152.55313Q18.275 153.00626 18.275 153.83438L17.196875 153.83438Q17.196875 152.64688 17.946875 151.92813Q18.7125 151.19376 19.978125 151.19376Q21.18125 151.19376 21.86875 151.81876Q22.55625 152.44376 22.55625 153.49063Q22.55625 154.74063 20.946875 156.49063L18.665625 158.95938L22.946875 158.95938L22.946875 159.85ZM29.7125 156.20938Q29.7125 158.11563 29.05625 159.05313Q28.415625 159.975 27.025 159.975Q25.665625 159.975 25.009375 159.06876Q24.353125 158.1625 24.321875 156.35L24.321875 154.9125Q24.321875 153.02188 24.9625 152.11563Q25.61875 151.19376 27.009375 151.19376Q28.384375 151.19376 29.040625 152.08438Q29.696875 152.95938 29.7125 154.80313L29.7125 156.20938ZM28.61875 154.725Q28.61875 153.35 28.228125 152.725Q27.853125 152.08438 27.009375 152.08438Q26.18125 152.08438 25.790625 152.725Q25.415625 153.35 25.415625 154.64688L25.415625 156.38126Q25.415625 157.75626 25.80625 158.42813Q26.2125 159.08438 27.025 159.08438Q27.821875 159.08438 28.2125 158.45938Q28.603125 157.83438 28.61875 156.50626L28.61875 154.725ZM36.7125 156.20938Q36.7125 158.11563 36.05625 159.05313Q35.415627 159.975 34.025 159.975Q32.665627 159.975 32.009377 159.06876Q31.353125 158.1625 31.321875 156.35L31.321875 154.9125Q31.321875 153.02188 31.9625 152.11563Q32.61875 151.19376 34.009377 151.19376Q35.384377 151.19376 36.040627 152.08438Q36.696877 152.95938 36.7125 154.80313L36.7125 156.20938ZM35.61875 154.725Q35.61875 153.35 35.228127 152.725Q34.853127 152.08438 34.009377 152.08438Q33.18125 152.08438 32.790627 152.725Q32.415627 153.35 32.415627 154.64688L32.415627 156.38126Q32.415627 157.75626 32.80625 158.42813Q33.2125 159.08438 34.025 159.08438Q34.821877 159.08438 35.2125 158.45938Q35.603127 157.83438 35.61875 156.50626L35.61875 154.725Z" fill-rule="nonzero"/><path fill="#757575" d="M18.93125 85.05312L19.74375 85.05312Q20.525 85.0375 20.9625 84.64687Q21.4 84.25625 21.4 83.58437Q21.4 82.08437 19.9 82.08437Q19.196875 82.08437 18.775 82.49062Q18.36875 82.89687 18.36875 83.55312L17.275 83.55312Q17.275 82.5375 18.009375 81.86562Q18.759375 81.19375 19.9 81.19375Q21.103125 81.19375 21.790625 81.83437Q22.478125 82.475 22.478125 83.61562Q22.478125 84.17812 22.11875 84.69375Q21.759375 85.20937 21.134375 85.475Q21.8375 85.69375 22.2125 86.20937Q22.603125 86.725 22.603125 87.475Q22.603125 88.61562 21.853125 89.30312Q21.103125 89.975 19.9 89.975Q18.7125 89.975 17.946875 89.31875Q17.196875 88.6625 17.196875 87.6L18.290625 87.6Q18.290625 88.27187 18.728125 88.67812Q19.165625 89.08437 19.915625 89.08437Q20.696875 89.08437 21.103125 88.67812Q21.525 88.25625 21.525 87.49062Q21.525 86.75625 21.071875 86.36562Q20.61875 85.95937 19.74375 85.94375L18.93125 85.94375L18.93125 85.05312ZM29.7125 86.20937Q29.7125 88.11562 29.05625 89.05312Q28.415625 89.975 27.025 89.975Q25.665625 89.975 25.009375 89.06875Q24.353125 88.1625 24.321875 86.35L24.321875 84.9125Q24.321875 83.02187 24.9625 82.11562Q25.61875 81.19375 27.009375 81.19375Q28.384375 81.19375 29.040625 82.08437Q29.696875 82.95937 29.7125 84.80312L29.7125 86.20937ZM28.61875 84.725Q28.61875 83.35 28.228125 82.725Q27.853125 82.08437 27.009375 82.08437Q26.18125 82.08437 25.790625 82.725Q25.415625 83.35 25.415625 84.64687L25.415625 86.38125Q25.415625 87.75625 25.80625 88.42812Q26.2125 89.08437 27.025 89.08437Q27.821875 89.08437 28.2125 88.45937Q28.603125 87.83437 28.61875 86.50625L28.61875 84.725ZM36.7125 86.20937Q36.7125 88.11562 36.05625 89.05312Q35.415627 89.975 34.025 89.975Q32.665627 89.975 32.009377 89.06875Q31.353125 88.1625 31.321875 86.35L31.321875 84.9125Q31.321875 83.02187 31.9625 82.11562Q32.61875 81.19375 34.009377 81.19375Q35.384377 81.19375 36.040627 82.08437Q36.696877 82.95937 36.7125 84.80312L36.7125 86.20937ZM35.61875 84.725Q35.61875 83.35 35.228127 82.725Q34.853127 82.08437 34.009377 82.08437Q33.18125 82.08437 32.790627 82.725Q32.415627 83.35 32.415627 84.64687L32.415627 86.38125Q32.415627 87.75625 32.80625 88.42812Q33.2125 89.08437 34.025 89.08437Q34.821877 89.08437 35.2125 88.45937Q35.603127 87.83437 35.61875 86.50625L35.61875 84.725Z" fill-rule="nonzero"/><path fill="#757575" d="M112.27393 312.42813L116.32081 312.42813L116.32081 313.35L111.13331 313.35L111.13331 304.81876L112.27393 304.81876L112.27393 312.42813ZM118.14893 313.35L117.07081 313.35L117.07081 307.00626L118.14893 307.00626L118.14893 313.35ZM116.97706 305.33438Q116.97706 305.06876 117.13331 304.88126Q117.30518 304.69376 117.61768 304.69376Q117.93018 304.69376 118.08643 304.88126Q118.25831 305.06876 118.25831 305.33438Q118.25831 305.58438 118.08643 305.77188Q117.93018 305.94376 117.61768 305.94376Q117.30518 305.94376 117.13331 305.77188Q116.97706 305.58438 116.97706 305.33438ZM123.66456 311.6625Q123.66456 311.225 123.32081 310.99063Q122.99268 310.74063 122.16456 310.56876Q121.35206 310.39688 120.86768 310.14688Q120.38331 309.89688 120.14893 309.56876Q119.93018 309.225 119.93018 308.75626Q119.93018 307.975 120.58643 307.44376Q121.24268 306.89688 122.27393 306.89688Q123.35206 306.89688 124.00831 307.45938Q124.68018 308.00626 124.68018 308.86563L123.60206 308.86563Q123.60206 308.42813 123.21143 308.11563Q122.83643 307.7875 122.27393 307.7875Q121.68018 307.7875 121.33643 308.05313Q121.00831 308.30313 121.00831 308.70938Q121.00831 309.1 121.32081 309.30313Q121.63331 309.50626 122.44581 309.69376Q123.25831 309.86563 123.75831 310.11563Q124.25831 310.36563 124.49268 310.725Q124.74268 311.08438 124.74268 311.58438Q124.74268 312.44376 124.05518 312.95938Q123.38331 313.475 122.30518 313.475Q121.53956 313.475 120.94581 313.20938Q120.36768 312.92813 120.03956 312.44376Q119.71143 311.95938 119.71143 311.39688L120.78956 311.39688Q120.82081 311.94376 121.22706 312.27188Q121.63331 312.58438 122.30518 312.58438Q122.91456 312.58438 123.28956 312.33438Q123.66456 312.08438 123.66456 311.6625ZM127.44581 305.475L127.44581 307.00626L128.61768 307.00626L128.61768 307.85L127.44581 307.85L127.44581 311.77188Q127.44581 312.1625 127.60206 312.35Q127.75831 312.5375 128.1333 312.5375Q128.3208 312.5375 128.64893 312.475L128.64893 313.35Q128.22705 313.475 127.82081 313.475Q127.10206 313.475 126.72706 313.0375Q126.35206 312.58438 126.35206 311.77188L126.35206 307.85L125.19581 307.85L125.19581 307.00626L126.35206 307.00626L126.35206 305.475L127.44581 305.475ZM134.85205 311.11563L131.27393 311.11563L130.47705 313.35L129.3208 313.35L132.5708 304.81876L133.55518 304.81876L136.8208 313.35L135.66455 313.35L134.85205 311.11563ZM131.61768 310.19376L134.52393 310.19376L133.0708 306.20938L131.61768 310.19376ZM137.71143 310.13126Q137.71143 308.6625 138.39893 307.7875Q139.08643 306.89688 140.21143 306.89688Q141.3208 306.89688 141.97705 307.64688L141.97705 304.35L143.05518 304.35L143.05518 313.35L142.05518 313.35L142.0083 312.6625Q141.35205 313.475 140.1958 313.475Q139.10205 313.475 138.39893 312.56876Q137.71143 311.6625 137.71143 310.20938L137.71143 310.13126ZM138.78955 310.25626Q138.78955 311.33438 139.22705 311.94376Q139.68018 312.55313 140.46143 312.55313Q141.49268 312.55313 141.97705 311.61563L141.97705 308.70938Q141.49268 307.81876 140.47705 307.81876Q139.68018 307.81876 139.22705 308.42813Q138.78955 309.0375 138.78955 310.25626ZM144.71143 310.13126Q144.71143 308.6625 145.39893 307.7875Q146.08643 306.89688 147.21143 306.89688Q148.3208 306.89688 148.97705 307.64688L148.97705 304.35L150.05518 304.35L150.05518 313.35L149.05518 313.35L149.0083 312.6625Q148.35205 313.475 147.1958 313.475Q146.10205 313.475 145.39893 312.56876Q144.71143 311.6625 144.71143 310.20938L144.71143 310.13126ZM145.78955 310.25626Q145.78955 311.33438 146.22705 311.94376Q146.68018 312.55313 147.46143 312.55313Q148.49268 312.55313 148.97705 311.61563L148.97705 308.70938Q148.49268 307.81876 147.47705 307.81876Q146.68018 307.81876 146.22705 308.42813Q145.78955 309.0375 145.78955 310.25626ZM156.53955 314.24063L151.18018 314.24063L151.18018 313.35L156.53955 313.35L156.53955 314.24063ZM159.96143 311.85L162.39893 304.81876L163.6333 304.81876L160.46143 313.35L159.47705 313.35L156.3208 304.81876L157.53955 304.81876L159.96143 311.85ZM168.8833 313.35Q168.78955 313.1625 168.72705 312.67813Q167.97705 313.475 166.93018 313.475Q165.99268 313.475 165.3833 312.94376Q164.78955 312.4125 164.78955 311.58438Q164.78955 310.6 165.53955 310.05313Q166.28955 309.50626 167.66455 309.50626L168.71143 309.50626L168.71143 309.00626Q168.71143 308.44376 168.36768 308.11563Q168.03955 307.77188 167.36768 307.77188Q166.78955 307.77188 166.39893 308.06876Q166.0083 308.35 166.0083 308.77188L164.91455 308.77188Q164.91455 308.2875 165.24268 307.85Q165.58643 307.4125 166.16455 307.1625Q166.74268 306.89688 167.43018 306.89688Q168.53955 306.89688 169.14893 307.44376Q169.77393 307.99063 169.80518 308.94376L169.80518 311.86563Q169.80518 312.74063 170.02393 313.25626L170.02393 313.35L168.8833 313.35ZM167.08643 312.52188Q167.60205 312.52188 168.05518 312.25626Q168.5083 311.99063 168.71143 311.56876L168.71143 310.27188L167.86768 310.27188Q165.86768 310.27188 165.86768 311.44376Q165.86768 311.94376 166.21143 312.24063Q166.55518 312.52188 167.08643 312.52188ZM173.14893 313.35L172.0708 313.35L172.0708 304.35L173.14893 304.35L173.14893 313.35ZM178.8833 312.725Q178.2583 313.475 177.02393 313.475Q176.0083 313.475 175.47705 312.88126Q174.9458 312.2875 174.9458 311.13126L174.9458 307.00626L176.02393 307.00626L176.02393 311.1Q176.02393 312.55313 177.1958 312.55313Q178.4458 312.55313 178.85205 311.61563L178.85205 307.00626L179.9458 307.00626L179.9458 313.35L178.91455 313.35L178.8833 312.725ZM184.60205 313.475Q183.30518 313.475 182.49268 312.63126Q181.6958 311.77188 181.6958 310.35L181.6958 310.1625Q181.6958 309.20938 182.05518 308.475Q182.41455 307.725 183.05518 307.31876Q183.71143 306.89688 184.46143 306.89688Q185.6958 306.89688 186.3833 307.70938Q187.0708 308.52188 187.0708 310.0375L187.0708 310.49063L182.77393 310.49063Q182.80518 311.42813 183.3208 312.00626Q183.85205 312.58438 184.66455 312.58438Q185.22705 312.58438 185.61768 312.35Q186.02393 312.11563 186.33643 311.725L186.99268 312.24063Q186.1958 313.475 184.60205 313.475ZM184.46143 307.7875Q183.80518 307.7875 183.35205 308.27188Q182.91455 308.74063 182.8208 309.6L185.99268 309.6L185.99268 309.52188Q185.9458 308.69376 185.53955 308.24063Q185.14893 307.7875 184.46143 307.7875ZM194.03955 305.74063L191.28955 305.74063L191.28955 313.35L190.18018 313.35L190.18018 305.74063L187.43018 305.74063L187.43018 304.81876L194.03955 304.81876L194.03955 305.74063ZM197.03955 311.75626L198.52393 307.00626L199.68018 307.00626L197.1333 314.33438Q196.53955 315.9125 195.2583 315.9125L195.03955 315.89688L194.64893 315.81876L194.64893 314.94376L194.93018 314.95938Q195.49268 314.95938 195.78955 314.74063Q196.10205 314.52188 196.30518 313.92813L196.53955 313.27188L194.27393 307.00626L195.46143 307.00626L197.03955 311.75626ZM206.3208 310.25626Q206.3208 311.69376 205.66455 312.58438Q205.0083 313.475 203.86768 313.475Q202.71143 313.475 202.05518 312.74063L202.05518 315.7875L200.97705 315.7875L200.97705 307.00626L201.96143 307.00626L202.0083 307.70938Q202.68018 306.89688 203.85205 306.89688Q204.99268 306.89688 205.64893 307.75626Q206.3208 308.61563 206.3208 310.14688L206.3208 310.25626ZM205.24268 310.13126Q205.24268 309.05313 204.77393 308.44376Q204.3208 307.81876 203.52393 307.81876Q202.53955 307.81876 202.05518 308.67813L202.05518 311.70938Q202.53955 312.58438 203.53955 312.58438Q204.3208 312.58438 204.77393 311.975Q205.24268 311.35 205.24268 310.13126ZM210.60205 313.475Q209.30518 313.475 208.49268 312.63126Q207.6958 311.77188 207.6958 310.35L207.6958 310.1625Q207.6958 309.20938 208.05518 308.475Q208.41455 307.725 209.05518 307.31876Q209.71143 306.89688 210.46143 306.89688Q211.6958 306.89688 212.3833 307.70938Q213.0708 308.52188 213.0708 310.0375L213.0708 310.49063L208.77393 310.49063Q208.80518 311.42813 209.3208 312.00626Q209.85205 312.58438 210.66455 312.58438Q211.22705 312.58438 211.61768 312.35Q212.02393 312.11563 212.33643 311.725L212.99268 312.24063Q212.1958 313.475 210.60205 313.475ZM210.46143 307.7875Q209.80518 307.7875 209.35205 308.27188Q208.91455 308.74063 208.8208 309.6L211.99268 309.6L211.99268 309.52188Q211.9458 308.69376 211.53955 308.24063Q211.14893 307.7875 210.46143 307.7875ZM216.93018 309.88126Q216.93018 308.56876 217.27393 307.35Q217.6333 306.13126 218.33643 305.13126Q219.03955 304.13126 219.80518 303.725L220.02393 304.44376Q219.16455 305.1 218.61768 306.44376Q218.0708 307.7875 218.02393 309.45938L218.0083 309.95938Q218.0083 312.225 218.83643 313.88126Q219.33643 314.88126 220.02393 315.44376L219.80518 316.1Q219.02393 315.67813 218.30518 314.64688Q216.93018 312.6625 216.93018 309.88126ZM226.4458 313.35L220.85205 313.35L220.85205 312.56876L223.80518 309.2875Q224.46143 308.5375 224.71143 308.08438Q224.96143 307.61563 224.96143 307.11563Q224.96143 306.44376 224.55518 306.02188Q224.16455 305.58438 223.47705 305.58438Q222.68018 305.58438 222.22705 306.05313Q221.77393 306.50626 221.77393 307.33438L220.6958 307.33438Q220.6958 306.14688 221.4458 305.42813Q222.21143 304.69376 223.47705 304.69376Q224.68018 304.69376 225.36768 305.31876Q226.05518 305.94376 226.05518 306.99063Q226.05518 308.24063 224.4458 309.99063L222.16455 312.45938L226.4458 312.45938L226.4458 313.35ZM233.21143 309.70938Q233.21143 311.61563 232.55518 312.55313Q231.91455 313.475 230.52393 313.475Q229.16455 313.475 228.5083 312.56876Q227.85205 311.6625 227.8208 309.85L227.8208 308.4125Q227.8208 306.52188 228.46143 305.61563Q229.11768 304.69376 230.5083 304.69376Q231.8833 304.69376 232.53955 305.58438Q233.1958 306.45938 233.21143 308.30313L233.21143 309.70938ZM232.11768 308.225Q232.11768 306.85 231.72705 306.225Q231.35205 305.58438 230.5083 305.58438Q229.68018 305.58438 229.28955 306.225Q228.91455 306.85 228.91455 308.14688L228.91455 309.88126Q228.91455 311.25626 229.30518 311.92813Q229.71143 312.58438 230.52393 312.58438Q231.3208 312.58438 231.71143 311.95938Q232.10205 311.33438 232.11768 310.00626L232.11768 308.225ZM239.43018 310.49063L240.61768 310.49063L240.61768 311.36563L239.43018 311.36563L239.43018 313.35L238.35205 313.35L238.35205 311.36563L234.46143 311.36563L234.46143 310.725L238.27393 304.81876L239.43018 304.81876L239.43018 310.49063ZM235.6958 310.49063L238.35205 310.49063L238.35205 306.30313L238.21143 306.5375L235.6958 310.49063ZM247.03955 307.0375Q247.03955 307.67813 246.6958 308.17813Q246.35205 308.67813 245.78955 308.95938Q246.4458 309.24063 246.83643 309.80313Q247.22705 310.35 247.22705 311.05313Q247.22705 312.14688 246.47705 312.81876Q245.74268 313.475 244.52393 313.475Q243.28955 313.475 242.53955 312.81876Q241.80518 312.14688 241.80518 311.05313Q241.80518 310.35 242.18018 309.80313Q242.55518 309.24063 243.22705 308.95938Q242.66455 308.67813 242.33643 308.17813Q242.0083 307.67813 242.0083 307.0375Q242.0083 305.95938 242.6958 305.33438Q243.3833 304.69376 244.52393 304.69376Q245.64893 304.69376 246.33643 305.33438Q247.03955 305.95938 247.03955 307.0375ZM246.14893 311.02188Q246.14893 310.30313 245.6958 309.86563Q245.24268 309.4125 244.5083 309.4125Q243.77393 309.4125 243.3208 309.86563Q242.8833 310.30313 242.8833 311.0375Q242.8833 311.75626 243.3208 312.17813Q243.7583 312.58438 244.52393 312.58438Q245.27393 312.58438 245.71143 312.1625Q246.14893 311.74063 246.14893 311.02188ZM244.52393 305.58438Q243.8833 305.58438 243.47705 305.99063Q243.08643 306.38126 243.08643 307.06876Q243.08643 307.70938 243.47705 308.11563Q243.86768 308.52188 244.5083 308.52188Q245.16455 308.52188 245.55518 308.11563Q245.9458 307.70938 245.9458 307.06876Q245.9458 306.4125 245.53955 306.00626Q245.1333 305.58438 244.52393 305.58438ZM251.47705 309.94376Q251.47705 311.25626 251.1333 312.45938Q250.78955 313.64688 250.0708 314.6625Q249.36768 315.67813 248.60205 316.1L248.36768 315.44376Q249.27393 314.75626 249.8208 313.30313Q250.36768 311.83438 250.3833 310.06876L250.3833 309.88126Q250.3833 308.64688 250.11768 307.58438Q249.86768 306.52188 249.39893 305.69376Q248.9458 304.85 248.36768 304.38126L248.60205 303.725Q249.36768 304.14688 250.0708 305.14688Q250.77393 306.14688 251.11768 307.36563Q251.47705 308.56876 251.47705 309.94376Z" fill-rule="nonzero"/><path fill="#757575" d="M306.46045 310.00626L306.46045 313.35L305.33545 313.35L305.33545 304.81876L308.4917 304.81876Q309.88232 304.81876 310.6792 305.5375Q311.47607 306.24063 311.47607 307.42813Q311.47607 308.6625 310.69482 309.33438Q309.9292 310.00626 308.47607 310.00626L306.46045 310.00626ZM306.46045 309.08438L308.4917 309.08438Q309.39795 309.08438 309.8667 308.6625Q310.35107 308.24063 310.35107 307.44376Q310.35107 306.67813 309.8667 306.225Q309.39795 305.75626 308.5542 305.74063L306.46045 305.74063L306.46045 309.08438ZM312.88232 310.11563Q312.88232 309.19376 313.2417 308.44376Q313.6167 307.69376 314.27295 307.30313Q314.9292 306.89688 315.75732 306.89688Q317.0542 306.89688 317.85107 307.7875Q318.66357 308.67813 318.66357 310.17813L318.66357 310.25626Q318.66357 311.17813 318.3042 311.9125Q317.94482 312.64688 317.28857 313.06876Q316.63232 313.475 315.77295 313.475Q314.4917 313.475 313.6792 312.58438Q312.88232 311.67813 312.88232 310.19376L312.88232 310.11563ZM313.97607 310.25626Q313.97607 311.30313 314.46045 311.94376Q314.96045 312.58438 315.77295 312.58438Q316.60107 312.58438 317.08545 311.94376Q317.56982 311.2875 317.56982 310.11563Q317.56982 309.08438 317.06982 308.44376Q316.58545 307.7875 315.75732 307.7875Q314.96045 307.7875 314.46045 308.42813Q313.97607 309.05313 313.97607 310.25626ZM319.88232 310.11563Q319.88232 309.19376 320.2417 308.44376Q320.6167 307.69376 321.27295 307.30313Q321.9292 306.89688 322.75732 306.89688Q324.0542 306.89688 324.85107 307.7875Q325.66357 308.67813 325.66357 310.17813L325.66357 310.25626Q325.66357 311.17813 325.3042 311.9125Q324.94482 312.64688 324.28857 313.06876Q323.63232 313.475 322.77295 313.475Q321.4917 313.475 320.6792 312.58438Q319.88232 311.67813 319.88232 310.19376L319.88232 310.11563ZM320.97607 310.25626Q320.97607 311.30313 321.46045 311.94376Q321.96045 312.58438 322.77295 312.58438Q323.60107 312.58438 324.08545 311.94376Q324.56982 311.2875 324.56982 310.11563Q324.56982 309.08438 324.06982 308.44376Q323.58545 307.7875 322.75732 307.7875Q321.96045 307.7875 321.46045 308.42813Q320.97607 309.05313 320.97607 310.25626ZM328.35107 313.35L327.27295 313.35L327.27295 304.35L328.35107 304.35L328.35107 313.35ZM332.8042 313.475Q331.50732 313.475 330.69482 312.63126Q329.89795 311.77188 329.89795 310.35L329.89795 310.1625Q329.89795 309.20938 330.25732 308.475Q330.6167 307.725 331.25732 307.31876Q331.91357 306.89688 332.66357 306.89688Q333.89795 306.89688 334.58545 307.70938Q335.27295 308.52188 335.27295 310.0375L335.27295 310.49063L330.97607 310.49063Q331.00732 311.42813 331.52295 312.00626Q332.0542 312.58438 332.8667 312.58438Q333.4292 312.58438 333.81982 312.35Q334.22607 312.11563 334.53857 311.725L335.19482 312.24063Q334.39795 313.475 332.8042 313.475ZM332.66357 307.7875Q332.00732 307.7875 331.5542 308.27188Q331.1167 308.74063 331.02295 309.6L334.19482 309.6L334.19482 309.52188Q334.14795 308.69376 333.7417 308.24063Q333.35107 307.7875 332.66357 307.7875ZM335.91357 310.13126Q335.91357 308.6625 336.60107 307.7875Q337.28857 306.89688 338.41357 306.89688Q339.52295 306.89688 340.1792 307.64688L340.1792 304.35L341.25732 304.35L341.25732 313.35L340.25732 313.35L340.21045 312.6625Q339.5542 313.475 338.39795 313.475Q337.3042 313.475 336.60107 312.56876Q335.91357 311.6625 335.91357 310.20938L335.91357 310.13126ZM336.9917 310.25626Q336.9917 311.33438 337.4292 311.94376Q337.88232 312.55313 338.66357 312.55313Q339.69482 312.55313 340.1792 311.61563L340.1792 308.70938Q339.69482 307.81876 338.6792 307.81876Q337.88232 307.81876 337.4292 308.42813Q336.9917 309.0375 336.9917 310.25626ZM348.0542 311.11563L344.47607 311.11563L343.6792 313.35L342.52295 313.35L345.77295 304.81876L346.75732 304.81876L350.02295 313.35L348.8667 313.35L348.0542 311.11563ZM344.81982 310.19376L347.72607 310.19376L346.27295 306.20938L344.81982 310.19376ZM350.91357 310.13126Q350.91357 308.6625 351.60107 307.7875Q352.28857 306.89688 353.41357 306.89688Q354.52295 306.89688 355.1792 307.64688L355.1792 304.35L356.25732 304.35L356.25732 313.35L355.25732 313.35L355.21045 312.6625Q354.5542 313.475 353.39795 313.475Q352.3042 313.475 351.60107 312.56876Q350.91357 311.6625 350.91357 310.20938L350.91357 310.13126ZM351.9917 310.25626Q351.9917 311.33438 352.4292 311.94376Q352.88232 312.55313 353.66357 312.55313Q354.69482 312.55313 355.1792 311.61563L355.1792 308.70938Q354.69482 307.81876 353.6792 307.81876Q352.88232 307.81876 352.4292 308.42813Q351.9917 309.0375 351.9917 310.25626ZM357.91357 310.13126Q357.91357 308.6625 358.60107 307.7875Q359.28857 306.89688 360.41357 306.89688Q361.52295 306.89688 362.1792 307.64688L362.1792 304.35L363.25732 304.35L363.25732 313.35L362.25732 313.35L362.21045 312.6625Q361.5542 313.475 360.39795 313.475Q359.3042 313.475 358.60107 312.56876Q357.91357 311.6625 357.91357 310.20938L357.91357 310.13126ZM358.9917 310.25626Q358.9917 311.33438 359.4292 311.94376Q359.88232 312.55313 360.66357 312.55313Q361.69482 312.55313 362.1792 311.61563L362.1792 308.70938Q361.69482 307.81876 360.6792 307.81876Q359.88232 307.81876 359.4292 308.42813Q358.9917 309.0375 358.9917 310.25626ZM369.7417 314.24063L364.38232 314.24063L364.38232 313.35L369.7417 313.35L369.7417 314.24063ZM373.16357 311.85L375.60107 304.81876L376.83545 304.81876L373.66357 313.35L372.6792 313.35L369.52295 304.81876L370.7417 304.81876L373.16357 311.85ZM382.08545 313.35Q381.9917 313.1625 381.9292 312.67813Q381.1792 313.475 380.13232 313.475Q379.19482 313.475 378.58545 312.94376Q377.9917 312.4125 377.9917 311.58438Q377.9917 310.6 378.7417 310.05313Q379.4917 309.50626 380.8667 309.50626L381.91357 309.50626L381.91357 309.00626Q381.91357 308.44376 381.56982 308.11563Q381.2417 307.77188 380.56982 307.77188Q379.9917 307.77188 379.60107 308.06876Q379.21045 308.35 379.21045 308.77188L378.1167 308.77188Q378.1167 308.2875 378.44482 307.85Q378.78857 307.4125 379.3667 307.1625Q379.94482 306.89688 380.63232 306.89688Q381.7417 306.89688 382.35107 307.44376Q382.97607 307.99063 383.00732 308.94376L383.00732 311.86563Q383.00732 312.74063 383.22607 313.25626L383.22607 313.35L382.08545 313.35ZM380.28857 312.52188Q380.8042 312.52188 381.25732 312.25626Q381.71045 311.99063 381.91357 311.56876L381.91357 310.27188L381.06982 310.27188Q379.06982 310.27188 379.06982 311.44376Q379.06982 311.94376 379.41357 312.24063Q379.75732 312.52188 380.28857 312.52188ZM386.35107 313.35L385.27295 313.35L385.27295 304.35L386.35107 304.35L386.35107 313.35ZM392.08545 312.725Q391.46045 313.475 390.22607 313.475Q389.21045 313.475 388.6792 312.88126Q388.14795 312.2875 388.14795 311.13126L388.14795 307.00626L389.22607 307.00626L389.22607 311.1Q389.22607 312.55313 390.39795 312.55313Q391.64795 312.55313 392.0542 311.61563L392.0542 307.00626L393.14795 307.00626L393.14795 313.35L392.1167 313.35L392.08545 312.725ZM397.8042 313.475Q396.50732 313.475 395.69482 312.63126Q394.89795 311.77188 394.89795 310.35L394.89795 310.1625Q394.89795 309.20938 395.25732 308.475Q395.6167 307.725 396.25732 307.31876Q396.91357 306.89688 397.66357 306.89688Q398.89795 306.89688 399.58545 307.70938Q400.27295 308.52188 400.27295 310.0375L400.27295 310.49063L395.97607 310.49063Q396.00732 311.42813 396.52295 312.00626Q397.0542 312.58438 397.8667 312.58438Q398.4292 312.58438 398.81982 312.35Q399.22607 312.11563 399.53857 311.725L400.19482 312.24063Q399.39795 313.475 397.8042 313.475ZM397.66357 307.7875Q397.00732 307.7875 396.5542 308.27188Q396.1167 308.74063 396.02295 309.6L399.19482 309.6L399.19482 309.52188Q399.14795 308.69376 398.7417 308.24063Q398.35107 307.7875 397.66357 307.7875ZM407.2417 305.74063L404.4917 305.74063L404.4917 313.35L403.38232 313.35L403.38232 305.74063L400.63232 305.74063L400.63232 304.81876L407.2417 304.81876L407.2417 305.74063ZM410.2417 311.75626L411.72607 307.00626L412.88232 307.00626L410.33545 314.33438Q409.7417 315.9125 408.46045 315.9125L408.2417 315.89688L407.85107 315.81876L407.85107 314.94376L408.13232 314.95938Q408.69482 314.95938 408.9917 314.74063Q409.3042 314.52188 409.50732 313.92813L409.7417 313.27188L407.47607 307.00626L408.66357 307.00626L410.2417 311.75626ZM419.52295 310.25626Q419.52295 311.69376 418.8667 312.58438Q418.21045 313.475 417.06982 313.475Q415.91357 313.475 415.25732 312.74063L415.25732 315.7875L414.1792 315.7875L414.1792 307.00626L415.16357 307.00626L415.21045 307.70938Q415.88232 306.89688 417.0542 306.89688Q418.19482 306.89688 418.85107 307.75626Q419.52295 308.61563 419.52295 310.14688L419.52295 310.25626ZM418.44482 310.13126Q418.44482 309.05313 417.97607 308.44376Q417.52295 307.81876 416.72607 307.81876Q415.7417 307.81876 415.25732 308.67813L415.25732 311.70938Q415.7417 312.58438 416.7417 312.58438Q417.52295 312.58438 417.97607 311.975Q418.44482 311.35 418.44482 310.13126ZM423.8042 313.475Q422.50732 313.475 421.69482 312.63126Q420.89795 311.77188 420.89795 310.35L420.89795 310.1625Q420.89795 309.20938 421.25732 308.475Q421.6167 307.725 422.25732 307.31876Q422.91357 306.89688 423.66357 306.89688Q424.89795 306.89688 425.58545 307.70938Q426.27295 308.52188 426.27295 310.0375L426.27295 310.49063L421.97607 310.49063Q422.00732 311.42813 422.52295 312.00626Q423.0542 312.58438 423.8667 312.58438Q424.4292 312.58438 424.81982 312.35Q425.22607 312.11563 425.53857 311.725L426.19482 312.24063Q425.39795 313.475 423.8042 313.475ZM423.66357 307.7875Q423.00732 307.7875 422.5542 308.27188Q422.1167 308.74063 422.02295 309.6L425.19482 309.6L425.19482 309.52188Q425.14795 308.69376 424.7417 308.24063Q424.35107 307.7875 423.66357 307.7875ZM430.13232 309.88126Q430.13232 308.56876 430.47607 307.35Q430.83545 306.13126 431.53857 305.13126Q432.2417 304.13126 433.00732 303.725L433.22607 304.44376Q432.3667 305.1 431.81982 306.44376Q431.27295 307.7875 431.22607 309.45938L431.21045 309.95938Q431.21045 312.225 432.03857 313.88126Q432.53857 314.88126 433.22607 315.44376L433.00732 316.1Q432.22607 315.67813 431.50732 314.64688Q430.13232 312.6625 430.13232 309.88126ZM439.64795 313.35L434.0542 313.35L434.0542 312.56876L437.00732 309.2875Q437.66357 308.5375 437.91357 308.08438Q438.16357 307.61563 438.16357 307.11563Q438.16357 306.44376 437.75732 306.02188Q437.3667 305.58438 436.6792 305.58438Q435.88232 305.58438 435.4292 306.05313Q434.97607 306.50626 434.97607 307.33438L433.89795 307.33438Q433.89795 306.14688 434.64795 305.42813Q435.41357 304.69376 436.6792 304.69376Q437.88232 304.69376 438.56982 305.31876Q439.25732 305.94376 439.25732 306.99063Q439.25732 308.24063 437.64795 309.99063L435.3667 312.45938L439.64795 312.45938L439.64795 313.35ZM446.41357 309.70938Q446.41357 311.61563 445.75732 312.55313Q445.1167 313.475 443.72607 313.475Q442.3667 313.475 441.71045 312.56876Q441.0542 311.6625 441.02295 309.85L441.02295 308.4125Q441.02295 306.52188 441.66357 305.61563Q442.31982 304.69376 443.71045 304.69376Q445.08545 304.69376 445.7417 305.58438Q446.39795 306.45938 446.41357 308.30313L446.41357 309.70938ZM445.31982 308.225Q445.31982 306.85 444.9292 306.225Q444.5542 305.58438 443.71045 305.58438Q442.88232 305.58438 442.4917 306.225Q442.1167 306.85 442.1167 308.14688L442.1167 309.88126Q442.1167 311.25626 442.50732 311.92813Q442.91357 312.58438 443.72607 312.58438Q444.52295 312.58438 444.91357 311.95938Q445.3042 311.33438 445.31982 310.00626L445.31982 308.225ZM452.63232 310.49063L453.81982 310.49063L453.81982 311.36563L452.63232 311.36563L452.63232 313.35L451.5542 313.35L451.5542 311.36563L447.66357 311.36563L447.66357 310.725L451.47607 304.81876L452.63232 304.81876L452.63232 310.49063ZM448.89795 310.49063L451.5542 310.49063L451.5542 306.30313L451.41357 306.5375L448.89795 310.49063ZM460.2417 307.0375Q460.2417 307.67813 459.89795 308.17813Q459.5542 308.67813 458.9917 308.95938Q459.64795 309.24063 460.03857 309.80313Q460.4292 310.35 460.4292 311.05313Q460.4292 312.14688 459.6792 312.81876Q458.94482 313.475 457.72607 313.475Q456.4917 313.475 455.7417 312.81876Q455.00732 312.14688 455.00732 311.05313Q455.00732 310.35 455.38232 309.80313Q455.75732 309.24063 456.4292 308.95938Q455.8667 308.67813 455.53857 308.17813Q455.21045 307.67813 455.21045 307.0375Q455.21045 305.95938 455.89795 305.33438Q456.58545 304.69376 457.72607 304.69376Q458.85107 304.69376 459.53857 305.33438Q460.2417 305.95938 460.2417 307.0375ZM459.35107 311.02188Q459.35107 310.30313 458.89795 309.86563Q458.44482 309.4125 457.71045 309.4125Q456.97607 309.4125 456.52295 309.86563Q456.08545 310.30313 456.08545 311.0375Q456.08545 311.75626 456.52295 312.17813Q456.96045 312.58438 457.72607 312.58438Q458.47607 312.58438 458.91357 312.1625Q459.35107 311.74063 459.35107 311.02188ZM457.72607 305.58438Q457.08545 305.58438 456.6792 305.99063Q456.28857 306.38126 456.28857 307.06876Q456.28857 307.70938 456.6792 308.11563Q457.06982 308.52188 457.71045 308.52188Q458.3667 308.52188 458.75732 308.11563Q459.14795 307.70938 459.14795 307.06876Q459.14795 306.4125 458.7417 306.00626Q458.33545 305.58438 457.72607 305.58438ZM464.6792 309.94376Q464.6792 311.25626 464.33545 312.45938Q463.9917 313.64688 463.27295 314.6625Q462.56982 315.67813 461.8042 316.1L461.56982 315.44376Q462.47607 314.75626 463.02295 313.30313Q463.56982 311.83438 463.58545 310.06876L463.58545 309.88126Q463.58545 308.64688 463.31982 307.58438Q463.06982 306.52188 462.60107 305.69376Q462.14795 304.85 461.56982 304.38126L461.8042 303.725Q462.56982 304.14688 463.27295 305.14688Q463.97607 306.14688 464.31982 307.36563Q464.6792 308.56876 464.6792 309.94376Z" fill-rule="nonzero"/><path fill="#4285f4" d="M152.0 54.25C152.0 53.697716 152.44771 53.25 153.0 53.25L163.0 53.25C163.55229 53.25 164.0 53.697716 164.0 54.25L164.0 64.25C164.0 64.802284 163.55229 65.25 163.0 65.25L153.0 65.25C152.44771 65.25 152.0 64.802284 152.0 64.25Z" fill-rule="nonzero"/><path fill="#757575" d="M174.4375 55.21875L177.23438 62.171875L180.01562 55.21875L181.48438 55.21875L181.48438 63.75L180.35938 63.75L180.35938 60.421875L180.46875 56.84375L177.65625 63.75L176.79688 63.75L174.0 56.859375L174.10938 60.421875L174.10938 63.75L172.98438 63.75L172.98438 55.21875L174.4375 55.21875ZM184.0 63.75L182.92188 63.75L182.92188 57.40625L184.0 57.40625L184.0 63.75ZM182.82812 55.734375Q182.82812 55.46875 182.98438 55.28125Q183.15625 55.09375 183.46875 55.09375Q183.78125 55.09375 183.9375 55.28125Q184.10938 55.46875 184.10938 55.734375Q184.10938 55.984375 183.9375 56.171875Q183.78125 56.34375 183.46875 56.34375Q183.15625 56.34375 182.98438 56.171875Q182.82812 55.984375 182.82812 55.734375ZM188.35938 62.984375Q188.9375 62.984375 189.375 62.640625Q189.8125 62.28125 189.85938 61.75L190.89062 61.75Q190.85938 62.296875 190.5 62.796875Q190.15625 63.28125 189.57812 63.578125Q189.01562 63.875 188.35938 63.875Q187.0625 63.875 186.29688 63.015625Q185.54688 62.140625 185.54688 60.640625L185.54688 60.453125Q185.54688 59.53125 185.875 58.8125Q186.21875 58.09375 186.84375 57.703125Q187.48438 57.296875 188.35938 57.296875Q189.42188 57.296875 190.125 57.9375Q190.84375 58.5625 190.89062 59.59375L189.85938 59.59375Q189.8125 58.96875 189.39062 58.578125Q188.96875 58.1875 188.35938 58.1875Q187.53125 58.1875 187.07812 58.78125Q186.625 59.375 186.625 60.5L186.625 60.703125Q186.625 61.796875 187.07812 62.390625Q187.53125 62.984375 188.35938 62.984375ZM194.89062 58.375Q194.64062 58.34375 194.35938 58.34375Q193.28125 58.34375 192.90625 59.25L192.90625 63.75L191.82812 63.75L191.82812 57.40625L192.875 57.40625L192.89062 58.140625Q193.42188 57.296875 194.40625 57.296875Q194.71875 57.296875 194.89062 57.375L194.89062 58.375ZM195.53125 60.515625Q195.53125 59.59375 195.89062 58.84375Q196.26562 58.09375 196.92188 57.703125Q197.57812 57.296875 198.40625 57.296875Q199.70312 57.296875 200.5 58.1875Q201.3125 59.078125 201.3125 60.578125L201.3125 60.65625Q201.3125 61.578125 200.95312 62.3125Q200.59375 63.046875 199.9375 63.46875Q199.28125 63.875 198.42188 63.875Q197.14062 63.875 196.32812 62.984375Q195.53125 62.078125 195.53125 60.59375L195.53125 60.515625ZM196.625 60.65625Q196.625 61.703125 197.10938 62.34375Q197.60938 62.984375 198.42188 62.984375Q199.25 62.984375 199.73438 62.34375Q200.21875 61.6875 200.21875 60.515625Q200.21875 59.484375 199.71875 58.84375Q199.23438 58.1875 198.40625 58.1875Q197.60938 58.1875 197.10938 58.828125Q196.625 59.453125 196.625 60.65625ZM206.51562 62.0625Q206.51562 61.625 206.17188 61.390625Q205.84375 61.140625 205.01562 60.96875Q204.20312 60.796875 203.71875 60.546875Q203.23438 60.296875 203.0 59.96875Q202.78125 59.625 202.78125 59.15625Q202.78125 58.375 203.4375 57.84375Q204.09375 57.296875 205.125 57.296875Q206.20312 57.296875 206.85938 57.859375Q207.53125 58.40625 207.53125 59.265625L206.45312 59.265625Q206.45312 58.828125 206.0625 58.515625Q205.6875 58.1875 205.125 58.1875Q204.53125 58.1875 204.1875 58.453125Q203.85938 58.703125 203.85938 59.109375Q203.85938 59.5 204.17188 59.703125Q204.48438 59.90625 205.29688 60.09375Q206.10938 60.265625 206.60938 60.515625Q207.10938 60.765625 207.34375 61.125Q207.59375 61.484375 207.59375 61.984375Q207.59375 62.84375 206.90625 63.359375Q206.23438 63.875 205.15625 63.875Q204.39062 63.875 203.79688 63.609375Q203.21875 63.328125 202.89062 62.84375Q202.5625 62.359375 202.5625 61.796875L203.64062 61.796875Q203.67188 62.34375 204.07812 62.671875Q204.48438 62.984375 205.15625 62.984375Q205.76562 62.984375 206.14062 62.734375Q206.51562 62.484375 206.51562 62.0625ZM211.45312 63.875Q210.15625 63.875 209.34375 63.03125Q208.54688 62.171875 208.54688 60.75L208.54688 60.5625Q208.54688 59.609375 208.90625 58.875Q209.26562 58.125 209.90625 57.71875Q210.5625 57.296875 211.3125 57.296875Q212.54688 57.296875 213.23438 58.109375Q213.92188 58.921875 213.92188 60.4375L213.92188 60.890625L209.625 60.890625Q209.65625 61.828125 210.17188 62.40625Q210.70312 62.984375 211.51562 62.984375Q212.07812 62.984375 212.46875 62.75Q212.875 62.515625 213.1875 62.125L213.84375 62.640625Q213.04688 63.875 211.45312 63.875ZM211.3125 58.1875Q210.65625 58.1875 210.20312 58.671875Q209.76562 59.140625 209.67188 60.0L212.84375 60.0L212.84375 59.921875Q212.79688 59.09375 212.39062 58.640625Q212.0 58.1875 211.3125 58.1875ZM217.35938 62.984375Q217.9375 62.984375 218.375 62.640625Q218.8125 62.28125 218.85938 61.75L219.89062 61.75Q219.85938 62.296875 219.5 62.796875Q219.15625 63.28125 218.57812 63.578125Q218.01562 63.875 217.35938 63.875Q216.0625 63.875 215.29688 63.015625Q214.54688 62.140625 214.54688 60.640625L214.54688 60.453125Q214.54688 59.53125 214.875 58.8125Q215.21875 58.09375 215.84375 57.703125Q216.48438 57.296875 217.35938 57.296875Q218.42188 57.296875 219.125 57.9375Q219.84375 58.5625 219.89062 59.59375L218.85938 59.59375Q218.8125 58.96875 218.39062 58.578125Q217.96875 58.1875 217.35938 58.1875Q216.53125 58.1875 216.07812 58.78125Q215.625 59.375 215.625 60.5L215.625 60.703125Q215.625 61.796875 216.07812 62.390625Q216.53125 62.984375 217.35938 62.984375ZM220.53125 60.515625Q220.53125 59.59375 220.89062 58.84375Q221.26562 58.09375 221.92188 57.703125Q222.57812 57.296875 223.40625 57.296875Q224.70312 57.296875 225.5 58.1875Q226.3125 59.078125 226.3125 60.578125L226.3125 60.65625Q226.3125 61.578125 225.95312 62.3125Q225.59375 63.046875 224.9375 63.46875Q224.28125 63.875 223.42188 63.875Q222.14062 63.875 221.32812 62.984375Q220.53125 62.078125 220.53125 60.59375L220.53125 60.515625ZM221.625 60.65625Q221.625 61.703125 222.10938 62.34375Q222.60938 62.984375 223.42188 62.984375Q224.25 62.984375 224.73438 62.34375Q225.21875 61.6875 225.21875 60.515625Q225.21875 59.484375 224.71875 58.84375Q224.23438 58.1875 223.40625 58.1875Q222.60938 58.1875 222.10938 58.828125Q221.625 59.453125 221.625 60.65625ZM228.84375 57.40625L228.875 58.203125Q229.60938 57.296875 230.78125 57.296875Q232.79688 57.296875 232.8125 59.5625L232.8125 63.75L231.71875 63.75L231.71875 59.546875Q231.71875 58.875 231.40625 58.546875Q231.10938 58.21875 230.45312 58.21875Q229.92188 58.21875 229.51562 58.5Q229.125 58.78125 228.90625 59.234375L228.90625 63.75L227.82812 63.75L227.82812 57.40625L228.84375 57.40625ZM234.5625 60.53125Q234.5625 59.0625 235.25 58.1875Q235.9375 57.296875 237.0625 57.296875Q238.17188 57.296875 238.82812 58.046875L238.82812 54.75L239.90625 54.75L239.90625 63.75L238.90625 63.75L238.85938 63.0625Q238.20312 63.875 237.04688 63.875Q235.95312 63.875 235.25 62.96875Q234.5625 62.0625 234.5625 60.609375L234.5625 60.53125ZM235.64062 60.65625Q235.64062 61.734375 236.07812 62.34375Q236.53125 62.953125 237.3125 62.953125Q238.34375 62.953125 238.82812 62.015625L238.82812 59.109375Q238.34375 58.21875 237.32812 58.21875Q236.53125 58.21875 236.07812 58.828125Q235.64062 59.4375 235.64062 60.65625ZM245.51562 62.0625Q245.51562 61.625 245.17188 61.390625Q244.84375 61.140625 244.01562 60.96875Q243.20312 60.796875 242.71875 60.546875Q242.23438 60.296875 242.0 59.96875Q241.78125 59.625 241.78125 59.15625Q241.78125 58.375 242.4375 57.84375Q243.09375 57.296875 244.125 57.296875Q245.20312 57.296875 245.85938 57.859375Q246.53125 58.40625 246.53125 59.265625L245.45312 59.265625Q245.45312 58.828125 245.0625 58.515625Q244.6875 58.1875 244.125 58.1875Q243.53125 58.1875 243.1875 58.453125Q242.85938 58.703125 242.85938 59.109375Q242.85938 59.5 243.17188 59.703125Q243.48438 59.90625 244.29688 60.09375Q245.10938 60.265625 245.60938 60.515625Q246.10938 60.765625 246.34375 61.125Q246.59375 61.484375 246.59375 61.984375Q246.59375 62.84375 245.90625 63.359375Q245.23438 63.875 244.15625 63.875Q243.39062 63.875 242.79688 63.609375Q242.21875 63.328125 241.89062 62.84375Q241.5625 62.359375 241.5625 61.796875L242.64062 61.796875Q242.67188 62.34375 243.07812 62.671875Q243.48438 62.984375 244.15625 62.984375Q244.76562 62.984375 245.14062 62.734375Q245.51562 62.484375 245.51562 62.0625Z" fill-rule="nonzero"/><path fill="#db4437" d="M263.0 54.25C263.0 53.697716 263.44772 53.25 264.0 53.25L274.0 53.25C274.55228 53.25 275.0 53.697716 275.0 54.25L275.0 64.25C275.0 64.802284 274.55228 65.25 274.0 65.25L264.0 65.25C263.44772 65.25 263.0 64.802284 263.0 64.25Z" fill-rule="nonzero"/><path fill="#757575" d="M286.15625 59.78125L285.10938 60.859375L285.10938 63.75L283.98438 63.75L283.98438 55.21875L285.10938 55.21875L285.10938 59.4375L288.90625 55.21875L290.26562 55.21875L286.90625 58.984375L290.53125 63.75L289.1875 63.75L286.15625 59.78125ZM293.0 63.75L291.92188 63.75L291.92188 57.40625L293.0 57.40625L293.0 63.75ZM291.82812 55.734375Q291.82812 55.46875 291.98438 55.28125Q292.15625 55.09375 292.46875 55.09375Q292.78125 55.09375 292.9375 55.28125Q293.10938 55.46875 293.10938 55.734375Q293.10938 55.984375 292.9375 56.171875Q292.78125 56.34375 292.46875 56.34375Q292.15625 56.34375 291.98438 56.171875Q291.82812 55.984375 291.82812 55.734375ZM296.0 63.75L294.92188 63.75L294.92188 54.75L296.0 54.75L296.0 63.75ZM297.53125 60.515625Q297.53125 59.59375 297.89062 58.84375Q298.26562 58.09375 298.92188 57.703125Q299.57812 57.296875 300.40625 57.296875Q301.70312 57.296875 302.5 58.1875Q303.3125 59.078125 303.3125 60.578125L303.3125 60.65625Q303.3125 61.578125 302.95312 62.3125Q302.59375 63.046875 301.9375 63.46875Q301.28125 63.875 300.42188 63.875Q299.14062 63.875 298.32812 62.984375Q297.53125 62.078125 297.53125 60.59375L297.53125 60.515625ZM298.625 60.65625Q298.625 61.703125 299.10938 62.34375Q299.60938 62.984375 300.42188 62.984375Q301.25 62.984375 301.73438 62.34375Q302.21875 61.6875 302.21875 60.515625Q302.21875 59.484375 301.71875 58.84375Q301.23438 58.1875 300.40625 58.1875Q299.60938 58.1875 299.10938 58.828125Q298.625 59.453125 298.625 60.65625ZM310.1875 60.65625Q310.1875 62.109375 309.51562 63.0Q308.85938 63.875 307.73438 63.875Q306.53125 63.875 305.875 63.015625L305.8125 63.75L304.82812 63.75L304.82812 54.75L305.90625 54.75L305.90625 58.109375Q306.5625 57.296875 307.71875 57.296875Q308.875 57.296875 309.53125 58.171875Q310.1875 59.03125 310.1875 60.5625L310.1875 60.65625ZM309.10938 60.53125Q309.10938 59.421875 308.67188 58.828125Q308.25 58.21875 307.45312 58.21875Q306.375 58.21875 305.90625 59.203125L305.90625 61.953125Q306.40625 62.953125 307.45312 62.953125Q308.23438 62.953125 308.67188 62.34375Q309.10938 61.734375 309.10938 60.53125ZM313.89062 62.15625L315.375 57.40625L316.53125 57.40625L313.98438 64.734375Q313.39062 66.3125 312.10938 66.3125L311.89062 66.296875L311.5 66.21875L311.5 65.34375L311.78125 65.359375Q312.34375 65.359375 312.64062 65.140625Q312.95312 64.921875 313.15625 64.328125L313.39062 63.671875L311.125 57.40625L312.3125 57.40625L313.89062 62.15625ZM319.29688 55.875L319.29688 57.40625L320.46875 57.40625L320.46875 58.25L319.29688 58.25L319.29688 62.171875Q319.29688 62.5625 319.45312 62.75Q319.60938 62.9375 319.98438 62.9375Q320.17188 62.9375 320.5 62.875L320.5 63.75Q320.07812 63.875 319.67188 63.875Q318.95312 63.875 318.57812 63.4375Q318.20312 62.984375 318.20312 62.171875L318.20312 58.25L317.04688 58.25L317.04688 57.40625L318.20312 57.40625L318.20312 55.875L319.29688 55.875ZM324.45312 63.875Q323.15625 63.875 322.34375 63.03125Q321.54688 62.171875 321.54688 60.75L321.54688 60.5625Q321.54688 59.609375 321.90625 58.875Q322.26562 58.125 322.90625 57.71875Q323.5625 57.296875 324.3125 57.296875Q325.54688 57.296875 326.23438 58.109375Q326.92188 58.921875 326.92188 60.4375L326.92188 60.890625L322.625 60.890625Q322.65625 61.828125 323.17188 62.40625Q323.70312 62.984375 324.51562 62.984375Q325.07812 62.984375 325.46875 62.75Q325.875 62.515625 326.1875 62.125L326.84375 62.640625Q326.04688 63.875 324.45312 63.875ZM324.3125 58.1875Q323.65625 58.1875 323.20312 58.671875Q322.76562 59.140625 322.67188 60.0L325.84375 60.0L325.84375 59.921875Q325.79688 59.09375 325.39062 58.640625Q325.0 58.1875 324.3125 58.1875ZM331.51562 62.0625Q331.51562 61.625 331.17188 61.390625Q330.84375 61.140625 330.01562 60.96875Q329.20312 60.796875 328.71875 60.546875Q328.23438 60.296875 328.0 59.96875Q327.78125 59.625 327.78125 59.15625Q327.78125 58.375 328.4375 57.84375Q329.09375 57.296875 330.125 57.296875Q331.20312 57.296875 331.85938 57.859375Q332.53125 58.40625 332.53125 59.265625L331.45312 59.265625Q331.45312 58.828125 331.0625 58.515625Q330.6875 58.1875 330.125 58.1875Q329.53125 58.1875 329.1875 58.453125Q328.85938 58.703125 328.85938 59.109375Q328.85938 59.5 329.17188 59.703125Q329.48438 59.90625 330.29688 60.09375Q331.10938 60.265625 331.60938 60.515625Q332.10938 60.765625 332.34375 61.125Q332.59375 61.484375 332.59375 61.984375Q332.59375 62.84375 331.90625 63.359375Q331.23438 63.875 330.15625 63.875Q329.39062 63.875 328.79688 63.609375Q328.21875 63.328125 327.89062 62.84375Q327.5625 62.359375 327.5625 61.796875L328.64062 61.796875Q328.67188 62.34375 329.07812 62.671875Q329.48438 62.984375 330.15625 62.984375Q330.76562 62.984375 331.14062 62.734375Q331.51562 62.484375 331.51562 62.0625ZM341.70312 61.515625L338.125 61.515625L337.32812 63.75L336.17188 63.75L339.42188 55.21875L340.40625 55.21875L343.67188 63.75L342.51562 63.75L341.70312 61.515625ZM338.46875 60.59375L341.375 60.59375L339.92188 56.609375L338.46875 60.59375ZM346.0 63.75L344.92188 63.75L344.92188 54.75L346.0 54.75L346.0 63.75ZM349.0 63.75L347.92188 63.75L347.92188 54.75L349.0 54.75L349.0 63.75ZM350.53125 60.515625Q350.53125 59.59375 350.89062 58.84375Q351.26562 58.09375 351.92188 57.703125Q352.57812 57.296875 353.40625 57.296875Q354.70312 57.296875 355.5 58.1875Q356.3125 59.078125 356.3125 60.578125L356.3125 60.65625Q356.3125 61.578125 355.95312 62.3125Q355.59375 63.046875 354.9375 63.46875Q354.28125 63.875 353.42188 63.875Q352.14062 63.875 351.32812 62.984375Q350.53125 62.078125 350.53125 60.59375L350.53125 60.515625ZM351.625 60.65625Q351.625 61.703125 352.10938 62.34375Q352.60938 62.984375 353.42188 62.984375Q354.25 62.984375 354.73438 62.34375Q355.21875 61.6875 355.21875 60.515625Q355.21875 59.484375 354.71875 58.84375Q354.23438 58.1875 353.40625 58.1875Q352.60938 58.1875 352.10938 58.828125Q351.625 59.453125 351.625 60.65625ZM360.35938 62.984375Q360.9375 62.984375 361.375 62.640625Q361.8125 62.28125 361.85938 61.75L362.89062 61.75Q362.85938 62.296875 362.5 62.796875Q362.15625 63.28125 361.57812 63.578125Q361.01562 63.875 360.35938 63.875Q359.0625 63.875 358.29688 63.015625Q357.54688 62.140625 357.54688 60.640625L357.54688 60.453125Q357.54688 59.53125 357.875 58.8125Q358.21875 58.09375 358.84375 57.703125Q359.48438 57.296875 360.35938 57.296875Q361.42188 57.296875 362.125 57.9375Q362.84375 58.5625 362.89062 59.59375L361.85938 59.59375Q361.8125 58.96875 361.39062 58.578125Q360.96875 58.1875 360.35938 58.1875Q359.53125 58.1875 359.07812 58.78125Q358.625 59.375 358.625 60.5L358.625 60.703125Q358.625 61.796875 359.07812 62.390625Q359.53125 62.984375 360.35938 62.984375ZM367.73438 63.75Q367.64062 63.5625 367.57812 63.078125Q366.82812 63.875 365.78125 63.875Q364.84375 63.875 364.23438 63.34375Q363.64062 62.8125 363.64062 61.984375Q363.64062 61.0 364.39062 60.453125Q365.14062 59.90625 366.51562 59.90625L367.5625 59.90625L367.5625 59.40625Q367.5625 58.84375 367.21875 58.515625Q366.89062 58.171875 366.21875 58.171875Q365.64062 58.171875 365.25 58.46875Q364.85938 58.75 364.85938 59.171875L363.76562 59.171875Q363.76562 58.6875 364.09375 58.25Q364.4375 57.8125 365.01562 57.5625Q365.59375 57.296875 366.28125 57.296875Q367.39062 57.296875 368.0 57.84375Q368.625 58.390625 368.65625 59.34375L368.65625 62.265625Q368.65625 63.140625 368.875 63.65625L368.875 63.75L367.73438 63.75ZM365.9375 62.921875Q366.45312 62.921875 366.90625 62.65625Q367.35938 62.390625 367.5625 61.96875L367.5625 60.671875L366.71875 60.671875Q364.71875 60.671875 364.71875 61.84375Q364.71875 62.34375 365.0625 62.640625Q365.40625 62.921875 365.9375 62.921875ZM372.29688 55.875L372.29688 57.40625L373.46875 57.40625L373.46875 58.25L372.29688 58.25L372.29688 62.171875Q372.29688 62.5625 372.45312 62.75Q372.60938 62.9375 372.98438 62.9375Q373.17188 62.9375 373.5 62.875L373.5 63.75Q373.07812 63.875 372.67188 63.875Q371.95312 63.875 371.57812 63.4375Q371.20312 62.984375 371.20312 62.171875L371.20312 58.25L370.04688 58.25L370.04688 57.40625L371.20312 57.40625L371.20312 55.875L372.29688 55.875ZM377.45312 63.875Q376.15625 63.875 375.34375 63.03125Q374.54688 62.171875 374.54688 60.75L374.54688 60.5625Q374.54688 59.609375 374.90625 58.875Q375.26562 58.125 375.90625 57.71875Q376.5625 57.296875 377.3125 57.296875Q378.54688 57.296875 379.23438 58.109375Q379.92188 58.921875 379.92188 60.4375L379.92188 60.890625L375.625 60.890625Q375.65625 61.828125 376.17188 62.40625Q376.70312 62.984375 377.51562 62.984375Q378.07812 62.984375 378.46875 62.75Q378.875 62.515625 379.1875 62.125L379.84375 62.640625Q379.04688 63.875 377.45312 63.875ZM377.3125 58.1875Q376.65625 58.1875 376.20312 58.671875Q375.76562 59.140625 375.67188 60.0L378.84375 60.0L378.84375 59.921875Q378.79688 59.09375 378.39062 58.640625Q378.0 58.1875 377.3125 58.1875ZM380.5625 60.53125Q380.5625 59.0625 381.25 58.1875Q381.9375 57.296875 383.0625 57.296875Q384.17188 57.296875 384.82812 58.046875L384.82812 54.75L385.90625 54.75L385.90625 63.75L384.90625 63.75L384.85938 63.0625Q384.20312 63.875 383.04688 63.875Q381.95312 63.875 381.25 62.96875Q380.5625 62.0625 380.5625 60.609375L380.5625 60.53125ZM381.64062 60.65625Q381.64062 61.734375 382.07812 62.34375Q382.53125 62.953125 383.3125 62.953125Q384.34375 62.953125 384.82812 62.015625L384.82812 59.109375Q384.34375 58.21875 383.32812 58.21875Q382.53125 58.21875 382.07812 58.828125Q381.64062 59.4375 381.64062 60.65625Z" fill-rule="nonzero"/><path fill="#757575" d="M20.18125 34.11875L26.93125 34.11875L26.93125 35.65L18.30625 35.65L18.30625 21.431252L20.18125 21.431252L20.18125 34.11875ZM30.978125 35.65L29.18125 35.65L29.18125 25.087502L30.978125 25.087502L30.978125 35.65ZM29.025 22.275002Q29.025 21.837502 29.290625 21.540627Q29.571875 21.228127 30.0875 21.228127Q30.61875 21.228127 30.884375 21.540627Q31.165625 21.837502 31.165625 22.275002Q31.165625 22.712502 30.884375 23.009377Q30.61875 23.306252 30.0875 23.306252Q29.571875 23.306252 29.290625 23.009377Q29.025 22.712502 29.025 22.275002ZM40.165627 32.853127Q40.165627 32.11875 39.61875 31.712502Q39.071877 31.306252 37.696877 31.009377Q36.321877 30.712502 35.509377 30.306252Q34.7125 29.900002 34.321877 29.337502Q33.946877 28.759377 33.946877 27.978127Q33.946877 26.681252 35.040627 25.790627Q36.134377 24.884377 37.853127 24.884377Q39.65 24.884377 40.759377 25.821877Q41.884377 26.743752 41.884377 28.181252L40.05625 28.181252Q40.05625 27.446877 39.43125 26.915627Q38.80625 26.368752 37.853127 26.368752Q36.853127 26.368752 36.290627 26.806252Q35.74375 27.228127 35.74375 27.931252Q35.74375 28.571877 36.259377 28.915627Q36.775 29.243752 38.134377 29.556252Q39.49375 29.853127 40.321877 30.275002Q41.165627 30.681252 41.571877 31.275002Q41.978127 31.868752 41.978127 32.7125Q41.978127 34.134377 40.8375 34.99375Q39.7125 35.853127 37.9 35.853127Q36.634377 35.853127 35.65 35.4Q34.68125 34.946877 34.11875 34.15Q33.571877 33.3375 33.571877 32.4L35.384377 32.4Q35.43125 33.30625 36.103127 33.8375Q36.790627 34.36875 37.9 34.36875Q38.93125 34.36875 39.540627 33.9625Q40.165627 33.540627 40.165627 32.853127ZM46.4625 22.525002L46.4625 25.087502L48.446877 25.087502L48.446877 26.478127L46.4625 26.478127L46.4625 33.025Q46.4625 33.665627 46.728127 33.99375Q46.99375 34.30625 47.634377 34.30625Q47.946877 34.30625 48.49375 34.18125L48.49375 35.65Q47.775 35.853127 47.103127 35.853127Q45.9 35.853127 45.275 35.11875Q44.665627 34.384377 44.665627 33.025L44.665627 26.478127L42.74375 26.478127L42.74375 25.087502L44.665627 25.087502L44.665627 22.525002L46.4625 22.525002ZM59.509377 33.196877L62.11875 25.087502L63.9625 25.087502L60.18125 35.65L58.80625 35.65L54.978127 25.087502L56.821877 25.087502L59.509377 33.196877ZM72.16563 32.853127Q72.16563 32.11875 71.61875 31.712502Q71.07188 31.306252 69.69688 31.009377Q68.32188 30.712502 67.50938 30.306252Q66.7125 29.900002 66.32188 29.337502Q65.94688 28.759377 65.94688 27.978127Q65.94688 26.681252 67.04063 25.790627Q68.13438 24.884377 69.85313 24.884377Q71.65 24.884377 72.75938 25.821877Q73.88438 26.743752 73.88438 28.181252L72.05625 28.181252Q72.05625 27.446877 71.43125 26.915627Q70.80625 26.368752 69.85313 26.368752Q68.85313 26.368752 68.29063 26.806252Q67.74375 27.228127 67.74375 27.931252Q67.74375 28.571877 68.25938 28.915627Q68.775 29.243752 70.13438 29.556252Q71.49375 29.853127 72.32188 30.275002Q73.16563 30.681252 73.57188 31.275002Q73.97813 31.868752 73.97813 32.7125Q73.97813 34.134377 72.8375 34.99375Q71.7125 35.853127 69.9 35.853127Q68.63438 35.853127 67.65 35.4Q66.68125 34.946877 66.11875 34.15Q65.57188 33.3375 65.57188 32.4L67.38438 32.4Q67.43125 33.30625 68.10313 33.8375Q68.79063 34.36875 69.9 34.36875Q70.93125 34.36875 71.54063 33.9625Q72.16563 33.540627 72.16563 32.853127ZM83.18125 30.087502L83.18125 35.65L81.30625 35.65L81.30625 21.431252L86.54063 21.431252Q88.88438 21.431252 90.19688 22.618752Q91.525 23.806252 91.525 25.775002Q91.525 27.853127 90.22813 28.978127Q88.93125 30.087502 86.525 30.087502L83.18125 30.087502ZM83.18125 28.556252L86.54063 28.556252Q88.05625 28.556252 88.85313 27.853127Q89.65 27.134377 89.65 25.790627Q89.65 24.525002 88.85313 23.775002Q88.05625 23.009377 86.65 22.978127L83.18125 22.978127L83.18125 28.556252ZM93.54063 30.275002Q93.54063 28.712502 94.15 27.478127Q94.75938 26.228127 95.8375 25.556252Q96.93125 24.884377 98.3375 24.884377Q100.49375 24.884377 101.82188 26.384377Q103.16563 27.868752 103.16563 30.353127L103.16563 30.478127Q103.16563 32.025 102.57188 33.259377Q101.97813 34.478127 100.86875 35.165627Q99.775 35.853127 98.35313 35.853127Q96.2125 35.853127 94.86875 34.353127Q93.54063 32.853127 93.54063 30.400002L93.54063 30.275002ZM95.35313 30.478127Q95.35313 32.24375 96.16563 33.30625Q96.99375 34.36875 98.35313 34.36875Q99.72813 34.36875 100.54063 33.290627Q101.35313 32.2125 101.35313 30.275002Q101.35313 28.525002 100.525 27.446877Q99.69688 26.368752 98.3375 26.368752Q96.99375 26.368752 96.16563 27.431252Q95.35313 28.493752 95.35313 30.478127ZM104.54063 30.275002Q104.54063 28.712502 105.15 27.478127Q105.75938 26.228127 106.8375 25.556252Q107.93125 24.884377 109.3375 24.884377Q111.49375 24.884377 112.82188 26.384377Q114.16563 27.868752 114.16563 30.353127L114.16563 30.478127Q114.16563 32.025 113.57188 33.259377Q112.97813 34.478127 111.86875 35.165627Q110.775 35.853127 109.35313 35.853127Q107.2125 35.853127 105.86875 34.353127Q104.54063 32.853127 104.54063 30.400002L104.54063 30.275002ZM106.35313 30.478127Q106.35313 32.24375 107.16563 33.30625Q107.99375 34.36875 109.35313 34.36875Q110.72813 34.36875 111.54063 33.290627Q112.35313 32.2125 112.35313 30.275002Q112.35313 28.525002 111.525 27.446877Q110.69688 26.368752 109.3375 26.368752Q107.99375 26.368752 107.16563 27.431252Q106.35313 28.493752 106.35313 30.478127ZM117.97813 35.65L116.18125 35.65L116.18125 20.650002L117.97813 20.650002L117.97813 35.65ZM125.4 35.853127Q123.25938 35.853127 121.9 34.446877Q120.55625 33.025 120.55625 30.665627L120.55625 30.321877Q120.55625 28.759377 121.15 27.525002Q121.75938 26.290627 122.8375 25.587502Q123.91563 24.884377 125.18125 24.884377Q127.24375 24.884377 128.38437 26.243752Q129.525 27.603127 129.525 30.134377L129.525 30.884377L122.36875 30.884377Q122.4 32.446877 123.275 33.415627Q124.15 34.36875 125.49375 34.36875Q126.4625 34.36875 127.11875 33.978127Q127.79063 33.5875 128.29062 32.946877L129.38437 33.80625Q128.05624 35.853127 125.4 35.853127ZM125.18125 26.368752Q124.0875 26.368752 123.3375 27.165627Q122.60313 27.962502 122.43125 29.400002L127.7125 29.400002L127.7125 29.259377Q127.63438 27.884377 126.9625 27.134377Q126.30625 26.368752 125.18125 26.368752ZM131.57187 30.275002Q131.57187 27.853127 132.72812 26.368752Q133.88437 24.884377 135.74374 24.884377Q137.60312 24.884377 138.68124 26.150002L138.68124 20.650002L140.49374 20.650002L140.49374 35.65L138.8375 35.65L138.74374 34.509377Q137.66562 35.853127 135.72812 35.853127Q133.9 35.853127 132.72812 34.353127Q131.57187 32.8375 131.57187 30.415627L131.57187 30.275002ZM133.38437 30.478127Q133.38437 32.275 134.11874 33.290627Q134.86874 34.30625 136.18124 34.30625Q137.9 34.30625 138.68124 32.775L138.68124 27.915627Q137.88437 26.415627 136.19687 26.415627Q134.86874 26.415627 134.11874 27.446877Q133.38437 28.478127 133.38437 30.478127ZM145.18124 34.11875L151.93124 34.11875L151.93124 35.65L143.30624 35.65L143.30624 21.431252L145.18124 21.431252L145.18124 34.11875ZM155.97812 35.65L154.18124 35.65L154.18124 25.087502L155.97812 25.087502L155.97812 35.65ZM154.025 22.275002Q154.025 21.837502 154.29062 21.540627Q154.57187 21.228127 155.0875 21.228127Q155.61874 21.228127 155.88437 21.540627Q156.16562 21.837502 156.16562 22.275002Q156.16562 22.712502 155.88437 23.009377Q155.61874 23.306252 155.0875 23.306252Q154.57187 23.306252 154.29062 23.009377Q154.025 22.712502 154.025 22.275002ZM165.16562 32.853127Q165.16562 32.11875 164.61874 31.712502Q164.07187 31.306252 162.69687 31.009377Q161.32187 30.712502 160.50937 30.306252Q159.7125 29.900002 159.32187 29.337502Q158.94687 28.759377 158.94687 27.978127Q158.94687 26.681252 160.04062 25.790627Q161.13437 24.884377 162.85312 24.884377Q164.65 24.884377 165.75937 25.821877Q166.88437 26.743752 166.88437 28.181252L165.05624 28.181252Q165.05624 27.446877 164.43124 26.915627Q163.80624 26.368752 162.85312 26.368752Q161.85312 26.368752 161.29062 26.806252Q160.74374 27.228127 160.74374 27.931252Q160.74374 28.571877 161.25937 28.915627Q161.775 29.243752 163.13437 29.556252Q164.49374 29.853127 165.32187 30.275002Q166.16562 30.681252 166.57187 31.275002Q166.97812 31.868752 166.97812 32.7125Q166.97812 34.134377 165.8375 34.99375Q164.7125 35.853127 162.9 35.853127Q161.63437 35.853127 160.65 35.4Q159.68124 34.946877 159.11874 34.15Q158.57187 33.3375 158.57187 32.4L160.38437 32.4Q160.43124 33.30625 161.10312 33.8375Q161.79062 34.36875 162.9 34.36875Q163.93124 34.36875 164.54062 33.9625Q165.16562 33.540627 165.16562 32.853127ZM171.4625 22.525002L171.4625 25.087502L173.44687 25.087502L173.44687 26.478127L171.4625 26.478127L171.4625 33.025Q171.4625 33.665627 171.72812 33.99375Q171.99374 34.30625 172.63437 34.30625Q172.94687 34.30625 173.49374 34.18125L173.49374 35.65Q172.775 35.853127 172.10312 35.853127Q170.9 35.853127 170.275 35.11875Q169.66562 34.384377 169.66562 33.025L169.66562 26.478127L167.74374 26.478127L167.74374 25.087502L169.66562 25.087502L169.66562 22.525002L171.4625 22.525002ZM176.05624 34.696877Q176.05624 34.228127 176.3375 33.915627Q176.61874 33.603127 177.16562 33.603127Q177.72812 33.603127 178.00937 33.915627Q178.30624 34.228127 178.30624 34.696877Q178.30624 35.15 178.00937 35.4625Q177.72812 35.759377 177.16562 35.759377Q176.61874 35.759377 176.3375 35.4625Q176.05624 35.15 176.05624 34.696877ZM176.05624 25.696877Q176.05624 25.228127 176.3375 24.915627Q176.61874 24.603127 177.16562 24.603127Q177.72812 24.603127 178.00937 24.915627Q178.30624 25.228127 178.30624 25.696877Q178.30624 26.150002 178.00937 26.462502Q177.72812 26.759377 177.16562 26.759377Q176.61874 26.759377 176.3375 26.462502Q176.05624 26.150002 176.05624 25.696877ZM194.15 31.931252L188.19687 31.931252L186.85312 35.65L184.93124 35.65L190.35312 21.431252L191.99374 21.431252L197.43124 35.65L195.50937 35.65L194.15 31.931252ZM188.75937 30.400002L193.60312 30.400002L191.18124 23.743752L188.75937 30.400002ZM198.57187 30.275002Q198.57187 27.853127 199.72812 26.368752Q200.88437 24.884377 202.74374 24.884377Q204.60312 24.884377 205.68124 26.150002L205.68124 20.650002L207.49374 20.650002L207.49374 35.65L205.8375 35.65L205.74374 34.509377Q204.66562 35.853127 202.72812 35.853127Q200.9 35.853127 199.72812 34.353127Q198.57187 32.8375 198.57187 30.415627L198.57187 30.275002ZM200.38437 30.478127Q200.38437 32.275 201.11874 33.290627Q201.86874 34.30625 203.18124 34.30625Q204.9 34.30625 205.68124 32.775L205.68124 27.915627Q204.88437 26.415627 203.19687 26.415627Q201.86874 26.415627 201.11874 27.446877Q200.38437 28.478127 200.38437 30.478127ZM209.57187 30.275002Q209.57187 27.853127 210.72812 26.368752Q211.88437 24.884377 213.74374 24.884377Q215.60312 24.884377 216.68124 26.150002L216.68124 20.650002L218.49374 20.650002L218.49374 35.65L216.8375 35.65L216.74374 34.509377Q215.66562 35.853127 213.72812 35.853127Q211.9 35.853127 210.72812 34.353127Q209.57187 32.8375 209.57187 30.415627L209.57187 30.275002ZM211.38437 30.478127Q211.38437 32.275 212.11874 33.290627Q212.86874 34.30625 214.18124 34.30625Q215.9 34.30625 216.68124 32.775L216.68124 27.915627Q215.88437 26.415627 214.19687 26.415627Q212.86874 26.415627 212.11874 27.446877Q211.38437 28.478127 211.38437 30.478127Z" fill-rule="nonzero"/></svg>