<svg version="1.1" viewBox="0.0 0.0 600.0 371.0" fill="none" stroke="none" stroke-linecap="square" stroke-miterlimit="10" width="600" height="371" xmlns:xlink="http://www.w3.org/1999/xlink" xmlns="http://www.w3.org/2000/svg"><path fill="#ffffff" d="M0 0L600.0 0L600.0 371.0L0 371.0L0 0Z" fill-rule="nonzero"/><path fill="#ffffff" d="M0 0L600.0 0L600.0 371.0L0 371.0L0 0Z" fill-rule="nonzero"/><path stroke="#333333" stroke-width="1.0" stroke-linecap="butt" d="M45.5 331.5L581.5 331.5" fill-rule="nonzero"/><path stroke="#cccccc" stroke-width="1.0" stroke-linecap="butt" d="M45.5 250.5L581.5 250.5" fill-rule="nonzero"/><path stroke="#cccccc" stroke-width="1.0" stroke-linecap="butt" d="M45.5 170.5L581.5 170.5" fill-rule="nonzero"/><path stroke="#cccccc" stroke-width="1.0" stroke-linecap="butt" d="M45.5 89.5L581.5 89.5" fill-rule="nonzero"/><clipPath id="id_0"><path d="M45.55 89.78333L581.45 89.78333L581.45 331.45L45.55 331.45L45.55 89.78333Z" clip-rule="nonzero"/></clipPath><path stroke="#000000" stroke-width="0.0" stroke-linecap="butt" stroke-opacity="0.0" clip-path="url(#id_0)" d="M198.0 331.0L125.0 331.0L125.0 244.0C125.0 242.89543 125.89543 242.0 127.0 242.0L196.0 242.0C197.10457 242.0 198.0 242.89543 198.0 244.0Z" fill-rule="nonzero"/><path fill="#4285f4" clip-path="url(#id_0)" d="M198.0 331.0L125.0 331.0L125.0 244.0C125.0 242.89543 125.89543 242.0 127.0 242.0L196.0 242.0C197.10457 242.0 198.0 242.89543 198.0 244.0Z" fill-rule="nonzero"/><path stroke="#000000" stroke-width="0.0" stroke-linecap="butt" stroke-opacity="0.0" clip-path="url(#id_0)" d="M427.0 331.0L354.0 331.0L354.0 304.0C354.0 302.89542 354.89542 302.0 356.0 302.0L425.0 302.0C426.10458 302.0 427.0 302.89542 427.0 304.0Z" fill-rule="nonzero"/><path fill="#4285f4" clip-path="url(#id_0)" d="M427.0 331.0L354.0 331.0L354.0 304.0C354.0 302.89542 354.89542 302.0 356.0 302.0L425.0 302.0C426.10458 302.0 427.0 302.89542 427.0 304.0Z" fill-rule="nonzero"/><path stroke="#000000" stroke-width="0.0" stroke-linecap="butt" stroke-opacity="0.0" clip-path="url(#id_0)" d="M272.0 331.0L199.0 331.0L199.0 122.0C199.0 120.89543 199.89543 120.0 201.0 120.0L270.0 120.0C271.10458 120.0 272.0 120.89543 272.0 122.0Z" fill-rule="nonzero"/><path fill="#db4437" clip-path="url(#id_0)" d="M272.0 331.0L199.0 331.0L199.0 122.0C199.0 120.89543 199.89543 120.0 201.0 120.0L270.0 120.0C271.10458 120.0 272.0 120.89543 272.0 122.0Z" fill-rule="nonzero"/><path stroke="#000000" stroke-width="0.0" stroke-linecap="butt" stroke-opacity="0.0" clip-path="url(#id_0)" d="M501.0 331.0L428.0 331.0L428.0 331.0C428.0 331.0 428.0 331.0 428.0 331.0L501.0 331.0C501.0 331.0 501.0 331.0 501.0 331.0Z" fill-rule="nonzero"/><path fill="#db4437" clip-path="url(#id_0)" d="M501.0 331.0L428.0 331.0L428.0 331.0C428.0 331.0 428.0 331.0 428.0 331.0L501.0 331.0C501.0 331.0 501.0 331.0 501.0 331.0Z" fill-rule="nonzero"/><path fill="#757575" d="M38.6125 332.3094Q38.6125 334.21564 37.95625 335.15314Q37.315624 336.075 35.925 336.075Q34.565624 336.075 33.909374 335.16876Q33.253124 334.2625 33.221874 332.45L33.221874 331.0125Q33.221874 329.1219 33.8625 328.21564Q34.51875 327.29376 35.909374 327.29376Q37.284374 327.29376 37.940624 328.1844Q38.596874 329.0594 38.6125 330.90314L38.6125 332.3094ZM37.51875 330.825Q37.51875 329.45 37.128124 328.825Q36.753124 328.1844 35.909374 328.1844Q35.08125 328.1844 34.690624 328.825Q34.315624 329.45 34.315624 330.7469L34.315624 332.48126Q34.315624 333.85626 34.70625 334.52814Q35.1125 335.1844 35.925 335.1844Q36.721874 335.1844 37.1125 334.5594Q37.503124 333.9344 37.51875 332.60626L37.51875 330.825Z" fill-rule="nonzero"/><path fill="#757575" d="M22.815624 255.39444L21.7375 255.39444L21.7375 248.17569L19.55 248.97256L19.55 247.98819L22.659374 246.81631L22.815624 246.81631L22.815624 255.39444ZM31.6125 251.75381Q31.6125 253.66006 30.95625 254.59756Q30.315624 255.51944 28.925 255.51944Q27.565624 255.51944 26.909374 254.61319Q26.253124 253.70694 26.221874 251.89444L26.221874 250.45694Q26.221874 248.56631 26.8625 247.66006Q27.51875 246.73819 28.909374 246.73819Q30.284374 246.73819 30.940624 247.62881Q31.596874 248.50381 31.6125 250.34756L31.6125 251.75381ZM30.51875 250.26944Q30.51875 248.89444 30.128124 248.26944Q29.753124 247.62881 28.909374 247.62881Q28.08125 247.62881 27.690624 248.26944Q27.315624 248.89444 27.315624 250.19131L27.315624 251.92569Q27.315624 253.30069 27.70625 253.97256Q28.1125 254.62881 28.925 254.62881Q29.721874 254.62881 30.1125 254.00381Q30.503124 253.37881 30.51875 252.05069L30.51875 250.26944ZM38.6125 251.75381Q38.6125 253.66006 37.95625 254.59756Q37.315624 255.51944 35.925 255.51944Q34.565624 255.51944 33.909374 254.61319Q33.253124 253.70694 33.221874 251.89444L33.221874 250.45694Q33.221874 248.56631 33.8625 247.66006Q34.51875 246.73819 35.909374 246.73819Q37.284374 246.73819 37.940624 247.62881Q38.596874 248.50381 38.6125 250.34756L38.6125 251.75381ZM37.51875 250.26944Q37.51875 248.89444 37.128124 248.26944Q36.753124 247.62881 35.909374 247.62881Q35.08125 247.62881 34.690624 248.26944Q34.315624 248.89444 34.315624 250.19131L34.315624 251.92569Q34.315624 253.30069 34.70625 253.97256Q35.1125 254.62881 35.925 254.62881Q36.721874 254.62881 37.1125 254.00381Q37.503124 253.37881 37.51875 252.05069L37.51875 250.26944Z" fill-rule="nonzero"/><path fill="#757575" d="M24.846874 174.83888L19.253124 174.83888L19.253124 174.05763L22.20625 170.77638Q22.8625 170.02638 23.1125 169.57326Q23.3625 169.1045 23.3625 168.6045Q23.3625 167.93263 22.95625 167.51076Q22.565624 167.07326 21.878124 167.07326Q21.08125 167.07326 20.628124 167.542Q20.175 167.99513 20.175 168.82326L19.096874 168.82326Q19.096874 167.63576 19.846874 166.917Q20.6125 166.18263 21.878124 166.18263Q23.08125 166.18263 23.76875 166.80763Q24.45625 167.43263 24.45625 168.4795Q24.45625 169.7295 22.846874 171.4795L20.565624 173.94826L24.846874 173.94826L24.846874 174.83888ZM31.6125 171.19826Q31.6125 173.1045 30.95625 174.042Q30.315624 174.96388 28.925 174.96388Q27.565624 174.96388 26.909374 174.05763Q26.253124 173.15138 26.221874 171.33888L26.221874 169.90138Q26.221874 168.01076 26.8625 167.1045Q27.51875 166.18263 28.909374 166.18263Q30.284374 166.18263 30.940624 167.07326Q31.596874 167.94826 31.6125 169.792L31.6125 171.19826ZM30.51875 169.71388Q30.51875 168.33888 30.128124 167.71388Q29.753124 167.07326 28.909374 167.07326Q28.08125 167.07326 27.690624 167.71388Q27.315624 168.33888 27.315624 169.63576L27.315624 171.37013Q27.315624 172.74513 27.70625 173.417Q28.1125 174.07326 28.925 174.07326Q29.721874 174.07326 30.1125 173.44826Q30.503124 172.82326 30.51875 171.49513L30.51875 169.71388ZM38.6125 171.19826Q38.6125 173.1045 37.95625 174.042Q37.315624 174.96388 35.925 174.96388Q34.565624 174.96388 33.909374 174.05763Q33.253124 173.15138 33.221874 171.33888L33.221874 169.90138Q33.221874 168.01076 33.8625 167.1045Q34.51875 166.18263 35.909374 166.18263Q37.284374 166.18263 37.940624 167.07326Q38.596874 167.94826 38.6125 169.792L38.6125 171.19826ZM37.51875 169.71388Q37.51875 168.33888 37.128124 167.71388Q36.753124 167.07326 35.909374 167.07326Q35.08125 167.07326 34.690624 167.71388Q34.315624 168.33888 34.315624 169.63576L34.315624 171.37013Q34.315624 172.74513 34.70625 173.417Q35.1125 174.07326 35.925 174.07326Q36.721874 174.07326 37.1125 173.44826Q37.503124 172.82326 37.51875 171.49513L37.51875 169.71388Z" fill-rule="nonzero"/><path fill="#757575" d="M20.83125 89.48646L21.64375 89.48646Q22.425 89.47083 22.8625 89.08021Q23.3 88.68958 23.3 88.01771Q23.3 86.51771 21.8 86.51771Q21.096874 86.51771 20.675 86.92396Q20.26875 87.33021 20.26875 87.98646L19.175 87.98646Q19.175 86.97083 19.909374 86.29896Q20.659374 85.62708 21.8 85.62708Q23.003124 85.62708 23.690624 86.26771Q24.378124 86.90833 24.378124 88.04896Q24.378124 88.61146 24.01875 89.12708Q23.659374 89.64271 23.034374 89.90833Q23.7375 90.12708 24.1125 90.64271Q24.503124 91.15833 24.503124 91.90833Q24.503124 93.04896 23.753124 93.73646Q23.003124 94.40833 21.8 94.40833Q20.6125 94.40833 19.846874 93.75208Q19.096874 93.09583 19.096874 92.03333L20.190624 92.03333Q20.190624 92.70521 20.628124 93.11146Q21.065624 93.51771 21.815624 93.51771Q22.596874 93.51771 23.003124 93.11146Q23.425 92.68958 23.425 91.92396Q23.425 91.18958 22.971874 90.79896Q22.51875 90.39271 21.64375 90.37708L20.83125 90.37708L20.83125 89.48646ZM31.6125 90.64271Q31.6125 92.54896 30.95625 93.48646Q30.315624 94.40833 28.925 94.40833Q27.565624 94.40833 26.909374 93.50208Q26.253124 92.59583 26.221874 90.78333L26.221874 89.34583Q26.221874 87.45521 26.8625 86.54896Q27.51875 85.62708 28.909374 85.62708Q30.284374 85.62708 30.940624 86.51771Q31.596874 87.39271 31.6125 89.23646L31.6125 90.64271ZM30.51875 89.15833Q30.51875 87.78333 30.128124 87.15833Q29.753124 86.51771 28.909374 86.51771Q28.08125 86.51771 27.690624 87.15833Q27.315624 87.78333 27.315624 89.08021L27.315624 90.81458Q27.315624 92.18958 27.70625 92.86146Q28.1125 93.51771 28.925 93.51771Q29.721874 93.51771 30.1125 92.89271Q30.503124 92.26771 30.51875 90.93958L30.51875 89.15833ZM38.6125 90.64271Q38.6125 92.54896 37.95625 93.48646Q37.315624 94.40833 35.925 94.40833Q34.565624 94.40833 33.909374 93.50208Q33.253124 92.59583 33.221874 90.78333L33.221874 89.34583Q33.221874 87.45521 33.8625 86.54896Q34.51875 85.62708 35.909374 85.62708Q37.284374 85.62708 37.940624 86.51771Q38.596874 87.39271 38.6125 89.23646L38.6125 90.64271ZM37.51875 89.15833Q37.51875 87.78333 37.128124 87.15833Q36.753124 86.51771 35.909374 86.51771Q35.08125 86.51771 34.690624 87.15833Q34.315624 87.78333 34.315624 89.08021L34.315624 90.81458Q34.315624 92.18958 34.70625 92.86146Q35.1125 93.51771 35.925 93.51771Q36.721874 93.51771 37.1125 92.89271Q37.503124 92.26771 37.51875 90.93958L37.51875 89.15833Z" fill-rule="nonzero"/><path fill="#757575" d="M130.60373 348.52814L134.6506 348.52814L134.6506 349.45L129.4631 349.45L129.4631 340.91876L130.60373 340.91876L130.60373 348.52814ZM136.47873 349.45L135.4006 349.45L135.4006 343.10626L136.47873 343.10626L136.47873 349.45ZM135.30685 341.4344Q135.30685 341.16876 135.4631 340.98126Q135.63498 340.79376 135.94748 340.79376Q136.25998 340.79376 136.41623 340.98126Q136.5881 341.16876 136.5881 341.4344Q136.5881 341.6844 136.41623 341.8719Q136.25998 342.04376 135.94748 342.04376Q135.63498 342.04376 135.4631 341.8719Q135.30685 341.6844 135.30685 341.4344ZM141.99435 347.7625Q141.99435 347.325 141.6506 347.09064Q141.32248 346.84064 140.49435 346.66876Q139.68185 346.4969 139.19748 346.2469Q138.7131 345.9969 138.47873 345.66876Q138.25998 345.325 138.25998 344.85626Q138.25998 344.075 138.91623 343.54376Q139.57248 342.9969 140.60373 342.9969Q141.68185 342.9969 142.3381 343.5594Q143.00998 344.10626 143.00998 344.96564L141.93185 344.96564Q141.93185 344.52814 141.54123 344.21564Q141.16623 343.8875 140.60373 343.8875Q140.00998 343.8875 139.66623 344.15314Q139.3381 344.40314 139.3381 344.8094Q139.3381 345.2 139.6506 345.40314Q139.9631 345.60626 140.7756 345.79376Q141.5881 345.96564 142.0881 346.21564Q142.5881 346.46564 142.82248 346.825Q143.07248 347.1844 143.07248 347.6844Q143.07248 348.54376 142.38498 349.0594Q141.7131 349.575 140.63498 349.575Q139.86935 349.575 139.2756 349.3094Q138.69748 349.02814 138.36935 348.54376Q138.04123 348.0594 138.04123 347.4969L139.11935 347.4969Q139.1506 348.04376 139.55685 348.3719Q139.9631 348.6844 140.63498 348.6844Q141.24435 348.6844 141.61935 348.4344Q141.99435 348.1844 141.99435 347.7625ZM145.7756 341.575L145.7756 343.10626L146.94748 343.10626L146.94748 343.95L145.7756 343.95L145.7756 347.8719Q145.7756 348.2625 145.93185 348.45Q146.0881 348.6375 146.4631 348.6375Q146.6506 348.6375 146.97873 348.575L146.97873 349.45Q146.55685 349.575 146.1506 349.575Q145.43185 349.575 145.05685 349.1375Q144.68185 348.6844 144.68185 347.8719L144.68185 343.95L143.5256 343.95L143.5256 343.10626L144.68185 343.10626L144.68185 341.575L145.7756 341.575ZM153.18185 347.21564L149.60373 347.21564L148.80685 349.45L147.6506 349.45L150.9006 340.91876L151.88498 340.91876L155.1506 349.45L153.99435 349.45L153.18185 347.21564ZM149.94748 346.29376L152.85373 346.29376L151.4006 342.3094L149.94748 346.29376ZM156.04123 346.23126Q156.04123 344.7625 156.72873 343.8875Q157.41623 342.9969 158.54123 342.9969Q159.6506 342.9969 160.30685 343.7469L160.30685 340.45L161.38498 340.45L161.38498 349.45L160.38498 349.45L160.3381 348.7625Q159.68185 349.575 158.5256 349.575Q157.43185 349.575 156.72873 348.66876Q156.04123 347.7625 156.04123 346.3094L156.04123 346.23126ZM157.11935 346.35626Q157.11935 347.4344 157.55685 348.04376Q158.00998 348.65314 158.79123 348.65314Q159.82248 348.65314 160.30685 347.71564L160.30685 344.8094Q159.82248 343.91876 158.80685 343.91876Q158.00998 343.91876 157.55685 344.52814Q157.11935 345.1375 157.11935 346.35626ZM163.04123 346.23126Q163.04123 344.7625 163.72873 343.8875Q164.41623 342.9969 165.54123 342.9969Q166.6506 342.9969 167.30685 343.7469L167.30685 340.45L168.38498 340.45L168.38498 349.45L167.38498 349.45L167.3381 348.7625Q166.68185 349.575 165.5256 349.575Q164.43185 349.575 163.72873 348.66876Q163.04123 347.7625 163.04123 346.3094L163.04123 346.23126ZM164.11935 346.35626Q164.11935 347.4344 164.55685 348.04376Q165.00998 348.65314 165.79123 348.65314Q166.82248 348.65314 167.30685 347.71564L167.30685 344.8094Q166.82248 343.91876 165.80685 343.91876Q165.00998 343.91876 164.55685 344.52814Q164.11935 345.1375 164.11935 346.35626ZM174.86935 350.34064L169.50998 350.34064L169.50998 349.45L174.86935 349.45L174.86935 350.34064ZM178.29123 347.95L180.72873 340.91876L181.9631 340.91876L178.79123 349.45L177.80685 349.45L174.6506 340.91876L175.86935 340.91876L178.29123 347.95ZM187.2131 349.45Q187.11935 349.2625 187.05685 348.77814Q186.30685 349.575 185.25998 349.575Q184.32248 349.575 183.7131 349.04376Q183.11935 348.5125 183.11935 347.6844Q183.11935 346.7 183.86935 346.15314Q184.61935 345.60626 185.99435 345.60626L187.04123 345.60626L187.04123 345.10626Q187.04123 344.54376 186.69748 344.21564Q186.36935 343.8719 185.69748 343.8719Q185.11935 343.8719 184.72873 344.16876Q184.3381 344.45 184.3381 344.8719L183.24435 344.8719Q183.24435 344.3875 183.57248 343.95Q183.91623 343.5125 184.49435 343.2625Q185.07248 342.9969 185.75998 342.9969Q186.86935 342.9969 187.47873 343.54376Q188.10373 344.09064 188.13498 345.04376L188.13498 347.96564Q188.13498 348.84064 188.35373 349.35626L188.35373 349.45L187.2131 349.45ZM185.41623 348.6219Q185.93185 348.6219 186.38498 348.35626Q186.8381 348.09064 187.04123 347.66876L187.04123 346.3719L186.19748 346.3719Q184.19748 346.3719 184.19748 347.54376Q184.19748 348.04376 184.54123 348.34064Q184.88498 348.6219 185.41623 348.6219ZM191.47873 349.45L190.4006 349.45L190.4006 340.45L191.47873 340.45L191.47873 349.45ZM197.2131 348.825Q196.5881 349.575 195.35373 349.575Q194.3381 349.575 193.80685 348.98126Q193.2756 348.3875 193.2756 347.23126L193.2756 343.10626L194.35373 343.10626L194.35373 347.2Q194.35373 348.65314 195.5256 348.65314Q196.7756 348.65314 197.18185 347.71564L197.18185 343.10626L198.2756 343.10626L198.2756 349.45L197.24435 349.45L197.2131 348.825ZM202.93185 349.575Q201.63498 349.575 200.82248 348.73126Q200.0256 347.8719 200.0256 346.45L200.0256 346.2625Q200.0256 345.3094 200.38498 344.575Q200.74435 343.825 201.38498 343.41876Q202.04123 342.9969 202.79123 342.9969Q204.0256 342.9969 204.7131 343.8094Q205.4006 344.6219 205.4006 346.1375L205.4006 346.59064L201.10373 346.59064Q201.13498 347.52814 201.6506 348.10626Q202.18185 348.6844 202.99435 348.6844Q203.55685 348.6844 203.94748 348.45Q204.35373 348.21564 204.66623 347.825L205.32248 348.34064Q204.5256 349.575 202.93185 349.575ZM202.79123 343.8875Q202.13498 343.8875 201.68185 344.3719Q201.24435 344.84064 201.1506 345.7L204.32248 345.7L204.32248 345.6219Q204.2756 344.79376 203.86935 344.34064Q203.47873 343.8875 202.79123 343.8875ZM212.36935 341.84064L209.61935 341.84064L209.61935 349.45L208.50998 349.45L208.50998 341.84064L205.75998 341.84064L205.75998 340.91876L212.36935 340.91876L212.36935 341.84064ZM215.36935 347.85626L216.85373 343.10626L218.00998 343.10626L215.4631 350.4344Q214.86935 352.0125 213.5881 352.0125L213.36935 351.9969L212.97873 351.91876L212.97873 351.04376L213.25998 351.0594Q213.82248 351.0594 214.11935 350.84064Q214.43185 350.6219 214.63498 350.02814L214.86935 349.3719L212.60373 343.10626L213.79123 343.10626L215.36935 347.85626ZM224.6506 346.35626Q224.6506 347.79376 223.99435 348.6844Q223.3381 349.575 222.19748 349.575Q221.04123 349.575 220.38498 348.84064L220.38498 351.8875L219.30685 351.8875L219.30685 343.10626L220.29123 343.10626L220.3381 343.8094Q221.00998 342.9969 222.18185 342.9969Q223.32248 342.9969 223.97873 343.85626Q224.6506 344.71564 224.6506 346.2469L224.6506 346.35626ZM223.57248 346.23126Q223.57248 345.15314 223.10373 344.54376Q222.6506 343.91876 221.85373 343.91876Q220.86935 343.91876 220.38498 344.77814L220.38498 347.8094Q220.86935 348.6844 221.86935 348.6844Q222.6506 348.6844 223.10373 348.075Q223.57248 347.45 223.57248 346.23126ZM228.93185 349.575Q227.63498 349.575 226.82248 348.73126Q226.0256 347.8719 226.0256 346.45L226.0256 346.2625Q226.0256 345.3094 226.38498 344.575Q226.74435 343.825 227.38498 343.41876Q228.04123 342.9969 228.79123 342.9969Q230.0256 342.9969 230.7131 343.8094Q231.4006 344.6219 231.4006 346.1375L231.4006 346.59064L227.10373 346.59064Q227.13498 347.52814 227.6506 348.10626Q228.18185 348.6844 228.99435 348.6844Q229.55685 348.6844 229.94748 348.45Q230.35373 348.21564 230.66623 347.825L231.32248 348.34064Q230.5256 349.575 228.93185 349.575ZM228.79123 343.8875Q228.13498 343.8875 227.68185 344.3719Q227.24435 344.84064 227.1506 345.7L230.32248 345.7L230.32248 345.6219Q230.2756 344.79376 229.86935 344.34064Q229.47873 343.8875 228.79123 343.8875ZM235.25998 345.98126Q235.25998 344.66876 235.60373 343.45Q235.9631 342.23126 236.66623 341.23126Q237.36935 340.23126 238.13498 339.825L238.35373 340.54376Q237.49435 341.2 236.94748 342.54376Q236.4006 343.8875 236.35373 345.5594L236.3381 346.0594Q236.3381 348.325 237.16623 349.98126Q237.66623 350.98126 238.35373 351.54376L238.13498 352.2Q237.35373 351.77814 236.63498 350.7469Q235.25998 348.7625 235.25998 345.98126ZM244.7756 349.45L239.18185 349.45L239.18185 348.66876L242.13498 345.3875Q242.79123 344.6375 243.04123 344.1844Q243.29123 343.71564 243.29123 343.21564Q243.29123 342.54376 242.88498 342.1219Q242.49435 341.6844 241.80685 341.6844Q241.00998 341.6844 240.55685 342.15314Q240.10373 342.60626 240.10373 343.4344L239.0256 343.4344Q239.0256 342.2469 239.7756 341.52814Q240.54123 340.79376 241.80685 340.79376Q243.00998 340.79376 243.69748 341.41876Q244.38498 342.04376 244.38498 343.09064Q244.38498 344.34064 242.7756 346.09064L240.49435 348.5594L244.7756 348.5594L244.7756 349.45ZM251.54123 345.8094Q251.54123 347.71564 250.88498 348.65314Q250.24435 349.575 248.85373 349.575Q247.49435 349.575 246.8381 348.66876Q246.18185 347.7625 246.1506 345.95L246.1506 344.5125Q246.1506 342.6219 246.79123 341.71564Q247.44748 340.79376 248.8381 340.79376Q250.2131 340.79376 250.86935 341.6844Q251.5256 342.5594 251.54123 344.40314L251.54123 345.8094ZM250.44748 344.325Q250.44748 342.95 250.05685 342.325Q249.68185 341.6844 248.8381 341.6844Q248.00998 341.6844 247.61935 342.325Q247.24435 342.95 247.24435 344.2469L247.24435 345.98126Q247.24435 347.35626 247.63498 348.02814Q248.04123 348.6844 248.85373 348.6844Q249.6506 348.6844 250.04123 348.0594Q250.43185 347.4344 250.44748 346.10626L250.44748 344.325ZM257.75998 346.59064L258.94748 346.59064L258.94748 347.46564L257.75998 347.46564L257.75998 349.45L256.68185 349.45L256.68185 347.46564L252.79123 347.46564L252.79123 346.825L256.60373 340.91876L257.75998 340.91876L257.75998 346.59064ZM254.0256 346.59064L256.68185 346.59064L256.68185 342.40314L256.54123 342.6375L254.0256 346.59064ZM265.36935 343.1375Q265.36935 343.77814 265.0256 344.27814Q264.68185 344.77814 264.11935 345.0594Q264.7756 345.34064 265.16623 345.90314Q265.55685 346.45 265.55685 347.15314Q265.55685 348.2469 264.80685 348.91876Q264.07248 349.575 262.85373 349.575Q261.61935 349.575 260.86935 348.91876Q260.13498 348.2469 260.13498 347.15314Q260.13498 346.45 260.50998 345.90314Q260.88498 345.34064 261.55685 345.0594Q260.99435 344.77814 260.66623 344.27814Q260.3381 343.77814 260.3381 343.1375Q260.3381 342.0594 261.0256 341.4344Q261.7131 340.79376 262.85373 340.79376Q263.97873 340.79376 264.66623 341.4344Q265.36935 342.0594 265.36935 343.1375ZM264.47873 347.1219Q264.47873 346.40314 264.0256 345.96564Q263.57248 345.5125 262.8381 345.5125Q262.10373 345.5125 261.6506 345.96564Q261.2131 346.40314 261.2131 347.1375Q261.2131 347.85626 261.6506 348.27814Q262.0881 348.6844 262.85373 348.6844Q263.60373 348.6844 264.04123 348.2625Q264.47873 347.84064 264.47873 347.1219ZM262.85373 341.6844Q262.2131 341.6844 261.80685 342.09064Q261.41623 342.48126 261.41623 343.16876Q261.41623 343.8094 261.80685 344.21564Q262.19748 344.6219 262.8381 344.6219Q263.49435 344.6219 263.88498 344.21564Q264.2756 343.8094 264.2756 343.16876Q264.2756 342.5125 263.86935 342.10626Q263.4631 341.6844 262.85373 341.6844ZM269.80685 346.04376Q269.80685 347.35626 269.4631 348.5594Q269.11935 349.7469 268.4006 350.7625Q267.69748 351.77814 266.93185 352.2L266.69748 351.54376Q267.60373 350.85626 268.1506 349.40314Q268.69748 347.9344 268.7131 346.16876L268.7131 345.98126Q268.7131 344.7469 268.44748 343.6844Q268.19748 342.6219 267.72873 341.79376Q267.2756 340.95 266.69748 340.48126L266.93185 339.825Q267.69748 340.2469 268.4006 341.2469Q269.10373 342.2469 269.44748 343.46564Q269.80685 344.66876 269.80685 346.04376Z" fill-rule="nonzero"/><path fill="#757575" d="M349.13065 346.10626L349.13065 349.45L348.00565 349.45L348.00565 340.91876L351.1619 340.91876Q352.55252 340.91876 353.3494 341.6375Q354.14627 342.34064 354.14627 343.52814Q354.14627 344.7625 353.36502 345.4344Q352.5994 346.10626 351.14627 346.10626L349.13065 346.10626ZM349.13065 345.1844L351.1619 345.1844Q352.06815 345.1844 352.5369 344.7625Q353.02127 344.34064 353.02127 343.54376Q353.02127 342.77814 352.5369 342.325Q352.06815 341.85626 351.2244 341.84064L349.13065 341.84064L349.13065 345.1844ZM355.55252 346.21564Q355.55252 345.29376 355.9119 344.54376Q356.2869 343.79376 356.94315 343.40314Q357.5994 342.9969 358.42752 342.9969Q359.7244 342.9969 360.52127 343.8875Q361.33377 344.77814 361.33377 346.27814L361.33377 346.35626Q361.33377 347.27814 360.9744 348.0125Q360.61502 348.7469 359.95877 349.16876Q359.30252 349.575 358.44315 349.575Q357.1619 349.575 356.3494 348.6844Q355.55252 347.77814 355.55252 346.29376L355.55252 346.21564ZM356.64627 346.35626Q356.64627 347.40314 357.13065 348.04376Q357.63065 348.6844 358.44315 348.6844Q359.27127 348.6844 359.75565 348.04376Q360.24002 347.3875 360.24002 346.21564Q360.24002 345.1844 359.74002 344.54376Q359.25565 343.8875 358.42752 343.8875Q357.63065 343.8875 357.13065 344.52814Q356.64627 345.15314 356.64627 346.35626ZM362.55252 346.21564Q362.55252 345.29376 362.9119 344.54376Q363.2869 343.79376 363.94315 343.40314Q364.5994 342.9969 365.42752 342.9969Q366.7244 342.9969 367.52127 343.8875Q368.33377 344.77814 368.33377 346.27814L368.33377 346.35626Q368.33377 347.27814 367.9744 348.0125Q367.61502 348.7469 366.95877 349.16876Q366.30252 349.575 365.44315 349.575Q364.1619 349.575 363.3494 348.6844Q362.55252 347.77814 362.55252 346.29376L362.55252 346.21564ZM363.64627 346.35626Q363.64627 347.40314 364.13065 348.04376Q364.63065 348.6844 365.44315 348.6844Q366.27127 348.6844 366.75565 348.04376Q367.24002 347.3875 367.24002 346.21564Q367.24002 345.1844 366.74002 344.54376Q366.25565 343.8875 365.42752 343.8875Q364.63065 343.8875 364.13065 344.52814Q363.64627 345.15314 363.64627 346.35626ZM371.02127 349.45L369.94315 349.45L369.94315 340.45L371.02127 340.45L371.02127 349.45ZM375.4744 349.575Q374.17752 349.575 373.36502 348.73126Q372.56815 347.8719 372.56815 346.45L372.56815 346.2625Q372.56815 345.3094 372.92752 344.575Q373.2869 343.825 373.92752 343.41876Q374.58377 342.9969 375.33377 342.9969Q376.56815 342.9969 377.25565 343.8094Q377.94315 344.6219 377.94315 346.1375L377.94315 346.59064L373.64627 346.59064Q373.67752 347.52814 374.19315 348.10626Q374.7244 348.6844 375.5369 348.6844Q376.0994 348.6844 376.49002 348.45Q376.89627 348.21564 377.20877 347.825L377.86502 348.34064Q377.06815 349.575 375.4744 349.575ZM375.33377 343.8875Q374.67752 343.8875 374.2244 344.3719Q373.7869 344.84064 373.69315 345.7L376.86502 345.7L376.86502 345.6219Q376.81815 344.79376 376.4119 344.34064Q376.02127 343.8875 375.33377 343.8875ZM378.58377 346.23126Q378.58377 344.7625 379.27127 343.8875Q379.95877 342.9969 381.08377 342.9969Q382.19315 342.9969 382.8494 343.7469L382.8494 340.45L383.92752 340.45L383.92752 349.45L382.92752 349.45L382.88065 348.7625Q382.2244 349.575 381.06815 349.575Q379.9744 349.575 379.27127 348.66876Q378.58377 347.7625 378.58377 346.3094L378.58377 346.23126ZM379.6619 346.35626Q379.6619 347.4344 380.0994 348.04376Q380.55252 348.65314 381.33377 348.65314Q382.36502 348.65314 382.8494 347.71564L382.8494 344.8094Q382.36502 343.91876 381.3494 343.91876Q380.55252 343.91876 380.0994 344.52814Q379.6619 345.1375 379.6619 346.35626ZM390.7244 347.21564L387.14627 347.21564L386.3494 349.45L385.19315 349.45L388.44315 340.91876L389.42752 340.91876L392.69315 349.45L391.5369 349.45L390.7244 347.21564ZM387.49002 346.29376L390.39627 346.29376L388.94315 342.3094L387.49002 346.29376ZM393.58377 346.23126Q393.58377 344.7625 394.27127 343.8875Q394.95877 342.9969 396.08377 342.9969Q397.19315 342.9969 397.8494 343.7469L397.8494 340.45L398.92752 340.45L398.92752 349.45L397.92752 349.45L397.88065 348.7625Q397.2244 349.575 396.06815 349.575Q394.9744 349.575 394.27127 348.66876Q393.58377 347.7625 393.58377 346.3094L393.58377 346.23126ZM394.6619 346.35626Q394.6619 347.4344 395.0994 348.04376Q395.55252 348.65314 396.33377 348.65314Q397.36502 348.65314 397.8494 347.71564L397.8494 344.8094Q397.36502 343.91876 396.3494 343.91876Q395.55252 343.91876 395.0994 344.52814Q394.6619 345.1375 394.6619 346.35626ZM400.58377 346.23126Q400.58377 344.7625 401.27127 343.8875Q401.95877 342.9969 403.08377 342.9969Q404.19315 342.9969 404.8494 343.7469L404.8494 340.45L405.92752 340.45L405.92752 349.45L404.92752 349.45L404.88065 348.7625Q404.2244 349.575 403.06815 349.575Q401.9744 349.575 401.27127 348.66876Q400.58377 347.7625 400.58377 346.3094L400.58377 346.23126ZM401.6619 346.35626Q401.6619 347.4344 402.0994 348.04376Q402.55252 348.65314 403.33377 348.65314Q404.36502 348.65314 404.8494 347.71564L404.8494 344.8094Q404.36502 343.91876 403.3494 343.91876Q402.55252 343.91876 402.0994 344.52814Q401.6619 345.1375 401.6619 346.35626ZM412.4119 350.34064L407.05252 350.34064L407.05252 349.45L412.4119 349.45L412.4119 350.34064ZM415.83377 347.95L418.27127 340.91876L419.50565 340.91876L416.33377 349.45L415.3494 349.45L412.19315 340.91876L413.4119 340.91876L415.83377 347.95ZM424.75565 349.45Q424.6619 349.2625 424.5994 348.77814Q423.8494 349.575 422.80252 349.575Q421.86502 349.575 421.25565 349.04376Q420.6619 348.5125 420.6619 347.6844Q420.6619 346.7 421.4119 346.15314Q422.1619 345.60626 423.5369 345.60626L424.58377 345.60626L424.58377 345.10626Q424.58377 344.54376 424.24002 344.21564Q423.9119 343.8719 423.24002 343.8719Q422.6619 343.8719 422.27127 344.16876Q421.88065 344.45 421.88065 344.8719L420.7869 344.8719Q420.7869 344.3875 421.11502 343.95Q421.45877 343.5125 422.0369 343.2625Q422.61502 342.9969 423.30252 342.9969Q424.4119 342.9969 425.02127 343.54376Q425.64627 344.09064 425.67752 345.04376L425.67752 347.96564Q425.67752 348.84064 425.89627 349.35626L425.89627 349.45L424.75565 349.45ZM422.95877 348.6219Q423.4744 348.6219 423.92752 348.35626Q424.38065 348.09064 424.58377 347.66876L424.58377 346.3719L423.74002 346.3719Q421.74002 346.3719 421.74002 347.54376Q421.74002 348.04376 422.08377 348.34064Q422.42752 348.6219 422.95877 348.6219ZM429.02127 349.45L427.94315 349.45L427.94315 340.45L429.02127 340.45L429.02127 349.45ZM434.75565 348.825Q434.13065 349.575 432.89627 349.575Q431.88065 349.575 431.3494 348.98126Q430.81815 348.3875 430.81815 347.23126L430.81815 343.10626L431.89627 343.10626L431.89627 347.2Q431.89627 348.65314 433.06815 348.65314Q434.31815 348.65314 434.7244 347.71564L434.7244 343.10626L435.81815 343.10626L435.81815 349.45L434.7869 349.45L434.75565 348.825ZM440.4744 349.575Q439.17752 349.575 438.36502 348.73126Q437.56815 347.8719 437.56815 346.45L437.56815 346.2625Q437.56815 345.3094 437.92752 344.575Q438.2869 343.825 438.92752 343.41876Q439.58377 342.9969 440.33377 342.9969Q441.56815 342.9969 442.25565 343.8094Q442.94315 344.6219 442.94315 346.1375L442.94315 346.59064L438.64627 346.59064Q438.67752 347.52814 439.19315 348.10626Q439.7244 348.6844 440.5369 348.6844Q441.0994 348.6844 441.49002 348.45Q441.89627 348.21564 442.20877 347.825L442.86502 348.34064Q442.06815 349.575 440.4744 349.575ZM440.33377 343.8875Q439.67752 343.8875 439.2244 344.3719Q438.7869 344.84064 438.69315 345.7L441.86502 345.7L441.86502 345.6219Q441.81815 344.79376 441.4119 344.34064Q441.02127 343.8875 440.33377 343.8875ZM449.9119 341.84064L447.1619 341.84064L447.1619 349.45L446.05252 349.45L446.05252 341.84064L443.30252 341.84064L443.30252 340.91876L449.9119 340.91876L449.9119 341.84064ZM452.9119 347.85626L454.39627 343.10626L455.55252 343.10626L453.00565 350.4344Q452.4119 352.0125 451.13065 352.0125L450.9119 351.9969L450.52127 351.91876L450.52127 351.04376L450.80252 351.0594Q451.36502 351.0594 451.6619 350.84064Q451.9744 350.6219 452.17752 350.02814L452.4119 349.3719L450.14627 343.10626L451.33377 343.10626L452.9119 347.85626ZM462.19315 346.35626Q462.19315 347.79376 461.5369 348.6844Q460.88065 349.575 459.74002 349.575Q458.58377 349.575 457.92752 348.84064L457.92752 351.8875L456.8494 351.8875L456.8494 343.10626L457.83377 343.10626L457.88065 343.8094Q458.55252 342.9969 459.7244 342.9969Q460.86502 342.9969 461.52127 343.85626Q462.19315 344.71564 462.19315 346.2469L462.19315 346.35626ZM461.11502 346.23126Q461.11502 345.15314 460.64627 344.54376Q460.19315 343.91876 459.39627 343.91876Q458.4119 343.91876 457.92752 344.77814L457.92752 347.8094Q458.4119 348.6844 459.4119 348.6844Q460.19315 348.6844 460.64627 348.075Q461.11502 347.45 461.11502 346.23126ZM466.4744 349.575Q465.17752 349.575 464.36502 348.73126Q463.56815 347.8719 463.56815 346.45L463.56815 346.2625Q463.56815 345.3094 463.92752 344.575Q464.2869 343.825 464.92752 343.41876Q465.58377 342.9969 466.33377 342.9969Q467.56815 342.9969 468.25565 343.8094Q468.94315 344.6219 468.94315 346.1375L468.94315 346.59064L464.64627 346.59064Q464.67752 347.52814 465.19315 348.10626Q465.7244 348.6844 466.5369 348.6844Q467.0994 348.6844 467.49002 348.45Q467.89627 348.21564 468.20877 347.825L468.86502 348.34064Q468.06815 349.575 466.4744 349.575ZM466.33377 343.8875Q465.67752 343.8875 465.2244 344.3719Q464.7869 344.84064 464.69315 345.7L467.86502 345.7L467.86502 345.6219Q467.81815 344.79376 467.4119 344.34064Q467.02127 343.8875 466.33377 343.8875ZM472.80252 345.98126Q472.80252 344.66876 473.14627 343.45Q473.50565 342.23126 474.20877 341.23126Q474.9119 340.23126 475.67752 339.825L475.89627 340.54376Q475.0369 341.2 474.49002 342.54376Q473.94315 343.8875 473.89627 345.5594L473.88065 346.0594Q473.88065 348.325 474.70877 349.98126Q475.20877 350.98126 475.89627 351.54376L475.67752 352.2Q474.89627 351.77814 474.17752 350.7469Q472.80252 348.7625 472.80252 345.98126ZM482.31815 349.45L476.7244 349.45L476.7244 348.66876L479.67752 345.3875Q480.33377 344.6375 480.58377 344.1844Q480.83377 343.71564 480.83377 343.21564Q480.83377 342.54376 480.42752 342.1219Q480.0369 341.6844 479.3494 341.6844Q478.55252 341.6844 478.0994 342.15314Q477.64627 342.60626 477.64627 343.4344L476.56815 343.4344Q476.56815 342.2469 477.31815 341.52814Q478.08377 340.79376 479.3494 340.79376Q480.55252 340.79376 481.24002 341.41876Q481.92752 342.04376 481.92752 343.09064Q481.92752 344.34064 480.31815 346.09064L478.0369 348.5594L482.31815 348.5594L482.31815 349.45ZM489.08377 345.8094Q489.08377 347.71564 488.42752 348.65314Q487.7869 349.575 486.39627 349.575Q485.0369 349.575 484.38065 348.66876Q483.7244 347.7625 483.69315 345.95L483.69315 344.5125Q483.69315 342.6219 484.33377 341.71564Q484.99002 340.79376 486.38065 340.79376Q487.75565 340.79376 488.4119 341.6844Q489.06815 342.5594 489.08377 344.40314L489.08377 345.8094ZM487.99002 344.325Q487.99002 342.95 487.5994 342.325Q487.2244 341.6844 486.38065 341.6844Q485.55252 341.6844 485.1619 342.325Q484.7869 342.95 484.7869 344.2469L484.7869 345.98126Q484.7869 347.35626 485.17752 348.02814Q485.58377 348.6844 486.39627 348.6844Q487.19315 348.6844 487.58377 348.0594Q487.9744 347.4344 487.99002 346.10626L487.99002 344.325ZM495.30252 346.59064L496.49002 346.59064L496.49002 347.46564L495.30252 347.46564L495.30252 349.45L494.2244 349.45L494.2244 347.46564L490.33377 347.46564L490.33377 346.825L494.14627 340.91876L495.30252 340.91876L495.30252 346.59064ZM491.56815 346.59064L494.2244 346.59064L494.2244 342.40314L494.08377 342.6375L491.56815 346.59064ZM502.9119 343.1375Q502.9119 343.77814 502.56815 344.27814Q502.2244 344.77814 501.6619 345.0594Q502.31815 345.34064 502.70877 345.90314Q503.0994 346.45 503.0994 347.15314Q503.0994 348.2469 502.3494 348.91876Q501.61502 349.575 500.39627 349.575Q499.1619 349.575 498.4119 348.91876Q497.67752 348.2469 497.67752 347.15314Q497.67752 346.45 498.05252 345.90314Q498.42752 345.34064 499.0994 345.0594Q498.5369 344.77814 498.20877 344.27814Q497.88065 343.77814 497.88065 343.1375Q497.88065 342.0594 498.56815 341.4344Q499.25565 340.79376 500.39627 340.79376Q501.52127 340.79376 502.20877 341.4344Q502.9119 342.0594 502.9119 343.1375ZM502.02127 347.1219Q502.02127 346.40314 501.56815 345.96564Q501.11502 345.5125 500.38065 345.5125Q499.64627 345.5125 499.19315 345.96564Q498.75565 346.40314 498.75565 347.1375Q498.75565 347.85626 499.19315 348.27814Q499.63065 348.6844 500.39627 348.6844Q501.14627 348.6844 501.58377 348.2625Q502.02127 347.84064 502.02127 347.1219ZM500.39627 341.6844Q499.75565 341.6844 499.3494 342.09064Q498.95877 342.48126 498.95877 343.16876Q498.95877 343.8094 499.3494 344.21564Q499.74002 344.6219 500.38065 344.6219Q501.0369 344.6219 501.42752 344.21564Q501.81815 343.8094 501.81815 343.16876Q501.81815 342.5125 501.4119 342.10626Q501.00565 341.6844 500.39627 341.6844ZM507.3494 346.04376Q507.3494 347.35626 507.00565 348.5594Q506.6619 349.7469 505.94315 350.7625Q505.24002 351.77814 504.4744 352.2L504.24002 351.54376Q505.14627 350.85626 505.69315 349.40314Q506.24002 347.9344 506.25565 346.16876L506.25565 345.98126Q506.25565 344.7469 505.99002 343.6844Q505.74002 342.6219 505.27127 341.79376Q504.81815 340.95 504.24002 340.48126L504.4744 339.825Q505.24002 340.2469 505.94315 341.2469Q506.64627 342.2469 506.99002 343.46564Q507.3494 344.66876 507.3494 346.04376Z" fill-rule="nonzero"/><path fill="#4285f4" d="M182.5 57.416668C182.5 56.864384 182.94771 56.416668 183.5 56.416668L193.5 56.416668C194.05229 56.416668 194.5 56.864384 194.5 57.416668L194.5 67.416664C194.5 67.96895 194.05229 68.416664 193.5 68.416664L183.5 68.416664C182.94771 68.416664 182.5 67.96895 182.5 67.416664Z" fill-rule="nonzero"/><path fill="#757575" d="M204.9375 58.385414L207.73438 65.33854L210.51562 58.385414L211.98438 58.385414L211.98438 66.916664L210.85938 66.916664L210.85938 63.58854L210.96875 60.010414L208.15625 66.916664L207.29688 66.916664L204.5 60.02604L204.60938 63.58854L204.60938 66.916664L203.48438 66.916664L203.48438 58.385414L204.9375 58.385414ZM214.5 66.916664L213.42188 66.916664L213.42188 60.572914L214.5 60.572914L214.5 66.916664ZM213.32812 58.90104Q213.32812 58.635414 213.48438 58.447914Q213.65625 58.260414 213.96875 58.260414Q214.28125 58.260414 214.4375 58.447914Q214.60938 58.635414 214.60938 58.90104Q214.60938 59.15104 214.4375 59.33854Q214.28125 59.510414 213.96875 59.510414Q213.65625 59.510414 213.48438 59.33854Q213.32812 59.15104 213.32812 58.90104ZM218.85938 66.15104Q219.4375 66.15104 219.875 65.80729Q220.3125 65.447914 220.35938 64.916664L221.39062 64.916664Q221.35938 65.46354 221.0 65.96354Q220.65625 66.447914 220.07812 66.74479Q219.51562 67.041664 218.85938 67.041664Q217.5625 67.041664 216.79688 66.18229Q216.04688 65.30729 216.04688 63.80729L216.04688 63.61979Q216.04688 62.697914 216.375 61.979164Q216.71875 61.260414 217.34375 60.86979Q217.98438 60.46354 218.85938 60.46354Q219.92188 60.46354 220.625 61.104164Q221.34375 61.729164 221.39062 62.760414L220.35938 62.760414Q220.3125 62.135414 219.89062 61.74479Q219.46875 61.354164 218.85938 61.354164Q218.03125 61.354164 217.57812 61.947914Q217.125 62.541664 217.125 63.666664L217.125 63.86979Q217.125 64.96354 217.57812 65.55729Q218.03125 66.15104 218.85938 66.15104ZM225.39062 61.541664Q225.14062 61.510414 224.85938 61.510414Q223.78125 61.510414 223.40625 62.416664L223.40625 66.916664L222.32812 66.916664L222.32812 60.572914L223.375 60.572914L223.39062 61.30729Q223.92188 60.46354 224.90625 60.46354Q225.21875 60.46354 225.39062 60.541664L225.39062 61.541664ZM226.03125 63.68229Q226.03125 62.760414 226.39062 62.010414Q226.76562 61.260414 227.42188 60.86979Q228.07812 60.46354 228.90625 60.46354Q230.20312 60.46354 231.0 61.354164Q231.8125 62.24479 231.8125 63.74479L231.8125 63.822914Q231.8125 64.74479 231.45312 65.479164Q231.09375 66.21354 230.4375 66.635414Q229.78125 67.041664 228.92188 67.041664Q227.64062 67.041664 226.82812 66.15104Q226.03125 65.24479 226.03125 63.760414L226.03125 63.68229ZM227.125 63.822914Q227.125 64.86979 227.60938 65.510414Q228.10938 66.15104 228.92188 66.15104Q229.75 66.15104 230.23438 65.510414Q230.71875 64.854164 230.71875 63.68229Q230.71875 62.65104 230.21875 62.010414Q229.73438 61.354164 228.90625 61.354164Q228.10938 61.354164 227.60938 61.99479Q227.125 62.61979 227.125 63.822914ZM237.01562 65.229164Q237.01562 64.791664 236.67188 64.55729Q236.34375 64.30729 235.51562 64.135414Q234.70312 63.96354 234.21875 63.71354Q233.73438 63.46354 233.5 63.135414Q233.28125 62.791664 233.28125 62.322914Q233.28125 61.541664 233.9375 61.010414Q234.59375 60.46354 235.625 60.46354Q236.70312 60.46354 237.35938 61.02604Q238.03125 61.572914 238.03125 62.43229L236.95312 62.43229Q236.95312 61.99479 236.5625 61.68229Q236.1875 61.354164 235.625 61.354164Q235.03125 61.354164 234.6875 61.61979Q234.35938 61.86979 234.35938 62.27604Q234.35938 62.666664 234.67188 62.86979Q234.98438 63.072914 235.79688 63.260414Q236.60938 63.43229 237.10938 63.68229Q237.60938 63.93229 237.84375 64.291664Q238.09375 64.65104 238.09375 65.15104Q238.09375 66.010414 237.40625 66.52604Q236.73438 67.041664 235.65625 67.041664Q234.89062 67.041664 234.29688 66.77604Q233.71875 66.49479 233.39062 66.010414Q233.0625 65.52604 233.0625 64.96354L234.14062 64.96354Q234.17188 65.510414 234.57812 65.83854Q234.98438 66.15104 235.65625 66.15104Q236.26562 66.15104 236.64062 65.90104Q237.01562 65.65104 237.01562 65.229164ZM241.95312 67.041664Q240.65625 67.041664 239.84375 66.197914Q239.04688 65.33854 239.04688 63.916664L239.04688 63.729164Q239.04688 62.77604 239.40625 62.041664Q239.76562 61.291664 240.40625 60.885414Q241.0625 60.46354 241.8125 60.46354Q243.04688 60.46354 243.73438 61.27604Q244.42188 62.08854 244.42188 63.604164L244.42188 64.05729L240.125 64.05729Q240.15625 64.99479 240.67188 65.572914Q241.20312 66.15104 242.01562 66.15104Q242.57812 66.15104 242.96875 65.916664Q243.375 65.68229 243.6875 65.291664L244.34375 65.80729Q243.54688 67.041664 241.95312 67.041664ZM241.8125 61.354164Q241.15625 61.354164 240.70312 61.83854Q240.26562 62.30729 240.17188 63.166664L243.34375 63.166664L243.34375 63.08854Q243.29688 62.260414 242.89062 61.80729Q242.5 61.354164 241.8125 61.354164ZM247.85938 66.15104Q248.4375 66.15104 248.875 65.80729Q249.3125 65.447914 249.35938 64.916664L250.39062 64.916664Q250.35938 65.46354 250.0 65.96354Q249.65625 66.447914 249.07812 66.74479Q248.51562 67.041664 247.85938 67.041664Q246.5625 67.041664 245.79688 66.18229Q245.04688 65.30729 245.04688 63.80729L245.04688 63.61979Q245.04688 62.697914 245.375 61.979164Q245.71875 61.260414 246.34375 60.86979Q246.98438 60.46354 247.85938 60.46354Q248.92188 60.46354 249.625 61.104164Q250.34375 61.729164 250.39062 62.760414L249.35938 62.760414Q249.3125 62.135414 248.89062 61.74479Q248.46875 61.354164 247.85938 61.354164Q247.03125 61.354164 246.57812 61.947914Q246.125 62.541664 246.125 63.666664L246.125 63.86979Q246.125 64.96354 246.57812 65.55729Q247.03125 66.15104 247.85938 66.15104ZM251.03125 63.68229Q251.03125 62.760414 251.39062 62.010414Q251.76562 61.260414 252.42188 60.86979Q253.07812 60.46354 253.90625 60.46354Q255.20312 60.46354 256.0 61.354164Q256.8125 62.24479 256.8125 63.74479L256.8125 63.822914Q256.8125 64.74479 256.45312 65.479164Q256.09375 66.21354 255.4375 66.635414Q254.78125 67.041664 253.92188 67.041664Q252.64062 67.041664 251.82812 66.15104Q251.03125 65.24479 251.03125 63.760414L251.03125 63.68229ZM252.125 63.822914Q252.125 64.86979 252.60938 65.510414Q253.10938 66.15104 253.92188 66.15104Q254.75 66.15104 255.23438 65.510414Q255.71875 64.854164 255.71875 63.68229Q255.71875 62.65104 255.21875 62.010414Q254.73438 61.354164 253.90625 61.354164Q253.10938 61.354164 252.60938 61.99479Q252.125 62.61979 252.125 63.822914ZM259.34375 60.572914L259.375 61.36979Q260.10938 60.46354 261.28125 60.46354Q263.29688 60.46354 263.3125 62.729164L263.3125 66.916664L262.21875 66.916664L262.21875 62.71354Q262.21875 62.041664 261.90625 61.71354Q261.60938 61.385414 260.95312 61.385414Q260.42188 61.385414 260.01562 61.666664Q259.625 61.947914 259.40625 62.40104L259.40625 66.916664L258.32812 66.916664L258.32812 60.572914L259.34375 60.572914ZM265.0625 63.697914Q265.0625 62.229164 265.75 61.354164Q266.4375 60.46354 267.5625 60.46354Q268.67188 60.46354 269.32812 61.21354L269.32812 57.916664L270.40625 57.916664L270.40625 66.916664L269.40625 66.916664L269.35938 66.229164Q268.70312 67.041664 267.54688 67.041664Q266.45312 67.041664 265.75 66.135414Q265.0625 65.229164 265.0625 63.77604L265.0625 63.697914ZM266.14062 63.822914Q266.14062 64.90104 266.57812 65.510414Q267.03125 66.11979 267.8125 66.11979Q268.84375 66.11979 269.32812 65.18229L269.32812 62.27604Q268.84375 61.385414 267.82812 61.385414Q267.03125 61.385414 266.57812 61.99479Q266.14062 62.604164 266.14062 63.822914ZM276.01562 65.229164Q276.01562 64.791664 275.67188 64.55729Q275.34375 64.30729 274.51562 64.135414Q273.70312 63.96354 273.21875 63.71354Q272.73438 63.46354 272.5 63.135414Q272.28125 62.791664 272.28125 62.322914Q272.28125 61.541664 272.9375 61.010414Q273.59375 60.46354 274.625 60.46354Q275.70312 60.46354 276.35938 61.02604Q277.03125 61.572914 277.03125 62.43229L275.95312 62.43229Q275.95312 61.99479 275.5625 61.68229Q275.1875 61.354164 274.625 61.354164Q274.03125 61.354164 273.6875 61.61979Q273.35938 61.86979 273.35938 62.27604Q273.35938 62.666664 273.67188 62.86979Q273.98438 63.072914 274.79688 63.260414Q275.60938 63.43229 276.10938 63.68229Q276.60938 63.93229 276.84375 64.291664Q277.09375 64.65104 277.09375 65.15104Q277.09375 66.010414 276.40625 66.52604Q275.73438 67.041664 274.65625 67.041664Q273.89062 67.041664 273.29688 66.77604Q272.71875 66.49479 272.39062 66.010414Q272.0625 65.52604 272.0625 64.96354L273.14062 64.96354Q273.17188 65.510414 273.57812 65.83854Q273.98438 66.15104 274.65625 66.15104Q275.26562 66.15104 275.64062 65.90104Q276.01562 65.65104 276.01562 65.229164Z" fill-rule="nonzero"/><path fill="#db4437" d="M293.5 57.416668C293.5 56.864384 293.94772 56.416668 294.5 56.416668L304.5 56.416668C305.05228 56.416668 305.5 56.864384 305.5 57.416668L305.5 67.416664C305.5 67.96895 305.05228 68.416664 304.5 68.416664L294.5 68.416664C293.94772 68.416664 293.5 67.96895 293.5 67.416664Z" fill-rule="nonzero"/><path fill="#757575" d="M316.65625 62.947914L315.60938 64.02604L315.60938 66.916664L314.48438 66.916664L314.48438 58.385414L315.60938 58.385414L315.60938 62.604164L319.40625 58.385414L320.76562 58.385414L317.40625 62.15104L321.03125 66.916664L319.6875 66.916664L316.65625 62.947914ZM323.5 66.916664L322.42188 66.916664L322.42188 60.572914L323.5 60.572914L323.5 66.916664ZM322.32812 58.90104Q322.32812 58.635414 322.48438 58.447914Q322.65625 58.260414 322.96875 58.260414Q323.28125 58.260414 323.4375 58.447914Q323.60938 58.635414 323.60938 58.90104Q323.60938 59.15104 323.4375 59.33854Q323.28125 59.510414 322.96875 59.510414Q322.65625 59.510414 322.48438 59.33854Q322.32812 59.15104 322.32812 58.90104ZM326.5 66.916664L325.42188 66.916664L325.42188 57.916664L326.5 57.916664L326.5 66.916664ZM328.03125 63.68229Q328.03125 62.760414 328.39062 62.010414Q328.76562 61.260414 329.42188 60.86979Q330.07812 60.46354 330.90625 60.46354Q332.20312 60.46354 333.0 61.354164Q333.8125 62.24479 333.8125 63.74479L333.8125 63.822914Q333.8125 64.74479 333.45312 65.479164Q333.09375 66.21354 332.4375 66.635414Q331.78125 67.041664 330.92188 67.041664Q329.64062 67.041664 328.82812 66.15104Q328.03125 65.24479 328.03125 63.760414L328.03125 63.68229ZM329.125 63.822914Q329.125 64.86979 329.60938 65.510414Q330.10938 66.15104 330.92188 66.15104Q331.75 66.15104 332.23438 65.510414Q332.71875 64.854164 332.71875 63.68229Q332.71875 62.65104 332.21875 62.010414Q331.73438 61.354164 330.90625 61.354164Q330.10938 61.354164 329.60938 61.99479Q329.125 62.61979 329.125 63.822914ZM340.6875 63.822914Q340.6875 65.27604 340.01562 66.166664Q339.35938 67.041664 338.23438 67.041664Q337.03125 67.041664 336.375 66.18229L336.3125 66.916664L335.32812 66.916664L335.32812 57.916664L336.40625 57.916664L336.40625 61.27604Q337.0625 60.46354 338.21875 60.46354Q339.375 60.46354 340.03125 61.33854Q340.6875 62.197914 340.6875 63.729164L340.6875 63.822914ZM339.60938 63.697914Q339.60938 62.58854 339.17188 61.99479Q338.75 61.385414 337.95312 61.385414Q336.875 61.385414 336.40625 62.36979L336.40625 65.11979Q336.90625 66.11979 337.95312 66.11979Q338.73438 66.11979 339.17188 65.510414Q339.60938 64.90104 339.60938 63.697914ZM344.39062 65.322914L345.875 60.572914L347.03125 60.572914L344.48438 67.90104Q343.89062 69.479164 342.60938 69.479164L342.39062 69.46354L342.0 69.385414L342.0 68.510414L342.28125 68.52604Q342.84375 68.52604 343.14062 68.30729Q343.45312 68.08854 343.65625 67.49479L343.89062 66.83854L341.625 60.572914L342.8125 60.572914L344.39062 65.322914ZM349.79688 59.041664L349.79688 60.572914L350.96875 60.572914L350.96875 61.416664L349.79688 61.416664L349.79688 65.33854Q349.79688 65.729164 349.95312 65.916664Q350.10938 66.104164 350.48438 66.104164Q350.67188 66.104164 351.0 66.041664L351.0 66.916664Q350.57812 67.041664 350.17188 67.041664Q349.45312 67.041664 349.07812 66.604164Q348.70312 66.15104 348.70312 65.33854L348.70312 61.416664L347.54688 61.416664L347.54688 60.572914L348.70312 60.572914L348.70312 59.041664L349.79688 59.041664ZM354.95312 67.041664Q353.65625 67.041664 352.84375 66.197914Q352.04688 65.33854 352.04688 63.916664L352.04688 63.729164Q352.04688 62.77604 352.40625 62.041664Q352.76562 61.291664 353.40625 60.885414Q354.0625 60.46354 354.8125 60.46354Q356.04688 60.46354 356.73438 61.27604Q357.42188 62.08854 357.42188 63.604164L357.42188 64.05729L353.125 64.05729Q353.15625 64.99479 353.67188 65.572914Q354.20312 66.15104 355.01562 66.15104Q355.57812 66.15104 355.96875 65.916664Q356.375 65.68229 356.6875 65.291664L357.34375 65.80729Q356.54688 67.041664 354.95312 67.041664ZM354.8125 61.354164Q354.15625 61.354164 353.70312 61.83854Q353.26562 62.30729 353.17188 63.166664L356.34375 63.166664L356.34375 63.08854Q356.29688 62.260414 355.89062 61.80729Q355.5 61.354164 354.8125 61.354164ZM362.01562 65.229164Q362.01562 64.791664 361.67188 64.55729Q361.34375 64.30729 360.51562 64.135414Q359.70312 63.96354 359.21875 63.71354Q358.73438 63.46354 358.5 63.135414Q358.28125 62.791664 358.28125 62.322914Q358.28125 61.541664 358.9375 61.010414Q359.59375 60.46354 360.625 60.46354Q361.70312 60.46354 362.35938 61.02604Q363.03125 61.572914 363.03125 62.43229L361.95312 62.43229Q361.95312 61.99479 361.5625 61.68229Q361.1875 61.354164 360.625 61.354164Q360.03125 61.354164 359.6875 61.61979Q359.35938 61.86979 359.35938 62.27604Q359.35938 62.666664 359.67188 62.86979Q359.98438 63.072914 360.79688 63.260414Q361.60938 63.43229 362.10938 63.68229Q362.60938 63.93229 362.84375 64.291664Q363.09375 64.65104 363.09375 65.15104Q363.09375 66.010414 362.40625 66.52604Q361.73438 67.041664 360.65625 67.041664Q359.89062 67.041664 359.29688 66.77604Q358.71875 66.49479 358.39062 66.010414Q358.0625 65.52604 358.0625 64.96354L359.14062 64.96354Q359.17188 65.510414 359.57812 65.83854Q359.98438 66.15104 360.65625 66.15104Q361.26562 66.15104 361.64062 65.90104Q362.01562 65.65104 362.01562 65.229164ZM372.20312 64.68229L368.625 64.68229L367.82812 66.916664L366.67188 66.916664L369.92188 58.385414L370.90625 58.385414L374.17188 66.916664L373.01562 66.916664L372.20312 64.68229ZM368.96875 63.760414L371.875 63.760414L370.42188 59.77604L368.96875 63.760414ZM376.5 66.916664L375.42188 66.916664L375.42188 57.916664L376.5 57.916664L376.5 66.916664ZM379.5 66.916664L378.42188 66.916664L378.42188 57.916664L379.5 57.916664L379.5 66.916664ZM381.03125 63.68229Q381.03125 62.760414 381.39062 62.010414Q381.76562 61.260414 382.42188 60.86979Q383.07812 60.46354 383.90625 60.46354Q385.20312 60.46354 386.0 61.354164Q386.8125 62.24479 386.8125 63.74479L386.8125 63.822914Q386.8125 64.74479 386.45312 65.479164Q386.09375 66.21354 385.4375 66.635414Q384.78125 67.041664 383.92188 67.041664Q382.64062 67.041664 381.82812 66.15104Q381.03125 65.24479 381.03125 63.760414L381.03125 63.68229ZM382.125 63.822914Q382.125 64.86979 382.60938 65.510414Q383.10938 66.15104 383.92188 66.15104Q384.75 66.15104 385.23438 65.510414Q385.71875 64.854164 385.71875 63.68229Q385.71875 62.65104 385.21875 62.010414Q384.73438 61.354164 383.90625 61.354164Q383.10938 61.354164 382.60938 61.99479Q382.125 62.61979 382.125 63.822914ZM390.85938 66.15104Q391.4375 66.15104 391.875 65.80729Q392.3125 65.447914 392.35938 64.916664L393.39062 64.916664Q393.35938 65.46354 393.0 65.96354Q392.65625 66.447914 392.07812 66.74479Q391.51562 67.041664 390.85938 67.041664Q389.5625 67.041664 388.79688 66.18229Q388.04688 65.30729 388.04688 63.80729L388.04688 63.61979Q388.04688 62.697914 388.375 61.979164Q388.71875 61.260414 389.34375 60.86979Q389.98438 60.46354 390.85938 60.46354Q391.92188 60.46354 392.625 61.104164Q393.34375 61.729164 393.39062 62.760414L392.35938 62.760414Q392.3125 62.135414 391.89062 61.74479Q391.46875 61.354164 390.85938 61.354164Q390.03125 61.354164 389.57812 61.947914Q389.125 62.541664 389.125 63.666664L389.125 63.86979Q389.125 64.96354 389.57812 65.55729Q390.03125 66.15104 390.85938 66.15104ZM398.23438 66.916664Q398.14062 66.729164 398.07812 66.24479Q397.32812 67.041664 396.28125 67.041664Q395.34375 67.041664 394.73438 66.510414Q394.14062 65.979164 394.14062 65.15104Q394.14062 64.166664 394.89062 63.61979Q395.64062 63.072914 397.01562 63.072914L398.0625 63.072914L398.0625 62.572914Q398.0625 62.010414 397.71875 61.68229Q397.39062 61.33854 396.71875 61.33854Q396.14062 61.33854 395.75 61.635414Q395.35938 61.916664 395.35938 62.33854L394.26562 62.33854Q394.26562 61.854164 394.59375 61.416664Q394.9375 60.979164 395.51562 60.729164Q396.09375 60.46354 396.78125 60.46354Q397.89062 60.46354 398.5 61.010414Q399.125 61.55729 399.15625 62.510414L399.15625 65.43229Q399.15625 66.30729 399.375 66.822914L399.375 66.916664L398.23438 66.916664ZM396.4375 66.08854Q396.95312 66.08854 397.40625 65.822914Q397.85938 65.55729 398.0625 65.135414L398.0625 63.83854L397.21875 63.83854Q395.21875 63.83854 395.21875 65.010414Q395.21875 65.510414 395.5625 65.80729Q395.90625 66.08854 396.4375 66.08854ZM402.79688 59.041664L402.79688 60.572914L403.96875 60.572914L403.96875 61.416664L402.79688 61.416664L402.79688 65.33854Q402.79688 65.729164 402.95312 65.916664Q403.10938 66.104164 403.48438 66.104164Q403.67188 66.104164 404.0 66.041664L404.0 66.916664Q403.57812 67.041664 403.17188 67.041664Q402.45312 67.041664 402.07812 66.604164Q401.70312 66.15104 401.70312 65.33854L401.70312 61.416664L400.54688 61.416664L400.54688 60.572914L401.70312 60.572914L401.70312 59.041664L402.79688 59.041664ZM407.95312 67.041664Q406.65625 67.041664 405.84375 66.197914Q405.04688 65.33854 405.04688 63.916664L405.04688 63.729164Q405.04688 62.77604 405.40625 62.041664Q405.76562 61.291664 406.40625 60.885414Q407.0625 60.46354 407.8125 60.46354Q409.04688 60.46354 409.73438 61.27604Q410.42188 62.08854 410.42188 63.604164L410.42188 64.05729L406.125 64.05729Q406.15625 64.99479 406.67188 65.572914Q407.20312 66.15104 408.01562 66.15104Q408.57812 66.15104 408.96875 65.916664Q409.375 65.68229 409.6875 65.291664L410.34375 65.80729Q409.54688 67.041664 407.95312 67.041664ZM407.8125 61.354164Q407.15625 61.354164 406.70312 61.83854Q406.26562 62.30729 406.17188 63.166664L409.34375 63.166664L409.34375 63.08854Q409.29688 62.260414 408.89062 61.80729Q408.5 61.354164 407.8125 61.354164ZM411.0625 63.697914Q411.0625 62.229164 411.75 61.354164Q412.4375 60.46354 413.5625 60.46354Q414.67188 60.46354 415.32812 61.21354L415.32812 57.916664L416.40625 57.916664L416.40625 66.916664L415.40625 66.916664L415.35938 66.229164Q414.70312 67.041664 413.54688 67.041664Q412.45312 67.041664 411.75 66.135414Q411.0625 65.229164 411.0625 63.77604L411.0625 63.697914ZM412.14062 63.822914Q412.14062 64.90104 412.57812 65.510414Q413.03125 66.11979 413.8125 66.11979Q414.84375 66.11979 415.32812 65.18229L415.32812 62.27604Q414.84375 61.385414 413.82812 61.385414Q413.03125 61.385414 412.57812 61.99479Q412.14062 62.604164 412.14062 63.822914Z" fill-rule="nonzero"/><path fill="#757575" d="M22.08125 36.01875L28.83125 36.01875L28.83125 37.55L20.20625 37.55L20.20625 23.33125L22.08125 23.33125L22.08125 36.01875ZM32.878124 37.55L31.08125 37.55L31.08125 26.9875L32.878124 26.9875L32.878124 37.55ZM30.925 24.175Q30.925 23.7375 31.190624 23.440624Q31.471874 23.128124 31.9875 23.128124Q32.51875 23.128124 32.784374 23.440624Q33.065624 23.7375 33.065624 24.175Q33.065624 24.6125 32.784374 24.909374Q32.51875 25.20625 31.9875 25.20625Q31.471874 25.20625 31.190624 24.909374Q30.925 24.6125 30.925 24.175ZM42.065624 34.753124Q42.065624 34.01875 41.51875 33.6125Q40.971874 33.20625 39.596874 32.909374Q38.221874 32.6125 37.409374 32.20625Q36.6125 31.8 36.221874 31.2375Q35.846874 30.659374 35.846874 29.878124Q35.846874 28.58125 36.940624 27.690624Q38.034374 26.784374 39.753124 26.784374Q41.55 26.784374 42.659374 27.721874Q43.784374 28.64375 43.784374 30.08125L41.95625 30.08125Q41.95625 29.346874 41.33125 28.815624Q40.70625 28.26875 39.753124 28.26875Q38.753124 28.26875 38.190624 28.70625Q37.64375 29.128124 37.64375 29.83125Q37.64375 30.471874 38.159374 30.815624Q38.675 31.14375 40.034374 31.45625Q41.39375 31.753124 42.221874 32.175Q43.065624 32.58125 43.471874 33.175Q43.878124 33.76875 43.878124 34.6125Q43.878124 36.034374 42.7375 36.89375Q41.6125 37.753124 39.8 37.753124Q38.534374 37.753124 37.55 37.3Q36.58125 36.846874 36.01875 36.05Q35.471874 35.2375 35.471874 34.3L37.284374 34.3Q37.33125 35.20625 38.003124 35.7375Q38.690624 36.26875 39.8 36.26875Q40.83125 36.26875 41.440624 35.8625Q42.065624 35.440624 42.065624 34.753124ZM48.3625 24.425L48.3625 26.9875L50.346874 26.9875L50.346874 28.378124L48.3625 28.378124L48.3625 34.925Q48.3625 35.565624 48.628124 35.89375Q48.89375 36.20625 49.534374 36.20625Q49.846874 36.20625 50.39375 36.08125L50.39375 37.55Q49.675 37.753124 49.003124 37.753124Q47.8 37.753124 47.175 37.01875Q46.565624 36.284374 46.565624 34.925L46.565624 28.378124L44.64375 28.378124L44.64375 26.9875L46.565624 26.9875L46.565624 24.425L48.3625 24.425ZM61.409374 35.096874L64.01875 26.9875L65.8625 26.9875L62.08125 37.55L60.70625 37.55L56.878124 26.9875L58.721874 26.9875L61.409374 35.096874ZM74.06563 34.753124Q74.06563 34.01875 73.51875 33.6125Q72.97188 33.20625 71.59688 32.909374Q70.22188 32.6125 69.40938 32.20625Q68.6125 31.8 68.22188 31.2375Q67.84688 30.659374 67.84688 29.878124Q67.84688 28.58125 68.94063 27.690624Q70.03438 26.784374 71.75313 26.784374Q73.55 26.784374 74.65938 27.721874Q75.78438 28.64375 75.78438 30.08125L73.95625 30.08125Q73.95625 29.346874 73.33125 28.815624Q72.70625 28.26875 71.75313 28.26875Q70.75313 28.26875 70.19063 28.70625Q69.64375 29.128124 69.64375 29.83125Q69.64375 30.471874 70.15938 30.815624Q70.675 31.14375 72.03438 31.45625Q73.39375 31.753124 74.22188 32.175Q75.06563 32.58125 75.47188 33.175Q75.87813 33.76875 75.87813 34.6125Q75.87813 36.034374 74.7375 36.89375Q73.6125 37.753124 71.8 37.753124Q70.53438 37.753124 69.55 37.3Q68.58125 36.846874 68.01875 36.05Q67.47188 35.2375 67.47188 34.3L69.28438 34.3Q69.33125 35.20625 70.00313 35.7375Q70.69063 36.26875 71.8 36.26875Q72.83125 36.26875 73.44063 35.8625Q74.06563 35.440624 74.06563 34.753124ZM85.08125 31.9875L85.08125 37.55L83.20625 37.55L83.20625 23.33125L88.44063 23.33125Q90.78438 23.33125 92.09688 24.51875Q93.425 25.70625 93.425 27.675Q93.425 29.753124 92.12813 30.878124Q90.83125 31.9875 88.425 31.9875L85.08125 31.9875ZM85.08125 30.45625L88.44063 30.45625Q89.95625 30.45625 90.75313 29.753124Q91.55 29.034374 91.55 27.690624Q91.55 26.425 90.75313 25.675Q89.95625 24.909374 88.55 24.878124L85.08125 24.878124L85.08125 30.45625ZM95.44063 32.175Q95.44063 30.6125 96.05 29.378124Q96.65938 28.128124 97.7375 27.45625Q98.83125 26.784374 100.2375 26.784374Q102.39375 26.784374 103.72188 28.284374Q105.06563 29.76875 105.06563 32.253124L105.06563 32.378124Q105.06563 33.925 104.47188 35.159374Q103.87813 36.378124 102.76875 37.065624Q101.675 37.753124 100.25313 37.753124Q98.1125 37.753124 96.76875 36.253124Q95.44063 34.753124 95.44063 32.3L95.44063 32.175ZM97.25313 32.378124Q97.25313 34.14375 98.06563 35.20625Q98.89375 36.26875 100.25313 36.26875Q101.62813 36.26875 102.44063 35.190624Q103.25313 34.1125 103.25313 32.175Q103.25313 30.425 102.425 29.346874Q101.59688 28.26875 100.2375 28.26875Q98.89375 28.26875 98.06563 29.33125Q97.25313 30.39375 97.25313 32.378124ZM106.44063 32.175Q106.44063 30.6125 107.05 29.378124Q107.65938 28.128124 108.7375 27.45625Q109.83125 26.784374 111.2375 26.784374Q113.39375 26.784374 114.72188 28.284374Q116.06563 29.76875 116.06563 32.253124L116.06563 32.378124Q116.06563 33.925 115.47188 35.159374Q114.87813 36.378124 113.76875 37.065624Q112.675 37.753124 111.25313 37.753124Q109.1125 37.753124 107.76875 36.253124Q106.44063 34.753124 106.44063 32.3L106.44063 32.175ZM108.25313 32.378124Q108.25313 34.14375 109.06563 35.20625Q109.89375 36.26875 111.25313 36.26875Q112.62813 36.26875 113.44063 35.190624Q114.25313 34.1125 114.25313 32.175Q114.25313 30.425 113.425 29.346874Q112.59688 28.26875 111.2375 28.26875Q109.89375 28.26875 109.06563 29.33125Q108.25313 30.39375 108.25313 32.378124ZM119.87813 37.55L118.08125 37.55L118.08125 22.55L119.87813 22.55L119.87813 37.55ZM127.3 37.753124Q125.15938 37.753124 123.8 36.346874Q122.45625 34.925 122.45625 32.565624L122.45625 32.221874Q122.45625 30.659374 123.05 29.425Q123.65938 28.190624 124.7375 27.4875Q125.81563 26.784374 127.08125 26.784374Q129.14375 26.784374 130.28438 28.14375Q131.425 29.503124 131.425 32.034374L131.425 32.784374L124.26875 32.784374Q124.3 34.346874 125.175 35.315624Q126.05 36.26875 127.39375 36.26875Q128.3625 36.26875 129.01875 35.878124Q129.69063 35.4875 130.19063 34.846874L131.28438 35.70625Q129.95625 37.753124 127.3 37.753124ZM127.08125 28.26875Q125.9875 28.26875 125.2375 29.065624Q124.50313 29.8625 124.33125 31.3L129.6125 31.3L129.6125 31.159374Q129.53438 29.784374 128.8625 29.034374Q128.20625 28.26875 127.08125 28.26875ZM133.47188 32.175Q133.47188 29.753124 134.62813 28.26875Q135.78438 26.784374 137.64375 26.784374Q139.50313 26.784374 140.58125 28.05L140.58125 22.55L142.39375 22.55L142.39375 37.55L140.7375 37.55L140.64375 36.409374Q139.56563 37.753124 137.62813 37.753124Q135.8 37.753124 134.62813 36.253124Q133.47188 34.7375 133.47188 32.315624L133.47188 32.175ZM135.28438 32.378124Q135.28438 34.175 136.01875 35.190624Q136.76875 36.20625 138.08125 36.20625Q139.8 36.20625 140.58125 34.675L140.58125 29.815624Q139.78438 28.315624 138.09688 28.315624Q136.76875 28.315624 136.01875 29.346874Q135.28438 30.378124 135.28438 32.378124ZM147.08125 36.01875L153.83125 36.01875L153.83125 37.55L145.20625 37.55L145.20625 23.33125L147.08125 23.33125L147.08125 36.01875ZM157.87813 37.55L156.08125 37.55L156.08125 26.9875L157.87813 26.9875L157.87813 37.55ZM155.925 24.175Q155.925 23.7375 156.19063 23.440624Q156.47188 23.128124 156.9875 23.128124Q157.51875 23.128124 157.78438 23.440624Q158.06563 23.7375 158.06563 24.175Q158.06563 24.6125 157.78438 24.909374Q157.51875 25.20625 156.9875 25.20625Q156.47188 25.20625 156.19063 24.909374Q155.925 24.6125 155.925 24.175ZM167.06563 34.753124Q167.06563 34.01875 166.51875 33.6125Q165.97188 33.20625 164.59688 32.909374Q163.22188 32.6125 162.40938 32.20625Q161.6125 31.8 161.22188 31.2375Q160.84688 30.659374 160.84688 29.878124Q160.84688 28.58125 161.94063 27.690624Q163.03438 26.784374 164.75313 26.784374Q166.55 26.784374 167.65938 27.721874Q168.78438 28.64375 168.78438 30.08125L166.95625 30.08125Q166.95625 29.346874 166.33125 28.815624Q165.70625 28.26875 164.75313 28.26875Q163.75313 28.26875 163.19063 28.70625Q162.64375 29.128124 162.64375 29.83125Q162.64375 30.471874 163.15938 30.815624Q163.675 31.14375 165.03438 31.45625Q166.39375 31.753124 167.22188 32.175Q168.06563 32.58125 168.47188 33.175Q168.87813 33.76875 168.87813 34.6125Q168.87813 36.034374 167.7375 36.89375Q166.6125 37.753124 164.8 37.753124Q163.53438 37.753124 162.55 37.3Q161.58125 36.846874 161.01875 36.05Q160.47188 35.2375 160.47188 34.3L162.28438 34.3Q162.33125 35.20625 163.00313 35.7375Q163.69063 36.26875 164.8 36.26875Q165.83125 36.26875 166.44063 35.8625Q167.06563 35.440624 167.06563 34.753124ZM173.3625 24.425L173.3625 26.9875L175.34688 26.9875L175.34688 28.378124L173.3625 28.378124L173.3625 34.925Q173.3625 35.565624 173.62813 35.89375Q173.89375 36.20625 174.53438 36.20625Q174.84688 36.20625 175.39375 36.08125L175.39375 37.55Q174.675 37.753124 174.00313 37.753124Q172.8 37.753124 172.175 37.01875Q171.56563 36.284374 171.56563 34.925L171.56563 28.378124L169.64375 28.378124L169.64375 26.9875L171.56563 26.9875L171.56563 24.425L173.3625 24.425ZM177.95625 36.596874Q177.95625 36.128124 178.2375 35.815624Q178.51875 35.503124 179.06563 35.503124Q179.62813 35.503124 179.90938 35.815624Q180.20625 36.128124 180.20625 36.596874Q180.20625 37.05 179.90938 37.3625Q179.62813 37.659374 179.06563 37.659374Q178.51875 37.659374 178.2375 37.3625Q177.95625 37.05 177.95625 36.596874ZM177.95625 27.596874Q177.95625 27.128124 178.2375 26.815624Q178.51875 26.503124 179.06563 26.503124Q179.62813 26.503124 179.90938 26.815624Q180.20625 27.128124 180.20625 27.596874Q180.20625 28.05 179.90938 28.3625Q179.62813 28.659374 179.06563 28.659374Q178.51875 28.659374 178.2375 28.3625Q177.95625 28.05 177.95625 27.596874ZM196.05 33.83125L190.09688 33.83125L188.75313 37.55L186.83125 37.55L192.25313 23.33125L193.89375 23.33125L199.33125 37.55L197.40938 37.55L196.05 33.83125ZM190.65938 32.3L195.50313 32.3L193.08125 25.64375L190.65938 32.3ZM200.47188 32.175Q200.47188 29.753124 201.62813 28.26875Q202.78438 26.784374 204.64375 26.784374Q206.50313 26.784374 207.58125 28.05L207.58125 22.55L209.39375 22.55L209.39375 37.55L207.7375 37.55L207.64375 36.409374Q206.56563 37.753124 204.62813 37.753124Q202.8 37.753124 201.62813 36.253124Q200.47188 34.7375 200.47188 32.315624L200.47188 32.175ZM202.28438 32.378124Q202.28438 34.175 203.01875 35.190624Q203.76875 36.20625 205.08125 36.20625Q206.8 36.20625 207.58125 34.675L207.58125 29.815624Q206.78438 28.315624 205.09688 28.315624Q203.76875 28.315624 203.01875 29.346874Q202.28438 30.378124 202.28438 32.378124ZM211.47188 32.175Q211.47188 29.753124 212.62813 28.26875Q213.78438 26.784374 215.64375 26.784374Q217.50313 26.784374 218.58125 28.05L218.58125 22.55L220.39375 22.55L220.39375 37.55L218.7375 37.55L218.64375 36.409374Q217.56563 37.753124 215.62813 37.753124Q213.8 37.753124 212.62813 36.253124Q211.47188 34.7375 211.47188 32.315624L211.47188 32.175ZM213.28438 32.378124Q213.28438 34.175 214.01875 35.190624Q214.76875 36.20625 216.08125 36.20625Q217.8 36.20625 218.58125 34.675L218.58125 29.815624Q217.78438 28.315624 216.09688 28.315624Q214.76875 28.315624 214.01875 29.346874Q213.28438 30.378124 213.28438 32.378124Z" fill-rule="nonzero"/></svg>