<svg version="1.1" viewBox="0.0 0.0 538.0 332.0" fill="none" stroke="none" stroke-linecap="square" stroke-miterlimit="10" width="538" height="332" xmlns:xlink="http://www.w3.org/1999/xlink" xmlns="http://www.w3.org/2000/svg"><path fill="#ffffff" d="M0 0L538.0 0L538.0 332.0L0 332.0L0 0Z" fill-rule="nonzero"/><path fill="#ffffff" d="M0 0L538.0 0L538.0 332.0L0 332.0L0 0Z" fill-rule="nonzero"/><path stroke="#333333" stroke-width="1.0" stroke-linecap="butt" d="M50.5 294.5L521.5 294.5" fill-rule="nonzero"/><path stroke="#cccccc" stroke-width="1.0" stroke-linecap="butt" d="M50.5 224.5L521.5 224.5" fill-rule="nonzero"/><path stroke="#cccccc" stroke-width="1.0" stroke-linecap="butt" d="M50.5 154.5L521.5 154.5" fill-rule="nonzero"/><path stroke="#cccccc" stroke-width="1.0" stroke-linecap="butt" d="M50.5 85.5L521.5 85.5" fill-rule="nonzero"/><clipPath id="id_0"><path d="M50.6 85.23333L521.4 85.23333L521.4 294.4L50.6 294.4L50.6 85.23333Z" clip-rule="nonzero"/></clipPath><path stroke="#000000" stroke-width="0.0" stroke-linecap="butt" stroke-opacity="0.0" clip-path="url(#id_0)" d="M185.0 294.0L121.0 294.0L121.0 110.0C121.0 108.89543 121.89543 108.0 123.0 108.0L183.0 108.0C184.10457 108.0 185.0 108.89543 185.0 110.0Z" fill-rule="nonzero"/><path fill="#4285f4" clip-path="url(#id_0)" d="M185.0 294.0L121.0 294.0L121.0 110.0C121.0 108.89543 121.89543 108.0 123.0 108.0L183.0 108.0C184.10457 108.0 185.0 108.89543 185.0 110.0Z" fill-rule="nonzero"/><path stroke="#000000" stroke-width="0.0" stroke-linecap="butt" stroke-opacity="0.0" clip-path="url(#id_0)" d="M385.0 294.0L321.0 294.0L321.0 132.0C321.0 130.89543 321.89542 130.0 323.0 130.0L383.0 130.0C384.10458 130.0 385.0 130.89543 385.0 132.0Z" fill-rule="nonzero"/><path fill="#4285f4" clip-path="url(#id_0)" d="M385.0 294.0L321.0 294.0L321.0 132.0C321.0 130.89543 321.89542 130.0 323.0 130.0L383.0 130.0C384.10458 130.0 385.0 130.89543 385.0 132.0Z" fill-rule="nonzero"/><path stroke="#000000" stroke-width="0.0" stroke-linecap="butt" stroke-opacity="0.0" clip-path="url(#id_0)" d="M250.0 294.0L186.0 294.0L186.0 215.0C186.0 213.89543 186.89543 213.0 188.0 213.0L248.0 213.0C249.10457 213.0 250.0 213.89543 250.0 215.0Z" fill-rule="nonzero"/><path fill="#db4437" clip-path="url(#id_0)" d="M250.0 294.0L186.0 294.0L186.0 215.0C186.0 213.89543 186.89543 213.0 188.0 213.0L248.0 213.0C249.10457 213.0 250.0 213.89543 250.0 215.0Z" fill-rule="nonzero"/><path stroke="#000000" stroke-width="0.0" stroke-linecap="butt" stroke-opacity="0.0" clip-path="url(#id_0)" d="M450.0 294.0L386.0 294.0L386.0 294.0L450.0 294.0Z" fill-rule="nonzero"/><path fill="#db4437" clip-path="url(#id_0)" d="M450.0 294.0L386.0 294.0L386.0 294.0L450.0 294.0Z" fill-rule="nonzero"/><path fill="#757575" d="M43.6625 295.25937Q43.6625 297.16562 43.00625 298.10312Q42.365623 299.025 40.975 299.025Q39.615623 299.025 38.959373 298.11874Q38.303123 297.2125 38.271873 295.4L38.271873 293.9625Q38.271873 292.07187 38.9125 291.16562Q39.56875 290.24374 40.959373 290.24374Q42.334373 290.24374 42.990623 291.13437Q43.646873 292.00937 43.6625 293.85312L43.6625 295.25937ZM42.56875 293.775Q42.56875 292.4 42.178123 291.775Q41.803123 291.13437 40.959373 291.13437Q40.13125 291.13437 39.740623 291.775Q39.365623 292.4 39.365623 293.69687L39.365623 295.43124Q39.365623 296.80624 39.75625 297.47812Q40.1625 298.13437 40.975 298.13437Q41.771873 298.13437 42.1625 297.50937Q42.553123 296.88437 42.56875 295.55624L42.56875 293.775Z" fill-rule="nonzero"/><path fill="#757575" d="M22.896875 229.17778L17.303125 229.17778L17.303125 228.39653L20.25625 225.11528Q20.9125 224.36528 21.1625 223.91216Q21.4125 223.4434 21.4125 222.9434Q21.4125 222.27153 21.00625 221.84966Q20.615625 221.41216 19.928125 221.41216Q19.13125 221.41216 18.678125 221.8809Q18.225 222.33403 18.225 223.16216L17.146875 223.16216Q17.146875 221.97466 17.896875 221.2559Q18.6625 220.52153 19.928125 220.52153Q21.13125 220.52153 21.81875 221.14653Q22.50625 221.77153 22.50625 222.8184Q22.50625 224.0684 20.896875 225.8184L18.615625 228.28716L22.896875 228.28716L22.896875 229.17778ZM29.6625 225.53716Q29.6625 227.4434 29.00625 228.3809Q28.365625 229.30278 26.975 229.30278Q25.615625 229.30278 24.959375 228.39653Q24.303125 227.49028 24.271875 225.67778L24.271875 224.24028Q24.271875 222.34966 24.9125 221.4434Q25.56875 220.52153 26.959375 220.52153Q28.334375 220.52153 28.990625 221.41216Q29.646875 222.28716 29.6625 224.1309L29.6625 225.53716ZM28.56875 224.05278Q28.56875 222.67778 28.178125 222.05278Q27.803125 221.41216 26.959375 221.41216Q26.13125 221.41216 25.740625 222.05278Q25.365625 222.67778 25.365625 223.97466L25.365625 225.70903Q25.365625 227.08403 25.75625 227.7559Q26.1625 228.41216 26.975 228.41216Q27.771875 228.41216 28.1625 227.78716Q28.553125 227.16216 28.56875 225.83403L28.56875 224.05278ZM36.6625 225.53716Q36.6625 227.4434 36.00625 228.3809Q35.365623 229.30278 33.975 229.30278Q32.615623 229.30278 31.959375 228.39653Q31.303125 227.49028 31.271875 225.67778L31.271875 224.24028Q31.271875 222.34966 31.9125 221.4434Q32.56875 220.52153 33.959373 220.52153Q35.334373 220.52153 35.990623 221.41216Q36.646873 222.28716 36.6625 224.1309L36.6625 225.53716ZM35.56875 224.05278Q35.56875 222.67778 35.178123 222.05278Q34.803123 221.41216 33.959373 221.41216Q33.13125 221.41216 32.740623 222.05278Q32.365623 222.67778 32.365623 223.97466L32.365623 225.70903Q32.365623 227.08403 32.75625 227.7559Q33.1625 228.41216 33.975 228.41216Q34.771873 228.41216 35.1625 227.78716Q35.553123 227.16216 35.56875 225.83403L35.56875 224.05278ZM43.6625 225.53716Q43.6625 227.4434 43.00625 228.3809Q42.365623 229.30278 40.975 229.30278Q39.615623 229.30278 38.959373 228.39653Q38.303123 227.49028 38.271873 225.67778L38.271873 224.24028Q38.271873 222.34966 38.9125 221.4434Q39.56875 220.52153 40.959373 220.52153Q42.334373 220.52153 42.990623 221.41216Q43.646873 222.28716 43.6625 224.1309L43.6625 225.53716ZM42.56875 224.05278Q42.56875 222.67778 42.178123 222.05278Q41.803123 221.41216 40.959373 221.41216Q40.13125 221.41216 39.740623 222.05278Q39.365623 222.67778 39.365623 223.97466L39.365623 225.70903Q39.365623 227.08403 39.75625 227.7559Q40.1625 228.41216 40.975 228.41216Q41.771873 228.41216 42.1625 227.78716Q42.553123 227.16216 42.56875 225.83403L42.56875 224.05278Z" fill-rule="nonzero"/><path fill="#757575" d="M21.88125 156.59618L23.06875 156.59618L23.06875 157.47118L21.88125 157.47118L21.88125 159.45555L20.803125 159.45555L20.803125 157.47118L16.9125 157.47118L16.9125 156.83055L20.725 150.9243L21.88125 150.9243L21.88125 156.59618ZM18.146875 156.59618L20.803125 156.59618L20.803125 152.40868L20.6625 152.64305L18.146875 156.59618ZM29.6625 155.81493Q29.6625 157.72118 29.00625 158.65868Q28.365625 159.58055 26.975 159.58055Q25.615625 159.58055 24.959375 158.6743Q24.303125 157.76805 24.271875 155.95555L24.271875 154.51805Q24.271875 152.62743 24.9125 151.72118Q25.56875 150.7993 26.959375 150.7993Q28.334375 150.7993 28.990625 151.68993Q29.646875 152.56493 29.6625 154.40868L29.6625 155.81493ZM28.56875 154.33055Q28.56875 152.95555 28.178125 152.33055Q27.803125 151.68993 26.959375 151.68993Q26.13125 151.68993 25.740625 152.33055Q25.365625 152.95555 25.365625 154.25243L25.365625 155.9868Q25.365625 157.3618 25.75625 158.03368Q26.1625 158.68993 26.975 158.68993Q27.771875 158.68993 28.1625 158.06493Q28.553125 157.43993 28.56875 156.1118L28.56875 154.33055ZM36.6625 155.81493Q36.6625 157.72118 36.00625 158.65868Q35.365623 159.58055 33.975 159.58055Q32.615623 159.58055 31.959375 158.6743Q31.303125 157.76805 31.271875 155.95555L31.271875 154.51805Q31.271875 152.62743 31.9125 151.72118Q32.56875 150.7993 33.959373 150.7993Q35.334373 150.7993 35.990623 151.68993Q36.646873 152.56493 36.6625 154.40868L36.6625 155.81493ZM35.56875 154.33055Q35.56875 152.95555 35.178123 152.33055Q34.803123 151.68993 33.959373 151.68993Q33.13125 151.68993 32.740623 152.33055Q32.365623 152.95555 32.365623 154.25243L32.365623 155.9868Q32.365623 157.3618 32.75625 158.03368Q33.1625 158.68993 33.975 158.68993Q34.771873 158.68993 35.1625 158.06493Q35.553123 157.43993 35.56875 156.1118L35.56875 154.33055ZM43.6625 155.81493Q43.6625 157.72118 43.00625 158.65868Q42.365623 159.58055 40.975 159.58055Q39.615623 159.58055 38.959373 158.6743Q38.303123 157.76805 38.271873 155.95555L38.271873 154.51805Q38.271873 152.62743 38.9125 151.72118Q39.56875 150.7993 40.959373 150.7993Q42.334373 150.7993 42.990623 151.68993Q43.646873 152.56493 43.6625 154.40868L43.6625 155.81493ZM42.56875 154.33055Q42.56875 152.95555 42.178123 152.33055Q41.803123 151.68993 40.959373 151.68993Q40.13125 151.68993 39.740623 152.33055Q39.365623 152.95555 39.365623 154.25243L39.365623 155.9868Q39.365623 157.3618 39.75625 158.03368Q40.1625 158.68993 40.975 158.68993Q41.771873 158.68993 42.1625 158.06493Q42.553123 157.43993 42.56875 156.1118L42.56875 154.33055Z" fill-rule="nonzero"/><path fill="#757575" d="M21.56875 81.20208L21.56875 82.10833L21.365625 82.10833Q20.1 82.13958 19.35 82.873955Q18.6 83.592705 18.475 84.905205Q19.1625 84.13958 20.31875 84.13958Q21.428125 84.13958 22.1 84.92083Q22.771875 85.70208 22.771875 86.95208Q22.771875 88.26458 22.053125 89.061455Q21.334375 89.85833 20.115625 89.85833Q18.896875 89.85833 18.13125 88.92083Q17.38125 87.967705 17.38125 86.48333L17.38125 86.07708Q17.38125 83.717705 18.38125 82.467705Q19.38125 81.217705 21.365625 81.20208L21.56875 81.20208ZM20.146875 85.04583Q19.584375 85.04583 19.115625 85.373955Q18.646875 85.70208 18.459375 86.217705L18.459375 86.60833Q18.459375 87.67083 18.928125 88.311455Q19.4125 88.95208 20.115625 88.95208Q20.85 88.95208 21.271875 88.42083Q21.69375 87.873955 21.69375 86.998955Q21.69375 86.123955 21.271875 85.592705Q20.85 85.04583 20.146875 85.04583ZM29.6625 86.092705Q29.6625 87.998955 29.00625 88.936455Q28.365625 89.85833 26.975 89.85833Q25.615625 89.85833 24.959375 88.95208Q24.303125 88.04583 24.271875 86.23333L24.271875 84.79583Q24.271875 82.905205 24.9125 81.998955Q25.56875 81.07708 26.959375 81.07708Q28.334375 81.07708 28.990625 81.967705Q29.646875 82.842705 29.6625 84.686455L29.6625 86.092705ZM28.56875 84.60833Q28.56875 83.23333 28.178125 82.60833Q27.803125 81.967705 26.959375 81.967705Q26.13125 81.967705 25.740625 82.60833Q25.365625 83.23333 25.365625 84.530205L25.365625 86.26458Q25.365625 87.63958 25.75625 88.311455Q26.1625 88.967705 26.975 88.967705Q27.771875 88.967705 28.1625 88.342705Q28.553125 87.717705 28.56875 86.38958L28.56875 84.60833ZM36.6625 86.092705Q36.6625 87.998955 36.00625 88.936455Q35.365623 89.85833 33.975 89.85833Q32.615623 89.85833 31.959375 88.95208Q31.303125 88.04583 31.271875 86.23333L31.271875 84.79583Q31.271875 82.905205 31.9125 81.998955Q32.56875 81.07708 33.959373 81.07708Q35.334373 81.07708 35.990623 81.967705Q36.646873 82.842705 36.6625 84.686455L36.6625 86.092705ZM35.56875 84.60833Q35.56875 83.23333 35.178123 82.60833Q34.803123 81.967705 33.959373 81.967705Q33.13125 81.967705 32.740623 82.60833Q32.365623 83.23333 32.365623 84.530205L32.365623 86.26458Q32.365623 87.63958 32.75625 88.311455Q33.1625 88.967705 33.975 88.967705Q34.771873 88.967705 35.1625 88.342705Q35.553123 87.717705 35.56875 86.38958L35.56875 84.60833ZM43.6625 86.092705Q43.6625 87.998955 43.00625 88.936455Q42.365623 89.85833 40.975 89.85833Q39.615623 89.85833 38.959373 88.95208Q38.303123 88.04583 38.271873 86.23333L38.271873 84.79583Q38.271873 82.905205 38.9125 81.998955Q39.56875 81.07708 40.959373 81.07708Q42.334373 81.07708 42.990623 81.967705Q43.646873 82.842705 43.6625 84.686455L43.6625 86.092705ZM42.56875 84.60833Q42.56875 83.23333 42.178123 82.60833Q41.803123 81.967705 40.959373 81.967705Q40.13125 81.967705 39.740623 82.60833Q39.365623 83.23333 39.365623 84.530205L39.365623 86.26458Q39.365623 87.63958 39.75625 88.311455Q40.1625 88.967705 40.975 88.967705Q41.771873 88.967705 42.1625 88.342705Q42.553123 87.717705 42.56875 86.38958L42.56875 84.60833Z" fill-rule="nonzero"/><path fill="#757575" d="M130.37666 312.4L129.25166 312.4L129.25166 308.4625L124.93916 308.4625L124.93916 312.4L123.81416 312.4L123.81416 303.86874L124.93916 303.86874L124.93916 307.54062L129.25166 307.54062L129.25166 303.86874L130.37666 303.86874L130.37666 312.4ZM136.56416 312.4Q136.47041 312.2125 136.40791 311.72812Q135.65791 312.525 134.61104 312.525Q133.67354 312.525 133.06416 311.99374Q132.47041 311.4625 132.47041 310.63437Q132.47041 309.65 133.22041 309.10312Q133.97041 308.55624 135.34541 308.55624L136.39229 308.55624L136.39229 308.05624Q136.39229 307.49374 136.04854 307.16562Q135.72041 306.82187 135.04854 306.82187Q134.47041 306.82187 134.07979 307.11874Q133.68916 307.4 133.68916 307.82187L132.59541 307.82187Q132.59541 307.3375 132.92354 306.9Q133.26729 306.4625 133.84541 306.2125Q134.42354 305.94687 135.11104 305.94687Q136.22041 305.94687 136.82979 306.49374Q137.45479 307.04062 137.48604 307.99374L137.48604 310.91562Q137.48604 311.79062 137.70479 312.30624L137.70479 312.4L136.56416 312.4ZM134.76729 311.57187Q135.28291 311.57187 135.73604 311.30624Q136.18916 311.04062 136.39229 310.61874L136.39229 309.32187L135.54854 309.32187Q133.54854 309.32187 133.54854 310.49374Q133.54854 310.99374 133.89229 311.29062Q134.23604 311.57187 134.76729 311.57187ZM143.34541 310.7125Q143.34541 310.275 143.00166 310.04062Q142.67354 309.79062 141.84541 309.61874Q141.03291 309.44687 140.54854 309.19687Q140.06416 308.94687 139.82979 308.61874Q139.61104 308.275 139.61104 307.80624Q139.61104 307.025 140.26729 306.49374Q140.92354 305.94687 141.95479 305.94687Q143.03291 305.94687 143.68916 306.50937Q144.36104 307.05624 144.36104 307.91562L143.28291 307.91562Q143.28291 307.47812 142.89229 307.16562Q142.51729 306.8375 141.95479 306.8375Q141.36104 306.8375 141.01729 307.10312Q140.68916 307.35312 140.68916 307.75937Q140.68916 308.15 141.00166 308.35312Q141.31416 308.55624 142.12666 308.74374Q142.93916 308.91562 143.43916 309.16562Q143.93916 309.41562 144.17354 309.775Q144.42354 310.13437 144.42354 310.63437Q144.42354 311.49374 143.73604 312.00937Q143.06416 312.525 141.98604 312.525Q141.22041 312.525 140.62666 312.25937Q140.04854 311.97812 139.72041 311.49374Q139.39229 311.00937 139.39229 310.44687L140.47041 310.44687Q140.50166 310.99374 140.90791 311.32187Q141.31416 311.63437 141.98604 311.63437Q142.59541 311.63437 142.97041 311.38437Q143.34541 311.13437 143.34541 310.7125ZM146.73604 306.82187Q147.45479 305.94687 148.61104 305.94687Q150.62666 305.94687 150.64229 308.2125L150.64229 312.4L149.54854 312.4L149.54854 308.19687Q149.54854 307.525 149.23604 307.19687Q148.93916 306.86874 148.28291 306.86874Q147.75166 306.86874 147.34541 307.15Q146.95479 307.43124 146.73604 307.88437L146.73604 312.4L145.65791 312.4L145.65791 303.4L146.73604 303.4L146.73604 306.82187ZM155.32979 308.60312Q153.89229 308.18124 153.22041 307.57187Q152.56416 306.9625 152.56416 306.07187Q152.56416 305.07187 153.36104 304.41562Q154.17354 303.74374 155.47041 303.74374Q156.34541 303.74374 157.03291 304.0875Q157.72041 304.43124 158.09541 305.025Q158.48604 305.61874 158.48604 306.3375L157.34541 306.3375Q157.34541 305.55624 156.84541 305.11874Q156.36104 304.68124 155.47041 304.68124Q154.64229 304.68124 154.17354 305.05624Q153.70479 305.41562 153.70479 306.05624Q153.70479 306.5875 154.14229 306.94687Q154.59541 307.30624 155.65791 307.60312Q156.72041 307.9 157.31416 308.25937Q157.92354 308.61874 158.20479 309.10312Q158.50166 309.5875 158.50166 310.22812Q158.50166 311.275 157.68916 311.9Q156.87666 312.525 155.53291 312.525Q154.64229 312.525 153.87666 312.18124Q153.12666 311.8375 152.70479 311.25937Q152.29854 310.66562 152.29854 309.93124L153.42354 309.93124Q153.42354 310.69687 154.00166 311.15Q154.57979 311.60312 155.53291 311.60312Q156.42354 311.60312 156.89229 311.24374Q157.36104 310.86874 157.36104 310.24374Q157.36104 309.61874 156.92354 309.275Q156.48604 308.93124 155.32979 308.60312ZM162.28291 312.525Q160.98604 312.525 160.17354 311.68124Q159.37666 310.82187 159.37666 309.4L159.37666 309.2125Q159.37666 308.25937 159.73604 307.525Q160.09541 306.775 160.73604 306.36874Q161.39229 305.94687 162.14229 305.94687Q163.37666 305.94687 164.06416 306.75937Q164.75166 307.57187 164.75166 309.0875L164.75166 309.54062L160.45479 309.54062Q160.48604 310.47812 161.00166 311.05624Q161.53291 311.63437 162.34541 311.63437Q162.90791 311.63437 163.29854 311.4Q163.70479 311.16562 164.01729 310.775L164.67354 311.29062Q163.87666 312.525 162.28291 312.525ZM162.14229 306.8375Q161.48604 306.8375 161.03291 307.32187Q160.59541 307.79062 160.50166 308.65L163.67354 308.65L163.67354 308.57187Q163.62666 307.74374 163.22041 307.29062Q162.82979 306.8375 162.14229 306.8375ZM167.12666 304.525L167.12666 306.05624L168.29854 306.05624L168.29854 306.9L167.12666 306.9L167.12666 310.82187Q167.12666 311.2125 167.28291 311.4Q167.43916 311.5875 167.81416 311.5875Q168.00166 311.5875 168.32979 311.525L168.32979 312.4Q167.90791 312.525 167.50166 312.525Q166.78291 312.525 166.40791 312.0875Q166.03291 311.63437 166.03291 310.82187L166.03291 306.9L164.87666 306.9L164.87666 306.05624L166.03291 306.05624L166.03291 304.525L167.12666 304.525ZM174.22041 313.29062L168.86104 313.29062L168.86104 312.4L174.22041 312.4L174.22041 313.29062ZM179.53291 310.16562L175.95479 310.16562L175.15791 312.4L174.00166 312.4L177.25166 303.86874L178.23604 303.86874L181.50166 312.4L180.34541 312.4L179.53291 310.16562ZM176.29854 309.24374L179.20479 309.24374L177.75166 305.25937L176.29854 309.24374ZM182.39229 309.18124Q182.39229 307.7125 183.07979 306.8375Q183.76729 305.94687 184.89229 305.94687Q186.00166 305.94687 186.65791 306.69687L186.65791 303.4L187.73604 303.4L187.73604 312.4L186.73604 312.4L186.68916 311.7125Q186.03291 312.525 184.87666 312.525Q183.78291 312.525 183.07979 311.61874Q182.39229 310.7125 182.39229 309.25937L182.39229 309.18124ZM183.47041 309.30624Q183.47041 310.38437 183.90791 310.99374Q184.36104 311.60312 185.14229 311.60312Q186.17354 311.60312 186.65791 310.66562L186.65791 307.75937Q186.17354 306.86874 185.15791 306.86874Q184.36104 306.86874 183.90791 307.47812Q183.47041 308.0875 183.47041 309.30624ZM189.39229 309.18124Q189.39229 307.7125 190.07979 306.8375Q190.76729 305.94687 191.89229 305.94687Q193.00166 305.94687 193.65791 306.69687L193.65791 303.4L194.73604 303.4L194.73604 312.4L193.73604 312.4L193.68916 311.7125Q193.03291 312.525 191.87666 312.525Q190.78291 312.525 190.07979 311.61874Q189.39229 310.7125 189.39229 309.25937L189.39229 309.18124ZM190.47041 309.30624Q190.47041 310.38437 190.90791 310.99374Q191.36104 311.60312 192.14229 311.60312Q193.17354 311.60312 193.65791 310.66562L193.65791 307.75937Q193.17354 306.86874 192.15791 306.86874Q191.36104 306.86874 190.90791 307.47812Q190.47041 308.0875 190.47041 309.30624ZM199.61104 308.93124Q199.61104 307.61874 199.95479 306.4Q200.31416 305.18124 201.01729 304.18124Q201.72041 303.18124 202.48604 302.775L202.70479 303.49374Q201.84541 304.15 201.29854 305.49374Q200.75166 306.8375 200.70479 308.50937L200.68916 309.00937Q200.68916 311.275 201.51729 312.93124Q202.01729 313.93124 202.70479 314.49374L202.48604 315.15Q201.70479 314.72812 200.98604 313.69687Q199.61104 311.7125 199.61104 308.93124ZM207.09541 312.4L206.01729 312.4L206.01729 305.18124L203.82979 305.97812L203.82979 304.99374L206.93916 303.82187L207.09541 303.82187L207.09541 312.4ZM215.89229 308.75937Q215.89229 310.66562 215.23604 311.60312Q214.59541 312.525 213.20479 312.525Q211.84541 312.525 211.18916 311.61874Q210.53291 310.7125 210.50166 308.9L210.50166 307.4625Q210.50166 305.57187 211.14229 304.66562Q211.79854 303.74374 213.18916 303.74374Q214.56416 303.74374 215.22041 304.63437Q215.87666 305.50937 215.89229 307.35312L215.89229 308.75937ZM214.79854 307.275Q214.79854 305.9 214.40791 305.275Q214.03291 304.63437 213.18916 304.63437Q212.36104 304.63437 211.97041 305.275Q211.59541 305.9 211.59541 307.19687L211.59541 308.93124Q211.59541 310.30624 211.98604 310.97812Q212.39229 311.63437 213.20479 311.63437Q214.00166 311.63437 214.39229 311.00937Q214.78291 310.38437 214.79854 309.05624L214.79854 307.275ZM222.89229 308.75937Q222.89229 310.66562 222.23604 311.60312Q221.59541 312.525 220.20479 312.525Q218.84541 312.525 218.18916 311.61874Q217.53291 310.7125 217.50166 308.9L217.50166 307.4625Q217.50166 305.57187 218.14229 304.66562Q218.79854 303.74374 220.18916 303.74374Q221.56416 303.74374 222.22041 304.63437Q222.87666 305.50937 222.89229 307.35312L222.89229 308.75937ZM221.79854 307.275Q221.79854 305.9 221.40791 305.275Q221.03291 304.63437 220.18916 304.63437Q219.36104 304.63437 218.97041 305.275Q218.59541 305.9 218.59541 307.19687L218.59541 308.93124Q218.59541 310.30624 218.98604 310.97812Q219.39229 311.63437 220.20479 311.63437Q221.00166 311.63437 221.39229 311.00937Q221.78291 310.38437 221.79854 309.05624L221.79854 307.275ZM229.89229 308.75937Q229.89229 310.66562 229.23604 311.60312Q228.59541 312.525 227.20479 312.525Q225.84541 312.525 225.18916 311.61874Q224.53291 310.7125 224.50166 308.9L224.50166 307.4625Q224.50166 305.57187 225.14229 304.66562Q225.79854 303.74374 227.18916 303.74374Q228.56416 303.74374 229.22041 304.63437Q229.87666 305.50937 229.89229 307.35312L229.89229 308.75937ZM228.79854 307.275Q228.79854 305.9 228.40791 305.275Q228.03291 304.63437 227.18916 304.63437Q226.36104 304.63437 225.97041 305.275Q225.59541 305.9 225.59541 307.19687L225.59541 308.93124Q225.59541 310.30624 225.98604 310.97812Q226.39229 311.63437 227.20479 311.63437Q228.00166 311.63437 228.39229 311.00937Q228.78291 310.38437 228.79854 309.05624L228.79854 307.275ZM236.89229 308.75937Q236.89229 310.66562 236.23604 311.60312Q235.59541 312.525 234.20479 312.525Q232.84541 312.525 232.18916 311.61874Q231.53291 310.7125 231.50166 308.9L231.50166 307.4625Q231.50166 305.57187 232.14229 304.66562Q232.79854 303.74374 234.18916 303.74374Q235.56416 303.74374 236.22041 304.63437Q236.87666 305.50937 236.89229 307.35312L236.89229 308.75937ZM235.79854 307.275Q235.79854 305.9 235.40791 305.275Q235.03291 304.63437 234.18916 304.63437Q233.36104 304.63437 232.97041 305.275Q232.59541 305.9 232.59541 307.19687L232.59541 308.93124Q232.59541 310.30624 232.98604 310.97812Q233.39229 311.63437 234.20479 311.63437Q235.00166 311.63437 235.39229 311.00937Q235.78291 310.38437 235.79854 309.05624L235.79854 307.275ZM243.89229 308.75937Q243.89229 310.66562 243.23604 311.60312Q242.59541 312.525 241.20479 312.525Q239.84541 312.525 239.18916 311.61874Q238.53291 310.7125 238.50166 308.9L238.50166 307.4625Q238.50166 305.57187 239.14229 304.66562Q239.79854 303.74374 241.18916 303.74374Q242.56416 303.74374 243.22041 304.63437Q243.87666 305.50937 243.89229 307.35312L243.89229 308.75937ZM242.79854 307.275Q242.79854 305.9 242.40791 305.275Q242.03291 304.63437 241.18916 304.63437Q240.36104 304.63437 239.97041 305.275Q239.59541 305.9 239.59541 307.19687L239.59541 308.93124Q239.59541 310.30624 239.98604 310.97812Q240.39229 311.63437 241.20479 311.63437Q242.00166 311.63437 242.39229 311.00937Q242.78291 310.38437 242.79854 309.05624L242.79854 307.275ZM248.15791 308.99374Q248.15791 310.30624 247.81416 311.50937Q247.47041 312.69687 246.75166 313.7125Q246.04854 314.72812 245.28291 315.15L245.04854 314.49374Q245.95479 313.80624 246.50166 312.35312Q247.04854 310.88437 247.06416 309.11874L247.06416 308.93124Q247.06416 307.69687 246.79854 306.63437Q246.54854 305.57187 246.07979 304.74374Q245.62666 303.9 245.04854 303.43124L245.28291 302.775Q246.04854 303.19687 246.75166 304.19687Q247.45479 305.19687 247.79854 306.41562Q248.15791 307.61874 248.15791 308.99374Z" fill-rule="nonzero"/><path fill="#757575" d="M320.7796 309.05624L320.7796 312.4L319.6546 312.4L319.6546 303.86874L322.81085 303.86874Q324.20148 303.86874 324.99835 304.5875Q325.79523 305.29062 325.79523 306.47812Q325.79523 307.7125 325.01398 308.38437Q324.24835 309.05624 322.79523 309.05624L320.7796 309.05624ZM320.7796 308.13437L322.81085 308.13437Q323.7171 308.13437 324.18585 307.7125Q324.67023 307.29062 324.67023 306.49374Q324.67023 305.72812 324.18585 305.275Q323.7171 304.80624 322.87335 304.79062L320.7796 304.79062L320.7796 308.13437ZM327.20148 309.16562Q327.20148 308.24374 327.56085 307.49374Q327.93585 306.74374 328.5921 306.35312Q329.24835 305.94687 330.07648 305.94687Q331.37335 305.94687 332.17023 306.8375Q332.98273 307.72812 332.98273 309.22812L332.98273 309.30624Q332.98273 310.22812 332.62335 310.9625Q332.26398 311.69687 331.60773 312.11874Q330.95148 312.525 330.0921 312.525Q328.81085 312.525 327.99835 311.63437Q327.20148 310.72812 327.20148 309.24374L327.20148 309.16562ZM328.29523 309.30624Q328.29523 310.35312 328.7796 310.99374Q329.2796 311.63437 330.0921 311.63437Q330.92023 311.63437 331.4046 310.99374Q331.88898 310.3375 331.88898 309.16562Q331.88898 308.13437 331.38898 307.49374Q330.9046 306.8375 330.07648 306.8375Q329.2796 306.8375 328.7796 307.47812Q328.29523 308.10312 328.29523 309.30624ZM334.20148 309.16562Q334.20148 308.24374 334.56085 307.49374Q334.93585 306.74374 335.5921 306.35312Q336.24835 305.94687 337.07648 305.94687Q338.37335 305.94687 339.17023 306.8375Q339.98273 307.72812 339.98273 309.22812L339.98273 309.30624Q339.98273 310.22812 339.62335 310.9625Q339.26398 311.69687 338.60773 312.11874Q337.95148 312.525 337.0921 312.525Q335.81085 312.525 334.99835 311.63437Q334.20148 310.72812 334.20148 309.24374L334.20148 309.16562ZM335.29523 309.30624Q335.29523 310.35312 335.7796 310.99374Q336.2796 311.63437 337.0921 311.63437Q337.92023 311.63437 338.4046 310.99374Q338.88898 310.3375 338.88898 309.16562Q338.88898 308.13437 338.38898 307.49374Q337.9046 306.8375 337.07648 306.8375Q336.2796 306.8375 335.7796 307.47812Q335.29523 308.10312 335.29523 309.30624ZM342.67023 312.4L341.5921 312.4L341.5921 303.4L342.67023 303.4L342.67023 312.4ZM347.12335 312.525Q345.82648 312.525 345.01398 311.68124Q344.2171 310.82187 344.2171 309.4L344.2171 309.2125Q344.2171 308.25937 344.57648 307.525Q344.93585 306.775 345.57648 306.36874Q346.23273 305.94687 346.98273 305.94687Q348.2171 305.94687 348.9046 306.75937Q349.5921 307.57187 349.5921 309.0875L349.5921 309.54062L345.29523 309.54062Q345.32648 310.47812 345.8421 311.05624Q346.37335 311.63437 347.18585 311.63437Q347.74835 311.63437 348.13898 311.4Q348.54523 311.16562 348.85773 310.775L349.51398 311.29062Q348.7171 312.525 347.12335 312.525ZM346.98273 306.8375Q346.32648 306.8375 345.87335 307.32187Q345.43585 307.79062 345.3421 308.65L348.51398 308.65L348.51398 308.57187Q348.4671 307.74374 348.06085 307.29062Q347.67023 306.8375 346.98273 306.8375ZM350.23273 309.18124Q350.23273 307.7125 350.92023 306.8375Q351.60773 305.94687 352.73273 305.94687Q353.8421 305.94687 354.49835 306.69687L354.49835 303.4L355.57648 303.4L355.57648 312.4L354.57648 312.4L354.5296 311.7125Q353.87335 312.525 352.7171 312.525Q351.62335 312.525 350.92023 311.61874Q350.23273 310.7125 350.23273 309.25937L350.23273 309.18124ZM351.31085 309.30624Q351.31085 310.38437 351.74835 310.99374Q352.20148 311.60312 352.98273 311.60312Q354.01398 311.60312 354.49835 310.66562L354.49835 307.75937Q354.01398 306.86874 352.99835 306.86874Q352.20148 306.86874 351.74835 307.47812Q351.31085 308.0875 351.31085 309.30624ZM360.17023 308.60312Q358.73273 308.18124 358.06085 307.57187Q357.4046 306.9625 357.4046 306.07187Q357.4046 305.07187 358.20148 304.41562Q359.01398 303.74374 360.31085 303.74374Q361.18585 303.74374 361.87335 304.0875Q362.56085 304.43124 362.93585 305.025Q363.32648 305.61874 363.32648 306.3375L362.18585 306.3375Q362.18585 305.55624 361.68585 305.11874Q361.20148 304.68124 360.31085 304.68124Q359.48273 304.68124 359.01398 305.05624Q358.54523 305.41562 358.54523 306.05624Q358.54523 306.5875 358.98273 306.94687Q359.43585 307.30624 360.49835 307.60312Q361.56085 307.9 362.1546 308.25937Q362.76398 308.61874 363.04523 309.10312Q363.3421 309.5875 363.3421 310.22812Q363.3421 311.275 362.5296 311.9Q361.7171 312.525 360.37335 312.525Q359.48273 312.525 358.7171 312.18124Q357.9671 311.8375 357.54523 311.25937Q357.13898 310.66562 357.13898 309.93124L358.26398 309.93124Q358.26398 310.69687 358.8421 311.15Q359.42023 311.60312 360.37335 311.60312Q361.26398 311.60312 361.73273 311.24374Q362.20148 310.86874 362.20148 310.24374Q362.20148 309.61874 361.76398 309.275Q361.32648 308.93124 360.17023 308.60312ZM367.12335 312.525Q365.82648 312.525 365.01398 311.68124Q364.2171 310.82187 364.2171 309.4L364.2171 309.2125Q364.2171 308.25937 364.57648 307.525Q364.93585 306.775 365.57648 306.36874Q366.23273 305.94687 366.98273 305.94687Q368.2171 305.94687 368.9046 306.75937Q369.5921 307.57187 369.5921 309.0875L369.5921 309.54062L365.29523 309.54062Q365.32648 310.47812 365.8421 311.05624Q366.37335 311.63437 367.18585 311.63437Q367.74835 311.63437 368.13898 311.4Q368.54523 311.16562 368.85773 310.775L369.51398 311.29062Q368.7171 312.525 367.12335 312.525ZM366.98273 306.8375Q366.32648 306.8375 365.87335 307.32187Q365.43585 307.79062 365.3421 308.65L368.51398 308.65L368.51398 308.57187Q368.4671 307.74374 368.06085 307.29062Q367.67023 306.8375 366.98273 306.8375ZM371.9671 304.525L371.9671 306.05624L373.13898 306.05624L373.13898 306.9L371.9671 306.9L371.9671 310.82187Q371.9671 311.2125 372.12335 311.4Q372.2796 311.5875 372.6546 311.5875Q372.8421 311.5875 373.17023 311.525L373.17023 312.4Q372.74835 312.525 372.3421 312.525Q371.62335 312.525 371.24835 312.0875Q370.87335 311.63437 370.87335 310.82187L370.87335 306.9L369.7171 306.9L369.7171 306.05624L370.87335 306.05624L370.87335 304.525L371.9671 304.525ZM379.06085 313.29062L373.70148 313.29062L373.70148 312.4L379.06085 312.4L379.06085 313.29062ZM384.37335 310.16562L380.79523 310.16562L379.99835 312.4L378.8421 312.4L382.0921 303.86874L383.07648 303.86874L386.3421 312.4L385.18585 312.4L384.37335 310.16562ZM381.13898 309.24374L384.04523 309.24374L382.5921 305.25937L381.13898 309.24374ZM387.23273 309.18124Q387.23273 307.7125 387.92023 306.8375Q388.60773 305.94687 389.73273 305.94687Q390.8421 305.94687 391.49835 306.69687L391.49835 303.4L392.57648 303.4L392.57648 312.4L391.57648 312.4L391.5296 311.7125Q390.87335 312.525 389.7171 312.525Q388.62335 312.525 387.92023 311.61874Q387.23273 310.7125 387.23273 309.25937L387.23273 309.18124ZM388.31085 309.30624Q388.31085 310.38437 388.74835 310.99374Q389.20148 311.60312 389.98273 311.60312Q391.01398 311.60312 391.49835 310.66562L391.49835 307.75937Q391.01398 306.86874 389.99835 306.86874Q389.20148 306.86874 388.74835 307.47812Q388.31085 308.0875 388.31085 309.30624ZM394.23273 309.18124Q394.23273 307.7125 394.92023 306.8375Q395.60773 305.94687 396.73273 305.94687Q397.8421 305.94687 398.49835 306.69687L398.49835 303.4L399.57648 303.4L399.57648 312.4L398.57648 312.4L398.5296 311.7125Q397.87335 312.525 396.7171 312.525Q395.62335 312.525 394.92023 311.61874Q394.23273 310.7125 394.23273 309.25937L394.23273 309.18124ZM395.31085 309.30624Q395.31085 310.38437 395.74835 310.99374Q396.20148 311.60312 396.98273 311.60312Q398.01398 311.60312 398.49835 310.66562L398.49835 307.75937Q398.01398 306.86874 396.99835 306.86874Q396.20148 306.86874 395.74835 307.47812Q395.31085 308.0875 395.31085 309.30624ZM404.45148 308.93124Q404.45148 307.61874 404.79523 306.4Q405.1546 305.18124 405.85773 304.18124Q406.56085 303.18124 407.32648 302.775L407.54523 303.49374Q406.68585 304.15 406.13898 305.49374Q405.5921 306.8375 405.54523 308.50937L405.5296 309.00937Q405.5296 311.275 406.35773 312.93124Q406.85773 313.93124 407.54523 314.49374L407.32648 315.15Q406.54523 314.72812 405.82648 313.69687Q404.45148 311.7125 404.45148 308.93124ZM411.93585 312.4L410.85773 312.4L410.85773 305.18124L408.67023 305.97812L408.67023 304.99374L411.7796 303.82187L411.93585 303.82187L411.93585 312.4ZM420.73273 308.75937Q420.73273 310.66562 420.07648 311.60312Q419.43585 312.525 418.04523 312.525Q416.68585 312.525 416.0296 311.61874Q415.37335 310.7125 415.3421 308.9L415.3421 307.4625Q415.3421 305.57187 415.98273 304.66562Q416.63898 303.74374 418.0296 303.74374Q419.4046 303.74374 420.06085 304.63437Q420.7171 305.50937 420.73273 307.35312L420.73273 308.75937ZM419.63898 307.275Q419.63898 305.9 419.24835 305.275Q418.87335 304.63437 418.0296 304.63437Q417.20148 304.63437 416.81085 305.275Q416.43585 305.9 416.43585 307.19687L416.43585 308.93124Q416.43585 310.30624 416.82648 310.97812Q417.23273 311.63437 418.04523 311.63437Q418.8421 311.63437 419.23273 311.00937Q419.62335 310.38437 419.63898 309.05624L419.63898 307.275ZM427.73273 308.75937Q427.73273 310.66562 427.07648 311.60312Q426.43585 312.525 425.04523 312.525Q423.68585 312.525 423.0296 311.61874Q422.37335 310.7125 422.3421 308.9L422.3421 307.4625Q422.3421 305.57187 422.98273 304.66562Q423.63898 303.74374 425.0296 303.74374Q426.4046 303.74374 427.06085 304.63437Q427.7171 305.50937 427.73273 307.35312L427.73273 308.75937ZM426.63898 307.275Q426.63898 305.9 426.24835 305.275Q425.87335 304.63437 425.0296 304.63437Q424.20148 304.63437 423.81085 305.275Q423.43585 305.9 423.43585 307.19687L423.43585 308.93124Q423.43585 310.30624 423.82648 310.97812Q424.23273 311.63437 425.04523 311.63437Q425.8421 311.63437 426.23273 311.00937Q426.62335 310.38437 426.63898 309.05624L426.63898 307.275ZM434.73273 308.75937Q434.73273 310.66562 434.07648 311.60312Q433.43585 312.525 432.04523 312.525Q430.68585 312.525 430.0296 311.61874Q429.37335 310.7125 429.3421 308.9L429.3421 307.4625Q429.3421 305.57187 429.98273 304.66562Q430.63898 303.74374 432.0296 303.74374Q433.4046 303.74374 434.06085 304.63437Q434.7171 305.50937 434.73273 307.35312L434.73273 308.75937ZM433.63898 307.275Q433.63898 305.9 433.24835 305.275Q432.87335 304.63437 432.0296 304.63437Q431.20148 304.63437 430.81085 305.275Q430.43585 305.9 430.43585 307.19687L430.43585 308.93124Q430.43585 310.30624 430.82648 310.97812Q431.23273 311.63437 432.04523 311.63437Q432.8421 311.63437 433.23273 311.00937Q433.62335 310.38437 433.63898 309.05624L433.63898 307.275ZM441.73273 308.75937Q441.73273 310.66562 441.07648 311.60312Q440.43585 312.525 439.04523 312.525Q437.68585 312.525 437.0296 311.61874Q436.37335 310.7125 436.3421 308.9L436.3421 307.4625Q436.3421 305.57187 436.98273 304.66562Q437.63898 303.74374 439.0296 303.74374Q440.4046 303.74374 441.06085 304.63437Q441.7171 305.50937 441.73273 307.35312L441.73273 308.75937ZM440.63898 307.275Q440.63898 305.9 440.24835 305.275Q439.87335 304.63437 439.0296 304.63437Q438.20148 304.63437 437.81085 305.275Q437.43585 305.9 437.43585 307.19687L437.43585 308.93124Q437.43585 310.30624 437.82648 310.97812Q438.23273 311.63437 439.04523 311.63437Q439.8421 311.63437 440.23273 311.00937Q440.62335 310.38437 440.63898 309.05624L440.63898 307.275ZM448.73273 308.75937Q448.73273 310.66562 448.07648 311.60312Q447.43585 312.525 446.04523 312.525Q444.68585 312.525 444.0296 311.61874Q443.37335 310.7125 443.3421 308.9L443.3421 307.4625Q443.3421 305.57187 443.98273 304.66562Q444.63898 303.74374 446.0296 303.74374Q447.4046 303.74374 448.06085 304.63437Q448.7171 305.50937 448.73273 307.35312L448.73273 308.75937ZM447.63898 307.275Q447.63898 305.9 447.24835 305.275Q446.87335 304.63437 446.0296 304.63437Q445.20148 304.63437 444.81085 305.275Q444.43585 305.9 444.43585 307.19687L444.43585 308.93124Q444.43585 310.30624 444.82648 310.97812Q445.23273 311.63437 446.04523 311.63437Q446.8421 311.63437 447.23273 311.00937Q447.62335 310.38437 447.63898 309.05624L447.63898 307.275ZM452.99835 308.99374Q452.99835 310.30624 452.6546 311.50937Q452.31085 312.69687 451.5921 313.7125Q450.88898 314.72812 450.12335 315.15L449.88898 314.49374Q450.79523 313.80624 451.3421 312.35312Q451.88898 310.88437 451.9046 309.11874L451.9046 308.93124Q451.9046 307.69687 451.63898 306.63437Q451.38898 305.57187 450.92023 304.74374Q450.4671 303.9 449.88898 303.43124L450.12335 302.775Q450.88898 303.19687 451.5921 304.19687Q452.29523 305.19687 452.63898 306.41562Q452.99835 307.61874 452.99835 308.99374Z" fill-rule="nonzero"/><path fill="#4285f4" d="M155.5 54.166668C155.5 53.614384 155.94771 53.166668 156.5 53.166668L166.5 53.166668C167.05229 53.166668 167.5 53.614384 167.5 54.166668L167.5 64.166664C167.5 64.71895 167.05229 65.166664 166.5 65.166664L156.5 65.166664C155.94771 65.166664 155.5 64.71895 155.5 64.166664Z" fill-rule="nonzero"/><path fill="#757575" d="M177.9375 55.135418L180.73438 62.088543L183.51562 55.135418L184.98438 55.135418L184.98438 63.666668L183.85938 63.666668L183.85938 60.338543L183.96875 56.760418L181.15625 63.666668L180.29688 63.666668L177.5 56.776043L177.60938 60.338543L177.60938 63.666668L176.48438 63.666668L176.48438 55.135418L177.9375 55.135418ZM187.5 63.666668L186.42188 63.666668L186.42188 57.322918L187.5 57.322918L187.5 63.666668ZM186.32812 55.651043Q186.32812 55.385418 186.48438 55.197918Q186.65625 55.010418 186.96875 55.010418Q187.28125 55.010418 187.4375 55.197918Q187.60938 55.385418 187.60938 55.651043Q187.60938 55.901043 187.4375 56.088543Q187.28125 56.260418 186.96875 56.260418Q186.65625 56.260418 186.48438 56.088543Q186.32812 55.901043 186.32812 55.651043ZM190.5 63.666668L189.42188 63.666668L189.42188 54.666668L190.5 54.666668L190.5 63.666668ZM193.5 63.666668L192.42188 63.666668L192.42188 54.666668L193.5 54.666668L193.5 63.666668ZM196.5 63.666668L195.42188 63.666668L195.42188 57.322918L196.5 57.322918L196.5 63.666668ZM195.32812 55.651043Q195.32812 55.385418 195.48438 55.197918Q195.65625 55.010418 195.96875 55.010418Q196.28125 55.010418 196.4375 55.197918Q196.60938 55.385418 196.60938 55.651043Q196.60938 55.901043 196.4375 56.088543Q196.28125 56.260418 195.96875 56.260418Q195.65625 56.260418 195.48438 56.088543Q195.32812 55.901043 195.32812 55.651043ZM202.01562 61.979168Q202.01562 61.541668 201.67188 61.307293Q201.34375 61.057293 200.51562 60.885418Q199.70312 60.713543 199.21875 60.463543Q198.73438 60.213543 198.5 59.885418Q198.28125 59.541668 198.28125 59.072918Q198.28125 58.291668 198.9375 57.760418Q199.59375 57.213543 200.625 57.213543Q201.70312 57.213543 202.35938 57.776043Q203.03125 58.322918 203.03125 59.182293L201.95312 59.182293Q201.95312 58.744793 201.5625 58.432293Q201.1875 58.104168 200.625 58.104168Q200.03125 58.104168 199.6875 58.369793Q199.35938 58.619793 199.35938 59.026043Q199.35938 59.416668 199.67188 59.619793Q199.98438 59.822918 200.79688 60.010418Q201.60938 60.182293 202.10938 60.432293Q202.60938 60.682293 202.84375 61.041668Q203.09375 61.401043 203.09375 61.901043Q203.09375 62.760418 202.40625 63.276043Q201.73438 63.791668 200.65625 63.791668Q199.89062 63.791668 199.29688 63.526043Q198.71875 63.244793 198.39062 62.760418Q198.0625 62.276043 198.0625 61.713543L199.14062 61.713543Q199.17188 62.260418 199.57812 62.588543Q199.98438 62.901043 200.65625 62.901043Q201.26562 62.901043 201.64062 62.651043Q202.01562 62.401043 202.01562 61.979168ZM206.95312 63.791668Q205.65625 63.791668 204.84375 62.947918Q204.04688 62.088543 204.04688 60.666668L204.04688 60.479168Q204.04688 59.526043 204.40625 58.791668Q204.76562 58.041668 205.40625 57.635418Q206.0625 57.213543 206.8125 57.213543Q208.04688 57.213543 208.73438 58.026043Q209.42188 58.838543 209.42188 60.354168L209.42188 60.807293L205.125 60.807293Q205.15625 61.744793 205.67188 62.322918Q206.20312 62.901043 207.01562 62.901043Q207.57812 62.901043 207.96875 62.666668Q208.375 62.432293 208.6875 62.041668L209.34375 62.557293Q208.54688 63.791668 206.95312 63.791668ZM206.8125 58.104168Q206.15625 58.104168 205.70312 58.588543Q205.26562 59.057293 205.17188 59.916668L208.34375 59.916668L208.34375 59.838543Q208.29688 59.010418 207.89062 58.557293Q207.5 58.104168 206.8125 58.104168ZM212.85938 62.901043Q213.4375 62.901043 213.875 62.557293Q214.3125 62.197918 214.35938 61.666668L215.39062 61.666668Q215.35938 62.213543 215.0 62.713543Q214.65625 63.197918 214.07812 63.494793Q213.51562 63.791668 212.85938 63.791668Q211.5625 63.791668 210.79688 62.932293Q210.04688 62.057293 210.04688 60.557293L210.04688 60.369793Q210.04688 59.447918 210.375 58.729168Q210.71875 58.010418 211.34375 57.619793Q211.98438 57.213543 212.85938 57.213543Q213.92188 57.213543 214.625 57.854168Q215.34375 58.479168 215.39062 59.510418L214.35938 59.510418Q214.3125 58.885418 213.89062 58.494793Q213.46875 58.104168 212.85938 58.104168Q212.03125 58.104168 211.57812 58.697918Q211.125 59.291668 211.125 60.416668L211.125 60.619793Q211.125 61.713543 211.57812 62.307293Q212.03125 62.901043 212.85938 62.901043ZM216.03125 60.432293Q216.03125 59.510418 216.39062 58.760418Q216.76562 58.010418 217.42188 57.619793Q218.07812 57.213543 218.90625 57.213543Q220.20312 57.213543 221.0 58.104168Q221.8125 58.994793 221.8125 60.494793L221.8125 60.572918Q221.8125 61.494793 221.45312 62.229168Q221.09375 62.963543 220.4375 63.385418Q219.78125 63.791668 218.92188 63.791668Q217.64062 63.791668 216.82812 62.901043Q216.03125 61.994793 216.03125 60.510418L216.03125 60.432293ZM217.125 60.572918Q217.125 61.619793 217.60938 62.260418Q218.10938 62.901043 218.92188 62.901043Q219.75 62.901043 220.23438 62.260418Q220.71875 61.604168 220.71875 60.432293Q220.71875 59.401043 220.21875 58.760418Q219.73438 58.104168 218.90625 58.104168Q218.10938 58.104168 217.60938 58.744793Q217.125 59.369793 217.125 60.572918ZM224.34375 57.322918L224.375 58.119793Q225.10938 57.213543 226.28125 57.213543Q228.29688 57.213543 228.3125 59.479168L228.3125 63.666668L227.21875 63.666668L227.21875 59.463543Q227.21875 58.791668 226.90625 58.463543Q226.60938 58.135418 225.95312 58.135418Q225.42188 58.135418 225.01562 58.416668Q224.625 58.697918 224.40625 59.151043L224.40625 63.666668L223.32812 63.666668L223.32812 57.322918L224.34375 57.322918ZM230.0625 60.447918Q230.0625 58.979168 230.75 58.104168Q231.4375 57.213543 232.5625 57.213543Q233.67188 57.213543 234.32812 57.963543L234.32812 54.666668L235.40625 54.666668L235.40625 63.666668L234.40625 63.666668L234.35938 62.979168Q233.70312 63.791668 232.54688 63.791668Q231.45312 63.791668 230.75 62.885418Q230.0625 61.979168 230.0625 60.526043L230.0625 60.447918ZM231.14062 60.572918Q231.14062 61.651043 231.57812 62.260418Q232.03125 62.869793 232.8125 62.869793Q233.84375 62.869793 234.32812 61.932293L234.32812 59.026043Q233.84375 58.135418 232.82812 58.135418Q232.03125 58.135418 231.57812 58.744793Q231.14062 59.354168 231.14062 60.572918ZM241.01562 61.979168Q241.01562 61.541668 240.67188 61.307293Q240.34375 61.057293 239.51562 60.885418Q238.70312 60.713543 238.21875 60.463543Q237.73438 60.213543 237.5 59.885418Q237.28125 59.541668 237.28125 59.072918Q237.28125 58.291668 237.9375 57.760418Q238.59375 57.213543 239.625 57.213543Q240.70312 57.213543 241.35938 57.776043Q242.03125 58.322918 242.03125 59.182293L240.95312 59.182293Q240.95312 58.744793 240.5625 58.432293Q240.1875 58.104168 239.625 58.104168Q239.03125 58.104168 238.6875 58.369793Q238.35938 58.619793 238.35938 59.026043Q238.35938 59.416668 238.67188 59.619793Q238.98438 59.822918 239.79688 60.010418Q240.60938 60.182293 241.10938 60.432293Q241.60938 60.682293 241.84375 61.041668Q242.09375 61.401043 242.09375 61.901043Q242.09375 62.760418 241.40625 63.276043Q240.73438 63.791668 239.65625 63.791668Q238.89062 63.791668 238.29688 63.526043Q237.71875 63.244793 237.39062 62.760418Q237.0625 62.276043 237.0625 61.713543L238.14062 61.713543Q238.17188 62.260418 238.57812 62.588543Q238.98438 62.901043 239.65625 62.901043Q240.26562 62.901043 240.64062 62.651043Q241.01562 62.401043 241.01562 61.979168Z" fill-rule="nonzero"/><path fill="#db4437" d="M258.5 54.166668C258.5 53.614384 258.94772 53.166668 259.5 53.166668L269.5 53.166668C270.05228 53.166668 270.5 53.614384 270.5 54.166668L270.5 64.166664C270.5 64.71895 270.05228 65.166664 269.5 65.166664L259.5 65.166664C258.94772 65.166664 258.5 64.71895 258.5 64.166664Z" fill-rule="nonzero"/><path fill="#757575" d="M281.65625 59.697918L280.60938 60.776043L280.60938 63.666668L279.48438 63.666668L279.48438 55.135418L280.60938 55.135418L280.60938 59.354168L284.40625 55.135418L285.76562 55.135418L282.40625 58.901043L286.03125 63.666668L284.6875 63.666668L281.65625 59.697918ZM288.5 63.666668L287.42188 63.666668L287.42188 57.322918L288.5 57.322918L288.5 63.666668ZM287.32812 55.651043Q287.32812 55.385418 287.48438 55.197918Q287.65625 55.010418 287.96875 55.010418Q288.28125 55.010418 288.4375 55.197918Q288.60938 55.385418 288.60938 55.651043Q288.60938 55.901043 288.4375 56.088543Q288.28125 56.260418 287.96875 56.260418Q287.65625 56.260418 287.48438 56.088543Q287.32812 55.901043 287.32812 55.651043ZM291.5 63.666668L290.42188 63.666668L290.42188 54.666668L291.5 54.666668L291.5 63.666668ZM293.03125 60.432293Q293.03125 59.510418 293.39062 58.760418Q293.76562 58.010418 294.42188 57.619793Q295.07812 57.213543 295.90625 57.213543Q297.20312 57.213543 298.0 58.104168Q298.8125 58.994793 298.8125 60.494793L298.8125 60.572918Q298.8125 61.494793 298.45312 62.229168Q298.09375 62.963543 297.4375 63.385418Q296.78125 63.791668 295.92188 63.791668Q294.64062 63.791668 293.82812 62.901043Q293.03125 61.994793 293.03125 60.510418L293.03125 60.432293ZM294.125 60.572918Q294.125 61.619793 294.60938 62.260418Q295.10938 62.901043 295.92188 62.901043Q296.75 62.901043 297.23438 62.260418Q297.71875 61.604168 297.71875 60.432293Q297.71875 59.401043 297.21875 58.760418Q296.73438 58.104168 295.90625 58.104168Q295.10938 58.104168 294.60938 58.744793Q294.125 59.369793 294.125 60.572918ZM305.6875 60.572918Q305.6875 62.026043 305.01562 62.916668Q304.35938 63.791668 303.23438 63.791668Q302.03125 63.791668 301.375 62.932293L301.3125 63.666668L300.32812 63.666668L300.32812 54.666668L301.40625 54.666668L301.40625 58.026043Q302.0625 57.213543 303.21875 57.213543Q304.375 57.213543 305.03125 58.088543Q305.6875 58.947918 305.6875 60.479168L305.6875 60.572918ZM304.60938 60.447918Q304.60938 59.338543 304.17188 58.744793Q303.75 58.135418 302.95312 58.135418Q301.875 58.135418 301.40625 59.119793L301.40625 61.869793Q301.90625 62.869793 302.95312 62.869793Q303.73438 62.869793 304.17188 62.260418Q304.60938 61.651043 304.60938 60.447918ZM309.39062 62.072918L310.875 57.322918L312.03125 57.322918L309.48438 64.65105Q308.89062 66.22917 307.60938 66.22917L307.39062 66.21355L307.0 66.13542L307.0 65.26042L307.28125 65.27605Q307.84375 65.27605 308.14062 65.0573Q308.45312 64.83855 308.65625 64.2448L308.89062 63.588543L306.625 57.322918L307.8125 57.322918L309.39062 62.072918ZM314.79688 55.791668L314.79688 57.322918L315.96875 57.322918L315.96875 58.166668L314.79688 58.166668L314.79688 62.088543Q314.79688 62.479168 314.95312 62.666668Q315.10938 62.854168 315.48438 62.854168Q315.67188 62.854168 316.0 62.791668L316.0 63.666668Q315.57812 63.791668 315.17188 63.791668Q314.45312 63.791668 314.07812 63.354168Q313.70312 62.901043 313.70312 62.088543L313.70312 58.166668L312.54688 58.166668L312.54688 57.322918L313.70312 57.322918L313.70312 55.791668L314.79688 55.791668ZM319.95312 63.791668Q318.65625 63.791668 317.84375 62.947918Q317.04688 62.088543 317.04688 60.666668L317.04688 60.479168Q317.04688 59.526043 317.40625 58.791668Q317.76562 58.041668 318.40625 57.635418Q319.0625 57.213543 319.8125 57.213543Q321.04688 57.213543 321.73438 58.026043Q322.42188 58.838543 322.42188 60.354168L322.42188 60.807293L318.125 60.807293Q318.15625 61.744793 318.67188 62.322918Q319.20312 62.901043 320.01562 62.901043Q320.57812 62.901043 320.96875 62.666668Q321.375 62.432293 321.6875 62.041668L322.34375 62.557293Q321.54688 63.791668 319.95312 63.791668ZM319.8125 58.104168Q319.15625 58.104168 318.70312 58.588543Q318.26562 59.057293 318.17188 59.916668L321.34375 59.916668L321.34375 59.838543Q321.29688 59.010418 320.89062 58.557293Q320.5 58.104168 319.8125 58.104168ZM327.01562 61.979168Q327.01562 61.541668 326.67188 61.307293Q326.34375 61.057293 325.51562 60.885418Q324.70312 60.713543 324.21875 60.463543Q323.73438 60.213543 323.5 59.885418Q323.28125 59.541668 323.28125 59.072918Q323.28125 58.291668 323.9375 57.760418Q324.59375 57.213543 325.625 57.213543Q326.70312 57.213543 327.35938 57.776043Q328.03125 58.322918 328.03125 59.182293L326.95312 59.182293Q326.95312 58.744793 326.5625 58.432293Q326.1875 58.104168 325.625 58.104168Q325.03125 58.104168 324.6875 58.369793Q324.35938 58.619793 324.35938 59.026043Q324.35938 59.416668 324.67188 59.619793Q324.98438 59.822918 325.79688 60.010418Q326.60938 60.182293 327.10938 60.432293Q327.60938 60.682293 327.84375 61.041668Q328.09375 61.401043 328.09375 61.901043Q328.09375 62.760418 327.40625 63.276043Q326.73438 63.791668 325.65625 63.791668Q324.89062 63.791668 324.29688 63.526043Q323.71875 63.244793 323.39062 62.760418Q323.0625 62.276043 323.0625 61.713543L324.14062 61.713543Q324.17188 62.260418 324.57812 62.588543Q324.98438 62.901043 325.65625 62.901043Q326.26562 62.901043 326.64062 62.651043Q327.01562 62.401043 327.01562 61.979168ZM337.20312 61.432293L333.625 61.432293L332.82812 63.666668L331.67188 63.666668L334.92188 55.135418L335.90625 55.135418L339.17188 63.666668L338.01562 63.666668L337.20312 61.432293ZM333.96875 60.510418L336.875 60.510418L335.42188 56.526043L333.96875 60.510418ZM341.5 63.666668L340.42188 63.666668L340.42188 54.666668L341.5 54.666668L341.5 63.666668ZM344.5 63.666668L343.42188 63.666668L343.42188 54.666668L344.5 54.666668L344.5 63.666668ZM346.03125 60.432293Q346.03125 59.510418 346.39062 58.760418Q346.76562 58.010418 347.42188 57.619793Q348.07812 57.213543 348.90625 57.213543Q350.20312 57.213543 351.0 58.104168Q351.8125 58.994793 351.8125 60.494793L351.8125 60.572918Q351.8125 61.494793 351.45312 62.229168Q351.09375 62.963543 350.4375 63.385418Q349.78125 63.791668 348.92188 63.791668Q347.64062 63.791668 346.82812 62.901043Q346.03125 61.994793 346.03125 60.510418L346.03125 60.432293ZM347.125 60.572918Q347.125 61.619793 347.60938 62.260418Q348.10938 62.901043 348.92188 62.901043Q349.75 62.901043 350.23438 62.260418Q350.71875 61.604168 350.71875 60.432293Q350.71875 59.401043 350.21875 58.760418Q349.73438 58.104168 348.90625 58.104168Q348.10938 58.104168 347.60938 58.744793Q347.125 59.369793 347.125 60.572918ZM355.85938 62.901043Q356.4375 62.901043 356.875 62.557293Q357.3125 62.197918 357.35938 61.666668L358.39062 61.666668Q358.35938 62.213543 358.0 62.713543Q357.65625 63.197918 357.07812 63.494793Q356.51562 63.791668 355.85938 63.791668Q354.5625 63.791668 353.79688 62.932293Q353.04688 62.057293 353.04688 60.557293L353.04688 60.369793Q353.04688 59.447918 353.375 58.729168Q353.71875 58.010418 354.34375 57.619793Q354.98438 57.213543 355.85938 57.213543Q356.92188 57.213543 357.625 57.854168Q358.34375 58.479168 358.39062 59.510418L357.35938 59.510418Q357.3125 58.885418 356.89062 58.494793Q356.46875 58.104168 355.85938 58.104168Q355.03125 58.104168 354.57812 58.697918Q354.125 59.291668 354.125 60.416668L354.125 60.619793Q354.125 61.713543 354.57812 62.307293Q355.03125 62.901043 355.85938 62.901043ZM363.23438 63.666668Q363.14062 63.479168 363.07812 62.994793Q362.32812 63.791668 361.28125 63.791668Q360.34375 63.791668 359.73438 63.260418Q359.14062 62.729168 359.14062 61.901043Q359.14062 60.916668 359.89062 60.369793Q360.64062 59.822918 362.01562 59.822918L363.0625 59.822918L363.0625 59.322918Q363.0625 58.760418 362.71875 58.432293Q362.39062 58.088543 361.71875 58.088543Q361.14062 58.088543 360.75 58.385418Q360.35938 58.666668 360.35938 59.088543L359.26562 59.088543Q359.26562 58.604168 359.59375 58.166668Q359.9375 57.729168 360.51562 57.479168Q361.09375 57.213543 361.78125 57.213543Q362.89062 57.213543 363.5 57.760418Q364.125 58.307293 364.15625 59.260418L364.15625 62.182293Q364.15625 63.057293 364.375 63.572918L364.375 63.666668L363.23438 63.666668ZM361.4375 62.838543Q361.95312 62.838543 362.40625 62.572918Q362.85938 62.307293 363.0625 61.885418L363.0625 60.588543L362.21875 60.588543Q360.21875 60.588543 360.21875 61.760418Q360.21875 62.260418 360.5625 62.557293Q360.90625 62.838543 361.4375 62.838543ZM367.79688 55.791668L367.79688 57.322918L368.96875 57.322918L368.96875 58.166668L367.79688 58.166668L367.79688 62.088543Q367.79688 62.479168 367.95312 62.666668Q368.10938 62.854168 368.48438 62.854168Q368.67188 62.854168 369.0 62.791668L369.0 63.666668Q368.57812 63.791668 368.17188 63.791668Q367.45312 63.791668 367.07812 63.354168Q366.70312 62.901043 366.70312 62.088543L366.70312 58.166668L365.54688 58.166668L365.54688 57.322918L366.70312 57.322918L366.70312 55.791668L367.79688 55.791668ZM372.95312 63.791668Q371.65625 63.791668 370.84375 62.947918Q370.04688 62.088543 370.04688 60.666668L370.04688 60.479168Q370.04688 59.526043 370.40625 58.791668Q370.76562 58.041668 371.40625 57.635418Q372.0625 57.213543 372.8125 57.213543Q374.04688 57.213543 374.73438 58.026043Q375.42188 58.838543 375.42188 60.354168L375.42188 60.807293L371.125 60.807293Q371.15625 61.744793 371.67188 62.322918Q372.20312 62.901043 373.01562 62.901043Q373.57812 62.901043 373.96875 62.666668Q374.375 62.432293 374.6875 62.041668L375.34375 62.557293Q374.54688 63.791668 372.95312 63.791668ZM372.8125 58.104168Q372.15625 58.104168 371.70312 58.588543Q371.26562 59.057293 371.17188 59.916668L374.34375 59.916668L374.34375 59.838543Q374.29688 59.010418 373.89062 58.557293Q373.5 58.104168 372.8125 58.104168ZM376.0625 60.447918Q376.0625 58.979168 376.75 58.104168Q377.4375 57.213543 378.5625 57.213543Q379.67188 57.213543 380.32812 57.963543L380.32812 54.666668L381.40625 54.666668L381.40625 63.666668L380.40625 63.666668L380.35938 62.979168Q379.70312 63.791668 378.54688 63.791668Q377.45312 63.791668 376.75 62.885418Q376.0625 61.979168 376.0625 60.526043L376.0625 60.447918ZM377.14062 60.572918Q377.14062 61.651043 377.57812 62.260418Q378.03125 62.869793 378.8125 62.869793Q379.84375 62.869793 380.32812 61.932293L380.32812 59.026043Q379.84375 58.135418 378.82812 58.135418Q378.03125 58.135418 377.57812 58.744793Q377.14062 59.354168 377.14062 60.572918Z" fill-rule="nonzero"/><path fill="#757575" d="M29.178125 35.6L27.2875 35.6L27.2875 29.021873L20.13125 29.021873L20.13125 35.6L18.25625 35.6L18.25625 21.381248L20.13125 21.381248L20.13125 27.490623L27.2875 27.490623L27.2875 21.381248L29.178125 21.381248L29.178125 35.6ZM38.490623 35.6Q38.334373 35.2875 38.240623 34.490623Q36.975 35.803123 35.225 35.803123Q33.6625 35.803123 32.6625 34.9125Q31.6625 34.021873 31.6625 32.6625Q31.6625 31.021873 32.9125 30.115623Q34.178123 29.193748 36.44375 29.193748L38.209373 29.193748L38.209373 28.365623Q38.209373 27.412498 37.63125 26.849998Q37.06875 26.287498 35.975 26.287498Q35.00625 26.287498 34.35 26.787498Q33.69375 27.271873 33.69375 27.959373L31.88125 27.959373Q31.88125 27.178123 32.44375 26.443748Q33.00625 25.693748 33.959373 25.271873Q34.928123 24.834373 36.084373 24.834373Q37.9125 24.834373 38.94375 25.756248Q39.975 26.662498 40.021873 28.271873L40.021873 33.13125Q40.021873 34.584373 40.38125 35.44375L40.38125 35.6L38.490623 35.6ZM35.490623 34.225Q36.35 34.225 37.1 33.7875Q37.865623 33.35 38.209373 32.646873L38.209373 30.474998L36.7875 30.474998Q33.475 30.474998 33.475 32.4125Q33.475 33.271873 34.0375 33.75625Q34.6 34.225 35.490623 34.225ZM49.115623 32.803123Q49.115623 32.06875 48.56875 31.662498Q48.021873 31.256248 46.646873 30.959373Q45.271873 30.662498 44.459373 30.256248Q43.6625 29.849998 43.271873 29.287498Q42.896873 28.709373 42.896873 27.928123Q42.896873 26.631248 43.990623 25.740623Q45.084373 24.834373 46.803123 24.834373Q48.6 24.834373 49.709373 25.771873Q50.834373 26.693748 50.834373 28.131248L49.00625 28.131248Q49.00625 27.396873 48.38125 26.865623Q47.75625 26.318748 46.803123 26.318748Q45.803123 26.318748 45.240623 26.756248Q44.69375 27.178123 44.69375 27.881248Q44.69375 28.521873 45.209373 28.865623Q45.725 29.193748 47.084373 29.506248Q48.44375 29.803123 49.271873 30.224998Q50.115623 30.631248 50.521873 31.224998Q50.928123 31.818748 50.928123 32.6625Q50.928123 34.084373 49.7875 34.94375Q48.6625 35.803123 46.85 35.803123Q45.584373 35.803123 44.6 35.35Q43.63125 34.896873 43.06875 34.1Q42.521873 33.2875 42.521873 32.35L44.334373 32.35Q44.38125 33.25625 45.053123 33.7875Q45.740623 34.31875 46.85 34.31875Q47.88125 34.31875 48.490623 33.9125Q49.115623 33.490623 49.115623 32.803123ZM54.771873 26.318748Q55.975 24.834373 57.896873 24.834373Q61.25625 24.834373 61.271873 28.615623L61.271873 35.6L59.475 35.6L59.475 28.599998Q59.459373 27.459373 58.94375 26.912498Q58.44375 26.365623 57.35 26.365623Q56.475 26.365623 55.803123 26.834373Q55.146873 27.303123 54.771873 28.068748L54.771873 35.6L52.975 35.6L52.975 20.599998L54.771873 20.599998L54.771873 26.318748ZM68.44375 29.256248Q66.02187 28.568748 64.92812 27.568748Q63.834373 26.553123 63.834373 25.068748Q63.834373 23.381248 65.17812 22.287498Q66.52187 21.178123 68.6625 21.178123Q70.13125 21.178123 71.27187 21.756248Q72.42812 22.318748 73.05312 23.318748Q73.67812 24.303123 73.67812 25.490623L71.80312 25.490623Q71.80312 24.209373 70.975 23.474998Q70.1625 22.724998 68.6625 22.724998Q67.27187 22.724998 66.49062 23.334373Q65.725 23.943748 65.725 25.037498Q65.725 25.896873 66.45937 26.506248Q67.19375 27.099998 68.95937 27.599998Q70.74062 28.099998 71.74062 28.709373Q72.74062 29.303123 73.225 30.099998Q73.70937 30.896873 73.70937 31.990623Q73.70937 33.709373 72.36562 34.75625Q71.02187 35.803123 68.75625 35.803123Q67.30312 35.803123 66.02187 35.240623Q64.75625 34.678123 64.06875 33.709373Q63.38125 32.725 63.38125 31.474998L65.27187 31.474998Q65.27187 32.771873 66.225 33.521873Q67.17812 34.25625 68.75625 34.25625Q70.24062 34.25625 71.0375 33.6625Q71.83437 33.053123 71.83437 32.00625Q71.83437 30.959373 71.1 30.396873Q70.36562 29.818748 68.44375 29.256248ZM80.35 35.803123Q78.20937 35.803123 76.85 34.396873Q75.50625 32.975 75.50625 30.615623L75.50625 30.271873Q75.50625 28.709373 76.1 27.474998Q76.70937 26.240623 77.7875 25.537498Q78.86562 24.834373 80.13125 24.834373Q82.19375 24.834373 83.33437 26.193748Q84.475 27.553123 84.475 30.084373L84.475 30.834373L77.31875 30.834373Q77.35 32.396873 78.225 33.365623Q79.1 34.31875 80.44375 34.31875Q81.4125 34.31875 82.06875 33.928123Q82.74062 33.5375 83.24062 32.896873L84.33437 33.75625Q83.00625 35.803123 80.35 35.803123ZM80.13125 26.318748Q79.0375 26.318748 78.2875 27.115623Q77.55312 27.912498 77.38125 29.349998L82.6625 29.349998L82.6625 29.209373Q82.58437 27.834373 81.9125 27.084373Q81.25625 26.318748 80.13125 26.318748ZM89.4125 22.474998L89.4125 25.037498L91.39687 25.037498L91.39687 26.428123L89.4125 26.428123L89.4125 32.975Q89.4125 33.615623 89.67812 33.94375Q89.94375 34.25625 90.58437 34.25625Q90.89687 34.25625 91.44375 34.13125L91.44375 35.6Q90.725 35.803123 90.05312 35.803123Q88.85 35.803123 88.225 35.06875Q87.61562 34.334373 87.61562 32.975L87.61562 26.428123L85.69375 26.428123L85.69375 25.037498L87.61562 25.037498L87.61562 22.474998L89.4125 22.474998ZM102.45937 33.146873L105.06875 25.037498L106.9125 25.037498L103.13125 35.6L101.75625 35.6L97.92812 25.037498L99.77187 25.037498L102.45937 33.146873ZM115.11562 32.803123Q115.11562 32.06875 114.56875 31.662498Q114.02187 31.256248 112.64687 30.959373Q111.27187 30.662498 110.45937 30.256248Q109.6625 29.849998 109.27187 29.287498Q108.89687 28.709373 108.89687 27.928123Q108.89687 26.631248 109.99062 25.740623Q111.08437 24.834373 112.80312 24.834373Q114.6 24.834373 115.70937 25.771873Q116.83437 26.693748 116.83437 28.131248L115.00625 28.131248Q115.00625 27.396873 114.38125 26.865623Q113.75625 26.318748 112.80312 26.318748Q111.80312 26.318748 111.24062 26.756248Q110.69375 27.178123 110.69375 27.881248Q110.69375 28.521873 111.20937 28.865623Q111.725 29.193748 113.08437 29.506248Q114.44375 29.803123 115.27187 30.224998Q116.11562 30.631248 116.52187 31.224998Q116.92812 31.818748 116.92812 32.6625Q116.92812 34.084373 115.7875 34.94375Q114.6625 35.803123 112.85 35.803123Q111.58437 35.803123 110.6 35.35Q109.63125 34.896873 109.06875 34.1Q108.52187 33.2875 108.52187 32.35L110.33437 32.35Q110.38125 33.25625 111.05312 33.7875Q111.74062 34.31875 112.85 34.31875Q113.88125 34.31875 114.49062 33.9125Q115.11562 33.490623 115.11562 32.803123ZM126.13125 30.037498L126.13125 35.6L124.25625 35.6L124.25625 21.381248L129.49063 21.381248Q131.83438 21.381248 133.14688 22.568748Q134.475 23.756248 134.475 25.724998Q134.475 27.803123 133.17813 28.928123Q131.88126 30.037498 129.475 30.037498L126.13125 30.037498ZM126.13125 28.506248L129.49063 28.506248Q131.00626 28.506248 131.80313 27.803123Q132.6 27.084373 132.6 25.740623Q132.6 24.474998 131.80313 23.724998Q131.00626 22.959373 129.6 22.928123L126.13125 22.928123L126.13125 28.506248ZM136.49063 30.224998Q136.49063 28.662498 137.1 27.428123Q137.70938 26.178123 138.7875 25.506248Q139.88126 24.834373 141.2875 24.834373Q143.44376 24.834373 144.77188 26.334373Q146.11563 27.818748 146.11563 30.303123L146.11563 30.428123Q146.11563 31.974998 145.52188 33.209373Q144.92813 34.428123 143.81876 35.115623Q142.725 35.803123 141.30313 35.803123Q139.1625 35.803123 137.81876 34.303123Q136.49063 32.803123 136.49063 30.349998L136.49063 30.224998ZM138.30313 30.428123Q138.30313 32.19375 139.11563 33.25625Q139.94376 34.31875 141.30313 34.31875Q142.67813 34.31875 143.49063 33.240623Q144.30313 32.1625 144.30313 30.224998Q144.30313 28.474998 143.475 27.396873Q142.64688 26.318748 141.2875 26.318748Q139.94376 26.318748 139.11563 27.381248Q138.30313 28.443748 138.30313 30.428123ZM147.49063 30.224998Q147.49063 28.662498 148.1 27.428123Q148.70938 26.178123 149.7875 25.506248Q150.88126 24.834373 152.2875 24.834373Q154.44376 24.834373 155.77188 26.334373Q157.11563 27.818748 157.11563 30.303123L157.11563 30.428123Q157.11563 31.974998 156.52188 33.209373Q155.92813 34.428123 154.81876 35.115623Q153.725 35.803123 152.30313 35.803123Q150.1625 35.803123 148.81876 34.303123Q147.49063 32.803123 147.49063 30.349998L147.49063 30.224998ZM149.30313 30.428123Q149.30313 32.19375 150.11563 33.25625Q150.94376 34.31875 152.30313 34.31875Q153.67813 34.31875 154.49063 33.240623Q155.30313 32.1625 155.30313 30.224998Q155.30313 28.474998 154.475 27.396873Q153.64688 26.318748 152.2875 26.318748Q150.94376 26.318748 150.11563 27.381248Q149.30313 28.443748 149.30313 30.428123ZM160.92813 35.6L159.13126 35.6L159.13126 20.599998L160.92813 20.599998L160.92813 35.6ZM168.35 35.803123Q166.20938 35.803123 164.85 34.396873Q163.50626 32.975 163.50626 30.615623L163.50626 30.271873Q163.50626 28.709373 164.1 27.474998Q164.70938 26.240623 165.7875 25.537498Q166.86563 24.834373 168.13126 24.834373Q170.19376 24.834373 171.33438 26.193748Q172.475 27.553123 172.475 30.084373L172.475 30.834373L165.31876 30.834373Q165.35 32.396873 166.225 33.365623Q167.1 34.31875 168.44376 34.31875Q169.4125 34.31875 170.06876 33.928123Q170.74063 33.5375 171.24063 32.896873L172.33438 33.75625Q171.00626 35.803123 168.35 35.803123ZM168.13126 26.318748Q167.0375 26.318748 166.2875 27.115623Q165.55313 27.912498 165.38126 29.349998L170.6625 29.349998L170.6625 29.209373Q170.58438 27.834373 169.9125 27.084373Q169.25626 26.318748 168.13126 26.318748ZM174.52188 30.224998Q174.52188 27.803123 175.67813 26.318748Q176.83438 24.834373 178.69376 24.834373Q180.55313 24.834373 181.63126 26.099998L181.63126 20.599998L183.44376 20.599998L183.44376 35.6L181.7875 35.6L181.69376 34.459373Q180.61563 35.803123 178.67813 35.803123Q176.85 35.803123 175.67813 34.303123Q174.52188 32.7875 174.52188 30.365623L174.52188 30.224998ZM176.33438 30.428123Q176.33438 32.225 177.06876 33.240623Q177.81876 34.25625 179.13126 34.25625Q180.85 34.25625 181.63126 32.725L181.63126 27.865623Q180.83438 26.365623 179.14688 26.365623Q177.81876 26.365623 177.06876 27.396873Q176.33438 28.428123 176.33438 30.428123ZM190.44376 29.256248Q188.02188 28.568748 186.92813 27.568748Q185.83438 26.553123 185.83438 25.068748Q185.83438 23.381248 187.17813 22.287498Q188.52188 21.178123 190.6625 21.178123Q192.13126 21.178123 193.27188 21.756248Q194.42813 22.318748 195.05313 23.318748Q195.67813 24.303123 195.67813 25.490623L193.80313 25.490623Q193.80313 24.209373 192.975 23.474998Q192.1625 22.724998 190.6625 22.724998Q189.27188 22.724998 188.49063 23.334373Q187.725 23.943748 187.725 25.037498Q187.725 25.896873 188.45938 26.506248Q189.19376 27.099998 190.95938 27.599998Q192.74063 28.099998 193.74063 28.709373Q194.74063 29.303123 195.225 30.099998Q195.70938 30.896873 195.70938 31.990623Q195.70938 33.709373 194.36563 34.75625Q193.02188 35.803123 190.75626 35.803123Q189.30313 35.803123 188.02188 35.240623Q186.75626 34.678123 186.06876 33.709373Q185.38126 32.725 185.38126 31.474998L187.27188 31.474998Q187.27188 32.771873 188.225 33.521873Q189.17813 34.25625 190.75626 34.25625Q192.24063 34.25625 193.0375 33.6625Q193.83438 33.053123 193.83438 32.00625Q193.83438 30.959373 193.1 30.396873Q192.36563 29.818748 190.44376 29.256248ZM202.35 35.803123Q200.20938 35.803123 198.85 34.396873Q197.50626 32.975 197.50626 30.615623L197.50626 30.271873Q197.50626 28.709373 198.1 27.474998Q198.70938 26.240623 199.7875 25.537498Q200.86563 24.834373 202.13126 24.834373Q204.19376 24.834373 205.33438 26.193748Q206.475 27.553123 206.475 30.084373L206.475 30.834373L199.31876 30.834373Q199.35 32.396873 200.225 33.365623Q201.1 34.31875 202.44376 34.31875Q203.4125 34.31875 204.06876 33.928123Q204.74063 33.5375 205.24063 32.896873L206.33438 33.75625Q205.00626 35.803123 202.35 35.803123ZM202.13126 26.318748Q201.0375 26.318748 200.2875 27.115623Q199.55313 27.912498 199.38126 29.349998L204.6625 29.349998L204.6625 29.209373Q204.58438 27.834373 203.9125 27.084373Q203.25626 26.318748 202.13126 26.318748ZM211.4125 22.474998L211.4125 25.037498L213.39688 25.037498L213.39688 26.428123L211.4125 26.428123L211.4125 32.975Q211.4125 33.615623 211.67813 33.94375Q211.94376 34.25625 212.58438 34.25625Q212.89688 34.25625 213.44376 34.13125L213.44376 35.6Q212.725 35.803123 212.05313 35.803123Q210.85 35.803123 210.225 35.06875Q209.61563 34.334373 209.61563 32.975L209.61563 26.428123L207.69376 26.428123L207.69376 25.037498L209.61563 25.037498L209.61563 22.474998L211.4125 22.474998ZM216.00626 34.646873Q216.00626 34.178123 216.2875 33.865623Q216.56876 33.553123 217.11563 33.553123Q217.67813 33.553123 217.95938 33.865623Q218.25626 34.178123 218.25626 34.646873Q218.25626 35.1 217.95938 35.4125Q217.67813 35.709373 217.11563 35.709373Q216.56876 35.709373 216.2875 35.4125Q216.00626 35.1 216.00626 34.646873ZM216.00626 25.646873Q216.00626 25.178123 216.2875 24.865623Q216.56876 24.553123 217.11563 24.553123Q217.67813 24.553123 217.95938 24.865623Q218.25626 25.178123 218.25626 25.646873Q218.25626 26.099998 217.95938 26.412498Q217.67813 26.709373 217.11563 26.709373Q216.56876 26.709373 216.2875 26.412498Q216.00626 26.099998 216.00626 25.646873ZM234.1 31.881248L228.14688 31.881248L226.80313 35.6L224.88126 35.6L230.30313 21.381248L231.94376 21.381248L237.38126 35.6L235.45938 35.6L234.1 31.881248ZM228.70938 30.349998L233.55313 30.349998L231.13126 23.693748L228.70938 30.349998ZM238.52188 30.224998Q238.52188 27.803123 239.67813 26.318748Q240.83438 24.834373 242.69376 24.834373Q244.55313 24.834373 245.63126 26.099998L245.63126 20.599998L247.44376 20.599998L247.44376 35.6L245.7875 35.6L245.69376 34.459373Q244.61563 35.803123 242.67813 35.803123Q240.85 35.803123 239.67813 34.303123Q238.52188 32.7875 238.52188 30.365623L238.52188 30.224998ZM240.33438 30.428123Q240.33438 32.225 241.06876 33.240623Q241.81876 34.25625 243.13126 34.25625Q244.85 34.25625 245.63126 32.725L245.63126 27.865623Q244.83438 26.365623 243.14688 26.365623Q241.81876 26.365623 241.06876 27.396873Q240.33438 28.428123 240.33438 30.428123ZM249.52188 30.224998Q249.52188 27.803123 250.67813 26.318748Q251.83438 24.834373 253.69376 24.834373Q255.55313 24.834373 256.63126 26.099998L256.63126 20.599998L258.44376 20.599998L258.44376 35.6L256.7875 35.6L256.69376 34.459373Q255.61563 35.803123 253.67813 35.803123Q251.85 35.803123 250.67813 34.303123Q249.52188 32.7875 249.52188 30.365623L249.52188 30.224998ZM251.33438 30.428123Q251.33438 32.225 252.06876 33.240623Q252.81876 34.25625 254.13126 34.25625Q255.85 34.25625 256.63126 32.725L256.63126 27.865623Q255.83438 26.365623 254.14688 26.365623Q252.81876 26.365623 252.06876 27.396873Q251.33438 28.428123 251.33438 30.428123Z" fill-rule="nonzero"/></svg>